G04 #@! TF.FileFunction,Legend,Top*
%FSLAX46Y46*%
G04 Gerber Fmt 4.6, Leading zero omitted, Abs format (unit mm)*
G04 Created by KiCad (PCBNEW 4.0.7) date Thursday, 17 May 2018 'PMt' 20:57:55*
%MOMM*%
%LPD*%
G01*
G04 APERTURE LIST*
%ADD10C,0.100000*%
%ADD11C,0.200000*%
%ADD12C,0.300000*%
%ADD13C,0.150000*%
%ADD14C,0.120000*%
%ADD15C,0.152400*%
G04 APERTURE END LIST*
D10*
D11*
X101346096Y-104656000D02*
X101250858Y-104608381D01*
X101108001Y-104608381D01*
X100965143Y-104656000D01*
X100869905Y-104751238D01*
X100822286Y-104846476D01*
X100774667Y-105036952D01*
X100774667Y-105179810D01*
X100822286Y-105370286D01*
X100869905Y-105465524D01*
X100965143Y-105560762D01*
X101108001Y-105608381D01*
X101203239Y-105608381D01*
X101346096Y-105560762D01*
X101393715Y-105513143D01*
X101393715Y-105179810D01*
X101203239Y-105179810D01*
X101822286Y-105608381D02*
X101822286Y-104608381D01*
X102393715Y-105608381D01*
X102393715Y-104608381D01*
X102869905Y-105608381D02*
X102869905Y-104608381D01*
X103108000Y-104608381D01*
X103250858Y-104656000D01*
X103346096Y-104751238D01*
X103393715Y-104846476D01*
X103441334Y-105036952D01*
X103441334Y-105179810D01*
X103393715Y-105370286D01*
X103346096Y-105465524D01*
X103250858Y-105560762D01*
X103108000Y-105608381D01*
X102869905Y-105608381D01*
X101917524Y-107148381D02*
X101441333Y-107148381D01*
X101393714Y-107624571D01*
X101441333Y-107576952D01*
X101536571Y-107529333D01*
X101774667Y-107529333D01*
X101869905Y-107576952D01*
X101917524Y-107624571D01*
X101965143Y-107719810D01*
X101965143Y-107957905D01*
X101917524Y-108053143D01*
X101869905Y-108100762D01*
X101774667Y-108148381D01*
X101536571Y-108148381D01*
X101441333Y-108100762D01*
X101393714Y-108053143D01*
X102250857Y-107148381D02*
X102584190Y-108148381D01*
X102917524Y-107148381D01*
D12*
X127381143Y-87062571D02*
X128238286Y-87062571D01*
X127809715Y-88562571D02*
X127809715Y-87062571D01*
X128595429Y-87062571D02*
X129595429Y-88562571D01*
X129595429Y-87062571D02*
X128595429Y-88562571D01*
X128020001Y-91102571D02*
X127520001Y-90388286D01*
X127162858Y-91102571D02*
X127162858Y-89602571D01*
X127734286Y-89602571D01*
X127877144Y-89674000D01*
X127948572Y-89745429D01*
X128020001Y-89888286D01*
X128020001Y-90102571D01*
X127948572Y-90245429D01*
X127877144Y-90316857D01*
X127734286Y-90388286D01*
X127162858Y-90388286D01*
X128520001Y-89602571D02*
X129520001Y-91102571D01*
X129520001Y-89602571D02*
X128520001Y-91102571D01*
X126047715Y-93642571D02*
X126047715Y-92142571D01*
X126404858Y-92142571D01*
X126619143Y-92214000D01*
X126762001Y-92356857D01*
X126833429Y-92499714D01*
X126904858Y-92785429D01*
X126904858Y-92999714D01*
X126833429Y-93285429D01*
X126762001Y-93428286D01*
X126619143Y-93571143D01*
X126404858Y-93642571D01*
X126047715Y-93642571D01*
X127333429Y-92142571D02*
X128190572Y-92142571D01*
X127762001Y-93642571D02*
X127762001Y-92142571D01*
X129547715Y-93642571D02*
X129047715Y-92928286D01*
X128690572Y-93642571D02*
X128690572Y-92142571D01*
X129262000Y-92142571D01*
X129404858Y-92214000D01*
X129476286Y-92285429D01*
X129547715Y-92428286D01*
X129547715Y-92642571D01*
X129476286Y-92785429D01*
X129404858Y-92856857D01*
X129262000Y-92928286D01*
X128690572Y-92928286D01*
X126940572Y-96182571D02*
X126440572Y-95468286D01*
X126083429Y-96182571D02*
X126083429Y-94682571D01*
X126654857Y-94682571D01*
X126797715Y-94754000D01*
X126869143Y-94825429D01*
X126940572Y-94968286D01*
X126940572Y-95182571D01*
X126869143Y-95325429D01*
X126797715Y-95396857D01*
X126654857Y-95468286D01*
X126083429Y-95468286D01*
X127369143Y-94682571D02*
X128226286Y-94682571D01*
X127797715Y-96182571D02*
X127797715Y-94682571D01*
X128654857Y-96111143D02*
X128869143Y-96182571D01*
X129226286Y-96182571D01*
X129369143Y-96111143D01*
X129440572Y-96039714D01*
X129512000Y-95896857D01*
X129512000Y-95754000D01*
X129440572Y-95611143D01*
X129369143Y-95539714D01*
X129226286Y-95468286D01*
X128940572Y-95396857D01*
X128797714Y-95325429D01*
X128726286Y-95254000D01*
X128654857Y-95111143D01*
X128654857Y-94968286D01*
X128726286Y-94825429D01*
X128797714Y-94754000D01*
X128940572Y-94682571D01*
X129297714Y-94682571D01*
X129512000Y-94754000D01*
X126619143Y-97294000D02*
X126476286Y-97222571D01*
X126262000Y-97222571D01*
X126047715Y-97294000D01*
X125904857Y-97436857D01*
X125833429Y-97579714D01*
X125762000Y-97865429D01*
X125762000Y-98079714D01*
X125833429Y-98365429D01*
X125904857Y-98508286D01*
X126047715Y-98651143D01*
X126262000Y-98722571D01*
X126404857Y-98722571D01*
X126619143Y-98651143D01*
X126690572Y-98579714D01*
X126690572Y-98079714D01*
X126404857Y-98079714D01*
X127333429Y-98722571D02*
X127333429Y-97222571D01*
X128190572Y-98722571D01*
X128190572Y-97222571D01*
X128904858Y-98722571D02*
X128904858Y-97222571D01*
X129262001Y-97222571D01*
X129476286Y-97294000D01*
X129619144Y-97436857D01*
X129690572Y-97579714D01*
X129762001Y-97865429D01*
X129762001Y-98079714D01*
X129690572Y-98365429D01*
X129619144Y-98508286D01*
X129476286Y-98651143D01*
X129262001Y-98722571D01*
X128904858Y-98722571D01*
D13*
X103243000Y-100496000D02*
X102243000Y-100496000D01*
X102243000Y-102196000D02*
X103243000Y-102196000D01*
X107370500Y-100496000D02*
X106370500Y-100496000D01*
X106370500Y-102196000D02*
X107370500Y-102196000D01*
X98052000Y-99148000D02*
X99052000Y-99148000D01*
X99052000Y-97448000D02*
X98052000Y-97448000D01*
X111482000Y-100496000D02*
X110482000Y-100496000D01*
X110482000Y-102196000D02*
X111482000Y-102196000D01*
X102608000Y-89320000D02*
X101608000Y-89320000D01*
X101608000Y-91020000D02*
X102608000Y-91020000D01*
D14*
X108586000Y-113543000D02*
X108586000Y-108993000D01*
X111886000Y-113543000D02*
X111886000Y-108993000D01*
X108586000Y-113543000D02*
X111886000Y-113543000D01*
D13*
X130468000Y-102370000D02*
X130468000Y-103370000D01*
X132168000Y-103370000D02*
X132168000Y-102370000D01*
D14*
X101340000Y-109856000D02*
X105890000Y-109856000D01*
X101340000Y-113156000D02*
X105890000Y-113156000D01*
X101340000Y-109856000D02*
X101340000Y-113156000D01*
X110940000Y-116166000D02*
X110940000Y-114466000D01*
X110940000Y-114466000D02*
X108390000Y-114466000D01*
X110940000Y-116166000D02*
X108390000Y-116166000D01*
D13*
X133731000Y-80010000D02*
X133731000Y-81661000D01*
X133731000Y-81661000D02*
X132334000Y-81661000D01*
X95631000Y-80010000D02*
X95631000Y-81534000D01*
X95631000Y-81534000D02*
X96901000Y-81534000D01*
X135001000Y-80010000D02*
X94361000Y-80010000D01*
X94361000Y-80010000D02*
X94361000Y-76200000D01*
X94361000Y-76200000D02*
X135001000Y-76200000D01*
X135001000Y-76200000D02*
X135001000Y-80010000D01*
X94361000Y-76200000D02*
X89281000Y-76200000D01*
X89281000Y-76200000D02*
X89281000Y-74930000D01*
X89281000Y-74930000D02*
X140081000Y-74930000D01*
X140081000Y-74930000D02*
X140081000Y-76200000D01*
X140081000Y-76200000D02*
X135001000Y-76200000D01*
X94361000Y-74930000D02*
X94361000Y-69215000D01*
X94361000Y-69215000D02*
X135001000Y-69215000D01*
X135001000Y-69215000D02*
X135001000Y-74930000D01*
X104361100Y-124467460D02*
X113061100Y-124467460D01*
X104361100Y-118062460D02*
X113061100Y-118062460D01*
X113061100Y-118062460D02*
X113061100Y-124467460D01*
X113061100Y-123237460D02*
X104361100Y-123237460D01*
X104361100Y-124467460D02*
X104361100Y-118062460D01*
D14*
X98128000Y-109788000D02*
X98128000Y-104588000D01*
X98128000Y-104588000D02*
X95468000Y-104588000D01*
X95468000Y-104588000D02*
X95468000Y-109788000D01*
X95468000Y-109788000D02*
X98128000Y-109788000D01*
X95468000Y-108838000D02*
X89468000Y-108838000D01*
X89468000Y-108838000D02*
X89468000Y-108078000D01*
X89468000Y-108078000D02*
X95468000Y-108078000D01*
X95468000Y-108778000D02*
X89468000Y-108778000D01*
X95468000Y-108658000D02*
X89468000Y-108658000D01*
X95468000Y-108538000D02*
X89468000Y-108538000D01*
X95468000Y-108418000D02*
X89468000Y-108418000D01*
X95468000Y-108298000D02*
X89468000Y-108298000D01*
X95468000Y-108178000D02*
X89468000Y-108178000D01*
X98458000Y-108838000D02*
X98128000Y-108838000D01*
X98458000Y-108078000D02*
X98128000Y-108078000D01*
X98128000Y-107188000D02*
X95468000Y-107188000D01*
X95468000Y-106298000D02*
X89468000Y-106298000D01*
X89468000Y-106298000D02*
X89468000Y-105538000D01*
X89468000Y-105538000D02*
X95468000Y-105538000D01*
X98525071Y-106298000D02*
X98128000Y-106298000D01*
X98525071Y-105538000D02*
X98128000Y-105538000D01*
X100838000Y-108458000D02*
X100838000Y-109728000D01*
X100838000Y-109728000D02*
X99568000Y-109728000D01*
D13*
X120996000Y-89013000D02*
X119796000Y-89013000D01*
X119796000Y-87263000D02*
X120996000Y-87263000D01*
X119796000Y-95645000D02*
X120996000Y-95645000D01*
X120996000Y-97395000D02*
X119796000Y-97395000D01*
X119796000Y-92597000D02*
X120996000Y-92597000D01*
X120996000Y-94347000D02*
X119796000Y-94347000D01*
X119796000Y-90057000D02*
X120996000Y-90057000D01*
X120996000Y-91807000D02*
X119796000Y-91807000D01*
X101673000Y-91558000D02*
X100673000Y-92558000D01*
X100673000Y-92558000D02*
X100673000Y-99958000D01*
X100673000Y-99958000D02*
X111163000Y-99958000D01*
X111163000Y-99958000D02*
X111163000Y-91558000D01*
X111163000Y-91558000D02*
X101673000Y-91558000D01*
D15*
X132080000Y-106553000D02*
X132080000Y-105791000D01*
X132080000Y-105791000D02*
X116078000Y-105791000D01*
X116078000Y-105791000D02*
X116078000Y-106553000D01*
D14*
X103232000Y-116200000D02*
X101972000Y-116200000D01*
X96412000Y-116200000D02*
X97672000Y-116200000D01*
X103232000Y-119960000D02*
X103232000Y-116200000D01*
X96412000Y-122210000D02*
X96412000Y-116200000D01*
X132758000Y-86554000D02*
X132758000Y-99374000D01*
X132758000Y-99374000D02*
X135418000Y-99374000D01*
X135418000Y-99374000D02*
X135418000Y-86554000D01*
X135418000Y-86554000D02*
X132758000Y-86554000D01*
X135418000Y-87504000D02*
X141418000Y-87504000D01*
X141418000Y-87504000D02*
X141418000Y-88264000D01*
X141418000Y-88264000D02*
X135418000Y-88264000D01*
X135418000Y-87564000D02*
X141418000Y-87564000D01*
X135418000Y-87684000D02*
X141418000Y-87684000D01*
X135418000Y-87804000D02*
X141418000Y-87804000D01*
X135418000Y-87924000D02*
X141418000Y-87924000D01*
X135418000Y-88044000D02*
X141418000Y-88044000D01*
X135418000Y-88164000D02*
X141418000Y-88164000D01*
X132428000Y-87504000D02*
X132758000Y-87504000D01*
X132428000Y-88264000D02*
X132758000Y-88264000D01*
X132758000Y-89154000D02*
X135418000Y-89154000D01*
X135418000Y-90044000D02*
X141418000Y-90044000D01*
X141418000Y-90044000D02*
X141418000Y-90804000D01*
X141418000Y-90804000D02*
X135418000Y-90804000D01*
X132360929Y-90044000D02*
X132758000Y-90044000D01*
X132360929Y-90804000D02*
X132758000Y-90804000D01*
X132758000Y-91694000D02*
X135418000Y-91694000D01*
X135418000Y-92584000D02*
X141418000Y-92584000D01*
X141418000Y-92584000D02*
X141418000Y-93344000D01*
X141418000Y-93344000D02*
X135418000Y-93344000D01*
X132360929Y-92584000D02*
X132758000Y-92584000D01*
X132360929Y-93344000D02*
X132758000Y-93344000D01*
X132758000Y-94234000D02*
X135418000Y-94234000D01*
X135418000Y-95124000D02*
X141418000Y-95124000D01*
X141418000Y-95124000D02*
X141418000Y-95884000D01*
X141418000Y-95884000D02*
X135418000Y-95884000D01*
X132360929Y-95124000D02*
X132758000Y-95124000D01*
X132360929Y-95884000D02*
X132758000Y-95884000D01*
X132758000Y-96774000D02*
X135418000Y-96774000D01*
X135418000Y-97664000D02*
X141418000Y-97664000D01*
X141418000Y-97664000D02*
X141418000Y-98424000D01*
X141418000Y-98424000D02*
X135418000Y-98424000D01*
X132360929Y-97664000D02*
X132758000Y-97664000D01*
X132360929Y-98424000D02*
X132758000Y-98424000D01*
X130048000Y-87884000D02*
X130048000Y-86614000D01*
X130048000Y-86614000D02*
X131318000Y-86614000D01*
D13*
X124552000Y-100443000D02*
X123352000Y-100443000D01*
X123352000Y-98693000D02*
X124552000Y-98693000D01*
X116722026Y-102108000D02*
G75*
G03X116722026Y-102108000I-898026J0D01*
G01*
X117274000Y-100358000D02*
X114374000Y-100358000D01*
X117274000Y-103858000D02*
X117274000Y-100358000D01*
X114374000Y-100358000D02*
X114374000Y-103858000D01*
X114374000Y-103858000D02*
X117274000Y-103848000D01*
X102703334Y-103925643D02*
X102655715Y-103973262D01*
X102512858Y-104020881D01*
X102417620Y-104020881D01*
X102274762Y-103973262D01*
X102179524Y-103878024D01*
X102131905Y-103782786D01*
X102084286Y-103592310D01*
X102084286Y-103449452D01*
X102131905Y-103258976D01*
X102179524Y-103163738D01*
X102274762Y-103068500D01*
X102417620Y-103020881D01*
X102512858Y-103020881D01*
X102655715Y-103068500D01*
X102703334Y-103116119D01*
X103655715Y-104020881D02*
X103084286Y-104020881D01*
X103370000Y-104020881D02*
X103370000Y-103020881D01*
X103274762Y-103163738D01*
X103179524Y-103258976D01*
X103084286Y-103306595D01*
X106767334Y-103925643D02*
X106719715Y-103973262D01*
X106576858Y-104020881D01*
X106481620Y-104020881D01*
X106338762Y-103973262D01*
X106243524Y-103878024D01*
X106195905Y-103782786D01*
X106148286Y-103592310D01*
X106148286Y-103449452D01*
X106195905Y-103258976D01*
X106243524Y-103163738D01*
X106338762Y-103068500D01*
X106481620Y-103020881D01*
X106576858Y-103020881D01*
X106719715Y-103068500D01*
X106767334Y-103116119D01*
X107148286Y-103116119D02*
X107195905Y-103068500D01*
X107291143Y-103020881D01*
X107529239Y-103020881D01*
X107624477Y-103068500D01*
X107672096Y-103116119D01*
X107719715Y-103211357D01*
X107719715Y-103306595D01*
X107672096Y-103449452D01*
X107100667Y-104020881D01*
X107719715Y-104020881D01*
X98385334Y-100755143D02*
X98337715Y-100802762D01*
X98194858Y-100850381D01*
X98099620Y-100850381D01*
X97956762Y-100802762D01*
X97861524Y-100707524D01*
X97813905Y-100612286D01*
X97766286Y-100421810D01*
X97766286Y-100278952D01*
X97813905Y-100088476D01*
X97861524Y-99993238D01*
X97956762Y-99898000D01*
X98099620Y-99850381D01*
X98194858Y-99850381D01*
X98337715Y-99898000D01*
X98385334Y-99945619D01*
X98718667Y-99850381D02*
X99337715Y-99850381D01*
X99004381Y-100231333D01*
X99147239Y-100231333D01*
X99242477Y-100278952D01*
X99290096Y-100326571D01*
X99337715Y-100421810D01*
X99337715Y-100659905D01*
X99290096Y-100755143D01*
X99242477Y-100802762D01*
X99147239Y-100850381D01*
X98861524Y-100850381D01*
X98766286Y-100802762D01*
X98718667Y-100755143D01*
X110831334Y-103989143D02*
X110783715Y-104036762D01*
X110640858Y-104084381D01*
X110545620Y-104084381D01*
X110402762Y-104036762D01*
X110307524Y-103941524D01*
X110259905Y-103846286D01*
X110212286Y-103655810D01*
X110212286Y-103512952D01*
X110259905Y-103322476D01*
X110307524Y-103227238D01*
X110402762Y-103132000D01*
X110545620Y-103084381D01*
X110640858Y-103084381D01*
X110783715Y-103132000D01*
X110831334Y-103179619D01*
X111688477Y-103417714D02*
X111688477Y-104084381D01*
X111450381Y-103036762D02*
X111212286Y-103751048D01*
X111831334Y-103751048D01*
X101941334Y-88427143D02*
X101893715Y-88474762D01*
X101750858Y-88522381D01*
X101655620Y-88522381D01*
X101512762Y-88474762D01*
X101417524Y-88379524D01*
X101369905Y-88284286D01*
X101322286Y-88093810D01*
X101322286Y-87950952D01*
X101369905Y-87760476D01*
X101417524Y-87665238D01*
X101512762Y-87570000D01*
X101655620Y-87522381D01*
X101750858Y-87522381D01*
X101893715Y-87570000D01*
X101941334Y-87617619D01*
X102846096Y-87522381D02*
X102369905Y-87522381D01*
X102322286Y-87998571D01*
X102369905Y-87950952D01*
X102465143Y-87903333D01*
X102703239Y-87903333D01*
X102798477Y-87950952D01*
X102846096Y-87998571D01*
X102893715Y-88093810D01*
X102893715Y-88331905D01*
X102846096Y-88427143D01*
X102798477Y-88474762D01*
X102703239Y-88522381D01*
X102465143Y-88522381D01*
X102369905Y-88474762D01*
X102322286Y-88427143D01*
X108307143Y-110148666D02*
X108354762Y-110196285D01*
X108402381Y-110339142D01*
X108402381Y-110434380D01*
X108354762Y-110577238D01*
X108259524Y-110672476D01*
X108164286Y-110720095D01*
X107973810Y-110767714D01*
X107830952Y-110767714D01*
X107640476Y-110720095D01*
X107545238Y-110672476D01*
X107450000Y-110577238D01*
X107402381Y-110434380D01*
X107402381Y-110339142D01*
X107450000Y-110196285D01*
X107497619Y-110148666D01*
X107402381Y-109291523D02*
X107402381Y-109482000D01*
X107450000Y-109577238D01*
X107497619Y-109624857D01*
X107640476Y-109720095D01*
X107830952Y-109767714D01*
X108211905Y-109767714D01*
X108307143Y-109720095D01*
X108354762Y-109672476D01*
X108402381Y-109577238D01*
X108402381Y-109386761D01*
X108354762Y-109291523D01*
X108307143Y-109243904D01*
X108211905Y-109196285D01*
X107973810Y-109196285D01*
X107878571Y-109243904D01*
X107830952Y-109291523D01*
X107783333Y-109386761D01*
X107783333Y-109577238D01*
X107830952Y-109672476D01*
X107878571Y-109720095D01*
X107973810Y-109767714D01*
X129897143Y-103036666D02*
X129944762Y-103084285D01*
X129992381Y-103227142D01*
X129992381Y-103322380D01*
X129944762Y-103465238D01*
X129849524Y-103560476D01*
X129754286Y-103608095D01*
X129563810Y-103655714D01*
X129420952Y-103655714D01*
X129230476Y-103608095D01*
X129135238Y-103560476D01*
X129040000Y-103465238D01*
X128992381Y-103322380D01*
X128992381Y-103227142D01*
X129040000Y-103084285D01*
X129087619Y-103036666D01*
X128992381Y-102703333D02*
X128992381Y-102036666D01*
X129992381Y-102465238D01*
X103973334Y-108713143D02*
X103925715Y-108760762D01*
X103782858Y-108808381D01*
X103687620Y-108808381D01*
X103544762Y-108760762D01*
X103449524Y-108665524D01*
X103401905Y-108570286D01*
X103354286Y-108379810D01*
X103354286Y-108236952D01*
X103401905Y-108046476D01*
X103449524Y-107951238D01*
X103544762Y-107856000D01*
X103687620Y-107808381D01*
X103782858Y-107808381D01*
X103925715Y-107856000D01*
X103973334Y-107903619D01*
X104544762Y-108236952D02*
X104449524Y-108189333D01*
X104401905Y-108141714D01*
X104354286Y-108046476D01*
X104354286Y-107998857D01*
X104401905Y-107903619D01*
X104449524Y-107856000D01*
X104544762Y-107808381D01*
X104735239Y-107808381D01*
X104830477Y-107856000D01*
X104878096Y-107903619D01*
X104925715Y-107998857D01*
X104925715Y-108046476D01*
X104878096Y-108141714D01*
X104830477Y-108189333D01*
X104735239Y-108236952D01*
X104544762Y-108236952D01*
X104449524Y-108284571D01*
X104401905Y-108332190D01*
X104354286Y-108427429D01*
X104354286Y-108617905D01*
X104401905Y-108713143D01*
X104449524Y-108760762D01*
X104544762Y-108808381D01*
X104735239Y-108808381D01*
X104830477Y-108760762D01*
X104878096Y-108713143D01*
X104925715Y-108617905D01*
X104925715Y-108427429D01*
X104878096Y-108332190D01*
X104830477Y-108284571D01*
X104735239Y-108236952D01*
X111275905Y-117038381D02*
X111275905Y-116038381D01*
X111514000Y-116038381D01*
X111656858Y-116086000D01*
X111752096Y-116181238D01*
X111799715Y-116276476D01*
X111847334Y-116466952D01*
X111847334Y-116609810D01*
X111799715Y-116800286D01*
X111752096Y-116895524D01*
X111656858Y-116990762D01*
X111514000Y-117038381D01*
X111275905Y-117038381D01*
X112799715Y-117038381D02*
X112228286Y-117038381D01*
X112514000Y-117038381D02*
X112514000Y-116038381D01*
X112418762Y-116181238D01*
X112323524Y-116276476D01*
X112228286Y-116324095D01*
X96694667Y-86320381D02*
X96694667Y-87034667D01*
X96647047Y-87177524D01*
X96551809Y-87272762D01*
X96408952Y-87320381D01*
X96313714Y-87320381D01*
X97694667Y-87320381D02*
X97123238Y-87320381D01*
X97408952Y-87320381D02*
X97408952Y-86320381D01*
X97313714Y-86463238D01*
X97218476Y-86558476D01*
X97123238Y-86606095D01*
X96805715Y-83256381D02*
X96234286Y-83256381D01*
X96520000Y-83256381D02*
X96520000Y-82256381D01*
X96424762Y-82399238D01*
X96329524Y-82494476D01*
X96234286Y-82542095D01*
X106600667Y-116652381D02*
X106600667Y-117366667D01*
X106553047Y-117509524D01*
X106457809Y-117604762D01*
X106314952Y-117652381D01*
X106219714Y-117652381D01*
X106981619Y-116652381D02*
X107600667Y-116652381D01*
X107267333Y-117033333D01*
X107410191Y-117033333D01*
X107505429Y-117080952D01*
X107553048Y-117128571D01*
X107600667Y-117223810D01*
X107600667Y-117461905D01*
X107553048Y-117557143D01*
X107505429Y-117604762D01*
X107410191Y-117652381D01*
X107124476Y-117652381D01*
X107029238Y-117604762D01*
X106981619Y-117557143D01*
X97750381Y-111077333D02*
X98464667Y-111077333D01*
X98607524Y-111124953D01*
X98702762Y-111220191D01*
X98750381Y-111363048D01*
X98750381Y-111458286D01*
X98083714Y-110172571D02*
X98750381Y-110172571D01*
X97702762Y-110410667D02*
X98417048Y-110648762D01*
X98417048Y-110029714D01*
X123023334Y-88590381D02*
X122690000Y-88114190D01*
X122451905Y-88590381D02*
X122451905Y-87590381D01*
X122832858Y-87590381D01*
X122928096Y-87638000D01*
X122975715Y-87685619D01*
X123023334Y-87780857D01*
X123023334Y-87923714D01*
X122975715Y-88018952D01*
X122928096Y-88066571D01*
X122832858Y-88114190D01*
X122451905Y-88114190D01*
X123975715Y-88590381D02*
X123404286Y-88590381D01*
X123690000Y-88590381D02*
X123690000Y-87590381D01*
X123594762Y-87733238D01*
X123499524Y-87828476D01*
X123404286Y-87876095D01*
X123023334Y-96972381D02*
X122690000Y-96496190D01*
X122451905Y-96972381D02*
X122451905Y-95972381D01*
X122832858Y-95972381D01*
X122928096Y-96020000D01*
X122975715Y-96067619D01*
X123023334Y-96162857D01*
X123023334Y-96305714D01*
X122975715Y-96400952D01*
X122928096Y-96448571D01*
X122832858Y-96496190D01*
X122451905Y-96496190D01*
X123356667Y-95972381D02*
X123975715Y-95972381D01*
X123642381Y-96353333D01*
X123785239Y-96353333D01*
X123880477Y-96400952D01*
X123928096Y-96448571D01*
X123975715Y-96543810D01*
X123975715Y-96781905D01*
X123928096Y-96877143D01*
X123880477Y-96924762D01*
X123785239Y-96972381D01*
X123499524Y-96972381D01*
X123404286Y-96924762D01*
X123356667Y-96877143D01*
X123023334Y-93924381D02*
X122690000Y-93448190D01*
X122451905Y-93924381D02*
X122451905Y-92924381D01*
X122832858Y-92924381D01*
X122928096Y-92972000D01*
X122975715Y-93019619D01*
X123023334Y-93114857D01*
X123023334Y-93257714D01*
X122975715Y-93352952D01*
X122928096Y-93400571D01*
X122832858Y-93448190D01*
X122451905Y-93448190D01*
X123880477Y-93257714D02*
X123880477Y-93924381D01*
X123642381Y-92876762D02*
X123404286Y-93591048D01*
X124023334Y-93591048D01*
X123023334Y-91384381D02*
X122690000Y-90908190D01*
X122451905Y-91384381D02*
X122451905Y-90384381D01*
X122832858Y-90384381D01*
X122928096Y-90432000D01*
X122975715Y-90479619D01*
X123023334Y-90574857D01*
X123023334Y-90717714D01*
X122975715Y-90812952D01*
X122928096Y-90860571D01*
X122832858Y-90908190D01*
X122451905Y-90908190D01*
X123928096Y-90384381D02*
X123451905Y-90384381D01*
X123404286Y-90860571D01*
X123451905Y-90812952D01*
X123547143Y-90765333D01*
X123785239Y-90765333D01*
X123880477Y-90812952D01*
X123928096Y-90860571D01*
X123975715Y-90955810D01*
X123975715Y-91193905D01*
X123928096Y-91289143D01*
X123880477Y-91336762D01*
X123785239Y-91384381D01*
X123547143Y-91384381D01*
X123451905Y-91336762D01*
X123404286Y-91289143D01*
X98815857Y-96672286D02*
X99787286Y-96672286D01*
X99901571Y-96615143D01*
X99958714Y-96558000D01*
X100015857Y-96443714D01*
X100015857Y-96215143D01*
X99958714Y-96100857D01*
X99901571Y-96043714D01*
X99787286Y-95986571D01*
X98815857Y-95986571D01*
X100015857Y-94786571D02*
X100015857Y-95472286D01*
X100015857Y-95129428D02*
X98815857Y-95129428D01*
X98987286Y-95243714D01*
X99101571Y-95358000D01*
X99158714Y-95472286D01*
X128230381Y-109727905D02*
X129039905Y-109727905D01*
X129135143Y-109680286D01*
X129182762Y-109632667D01*
X129230381Y-109537429D01*
X129230381Y-109346952D01*
X129182762Y-109251714D01*
X129135143Y-109204095D01*
X129039905Y-109156476D01*
X128230381Y-109156476D01*
X128325619Y-108727905D02*
X128278000Y-108680286D01*
X128230381Y-108585048D01*
X128230381Y-108346952D01*
X128278000Y-108251714D01*
X128325619Y-108204095D01*
X128420857Y-108156476D01*
X128516095Y-108156476D01*
X128658952Y-108204095D01*
X129230381Y-108775524D01*
X129230381Y-108156476D01*
X96266095Y-112228381D02*
X96266095Y-113037905D01*
X96313714Y-113133143D01*
X96361333Y-113180762D01*
X96456571Y-113228381D01*
X96647048Y-113228381D01*
X96742286Y-113180762D01*
X96789905Y-113133143D01*
X96837524Y-113037905D01*
X96837524Y-112228381D01*
X97218476Y-112228381D02*
X97837524Y-112228381D01*
X97504190Y-112609333D01*
X97647048Y-112609333D01*
X97742286Y-112656952D01*
X97789905Y-112704571D01*
X97837524Y-112799810D01*
X97837524Y-113037905D01*
X97789905Y-113133143D01*
X97742286Y-113180762D01*
X97647048Y-113228381D01*
X97361333Y-113228381D01*
X97266095Y-113180762D01*
X97218476Y-113133143D01*
X128698667Y-99528381D02*
X128698667Y-100242667D01*
X128651047Y-100385524D01*
X128555809Y-100480762D01*
X128412952Y-100528381D01*
X128317714Y-100528381D01*
X129127238Y-99623619D02*
X129174857Y-99576000D01*
X129270095Y-99528381D01*
X129508191Y-99528381D01*
X129603429Y-99576000D01*
X129651048Y-99623619D01*
X129698667Y-99718857D01*
X129698667Y-99814095D01*
X129651048Y-99956952D01*
X129079619Y-100528381D01*
X129698667Y-100528381D01*
X125817334Y-101036381D02*
X125484000Y-100560190D01*
X125245905Y-101036381D02*
X125245905Y-100036381D01*
X125626858Y-100036381D01*
X125722096Y-100084000D01*
X125769715Y-100131619D01*
X125817334Y-100226857D01*
X125817334Y-100369714D01*
X125769715Y-100464952D01*
X125722096Y-100512571D01*
X125626858Y-100560190D01*
X125245905Y-100560190D01*
X126198286Y-100131619D02*
X126245905Y-100084000D01*
X126341143Y-100036381D01*
X126579239Y-100036381D01*
X126674477Y-100084000D01*
X126722096Y-100131619D01*
X126769715Y-100226857D01*
X126769715Y-100322095D01*
X126722096Y-100464952D01*
X126150667Y-101036381D01*
X126769715Y-101036381D01*
X114490667Y-98448762D02*
X114633524Y-98496381D01*
X114871620Y-98496381D01*
X114966858Y-98448762D01*
X115014477Y-98401143D01*
X115062096Y-98305905D01*
X115062096Y-98210667D01*
X115014477Y-98115429D01*
X114966858Y-98067810D01*
X114871620Y-98020190D01*
X114681143Y-97972571D01*
X114585905Y-97924952D01*
X114538286Y-97877333D01*
X114490667Y-97782095D01*
X114490667Y-97686857D01*
X114538286Y-97591619D01*
X114585905Y-97544000D01*
X114681143Y-97496381D01*
X114919239Y-97496381D01*
X115062096Y-97544000D01*
X115395429Y-97496381D02*
X115633524Y-98496381D01*
X115824001Y-97782095D01*
X116014477Y-98496381D01*
X116252572Y-97496381D01*
X117157334Y-98496381D02*
X116585905Y-98496381D01*
X116871619Y-98496381D02*
X116871619Y-97496381D01*
X116776381Y-97639238D01*
X116681143Y-97734476D01*
X116585905Y-97782095D01*
M02*
