G04 #@! TF.FileFunction,Copper,L2,Bot,Signal*
%FSLAX46Y46*%
G04 Gerber Fmt 4.6, Leading zero omitted, Abs format (unit mm)*
G04 Created by KiCad (PCBNEW 4.0.7) date Thursday, 17 May 2018 'PMt' 20:57:55*
%MOMM*%
%LPD*%
G01*
G04 APERTURE LIST*
%ADD10C,0.100000*%
%ADD11C,0.600000*%
%ADD12R,1.524000X5.080000*%
%ADD13O,1.250000X0.950000*%
%ADD14O,1.000000X1.550000*%
%ADD15R,1.700000X1.700000*%
%ADD16O,1.700000X1.700000*%
%ADD17R,0.965200X1.270000*%
%ADD18C,0.400000*%
%ADD19C,0.250000*%
%ADD20C,0.254000*%
G04 APERTURE END LIST*
D10*
D11*
X113284000Y-97536000D03*
X113538000Y-105410000D03*
X113284000Y-95250000D03*
X125984000Y-92964000D03*
X104394000Y-105410000D03*
X98298000Y-88138000D03*
X126238000Y-120650000D03*
X120904000Y-120650000D03*
X122936000Y-117094000D03*
X122428000Y-109220000D03*
X127508000Y-88900000D03*
X126238000Y-95758000D03*
X99060000Y-94742000D03*
X100584000Y-103124000D03*
X98552000Y-101600000D03*
D12*
X99568000Y-83185000D03*
X102235000Y-83185000D03*
X105029000Y-83185000D03*
X107823000Y-83185000D03*
X110490000Y-83185000D03*
X113284000Y-83185000D03*
X115951000Y-83185000D03*
X118745000Y-83185000D03*
X121539000Y-83185000D03*
X124206000Y-83185000D03*
X127000000Y-83185000D03*
X129667000Y-83185000D03*
D13*
X106211100Y-119087460D03*
X111211100Y-119087460D03*
D14*
X105211100Y-121787460D03*
X112211100Y-121787460D03*
D15*
X99568000Y-108458000D03*
D16*
X99568000Y-105918000D03*
D17*
X117602000Y-96012000D03*
X116332000Y-96012000D03*
X115062000Y-96012000D03*
D15*
X131318000Y-87884000D03*
D16*
X131318000Y-90424000D03*
X131318000Y-92964000D03*
X131318000Y-95504000D03*
X131318000Y-98044000D03*
D17*
X105854500Y-88709500D03*
X107124500Y-88709500D03*
X108394500Y-88709500D03*
X113601500Y-88900000D03*
X114871500Y-88900000D03*
X116141500Y-88900000D03*
D11*
X110236000Y-105664000D03*
X118872000Y-94996000D03*
X118618000Y-101346000D03*
X107950000Y-111760000D03*
X100838000Y-86360000D03*
X103886000Y-88646000D03*
X103632000Y-86360004D03*
X104394000Y-90424000D03*
X105409998Y-86868000D03*
X109220000Y-86868000D03*
X112522000Y-91948000D03*
X114300000Y-93726000D03*
X112014000Y-86868000D03*
X117094000Y-86614000D03*
X107950000Y-95250000D03*
X111506000Y-104140000D03*
X106172000Y-95758000D03*
X112776000Y-109982000D03*
X108458000Y-90424000D03*
X111252000Y-90424000D03*
X106934000Y-95250000D03*
X111721997Y-97790000D03*
X123952000Y-89408000D03*
X124206000Y-103378000D03*
X122936000Y-90932000D03*
X119126000Y-113284000D03*
X112522000Y-96266000D03*
X115570000Y-91948000D03*
X118110000Y-89408000D03*
X122936000Y-89662000D03*
X119634000Y-99060000D03*
X114300000Y-109474000D03*
D18*
X115824000Y-101346000D02*
X111506000Y-105664000D01*
X111506000Y-105664000D02*
X110236000Y-105664000D01*
X118618000Y-101346000D02*
X118618000Y-95250000D01*
X118618000Y-95250000D02*
X118872000Y-94996000D01*
X115824000Y-101346000D02*
X118618000Y-101346000D01*
X101326000Y-108966000D02*
X105156000Y-108966000D01*
X105156000Y-108966000D02*
X107950000Y-111760000D01*
X99568000Y-108458000D02*
X100818000Y-108458000D01*
X100818000Y-108458000D02*
X101326000Y-108966000D01*
D19*
X103886000Y-88646000D02*
X103124000Y-88646000D01*
X103124000Y-88646000D02*
X100838000Y-86360000D01*
X104394000Y-90424000D02*
X104693999Y-90124001D01*
X103931999Y-86660003D02*
X103632000Y-86360004D01*
X104693999Y-87585001D02*
X103931999Y-86823001D01*
X103931999Y-86823001D02*
X103931999Y-86660003D01*
X104693999Y-90124001D02*
X104693999Y-87585001D01*
X106217997Y-86060001D02*
X105409998Y-86868000D01*
X112131003Y-86060001D02*
X106217997Y-86060001D01*
X113601500Y-87530498D02*
X112131003Y-86060001D01*
X113601500Y-88900000D02*
X113601500Y-87530498D01*
X106185995Y-87493005D02*
X108594995Y-87493005D01*
X108594995Y-87493005D02*
X109220000Y-86868000D01*
X105854500Y-87824500D02*
X106185995Y-87493005D01*
X105854500Y-88709500D02*
X105854500Y-87824500D01*
X112522000Y-91948000D02*
X112522000Y-89825002D01*
X112522000Y-89825002D02*
X111406498Y-88709500D01*
X111406498Y-88709500D02*
X108394500Y-88709500D01*
X115062000Y-96012000D02*
X115062000Y-94488000D01*
X115062000Y-94488000D02*
X114300000Y-93726000D01*
X108394500Y-88709500D02*
X110172500Y-88709500D01*
X110172500Y-88709500D02*
X112014000Y-86868000D01*
X117602000Y-96012000D02*
X117602000Y-90079002D01*
X117602000Y-90079002D02*
X117094000Y-89571002D01*
X117094000Y-89571002D02*
X117094000Y-86614000D01*
X117348000Y-95758000D02*
X117602000Y-96012000D01*
X116141500Y-88900000D02*
X116141500Y-83375500D01*
X116141500Y-83375500D02*
X115951000Y-83185000D01*
X116332000Y-96012000D02*
X116332000Y-89090500D01*
X116332000Y-89090500D02*
X116141500Y-88900000D01*
X116332000Y-83566000D02*
X115951000Y-83185000D01*
X111506000Y-104140000D02*
X111506000Y-98806000D01*
X111506000Y-98806000D02*
X107950000Y-95250000D01*
X112776000Y-109982000D02*
X106172000Y-103378000D01*
X106172000Y-103378000D02*
X106172000Y-95758000D01*
X111252000Y-90424000D02*
X108458000Y-90424000D01*
X106934000Y-95250000D02*
X106934000Y-88900000D01*
X106934000Y-88900000D02*
X107124500Y-88709500D01*
X111721997Y-97790000D02*
X111721997Y-94780003D01*
X111721997Y-94780003D02*
X114871500Y-91630500D01*
X114871500Y-91630500D02*
X114871500Y-88900000D01*
X124206000Y-103378000D02*
X124206000Y-89662000D01*
X124206000Y-89662000D02*
X123952000Y-89408000D01*
X121412000Y-107097002D02*
X121412000Y-92456000D01*
X121412000Y-92456000D02*
X122936000Y-90932000D01*
X119126000Y-113284000D02*
X119126000Y-109383002D01*
X119126000Y-109383002D02*
X121412000Y-107097002D01*
X115570000Y-91948000D02*
X115270001Y-92247999D01*
X114890411Y-92247999D02*
X112522000Y-94616410D01*
X115270001Y-92247999D02*
X114890411Y-92247999D01*
X112522000Y-94616410D02*
X112522000Y-96266000D01*
X122936000Y-89662000D02*
X118364000Y-89662000D01*
X118364000Y-89662000D02*
X118110000Y-89408000D01*
X114300000Y-109474000D02*
X119634000Y-104140000D01*
X119634000Y-104140000D02*
X119634000Y-99060000D01*
D20*
G36*
X98417536Y-85725000D02*
X98444103Y-85866190D01*
X98527546Y-85995865D01*
X98654866Y-86082859D01*
X98806000Y-86113464D01*
X100202994Y-86113464D01*
X100157118Y-86223946D01*
X100156882Y-86494865D01*
X100260339Y-86745252D01*
X100451741Y-86936987D01*
X100701946Y-87040882D01*
X100803378Y-87040970D01*
X102766204Y-89003796D01*
X102930362Y-89113483D01*
X103124000Y-89152000D01*
X103428877Y-89152000D01*
X103499741Y-89222987D01*
X103749946Y-89326882D01*
X104020865Y-89327118D01*
X104187999Y-89258060D01*
X104187999Y-89772275D01*
X104008748Y-89846339D01*
X103817013Y-90037741D01*
X103713118Y-90287946D01*
X103712882Y-90558865D01*
X103816339Y-90809252D01*
X104007741Y-91000987D01*
X104257946Y-91104882D01*
X104528865Y-91105118D01*
X104779252Y-91001661D01*
X104970987Y-90810259D01*
X105074882Y-90560054D01*
X105074980Y-90447097D01*
X105136509Y-90355013D01*
X105161482Y-90317639D01*
X105199999Y-90124001D01*
X105199999Y-89688170D01*
X105220766Y-89702359D01*
X105371900Y-89732964D01*
X106337100Y-89732964D01*
X106428000Y-89715860D01*
X106428000Y-94792877D01*
X106357013Y-94863741D01*
X106268425Y-95077083D01*
X106037135Y-95076882D01*
X105786748Y-95180339D01*
X105595013Y-95371741D01*
X105491118Y-95621946D01*
X105490882Y-95892865D01*
X105594339Y-96143252D01*
X105666000Y-96215038D01*
X105666000Y-103378000D01*
X105704517Y-103571638D01*
X105814204Y-103735796D01*
X112094969Y-110016561D01*
X112094882Y-110116865D01*
X112198339Y-110367252D01*
X112389741Y-110558987D01*
X112639946Y-110662882D01*
X112910865Y-110663118D01*
X113161252Y-110559661D01*
X113352987Y-110368259D01*
X113456882Y-110118054D01*
X113457118Y-109847135D01*
X113353661Y-109596748D01*
X113162259Y-109405013D01*
X112912054Y-109301118D01*
X112810622Y-109301030D01*
X106678000Y-103168408D01*
X106678000Y-96215123D01*
X106748987Y-96144259D01*
X106837575Y-95930917D01*
X107068865Y-95931118D01*
X107319252Y-95827661D01*
X107442046Y-95705080D01*
X107563741Y-95826987D01*
X107813946Y-95930882D01*
X107915378Y-95930970D01*
X111000000Y-99015592D01*
X111000000Y-103682877D01*
X110929013Y-103753741D01*
X110825118Y-104003946D01*
X110824882Y-104274865D01*
X110928339Y-104525252D01*
X111119741Y-104716987D01*
X111369946Y-104820882D01*
X111527323Y-104821019D01*
X111265342Y-105083000D01*
X110612595Y-105083000D01*
X110372054Y-104983118D01*
X110101135Y-104982882D01*
X109850748Y-105086339D01*
X109659013Y-105277741D01*
X109555118Y-105527946D01*
X109554882Y-105798865D01*
X109658339Y-106049252D01*
X109849741Y-106240987D01*
X110099946Y-106344882D01*
X110370865Y-106345118D01*
X110613171Y-106245000D01*
X111506000Y-106245000D01*
X111728339Y-106200774D01*
X111916829Y-106074829D01*
X116064658Y-101927000D01*
X118241405Y-101927000D01*
X118481946Y-102026882D01*
X118752865Y-102027118D01*
X119003252Y-101923661D01*
X119128000Y-101799130D01*
X119128000Y-103930408D01*
X114265439Y-108792969D01*
X114165135Y-108792882D01*
X113914748Y-108896339D01*
X113723013Y-109087741D01*
X113619118Y-109337946D01*
X113618882Y-109608865D01*
X113722339Y-109859252D01*
X113913741Y-110050987D01*
X114163946Y-110154882D01*
X114434865Y-110155118D01*
X114685252Y-110051661D01*
X114876987Y-109860259D01*
X114980882Y-109610054D01*
X114980970Y-109508622D01*
X119991796Y-104497796D01*
X120101483Y-104333638D01*
X120140000Y-104140000D01*
X120140000Y-99517123D01*
X120210987Y-99446259D01*
X120314882Y-99196054D01*
X120315118Y-98925135D01*
X120211661Y-98674748D01*
X120020259Y-98483013D01*
X119770054Y-98379118D01*
X119499135Y-98378882D01*
X119248748Y-98482339D01*
X119199000Y-98532001D01*
X119199000Y-95597730D01*
X119257252Y-95573661D01*
X119448987Y-95382259D01*
X119552882Y-95132054D01*
X119553118Y-94861135D01*
X119449661Y-94610748D01*
X119258259Y-94419013D01*
X119008054Y-94315118D01*
X118737135Y-94314882D01*
X118486748Y-94418339D01*
X118295013Y-94609741D01*
X118191118Y-94859946D01*
X118191115Y-94863200D01*
X118108000Y-94987591D01*
X118108000Y-90088999D01*
X118109775Y-90089000D01*
X118170362Y-90129483D01*
X118364000Y-90168000D01*
X122478877Y-90168000D01*
X122549741Y-90238987D01*
X122689485Y-90297014D01*
X122550748Y-90354339D01*
X122359013Y-90545741D01*
X122255118Y-90795946D01*
X122255030Y-90897378D01*
X121054204Y-92098204D01*
X120944517Y-92262362D01*
X120906000Y-92456000D01*
X120906000Y-106887410D01*
X118768204Y-109025206D01*
X118658517Y-109189364D01*
X118620000Y-109383002D01*
X118620000Y-112826877D01*
X118549013Y-112897741D01*
X118445118Y-113147946D01*
X118444882Y-113418865D01*
X118548339Y-113669252D01*
X118739741Y-113860987D01*
X118989946Y-113964882D01*
X119260865Y-113965118D01*
X119511252Y-113861661D01*
X119702987Y-113670259D01*
X119806882Y-113420054D01*
X119807118Y-113149135D01*
X119703661Y-112898748D01*
X119632000Y-112826962D01*
X119632000Y-109592594D01*
X121769796Y-107454798D01*
X121879483Y-107290640D01*
X121918000Y-107097002D01*
X121918000Y-92665592D01*
X122970561Y-91613031D01*
X123070865Y-91613118D01*
X123321252Y-91509661D01*
X123512987Y-91318259D01*
X123616882Y-91068054D01*
X123617118Y-90797135D01*
X123513661Y-90546748D01*
X123322259Y-90355013D01*
X123182515Y-90296986D01*
X123321252Y-90239661D01*
X123512987Y-90048259D01*
X123547039Y-89966253D01*
X123565741Y-89984987D01*
X123700000Y-90040737D01*
X123700000Y-102920877D01*
X123629013Y-102991741D01*
X123525118Y-103241946D01*
X123524882Y-103512865D01*
X123628339Y-103763252D01*
X123819741Y-103954987D01*
X124069946Y-104058882D01*
X124340865Y-104059118D01*
X124591252Y-103955661D01*
X124782987Y-103764259D01*
X124886882Y-103514054D01*
X124887118Y-103243135D01*
X124783661Y-102992748D01*
X124712000Y-102920962D01*
X124712000Y-98400890D01*
X129876524Y-98400890D01*
X130046355Y-98810924D01*
X130436642Y-99239183D01*
X130961108Y-99485486D01*
X131191000Y-99364819D01*
X131191000Y-98171000D01*
X131445000Y-98171000D01*
X131445000Y-99364819D01*
X131674892Y-99485486D01*
X132199358Y-99239183D01*
X132589645Y-98810924D01*
X132759476Y-98400890D01*
X132638155Y-98171000D01*
X131445000Y-98171000D01*
X131191000Y-98171000D01*
X129997845Y-98171000D01*
X129876524Y-98400890D01*
X124712000Y-98400890D01*
X124712000Y-97687110D01*
X129876524Y-97687110D01*
X129997845Y-97917000D01*
X131191000Y-97917000D01*
X131191000Y-97897000D01*
X131445000Y-97897000D01*
X131445000Y-97917000D01*
X132638155Y-97917000D01*
X132759476Y-97687110D01*
X132589645Y-97277076D01*
X132199358Y-96848817D01*
X131774053Y-96649083D01*
X131813200Y-96641296D01*
X132212565Y-96374448D01*
X132479413Y-95975083D01*
X132573117Y-95504000D01*
X132479413Y-95032917D01*
X132212565Y-94633552D01*
X131813200Y-94366704D01*
X131342117Y-94273000D01*
X131293883Y-94273000D01*
X130822800Y-94366704D01*
X130423435Y-94633552D01*
X130156587Y-95032917D01*
X130062883Y-95504000D01*
X130156587Y-95975083D01*
X130423435Y-96374448D01*
X130822800Y-96641296D01*
X130861947Y-96649083D01*
X130436642Y-96848817D01*
X130046355Y-97277076D01*
X129876524Y-97687110D01*
X124712000Y-97687110D01*
X124712000Y-92964000D01*
X130062883Y-92964000D01*
X130156587Y-93435083D01*
X130423435Y-93834448D01*
X130822800Y-94101296D01*
X131293883Y-94195000D01*
X131342117Y-94195000D01*
X131813200Y-94101296D01*
X132212565Y-93834448D01*
X132479413Y-93435083D01*
X132573117Y-92964000D01*
X132479413Y-92492917D01*
X132212565Y-92093552D01*
X131813200Y-91826704D01*
X131342117Y-91733000D01*
X131293883Y-91733000D01*
X130822800Y-91826704D01*
X130423435Y-92093552D01*
X130156587Y-92492917D01*
X130062883Y-92964000D01*
X124712000Y-92964000D01*
X124712000Y-90424000D01*
X130062883Y-90424000D01*
X130156587Y-90895083D01*
X130423435Y-91294448D01*
X130822800Y-91561296D01*
X131293883Y-91655000D01*
X131342117Y-91655000D01*
X131813200Y-91561296D01*
X132212565Y-91294448D01*
X132479413Y-90895083D01*
X132573117Y-90424000D01*
X132479413Y-89952917D01*
X132212565Y-89553552D01*
X131813200Y-89286704D01*
X131342117Y-89193000D01*
X131293883Y-89193000D01*
X130822800Y-89286704D01*
X130423435Y-89553552D01*
X130156587Y-89952917D01*
X130062883Y-90424000D01*
X124712000Y-90424000D01*
X124712000Y-89662000D01*
X124673483Y-89468362D01*
X124633001Y-89407776D01*
X124633118Y-89273135D01*
X124529661Y-89022748D01*
X124338259Y-88831013D01*
X124088054Y-88727118D01*
X123817135Y-88726882D01*
X123566748Y-88830339D01*
X123375013Y-89021741D01*
X123340961Y-89103747D01*
X123322259Y-89085013D01*
X123072054Y-88981118D01*
X122801135Y-88980882D01*
X122550748Y-89084339D01*
X122478962Y-89156000D01*
X118742719Y-89156000D01*
X118687661Y-89022748D01*
X118496259Y-88831013D01*
X118246054Y-88727118D01*
X117975135Y-88726882D01*
X117724748Y-88830339D01*
X117600000Y-88954870D01*
X117600000Y-87071123D01*
X117637187Y-87034000D01*
X130079536Y-87034000D01*
X130079536Y-88734000D01*
X130106103Y-88875190D01*
X130189546Y-89004865D01*
X130316866Y-89091859D01*
X130468000Y-89122464D01*
X132168000Y-89122464D01*
X132309190Y-89095897D01*
X132438865Y-89012454D01*
X132525859Y-88885134D01*
X132556464Y-88734000D01*
X132556464Y-87034000D01*
X132529897Y-86892810D01*
X132446454Y-86763135D01*
X132319134Y-86676141D01*
X132168000Y-86645536D01*
X130468000Y-86645536D01*
X130326810Y-86672103D01*
X130197135Y-86755546D01*
X130110141Y-86882866D01*
X130079536Y-87034000D01*
X117637187Y-87034000D01*
X117670987Y-87000259D01*
X117774882Y-86750054D01*
X117775118Y-86479135D01*
X117671661Y-86228748D01*
X117480259Y-86037013D01*
X117230054Y-85933118D01*
X117032041Y-85932946D01*
X117070859Y-85876134D01*
X117101464Y-85725000D01*
X117101464Y-80645000D01*
X117594536Y-80645000D01*
X117594536Y-85725000D01*
X117621103Y-85866190D01*
X117704546Y-85995865D01*
X117831866Y-86082859D01*
X117983000Y-86113464D01*
X119507000Y-86113464D01*
X119648190Y-86086897D01*
X119777865Y-86003454D01*
X119864859Y-85876134D01*
X119895464Y-85725000D01*
X119895464Y-80645000D01*
X120388536Y-80645000D01*
X120388536Y-85725000D01*
X120415103Y-85866190D01*
X120498546Y-85995865D01*
X120625866Y-86082859D01*
X120777000Y-86113464D01*
X122301000Y-86113464D01*
X122442190Y-86086897D01*
X122571865Y-86003454D01*
X122658859Y-85876134D01*
X122689464Y-85725000D01*
X122689464Y-80645000D01*
X123055536Y-80645000D01*
X123055536Y-85725000D01*
X123082103Y-85866190D01*
X123165546Y-85995865D01*
X123292866Y-86082859D01*
X123444000Y-86113464D01*
X124968000Y-86113464D01*
X125109190Y-86086897D01*
X125238865Y-86003454D01*
X125325859Y-85876134D01*
X125356464Y-85725000D01*
X125356464Y-80645000D01*
X125849536Y-80645000D01*
X125849536Y-85725000D01*
X125876103Y-85866190D01*
X125959546Y-85995865D01*
X126086866Y-86082859D01*
X126238000Y-86113464D01*
X127762000Y-86113464D01*
X127903190Y-86086897D01*
X128032865Y-86003454D01*
X128119859Y-85876134D01*
X128150464Y-85725000D01*
X128150464Y-80645000D01*
X128516536Y-80645000D01*
X128516536Y-85725000D01*
X128543103Y-85866190D01*
X128626546Y-85995865D01*
X128753866Y-86082859D01*
X128905000Y-86113464D01*
X130429000Y-86113464D01*
X130570190Y-86086897D01*
X130699865Y-86003454D01*
X130786859Y-85876134D01*
X130817464Y-85725000D01*
X130817464Y-80645000D01*
X133402000Y-80645000D01*
X133402000Y-122988000D01*
X112856304Y-122988000D01*
X112923863Y-122954828D01*
X113211102Y-122614138D01*
X113346100Y-122189460D01*
X113346100Y-121914460D01*
X112338100Y-121914460D01*
X112338100Y-121934460D01*
X112084100Y-121934460D01*
X112084100Y-121914460D01*
X111076100Y-121914460D01*
X111076100Y-122189460D01*
X111211098Y-122614138D01*
X111498337Y-122954828D01*
X111565896Y-122988000D01*
X105856304Y-122988000D01*
X105923863Y-122954828D01*
X106211102Y-122614138D01*
X106346100Y-122189460D01*
X106346100Y-121914460D01*
X105338100Y-121914460D01*
X105338100Y-121934460D01*
X105084100Y-121934460D01*
X105084100Y-121914460D01*
X104076100Y-121914460D01*
X104076100Y-122189460D01*
X104211098Y-122614138D01*
X104498337Y-122954828D01*
X104565896Y-122988000D01*
X95960000Y-122988000D01*
X95960000Y-121385460D01*
X104076100Y-121385460D01*
X104076100Y-121660460D01*
X105084100Y-121660460D01*
X105084100Y-120544506D01*
X105338100Y-120544506D01*
X105338100Y-121660460D01*
X106346100Y-121660460D01*
X106346100Y-121385460D01*
X111076100Y-121385460D01*
X111076100Y-121660460D01*
X112084100Y-121660460D01*
X112084100Y-120544506D01*
X112338100Y-120544506D01*
X112338100Y-121660460D01*
X113346100Y-121660460D01*
X113346100Y-121385460D01*
X113211102Y-120960782D01*
X112923863Y-120620092D01*
X112512974Y-120418341D01*
X112338100Y-120544506D01*
X112084100Y-120544506D01*
X111909226Y-120418341D01*
X111498337Y-120620092D01*
X111211098Y-120960782D01*
X111076100Y-121385460D01*
X106346100Y-121385460D01*
X106211102Y-120960782D01*
X105923863Y-120620092D01*
X105512974Y-120418341D01*
X105338100Y-120544506D01*
X105084100Y-120544506D01*
X104909226Y-120418341D01*
X104498337Y-120620092D01*
X104211098Y-120960782D01*
X104076100Y-121385460D01*
X95960000Y-121385460D01*
X95960000Y-119385398D01*
X104991832Y-119385398D01*
X105175548Y-119759281D01*
X105500051Y-120047028D01*
X105909969Y-120188689D01*
X106084100Y-120040023D01*
X106084100Y-119214460D01*
X106338100Y-119214460D01*
X106338100Y-120040023D01*
X106512231Y-120188689D01*
X106922149Y-120047028D01*
X107246652Y-119759281D01*
X107430368Y-119385398D01*
X109991832Y-119385398D01*
X110175548Y-119759281D01*
X110500051Y-120047028D01*
X110909969Y-120188689D01*
X111084100Y-120040023D01*
X111084100Y-119214460D01*
X111338100Y-119214460D01*
X111338100Y-120040023D01*
X111512231Y-120188689D01*
X111922149Y-120047028D01*
X112246652Y-119759281D01*
X112430368Y-119385398D01*
X112303834Y-119214460D01*
X111338100Y-119214460D01*
X111084100Y-119214460D01*
X110118366Y-119214460D01*
X109991832Y-119385398D01*
X107430368Y-119385398D01*
X107303834Y-119214460D01*
X106338100Y-119214460D01*
X106084100Y-119214460D01*
X105118366Y-119214460D01*
X104991832Y-119385398D01*
X95960000Y-119385398D01*
X95960000Y-118789522D01*
X104991832Y-118789522D01*
X105118366Y-118960460D01*
X106084100Y-118960460D01*
X106084100Y-118134897D01*
X106338100Y-118134897D01*
X106338100Y-118960460D01*
X107303834Y-118960460D01*
X107430368Y-118789522D01*
X109991832Y-118789522D01*
X110118366Y-118960460D01*
X111084100Y-118960460D01*
X111084100Y-118134897D01*
X111338100Y-118134897D01*
X111338100Y-118960460D01*
X112303834Y-118960460D01*
X112430368Y-118789522D01*
X112246652Y-118415639D01*
X111922149Y-118127892D01*
X111512231Y-117986231D01*
X111338100Y-118134897D01*
X111084100Y-118134897D01*
X110909969Y-117986231D01*
X110500051Y-118127892D01*
X110175548Y-118415639D01*
X109991832Y-118789522D01*
X107430368Y-118789522D01*
X107246652Y-118415639D01*
X106922149Y-118127892D01*
X106512231Y-117986231D01*
X106338100Y-118134897D01*
X106084100Y-118134897D01*
X105909969Y-117986231D01*
X105500051Y-118127892D01*
X105175548Y-118415639D01*
X104991832Y-118789522D01*
X95960000Y-118789522D01*
X95960000Y-106274890D01*
X98126524Y-106274890D01*
X98296355Y-106684924D01*
X98686642Y-107113183D01*
X98913105Y-107219536D01*
X98718000Y-107219536D01*
X98576810Y-107246103D01*
X98447135Y-107329546D01*
X98360141Y-107456866D01*
X98329536Y-107608000D01*
X98329536Y-109308000D01*
X98356103Y-109449190D01*
X98439546Y-109578865D01*
X98566866Y-109665859D01*
X98718000Y-109696464D01*
X100418000Y-109696464D01*
X100559190Y-109669897D01*
X100688865Y-109586454D01*
X100775859Y-109459134D01*
X100806464Y-109308000D01*
X100806464Y-109268122D01*
X100915171Y-109376829D01*
X101103661Y-109502774D01*
X101326000Y-109547000D01*
X104915342Y-109547000D01*
X107272878Y-111904536D01*
X107372339Y-112145252D01*
X107563741Y-112336987D01*
X107813946Y-112440882D01*
X108084865Y-112441118D01*
X108335252Y-112337661D01*
X108526987Y-112146259D01*
X108630882Y-111896054D01*
X108631118Y-111625135D01*
X108527661Y-111374748D01*
X108336259Y-111183013D01*
X108094129Y-111082471D01*
X105566829Y-108555171D01*
X105378339Y-108429226D01*
X105156000Y-108385000D01*
X101566658Y-108385000D01*
X101228829Y-108047171D01*
X101040339Y-107921226D01*
X100818000Y-107877000D01*
X100806464Y-107877000D01*
X100806464Y-107608000D01*
X100779897Y-107466810D01*
X100696454Y-107337135D01*
X100569134Y-107250141D01*
X100418000Y-107219536D01*
X100222895Y-107219536D01*
X100449358Y-107113183D01*
X100839645Y-106684924D01*
X101009476Y-106274890D01*
X100888155Y-106045000D01*
X99695000Y-106045000D01*
X99695000Y-106065000D01*
X99441000Y-106065000D01*
X99441000Y-106045000D01*
X98247845Y-106045000D01*
X98126524Y-106274890D01*
X95960000Y-106274890D01*
X95960000Y-105561110D01*
X98126524Y-105561110D01*
X98247845Y-105791000D01*
X99441000Y-105791000D01*
X99441000Y-104597181D01*
X99695000Y-104597181D01*
X99695000Y-105791000D01*
X100888155Y-105791000D01*
X101009476Y-105561110D01*
X100839645Y-105151076D01*
X100449358Y-104722817D01*
X99924892Y-104476514D01*
X99695000Y-104597181D01*
X99441000Y-104597181D01*
X99211108Y-104476514D01*
X98686642Y-104722817D01*
X98296355Y-105151076D01*
X98126524Y-105561110D01*
X95960000Y-105561110D01*
X95960000Y-80645000D01*
X98417536Y-80645000D01*
X98417536Y-85725000D01*
X98417536Y-85725000D01*
G37*
X98417536Y-85725000D02*
X98444103Y-85866190D01*
X98527546Y-85995865D01*
X98654866Y-86082859D01*
X98806000Y-86113464D01*
X100202994Y-86113464D01*
X100157118Y-86223946D01*
X100156882Y-86494865D01*
X100260339Y-86745252D01*
X100451741Y-86936987D01*
X100701946Y-87040882D01*
X100803378Y-87040970D01*
X102766204Y-89003796D01*
X102930362Y-89113483D01*
X103124000Y-89152000D01*
X103428877Y-89152000D01*
X103499741Y-89222987D01*
X103749946Y-89326882D01*
X104020865Y-89327118D01*
X104187999Y-89258060D01*
X104187999Y-89772275D01*
X104008748Y-89846339D01*
X103817013Y-90037741D01*
X103713118Y-90287946D01*
X103712882Y-90558865D01*
X103816339Y-90809252D01*
X104007741Y-91000987D01*
X104257946Y-91104882D01*
X104528865Y-91105118D01*
X104779252Y-91001661D01*
X104970987Y-90810259D01*
X105074882Y-90560054D01*
X105074980Y-90447097D01*
X105136509Y-90355013D01*
X105161482Y-90317639D01*
X105199999Y-90124001D01*
X105199999Y-89688170D01*
X105220766Y-89702359D01*
X105371900Y-89732964D01*
X106337100Y-89732964D01*
X106428000Y-89715860D01*
X106428000Y-94792877D01*
X106357013Y-94863741D01*
X106268425Y-95077083D01*
X106037135Y-95076882D01*
X105786748Y-95180339D01*
X105595013Y-95371741D01*
X105491118Y-95621946D01*
X105490882Y-95892865D01*
X105594339Y-96143252D01*
X105666000Y-96215038D01*
X105666000Y-103378000D01*
X105704517Y-103571638D01*
X105814204Y-103735796D01*
X112094969Y-110016561D01*
X112094882Y-110116865D01*
X112198339Y-110367252D01*
X112389741Y-110558987D01*
X112639946Y-110662882D01*
X112910865Y-110663118D01*
X113161252Y-110559661D01*
X113352987Y-110368259D01*
X113456882Y-110118054D01*
X113457118Y-109847135D01*
X113353661Y-109596748D01*
X113162259Y-109405013D01*
X112912054Y-109301118D01*
X112810622Y-109301030D01*
X106678000Y-103168408D01*
X106678000Y-96215123D01*
X106748987Y-96144259D01*
X106837575Y-95930917D01*
X107068865Y-95931118D01*
X107319252Y-95827661D01*
X107442046Y-95705080D01*
X107563741Y-95826987D01*
X107813946Y-95930882D01*
X107915378Y-95930970D01*
X111000000Y-99015592D01*
X111000000Y-103682877D01*
X110929013Y-103753741D01*
X110825118Y-104003946D01*
X110824882Y-104274865D01*
X110928339Y-104525252D01*
X111119741Y-104716987D01*
X111369946Y-104820882D01*
X111527323Y-104821019D01*
X111265342Y-105083000D01*
X110612595Y-105083000D01*
X110372054Y-104983118D01*
X110101135Y-104982882D01*
X109850748Y-105086339D01*
X109659013Y-105277741D01*
X109555118Y-105527946D01*
X109554882Y-105798865D01*
X109658339Y-106049252D01*
X109849741Y-106240987D01*
X110099946Y-106344882D01*
X110370865Y-106345118D01*
X110613171Y-106245000D01*
X111506000Y-106245000D01*
X111728339Y-106200774D01*
X111916829Y-106074829D01*
X116064658Y-101927000D01*
X118241405Y-101927000D01*
X118481946Y-102026882D01*
X118752865Y-102027118D01*
X119003252Y-101923661D01*
X119128000Y-101799130D01*
X119128000Y-103930408D01*
X114265439Y-108792969D01*
X114165135Y-108792882D01*
X113914748Y-108896339D01*
X113723013Y-109087741D01*
X113619118Y-109337946D01*
X113618882Y-109608865D01*
X113722339Y-109859252D01*
X113913741Y-110050987D01*
X114163946Y-110154882D01*
X114434865Y-110155118D01*
X114685252Y-110051661D01*
X114876987Y-109860259D01*
X114980882Y-109610054D01*
X114980970Y-109508622D01*
X119991796Y-104497796D01*
X120101483Y-104333638D01*
X120140000Y-104140000D01*
X120140000Y-99517123D01*
X120210987Y-99446259D01*
X120314882Y-99196054D01*
X120315118Y-98925135D01*
X120211661Y-98674748D01*
X120020259Y-98483013D01*
X119770054Y-98379118D01*
X119499135Y-98378882D01*
X119248748Y-98482339D01*
X119199000Y-98532001D01*
X119199000Y-95597730D01*
X119257252Y-95573661D01*
X119448987Y-95382259D01*
X119552882Y-95132054D01*
X119553118Y-94861135D01*
X119449661Y-94610748D01*
X119258259Y-94419013D01*
X119008054Y-94315118D01*
X118737135Y-94314882D01*
X118486748Y-94418339D01*
X118295013Y-94609741D01*
X118191118Y-94859946D01*
X118191115Y-94863200D01*
X118108000Y-94987591D01*
X118108000Y-90088999D01*
X118109775Y-90089000D01*
X118170362Y-90129483D01*
X118364000Y-90168000D01*
X122478877Y-90168000D01*
X122549741Y-90238987D01*
X122689485Y-90297014D01*
X122550748Y-90354339D01*
X122359013Y-90545741D01*
X122255118Y-90795946D01*
X122255030Y-90897378D01*
X121054204Y-92098204D01*
X120944517Y-92262362D01*
X120906000Y-92456000D01*
X120906000Y-106887410D01*
X118768204Y-109025206D01*
X118658517Y-109189364D01*
X118620000Y-109383002D01*
X118620000Y-112826877D01*
X118549013Y-112897741D01*
X118445118Y-113147946D01*
X118444882Y-113418865D01*
X118548339Y-113669252D01*
X118739741Y-113860987D01*
X118989946Y-113964882D01*
X119260865Y-113965118D01*
X119511252Y-113861661D01*
X119702987Y-113670259D01*
X119806882Y-113420054D01*
X119807118Y-113149135D01*
X119703661Y-112898748D01*
X119632000Y-112826962D01*
X119632000Y-109592594D01*
X121769796Y-107454798D01*
X121879483Y-107290640D01*
X121918000Y-107097002D01*
X121918000Y-92665592D01*
X122970561Y-91613031D01*
X123070865Y-91613118D01*
X123321252Y-91509661D01*
X123512987Y-91318259D01*
X123616882Y-91068054D01*
X123617118Y-90797135D01*
X123513661Y-90546748D01*
X123322259Y-90355013D01*
X123182515Y-90296986D01*
X123321252Y-90239661D01*
X123512987Y-90048259D01*
X123547039Y-89966253D01*
X123565741Y-89984987D01*
X123700000Y-90040737D01*
X123700000Y-102920877D01*
X123629013Y-102991741D01*
X123525118Y-103241946D01*
X123524882Y-103512865D01*
X123628339Y-103763252D01*
X123819741Y-103954987D01*
X124069946Y-104058882D01*
X124340865Y-104059118D01*
X124591252Y-103955661D01*
X124782987Y-103764259D01*
X124886882Y-103514054D01*
X124887118Y-103243135D01*
X124783661Y-102992748D01*
X124712000Y-102920962D01*
X124712000Y-98400890D01*
X129876524Y-98400890D01*
X130046355Y-98810924D01*
X130436642Y-99239183D01*
X130961108Y-99485486D01*
X131191000Y-99364819D01*
X131191000Y-98171000D01*
X131445000Y-98171000D01*
X131445000Y-99364819D01*
X131674892Y-99485486D01*
X132199358Y-99239183D01*
X132589645Y-98810924D01*
X132759476Y-98400890D01*
X132638155Y-98171000D01*
X131445000Y-98171000D01*
X131191000Y-98171000D01*
X129997845Y-98171000D01*
X129876524Y-98400890D01*
X124712000Y-98400890D01*
X124712000Y-97687110D01*
X129876524Y-97687110D01*
X129997845Y-97917000D01*
X131191000Y-97917000D01*
X131191000Y-97897000D01*
X131445000Y-97897000D01*
X131445000Y-97917000D01*
X132638155Y-97917000D01*
X132759476Y-97687110D01*
X132589645Y-97277076D01*
X132199358Y-96848817D01*
X131774053Y-96649083D01*
X131813200Y-96641296D01*
X132212565Y-96374448D01*
X132479413Y-95975083D01*
X132573117Y-95504000D01*
X132479413Y-95032917D01*
X132212565Y-94633552D01*
X131813200Y-94366704D01*
X131342117Y-94273000D01*
X131293883Y-94273000D01*
X130822800Y-94366704D01*
X130423435Y-94633552D01*
X130156587Y-95032917D01*
X130062883Y-95504000D01*
X130156587Y-95975083D01*
X130423435Y-96374448D01*
X130822800Y-96641296D01*
X130861947Y-96649083D01*
X130436642Y-96848817D01*
X130046355Y-97277076D01*
X129876524Y-97687110D01*
X124712000Y-97687110D01*
X124712000Y-92964000D01*
X130062883Y-92964000D01*
X130156587Y-93435083D01*
X130423435Y-93834448D01*
X130822800Y-94101296D01*
X131293883Y-94195000D01*
X131342117Y-94195000D01*
X131813200Y-94101296D01*
X132212565Y-93834448D01*
X132479413Y-93435083D01*
X132573117Y-92964000D01*
X132479413Y-92492917D01*
X132212565Y-92093552D01*
X131813200Y-91826704D01*
X131342117Y-91733000D01*
X131293883Y-91733000D01*
X130822800Y-91826704D01*
X130423435Y-92093552D01*
X130156587Y-92492917D01*
X130062883Y-92964000D01*
X124712000Y-92964000D01*
X124712000Y-90424000D01*
X130062883Y-90424000D01*
X130156587Y-90895083D01*
X130423435Y-91294448D01*
X130822800Y-91561296D01*
X131293883Y-91655000D01*
X131342117Y-91655000D01*
X131813200Y-91561296D01*
X132212565Y-91294448D01*
X132479413Y-90895083D01*
X132573117Y-90424000D01*
X132479413Y-89952917D01*
X132212565Y-89553552D01*
X131813200Y-89286704D01*
X131342117Y-89193000D01*
X131293883Y-89193000D01*
X130822800Y-89286704D01*
X130423435Y-89553552D01*
X130156587Y-89952917D01*
X130062883Y-90424000D01*
X124712000Y-90424000D01*
X124712000Y-89662000D01*
X124673483Y-89468362D01*
X124633001Y-89407776D01*
X124633118Y-89273135D01*
X124529661Y-89022748D01*
X124338259Y-88831013D01*
X124088054Y-88727118D01*
X123817135Y-88726882D01*
X123566748Y-88830339D01*
X123375013Y-89021741D01*
X123340961Y-89103747D01*
X123322259Y-89085013D01*
X123072054Y-88981118D01*
X122801135Y-88980882D01*
X122550748Y-89084339D01*
X122478962Y-89156000D01*
X118742719Y-89156000D01*
X118687661Y-89022748D01*
X118496259Y-88831013D01*
X118246054Y-88727118D01*
X117975135Y-88726882D01*
X117724748Y-88830339D01*
X117600000Y-88954870D01*
X117600000Y-87071123D01*
X117637187Y-87034000D01*
X130079536Y-87034000D01*
X130079536Y-88734000D01*
X130106103Y-88875190D01*
X130189546Y-89004865D01*
X130316866Y-89091859D01*
X130468000Y-89122464D01*
X132168000Y-89122464D01*
X132309190Y-89095897D01*
X132438865Y-89012454D01*
X132525859Y-88885134D01*
X132556464Y-88734000D01*
X132556464Y-87034000D01*
X132529897Y-86892810D01*
X132446454Y-86763135D01*
X132319134Y-86676141D01*
X132168000Y-86645536D01*
X130468000Y-86645536D01*
X130326810Y-86672103D01*
X130197135Y-86755546D01*
X130110141Y-86882866D01*
X130079536Y-87034000D01*
X117637187Y-87034000D01*
X117670987Y-87000259D01*
X117774882Y-86750054D01*
X117775118Y-86479135D01*
X117671661Y-86228748D01*
X117480259Y-86037013D01*
X117230054Y-85933118D01*
X117032041Y-85932946D01*
X117070859Y-85876134D01*
X117101464Y-85725000D01*
X117101464Y-80645000D01*
X117594536Y-80645000D01*
X117594536Y-85725000D01*
X117621103Y-85866190D01*
X117704546Y-85995865D01*
X117831866Y-86082859D01*
X117983000Y-86113464D01*
X119507000Y-86113464D01*
X119648190Y-86086897D01*
X119777865Y-86003454D01*
X119864859Y-85876134D01*
X119895464Y-85725000D01*
X119895464Y-80645000D01*
X120388536Y-80645000D01*
X120388536Y-85725000D01*
X120415103Y-85866190D01*
X120498546Y-85995865D01*
X120625866Y-86082859D01*
X120777000Y-86113464D01*
X122301000Y-86113464D01*
X122442190Y-86086897D01*
X122571865Y-86003454D01*
X122658859Y-85876134D01*
X122689464Y-85725000D01*
X122689464Y-80645000D01*
X123055536Y-80645000D01*
X123055536Y-85725000D01*
X123082103Y-85866190D01*
X123165546Y-85995865D01*
X123292866Y-86082859D01*
X123444000Y-86113464D01*
X124968000Y-86113464D01*
X125109190Y-86086897D01*
X125238865Y-86003454D01*
X125325859Y-85876134D01*
X125356464Y-85725000D01*
X125356464Y-80645000D01*
X125849536Y-80645000D01*
X125849536Y-85725000D01*
X125876103Y-85866190D01*
X125959546Y-85995865D01*
X126086866Y-86082859D01*
X126238000Y-86113464D01*
X127762000Y-86113464D01*
X127903190Y-86086897D01*
X128032865Y-86003454D01*
X128119859Y-85876134D01*
X128150464Y-85725000D01*
X128150464Y-80645000D01*
X128516536Y-80645000D01*
X128516536Y-85725000D01*
X128543103Y-85866190D01*
X128626546Y-85995865D01*
X128753866Y-86082859D01*
X128905000Y-86113464D01*
X130429000Y-86113464D01*
X130570190Y-86086897D01*
X130699865Y-86003454D01*
X130786859Y-85876134D01*
X130817464Y-85725000D01*
X130817464Y-80645000D01*
X133402000Y-80645000D01*
X133402000Y-122988000D01*
X112856304Y-122988000D01*
X112923863Y-122954828D01*
X113211102Y-122614138D01*
X113346100Y-122189460D01*
X113346100Y-121914460D01*
X112338100Y-121914460D01*
X112338100Y-121934460D01*
X112084100Y-121934460D01*
X112084100Y-121914460D01*
X111076100Y-121914460D01*
X111076100Y-122189460D01*
X111211098Y-122614138D01*
X111498337Y-122954828D01*
X111565896Y-122988000D01*
X105856304Y-122988000D01*
X105923863Y-122954828D01*
X106211102Y-122614138D01*
X106346100Y-122189460D01*
X106346100Y-121914460D01*
X105338100Y-121914460D01*
X105338100Y-121934460D01*
X105084100Y-121934460D01*
X105084100Y-121914460D01*
X104076100Y-121914460D01*
X104076100Y-122189460D01*
X104211098Y-122614138D01*
X104498337Y-122954828D01*
X104565896Y-122988000D01*
X95960000Y-122988000D01*
X95960000Y-121385460D01*
X104076100Y-121385460D01*
X104076100Y-121660460D01*
X105084100Y-121660460D01*
X105084100Y-120544506D01*
X105338100Y-120544506D01*
X105338100Y-121660460D01*
X106346100Y-121660460D01*
X106346100Y-121385460D01*
X111076100Y-121385460D01*
X111076100Y-121660460D01*
X112084100Y-121660460D01*
X112084100Y-120544506D01*
X112338100Y-120544506D01*
X112338100Y-121660460D01*
X113346100Y-121660460D01*
X113346100Y-121385460D01*
X113211102Y-120960782D01*
X112923863Y-120620092D01*
X112512974Y-120418341D01*
X112338100Y-120544506D01*
X112084100Y-120544506D01*
X111909226Y-120418341D01*
X111498337Y-120620092D01*
X111211098Y-120960782D01*
X111076100Y-121385460D01*
X106346100Y-121385460D01*
X106211102Y-120960782D01*
X105923863Y-120620092D01*
X105512974Y-120418341D01*
X105338100Y-120544506D01*
X105084100Y-120544506D01*
X104909226Y-120418341D01*
X104498337Y-120620092D01*
X104211098Y-120960782D01*
X104076100Y-121385460D01*
X95960000Y-121385460D01*
X95960000Y-119385398D01*
X104991832Y-119385398D01*
X105175548Y-119759281D01*
X105500051Y-120047028D01*
X105909969Y-120188689D01*
X106084100Y-120040023D01*
X106084100Y-119214460D01*
X106338100Y-119214460D01*
X106338100Y-120040023D01*
X106512231Y-120188689D01*
X106922149Y-120047028D01*
X107246652Y-119759281D01*
X107430368Y-119385398D01*
X109991832Y-119385398D01*
X110175548Y-119759281D01*
X110500051Y-120047028D01*
X110909969Y-120188689D01*
X111084100Y-120040023D01*
X111084100Y-119214460D01*
X111338100Y-119214460D01*
X111338100Y-120040023D01*
X111512231Y-120188689D01*
X111922149Y-120047028D01*
X112246652Y-119759281D01*
X112430368Y-119385398D01*
X112303834Y-119214460D01*
X111338100Y-119214460D01*
X111084100Y-119214460D01*
X110118366Y-119214460D01*
X109991832Y-119385398D01*
X107430368Y-119385398D01*
X107303834Y-119214460D01*
X106338100Y-119214460D01*
X106084100Y-119214460D01*
X105118366Y-119214460D01*
X104991832Y-119385398D01*
X95960000Y-119385398D01*
X95960000Y-118789522D01*
X104991832Y-118789522D01*
X105118366Y-118960460D01*
X106084100Y-118960460D01*
X106084100Y-118134897D01*
X106338100Y-118134897D01*
X106338100Y-118960460D01*
X107303834Y-118960460D01*
X107430368Y-118789522D01*
X109991832Y-118789522D01*
X110118366Y-118960460D01*
X111084100Y-118960460D01*
X111084100Y-118134897D01*
X111338100Y-118134897D01*
X111338100Y-118960460D01*
X112303834Y-118960460D01*
X112430368Y-118789522D01*
X112246652Y-118415639D01*
X111922149Y-118127892D01*
X111512231Y-117986231D01*
X111338100Y-118134897D01*
X111084100Y-118134897D01*
X110909969Y-117986231D01*
X110500051Y-118127892D01*
X110175548Y-118415639D01*
X109991832Y-118789522D01*
X107430368Y-118789522D01*
X107246652Y-118415639D01*
X106922149Y-118127892D01*
X106512231Y-117986231D01*
X106338100Y-118134897D01*
X106084100Y-118134897D01*
X105909969Y-117986231D01*
X105500051Y-118127892D01*
X105175548Y-118415639D01*
X104991832Y-118789522D01*
X95960000Y-118789522D01*
X95960000Y-106274890D01*
X98126524Y-106274890D01*
X98296355Y-106684924D01*
X98686642Y-107113183D01*
X98913105Y-107219536D01*
X98718000Y-107219536D01*
X98576810Y-107246103D01*
X98447135Y-107329546D01*
X98360141Y-107456866D01*
X98329536Y-107608000D01*
X98329536Y-109308000D01*
X98356103Y-109449190D01*
X98439546Y-109578865D01*
X98566866Y-109665859D01*
X98718000Y-109696464D01*
X100418000Y-109696464D01*
X100559190Y-109669897D01*
X100688865Y-109586454D01*
X100775859Y-109459134D01*
X100806464Y-109308000D01*
X100806464Y-109268122D01*
X100915171Y-109376829D01*
X101103661Y-109502774D01*
X101326000Y-109547000D01*
X104915342Y-109547000D01*
X107272878Y-111904536D01*
X107372339Y-112145252D01*
X107563741Y-112336987D01*
X107813946Y-112440882D01*
X108084865Y-112441118D01*
X108335252Y-112337661D01*
X108526987Y-112146259D01*
X108630882Y-111896054D01*
X108631118Y-111625135D01*
X108527661Y-111374748D01*
X108336259Y-111183013D01*
X108094129Y-111082471D01*
X105566829Y-108555171D01*
X105378339Y-108429226D01*
X105156000Y-108385000D01*
X101566658Y-108385000D01*
X101228829Y-108047171D01*
X101040339Y-107921226D01*
X100818000Y-107877000D01*
X100806464Y-107877000D01*
X100806464Y-107608000D01*
X100779897Y-107466810D01*
X100696454Y-107337135D01*
X100569134Y-107250141D01*
X100418000Y-107219536D01*
X100222895Y-107219536D01*
X100449358Y-107113183D01*
X100839645Y-106684924D01*
X101009476Y-106274890D01*
X100888155Y-106045000D01*
X99695000Y-106045000D01*
X99695000Y-106065000D01*
X99441000Y-106065000D01*
X99441000Y-106045000D01*
X98247845Y-106045000D01*
X98126524Y-106274890D01*
X95960000Y-106274890D01*
X95960000Y-105561110D01*
X98126524Y-105561110D01*
X98247845Y-105791000D01*
X99441000Y-105791000D01*
X99441000Y-104597181D01*
X99695000Y-104597181D01*
X99695000Y-105791000D01*
X100888155Y-105791000D01*
X101009476Y-105561110D01*
X100839645Y-105151076D01*
X100449358Y-104722817D01*
X99924892Y-104476514D01*
X99695000Y-104597181D01*
X99441000Y-104597181D01*
X99211108Y-104476514D01*
X98686642Y-104722817D01*
X98296355Y-105151076D01*
X98126524Y-105561110D01*
X95960000Y-105561110D01*
X95960000Y-80645000D01*
X98417536Y-80645000D01*
X98417536Y-85725000D01*
G36*
X113913741Y-94302987D02*
X114163946Y-94406882D01*
X114265378Y-94406970D01*
X114556000Y-94697592D01*
X114556000Y-94992939D01*
X114438210Y-95015103D01*
X114308535Y-95098546D01*
X114221541Y-95225866D01*
X114190936Y-95377000D01*
X114190936Y-96647000D01*
X114217503Y-96788190D01*
X114300946Y-96917865D01*
X114428266Y-97004859D01*
X114579400Y-97035464D01*
X115544600Y-97035464D01*
X115685790Y-97008897D01*
X115695259Y-97002804D01*
X115698266Y-97004859D01*
X115849400Y-97035464D01*
X116814600Y-97035464D01*
X116955790Y-97008897D01*
X116965259Y-97002804D01*
X116968266Y-97004859D01*
X117119400Y-97035464D01*
X118037000Y-97035464D01*
X118037000Y-100765000D01*
X115824000Y-100765000D01*
X115601661Y-100809226D01*
X115413171Y-100935171D01*
X112186982Y-104161360D01*
X112187118Y-104005135D01*
X112083661Y-103754748D01*
X112012000Y-103682962D01*
X112012000Y-98806000D01*
X111973483Y-98612362D01*
X111874294Y-98463915D01*
X112107249Y-98367661D01*
X112298984Y-98176259D01*
X112402879Y-97926054D01*
X112403115Y-97655135D01*
X112299658Y-97404748D01*
X112227997Y-97332962D01*
X112227997Y-96881295D01*
X112385946Y-96946882D01*
X112656865Y-96947118D01*
X112907252Y-96843661D01*
X113098987Y-96652259D01*
X113202882Y-96402054D01*
X113203118Y-96131135D01*
X113099661Y-95880748D01*
X113028000Y-95808962D01*
X113028000Y-94826002D01*
X113732536Y-94121466D01*
X113913741Y-94302987D01*
X113913741Y-94302987D01*
G37*
X113913741Y-94302987D02*
X114163946Y-94406882D01*
X114265378Y-94406970D01*
X114556000Y-94697592D01*
X114556000Y-94992939D01*
X114438210Y-95015103D01*
X114308535Y-95098546D01*
X114221541Y-95225866D01*
X114190936Y-95377000D01*
X114190936Y-96647000D01*
X114217503Y-96788190D01*
X114300946Y-96917865D01*
X114428266Y-97004859D01*
X114579400Y-97035464D01*
X115544600Y-97035464D01*
X115685790Y-97008897D01*
X115695259Y-97002804D01*
X115698266Y-97004859D01*
X115849400Y-97035464D01*
X116814600Y-97035464D01*
X116955790Y-97008897D01*
X116965259Y-97002804D01*
X116968266Y-97004859D01*
X117119400Y-97035464D01*
X118037000Y-97035464D01*
X118037000Y-100765000D01*
X115824000Y-100765000D01*
X115601661Y-100809226D01*
X115413171Y-100935171D01*
X112186982Y-104161360D01*
X112187118Y-104005135D01*
X112083661Y-103754748D01*
X112012000Y-103682962D01*
X112012000Y-98806000D01*
X111973483Y-98612362D01*
X111874294Y-98463915D01*
X112107249Y-98367661D01*
X112298984Y-98176259D01*
X112402879Y-97926054D01*
X112403115Y-97655135D01*
X112299658Y-97404748D01*
X112227997Y-97332962D01*
X112227997Y-96881295D01*
X112385946Y-96946882D01*
X112656865Y-96947118D01*
X112907252Y-96843661D01*
X113098987Y-96652259D01*
X113202882Y-96402054D01*
X113203118Y-96131135D01*
X113099661Y-95880748D01*
X113028000Y-95808962D01*
X113028000Y-94826002D01*
X113732536Y-94121466D01*
X113913741Y-94302987D01*
M02*
