G04 #@! TF.FileFunction,Soldermask,Top*
%FSLAX46Y46*%
G04 Gerber Fmt 4.6, Leading zero omitted, Abs format (unit mm)*
G04 Created by KiCad (PCBNEW 4.0.7) date Thursday, 17 May 2018 'PMt' 20:57:55*
%MOMM*%
%LPD*%
G01*
G04 APERTURE LIST*
%ADD10C,0.100000*%
%ADD11R,1.400000X1.650000*%
%ADD12R,2.900000X2.350000*%
%ADD13R,1.650000X1.400000*%
%ADD14R,2.350000X2.900000*%
%ADD15R,1.000000X0.850000*%
%ADD16R,1.924000X5.480000*%
%ADD17R,0.800000X1.750000*%
%ADD18O,1.650000X1.350000*%
%ADD19O,1.400000X1.950000*%
%ADD20R,2.100000X2.100000*%
%ADD21O,2.100000X2.100000*%
%ADD22R,1.100000X1.700000*%
%ADD23R,1.000000X2.600000*%
%ADD24R,2.900000X1.500000*%
%ADD25R,1.500000X2.900000*%
%ADD26R,4.200000X2.400000*%
%ADD27R,1.900000X2.400000*%
%ADD28R,1.450000X1.550000*%
G04 APERTURE END LIST*
D10*
D11*
X101743000Y-101346000D03*
X103743000Y-101346000D03*
X105870500Y-101346000D03*
X107870500Y-101346000D03*
X99552000Y-98298000D03*
X97552000Y-98298000D03*
X109982000Y-101346000D03*
X111982000Y-101346000D03*
X101108000Y-90170000D03*
X103108000Y-90170000D03*
D12*
X110236000Y-112268000D03*
X110236000Y-109218000D03*
D13*
X131318000Y-103870000D03*
X131318000Y-101870000D03*
D14*
X102615000Y-111506000D03*
X105665000Y-111506000D03*
D15*
X110490000Y-115316000D03*
X108390000Y-115316000D03*
D16*
X98171000Y-83185000D03*
X100965000Y-83185000D03*
X103632000Y-83185000D03*
X106426000Y-83185000D03*
X109093000Y-83185000D03*
X111887000Y-83185000D03*
X114681000Y-83185000D03*
X117348000Y-83185000D03*
X120142000Y-83185000D03*
X122809000Y-83185000D03*
X125603000Y-83185000D03*
X128397000Y-83185000D03*
X131064000Y-83185000D03*
D17*
X107411100Y-119087460D03*
X108061100Y-119087460D03*
X108711100Y-119087460D03*
X109361100Y-119087460D03*
X110011100Y-119087460D03*
D18*
X106211100Y-119087460D03*
X111211100Y-119087460D03*
D19*
X105211100Y-121787460D03*
X112211100Y-121787460D03*
D20*
X99568000Y-108458000D03*
D21*
X99568000Y-105918000D03*
D22*
X119446000Y-88138000D03*
X121346000Y-88138000D03*
X121346000Y-96520000D03*
X119446000Y-96520000D03*
X121346000Y-93472000D03*
X119446000Y-93472000D03*
X121346000Y-90932000D03*
X119446000Y-90932000D03*
D23*
X101473000Y-93158000D03*
X101473000Y-98358000D03*
X102743000Y-93158000D03*
X102743000Y-98358000D03*
X104013000Y-93158000D03*
X104013000Y-98358000D03*
X105283000Y-93158000D03*
X105283000Y-98358000D03*
X106553000Y-93158000D03*
X106553000Y-98358000D03*
X107823000Y-93158000D03*
X107823000Y-98358000D03*
X109093000Y-93158000D03*
X109093000Y-98358000D03*
X110363000Y-93158000D03*
X110363000Y-98358000D03*
D24*
X131764000Y-121412000D03*
X131764000Y-119412000D03*
X131764000Y-117412000D03*
X131764000Y-115412000D03*
X131764000Y-113412000D03*
X131764000Y-111412000D03*
X131764000Y-109412000D03*
X131764000Y-107412000D03*
X116364000Y-107412000D03*
X116364000Y-109412000D03*
X116364000Y-111412000D03*
X116364000Y-113412000D03*
X116364000Y-115412000D03*
X116364000Y-117412000D03*
X116364000Y-119412000D03*
X116364000Y-121412000D03*
D25*
X129074000Y-105712000D03*
X127074000Y-105712000D03*
X125074000Y-105712000D03*
X123074000Y-105712000D03*
X121074000Y-105712000D03*
X119074000Y-105712000D03*
D26*
X99822000Y-114960000D03*
D27*
X99822000Y-121260000D03*
X102122000Y-121260000D03*
X97522000Y-121260000D03*
D20*
X131318000Y-87884000D03*
D21*
X131318000Y-90424000D03*
X131318000Y-92964000D03*
X131318000Y-95504000D03*
X131318000Y-98044000D03*
D22*
X123002000Y-99568000D03*
X124902000Y-99568000D03*
D28*
X115099000Y-100433000D03*
X115099000Y-103783000D03*
X116549000Y-100433000D03*
X116549000Y-103783000D03*
M02*
