M48
;DRILL file {KiCad 4.0.7} date Thursday, 17 May 2018 'PMt' 20:57:59
;FORMAT={-:-/ absolute / inch / decimal}
FMAT,2
INCH,TZ
T1C0.012
T2C0.016
T3C0.020
T4C0.022
T5C0.039
%
G90
G05
M72
T1
X3.87Y-3.47
X3.88Y-4.
X3.9Y-3.73
X3.96Y-4.06
X4.11Y-4.15
X4.46Y-3.75
X4.46Y-3.84
X4.47Y-4.15
X4.76Y-4.75
X4.82Y-4.3
X4.84Y-4.61
X4.96Y-3.66
X4.97Y-3.77
X4.97Y-4.75
X5.02Y-3.5
T2
X3.97Y-3.4
X4.08Y-3.4
X4.09Y-3.49
X4.11Y-3.56
X4.15Y-3.42
X4.18Y-3.77
X4.21Y-3.75
X4.25Y-3.75
X4.25Y-4.4
X4.27Y-3.56
X4.3Y-3.42
X4.34Y-4.16
X4.38Y-3.56
X4.39Y-4.1
X4.3985Y-3.85
X4.41Y-3.42
X4.43Y-3.62
X4.43Y-3.79
X4.44Y-4.33
X4.5Y-3.69
X4.5Y-4.31
X4.55Y-3.62
X4.61Y-3.41
X4.65Y-3.52
X4.67Y-3.99
X4.68Y-3.74
X4.69Y-4.46
X4.71Y-3.9
X4.84Y-3.53
X4.84Y-3.58
X4.88Y-3.52
X4.89Y-4.07
T5
X3.92Y-4.17
X3.92Y-4.27
X5.17Y-3.46
X5.17Y-3.56
X5.17Y-3.66
X5.17Y-3.76
X5.17Y-3.86
T3
X4.1422Y-4.8076G85X4.1422Y-4.782
G05
X4.4178Y-4.8076G85X4.4178Y-4.782
G05
T4
X4.1756Y-4.6885G85X4.1874Y-4.6885
G05
X4.3725Y-4.6885G85X4.3843Y-4.6885
G05
T0
M30
