G04 #@! TF.FileFunction,Copper,L1,Top,Signal*
%FSLAX46Y46*%
G04 Gerber Fmt 4.6, Leading zero omitted, Abs format (unit mm)*
G04 Created by KiCad (PCBNEW 4.0.7) date Thursday, 17 May 2018 'PMt' 20:57:55*
%MOMM*%
%LPD*%
G01*
G04 APERTURE LIST*
%ADD10C,0.100000*%
%ADD11C,0.600000*%
%ADD12R,1.000000X1.250000*%
%ADD13R,2.500000X1.950000*%
%ADD14R,1.250000X1.000000*%
%ADD15R,1.950000X2.500000*%
%ADD16R,0.600000X0.450000*%
%ADD17R,1.524000X5.080000*%
%ADD18R,0.400000X1.350000*%
%ADD19O,1.250000X0.950000*%
%ADD20O,1.000000X1.550000*%
%ADD21R,1.700000X1.700000*%
%ADD22O,1.700000X1.700000*%
%ADD23R,0.700000X1.300000*%
%ADD24R,0.600000X2.200000*%
%ADD25R,2.500000X1.100000*%
%ADD26R,1.100000X2.500000*%
%ADD27R,3.800000X2.000000*%
%ADD28R,1.500000X2.000000*%
%ADD29R,1.050000X1.150000*%
%ADD30C,0.250000*%
%ADD31C,0.400000*%
%ADD32C,0.254000*%
G04 APERTURE END LIST*
D10*
D11*
X113284000Y-97536000D03*
X113538000Y-105410000D03*
X113284000Y-95250000D03*
X125984000Y-92964000D03*
X104394000Y-105410000D03*
X98298000Y-88138000D03*
X126238000Y-120650000D03*
X120904000Y-120650000D03*
X122936000Y-117094000D03*
X122428000Y-109220000D03*
X127508000Y-88900000D03*
X126238000Y-95758000D03*
X99060000Y-94742000D03*
X100584000Y-103124000D03*
X98552000Y-101600000D03*
D12*
X101743000Y-101346000D03*
X103743000Y-101346000D03*
X105870500Y-101346000D03*
X107870500Y-101346000D03*
X99552000Y-98298000D03*
X97552000Y-98298000D03*
X109982000Y-101346000D03*
X111982000Y-101346000D03*
X101108000Y-90170000D03*
X103108000Y-90170000D03*
D13*
X110236000Y-112268000D03*
X110236000Y-109218000D03*
D14*
X131318000Y-103870000D03*
X131318000Y-101870000D03*
D15*
X102615000Y-111506000D03*
X105665000Y-111506000D03*
D16*
X110490000Y-115316000D03*
X108390000Y-115316000D03*
D17*
X98171000Y-83185000D03*
X100965000Y-83185000D03*
X103632000Y-83185000D03*
X106426000Y-83185000D03*
X109093000Y-83185000D03*
X111887000Y-83185000D03*
X114681000Y-83185000D03*
X117348000Y-83185000D03*
X120142000Y-83185000D03*
X122809000Y-83185000D03*
X125603000Y-83185000D03*
X128397000Y-83185000D03*
X131064000Y-83185000D03*
D18*
X107411100Y-119087460D03*
X108061100Y-119087460D03*
X108711100Y-119087460D03*
X109361100Y-119087460D03*
X110011100Y-119087460D03*
D19*
X106211100Y-119087460D03*
X111211100Y-119087460D03*
D20*
X105211100Y-121787460D03*
X112211100Y-121787460D03*
D21*
X99568000Y-108458000D03*
D22*
X99568000Y-105918000D03*
D23*
X119446000Y-88138000D03*
X121346000Y-88138000D03*
X121346000Y-96520000D03*
X119446000Y-96520000D03*
X121346000Y-93472000D03*
X119446000Y-93472000D03*
X121346000Y-90932000D03*
X119446000Y-90932000D03*
D24*
X101473000Y-93158000D03*
X101473000Y-98358000D03*
X102743000Y-93158000D03*
X102743000Y-98358000D03*
X104013000Y-93158000D03*
X104013000Y-98358000D03*
X105283000Y-93158000D03*
X105283000Y-98358000D03*
X106553000Y-93158000D03*
X106553000Y-98358000D03*
X107823000Y-93158000D03*
X107823000Y-98358000D03*
X109093000Y-93158000D03*
X109093000Y-98358000D03*
X110363000Y-93158000D03*
X110363000Y-98358000D03*
D25*
X131764000Y-121412000D03*
X131764000Y-119412000D03*
X131764000Y-117412000D03*
X131764000Y-115412000D03*
X131764000Y-113412000D03*
X131764000Y-111412000D03*
X131764000Y-109412000D03*
X131764000Y-107412000D03*
X116364000Y-107412000D03*
X116364000Y-109412000D03*
X116364000Y-111412000D03*
X116364000Y-113412000D03*
X116364000Y-115412000D03*
X116364000Y-117412000D03*
X116364000Y-119412000D03*
X116364000Y-121412000D03*
D26*
X129074000Y-105712000D03*
X127074000Y-105712000D03*
X125074000Y-105712000D03*
X123074000Y-105712000D03*
X121074000Y-105712000D03*
X119074000Y-105712000D03*
D27*
X99822000Y-114960000D03*
D28*
X99822000Y-121260000D03*
X102122000Y-121260000D03*
X97522000Y-121260000D03*
D21*
X131318000Y-87884000D03*
D22*
X131318000Y-90424000D03*
X131318000Y-92964000D03*
X131318000Y-95504000D03*
X131318000Y-98044000D03*
D23*
X123002000Y-99568000D03*
X124902000Y-99568000D03*
D29*
X115099000Y-100433000D03*
X115099000Y-103783000D03*
X116549000Y-100433000D03*
X116549000Y-103783000D03*
D11*
X110236000Y-105664000D03*
X118872000Y-94996000D03*
X118618000Y-101346000D03*
X107950000Y-111760000D03*
X100838000Y-86360000D03*
X103886000Y-88646000D03*
X103632000Y-86360004D03*
X104394000Y-90424000D03*
X105409998Y-86868000D03*
X109220000Y-86868000D03*
X112522000Y-91948000D03*
X114300000Y-93726000D03*
X112014000Y-86868000D03*
X117094000Y-86614000D03*
X107950000Y-95250000D03*
X111506000Y-104140000D03*
X106172000Y-95758000D03*
X112776000Y-109982000D03*
X108458000Y-90424000D03*
X111252000Y-90424000D03*
X106934000Y-95250000D03*
X111721997Y-97790000D03*
X123952000Y-89408000D03*
X124206000Y-103378000D03*
X122936000Y-90932000D03*
X119126000Y-113284000D03*
X112522000Y-96266000D03*
X115570000Y-91948000D03*
X118110000Y-89408000D03*
X122936000Y-89662000D03*
X119634000Y-99060000D03*
X114300000Y-109474000D03*
D30*
X101743000Y-101346000D02*
X101743000Y-98628000D01*
X101743000Y-98628000D02*
X101473000Y-98358000D01*
X102028500Y-101663500D02*
X102028500Y-100788500D01*
X103743000Y-101346000D02*
X103743000Y-98628000D01*
X103743000Y-98628000D02*
X104013000Y-98358000D01*
X104140000Y-101475000D02*
X104140000Y-101600000D01*
X103265000Y-100725000D02*
X103390000Y-100725000D01*
X103390000Y-100725000D02*
X104140000Y-101475000D01*
X105283000Y-98358000D02*
X105283000Y-100758500D01*
X105283000Y-100758500D02*
X105870500Y-101346000D01*
X106553000Y-98358000D02*
X106553000Y-100028500D01*
X107120500Y-100471000D02*
X107870500Y-101221000D01*
X106553000Y-100028500D02*
X106995500Y-100471000D01*
X106995500Y-100471000D02*
X107120500Y-100471000D01*
X107870500Y-101221000D02*
X107870500Y-101346000D01*
X99552000Y-98298000D02*
X99552000Y-98173000D01*
X99552000Y-98173000D02*
X100792001Y-96932999D01*
X100792001Y-96932999D02*
X102117999Y-96932999D01*
X102117999Y-96932999D02*
X102743000Y-97558000D01*
X102743000Y-97558000D02*
X102743000Y-98358000D01*
X112014000Y-100943000D02*
X112014000Y-101092000D01*
X107823000Y-98358000D02*
X107823000Y-99158000D01*
X109982000Y-101317000D02*
X109982000Y-101346000D01*
X107823000Y-99158000D02*
X109982000Y-101317000D01*
D31*
X110236000Y-105664000D02*
X108182000Y-105664000D01*
X108182000Y-105664000D02*
X102615000Y-111231000D01*
X102615000Y-111231000D02*
X102615000Y-111506000D01*
X102615000Y-111506000D02*
X100195998Y-111506000D01*
X100195998Y-111506000D02*
X96774000Y-108084002D01*
X96774000Y-108084002D02*
X96774000Y-99323001D01*
X99314000Y-90170000D02*
X101108000Y-90170000D01*
X96774000Y-99323001D02*
X96731999Y-99323001D01*
X96731999Y-99323001D02*
X96651999Y-99243001D01*
X96651999Y-99243001D02*
X96651999Y-97352999D01*
X96651999Y-97352999D02*
X96731999Y-97272999D01*
X96731999Y-97272999D02*
X96774000Y-97272999D01*
X96774000Y-97272999D02*
X96774000Y-92710000D01*
X96774000Y-92710000D02*
X99314000Y-90170000D01*
X119446000Y-90932000D02*
X119446000Y-88138000D01*
X119446000Y-93472000D02*
X119446000Y-90932000D01*
X118872000Y-94996000D02*
X118872000Y-94046000D01*
X118872000Y-94046000D02*
X119446000Y-93472000D01*
X118618000Y-101346000D02*
X128794000Y-101346000D01*
X128794000Y-101346000D02*
X131318000Y-103870000D01*
X131318000Y-103870000D02*
X131318000Y-107158000D01*
X131318000Y-107158000D02*
X131064000Y-107412000D01*
X101108000Y-90170000D02*
X101108000Y-92793000D01*
X101108000Y-92793000D02*
X101473000Y-93158000D01*
X99822000Y-121260000D02*
X99822000Y-121010000D01*
X99822000Y-121010000D02*
X102615000Y-118217000D01*
X102615000Y-118217000D02*
X102615000Y-111506000D01*
X107950000Y-111760000D02*
X109728000Y-111760000D01*
X109728000Y-111760000D02*
X110236000Y-112268000D01*
X109961000Y-112268000D02*
X110236000Y-112268000D01*
X102122000Y-121260000D02*
X102122000Y-119860000D01*
X102122000Y-119860000D02*
X109714000Y-112268000D01*
X109714000Y-112268000D02*
X110236000Y-112268000D01*
X110490000Y-115316000D02*
X110490000Y-112522000D01*
X110490000Y-112522000D02*
X110236000Y-112268000D01*
X107411100Y-119087460D02*
X107411100Y-116219900D01*
X107411100Y-116219900D02*
X108315000Y-115316000D01*
X108315000Y-115316000D02*
X108390000Y-115316000D01*
D30*
X100838000Y-86360000D02*
X100838000Y-83312000D01*
X100838000Y-83312000D02*
X100965000Y-83185000D01*
X105283000Y-90043000D02*
X103886000Y-88646000D01*
X105283000Y-93158000D02*
X105283000Y-90043000D01*
X103632000Y-83185000D02*
X103632000Y-86360004D01*
X104013000Y-93158000D02*
X104013000Y-90805000D01*
X104013000Y-90805000D02*
X104394000Y-90424000D01*
X103378000Y-83439000D02*
X103632000Y-83185000D01*
X105664000Y-86868000D02*
X105409998Y-86868000D01*
X106426000Y-83185000D02*
X106426000Y-86106000D01*
X106426000Y-86106000D02*
X105664000Y-86868000D01*
X109220000Y-86868000D02*
X109220000Y-83312000D01*
X109220000Y-83312000D02*
X109093000Y-83185000D01*
X114300000Y-93726000D02*
X112522000Y-91948000D01*
X112014000Y-86868000D02*
X112014000Y-83312000D01*
X112014000Y-83312000D02*
X111887000Y-83185000D01*
X117094000Y-86614000D02*
X117094000Y-83439000D01*
X117094000Y-83439000D02*
X117348000Y-83185000D01*
X118618000Y-86360000D02*
X128694000Y-86360000D01*
X128694000Y-86360000D02*
X130218000Y-87884000D01*
X130218000Y-87884000D02*
X131318000Y-87884000D01*
X115960999Y-89017001D02*
X118618000Y-86360000D01*
X107823000Y-92358000D02*
X111163999Y-89017001D01*
X111163999Y-89017001D02*
X115960999Y-89017001D01*
X120396000Y-118080000D02*
X120396000Y-111058998D01*
X120396000Y-111058998D02*
X117624003Y-108287001D01*
X117624003Y-108287001D02*
X114853999Y-108287001D01*
X114853999Y-108287001D02*
X111506000Y-104939002D01*
X111506000Y-104939002D02*
X111506000Y-104140000D01*
X117064000Y-121412000D02*
X120396000Y-118080000D01*
X107823000Y-92358000D02*
X107823000Y-93158000D01*
X107950000Y-95250000D02*
X107950000Y-93285000D01*
X107950000Y-93285000D02*
X107823000Y-93158000D01*
X106172000Y-95758000D02*
X106172000Y-93539000D01*
X106172000Y-93539000D02*
X106553000Y-93158000D01*
X115978998Y-119412000D02*
X112776000Y-116209002D01*
X112776000Y-116209002D02*
X112776000Y-109982000D01*
X108458000Y-90424000D02*
X106553000Y-92329000D01*
X106553000Y-92329000D02*
X106553000Y-93158000D01*
X131318000Y-90424000D02*
X128056999Y-87162999D01*
X118835999Y-87162999D02*
X115574998Y-90424000D01*
X128056999Y-87162999D02*
X118835999Y-87162999D01*
X115574998Y-90424000D02*
X111252000Y-90424000D01*
X117064000Y-119412000D02*
X115978998Y-119412000D01*
X106553000Y-93958000D02*
X106553000Y-93158000D01*
X106553000Y-92358000D02*
X106553000Y-93158000D01*
X124902000Y-99568000D02*
X127254000Y-99568000D01*
X127254000Y-99568000D02*
X131318000Y-95504000D01*
X109093000Y-98358000D02*
X109093000Y-97558000D01*
X106934000Y-95399000D02*
X106934000Y-95250000D01*
X109093000Y-97558000D02*
X106934000Y-95399000D01*
X110363000Y-98358000D02*
X111153997Y-98358000D01*
X111153997Y-98358000D02*
X111721997Y-97790000D01*
X123952000Y-89408000D02*
X122682000Y-88138000D01*
X122682000Y-88138000D02*
X121346000Y-88138000D01*
X131064000Y-117412000D02*
X124198999Y-110546999D01*
X124198999Y-110546999D02*
X124198999Y-103385001D01*
X124198999Y-103385001D02*
X124206000Y-103378000D01*
X116549000Y-103783000D02*
X116549000Y-100433000D01*
X120142000Y-110168588D02*
X120172443Y-109951557D01*
X120172443Y-109951557D02*
X120142000Y-104394998D01*
X123002000Y-95428000D02*
X123002000Y-99568000D01*
X119530002Y-103783000D02*
X116549000Y-103783000D01*
X120142000Y-104394998D02*
X119530002Y-103783000D01*
X131064000Y-121090588D02*
X120142000Y-110168588D01*
X131064000Y-121412000D02*
X131064000Y-121090588D01*
X121412000Y-99568000D02*
X120547000Y-100433000D01*
X120547000Y-100433000D02*
X116549000Y-100433000D01*
X123002000Y-99568000D02*
X121412000Y-99568000D01*
X121346000Y-93472000D02*
X121346000Y-93772000D01*
X121346000Y-93772000D02*
X123002000Y-95428000D01*
D31*
X116609010Y-103843010D02*
X116609010Y-103783000D01*
D30*
X121346000Y-90932000D02*
X122936000Y-90932000D01*
X117064000Y-113412000D02*
X118998000Y-113412000D01*
X118998000Y-113412000D02*
X119126000Y-113284000D01*
X121346000Y-90932000D02*
X129286000Y-90932000D01*
X129286000Y-90932000D02*
X131318000Y-92964000D01*
X112522000Y-96266000D02*
X112522000Y-94767000D01*
X112522000Y-94767000D02*
X110913000Y-93158000D01*
X110913000Y-93158000D02*
X110363000Y-93158000D01*
X118110000Y-89408000D02*
X115570000Y-91948000D01*
X132149002Y-109412000D02*
X133339001Y-108222001D01*
X133339001Y-108222001D02*
X133339001Y-93245999D01*
X133339001Y-93245999D02*
X131882001Y-91788999D01*
X123755990Y-90481990D02*
X122936000Y-89662000D01*
X131882001Y-91788999D02*
X130779409Y-91788999D01*
X130779409Y-91788999D02*
X129472400Y-90481990D01*
X129472400Y-90481990D02*
X123755990Y-90481990D01*
X132149002Y-109412000D02*
X131064000Y-109412000D01*
X131026441Y-109449559D02*
X131064000Y-109412000D01*
X119446000Y-96520000D02*
X118846000Y-96520000D01*
X118846000Y-96520000D02*
X113648999Y-91322999D01*
X113648999Y-91322999D02*
X110128001Y-91322999D01*
X110128001Y-91322999D02*
X109093000Y-92358000D01*
X109093000Y-92358000D02*
X109093000Y-93158000D01*
X109093000Y-93958000D02*
X109093000Y-93158000D01*
X119634000Y-99060000D02*
X119634000Y-96708000D01*
X119634000Y-96708000D02*
X119446000Y-96520000D01*
X117064000Y-109412000D02*
X114362000Y-109412000D01*
X114362000Y-109412000D02*
X114300000Y-109474000D01*
D32*
G36*
X96774000Y-82899250D02*
X96932750Y-83058000D01*
X98044000Y-83058000D01*
X98044000Y-83038000D01*
X98298000Y-83038000D01*
X98298000Y-83058000D01*
X99409250Y-83058000D01*
X99568000Y-82899250D01*
X99568000Y-80645000D01*
X99814536Y-80645000D01*
X99814536Y-85725000D01*
X99841103Y-85866190D01*
X99924546Y-85995865D01*
X100051866Y-86082859D01*
X100202995Y-86113463D01*
X100157118Y-86223946D01*
X100156882Y-86494865D01*
X100260339Y-86745252D01*
X100451741Y-86936987D01*
X100701946Y-87040882D01*
X100972865Y-87041118D01*
X101223252Y-86937661D01*
X101414987Y-86746259D01*
X101518882Y-86496054D01*
X101519118Y-86225135D01*
X101472977Y-86113464D01*
X101727000Y-86113464D01*
X101868190Y-86086897D01*
X101997865Y-86003454D01*
X102084859Y-85876134D01*
X102115464Y-85725000D01*
X102115464Y-80645000D01*
X102481536Y-80645000D01*
X102481536Y-85725000D01*
X102508103Y-85866190D01*
X102591546Y-85995865D01*
X102718866Y-86082859D01*
X102870000Y-86113464D01*
X102996996Y-86113464D01*
X102951118Y-86223950D01*
X102950882Y-86494869D01*
X103054339Y-86745256D01*
X103245741Y-86936991D01*
X103495946Y-87040886D01*
X103766865Y-87041122D01*
X104017252Y-86937665D01*
X104208987Y-86746263D01*
X104312882Y-86496058D01*
X104313118Y-86225139D01*
X104266975Y-86113464D01*
X104394000Y-86113464D01*
X104535190Y-86086897D01*
X104664865Y-86003454D01*
X104751859Y-85876134D01*
X104782464Y-85725000D01*
X104782464Y-80645000D01*
X105275536Y-80645000D01*
X105275536Y-85725000D01*
X105302103Y-85866190D01*
X105385546Y-85995865D01*
X105512866Y-86082859D01*
X105664000Y-86113464D01*
X105702944Y-86113464D01*
X105604867Y-86211541D01*
X105546052Y-86187118D01*
X105275133Y-86186882D01*
X105024746Y-86290339D01*
X104833011Y-86481741D01*
X104729116Y-86731946D01*
X104728880Y-87002865D01*
X104832337Y-87253252D01*
X105023739Y-87444987D01*
X105273944Y-87548882D01*
X105544863Y-87549118D01*
X105795250Y-87445661D01*
X105986985Y-87254259D01*
X105989975Y-87247058D01*
X106021796Y-87225796D01*
X106783796Y-86463796D01*
X106893483Y-86299638D01*
X106930515Y-86113464D01*
X107188000Y-86113464D01*
X107329190Y-86086897D01*
X107458865Y-86003454D01*
X107545859Y-85876134D01*
X107576464Y-85725000D01*
X107576464Y-80645000D01*
X107942536Y-80645000D01*
X107942536Y-85725000D01*
X107969103Y-85866190D01*
X108052546Y-85995865D01*
X108179866Y-86082859D01*
X108331000Y-86113464D01*
X108714000Y-86113464D01*
X108714000Y-86410877D01*
X108643013Y-86481741D01*
X108539118Y-86731946D01*
X108538882Y-87002865D01*
X108642339Y-87253252D01*
X108833741Y-87444987D01*
X109083946Y-87548882D01*
X109354865Y-87549118D01*
X109605252Y-87445661D01*
X109796987Y-87254259D01*
X109900882Y-87004054D01*
X109901118Y-86733135D01*
X109797661Y-86482748D01*
X109726000Y-86410962D01*
X109726000Y-86113464D01*
X109855000Y-86113464D01*
X109996190Y-86086897D01*
X110125865Y-86003454D01*
X110212859Y-85876134D01*
X110243464Y-85725000D01*
X110243464Y-80645000D01*
X110736536Y-80645000D01*
X110736536Y-85725000D01*
X110763103Y-85866190D01*
X110846546Y-85995865D01*
X110973866Y-86082859D01*
X111125000Y-86113464D01*
X111508000Y-86113464D01*
X111508000Y-86410877D01*
X111437013Y-86481741D01*
X111333118Y-86731946D01*
X111332882Y-87002865D01*
X111436339Y-87253252D01*
X111627741Y-87444987D01*
X111877946Y-87548882D01*
X112148865Y-87549118D01*
X112399252Y-87445661D01*
X112590987Y-87254259D01*
X112694882Y-87004054D01*
X112695118Y-86733135D01*
X112591661Y-86482748D01*
X112520000Y-86410962D01*
X112520000Y-86113464D01*
X112649000Y-86113464D01*
X112790190Y-86086897D01*
X112919865Y-86003454D01*
X113006859Y-85876134D01*
X113037464Y-85725000D01*
X113037464Y-83470750D01*
X113284000Y-83470750D01*
X113284000Y-85851309D01*
X113380673Y-86084698D01*
X113559301Y-86263327D01*
X113792690Y-86360000D01*
X114395250Y-86360000D01*
X114554000Y-86201250D01*
X114554000Y-83312000D01*
X114808000Y-83312000D01*
X114808000Y-86201250D01*
X114966750Y-86360000D01*
X115569310Y-86360000D01*
X115802699Y-86263327D01*
X115981327Y-86084698D01*
X116078000Y-85851309D01*
X116078000Y-83470750D01*
X115919250Y-83312000D01*
X114808000Y-83312000D01*
X114554000Y-83312000D01*
X113442750Y-83312000D01*
X113284000Y-83470750D01*
X113037464Y-83470750D01*
X113037464Y-80645000D01*
X113284000Y-80645000D01*
X113284000Y-82899250D01*
X113442750Y-83058000D01*
X114554000Y-83058000D01*
X114554000Y-83038000D01*
X114808000Y-83038000D01*
X114808000Y-83058000D01*
X115919250Y-83058000D01*
X116078000Y-82899250D01*
X116078000Y-80645000D01*
X116197536Y-80645000D01*
X116197536Y-85725000D01*
X116224103Y-85866190D01*
X116307546Y-85995865D01*
X116434866Y-86082859D01*
X116586000Y-86113464D01*
X116588000Y-86113464D01*
X116588000Y-86156877D01*
X116517013Y-86227741D01*
X116413118Y-86477946D01*
X116412882Y-86748865D01*
X116516339Y-86999252D01*
X116707741Y-87190987D01*
X116957946Y-87294882D01*
X116967518Y-87294890D01*
X115751407Y-88511001D01*
X111163999Y-88511001D01*
X110970361Y-88549518D01*
X110806203Y-88659205D01*
X109139086Y-90326322D01*
X109139118Y-90289135D01*
X109035661Y-90038748D01*
X108844259Y-89847013D01*
X108594054Y-89743118D01*
X108323135Y-89742882D01*
X108072748Y-89846339D01*
X107881013Y-90037741D01*
X107777118Y-90287946D01*
X107777030Y-90389378D01*
X106496872Y-91669536D01*
X106253000Y-91669536D01*
X106111810Y-91696103D01*
X105982135Y-91779546D01*
X105917470Y-91874187D01*
X105861454Y-91787135D01*
X105789000Y-91737629D01*
X105789000Y-90043000D01*
X105750483Y-89849362D01*
X105640796Y-89685204D01*
X104567031Y-88611439D01*
X104567118Y-88511135D01*
X104463661Y-88260748D01*
X104272259Y-88069013D01*
X104022054Y-87965118D01*
X103751135Y-87964882D01*
X103500748Y-88068339D01*
X103309013Y-88259741D01*
X103205118Y-88509946D01*
X103204882Y-88780865D01*
X103297860Y-89005890D01*
X103235000Y-89068750D01*
X103235000Y-90043000D01*
X103255000Y-90043000D01*
X103255000Y-90297000D01*
X103235000Y-90297000D01*
X103235000Y-90317000D01*
X102981000Y-90317000D01*
X102981000Y-90297000D01*
X102961000Y-90297000D01*
X102961000Y-90043000D01*
X102981000Y-90043000D01*
X102981000Y-89068750D01*
X102822250Y-88910000D01*
X102481691Y-88910000D01*
X102248302Y-89006673D01*
X102069673Y-89185301D01*
X101973000Y-89418690D01*
X101973000Y-89420301D01*
X101969897Y-89403810D01*
X101886454Y-89274135D01*
X101759134Y-89187141D01*
X101608000Y-89156536D01*
X100608000Y-89156536D01*
X100466810Y-89183103D01*
X100337135Y-89266546D01*
X100250141Y-89393866D01*
X100219536Y-89545000D01*
X100219536Y-89589000D01*
X99314000Y-89589000D01*
X99091661Y-89633226D01*
X98903171Y-89759171D01*
X96363171Y-92299171D01*
X96237226Y-92487661D01*
X96193000Y-92710000D01*
X96193000Y-97014261D01*
X96115225Y-97130660D01*
X96070999Y-97352999D01*
X96070999Y-99243001D01*
X96115225Y-99465340D01*
X96193000Y-99581739D01*
X96193000Y-108084002D01*
X96237226Y-108306341D01*
X96363171Y-108494831D01*
X99785169Y-111916829D01*
X99973659Y-112042774D01*
X100195998Y-112087000D01*
X101251536Y-112087000D01*
X101251536Y-112756000D01*
X101278103Y-112897190D01*
X101361546Y-113026865D01*
X101488866Y-113113859D01*
X101640000Y-113144464D01*
X102034000Y-113144464D01*
X102034000Y-113741267D01*
X102000454Y-113689135D01*
X101873134Y-113602141D01*
X101722000Y-113571536D01*
X97922000Y-113571536D01*
X97780810Y-113598103D01*
X97651135Y-113681546D01*
X97564141Y-113808866D01*
X97533536Y-113960000D01*
X97533536Y-115960000D01*
X97560103Y-116101190D01*
X97643546Y-116230865D01*
X97770866Y-116317859D01*
X97922000Y-116348464D01*
X101722000Y-116348464D01*
X101863190Y-116321897D01*
X101992865Y-116238454D01*
X102034000Y-116178251D01*
X102034000Y-117976342D01*
X100138806Y-119871536D01*
X99072000Y-119871536D01*
X98930810Y-119898103D01*
X98834963Y-119959778D01*
X98810327Y-119900302D01*
X98631699Y-119721673D01*
X98398310Y-119625000D01*
X97807750Y-119625000D01*
X97649000Y-119783750D01*
X97649000Y-121133000D01*
X97669000Y-121133000D01*
X97669000Y-121387000D01*
X97649000Y-121387000D01*
X97649000Y-122736250D01*
X97807750Y-122895000D01*
X98398310Y-122895000D01*
X98631699Y-122798327D01*
X98810327Y-122619698D01*
X98835304Y-122559397D01*
X98920866Y-122617859D01*
X99072000Y-122648464D01*
X100572000Y-122648464D01*
X100713190Y-122621897D01*
X100842865Y-122538454D01*
X100929859Y-122411134D01*
X100960464Y-122260000D01*
X100960464Y-120693194D01*
X100983536Y-120670122D01*
X100983536Y-122260000D01*
X101010103Y-122401190D01*
X101093546Y-122530865D01*
X101220866Y-122617859D01*
X101372000Y-122648464D01*
X102872000Y-122648464D01*
X103013190Y-122621897D01*
X103142865Y-122538454D01*
X103229859Y-122411134D01*
X103260464Y-122260000D01*
X103260464Y-121385460D01*
X104076100Y-121385460D01*
X104076100Y-121660460D01*
X105084100Y-121660460D01*
X105084100Y-120544506D01*
X105338100Y-120544506D01*
X105338100Y-121660460D01*
X106346100Y-121660460D01*
X106346100Y-121385460D01*
X111076100Y-121385460D01*
X111076100Y-121660460D01*
X112084100Y-121660460D01*
X112084100Y-120544506D01*
X112338100Y-120544506D01*
X112338100Y-121660460D01*
X113346100Y-121660460D01*
X113346100Y-121385460D01*
X113211102Y-120960782D01*
X112923863Y-120620092D01*
X112512974Y-120418341D01*
X112338100Y-120544506D01*
X112084100Y-120544506D01*
X111909226Y-120418341D01*
X111498337Y-120620092D01*
X111211098Y-120960782D01*
X111076100Y-121385460D01*
X106346100Y-121385460D01*
X106211102Y-120960782D01*
X105923863Y-120620092D01*
X105512974Y-120418341D01*
X105338100Y-120544506D01*
X105084100Y-120544506D01*
X104909226Y-120418341D01*
X104498337Y-120620092D01*
X104211098Y-120960782D01*
X104076100Y-121385460D01*
X103260464Y-121385460D01*
X103260464Y-120260000D01*
X103233897Y-120118810D01*
X103150454Y-119989135D01*
X103023134Y-119902141D01*
X102921997Y-119881661D01*
X103418260Y-119385398D01*
X104991832Y-119385398D01*
X105175548Y-119759281D01*
X105500051Y-120047028D01*
X105909969Y-120188689D01*
X106084100Y-120040023D01*
X106084100Y-119214460D01*
X105118366Y-119214460D01*
X104991832Y-119385398D01*
X103418260Y-119385398D01*
X104014136Y-118789522D01*
X104991832Y-118789522D01*
X105118366Y-118960460D01*
X106084100Y-118960460D01*
X106084100Y-118134897D01*
X105909969Y-117986231D01*
X105500051Y-118127892D01*
X105175548Y-118415639D01*
X104991832Y-118789522D01*
X104014136Y-118789522D01*
X107701536Y-115102122D01*
X107701536Y-115107806D01*
X107000271Y-115809071D01*
X106874326Y-115997561D01*
X106830100Y-116219900D01*
X106830100Y-118096081D01*
X106512231Y-117986231D01*
X106338100Y-118134897D01*
X106338100Y-118960460D01*
X106358100Y-118960460D01*
X106358100Y-119214460D01*
X106338100Y-119214460D01*
X106338100Y-120040023D01*
X106512231Y-120188689D01*
X106922149Y-120047028D01*
X106935445Y-120035238D01*
X107059966Y-120120319D01*
X107211100Y-120150924D01*
X107611100Y-120150924D01*
X107740688Y-120126540D01*
X107861100Y-120150924D01*
X108261100Y-120150924D01*
X108390688Y-120126540D01*
X108511100Y-120150924D01*
X108911100Y-120150924D01*
X109040688Y-120126540D01*
X109161100Y-120150924D01*
X109301539Y-120150924D01*
X109451401Y-120300787D01*
X109684790Y-120397460D01*
X109752350Y-120397460D01*
X109911100Y-120238710D01*
X109911100Y-119925096D01*
X109918959Y-119913594D01*
X109949564Y-119762460D01*
X109949564Y-119385398D01*
X109991832Y-119385398D01*
X110111100Y-119628122D01*
X110111100Y-120238710D01*
X110269850Y-120397460D01*
X110337410Y-120397460D01*
X110570799Y-120300787D01*
X110741215Y-120130370D01*
X110909969Y-120188689D01*
X111084100Y-120040023D01*
X111084100Y-119214460D01*
X111338100Y-119214460D01*
X111338100Y-120040023D01*
X111512231Y-120188689D01*
X111922149Y-120047028D01*
X112246652Y-119759281D01*
X112430368Y-119385398D01*
X112303834Y-119214460D01*
X111338100Y-119214460D01*
X111084100Y-119214460D01*
X110111100Y-119214460D01*
X110111100Y-119224276D01*
X109991832Y-119385398D01*
X109949564Y-119385398D01*
X109949564Y-118789522D01*
X109991832Y-118789522D01*
X110111100Y-118950644D01*
X110111100Y-118960460D01*
X111084100Y-118960460D01*
X111084100Y-118134897D01*
X111338100Y-118134897D01*
X111338100Y-118960460D01*
X112303834Y-118960460D01*
X112430368Y-118789522D01*
X112246652Y-118415639D01*
X111922149Y-118127892D01*
X111512231Y-117986231D01*
X111338100Y-118134897D01*
X111084100Y-118134897D01*
X110909969Y-117986231D01*
X110741215Y-118044550D01*
X110570799Y-117874133D01*
X110337410Y-117777460D01*
X110269850Y-117777460D01*
X110111100Y-117936210D01*
X110111100Y-118546798D01*
X109991832Y-118789522D01*
X109949564Y-118789522D01*
X109949564Y-118412460D01*
X109922997Y-118271270D01*
X109911100Y-118252781D01*
X109911100Y-117936210D01*
X109752350Y-117777460D01*
X109684790Y-117777460D01*
X109451401Y-117874133D01*
X109301539Y-118023996D01*
X109161100Y-118023996D01*
X109031512Y-118048380D01*
X108911100Y-118023996D01*
X108511100Y-118023996D01*
X108381512Y-118048380D01*
X108261100Y-118023996D01*
X107992100Y-118023996D01*
X107992100Y-116460558D01*
X108523194Y-115929464D01*
X108690000Y-115929464D01*
X108831190Y-115902897D01*
X108960865Y-115819454D01*
X109047859Y-115692134D01*
X109078464Y-115541000D01*
X109078464Y-115091000D01*
X109051897Y-114949810D01*
X108968454Y-114820135D01*
X108841134Y-114733141D01*
X108690000Y-114702536D01*
X108101122Y-114702536D01*
X109172194Y-113631464D01*
X109909000Y-113631464D01*
X109909000Y-114827379D01*
X109832141Y-114939866D01*
X109801536Y-115091000D01*
X109801536Y-115541000D01*
X109828103Y-115682190D01*
X109911546Y-115811865D01*
X110038866Y-115898859D01*
X110190000Y-115929464D01*
X110790000Y-115929464D01*
X110931190Y-115902897D01*
X111060865Y-115819454D01*
X111147859Y-115692134D01*
X111178464Y-115541000D01*
X111178464Y-115091000D01*
X111151897Y-114949810D01*
X111071000Y-114824092D01*
X111071000Y-113631464D01*
X111486000Y-113631464D01*
X111627190Y-113604897D01*
X111756865Y-113521454D01*
X111843859Y-113394134D01*
X111874464Y-113243000D01*
X111874464Y-111293000D01*
X111847897Y-111151810D01*
X111764454Y-111022135D01*
X111637134Y-110935141D01*
X111486000Y-110904536D01*
X108986000Y-110904536D01*
X108844810Y-110931103D01*
X108715135Y-111014546D01*
X108628141Y-111141866D01*
X108620621Y-111179000D01*
X108326595Y-111179000D01*
X108086054Y-111079118D01*
X107815135Y-111078882D01*
X107564748Y-111182339D01*
X107373013Y-111373741D01*
X107269118Y-111623946D01*
X107268977Y-111785727D01*
X107116250Y-111633000D01*
X105792000Y-111633000D01*
X105792000Y-113232250D01*
X105950750Y-113391000D01*
X106766309Y-113391000D01*
X106999698Y-113294327D01*
X107178327Y-113115699D01*
X107275000Y-112882310D01*
X107275000Y-111909672D01*
X107372339Y-112145252D01*
X107563741Y-112336987D01*
X107813946Y-112440882D01*
X108084865Y-112441118D01*
X108327171Y-112341000D01*
X108597536Y-112341000D01*
X108597536Y-112562806D01*
X103196000Y-117964342D01*
X103196000Y-113144464D01*
X103590000Y-113144464D01*
X103731190Y-113117897D01*
X103860865Y-113034454D01*
X103947859Y-112907134D01*
X103978464Y-112756000D01*
X103978464Y-111791750D01*
X104055000Y-111791750D01*
X104055000Y-112882310D01*
X104151673Y-113115699D01*
X104330302Y-113294327D01*
X104563691Y-113391000D01*
X105379250Y-113391000D01*
X105538000Y-113232250D01*
X105538000Y-111633000D01*
X104213750Y-111633000D01*
X104055000Y-111791750D01*
X103978464Y-111791750D01*
X103978464Y-110689194D01*
X104055000Y-110612658D01*
X104055000Y-111220250D01*
X104213750Y-111379000D01*
X105538000Y-111379000D01*
X105538000Y-109779750D01*
X105792000Y-109779750D01*
X105792000Y-111379000D01*
X107116250Y-111379000D01*
X107275000Y-111220250D01*
X107275000Y-110129690D01*
X107178327Y-109896301D01*
X106999698Y-109717673D01*
X106766309Y-109621000D01*
X105950750Y-109621000D01*
X105792000Y-109779750D01*
X105538000Y-109779750D01*
X105379250Y-109621000D01*
X105046658Y-109621000D01*
X105163908Y-109503750D01*
X108351000Y-109503750D01*
X108351000Y-110319309D01*
X108447673Y-110552698D01*
X108626301Y-110731327D01*
X108859690Y-110828000D01*
X109950250Y-110828000D01*
X110109000Y-110669250D01*
X110109000Y-109345000D01*
X108509750Y-109345000D01*
X108351000Y-109503750D01*
X105163908Y-109503750D01*
X106550967Y-108116691D01*
X108351000Y-108116691D01*
X108351000Y-108932250D01*
X108509750Y-109091000D01*
X110109000Y-109091000D01*
X110109000Y-107766750D01*
X110363000Y-107766750D01*
X110363000Y-109091000D01*
X111962250Y-109091000D01*
X112121000Y-108932250D01*
X112121000Y-108116691D01*
X112024327Y-107883302D01*
X111845699Y-107704673D01*
X111612310Y-107608000D01*
X110521750Y-107608000D01*
X110363000Y-107766750D01*
X110109000Y-107766750D01*
X109950250Y-107608000D01*
X108859690Y-107608000D01*
X108626301Y-107704673D01*
X108447673Y-107883302D01*
X108351000Y-108116691D01*
X106550967Y-108116691D01*
X108422658Y-106245000D01*
X109859405Y-106245000D01*
X110099946Y-106344882D01*
X110370865Y-106345118D01*
X110621252Y-106241661D01*
X110812987Y-106050259D01*
X110916882Y-105800054D01*
X110917118Y-105529135D01*
X110813661Y-105278748D01*
X110622259Y-105087013D01*
X110372054Y-104983118D01*
X110101135Y-104982882D01*
X109858829Y-105083000D01*
X108182000Y-105083000D01*
X107959661Y-105127226D01*
X107771171Y-105253171D01*
X103156806Y-109867536D01*
X101640000Y-109867536D01*
X101498810Y-109894103D01*
X101369135Y-109977546D01*
X101282141Y-110104866D01*
X101251536Y-110256000D01*
X101251536Y-110925000D01*
X100436656Y-110925000D01*
X99208120Y-109696464D01*
X100418000Y-109696464D01*
X100559190Y-109669897D01*
X100688865Y-109586454D01*
X100775859Y-109459134D01*
X100806464Y-109308000D01*
X100806464Y-107608000D01*
X100779897Y-107466810D01*
X100696454Y-107337135D01*
X100569134Y-107250141D01*
X100418000Y-107219536D01*
X100222895Y-107219536D01*
X100449358Y-107113183D01*
X100839645Y-106684924D01*
X101009476Y-106274890D01*
X100888155Y-106045000D01*
X99695000Y-106045000D01*
X99695000Y-106065000D01*
X99441000Y-106065000D01*
X99441000Y-106045000D01*
X98247845Y-106045000D01*
X98126524Y-106274890D01*
X98296355Y-106684924D01*
X98686642Y-107113183D01*
X98913105Y-107219536D01*
X98718000Y-107219536D01*
X98576810Y-107246103D01*
X98447135Y-107329546D01*
X98360141Y-107456866D01*
X98329536Y-107608000D01*
X98329536Y-108817880D01*
X97355000Y-107843344D01*
X97355000Y-105561110D01*
X98126524Y-105561110D01*
X98247845Y-105791000D01*
X99441000Y-105791000D01*
X99441000Y-104597181D01*
X99695000Y-104597181D01*
X99695000Y-105791000D01*
X100888155Y-105791000D01*
X101009476Y-105561110D01*
X100839645Y-105151076D01*
X100449358Y-104722817D01*
X99924892Y-104476514D01*
X99695000Y-104597181D01*
X99441000Y-104597181D01*
X99211108Y-104476514D01*
X98686642Y-104722817D01*
X98296355Y-105151076D01*
X98126524Y-105561110D01*
X97355000Y-105561110D01*
X97355000Y-103081691D01*
X113939000Y-103081691D01*
X113939000Y-103497250D01*
X114097750Y-103656000D01*
X114972000Y-103656000D01*
X114972000Y-102731750D01*
X114813250Y-102573000D01*
X114447690Y-102573000D01*
X114214301Y-102669673D01*
X114035673Y-102848302D01*
X113939000Y-103081691D01*
X97355000Y-103081691D01*
X97355000Y-99469250D01*
X97425000Y-99399250D01*
X97425000Y-98425000D01*
X97405000Y-98425000D01*
X97405000Y-98171000D01*
X97425000Y-98171000D01*
X97425000Y-97196750D01*
X97355000Y-97126750D01*
X97355000Y-92950658D01*
X99554658Y-90751000D01*
X100219536Y-90751000D01*
X100219536Y-90795000D01*
X100246103Y-90936190D01*
X100329546Y-91065865D01*
X100456866Y-91152859D01*
X100527000Y-91167061D01*
X100527000Y-92793000D01*
X100571226Y-93015339D01*
X100697171Y-93203829D01*
X100784536Y-93291194D01*
X100784536Y-94258000D01*
X100811103Y-94399190D01*
X100894546Y-94528865D01*
X101021866Y-94615859D01*
X101173000Y-94646464D01*
X101773000Y-94646464D01*
X101908030Y-94621056D01*
X102083302Y-94796327D01*
X102316691Y-94893000D01*
X102457250Y-94893000D01*
X102616000Y-94734250D01*
X102616000Y-93285000D01*
X102596000Y-93285000D01*
X102596000Y-93031000D01*
X102616000Y-93031000D01*
X102616000Y-93011000D01*
X102870000Y-93011000D01*
X102870000Y-93031000D01*
X102890000Y-93031000D01*
X102890000Y-93285000D01*
X102870000Y-93285000D01*
X102870000Y-94734250D01*
X103028750Y-94893000D01*
X103169309Y-94893000D01*
X103402698Y-94796327D01*
X103579580Y-94619446D01*
X103713000Y-94646464D01*
X104313000Y-94646464D01*
X104454190Y-94619897D01*
X104583865Y-94536454D01*
X104648530Y-94441813D01*
X104704546Y-94528865D01*
X104831866Y-94615859D01*
X104983000Y-94646464D01*
X105583000Y-94646464D01*
X105666000Y-94630846D01*
X105666000Y-95300877D01*
X105595013Y-95371741D01*
X105491118Y-95621946D01*
X105490882Y-95892865D01*
X105594339Y-96143252D01*
X105785741Y-96334987D01*
X106035946Y-96438882D01*
X106306865Y-96439118D01*
X106557252Y-96335661D01*
X106748987Y-96144259D01*
X106811975Y-95992567D01*
X107688944Y-96869536D01*
X107523000Y-96869536D01*
X107381810Y-96896103D01*
X107252135Y-96979546D01*
X107187470Y-97074187D01*
X107131454Y-96987135D01*
X107004134Y-96900141D01*
X106853000Y-96869536D01*
X106253000Y-96869536D01*
X106111810Y-96896103D01*
X105982135Y-96979546D01*
X105917470Y-97074187D01*
X105861454Y-96987135D01*
X105734134Y-96900141D01*
X105583000Y-96869536D01*
X104983000Y-96869536D01*
X104841810Y-96896103D01*
X104712135Y-96979546D01*
X104647470Y-97074187D01*
X104591454Y-96987135D01*
X104464134Y-96900141D01*
X104313000Y-96869536D01*
X103713000Y-96869536D01*
X103571810Y-96896103D01*
X103442135Y-96979546D01*
X103377470Y-97074187D01*
X103321454Y-96987135D01*
X103194134Y-96900141D01*
X103043000Y-96869536D01*
X102770128Y-96869536D01*
X102475795Y-96575203D01*
X102311637Y-96465516D01*
X102117999Y-96426999D01*
X100792001Y-96426999D01*
X100598363Y-96465516D01*
X100434205Y-96575203D01*
X99724872Y-97284536D01*
X99052000Y-97284536D01*
X98910810Y-97311103D01*
X98781135Y-97394546D01*
X98694141Y-97521866D01*
X98687000Y-97557130D01*
X98687000Y-97546690D01*
X98590327Y-97313301D01*
X98411698Y-97134673D01*
X98178309Y-97038000D01*
X97837750Y-97038000D01*
X97679000Y-97196750D01*
X97679000Y-98171000D01*
X97699000Y-98171000D01*
X97699000Y-98425000D01*
X97679000Y-98425000D01*
X97679000Y-99399250D01*
X97837750Y-99558000D01*
X98178309Y-99558000D01*
X98411698Y-99461327D01*
X98590327Y-99282699D01*
X98687000Y-99049310D01*
X98687000Y-99047699D01*
X98690103Y-99064190D01*
X98773546Y-99193865D01*
X98900866Y-99280859D01*
X99052000Y-99311464D01*
X100052000Y-99311464D01*
X100193190Y-99284897D01*
X100322865Y-99201454D01*
X100409859Y-99074134D01*
X100440464Y-98923000D01*
X100440464Y-98000128D01*
X100784536Y-97656056D01*
X100784536Y-99458000D01*
X100811103Y-99599190D01*
X100894546Y-99728865D01*
X101021866Y-99815859D01*
X101173000Y-99846464D01*
X101237000Y-99846464D01*
X101237000Y-100333665D01*
X101101810Y-100359103D01*
X100972135Y-100442546D01*
X100885141Y-100569866D01*
X100854536Y-100721000D01*
X100854536Y-101971000D01*
X100881103Y-102112190D01*
X100964546Y-102241865D01*
X101091866Y-102328859D01*
X101243000Y-102359464D01*
X102243000Y-102359464D01*
X102384190Y-102332897D01*
X102513865Y-102249454D01*
X102600859Y-102122134D01*
X102631464Y-101971000D01*
X102631464Y-100721000D01*
X102604897Y-100579810D01*
X102521454Y-100450135D01*
X102394134Y-100363141D01*
X102249000Y-100333751D01*
X102249000Y-99786570D01*
X102291866Y-99815859D01*
X102443000Y-99846464D01*
X103043000Y-99846464D01*
X103184190Y-99819897D01*
X103237000Y-99785915D01*
X103237000Y-100224570D01*
X103071362Y-100257517D01*
X102907204Y-100367204D01*
X102797517Y-100531362D01*
X102759000Y-100725000D01*
X102797517Y-100918638D01*
X102854536Y-101003973D01*
X102854536Y-101971000D01*
X102881103Y-102112190D01*
X102964546Y-102241865D01*
X103091866Y-102328859D01*
X103243000Y-102359464D01*
X104243000Y-102359464D01*
X104384190Y-102332897D01*
X104513865Y-102249454D01*
X104600859Y-102122134D01*
X104631464Y-101971000D01*
X104631464Y-101673077D01*
X104646000Y-101600000D01*
X104646000Y-101475000D01*
X104631464Y-101401923D01*
X104631464Y-100721000D01*
X104604897Y-100579810D01*
X104521454Y-100450135D01*
X104394134Y-100363141D01*
X104249000Y-100333751D01*
X104249000Y-99846464D01*
X104313000Y-99846464D01*
X104454190Y-99819897D01*
X104583865Y-99736454D01*
X104648530Y-99641813D01*
X104704546Y-99728865D01*
X104777000Y-99778371D01*
X104777000Y-100758500D01*
X104815517Y-100952138D01*
X104925204Y-101116296D01*
X104982036Y-101173128D01*
X104982036Y-101971000D01*
X105008603Y-102112190D01*
X105092046Y-102241865D01*
X105219366Y-102328859D01*
X105370500Y-102359464D01*
X106370500Y-102359464D01*
X106511690Y-102332897D01*
X106641365Y-102249454D01*
X106728359Y-102122134D01*
X106758964Y-101971000D01*
X106758964Y-100909819D01*
X106801862Y-100938483D01*
X106889904Y-100955996D01*
X106982036Y-101048128D01*
X106982036Y-101971000D01*
X107008603Y-102112190D01*
X107092046Y-102241865D01*
X107219366Y-102328859D01*
X107370500Y-102359464D01*
X108370500Y-102359464D01*
X108511690Y-102332897D01*
X108641365Y-102249454D01*
X108728359Y-102122134D01*
X108758964Y-101971000D01*
X108758964Y-100809556D01*
X109093536Y-101144128D01*
X109093536Y-101971000D01*
X109120103Y-102112190D01*
X109203546Y-102241865D01*
X109330866Y-102328859D01*
X109482000Y-102359464D01*
X110482000Y-102359464D01*
X110623190Y-102332897D01*
X110752865Y-102249454D01*
X110839859Y-102122134D01*
X110847000Y-102086870D01*
X110847000Y-102097310D01*
X110943673Y-102330699D01*
X111122302Y-102509327D01*
X111355691Y-102606000D01*
X111696250Y-102606000D01*
X111855000Y-102447250D01*
X111855000Y-101473000D01*
X112109000Y-101473000D01*
X112109000Y-102447250D01*
X112267750Y-102606000D01*
X112608309Y-102606000D01*
X112841698Y-102509327D01*
X113020327Y-102330699D01*
X113117000Y-102097310D01*
X113117000Y-101631750D01*
X112958250Y-101473000D01*
X112109000Y-101473000D01*
X111855000Y-101473000D01*
X111835000Y-101473000D01*
X111835000Y-101219000D01*
X111855000Y-101219000D01*
X111855000Y-100244750D01*
X112109000Y-100244750D01*
X112109000Y-101219000D01*
X112958250Y-101219000D01*
X113117000Y-101060250D01*
X113117000Y-100718750D01*
X113939000Y-100718750D01*
X113939000Y-101134309D01*
X114035673Y-101367698D01*
X114214301Y-101546327D01*
X114447690Y-101643000D01*
X114813250Y-101643000D01*
X114972000Y-101484250D01*
X114972000Y-100560000D01*
X114097750Y-100560000D01*
X113939000Y-100718750D01*
X113117000Y-100718750D01*
X113117000Y-100594690D01*
X113020327Y-100361301D01*
X112841698Y-100182673D01*
X112608309Y-100086000D01*
X112267750Y-100086000D01*
X112109000Y-100244750D01*
X111855000Y-100244750D01*
X111696250Y-100086000D01*
X111355691Y-100086000D01*
X111122302Y-100182673D01*
X110943673Y-100361301D01*
X110847000Y-100594690D01*
X110847000Y-100596301D01*
X110843897Y-100579810D01*
X110760454Y-100450135D01*
X110633134Y-100363141D01*
X110482000Y-100332536D01*
X109713128Y-100332536D01*
X109227056Y-99846464D01*
X109393000Y-99846464D01*
X109534190Y-99819897D01*
X109663865Y-99736454D01*
X109728530Y-99641813D01*
X109784546Y-99728865D01*
X109911866Y-99815859D01*
X110063000Y-99846464D01*
X110663000Y-99846464D01*
X110804190Y-99819897D01*
X110933865Y-99736454D01*
X110937119Y-99731691D01*
X113939000Y-99731691D01*
X113939000Y-100147250D01*
X114097750Y-100306000D01*
X114972000Y-100306000D01*
X114972000Y-99381750D01*
X114813250Y-99223000D01*
X114447690Y-99223000D01*
X114214301Y-99319673D01*
X114035673Y-99498302D01*
X113939000Y-99731691D01*
X110937119Y-99731691D01*
X111020859Y-99609134D01*
X111051464Y-99458000D01*
X111051464Y-98864000D01*
X111153997Y-98864000D01*
X111347635Y-98825483D01*
X111511793Y-98715796D01*
X111756558Y-98471031D01*
X111856862Y-98471118D01*
X112107249Y-98367661D01*
X112298984Y-98176259D01*
X112402879Y-97926054D01*
X112403115Y-97655135D01*
X112299658Y-97404748D01*
X112108256Y-97213013D01*
X111858051Y-97109118D01*
X111587132Y-97108882D01*
X111336745Y-97212339D01*
X111145010Y-97403741D01*
X111051464Y-97629023D01*
X111051464Y-97258000D01*
X111024897Y-97116810D01*
X110941454Y-96987135D01*
X110814134Y-96900141D01*
X110663000Y-96869536D01*
X110063000Y-96869536D01*
X109921810Y-96896103D01*
X109792135Y-96979546D01*
X109727470Y-97074187D01*
X109671454Y-96987135D01*
X109544134Y-96900141D01*
X109393000Y-96869536D01*
X109120128Y-96869536D01*
X108153394Y-95902802D01*
X108335252Y-95827661D01*
X108526987Y-95636259D01*
X108630882Y-95386054D01*
X108631118Y-95115135D01*
X108527661Y-94864748D01*
X108456000Y-94792962D01*
X108456000Y-94445516D01*
X108458530Y-94441813D01*
X108514546Y-94528865D01*
X108641866Y-94615859D01*
X108793000Y-94646464D01*
X109393000Y-94646464D01*
X109534190Y-94619897D01*
X109663865Y-94536454D01*
X109728530Y-94441813D01*
X109784546Y-94528865D01*
X109911866Y-94615859D01*
X110063000Y-94646464D01*
X110663000Y-94646464D01*
X110804190Y-94619897D01*
X110933865Y-94536454D01*
X111020859Y-94409134D01*
X111051464Y-94258000D01*
X111051464Y-94012056D01*
X112016000Y-94976592D01*
X112016000Y-95808877D01*
X111945013Y-95879741D01*
X111841118Y-96129946D01*
X111840882Y-96400865D01*
X111944339Y-96651252D01*
X112135741Y-96842987D01*
X112385946Y-96946882D01*
X112656865Y-96947118D01*
X112907252Y-96843661D01*
X113098987Y-96652259D01*
X113202882Y-96402054D01*
X113203118Y-96131135D01*
X113099661Y-95880748D01*
X113028000Y-95808962D01*
X113028000Y-94767000D01*
X112989483Y-94573362D01*
X112879796Y-94409204D01*
X111270796Y-92800204D01*
X111106638Y-92690517D01*
X111051464Y-92679542D01*
X111051464Y-92058000D01*
X111024897Y-91916810D01*
X110968393Y-91828999D01*
X111841103Y-91828999D01*
X111840882Y-92082865D01*
X111944339Y-92333252D01*
X112135741Y-92524987D01*
X112385946Y-92628882D01*
X112487378Y-92628970D01*
X113618969Y-93760561D01*
X113618882Y-93860865D01*
X113722339Y-94111252D01*
X113913741Y-94302987D01*
X114163946Y-94406882D01*
X114434865Y-94407118D01*
X114685252Y-94303661D01*
X114876987Y-94112259D01*
X114980882Y-93862054D01*
X114981118Y-93591135D01*
X114877661Y-93340748D01*
X114686259Y-93149013D01*
X114436054Y-93045118D01*
X114334622Y-93045030D01*
X113203031Y-91913439D01*
X113203104Y-91828999D01*
X113439407Y-91828999D01*
X118488204Y-96877796D01*
X118652362Y-96987483D01*
X118707536Y-96998458D01*
X118707536Y-97170000D01*
X118734103Y-97311190D01*
X118817546Y-97440865D01*
X118944866Y-97527859D01*
X119096000Y-97558464D01*
X119128000Y-97558464D01*
X119128000Y-98602877D01*
X119057013Y-98673741D01*
X118953118Y-98923946D01*
X118952882Y-99194865D01*
X119056339Y-99445252D01*
X119247741Y-99636987D01*
X119497946Y-99740882D01*
X119768865Y-99741118D01*
X120019252Y-99637661D01*
X120210987Y-99446259D01*
X120314882Y-99196054D01*
X120315118Y-98925135D01*
X120211661Y-98674748D01*
X120140000Y-98602962D01*
X120140000Y-97341417D01*
X120153859Y-97321134D01*
X120184464Y-97170000D01*
X120184464Y-96805750D01*
X120361000Y-96805750D01*
X120361000Y-97296310D01*
X120457673Y-97529699D01*
X120636302Y-97708327D01*
X120869691Y-97805000D01*
X121060250Y-97805000D01*
X121219000Y-97646250D01*
X121219000Y-96647000D01*
X121473000Y-96647000D01*
X121473000Y-97646250D01*
X121631750Y-97805000D01*
X121822309Y-97805000D01*
X122055698Y-97708327D01*
X122234327Y-97529699D01*
X122331000Y-97296310D01*
X122331000Y-96805750D01*
X122172250Y-96647000D01*
X121473000Y-96647000D01*
X121219000Y-96647000D01*
X120519750Y-96647000D01*
X120361000Y-96805750D01*
X120184464Y-96805750D01*
X120184464Y-95870000D01*
X120160697Y-95743690D01*
X120361000Y-95743690D01*
X120361000Y-96234250D01*
X120519750Y-96393000D01*
X121219000Y-96393000D01*
X121219000Y-95393750D01*
X121473000Y-95393750D01*
X121473000Y-96393000D01*
X122172250Y-96393000D01*
X122331000Y-96234250D01*
X122331000Y-95743690D01*
X122234327Y-95510301D01*
X122055698Y-95331673D01*
X121822309Y-95235000D01*
X121631750Y-95235000D01*
X121473000Y-95393750D01*
X121219000Y-95393750D01*
X121060250Y-95235000D01*
X120869691Y-95235000D01*
X120636302Y-95331673D01*
X120457673Y-95510301D01*
X120361000Y-95743690D01*
X120160697Y-95743690D01*
X120157897Y-95728810D01*
X120074454Y-95599135D01*
X119947134Y-95512141D01*
X119796000Y-95481536D01*
X119349537Y-95481536D01*
X119448987Y-95382259D01*
X119552882Y-95132054D01*
X119553118Y-94861135D01*
X119453000Y-94618829D01*
X119453000Y-94510464D01*
X119796000Y-94510464D01*
X119937190Y-94483897D01*
X120066865Y-94400454D01*
X120153859Y-94273134D01*
X120184464Y-94122000D01*
X120184464Y-92822000D01*
X120157897Y-92680810D01*
X120074454Y-92551135D01*
X120027000Y-92518711D01*
X120027000Y-91886106D01*
X120066865Y-91860454D01*
X120153859Y-91733134D01*
X120184464Y-91582000D01*
X120184464Y-90282000D01*
X120157897Y-90140810D01*
X120074454Y-90011135D01*
X120027000Y-89978711D01*
X120027000Y-89092106D01*
X120066865Y-89066454D01*
X120153859Y-88939134D01*
X120184464Y-88788000D01*
X120184464Y-87668999D01*
X120607536Y-87668999D01*
X120607536Y-88788000D01*
X120634103Y-88929190D01*
X120717546Y-89058865D01*
X120844866Y-89145859D01*
X120996000Y-89176464D01*
X121696000Y-89176464D01*
X121837190Y-89149897D01*
X121966865Y-89066454D01*
X122053859Y-88939134D01*
X122084464Y-88788000D01*
X122084464Y-88644000D01*
X122472408Y-88644000D01*
X122809297Y-88980889D01*
X122801135Y-88980882D01*
X122550748Y-89084339D01*
X122359013Y-89275741D01*
X122255118Y-89525946D01*
X122254882Y-89796865D01*
X122358339Y-90047252D01*
X122549741Y-90238987D01*
X122689485Y-90297014D01*
X122550748Y-90354339D01*
X122478962Y-90426000D01*
X122084464Y-90426000D01*
X122084464Y-90282000D01*
X122057897Y-90140810D01*
X121974454Y-90011135D01*
X121847134Y-89924141D01*
X121696000Y-89893536D01*
X120996000Y-89893536D01*
X120854810Y-89920103D01*
X120725135Y-90003546D01*
X120638141Y-90130866D01*
X120607536Y-90282000D01*
X120607536Y-91582000D01*
X120634103Y-91723190D01*
X120717546Y-91852865D01*
X120844866Y-91939859D01*
X120996000Y-91970464D01*
X121696000Y-91970464D01*
X121837190Y-91943897D01*
X121966865Y-91860454D01*
X122053859Y-91733134D01*
X122084464Y-91582000D01*
X122084464Y-91438000D01*
X122478877Y-91438000D01*
X122549741Y-91508987D01*
X122799946Y-91612882D01*
X123070865Y-91613118D01*
X123321252Y-91509661D01*
X123393038Y-91438000D01*
X129076408Y-91438000D01*
X130152396Y-92513988D01*
X130062883Y-92964000D01*
X130156587Y-93435083D01*
X130423435Y-93834448D01*
X130822800Y-94101296D01*
X131293883Y-94195000D01*
X131342117Y-94195000D01*
X131813200Y-94101296D01*
X132212565Y-93834448D01*
X132479413Y-93435083D01*
X132534674Y-93157264D01*
X132833001Y-93455591D01*
X132833001Y-106473536D01*
X131899000Y-106473536D01*
X131899000Y-104758464D01*
X131943000Y-104758464D01*
X132084190Y-104731897D01*
X132213865Y-104648454D01*
X132300859Y-104521134D01*
X132331464Y-104370000D01*
X132331464Y-103370000D01*
X132304897Y-103228810D01*
X132221454Y-103099135D01*
X132094134Y-103012141D01*
X132058870Y-103005000D01*
X132069310Y-103005000D01*
X132302699Y-102908327D01*
X132481327Y-102729698D01*
X132578000Y-102496309D01*
X132578000Y-102155750D01*
X132419250Y-101997000D01*
X131445000Y-101997000D01*
X131445000Y-102017000D01*
X131191000Y-102017000D01*
X131191000Y-101997000D01*
X131171000Y-101997000D01*
X131171000Y-101743000D01*
X131191000Y-101743000D01*
X131191000Y-100893750D01*
X131445000Y-100893750D01*
X131445000Y-101743000D01*
X132419250Y-101743000D01*
X132578000Y-101584250D01*
X132578000Y-101243691D01*
X132481327Y-101010302D01*
X132302699Y-100831673D01*
X132069310Y-100735000D01*
X131603750Y-100735000D01*
X131445000Y-100893750D01*
X131191000Y-100893750D01*
X131032250Y-100735000D01*
X130566690Y-100735000D01*
X130333301Y-100831673D01*
X130154673Y-101010302D01*
X130058000Y-101243691D01*
X130058000Y-101584250D01*
X130216748Y-101742998D01*
X130058000Y-101742998D01*
X130058000Y-101788342D01*
X129204829Y-100935171D01*
X129016339Y-100809226D01*
X128794000Y-100765000D01*
X120930592Y-100765000D01*
X121621592Y-100074000D01*
X122263536Y-100074000D01*
X122263536Y-100218000D01*
X122290103Y-100359190D01*
X122373546Y-100488865D01*
X122500866Y-100575859D01*
X122652000Y-100606464D01*
X123352000Y-100606464D01*
X123493190Y-100579897D01*
X123622865Y-100496454D01*
X123709859Y-100369134D01*
X123740464Y-100218000D01*
X123740464Y-98918000D01*
X124163536Y-98918000D01*
X124163536Y-100218000D01*
X124190103Y-100359190D01*
X124273546Y-100488865D01*
X124400866Y-100575859D01*
X124552000Y-100606464D01*
X125252000Y-100606464D01*
X125393190Y-100579897D01*
X125522865Y-100496454D01*
X125609859Y-100369134D01*
X125640464Y-100218000D01*
X125640464Y-100074000D01*
X127254000Y-100074000D01*
X127447638Y-100035483D01*
X127611796Y-99925796D01*
X129136702Y-98400890D01*
X129876524Y-98400890D01*
X130046355Y-98810924D01*
X130436642Y-99239183D01*
X130961108Y-99485486D01*
X131191000Y-99364819D01*
X131191000Y-98171000D01*
X131445000Y-98171000D01*
X131445000Y-99364819D01*
X131674892Y-99485486D01*
X132199358Y-99239183D01*
X132589645Y-98810924D01*
X132759476Y-98400890D01*
X132638155Y-98171000D01*
X131445000Y-98171000D01*
X131191000Y-98171000D01*
X129997845Y-98171000D01*
X129876524Y-98400890D01*
X129136702Y-98400890D01*
X129894937Y-97642655D01*
X129876524Y-97687110D01*
X129997845Y-97917000D01*
X131191000Y-97917000D01*
X131191000Y-97897000D01*
X131445000Y-97897000D01*
X131445000Y-97917000D01*
X132638155Y-97917000D01*
X132759476Y-97687110D01*
X132589645Y-97277076D01*
X132199358Y-96848817D01*
X131774053Y-96649083D01*
X131813200Y-96641296D01*
X132212565Y-96374448D01*
X132479413Y-95975083D01*
X132573117Y-95504000D01*
X132479413Y-95032917D01*
X132212565Y-94633552D01*
X131813200Y-94366704D01*
X131342117Y-94273000D01*
X131293883Y-94273000D01*
X130822800Y-94366704D01*
X130423435Y-94633552D01*
X130156587Y-95032917D01*
X130062883Y-95504000D01*
X130152396Y-95954012D01*
X127044408Y-99062000D01*
X125640464Y-99062000D01*
X125640464Y-98918000D01*
X125613897Y-98776810D01*
X125530454Y-98647135D01*
X125403134Y-98560141D01*
X125252000Y-98529536D01*
X124552000Y-98529536D01*
X124410810Y-98556103D01*
X124281135Y-98639546D01*
X124194141Y-98766866D01*
X124163536Y-98918000D01*
X123740464Y-98918000D01*
X123713897Y-98776810D01*
X123630454Y-98647135D01*
X123508000Y-98563466D01*
X123508000Y-95428000D01*
X123469483Y-95234362D01*
X123359796Y-95070204D01*
X122084464Y-93794872D01*
X122084464Y-92822000D01*
X122057897Y-92680810D01*
X121974454Y-92551135D01*
X121847134Y-92464141D01*
X121696000Y-92433536D01*
X120996000Y-92433536D01*
X120854810Y-92460103D01*
X120725135Y-92543546D01*
X120638141Y-92670866D01*
X120607536Y-92822000D01*
X120607536Y-94122000D01*
X120634103Y-94263190D01*
X120717546Y-94392865D01*
X120844866Y-94479859D01*
X120996000Y-94510464D01*
X121368872Y-94510464D01*
X122496000Y-95637592D01*
X122496000Y-98565633D01*
X122381135Y-98639546D01*
X122294141Y-98766866D01*
X122263536Y-98918000D01*
X122263536Y-99062000D01*
X121412000Y-99062000D01*
X121218362Y-99100517D01*
X121075381Y-99196054D01*
X121054204Y-99210204D01*
X120337408Y-99927000D01*
X117462464Y-99927000D01*
X117462464Y-99858000D01*
X117435897Y-99716810D01*
X117352454Y-99587135D01*
X117225134Y-99500141D01*
X117074000Y-99469536D01*
X116133561Y-99469536D01*
X115983699Y-99319673D01*
X115750310Y-99223000D01*
X115384750Y-99223000D01*
X115226000Y-99381750D01*
X115226000Y-100306000D01*
X115246000Y-100306000D01*
X115246000Y-100560000D01*
X115226000Y-100560000D01*
X115226000Y-101484250D01*
X115384750Y-101643000D01*
X115750310Y-101643000D01*
X115983699Y-101546327D01*
X116043000Y-101487026D01*
X116043000Y-102728974D01*
X115983699Y-102669673D01*
X115750310Y-102573000D01*
X115384750Y-102573000D01*
X115226000Y-102731750D01*
X115226000Y-103656000D01*
X115246000Y-103656000D01*
X115246000Y-103910000D01*
X115226000Y-103910000D01*
X115226000Y-104834250D01*
X115384750Y-104993000D01*
X115750310Y-104993000D01*
X115983699Y-104896327D01*
X116133561Y-104746464D01*
X117074000Y-104746464D01*
X117215190Y-104719897D01*
X117344865Y-104636454D01*
X117431859Y-104509134D01*
X117462464Y-104358000D01*
X117462464Y-104289000D01*
X118181081Y-104289000D01*
X118166141Y-104310866D01*
X118135536Y-104462000D01*
X118135536Y-106485510D01*
X117973698Y-106323673D01*
X117740309Y-106227000D01*
X116649750Y-106227000D01*
X116491000Y-106385750D01*
X116491000Y-107285000D01*
X118090250Y-107285000D01*
X118205155Y-107170095D01*
X118245546Y-107232865D01*
X118372866Y-107319859D01*
X118524000Y-107350464D01*
X119624000Y-107350464D01*
X119652156Y-107345166D01*
X119664575Y-109611981D01*
X118217339Y-108164745D01*
X118249000Y-108088310D01*
X118249000Y-107697750D01*
X118090250Y-107539000D01*
X116491000Y-107539000D01*
X116491000Y-107559000D01*
X116237000Y-107559000D01*
X116237000Y-107539000D01*
X116217000Y-107539000D01*
X116217000Y-107285000D01*
X116237000Y-107285000D01*
X116237000Y-106385750D01*
X116078250Y-106227000D01*
X114987691Y-106227000D01*
X114754302Y-106323673D01*
X114575673Y-106502301D01*
X114479000Y-106735690D01*
X114479000Y-107126250D01*
X114637748Y-107284998D01*
X114567588Y-107284998D01*
X112012000Y-104729410D01*
X112012000Y-104597123D01*
X112082987Y-104526259D01*
X112186882Y-104276054D01*
X112187062Y-104068750D01*
X113939000Y-104068750D01*
X113939000Y-104484309D01*
X114035673Y-104717698D01*
X114214301Y-104896327D01*
X114447690Y-104993000D01*
X114813250Y-104993000D01*
X114972000Y-104834250D01*
X114972000Y-103910000D01*
X114097750Y-103910000D01*
X113939000Y-104068750D01*
X112187062Y-104068750D01*
X112187118Y-104005135D01*
X112083661Y-103754748D01*
X111892259Y-103563013D01*
X111642054Y-103459118D01*
X111371135Y-103458882D01*
X111120748Y-103562339D01*
X110929013Y-103753741D01*
X110825118Y-104003946D01*
X110824882Y-104274865D01*
X110928339Y-104525252D01*
X111000000Y-104597038D01*
X111000000Y-104939002D01*
X111038517Y-105132640D01*
X111148204Y-105296798D01*
X114496203Y-108644797D01*
X114660361Y-108754484D01*
X114743942Y-108771109D01*
X114725536Y-108862000D01*
X114725536Y-108906000D01*
X114695230Y-108906000D01*
X114686259Y-108897013D01*
X114436054Y-108793118D01*
X114165135Y-108792882D01*
X113914748Y-108896339D01*
X113723013Y-109087741D01*
X113619118Y-109337946D01*
X113618882Y-109608865D01*
X113722339Y-109859252D01*
X113913741Y-110050987D01*
X114163946Y-110154882D01*
X114434865Y-110155118D01*
X114685252Y-110051661D01*
X114733369Y-110003628D01*
X114752103Y-110103190D01*
X114835546Y-110232865D01*
X114962866Y-110319859D01*
X115114000Y-110350464D01*
X117614000Y-110350464D01*
X117755190Y-110323897D01*
X117884865Y-110240454D01*
X117971859Y-110113134D01*
X118002464Y-109962000D01*
X118002464Y-109381054D01*
X119890000Y-111268590D01*
X119890000Y-117870408D01*
X118002464Y-119757944D01*
X118002464Y-118862000D01*
X117975897Y-118720810D01*
X117892454Y-118591135D01*
X117765134Y-118504141D01*
X117614000Y-118473536D01*
X115756126Y-118473536D01*
X115633054Y-118350464D01*
X117614000Y-118350464D01*
X117755190Y-118323897D01*
X117884865Y-118240454D01*
X117971859Y-118113134D01*
X118002464Y-117962000D01*
X118002464Y-116862000D01*
X117975897Y-116720810D01*
X117892454Y-116591135D01*
X117765134Y-116504141D01*
X117614000Y-116473536D01*
X115114000Y-116473536D01*
X114972810Y-116500103D01*
X114843135Y-116583546D01*
X114756141Y-116710866D01*
X114725536Y-116862000D01*
X114725536Y-117442946D01*
X113282000Y-115999410D01*
X113282000Y-114862000D01*
X114725536Y-114862000D01*
X114725536Y-115962000D01*
X114752103Y-116103190D01*
X114835546Y-116232865D01*
X114962866Y-116319859D01*
X115114000Y-116350464D01*
X117614000Y-116350464D01*
X117755190Y-116323897D01*
X117884865Y-116240454D01*
X117971859Y-116113134D01*
X118002464Y-115962000D01*
X118002464Y-114862000D01*
X117975897Y-114720810D01*
X117892454Y-114591135D01*
X117765134Y-114504141D01*
X117614000Y-114473536D01*
X115114000Y-114473536D01*
X114972810Y-114500103D01*
X114843135Y-114583546D01*
X114756141Y-114710866D01*
X114725536Y-114862000D01*
X113282000Y-114862000D01*
X113282000Y-112862000D01*
X114725536Y-112862000D01*
X114725536Y-113962000D01*
X114752103Y-114103190D01*
X114835546Y-114232865D01*
X114962866Y-114319859D01*
X115114000Y-114350464D01*
X117614000Y-114350464D01*
X117755190Y-114323897D01*
X117884865Y-114240454D01*
X117971859Y-114113134D01*
X118002464Y-113962000D01*
X118002464Y-113918000D01*
X118877042Y-113918000D01*
X118989946Y-113964882D01*
X119260865Y-113965118D01*
X119511252Y-113861661D01*
X119702987Y-113670259D01*
X119806882Y-113420054D01*
X119807118Y-113149135D01*
X119703661Y-112898748D01*
X119512259Y-112707013D01*
X119262054Y-112603118D01*
X118991135Y-112602882D01*
X118740748Y-112706339D01*
X118549013Y-112897741D01*
X118545584Y-112906000D01*
X118002464Y-112906000D01*
X118002464Y-112862000D01*
X117975897Y-112720810D01*
X117892454Y-112591135D01*
X117765134Y-112504141D01*
X117614000Y-112473536D01*
X115114000Y-112473536D01*
X114972810Y-112500103D01*
X114843135Y-112583546D01*
X114756141Y-112710866D01*
X114725536Y-112862000D01*
X113282000Y-112862000D01*
X113282000Y-110862000D01*
X114725536Y-110862000D01*
X114725536Y-111962000D01*
X114752103Y-112103190D01*
X114835546Y-112232865D01*
X114962866Y-112319859D01*
X115114000Y-112350464D01*
X117614000Y-112350464D01*
X117755190Y-112323897D01*
X117884865Y-112240454D01*
X117971859Y-112113134D01*
X118002464Y-111962000D01*
X118002464Y-110862000D01*
X117975897Y-110720810D01*
X117892454Y-110591135D01*
X117765134Y-110504141D01*
X117614000Y-110473536D01*
X115114000Y-110473536D01*
X114972810Y-110500103D01*
X114843135Y-110583546D01*
X114756141Y-110710866D01*
X114725536Y-110862000D01*
X113282000Y-110862000D01*
X113282000Y-110439123D01*
X113352987Y-110368259D01*
X113456882Y-110118054D01*
X113457118Y-109847135D01*
X113353661Y-109596748D01*
X113162259Y-109405013D01*
X112912054Y-109301118D01*
X112641135Y-109300882D01*
X112390748Y-109404339D01*
X112199013Y-109595741D01*
X112121000Y-109783616D01*
X112121000Y-109503750D01*
X111962250Y-109345000D01*
X110363000Y-109345000D01*
X110363000Y-110669250D01*
X110521750Y-110828000D01*
X111612310Y-110828000D01*
X111845699Y-110731327D01*
X112024327Y-110552698D01*
X112121000Y-110319309D01*
X112121000Y-110180076D01*
X112198339Y-110367252D01*
X112270000Y-110439038D01*
X112270000Y-116209002D01*
X112308517Y-116402640D01*
X112418204Y-116566798D01*
X114725536Y-118874130D01*
X114725536Y-119962000D01*
X114752103Y-120103190D01*
X114835546Y-120232865D01*
X114962866Y-120319859D01*
X115114000Y-120350464D01*
X117409944Y-120350464D01*
X117286872Y-120473536D01*
X115114000Y-120473536D01*
X114972810Y-120500103D01*
X114843135Y-120583546D01*
X114756141Y-120710866D01*
X114725536Y-120862000D01*
X114725536Y-121962000D01*
X114752103Y-122103190D01*
X114835546Y-122232865D01*
X114962866Y-122319859D01*
X115114000Y-122350464D01*
X117614000Y-122350464D01*
X117755190Y-122323897D01*
X117884865Y-122240454D01*
X117971859Y-122113134D01*
X118002464Y-121962000D01*
X118002464Y-121189128D01*
X120753796Y-118437796D01*
X120832599Y-118319859D01*
X120863483Y-118273638D01*
X120902000Y-118080000D01*
X120902000Y-111644180D01*
X130125536Y-120867716D01*
X130125536Y-121962000D01*
X130152103Y-122103190D01*
X130235546Y-122232865D01*
X130362866Y-122319859D01*
X130514000Y-122350464D01*
X133014000Y-122350464D01*
X133155190Y-122323897D01*
X133284865Y-122240454D01*
X133371859Y-122113134D01*
X133402000Y-121964291D01*
X133402000Y-122988000D01*
X112856304Y-122988000D01*
X112923863Y-122954828D01*
X113211102Y-122614138D01*
X113346100Y-122189460D01*
X113346100Y-121914460D01*
X112338100Y-121914460D01*
X112338100Y-121934460D01*
X112084100Y-121934460D01*
X112084100Y-121914460D01*
X111076100Y-121914460D01*
X111076100Y-122189460D01*
X111211098Y-122614138D01*
X111498337Y-122954828D01*
X111565896Y-122988000D01*
X105856304Y-122988000D01*
X105923863Y-122954828D01*
X106211102Y-122614138D01*
X106346100Y-122189460D01*
X106346100Y-121914460D01*
X105338100Y-121914460D01*
X105338100Y-121934460D01*
X105084100Y-121934460D01*
X105084100Y-121914460D01*
X104076100Y-121914460D01*
X104076100Y-122189460D01*
X104211098Y-122614138D01*
X104498337Y-122954828D01*
X104565896Y-122988000D01*
X95960000Y-122988000D01*
X95960000Y-121545750D01*
X96137000Y-121545750D01*
X96137000Y-122386309D01*
X96233673Y-122619698D01*
X96412301Y-122798327D01*
X96645690Y-122895000D01*
X97236250Y-122895000D01*
X97395000Y-122736250D01*
X97395000Y-121387000D01*
X96295750Y-121387000D01*
X96137000Y-121545750D01*
X95960000Y-121545750D01*
X95960000Y-120133691D01*
X96137000Y-120133691D01*
X96137000Y-120974250D01*
X96295750Y-121133000D01*
X97395000Y-121133000D01*
X97395000Y-119783750D01*
X97236250Y-119625000D01*
X96645690Y-119625000D01*
X96412301Y-119721673D01*
X96233673Y-119900302D01*
X96137000Y-120133691D01*
X95960000Y-120133691D01*
X95960000Y-83470750D01*
X96774000Y-83470750D01*
X96774000Y-85851309D01*
X96870673Y-86084698D01*
X97049301Y-86263327D01*
X97282690Y-86360000D01*
X97885250Y-86360000D01*
X98044000Y-86201250D01*
X98044000Y-83312000D01*
X98298000Y-83312000D01*
X98298000Y-86201250D01*
X98456750Y-86360000D01*
X99059310Y-86360000D01*
X99292699Y-86263327D01*
X99471327Y-86084698D01*
X99568000Y-85851309D01*
X99568000Y-83470750D01*
X99409250Y-83312000D01*
X98298000Y-83312000D01*
X98044000Y-83312000D01*
X96932750Y-83312000D01*
X96774000Y-83470750D01*
X95960000Y-83470750D01*
X95960000Y-80645000D01*
X96774000Y-80645000D01*
X96774000Y-82899250D01*
X96774000Y-82899250D01*
G37*
X96774000Y-82899250D02*
X96932750Y-83058000D01*
X98044000Y-83058000D01*
X98044000Y-83038000D01*
X98298000Y-83038000D01*
X98298000Y-83058000D01*
X99409250Y-83058000D01*
X99568000Y-82899250D01*
X99568000Y-80645000D01*
X99814536Y-80645000D01*
X99814536Y-85725000D01*
X99841103Y-85866190D01*
X99924546Y-85995865D01*
X100051866Y-86082859D01*
X100202995Y-86113463D01*
X100157118Y-86223946D01*
X100156882Y-86494865D01*
X100260339Y-86745252D01*
X100451741Y-86936987D01*
X100701946Y-87040882D01*
X100972865Y-87041118D01*
X101223252Y-86937661D01*
X101414987Y-86746259D01*
X101518882Y-86496054D01*
X101519118Y-86225135D01*
X101472977Y-86113464D01*
X101727000Y-86113464D01*
X101868190Y-86086897D01*
X101997865Y-86003454D01*
X102084859Y-85876134D01*
X102115464Y-85725000D01*
X102115464Y-80645000D01*
X102481536Y-80645000D01*
X102481536Y-85725000D01*
X102508103Y-85866190D01*
X102591546Y-85995865D01*
X102718866Y-86082859D01*
X102870000Y-86113464D01*
X102996996Y-86113464D01*
X102951118Y-86223950D01*
X102950882Y-86494869D01*
X103054339Y-86745256D01*
X103245741Y-86936991D01*
X103495946Y-87040886D01*
X103766865Y-87041122D01*
X104017252Y-86937665D01*
X104208987Y-86746263D01*
X104312882Y-86496058D01*
X104313118Y-86225139D01*
X104266975Y-86113464D01*
X104394000Y-86113464D01*
X104535190Y-86086897D01*
X104664865Y-86003454D01*
X104751859Y-85876134D01*
X104782464Y-85725000D01*
X104782464Y-80645000D01*
X105275536Y-80645000D01*
X105275536Y-85725000D01*
X105302103Y-85866190D01*
X105385546Y-85995865D01*
X105512866Y-86082859D01*
X105664000Y-86113464D01*
X105702944Y-86113464D01*
X105604867Y-86211541D01*
X105546052Y-86187118D01*
X105275133Y-86186882D01*
X105024746Y-86290339D01*
X104833011Y-86481741D01*
X104729116Y-86731946D01*
X104728880Y-87002865D01*
X104832337Y-87253252D01*
X105023739Y-87444987D01*
X105273944Y-87548882D01*
X105544863Y-87549118D01*
X105795250Y-87445661D01*
X105986985Y-87254259D01*
X105989975Y-87247058D01*
X106021796Y-87225796D01*
X106783796Y-86463796D01*
X106893483Y-86299638D01*
X106930515Y-86113464D01*
X107188000Y-86113464D01*
X107329190Y-86086897D01*
X107458865Y-86003454D01*
X107545859Y-85876134D01*
X107576464Y-85725000D01*
X107576464Y-80645000D01*
X107942536Y-80645000D01*
X107942536Y-85725000D01*
X107969103Y-85866190D01*
X108052546Y-85995865D01*
X108179866Y-86082859D01*
X108331000Y-86113464D01*
X108714000Y-86113464D01*
X108714000Y-86410877D01*
X108643013Y-86481741D01*
X108539118Y-86731946D01*
X108538882Y-87002865D01*
X108642339Y-87253252D01*
X108833741Y-87444987D01*
X109083946Y-87548882D01*
X109354865Y-87549118D01*
X109605252Y-87445661D01*
X109796987Y-87254259D01*
X109900882Y-87004054D01*
X109901118Y-86733135D01*
X109797661Y-86482748D01*
X109726000Y-86410962D01*
X109726000Y-86113464D01*
X109855000Y-86113464D01*
X109996190Y-86086897D01*
X110125865Y-86003454D01*
X110212859Y-85876134D01*
X110243464Y-85725000D01*
X110243464Y-80645000D01*
X110736536Y-80645000D01*
X110736536Y-85725000D01*
X110763103Y-85866190D01*
X110846546Y-85995865D01*
X110973866Y-86082859D01*
X111125000Y-86113464D01*
X111508000Y-86113464D01*
X111508000Y-86410877D01*
X111437013Y-86481741D01*
X111333118Y-86731946D01*
X111332882Y-87002865D01*
X111436339Y-87253252D01*
X111627741Y-87444987D01*
X111877946Y-87548882D01*
X112148865Y-87549118D01*
X112399252Y-87445661D01*
X112590987Y-87254259D01*
X112694882Y-87004054D01*
X112695118Y-86733135D01*
X112591661Y-86482748D01*
X112520000Y-86410962D01*
X112520000Y-86113464D01*
X112649000Y-86113464D01*
X112790190Y-86086897D01*
X112919865Y-86003454D01*
X113006859Y-85876134D01*
X113037464Y-85725000D01*
X113037464Y-83470750D01*
X113284000Y-83470750D01*
X113284000Y-85851309D01*
X113380673Y-86084698D01*
X113559301Y-86263327D01*
X113792690Y-86360000D01*
X114395250Y-86360000D01*
X114554000Y-86201250D01*
X114554000Y-83312000D01*
X114808000Y-83312000D01*
X114808000Y-86201250D01*
X114966750Y-86360000D01*
X115569310Y-86360000D01*
X115802699Y-86263327D01*
X115981327Y-86084698D01*
X116078000Y-85851309D01*
X116078000Y-83470750D01*
X115919250Y-83312000D01*
X114808000Y-83312000D01*
X114554000Y-83312000D01*
X113442750Y-83312000D01*
X113284000Y-83470750D01*
X113037464Y-83470750D01*
X113037464Y-80645000D01*
X113284000Y-80645000D01*
X113284000Y-82899250D01*
X113442750Y-83058000D01*
X114554000Y-83058000D01*
X114554000Y-83038000D01*
X114808000Y-83038000D01*
X114808000Y-83058000D01*
X115919250Y-83058000D01*
X116078000Y-82899250D01*
X116078000Y-80645000D01*
X116197536Y-80645000D01*
X116197536Y-85725000D01*
X116224103Y-85866190D01*
X116307546Y-85995865D01*
X116434866Y-86082859D01*
X116586000Y-86113464D01*
X116588000Y-86113464D01*
X116588000Y-86156877D01*
X116517013Y-86227741D01*
X116413118Y-86477946D01*
X116412882Y-86748865D01*
X116516339Y-86999252D01*
X116707741Y-87190987D01*
X116957946Y-87294882D01*
X116967518Y-87294890D01*
X115751407Y-88511001D01*
X111163999Y-88511001D01*
X110970361Y-88549518D01*
X110806203Y-88659205D01*
X109139086Y-90326322D01*
X109139118Y-90289135D01*
X109035661Y-90038748D01*
X108844259Y-89847013D01*
X108594054Y-89743118D01*
X108323135Y-89742882D01*
X108072748Y-89846339D01*
X107881013Y-90037741D01*
X107777118Y-90287946D01*
X107777030Y-90389378D01*
X106496872Y-91669536D01*
X106253000Y-91669536D01*
X106111810Y-91696103D01*
X105982135Y-91779546D01*
X105917470Y-91874187D01*
X105861454Y-91787135D01*
X105789000Y-91737629D01*
X105789000Y-90043000D01*
X105750483Y-89849362D01*
X105640796Y-89685204D01*
X104567031Y-88611439D01*
X104567118Y-88511135D01*
X104463661Y-88260748D01*
X104272259Y-88069013D01*
X104022054Y-87965118D01*
X103751135Y-87964882D01*
X103500748Y-88068339D01*
X103309013Y-88259741D01*
X103205118Y-88509946D01*
X103204882Y-88780865D01*
X103297860Y-89005890D01*
X103235000Y-89068750D01*
X103235000Y-90043000D01*
X103255000Y-90043000D01*
X103255000Y-90297000D01*
X103235000Y-90297000D01*
X103235000Y-90317000D01*
X102981000Y-90317000D01*
X102981000Y-90297000D01*
X102961000Y-90297000D01*
X102961000Y-90043000D01*
X102981000Y-90043000D01*
X102981000Y-89068750D01*
X102822250Y-88910000D01*
X102481691Y-88910000D01*
X102248302Y-89006673D01*
X102069673Y-89185301D01*
X101973000Y-89418690D01*
X101973000Y-89420301D01*
X101969897Y-89403810D01*
X101886454Y-89274135D01*
X101759134Y-89187141D01*
X101608000Y-89156536D01*
X100608000Y-89156536D01*
X100466810Y-89183103D01*
X100337135Y-89266546D01*
X100250141Y-89393866D01*
X100219536Y-89545000D01*
X100219536Y-89589000D01*
X99314000Y-89589000D01*
X99091661Y-89633226D01*
X98903171Y-89759171D01*
X96363171Y-92299171D01*
X96237226Y-92487661D01*
X96193000Y-92710000D01*
X96193000Y-97014261D01*
X96115225Y-97130660D01*
X96070999Y-97352999D01*
X96070999Y-99243001D01*
X96115225Y-99465340D01*
X96193000Y-99581739D01*
X96193000Y-108084002D01*
X96237226Y-108306341D01*
X96363171Y-108494831D01*
X99785169Y-111916829D01*
X99973659Y-112042774D01*
X100195998Y-112087000D01*
X101251536Y-112087000D01*
X101251536Y-112756000D01*
X101278103Y-112897190D01*
X101361546Y-113026865D01*
X101488866Y-113113859D01*
X101640000Y-113144464D01*
X102034000Y-113144464D01*
X102034000Y-113741267D01*
X102000454Y-113689135D01*
X101873134Y-113602141D01*
X101722000Y-113571536D01*
X97922000Y-113571536D01*
X97780810Y-113598103D01*
X97651135Y-113681546D01*
X97564141Y-113808866D01*
X97533536Y-113960000D01*
X97533536Y-115960000D01*
X97560103Y-116101190D01*
X97643546Y-116230865D01*
X97770866Y-116317859D01*
X97922000Y-116348464D01*
X101722000Y-116348464D01*
X101863190Y-116321897D01*
X101992865Y-116238454D01*
X102034000Y-116178251D01*
X102034000Y-117976342D01*
X100138806Y-119871536D01*
X99072000Y-119871536D01*
X98930810Y-119898103D01*
X98834963Y-119959778D01*
X98810327Y-119900302D01*
X98631699Y-119721673D01*
X98398310Y-119625000D01*
X97807750Y-119625000D01*
X97649000Y-119783750D01*
X97649000Y-121133000D01*
X97669000Y-121133000D01*
X97669000Y-121387000D01*
X97649000Y-121387000D01*
X97649000Y-122736250D01*
X97807750Y-122895000D01*
X98398310Y-122895000D01*
X98631699Y-122798327D01*
X98810327Y-122619698D01*
X98835304Y-122559397D01*
X98920866Y-122617859D01*
X99072000Y-122648464D01*
X100572000Y-122648464D01*
X100713190Y-122621897D01*
X100842865Y-122538454D01*
X100929859Y-122411134D01*
X100960464Y-122260000D01*
X100960464Y-120693194D01*
X100983536Y-120670122D01*
X100983536Y-122260000D01*
X101010103Y-122401190D01*
X101093546Y-122530865D01*
X101220866Y-122617859D01*
X101372000Y-122648464D01*
X102872000Y-122648464D01*
X103013190Y-122621897D01*
X103142865Y-122538454D01*
X103229859Y-122411134D01*
X103260464Y-122260000D01*
X103260464Y-121385460D01*
X104076100Y-121385460D01*
X104076100Y-121660460D01*
X105084100Y-121660460D01*
X105084100Y-120544506D01*
X105338100Y-120544506D01*
X105338100Y-121660460D01*
X106346100Y-121660460D01*
X106346100Y-121385460D01*
X111076100Y-121385460D01*
X111076100Y-121660460D01*
X112084100Y-121660460D01*
X112084100Y-120544506D01*
X112338100Y-120544506D01*
X112338100Y-121660460D01*
X113346100Y-121660460D01*
X113346100Y-121385460D01*
X113211102Y-120960782D01*
X112923863Y-120620092D01*
X112512974Y-120418341D01*
X112338100Y-120544506D01*
X112084100Y-120544506D01*
X111909226Y-120418341D01*
X111498337Y-120620092D01*
X111211098Y-120960782D01*
X111076100Y-121385460D01*
X106346100Y-121385460D01*
X106211102Y-120960782D01*
X105923863Y-120620092D01*
X105512974Y-120418341D01*
X105338100Y-120544506D01*
X105084100Y-120544506D01*
X104909226Y-120418341D01*
X104498337Y-120620092D01*
X104211098Y-120960782D01*
X104076100Y-121385460D01*
X103260464Y-121385460D01*
X103260464Y-120260000D01*
X103233897Y-120118810D01*
X103150454Y-119989135D01*
X103023134Y-119902141D01*
X102921997Y-119881661D01*
X103418260Y-119385398D01*
X104991832Y-119385398D01*
X105175548Y-119759281D01*
X105500051Y-120047028D01*
X105909969Y-120188689D01*
X106084100Y-120040023D01*
X106084100Y-119214460D01*
X105118366Y-119214460D01*
X104991832Y-119385398D01*
X103418260Y-119385398D01*
X104014136Y-118789522D01*
X104991832Y-118789522D01*
X105118366Y-118960460D01*
X106084100Y-118960460D01*
X106084100Y-118134897D01*
X105909969Y-117986231D01*
X105500051Y-118127892D01*
X105175548Y-118415639D01*
X104991832Y-118789522D01*
X104014136Y-118789522D01*
X107701536Y-115102122D01*
X107701536Y-115107806D01*
X107000271Y-115809071D01*
X106874326Y-115997561D01*
X106830100Y-116219900D01*
X106830100Y-118096081D01*
X106512231Y-117986231D01*
X106338100Y-118134897D01*
X106338100Y-118960460D01*
X106358100Y-118960460D01*
X106358100Y-119214460D01*
X106338100Y-119214460D01*
X106338100Y-120040023D01*
X106512231Y-120188689D01*
X106922149Y-120047028D01*
X106935445Y-120035238D01*
X107059966Y-120120319D01*
X107211100Y-120150924D01*
X107611100Y-120150924D01*
X107740688Y-120126540D01*
X107861100Y-120150924D01*
X108261100Y-120150924D01*
X108390688Y-120126540D01*
X108511100Y-120150924D01*
X108911100Y-120150924D01*
X109040688Y-120126540D01*
X109161100Y-120150924D01*
X109301539Y-120150924D01*
X109451401Y-120300787D01*
X109684790Y-120397460D01*
X109752350Y-120397460D01*
X109911100Y-120238710D01*
X109911100Y-119925096D01*
X109918959Y-119913594D01*
X109949564Y-119762460D01*
X109949564Y-119385398D01*
X109991832Y-119385398D01*
X110111100Y-119628122D01*
X110111100Y-120238710D01*
X110269850Y-120397460D01*
X110337410Y-120397460D01*
X110570799Y-120300787D01*
X110741215Y-120130370D01*
X110909969Y-120188689D01*
X111084100Y-120040023D01*
X111084100Y-119214460D01*
X111338100Y-119214460D01*
X111338100Y-120040023D01*
X111512231Y-120188689D01*
X111922149Y-120047028D01*
X112246652Y-119759281D01*
X112430368Y-119385398D01*
X112303834Y-119214460D01*
X111338100Y-119214460D01*
X111084100Y-119214460D01*
X110111100Y-119214460D01*
X110111100Y-119224276D01*
X109991832Y-119385398D01*
X109949564Y-119385398D01*
X109949564Y-118789522D01*
X109991832Y-118789522D01*
X110111100Y-118950644D01*
X110111100Y-118960460D01*
X111084100Y-118960460D01*
X111084100Y-118134897D01*
X111338100Y-118134897D01*
X111338100Y-118960460D01*
X112303834Y-118960460D01*
X112430368Y-118789522D01*
X112246652Y-118415639D01*
X111922149Y-118127892D01*
X111512231Y-117986231D01*
X111338100Y-118134897D01*
X111084100Y-118134897D01*
X110909969Y-117986231D01*
X110741215Y-118044550D01*
X110570799Y-117874133D01*
X110337410Y-117777460D01*
X110269850Y-117777460D01*
X110111100Y-117936210D01*
X110111100Y-118546798D01*
X109991832Y-118789522D01*
X109949564Y-118789522D01*
X109949564Y-118412460D01*
X109922997Y-118271270D01*
X109911100Y-118252781D01*
X109911100Y-117936210D01*
X109752350Y-117777460D01*
X109684790Y-117777460D01*
X109451401Y-117874133D01*
X109301539Y-118023996D01*
X109161100Y-118023996D01*
X109031512Y-118048380D01*
X108911100Y-118023996D01*
X108511100Y-118023996D01*
X108381512Y-118048380D01*
X108261100Y-118023996D01*
X107992100Y-118023996D01*
X107992100Y-116460558D01*
X108523194Y-115929464D01*
X108690000Y-115929464D01*
X108831190Y-115902897D01*
X108960865Y-115819454D01*
X109047859Y-115692134D01*
X109078464Y-115541000D01*
X109078464Y-115091000D01*
X109051897Y-114949810D01*
X108968454Y-114820135D01*
X108841134Y-114733141D01*
X108690000Y-114702536D01*
X108101122Y-114702536D01*
X109172194Y-113631464D01*
X109909000Y-113631464D01*
X109909000Y-114827379D01*
X109832141Y-114939866D01*
X109801536Y-115091000D01*
X109801536Y-115541000D01*
X109828103Y-115682190D01*
X109911546Y-115811865D01*
X110038866Y-115898859D01*
X110190000Y-115929464D01*
X110790000Y-115929464D01*
X110931190Y-115902897D01*
X111060865Y-115819454D01*
X111147859Y-115692134D01*
X111178464Y-115541000D01*
X111178464Y-115091000D01*
X111151897Y-114949810D01*
X111071000Y-114824092D01*
X111071000Y-113631464D01*
X111486000Y-113631464D01*
X111627190Y-113604897D01*
X111756865Y-113521454D01*
X111843859Y-113394134D01*
X111874464Y-113243000D01*
X111874464Y-111293000D01*
X111847897Y-111151810D01*
X111764454Y-111022135D01*
X111637134Y-110935141D01*
X111486000Y-110904536D01*
X108986000Y-110904536D01*
X108844810Y-110931103D01*
X108715135Y-111014546D01*
X108628141Y-111141866D01*
X108620621Y-111179000D01*
X108326595Y-111179000D01*
X108086054Y-111079118D01*
X107815135Y-111078882D01*
X107564748Y-111182339D01*
X107373013Y-111373741D01*
X107269118Y-111623946D01*
X107268977Y-111785727D01*
X107116250Y-111633000D01*
X105792000Y-111633000D01*
X105792000Y-113232250D01*
X105950750Y-113391000D01*
X106766309Y-113391000D01*
X106999698Y-113294327D01*
X107178327Y-113115699D01*
X107275000Y-112882310D01*
X107275000Y-111909672D01*
X107372339Y-112145252D01*
X107563741Y-112336987D01*
X107813946Y-112440882D01*
X108084865Y-112441118D01*
X108327171Y-112341000D01*
X108597536Y-112341000D01*
X108597536Y-112562806D01*
X103196000Y-117964342D01*
X103196000Y-113144464D01*
X103590000Y-113144464D01*
X103731190Y-113117897D01*
X103860865Y-113034454D01*
X103947859Y-112907134D01*
X103978464Y-112756000D01*
X103978464Y-111791750D01*
X104055000Y-111791750D01*
X104055000Y-112882310D01*
X104151673Y-113115699D01*
X104330302Y-113294327D01*
X104563691Y-113391000D01*
X105379250Y-113391000D01*
X105538000Y-113232250D01*
X105538000Y-111633000D01*
X104213750Y-111633000D01*
X104055000Y-111791750D01*
X103978464Y-111791750D01*
X103978464Y-110689194D01*
X104055000Y-110612658D01*
X104055000Y-111220250D01*
X104213750Y-111379000D01*
X105538000Y-111379000D01*
X105538000Y-109779750D01*
X105792000Y-109779750D01*
X105792000Y-111379000D01*
X107116250Y-111379000D01*
X107275000Y-111220250D01*
X107275000Y-110129690D01*
X107178327Y-109896301D01*
X106999698Y-109717673D01*
X106766309Y-109621000D01*
X105950750Y-109621000D01*
X105792000Y-109779750D01*
X105538000Y-109779750D01*
X105379250Y-109621000D01*
X105046658Y-109621000D01*
X105163908Y-109503750D01*
X108351000Y-109503750D01*
X108351000Y-110319309D01*
X108447673Y-110552698D01*
X108626301Y-110731327D01*
X108859690Y-110828000D01*
X109950250Y-110828000D01*
X110109000Y-110669250D01*
X110109000Y-109345000D01*
X108509750Y-109345000D01*
X108351000Y-109503750D01*
X105163908Y-109503750D01*
X106550967Y-108116691D01*
X108351000Y-108116691D01*
X108351000Y-108932250D01*
X108509750Y-109091000D01*
X110109000Y-109091000D01*
X110109000Y-107766750D01*
X110363000Y-107766750D01*
X110363000Y-109091000D01*
X111962250Y-109091000D01*
X112121000Y-108932250D01*
X112121000Y-108116691D01*
X112024327Y-107883302D01*
X111845699Y-107704673D01*
X111612310Y-107608000D01*
X110521750Y-107608000D01*
X110363000Y-107766750D01*
X110109000Y-107766750D01*
X109950250Y-107608000D01*
X108859690Y-107608000D01*
X108626301Y-107704673D01*
X108447673Y-107883302D01*
X108351000Y-108116691D01*
X106550967Y-108116691D01*
X108422658Y-106245000D01*
X109859405Y-106245000D01*
X110099946Y-106344882D01*
X110370865Y-106345118D01*
X110621252Y-106241661D01*
X110812987Y-106050259D01*
X110916882Y-105800054D01*
X110917118Y-105529135D01*
X110813661Y-105278748D01*
X110622259Y-105087013D01*
X110372054Y-104983118D01*
X110101135Y-104982882D01*
X109858829Y-105083000D01*
X108182000Y-105083000D01*
X107959661Y-105127226D01*
X107771171Y-105253171D01*
X103156806Y-109867536D01*
X101640000Y-109867536D01*
X101498810Y-109894103D01*
X101369135Y-109977546D01*
X101282141Y-110104866D01*
X101251536Y-110256000D01*
X101251536Y-110925000D01*
X100436656Y-110925000D01*
X99208120Y-109696464D01*
X100418000Y-109696464D01*
X100559190Y-109669897D01*
X100688865Y-109586454D01*
X100775859Y-109459134D01*
X100806464Y-109308000D01*
X100806464Y-107608000D01*
X100779897Y-107466810D01*
X100696454Y-107337135D01*
X100569134Y-107250141D01*
X100418000Y-107219536D01*
X100222895Y-107219536D01*
X100449358Y-107113183D01*
X100839645Y-106684924D01*
X101009476Y-106274890D01*
X100888155Y-106045000D01*
X99695000Y-106045000D01*
X99695000Y-106065000D01*
X99441000Y-106065000D01*
X99441000Y-106045000D01*
X98247845Y-106045000D01*
X98126524Y-106274890D01*
X98296355Y-106684924D01*
X98686642Y-107113183D01*
X98913105Y-107219536D01*
X98718000Y-107219536D01*
X98576810Y-107246103D01*
X98447135Y-107329546D01*
X98360141Y-107456866D01*
X98329536Y-107608000D01*
X98329536Y-108817880D01*
X97355000Y-107843344D01*
X97355000Y-105561110D01*
X98126524Y-105561110D01*
X98247845Y-105791000D01*
X99441000Y-105791000D01*
X99441000Y-104597181D01*
X99695000Y-104597181D01*
X99695000Y-105791000D01*
X100888155Y-105791000D01*
X101009476Y-105561110D01*
X100839645Y-105151076D01*
X100449358Y-104722817D01*
X99924892Y-104476514D01*
X99695000Y-104597181D01*
X99441000Y-104597181D01*
X99211108Y-104476514D01*
X98686642Y-104722817D01*
X98296355Y-105151076D01*
X98126524Y-105561110D01*
X97355000Y-105561110D01*
X97355000Y-103081691D01*
X113939000Y-103081691D01*
X113939000Y-103497250D01*
X114097750Y-103656000D01*
X114972000Y-103656000D01*
X114972000Y-102731750D01*
X114813250Y-102573000D01*
X114447690Y-102573000D01*
X114214301Y-102669673D01*
X114035673Y-102848302D01*
X113939000Y-103081691D01*
X97355000Y-103081691D01*
X97355000Y-99469250D01*
X97425000Y-99399250D01*
X97425000Y-98425000D01*
X97405000Y-98425000D01*
X97405000Y-98171000D01*
X97425000Y-98171000D01*
X97425000Y-97196750D01*
X97355000Y-97126750D01*
X97355000Y-92950658D01*
X99554658Y-90751000D01*
X100219536Y-90751000D01*
X100219536Y-90795000D01*
X100246103Y-90936190D01*
X100329546Y-91065865D01*
X100456866Y-91152859D01*
X100527000Y-91167061D01*
X100527000Y-92793000D01*
X100571226Y-93015339D01*
X100697171Y-93203829D01*
X100784536Y-93291194D01*
X100784536Y-94258000D01*
X100811103Y-94399190D01*
X100894546Y-94528865D01*
X101021866Y-94615859D01*
X101173000Y-94646464D01*
X101773000Y-94646464D01*
X101908030Y-94621056D01*
X102083302Y-94796327D01*
X102316691Y-94893000D01*
X102457250Y-94893000D01*
X102616000Y-94734250D01*
X102616000Y-93285000D01*
X102596000Y-93285000D01*
X102596000Y-93031000D01*
X102616000Y-93031000D01*
X102616000Y-93011000D01*
X102870000Y-93011000D01*
X102870000Y-93031000D01*
X102890000Y-93031000D01*
X102890000Y-93285000D01*
X102870000Y-93285000D01*
X102870000Y-94734250D01*
X103028750Y-94893000D01*
X103169309Y-94893000D01*
X103402698Y-94796327D01*
X103579580Y-94619446D01*
X103713000Y-94646464D01*
X104313000Y-94646464D01*
X104454190Y-94619897D01*
X104583865Y-94536454D01*
X104648530Y-94441813D01*
X104704546Y-94528865D01*
X104831866Y-94615859D01*
X104983000Y-94646464D01*
X105583000Y-94646464D01*
X105666000Y-94630846D01*
X105666000Y-95300877D01*
X105595013Y-95371741D01*
X105491118Y-95621946D01*
X105490882Y-95892865D01*
X105594339Y-96143252D01*
X105785741Y-96334987D01*
X106035946Y-96438882D01*
X106306865Y-96439118D01*
X106557252Y-96335661D01*
X106748987Y-96144259D01*
X106811975Y-95992567D01*
X107688944Y-96869536D01*
X107523000Y-96869536D01*
X107381810Y-96896103D01*
X107252135Y-96979546D01*
X107187470Y-97074187D01*
X107131454Y-96987135D01*
X107004134Y-96900141D01*
X106853000Y-96869536D01*
X106253000Y-96869536D01*
X106111810Y-96896103D01*
X105982135Y-96979546D01*
X105917470Y-97074187D01*
X105861454Y-96987135D01*
X105734134Y-96900141D01*
X105583000Y-96869536D01*
X104983000Y-96869536D01*
X104841810Y-96896103D01*
X104712135Y-96979546D01*
X104647470Y-97074187D01*
X104591454Y-96987135D01*
X104464134Y-96900141D01*
X104313000Y-96869536D01*
X103713000Y-96869536D01*
X103571810Y-96896103D01*
X103442135Y-96979546D01*
X103377470Y-97074187D01*
X103321454Y-96987135D01*
X103194134Y-96900141D01*
X103043000Y-96869536D01*
X102770128Y-96869536D01*
X102475795Y-96575203D01*
X102311637Y-96465516D01*
X102117999Y-96426999D01*
X100792001Y-96426999D01*
X100598363Y-96465516D01*
X100434205Y-96575203D01*
X99724872Y-97284536D01*
X99052000Y-97284536D01*
X98910810Y-97311103D01*
X98781135Y-97394546D01*
X98694141Y-97521866D01*
X98687000Y-97557130D01*
X98687000Y-97546690D01*
X98590327Y-97313301D01*
X98411698Y-97134673D01*
X98178309Y-97038000D01*
X97837750Y-97038000D01*
X97679000Y-97196750D01*
X97679000Y-98171000D01*
X97699000Y-98171000D01*
X97699000Y-98425000D01*
X97679000Y-98425000D01*
X97679000Y-99399250D01*
X97837750Y-99558000D01*
X98178309Y-99558000D01*
X98411698Y-99461327D01*
X98590327Y-99282699D01*
X98687000Y-99049310D01*
X98687000Y-99047699D01*
X98690103Y-99064190D01*
X98773546Y-99193865D01*
X98900866Y-99280859D01*
X99052000Y-99311464D01*
X100052000Y-99311464D01*
X100193190Y-99284897D01*
X100322865Y-99201454D01*
X100409859Y-99074134D01*
X100440464Y-98923000D01*
X100440464Y-98000128D01*
X100784536Y-97656056D01*
X100784536Y-99458000D01*
X100811103Y-99599190D01*
X100894546Y-99728865D01*
X101021866Y-99815859D01*
X101173000Y-99846464D01*
X101237000Y-99846464D01*
X101237000Y-100333665D01*
X101101810Y-100359103D01*
X100972135Y-100442546D01*
X100885141Y-100569866D01*
X100854536Y-100721000D01*
X100854536Y-101971000D01*
X100881103Y-102112190D01*
X100964546Y-102241865D01*
X101091866Y-102328859D01*
X101243000Y-102359464D01*
X102243000Y-102359464D01*
X102384190Y-102332897D01*
X102513865Y-102249454D01*
X102600859Y-102122134D01*
X102631464Y-101971000D01*
X102631464Y-100721000D01*
X102604897Y-100579810D01*
X102521454Y-100450135D01*
X102394134Y-100363141D01*
X102249000Y-100333751D01*
X102249000Y-99786570D01*
X102291866Y-99815859D01*
X102443000Y-99846464D01*
X103043000Y-99846464D01*
X103184190Y-99819897D01*
X103237000Y-99785915D01*
X103237000Y-100224570D01*
X103071362Y-100257517D01*
X102907204Y-100367204D01*
X102797517Y-100531362D01*
X102759000Y-100725000D01*
X102797517Y-100918638D01*
X102854536Y-101003973D01*
X102854536Y-101971000D01*
X102881103Y-102112190D01*
X102964546Y-102241865D01*
X103091866Y-102328859D01*
X103243000Y-102359464D01*
X104243000Y-102359464D01*
X104384190Y-102332897D01*
X104513865Y-102249454D01*
X104600859Y-102122134D01*
X104631464Y-101971000D01*
X104631464Y-101673077D01*
X104646000Y-101600000D01*
X104646000Y-101475000D01*
X104631464Y-101401923D01*
X104631464Y-100721000D01*
X104604897Y-100579810D01*
X104521454Y-100450135D01*
X104394134Y-100363141D01*
X104249000Y-100333751D01*
X104249000Y-99846464D01*
X104313000Y-99846464D01*
X104454190Y-99819897D01*
X104583865Y-99736454D01*
X104648530Y-99641813D01*
X104704546Y-99728865D01*
X104777000Y-99778371D01*
X104777000Y-100758500D01*
X104815517Y-100952138D01*
X104925204Y-101116296D01*
X104982036Y-101173128D01*
X104982036Y-101971000D01*
X105008603Y-102112190D01*
X105092046Y-102241865D01*
X105219366Y-102328859D01*
X105370500Y-102359464D01*
X106370500Y-102359464D01*
X106511690Y-102332897D01*
X106641365Y-102249454D01*
X106728359Y-102122134D01*
X106758964Y-101971000D01*
X106758964Y-100909819D01*
X106801862Y-100938483D01*
X106889904Y-100955996D01*
X106982036Y-101048128D01*
X106982036Y-101971000D01*
X107008603Y-102112190D01*
X107092046Y-102241865D01*
X107219366Y-102328859D01*
X107370500Y-102359464D01*
X108370500Y-102359464D01*
X108511690Y-102332897D01*
X108641365Y-102249454D01*
X108728359Y-102122134D01*
X108758964Y-101971000D01*
X108758964Y-100809556D01*
X109093536Y-101144128D01*
X109093536Y-101971000D01*
X109120103Y-102112190D01*
X109203546Y-102241865D01*
X109330866Y-102328859D01*
X109482000Y-102359464D01*
X110482000Y-102359464D01*
X110623190Y-102332897D01*
X110752865Y-102249454D01*
X110839859Y-102122134D01*
X110847000Y-102086870D01*
X110847000Y-102097310D01*
X110943673Y-102330699D01*
X111122302Y-102509327D01*
X111355691Y-102606000D01*
X111696250Y-102606000D01*
X111855000Y-102447250D01*
X111855000Y-101473000D01*
X112109000Y-101473000D01*
X112109000Y-102447250D01*
X112267750Y-102606000D01*
X112608309Y-102606000D01*
X112841698Y-102509327D01*
X113020327Y-102330699D01*
X113117000Y-102097310D01*
X113117000Y-101631750D01*
X112958250Y-101473000D01*
X112109000Y-101473000D01*
X111855000Y-101473000D01*
X111835000Y-101473000D01*
X111835000Y-101219000D01*
X111855000Y-101219000D01*
X111855000Y-100244750D01*
X112109000Y-100244750D01*
X112109000Y-101219000D01*
X112958250Y-101219000D01*
X113117000Y-101060250D01*
X113117000Y-100718750D01*
X113939000Y-100718750D01*
X113939000Y-101134309D01*
X114035673Y-101367698D01*
X114214301Y-101546327D01*
X114447690Y-101643000D01*
X114813250Y-101643000D01*
X114972000Y-101484250D01*
X114972000Y-100560000D01*
X114097750Y-100560000D01*
X113939000Y-100718750D01*
X113117000Y-100718750D01*
X113117000Y-100594690D01*
X113020327Y-100361301D01*
X112841698Y-100182673D01*
X112608309Y-100086000D01*
X112267750Y-100086000D01*
X112109000Y-100244750D01*
X111855000Y-100244750D01*
X111696250Y-100086000D01*
X111355691Y-100086000D01*
X111122302Y-100182673D01*
X110943673Y-100361301D01*
X110847000Y-100594690D01*
X110847000Y-100596301D01*
X110843897Y-100579810D01*
X110760454Y-100450135D01*
X110633134Y-100363141D01*
X110482000Y-100332536D01*
X109713128Y-100332536D01*
X109227056Y-99846464D01*
X109393000Y-99846464D01*
X109534190Y-99819897D01*
X109663865Y-99736454D01*
X109728530Y-99641813D01*
X109784546Y-99728865D01*
X109911866Y-99815859D01*
X110063000Y-99846464D01*
X110663000Y-99846464D01*
X110804190Y-99819897D01*
X110933865Y-99736454D01*
X110937119Y-99731691D01*
X113939000Y-99731691D01*
X113939000Y-100147250D01*
X114097750Y-100306000D01*
X114972000Y-100306000D01*
X114972000Y-99381750D01*
X114813250Y-99223000D01*
X114447690Y-99223000D01*
X114214301Y-99319673D01*
X114035673Y-99498302D01*
X113939000Y-99731691D01*
X110937119Y-99731691D01*
X111020859Y-99609134D01*
X111051464Y-99458000D01*
X111051464Y-98864000D01*
X111153997Y-98864000D01*
X111347635Y-98825483D01*
X111511793Y-98715796D01*
X111756558Y-98471031D01*
X111856862Y-98471118D01*
X112107249Y-98367661D01*
X112298984Y-98176259D01*
X112402879Y-97926054D01*
X112403115Y-97655135D01*
X112299658Y-97404748D01*
X112108256Y-97213013D01*
X111858051Y-97109118D01*
X111587132Y-97108882D01*
X111336745Y-97212339D01*
X111145010Y-97403741D01*
X111051464Y-97629023D01*
X111051464Y-97258000D01*
X111024897Y-97116810D01*
X110941454Y-96987135D01*
X110814134Y-96900141D01*
X110663000Y-96869536D01*
X110063000Y-96869536D01*
X109921810Y-96896103D01*
X109792135Y-96979546D01*
X109727470Y-97074187D01*
X109671454Y-96987135D01*
X109544134Y-96900141D01*
X109393000Y-96869536D01*
X109120128Y-96869536D01*
X108153394Y-95902802D01*
X108335252Y-95827661D01*
X108526987Y-95636259D01*
X108630882Y-95386054D01*
X108631118Y-95115135D01*
X108527661Y-94864748D01*
X108456000Y-94792962D01*
X108456000Y-94445516D01*
X108458530Y-94441813D01*
X108514546Y-94528865D01*
X108641866Y-94615859D01*
X108793000Y-94646464D01*
X109393000Y-94646464D01*
X109534190Y-94619897D01*
X109663865Y-94536454D01*
X109728530Y-94441813D01*
X109784546Y-94528865D01*
X109911866Y-94615859D01*
X110063000Y-94646464D01*
X110663000Y-94646464D01*
X110804190Y-94619897D01*
X110933865Y-94536454D01*
X111020859Y-94409134D01*
X111051464Y-94258000D01*
X111051464Y-94012056D01*
X112016000Y-94976592D01*
X112016000Y-95808877D01*
X111945013Y-95879741D01*
X111841118Y-96129946D01*
X111840882Y-96400865D01*
X111944339Y-96651252D01*
X112135741Y-96842987D01*
X112385946Y-96946882D01*
X112656865Y-96947118D01*
X112907252Y-96843661D01*
X113098987Y-96652259D01*
X113202882Y-96402054D01*
X113203118Y-96131135D01*
X113099661Y-95880748D01*
X113028000Y-95808962D01*
X113028000Y-94767000D01*
X112989483Y-94573362D01*
X112879796Y-94409204D01*
X111270796Y-92800204D01*
X111106638Y-92690517D01*
X111051464Y-92679542D01*
X111051464Y-92058000D01*
X111024897Y-91916810D01*
X110968393Y-91828999D01*
X111841103Y-91828999D01*
X111840882Y-92082865D01*
X111944339Y-92333252D01*
X112135741Y-92524987D01*
X112385946Y-92628882D01*
X112487378Y-92628970D01*
X113618969Y-93760561D01*
X113618882Y-93860865D01*
X113722339Y-94111252D01*
X113913741Y-94302987D01*
X114163946Y-94406882D01*
X114434865Y-94407118D01*
X114685252Y-94303661D01*
X114876987Y-94112259D01*
X114980882Y-93862054D01*
X114981118Y-93591135D01*
X114877661Y-93340748D01*
X114686259Y-93149013D01*
X114436054Y-93045118D01*
X114334622Y-93045030D01*
X113203031Y-91913439D01*
X113203104Y-91828999D01*
X113439407Y-91828999D01*
X118488204Y-96877796D01*
X118652362Y-96987483D01*
X118707536Y-96998458D01*
X118707536Y-97170000D01*
X118734103Y-97311190D01*
X118817546Y-97440865D01*
X118944866Y-97527859D01*
X119096000Y-97558464D01*
X119128000Y-97558464D01*
X119128000Y-98602877D01*
X119057013Y-98673741D01*
X118953118Y-98923946D01*
X118952882Y-99194865D01*
X119056339Y-99445252D01*
X119247741Y-99636987D01*
X119497946Y-99740882D01*
X119768865Y-99741118D01*
X120019252Y-99637661D01*
X120210987Y-99446259D01*
X120314882Y-99196054D01*
X120315118Y-98925135D01*
X120211661Y-98674748D01*
X120140000Y-98602962D01*
X120140000Y-97341417D01*
X120153859Y-97321134D01*
X120184464Y-97170000D01*
X120184464Y-96805750D01*
X120361000Y-96805750D01*
X120361000Y-97296310D01*
X120457673Y-97529699D01*
X120636302Y-97708327D01*
X120869691Y-97805000D01*
X121060250Y-97805000D01*
X121219000Y-97646250D01*
X121219000Y-96647000D01*
X121473000Y-96647000D01*
X121473000Y-97646250D01*
X121631750Y-97805000D01*
X121822309Y-97805000D01*
X122055698Y-97708327D01*
X122234327Y-97529699D01*
X122331000Y-97296310D01*
X122331000Y-96805750D01*
X122172250Y-96647000D01*
X121473000Y-96647000D01*
X121219000Y-96647000D01*
X120519750Y-96647000D01*
X120361000Y-96805750D01*
X120184464Y-96805750D01*
X120184464Y-95870000D01*
X120160697Y-95743690D01*
X120361000Y-95743690D01*
X120361000Y-96234250D01*
X120519750Y-96393000D01*
X121219000Y-96393000D01*
X121219000Y-95393750D01*
X121473000Y-95393750D01*
X121473000Y-96393000D01*
X122172250Y-96393000D01*
X122331000Y-96234250D01*
X122331000Y-95743690D01*
X122234327Y-95510301D01*
X122055698Y-95331673D01*
X121822309Y-95235000D01*
X121631750Y-95235000D01*
X121473000Y-95393750D01*
X121219000Y-95393750D01*
X121060250Y-95235000D01*
X120869691Y-95235000D01*
X120636302Y-95331673D01*
X120457673Y-95510301D01*
X120361000Y-95743690D01*
X120160697Y-95743690D01*
X120157897Y-95728810D01*
X120074454Y-95599135D01*
X119947134Y-95512141D01*
X119796000Y-95481536D01*
X119349537Y-95481536D01*
X119448987Y-95382259D01*
X119552882Y-95132054D01*
X119553118Y-94861135D01*
X119453000Y-94618829D01*
X119453000Y-94510464D01*
X119796000Y-94510464D01*
X119937190Y-94483897D01*
X120066865Y-94400454D01*
X120153859Y-94273134D01*
X120184464Y-94122000D01*
X120184464Y-92822000D01*
X120157897Y-92680810D01*
X120074454Y-92551135D01*
X120027000Y-92518711D01*
X120027000Y-91886106D01*
X120066865Y-91860454D01*
X120153859Y-91733134D01*
X120184464Y-91582000D01*
X120184464Y-90282000D01*
X120157897Y-90140810D01*
X120074454Y-90011135D01*
X120027000Y-89978711D01*
X120027000Y-89092106D01*
X120066865Y-89066454D01*
X120153859Y-88939134D01*
X120184464Y-88788000D01*
X120184464Y-87668999D01*
X120607536Y-87668999D01*
X120607536Y-88788000D01*
X120634103Y-88929190D01*
X120717546Y-89058865D01*
X120844866Y-89145859D01*
X120996000Y-89176464D01*
X121696000Y-89176464D01*
X121837190Y-89149897D01*
X121966865Y-89066454D01*
X122053859Y-88939134D01*
X122084464Y-88788000D01*
X122084464Y-88644000D01*
X122472408Y-88644000D01*
X122809297Y-88980889D01*
X122801135Y-88980882D01*
X122550748Y-89084339D01*
X122359013Y-89275741D01*
X122255118Y-89525946D01*
X122254882Y-89796865D01*
X122358339Y-90047252D01*
X122549741Y-90238987D01*
X122689485Y-90297014D01*
X122550748Y-90354339D01*
X122478962Y-90426000D01*
X122084464Y-90426000D01*
X122084464Y-90282000D01*
X122057897Y-90140810D01*
X121974454Y-90011135D01*
X121847134Y-89924141D01*
X121696000Y-89893536D01*
X120996000Y-89893536D01*
X120854810Y-89920103D01*
X120725135Y-90003546D01*
X120638141Y-90130866D01*
X120607536Y-90282000D01*
X120607536Y-91582000D01*
X120634103Y-91723190D01*
X120717546Y-91852865D01*
X120844866Y-91939859D01*
X120996000Y-91970464D01*
X121696000Y-91970464D01*
X121837190Y-91943897D01*
X121966865Y-91860454D01*
X122053859Y-91733134D01*
X122084464Y-91582000D01*
X122084464Y-91438000D01*
X122478877Y-91438000D01*
X122549741Y-91508987D01*
X122799946Y-91612882D01*
X123070865Y-91613118D01*
X123321252Y-91509661D01*
X123393038Y-91438000D01*
X129076408Y-91438000D01*
X130152396Y-92513988D01*
X130062883Y-92964000D01*
X130156587Y-93435083D01*
X130423435Y-93834448D01*
X130822800Y-94101296D01*
X131293883Y-94195000D01*
X131342117Y-94195000D01*
X131813200Y-94101296D01*
X132212565Y-93834448D01*
X132479413Y-93435083D01*
X132534674Y-93157264D01*
X132833001Y-93455591D01*
X132833001Y-106473536D01*
X131899000Y-106473536D01*
X131899000Y-104758464D01*
X131943000Y-104758464D01*
X132084190Y-104731897D01*
X132213865Y-104648454D01*
X132300859Y-104521134D01*
X132331464Y-104370000D01*
X132331464Y-103370000D01*
X132304897Y-103228810D01*
X132221454Y-103099135D01*
X132094134Y-103012141D01*
X132058870Y-103005000D01*
X132069310Y-103005000D01*
X132302699Y-102908327D01*
X132481327Y-102729698D01*
X132578000Y-102496309D01*
X132578000Y-102155750D01*
X132419250Y-101997000D01*
X131445000Y-101997000D01*
X131445000Y-102017000D01*
X131191000Y-102017000D01*
X131191000Y-101997000D01*
X131171000Y-101997000D01*
X131171000Y-101743000D01*
X131191000Y-101743000D01*
X131191000Y-100893750D01*
X131445000Y-100893750D01*
X131445000Y-101743000D01*
X132419250Y-101743000D01*
X132578000Y-101584250D01*
X132578000Y-101243691D01*
X132481327Y-101010302D01*
X132302699Y-100831673D01*
X132069310Y-100735000D01*
X131603750Y-100735000D01*
X131445000Y-100893750D01*
X131191000Y-100893750D01*
X131032250Y-100735000D01*
X130566690Y-100735000D01*
X130333301Y-100831673D01*
X130154673Y-101010302D01*
X130058000Y-101243691D01*
X130058000Y-101584250D01*
X130216748Y-101742998D01*
X130058000Y-101742998D01*
X130058000Y-101788342D01*
X129204829Y-100935171D01*
X129016339Y-100809226D01*
X128794000Y-100765000D01*
X120930592Y-100765000D01*
X121621592Y-100074000D01*
X122263536Y-100074000D01*
X122263536Y-100218000D01*
X122290103Y-100359190D01*
X122373546Y-100488865D01*
X122500866Y-100575859D01*
X122652000Y-100606464D01*
X123352000Y-100606464D01*
X123493190Y-100579897D01*
X123622865Y-100496454D01*
X123709859Y-100369134D01*
X123740464Y-100218000D01*
X123740464Y-98918000D01*
X124163536Y-98918000D01*
X124163536Y-100218000D01*
X124190103Y-100359190D01*
X124273546Y-100488865D01*
X124400866Y-100575859D01*
X124552000Y-100606464D01*
X125252000Y-100606464D01*
X125393190Y-100579897D01*
X125522865Y-100496454D01*
X125609859Y-100369134D01*
X125640464Y-100218000D01*
X125640464Y-100074000D01*
X127254000Y-100074000D01*
X127447638Y-100035483D01*
X127611796Y-99925796D01*
X129136702Y-98400890D01*
X129876524Y-98400890D01*
X130046355Y-98810924D01*
X130436642Y-99239183D01*
X130961108Y-99485486D01*
X131191000Y-99364819D01*
X131191000Y-98171000D01*
X131445000Y-98171000D01*
X131445000Y-99364819D01*
X131674892Y-99485486D01*
X132199358Y-99239183D01*
X132589645Y-98810924D01*
X132759476Y-98400890D01*
X132638155Y-98171000D01*
X131445000Y-98171000D01*
X131191000Y-98171000D01*
X129997845Y-98171000D01*
X129876524Y-98400890D01*
X129136702Y-98400890D01*
X129894937Y-97642655D01*
X129876524Y-97687110D01*
X129997845Y-97917000D01*
X131191000Y-97917000D01*
X131191000Y-97897000D01*
X131445000Y-97897000D01*
X131445000Y-97917000D01*
X132638155Y-97917000D01*
X132759476Y-97687110D01*
X132589645Y-97277076D01*
X132199358Y-96848817D01*
X131774053Y-96649083D01*
X131813200Y-96641296D01*
X132212565Y-96374448D01*
X132479413Y-95975083D01*
X132573117Y-95504000D01*
X132479413Y-95032917D01*
X132212565Y-94633552D01*
X131813200Y-94366704D01*
X131342117Y-94273000D01*
X131293883Y-94273000D01*
X130822800Y-94366704D01*
X130423435Y-94633552D01*
X130156587Y-95032917D01*
X130062883Y-95504000D01*
X130152396Y-95954012D01*
X127044408Y-99062000D01*
X125640464Y-99062000D01*
X125640464Y-98918000D01*
X125613897Y-98776810D01*
X125530454Y-98647135D01*
X125403134Y-98560141D01*
X125252000Y-98529536D01*
X124552000Y-98529536D01*
X124410810Y-98556103D01*
X124281135Y-98639546D01*
X124194141Y-98766866D01*
X124163536Y-98918000D01*
X123740464Y-98918000D01*
X123713897Y-98776810D01*
X123630454Y-98647135D01*
X123508000Y-98563466D01*
X123508000Y-95428000D01*
X123469483Y-95234362D01*
X123359796Y-95070204D01*
X122084464Y-93794872D01*
X122084464Y-92822000D01*
X122057897Y-92680810D01*
X121974454Y-92551135D01*
X121847134Y-92464141D01*
X121696000Y-92433536D01*
X120996000Y-92433536D01*
X120854810Y-92460103D01*
X120725135Y-92543546D01*
X120638141Y-92670866D01*
X120607536Y-92822000D01*
X120607536Y-94122000D01*
X120634103Y-94263190D01*
X120717546Y-94392865D01*
X120844866Y-94479859D01*
X120996000Y-94510464D01*
X121368872Y-94510464D01*
X122496000Y-95637592D01*
X122496000Y-98565633D01*
X122381135Y-98639546D01*
X122294141Y-98766866D01*
X122263536Y-98918000D01*
X122263536Y-99062000D01*
X121412000Y-99062000D01*
X121218362Y-99100517D01*
X121075381Y-99196054D01*
X121054204Y-99210204D01*
X120337408Y-99927000D01*
X117462464Y-99927000D01*
X117462464Y-99858000D01*
X117435897Y-99716810D01*
X117352454Y-99587135D01*
X117225134Y-99500141D01*
X117074000Y-99469536D01*
X116133561Y-99469536D01*
X115983699Y-99319673D01*
X115750310Y-99223000D01*
X115384750Y-99223000D01*
X115226000Y-99381750D01*
X115226000Y-100306000D01*
X115246000Y-100306000D01*
X115246000Y-100560000D01*
X115226000Y-100560000D01*
X115226000Y-101484250D01*
X115384750Y-101643000D01*
X115750310Y-101643000D01*
X115983699Y-101546327D01*
X116043000Y-101487026D01*
X116043000Y-102728974D01*
X115983699Y-102669673D01*
X115750310Y-102573000D01*
X115384750Y-102573000D01*
X115226000Y-102731750D01*
X115226000Y-103656000D01*
X115246000Y-103656000D01*
X115246000Y-103910000D01*
X115226000Y-103910000D01*
X115226000Y-104834250D01*
X115384750Y-104993000D01*
X115750310Y-104993000D01*
X115983699Y-104896327D01*
X116133561Y-104746464D01*
X117074000Y-104746464D01*
X117215190Y-104719897D01*
X117344865Y-104636454D01*
X117431859Y-104509134D01*
X117462464Y-104358000D01*
X117462464Y-104289000D01*
X118181081Y-104289000D01*
X118166141Y-104310866D01*
X118135536Y-104462000D01*
X118135536Y-106485510D01*
X117973698Y-106323673D01*
X117740309Y-106227000D01*
X116649750Y-106227000D01*
X116491000Y-106385750D01*
X116491000Y-107285000D01*
X118090250Y-107285000D01*
X118205155Y-107170095D01*
X118245546Y-107232865D01*
X118372866Y-107319859D01*
X118524000Y-107350464D01*
X119624000Y-107350464D01*
X119652156Y-107345166D01*
X119664575Y-109611981D01*
X118217339Y-108164745D01*
X118249000Y-108088310D01*
X118249000Y-107697750D01*
X118090250Y-107539000D01*
X116491000Y-107539000D01*
X116491000Y-107559000D01*
X116237000Y-107559000D01*
X116237000Y-107539000D01*
X116217000Y-107539000D01*
X116217000Y-107285000D01*
X116237000Y-107285000D01*
X116237000Y-106385750D01*
X116078250Y-106227000D01*
X114987691Y-106227000D01*
X114754302Y-106323673D01*
X114575673Y-106502301D01*
X114479000Y-106735690D01*
X114479000Y-107126250D01*
X114637748Y-107284998D01*
X114567588Y-107284998D01*
X112012000Y-104729410D01*
X112012000Y-104597123D01*
X112082987Y-104526259D01*
X112186882Y-104276054D01*
X112187062Y-104068750D01*
X113939000Y-104068750D01*
X113939000Y-104484309D01*
X114035673Y-104717698D01*
X114214301Y-104896327D01*
X114447690Y-104993000D01*
X114813250Y-104993000D01*
X114972000Y-104834250D01*
X114972000Y-103910000D01*
X114097750Y-103910000D01*
X113939000Y-104068750D01*
X112187062Y-104068750D01*
X112187118Y-104005135D01*
X112083661Y-103754748D01*
X111892259Y-103563013D01*
X111642054Y-103459118D01*
X111371135Y-103458882D01*
X111120748Y-103562339D01*
X110929013Y-103753741D01*
X110825118Y-104003946D01*
X110824882Y-104274865D01*
X110928339Y-104525252D01*
X111000000Y-104597038D01*
X111000000Y-104939002D01*
X111038517Y-105132640D01*
X111148204Y-105296798D01*
X114496203Y-108644797D01*
X114660361Y-108754484D01*
X114743942Y-108771109D01*
X114725536Y-108862000D01*
X114725536Y-108906000D01*
X114695230Y-108906000D01*
X114686259Y-108897013D01*
X114436054Y-108793118D01*
X114165135Y-108792882D01*
X113914748Y-108896339D01*
X113723013Y-109087741D01*
X113619118Y-109337946D01*
X113618882Y-109608865D01*
X113722339Y-109859252D01*
X113913741Y-110050987D01*
X114163946Y-110154882D01*
X114434865Y-110155118D01*
X114685252Y-110051661D01*
X114733369Y-110003628D01*
X114752103Y-110103190D01*
X114835546Y-110232865D01*
X114962866Y-110319859D01*
X115114000Y-110350464D01*
X117614000Y-110350464D01*
X117755190Y-110323897D01*
X117884865Y-110240454D01*
X117971859Y-110113134D01*
X118002464Y-109962000D01*
X118002464Y-109381054D01*
X119890000Y-111268590D01*
X119890000Y-117870408D01*
X118002464Y-119757944D01*
X118002464Y-118862000D01*
X117975897Y-118720810D01*
X117892454Y-118591135D01*
X117765134Y-118504141D01*
X117614000Y-118473536D01*
X115756126Y-118473536D01*
X115633054Y-118350464D01*
X117614000Y-118350464D01*
X117755190Y-118323897D01*
X117884865Y-118240454D01*
X117971859Y-118113134D01*
X118002464Y-117962000D01*
X118002464Y-116862000D01*
X117975897Y-116720810D01*
X117892454Y-116591135D01*
X117765134Y-116504141D01*
X117614000Y-116473536D01*
X115114000Y-116473536D01*
X114972810Y-116500103D01*
X114843135Y-116583546D01*
X114756141Y-116710866D01*
X114725536Y-116862000D01*
X114725536Y-117442946D01*
X113282000Y-115999410D01*
X113282000Y-114862000D01*
X114725536Y-114862000D01*
X114725536Y-115962000D01*
X114752103Y-116103190D01*
X114835546Y-116232865D01*
X114962866Y-116319859D01*
X115114000Y-116350464D01*
X117614000Y-116350464D01*
X117755190Y-116323897D01*
X117884865Y-116240454D01*
X117971859Y-116113134D01*
X118002464Y-115962000D01*
X118002464Y-114862000D01*
X117975897Y-114720810D01*
X117892454Y-114591135D01*
X117765134Y-114504141D01*
X117614000Y-114473536D01*
X115114000Y-114473536D01*
X114972810Y-114500103D01*
X114843135Y-114583546D01*
X114756141Y-114710866D01*
X114725536Y-114862000D01*
X113282000Y-114862000D01*
X113282000Y-112862000D01*
X114725536Y-112862000D01*
X114725536Y-113962000D01*
X114752103Y-114103190D01*
X114835546Y-114232865D01*
X114962866Y-114319859D01*
X115114000Y-114350464D01*
X117614000Y-114350464D01*
X117755190Y-114323897D01*
X117884865Y-114240454D01*
X117971859Y-114113134D01*
X118002464Y-113962000D01*
X118002464Y-113918000D01*
X118877042Y-113918000D01*
X118989946Y-113964882D01*
X119260865Y-113965118D01*
X119511252Y-113861661D01*
X119702987Y-113670259D01*
X119806882Y-113420054D01*
X119807118Y-113149135D01*
X119703661Y-112898748D01*
X119512259Y-112707013D01*
X119262054Y-112603118D01*
X118991135Y-112602882D01*
X118740748Y-112706339D01*
X118549013Y-112897741D01*
X118545584Y-112906000D01*
X118002464Y-112906000D01*
X118002464Y-112862000D01*
X117975897Y-112720810D01*
X117892454Y-112591135D01*
X117765134Y-112504141D01*
X117614000Y-112473536D01*
X115114000Y-112473536D01*
X114972810Y-112500103D01*
X114843135Y-112583546D01*
X114756141Y-112710866D01*
X114725536Y-112862000D01*
X113282000Y-112862000D01*
X113282000Y-110862000D01*
X114725536Y-110862000D01*
X114725536Y-111962000D01*
X114752103Y-112103190D01*
X114835546Y-112232865D01*
X114962866Y-112319859D01*
X115114000Y-112350464D01*
X117614000Y-112350464D01*
X117755190Y-112323897D01*
X117884865Y-112240454D01*
X117971859Y-112113134D01*
X118002464Y-111962000D01*
X118002464Y-110862000D01*
X117975897Y-110720810D01*
X117892454Y-110591135D01*
X117765134Y-110504141D01*
X117614000Y-110473536D01*
X115114000Y-110473536D01*
X114972810Y-110500103D01*
X114843135Y-110583546D01*
X114756141Y-110710866D01*
X114725536Y-110862000D01*
X113282000Y-110862000D01*
X113282000Y-110439123D01*
X113352987Y-110368259D01*
X113456882Y-110118054D01*
X113457118Y-109847135D01*
X113353661Y-109596748D01*
X113162259Y-109405013D01*
X112912054Y-109301118D01*
X112641135Y-109300882D01*
X112390748Y-109404339D01*
X112199013Y-109595741D01*
X112121000Y-109783616D01*
X112121000Y-109503750D01*
X111962250Y-109345000D01*
X110363000Y-109345000D01*
X110363000Y-110669250D01*
X110521750Y-110828000D01*
X111612310Y-110828000D01*
X111845699Y-110731327D01*
X112024327Y-110552698D01*
X112121000Y-110319309D01*
X112121000Y-110180076D01*
X112198339Y-110367252D01*
X112270000Y-110439038D01*
X112270000Y-116209002D01*
X112308517Y-116402640D01*
X112418204Y-116566798D01*
X114725536Y-118874130D01*
X114725536Y-119962000D01*
X114752103Y-120103190D01*
X114835546Y-120232865D01*
X114962866Y-120319859D01*
X115114000Y-120350464D01*
X117409944Y-120350464D01*
X117286872Y-120473536D01*
X115114000Y-120473536D01*
X114972810Y-120500103D01*
X114843135Y-120583546D01*
X114756141Y-120710866D01*
X114725536Y-120862000D01*
X114725536Y-121962000D01*
X114752103Y-122103190D01*
X114835546Y-122232865D01*
X114962866Y-122319859D01*
X115114000Y-122350464D01*
X117614000Y-122350464D01*
X117755190Y-122323897D01*
X117884865Y-122240454D01*
X117971859Y-122113134D01*
X118002464Y-121962000D01*
X118002464Y-121189128D01*
X120753796Y-118437796D01*
X120832599Y-118319859D01*
X120863483Y-118273638D01*
X120902000Y-118080000D01*
X120902000Y-111644180D01*
X130125536Y-120867716D01*
X130125536Y-121962000D01*
X130152103Y-122103190D01*
X130235546Y-122232865D01*
X130362866Y-122319859D01*
X130514000Y-122350464D01*
X133014000Y-122350464D01*
X133155190Y-122323897D01*
X133284865Y-122240454D01*
X133371859Y-122113134D01*
X133402000Y-121964291D01*
X133402000Y-122988000D01*
X112856304Y-122988000D01*
X112923863Y-122954828D01*
X113211102Y-122614138D01*
X113346100Y-122189460D01*
X113346100Y-121914460D01*
X112338100Y-121914460D01*
X112338100Y-121934460D01*
X112084100Y-121934460D01*
X112084100Y-121914460D01*
X111076100Y-121914460D01*
X111076100Y-122189460D01*
X111211098Y-122614138D01*
X111498337Y-122954828D01*
X111565896Y-122988000D01*
X105856304Y-122988000D01*
X105923863Y-122954828D01*
X106211102Y-122614138D01*
X106346100Y-122189460D01*
X106346100Y-121914460D01*
X105338100Y-121914460D01*
X105338100Y-121934460D01*
X105084100Y-121934460D01*
X105084100Y-121914460D01*
X104076100Y-121914460D01*
X104076100Y-122189460D01*
X104211098Y-122614138D01*
X104498337Y-122954828D01*
X104565896Y-122988000D01*
X95960000Y-122988000D01*
X95960000Y-121545750D01*
X96137000Y-121545750D01*
X96137000Y-122386309D01*
X96233673Y-122619698D01*
X96412301Y-122798327D01*
X96645690Y-122895000D01*
X97236250Y-122895000D01*
X97395000Y-122736250D01*
X97395000Y-121387000D01*
X96295750Y-121387000D01*
X96137000Y-121545750D01*
X95960000Y-121545750D01*
X95960000Y-120133691D01*
X96137000Y-120133691D01*
X96137000Y-120974250D01*
X96295750Y-121133000D01*
X97395000Y-121133000D01*
X97395000Y-119783750D01*
X97236250Y-119625000D01*
X96645690Y-119625000D01*
X96412301Y-119721673D01*
X96233673Y-119900302D01*
X96137000Y-120133691D01*
X95960000Y-120133691D01*
X95960000Y-83470750D01*
X96774000Y-83470750D01*
X96774000Y-85851309D01*
X96870673Y-86084698D01*
X97049301Y-86263327D01*
X97282690Y-86360000D01*
X97885250Y-86360000D01*
X98044000Y-86201250D01*
X98044000Y-83312000D01*
X98298000Y-83312000D01*
X98298000Y-86201250D01*
X98456750Y-86360000D01*
X99059310Y-86360000D01*
X99292699Y-86263327D01*
X99471327Y-86084698D01*
X99568000Y-85851309D01*
X99568000Y-83470750D01*
X99409250Y-83312000D01*
X98298000Y-83312000D01*
X98044000Y-83312000D01*
X96932750Y-83312000D01*
X96774000Y-83470750D01*
X95960000Y-83470750D01*
X95960000Y-80645000D01*
X96774000Y-80645000D01*
X96774000Y-82899250D01*
G36*
X118041013Y-100959741D02*
X117937118Y-101209946D01*
X117936882Y-101480865D01*
X118040339Y-101731252D01*
X118231741Y-101922987D01*
X118481946Y-102026882D01*
X118752865Y-102027118D01*
X118995171Y-101927000D01*
X128553342Y-101927000D01*
X130304536Y-103678194D01*
X130304536Y-104370000D01*
X130331103Y-104511190D01*
X130414546Y-104640865D01*
X130541866Y-104727859D01*
X130693000Y-104758464D01*
X130737000Y-104758464D01*
X130737000Y-106473536D01*
X130514000Y-106473536D01*
X130372810Y-106500103D01*
X130243135Y-106583546D01*
X130156141Y-106710866D01*
X130125536Y-106862000D01*
X130125536Y-107962000D01*
X130152103Y-108103190D01*
X130235546Y-108232865D01*
X130362866Y-108319859D01*
X130514000Y-108350464D01*
X132494946Y-108350464D01*
X132371874Y-108473536D01*
X130514000Y-108473536D01*
X130372810Y-108500103D01*
X130243135Y-108583546D01*
X130156141Y-108710866D01*
X130125536Y-108862000D01*
X130125536Y-109962000D01*
X130152103Y-110103190D01*
X130235546Y-110232865D01*
X130362866Y-110319859D01*
X130514000Y-110350464D01*
X133014000Y-110350464D01*
X133155190Y-110323897D01*
X133284865Y-110240454D01*
X133371859Y-110113134D01*
X133402000Y-109964291D01*
X133402000Y-110859534D01*
X133375897Y-110720810D01*
X133292454Y-110591135D01*
X133165134Y-110504141D01*
X133014000Y-110473536D01*
X130514000Y-110473536D01*
X130372810Y-110500103D01*
X130243135Y-110583546D01*
X130156141Y-110710866D01*
X130125536Y-110862000D01*
X130125536Y-111962000D01*
X130152103Y-112103190D01*
X130235546Y-112232865D01*
X130362866Y-112319859D01*
X130514000Y-112350464D01*
X133014000Y-112350464D01*
X133155190Y-112323897D01*
X133284865Y-112240454D01*
X133371859Y-112113134D01*
X133402000Y-111964291D01*
X133402000Y-112859534D01*
X133375897Y-112720810D01*
X133292454Y-112591135D01*
X133165134Y-112504141D01*
X133014000Y-112473536D01*
X130514000Y-112473536D01*
X130372810Y-112500103D01*
X130243135Y-112583546D01*
X130156141Y-112710866D01*
X130125536Y-112862000D01*
X130125536Y-113962000D01*
X130152103Y-114103190D01*
X130235546Y-114232865D01*
X130362866Y-114319859D01*
X130514000Y-114350464D01*
X133014000Y-114350464D01*
X133155190Y-114323897D01*
X133284865Y-114240454D01*
X133371859Y-114113134D01*
X133402000Y-113964291D01*
X133402000Y-114859534D01*
X133375897Y-114720810D01*
X133292454Y-114591135D01*
X133165134Y-114504141D01*
X133014000Y-114473536D01*
X130514000Y-114473536D01*
X130372810Y-114500103D01*
X130243135Y-114583546D01*
X130156141Y-114710866D01*
X130125536Y-114862000D01*
X130125536Y-115757944D01*
X124704999Y-110337407D01*
X124704999Y-107350464D01*
X125624000Y-107350464D01*
X125765190Y-107323897D01*
X125894865Y-107240454D01*
X125981859Y-107113134D01*
X126012464Y-106962000D01*
X126012464Y-104462000D01*
X126135536Y-104462000D01*
X126135536Y-106962000D01*
X126162103Y-107103190D01*
X126245546Y-107232865D01*
X126372866Y-107319859D01*
X126524000Y-107350464D01*
X127624000Y-107350464D01*
X127765190Y-107323897D01*
X127894865Y-107240454D01*
X127981859Y-107113134D01*
X128012464Y-106962000D01*
X128012464Y-104462000D01*
X128135536Y-104462000D01*
X128135536Y-106962000D01*
X128162103Y-107103190D01*
X128245546Y-107232865D01*
X128372866Y-107319859D01*
X128524000Y-107350464D01*
X129624000Y-107350464D01*
X129765190Y-107323897D01*
X129894865Y-107240454D01*
X129981859Y-107113134D01*
X130012464Y-106962000D01*
X130012464Y-104462000D01*
X129985897Y-104320810D01*
X129902454Y-104191135D01*
X129775134Y-104104141D01*
X129624000Y-104073536D01*
X128524000Y-104073536D01*
X128382810Y-104100103D01*
X128253135Y-104183546D01*
X128166141Y-104310866D01*
X128135536Y-104462000D01*
X128012464Y-104462000D01*
X127985897Y-104320810D01*
X127902454Y-104191135D01*
X127775134Y-104104141D01*
X127624000Y-104073536D01*
X126524000Y-104073536D01*
X126382810Y-104100103D01*
X126253135Y-104183546D01*
X126166141Y-104310866D01*
X126135536Y-104462000D01*
X126012464Y-104462000D01*
X125985897Y-104320810D01*
X125902454Y-104191135D01*
X125775134Y-104104141D01*
X125624000Y-104073536D01*
X124704999Y-104073536D01*
X124704999Y-103842112D01*
X124782987Y-103764259D01*
X124886882Y-103514054D01*
X124887118Y-103243135D01*
X124783661Y-102992748D01*
X124592259Y-102801013D01*
X124342054Y-102697118D01*
X124071135Y-102696882D01*
X123820748Y-102800339D01*
X123629013Y-102991741D01*
X123525118Y-103241946D01*
X123524882Y-103512865D01*
X123628339Y-103763252D01*
X123692999Y-103828024D01*
X123692999Y-104087508D01*
X123624000Y-104073536D01*
X122524000Y-104073536D01*
X122382810Y-104100103D01*
X122253135Y-104183546D01*
X122166141Y-104310866D01*
X122135536Y-104462000D01*
X122135536Y-106962000D01*
X122162103Y-107103190D01*
X122245546Y-107232865D01*
X122372866Y-107319859D01*
X122524000Y-107350464D01*
X123624000Y-107350464D01*
X123692999Y-107337481D01*
X123692999Y-110546999D01*
X123731516Y-110740637D01*
X123841203Y-110904795D01*
X130125536Y-117189128D01*
X130125536Y-117962000D01*
X130152103Y-118103190D01*
X130235546Y-118232865D01*
X130362866Y-118319859D01*
X130514000Y-118350464D01*
X133014000Y-118350464D01*
X133155190Y-118323897D01*
X133284865Y-118240454D01*
X133371859Y-118113134D01*
X133402000Y-117964291D01*
X133402000Y-118859534D01*
X133375897Y-118720810D01*
X133292454Y-118591135D01*
X133165134Y-118504141D01*
X133014000Y-118473536D01*
X130514000Y-118473536D01*
X130372810Y-118500103D01*
X130243135Y-118583546D01*
X130156141Y-118710866D01*
X130125536Y-118862000D01*
X130125536Y-119436532D01*
X120671853Y-109982849D01*
X120678435Y-109948784D01*
X120664199Y-107350464D01*
X121624000Y-107350464D01*
X121765190Y-107323897D01*
X121894865Y-107240454D01*
X121981859Y-107113134D01*
X122012464Y-106962000D01*
X122012464Y-104462000D01*
X121985897Y-104320810D01*
X121902454Y-104191135D01*
X121775134Y-104104141D01*
X121624000Y-104073536D01*
X120524074Y-104073536D01*
X120499796Y-104037202D01*
X119887798Y-103425204D01*
X119723640Y-103315517D01*
X119530002Y-103277000D01*
X117462464Y-103277000D01*
X117462464Y-103208000D01*
X117435897Y-103066810D01*
X117352454Y-102937135D01*
X117225134Y-102850141D01*
X117074000Y-102819536D01*
X117055000Y-102819536D01*
X117055000Y-101396464D01*
X117074000Y-101396464D01*
X117215190Y-101369897D01*
X117344865Y-101286454D01*
X117431859Y-101159134D01*
X117462464Y-101008000D01*
X117462464Y-100939000D01*
X118061790Y-100939000D01*
X118041013Y-100959741D01*
X118041013Y-100959741D01*
G37*
X118041013Y-100959741D02*
X117937118Y-101209946D01*
X117936882Y-101480865D01*
X118040339Y-101731252D01*
X118231741Y-101922987D01*
X118481946Y-102026882D01*
X118752865Y-102027118D01*
X118995171Y-101927000D01*
X128553342Y-101927000D01*
X130304536Y-103678194D01*
X130304536Y-104370000D01*
X130331103Y-104511190D01*
X130414546Y-104640865D01*
X130541866Y-104727859D01*
X130693000Y-104758464D01*
X130737000Y-104758464D01*
X130737000Y-106473536D01*
X130514000Y-106473536D01*
X130372810Y-106500103D01*
X130243135Y-106583546D01*
X130156141Y-106710866D01*
X130125536Y-106862000D01*
X130125536Y-107962000D01*
X130152103Y-108103190D01*
X130235546Y-108232865D01*
X130362866Y-108319859D01*
X130514000Y-108350464D01*
X132494946Y-108350464D01*
X132371874Y-108473536D01*
X130514000Y-108473536D01*
X130372810Y-108500103D01*
X130243135Y-108583546D01*
X130156141Y-108710866D01*
X130125536Y-108862000D01*
X130125536Y-109962000D01*
X130152103Y-110103190D01*
X130235546Y-110232865D01*
X130362866Y-110319859D01*
X130514000Y-110350464D01*
X133014000Y-110350464D01*
X133155190Y-110323897D01*
X133284865Y-110240454D01*
X133371859Y-110113134D01*
X133402000Y-109964291D01*
X133402000Y-110859534D01*
X133375897Y-110720810D01*
X133292454Y-110591135D01*
X133165134Y-110504141D01*
X133014000Y-110473536D01*
X130514000Y-110473536D01*
X130372810Y-110500103D01*
X130243135Y-110583546D01*
X130156141Y-110710866D01*
X130125536Y-110862000D01*
X130125536Y-111962000D01*
X130152103Y-112103190D01*
X130235546Y-112232865D01*
X130362866Y-112319859D01*
X130514000Y-112350464D01*
X133014000Y-112350464D01*
X133155190Y-112323897D01*
X133284865Y-112240454D01*
X133371859Y-112113134D01*
X133402000Y-111964291D01*
X133402000Y-112859534D01*
X133375897Y-112720810D01*
X133292454Y-112591135D01*
X133165134Y-112504141D01*
X133014000Y-112473536D01*
X130514000Y-112473536D01*
X130372810Y-112500103D01*
X130243135Y-112583546D01*
X130156141Y-112710866D01*
X130125536Y-112862000D01*
X130125536Y-113962000D01*
X130152103Y-114103190D01*
X130235546Y-114232865D01*
X130362866Y-114319859D01*
X130514000Y-114350464D01*
X133014000Y-114350464D01*
X133155190Y-114323897D01*
X133284865Y-114240454D01*
X133371859Y-114113134D01*
X133402000Y-113964291D01*
X133402000Y-114859534D01*
X133375897Y-114720810D01*
X133292454Y-114591135D01*
X133165134Y-114504141D01*
X133014000Y-114473536D01*
X130514000Y-114473536D01*
X130372810Y-114500103D01*
X130243135Y-114583546D01*
X130156141Y-114710866D01*
X130125536Y-114862000D01*
X130125536Y-115757944D01*
X124704999Y-110337407D01*
X124704999Y-107350464D01*
X125624000Y-107350464D01*
X125765190Y-107323897D01*
X125894865Y-107240454D01*
X125981859Y-107113134D01*
X126012464Y-106962000D01*
X126012464Y-104462000D01*
X126135536Y-104462000D01*
X126135536Y-106962000D01*
X126162103Y-107103190D01*
X126245546Y-107232865D01*
X126372866Y-107319859D01*
X126524000Y-107350464D01*
X127624000Y-107350464D01*
X127765190Y-107323897D01*
X127894865Y-107240454D01*
X127981859Y-107113134D01*
X128012464Y-106962000D01*
X128012464Y-104462000D01*
X128135536Y-104462000D01*
X128135536Y-106962000D01*
X128162103Y-107103190D01*
X128245546Y-107232865D01*
X128372866Y-107319859D01*
X128524000Y-107350464D01*
X129624000Y-107350464D01*
X129765190Y-107323897D01*
X129894865Y-107240454D01*
X129981859Y-107113134D01*
X130012464Y-106962000D01*
X130012464Y-104462000D01*
X129985897Y-104320810D01*
X129902454Y-104191135D01*
X129775134Y-104104141D01*
X129624000Y-104073536D01*
X128524000Y-104073536D01*
X128382810Y-104100103D01*
X128253135Y-104183546D01*
X128166141Y-104310866D01*
X128135536Y-104462000D01*
X128012464Y-104462000D01*
X127985897Y-104320810D01*
X127902454Y-104191135D01*
X127775134Y-104104141D01*
X127624000Y-104073536D01*
X126524000Y-104073536D01*
X126382810Y-104100103D01*
X126253135Y-104183546D01*
X126166141Y-104310866D01*
X126135536Y-104462000D01*
X126012464Y-104462000D01*
X125985897Y-104320810D01*
X125902454Y-104191135D01*
X125775134Y-104104141D01*
X125624000Y-104073536D01*
X124704999Y-104073536D01*
X124704999Y-103842112D01*
X124782987Y-103764259D01*
X124886882Y-103514054D01*
X124887118Y-103243135D01*
X124783661Y-102992748D01*
X124592259Y-102801013D01*
X124342054Y-102697118D01*
X124071135Y-102696882D01*
X123820748Y-102800339D01*
X123629013Y-102991741D01*
X123525118Y-103241946D01*
X123524882Y-103512865D01*
X123628339Y-103763252D01*
X123692999Y-103828024D01*
X123692999Y-104087508D01*
X123624000Y-104073536D01*
X122524000Y-104073536D01*
X122382810Y-104100103D01*
X122253135Y-104183546D01*
X122166141Y-104310866D01*
X122135536Y-104462000D01*
X122135536Y-106962000D01*
X122162103Y-107103190D01*
X122245546Y-107232865D01*
X122372866Y-107319859D01*
X122524000Y-107350464D01*
X123624000Y-107350464D01*
X123692999Y-107337481D01*
X123692999Y-110546999D01*
X123731516Y-110740637D01*
X123841203Y-110904795D01*
X130125536Y-117189128D01*
X130125536Y-117962000D01*
X130152103Y-118103190D01*
X130235546Y-118232865D01*
X130362866Y-118319859D01*
X130514000Y-118350464D01*
X133014000Y-118350464D01*
X133155190Y-118323897D01*
X133284865Y-118240454D01*
X133371859Y-118113134D01*
X133402000Y-117964291D01*
X133402000Y-118859534D01*
X133375897Y-118720810D01*
X133292454Y-118591135D01*
X133165134Y-118504141D01*
X133014000Y-118473536D01*
X130514000Y-118473536D01*
X130372810Y-118500103D01*
X130243135Y-118583546D01*
X130156141Y-118710866D01*
X130125536Y-118862000D01*
X130125536Y-119436532D01*
X120671853Y-109982849D01*
X120678435Y-109948784D01*
X120664199Y-107350464D01*
X121624000Y-107350464D01*
X121765190Y-107323897D01*
X121894865Y-107240454D01*
X121981859Y-107113134D01*
X122012464Y-106962000D01*
X122012464Y-104462000D01*
X121985897Y-104320810D01*
X121902454Y-104191135D01*
X121775134Y-104104141D01*
X121624000Y-104073536D01*
X120524074Y-104073536D01*
X120499796Y-104037202D01*
X119887798Y-103425204D01*
X119723640Y-103315517D01*
X119530002Y-103277000D01*
X117462464Y-103277000D01*
X117462464Y-103208000D01*
X117435897Y-103066810D01*
X117352454Y-102937135D01*
X117225134Y-102850141D01*
X117074000Y-102819536D01*
X117055000Y-102819536D01*
X117055000Y-101396464D01*
X117074000Y-101396464D01*
X117215190Y-101369897D01*
X117344865Y-101286454D01*
X117431859Y-101159134D01*
X117462464Y-101008000D01*
X117462464Y-100939000D01*
X118061790Y-100939000D01*
X118041013Y-100959741D01*
G36*
X130152396Y-89973988D02*
X130074019Y-90368017D01*
X129830196Y-90124194D01*
X129666038Y-90014507D01*
X129472400Y-89975990D01*
X124346940Y-89975990D01*
X124528987Y-89794259D01*
X124632882Y-89544054D01*
X124633118Y-89273135D01*
X124529661Y-89022748D01*
X124338259Y-88831013D01*
X124088054Y-88727118D01*
X123986622Y-88727030D01*
X123039796Y-87780204D01*
X122875638Y-87670517D01*
X122868007Y-87668999D01*
X127847407Y-87668999D01*
X130152396Y-89973988D01*
X130152396Y-89973988D01*
G37*
X130152396Y-89973988D02*
X130074019Y-90368017D01*
X129830196Y-90124194D01*
X129666038Y-90014507D01*
X129472400Y-89975990D01*
X124346940Y-89975990D01*
X124528987Y-89794259D01*
X124632882Y-89544054D01*
X124633118Y-89273135D01*
X124529661Y-89022748D01*
X124338259Y-88831013D01*
X124088054Y-88727118D01*
X123986622Y-88727030D01*
X123039796Y-87780204D01*
X122875638Y-87670517D01*
X122868007Y-87668999D01*
X127847407Y-87668999D01*
X130152396Y-89973988D01*
M02*
