G04 #@! TF.FileFunction,Copper,L2,Bot,Signal*
%FSLAX46Y46*%
G04 Gerber Fmt 4.6, Leading zero omitted, Abs format (unit mm)*
G04 Created by KiCad (PCBNEW 4.0.7) date Wednesday, 04 July 2018 'PMt' 21:27:38*
%MOMM*%
%LPD*%
G01*
G04 APERTURE LIST*
%ADD10C,0.100000*%
%ADD11C,0.600000*%
%ADD12R,1.524000X5.080000*%
%ADD13R,1.700000X1.700000*%
%ADD14O,1.700000X1.700000*%
%ADD15C,1.450000*%
%ADD16O,1.200000X1.900000*%
%ADD17C,0.250000*%
G04 APERTURE END LIST*
D10*
D11*
X140970000Y-125730000D03*
X143510000Y-125730000D03*
X142240000Y-124460000D03*
X160020000Y-130810000D03*
X162052000Y-117094000D03*
X163830000Y-119888000D03*
X162052000Y-119888000D03*
X164338000Y-128270000D03*
X162052000Y-123698000D03*
X160020000Y-128270000D03*
X160020000Y-125730000D03*
X148590000Y-86360000D03*
X146050000Y-86360000D03*
X167640000Y-109220000D03*
X165100000Y-109220000D03*
X165100000Y-106680000D03*
X161290000Y-106680000D03*
X160020000Y-102870000D03*
X158750000Y-101600000D03*
X158750000Y-104140000D03*
X160020000Y-100330000D03*
X161290000Y-101600000D03*
X160020000Y-97790000D03*
X161290000Y-99060000D03*
X161290000Y-96520000D03*
X161290000Y-93980000D03*
X161290000Y-91440000D03*
X160020000Y-90170000D03*
X160020000Y-87630000D03*
X158750000Y-88900000D03*
X157480000Y-90170000D03*
X154940000Y-90170000D03*
X156210000Y-88900000D03*
X157480000Y-87630000D03*
X168910000Y-81280000D03*
X167640000Y-82550000D03*
X168910000Y-83820000D03*
X167640000Y-85090000D03*
X165100000Y-85090000D03*
X162560000Y-85090000D03*
X160020000Y-85090000D03*
X158750000Y-86360000D03*
X157480000Y-85090000D03*
X156210000Y-86360000D03*
X154940000Y-87630000D03*
X153670000Y-88900000D03*
X152400000Y-90170000D03*
X151130000Y-91440000D03*
X157480000Y-100330000D03*
X156210000Y-99060000D03*
X154940000Y-97790000D03*
X153670000Y-96520000D03*
X152400000Y-95250000D03*
X151130000Y-93980000D03*
X149860000Y-92710000D03*
X149860000Y-95250000D03*
X151130000Y-96520000D03*
X152400000Y-97790000D03*
X153670000Y-99060000D03*
X154940000Y-100330000D03*
X156210000Y-101600000D03*
X157480000Y-102870000D03*
X157480000Y-105410000D03*
X156210000Y-104140000D03*
X154940000Y-102870000D03*
X153670000Y-101600000D03*
X152400000Y-100330000D03*
X151130000Y-99060000D03*
X149860000Y-97790000D03*
X148590000Y-96520000D03*
X148590000Y-93980000D03*
X147320000Y-95250000D03*
X147320000Y-92710000D03*
X146050000Y-93980000D03*
X151130000Y-107950000D03*
X149860000Y-106680000D03*
X149860000Y-109220000D03*
X147320000Y-109220000D03*
X148590000Y-107950000D03*
X147320000Y-106680000D03*
X148590000Y-105410000D03*
X147320000Y-104140000D03*
X146050000Y-107950000D03*
X146050000Y-105410000D03*
X144780000Y-104140000D03*
X143510000Y-105410000D03*
X144780000Y-106680000D03*
X143510000Y-107950000D03*
X144780000Y-109220000D03*
X146050000Y-130810000D03*
X147320000Y-125730000D03*
X148590000Y-124460000D03*
X151130000Y-113030000D03*
X149860000Y-114300000D03*
X148590000Y-113030000D03*
X148590000Y-115570000D03*
X146050000Y-115570000D03*
X147320000Y-114300000D03*
X144780000Y-114300000D03*
X146050000Y-113030000D03*
X140970000Y-123190000D03*
X143510000Y-123190000D03*
X142240000Y-121920000D03*
X139700000Y-121920000D03*
X140970000Y-120650000D03*
X142240000Y-119380000D03*
X140970000Y-118110000D03*
X142240000Y-116840000D03*
X140970000Y-115570000D03*
X135890000Y-100330000D03*
X133350000Y-100330000D03*
X132080000Y-96520000D03*
X133350000Y-95250000D03*
X132080000Y-93980000D03*
X133350000Y-92710000D03*
X132080000Y-88900000D03*
X130810000Y-90170000D03*
X133350000Y-85090000D03*
X133350000Y-87630000D03*
X132080000Y-86360000D03*
X134620000Y-121920000D03*
X132080000Y-121920000D03*
X130810000Y-120650000D03*
X132080000Y-119380000D03*
X130810000Y-118110000D03*
X132080000Y-116840000D03*
X130810000Y-115570000D03*
X132080000Y-114300000D03*
X130810000Y-113030000D03*
X132080000Y-111760000D03*
X130810000Y-110490000D03*
X132080000Y-109220000D03*
X130810000Y-107950000D03*
X132080000Y-106680000D03*
X130810000Y-105410000D03*
X132080000Y-104140000D03*
X130810000Y-102870000D03*
X130810000Y-87630000D03*
X130810000Y-85090000D03*
D12*
X134747000Y-81407000D03*
X137414000Y-81407000D03*
X140208000Y-81407000D03*
X143002000Y-81407000D03*
X145669000Y-81407000D03*
X148463000Y-81407000D03*
X151130000Y-81407000D03*
X153924000Y-81407000D03*
X156718000Y-81407000D03*
X159385000Y-81407000D03*
X162179000Y-81407000D03*
X164846000Y-81407000D03*
D13*
X167894000Y-96012000D03*
D14*
X167894000Y-98552000D03*
X167894000Y-101092000D03*
X167894000Y-103632000D03*
X167894000Y-106172000D03*
D13*
X167894000Y-87376000D03*
D14*
X167894000Y-89916000D03*
D13*
X132080000Y-125222000D03*
D14*
X132080000Y-127762000D03*
D15*
X137256900Y-127856000D03*
X142256900Y-127856000D03*
D16*
X136256900Y-130556000D03*
X143256900Y-130556000D03*
D11*
X130810000Y-82550000D03*
X140144500Y-88773000D03*
X144145000Y-89916000D03*
X136398000Y-85090000D03*
X134366006Y-86868000D03*
X136398002Y-86868000D03*
X137922000Y-85852000D03*
X138176000Y-87884000D03*
X152146000Y-84836000D03*
X137922000Y-87122000D03*
X157226000Y-109982000D03*
X159004000Y-105918000D03*
X134874000Y-95250000D03*
X157480000Y-130302000D03*
X135636000Y-93980000D03*
X158623000Y-128143000D03*
X160782004Y-109728000D03*
X161925000Y-126238000D03*
X163195000Y-107061000D03*
X163068000Y-130175000D03*
X159385000Y-122301000D03*
X143256000Y-93980000D03*
X159070053Y-118176049D03*
X153924006Y-118237000D03*
X136271000Y-95250000D03*
X140136687Y-96019813D03*
X139038581Y-103288081D03*
X144526000Y-91948000D03*
X164719000Y-124333000D03*
X156591000Y-126111000D03*
X138176000Y-94488000D03*
X138937998Y-93853000D03*
X155575000Y-124206000D03*
X139563010Y-94615000D03*
X154599000Y-120269000D03*
X142240000Y-93472000D03*
X158242000Y-118618000D03*
D17*
X144145000Y-89916000D02*
X141287500Y-89916000D01*
X141287500Y-89916000D02*
X140144500Y-88773000D01*
X136144006Y-85090000D02*
X136398000Y-85090000D01*
X134366006Y-86868000D02*
X136144006Y-85090000D01*
X136906000Y-86868000D02*
X136398002Y-86868000D01*
X137922000Y-85852000D02*
X136906000Y-86868000D01*
X152146000Y-84836000D02*
X149098000Y-87884000D01*
X149098000Y-87884000D02*
X138176000Y-87884000D01*
X138221999Y-86822001D02*
X137922000Y-87122000D01*
X138221999Y-86651737D02*
X138221999Y-86822001D01*
X139656736Y-85217000D02*
X138221999Y-86651737D01*
X151130000Y-83185000D02*
X149098000Y-85217000D01*
X149098000Y-85217000D02*
X139656736Y-85217000D01*
X151130000Y-81407000D02*
X151130000Y-83185000D01*
X157226000Y-109679584D02*
X157226000Y-109982000D01*
X140197406Y-92650990D02*
X157226000Y-109679584D01*
X137897274Y-92650990D02*
X140197406Y-92650990D01*
X135298264Y-95250000D02*
X137897274Y-92650990D01*
X157180001Y-110027999D02*
X157226000Y-109982000D01*
X157180001Y-110190001D02*
X157180001Y-110027999D01*
X157480000Y-110490000D02*
X157180001Y-110190001D01*
X134874000Y-95250000D02*
X135298264Y-95250000D01*
X157480000Y-130302000D02*
X157480000Y-110490000D01*
X166116000Y-96690000D02*
X166116000Y-98806000D01*
X166116000Y-98806000D02*
X159004000Y-105918000D01*
X167894000Y-96012000D02*
X166794000Y-96012000D01*
X166794000Y-96012000D02*
X166116000Y-96690000D01*
X158623000Y-119634000D02*
X158623000Y-128143000D01*
X159766000Y-106680000D02*
X159706988Y-106739012D01*
X159706988Y-118550012D02*
X158623000Y-119634000D01*
X159706988Y-106739012D02*
X159706988Y-118550012D01*
X159766000Y-106680000D02*
X157126498Y-106680000D01*
X157126498Y-106680000D02*
X142647478Y-92200980D01*
X142647478Y-92200980D02*
X137415020Y-92200980D01*
X137415020Y-92200980D02*
X135636000Y-93980000D01*
X167894000Y-98552000D02*
X159766000Y-106680000D01*
X160782004Y-125095004D02*
X160782004Y-109728000D01*
X161925000Y-126238000D02*
X160782004Y-125095004D01*
X163195000Y-107061000D02*
X166624000Y-103632000D01*
X166624000Y-103632000D02*
X167894000Y-103632000D01*
X163068000Y-130175000D02*
X163068000Y-107188000D01*
X163068000Y-107188000D02*
X163195000Y-107061000D01*
X160156995Y-121529005D02*
X159385000Y-122301000D01*
X167894000Y-101092000D02*
X160156995Y-108829005D01*
X160156995Y-108829005D02*
X160156995Y-121529005D01*
X159070053Y-118176049D02*
X159070053Y-117751785D01*
X159121002Y-117700836D02*
X159121002Y-109845002D01*
X159121002Y-109845002D02*
X143256000Y-93980000D01*
X159070053Y-117751785D02*
X159121002Y-117700836D01*
X153924006Y-108923234D02*
X153924006Y-118237000D01*
X140250772Y-95250000D02*
X153924006Y-108923234D01*
X136271000Y-95250000D02*
X140250772Y-95250000D01*
X139038581Y-97117919D02*
X140136687Y-96019813D01*
X139038581Y-103288081D02*
X139038581Y-97117919D01*
X156718000Y-81407000D02*
X156718000Y-83185000D01*
X156718000Y-83185000D02*
X147955000Y-91948000D01*
X147955000Y-91948000D02*
X144526000Y-91948000D01*
X164719000Y-124333000D02*
X164719000Y-114810820D01*
X164719000Y-114810820D02*
X169069001Y-110460819D01*
X169069001Y-110460819D02*
X169069001Y-87451001D01*
X169069001Y-87451001D02*
X168994000Y-87376000D01*
X168994000Y-87376000D02*
X167894000Y-87376000D01*
X156591000Y-109680995D02*
X156591000Y-126111000D01*
X140011006Y-93101001D02*
X156591000Y-109680995D01*
X138176000Y-94488000D02*
X138176000Y-93435998D01*
X138176000Y-93435998D02*
X138510997Y-93101001D01*
X138510997Y-93101001D02*
X140011006Y-93101001D01*
X155575000Y-124206000D02*
X155575000Y-109301406D01*
X140126594Y-93853000D02*
X138937998Y-93853000D01*
X155575000Y-109301406D02*
X140126594Y-93853000D01*
X154599000Y-108961817D02*
X140252183Y-94615000D01*
X154599000Y-120269000D02*
X154599000Y-108961817D01*
X140252183Y-94615000D02*
X139563010Y-94615000D01*
X157676009Y-109493183D02*
X142240000Y-94057174D01*
X142240000Y-94057174D02*
X142240000Y-93472000D01*
X158242000Y-118618000D02*
X158242000Y-110059174D01*
X158242000Y-110059174D02*
X157676009Y-109493183D01*
G36*
X133602654Y-83947000D02*
X133628802Y-84085966D01*
X133710931Y-84213599D01*
X133836246Y-84299223D01*
X133985000Y-84329346D01*
X135509000Y-84329346D01*
X135647966Y-84303198D01*
X135775599Y-84221069D01*
X135861223Y-84095754D01*
X135891346Y-83947000D01*
X135891346Y-79190000D01*
X136269654Y-79190000D01*
X136269654Y-83947000D01*
X136295802Y-84085966D01*
X136377931Y-84213599D01*
X136503246Y-84299223D01*
X136652000Y-84329346D01*
X138176000Y-84329346D01*
X138314966Y-84303198D01*
X138442599Y-84221069D01*
X138528223Y-84095754D01*
X138558346Y-83947000D01*
X138558346Y-79190000D01*
X139063654Y-79190000D01*
X139063654Y-83947000D01*
X139089802Y-84085966D01*
X139171931Y-84213599D01*
X139297246Y-84299223D01*
X139446000Y-84329346D01*
X140970000Y-84329346D01*
X141108966Y-84303198D01*
X141236599Y-84221069D01*
X141322223Y-84095754D01*
X141352346Y-83947000D01*
X141352346Y-79190000D01*
X141857654Y-79190000D01*
X141857654Y-83947000D01*
X141883802Y-84085966D01*
X141965931Y-84213599D01*
X142091246Y-84299223D01*
X142240000Y-84329346D01*
X143764000Y-84329346D01*
X143902966Y-84303198D01*
X144030599Y-84221069D01*
X144116223Y-84095754D01*
X144146346Y-83947000D01*
X144146346Y-79190000D01*
X144524654Y-79190000D01*
X144524654Y-83947000D01*
X144550802Y-84085966D01*
X144632931Y-84213599D01*
X144758246Y-84299223D01*
X144907000Y-84329346D01*
X146431000Y-84329346D01*
X146569966Y-84303198D01*
X146697599Y-84221069D01*
X146783223Y-84095754D01*
X146813346Y-83947000D01*
X146813346Y-79190000D01*
X147318654Y-79190000D01*
X147318654Y-83947000D01*
X147344802Y-84085966D01*
X147426931Y-84213599D01*
X147552246Y-84299223D01*
X147701000Y-84329346D01*
X149225000Y-84329346D01*
X149290959Y-84316935D01*
X148890894Y-84717000D01*
X139656736Y-84717000D01*
X139465394Y-84755060D01*
X139400422Y-84798474D01*
X139303183Y-84863446D01*
X138553607Y-85613022D01*
X138494571Y-85470143D01*
X138304856Y-85280097D01*
X138056855Y-85177117D01*
X137788323Y-85176883D01*
X137540143Y-85279429D01*
X137350097Y-85469144D01*
X137247117Y-85717145D01*
X137247027Y-85819867D01*
X136773749Y-86293145D01*
X136532857Y-86193117D01*
X136264325Y-86192883D01*
X136016145Y-86295429D01*
X135826099Y-86485144D01*
X135723119Y-86733145D01*
X135722885Y-87001677D01*
X135825431Y-87249857D01*
X136015146Y-87439903D01*
X136263147Y-87542883D01*
X136531679Y-87543117D01*
X136779859Y-87440571D01*
X136852557Y-87368000D01*
X136906000Y-87368000D01*
X137097342Y-87329940D01*
X137246905Y-87230004D01*
X137246883Y-87255677D01*
X137349429Y-87503857D01*
X137528488Y-87683229D01*
X137501117Y-87749145D01*
X137500883Y-88017677D01*
X137603429Y-88265857D01*
X137793144Y-88455903D01*
X138041145Y-88558883D01*
X138309677Y-88559117D01*
X138557857Y-88456571D01*
X138630555Y-88384000D01*
X139578752Y-88384000D01*
X139572597Y-88390144D01*
X139469617Y-88638145D01*
X139469383Y-88906677D01*
X139571929Y-89154857D01*
X139761644Y-89344903D01*
X140009645Y-89447883D01*
X140112367Y-89447973D01*
X140933947Y-90269553D01*
X141096158Y-90377940D01*
X141287500Y-90416000D01*
X143690366Y-90416000D01*
X143762144Y-90487903D01*
X144010145Y-90590883D01*
X144278677Y-90591117D01*
X144526857Y-90488571D01*
X144716903Y-90298856D01*
X144819883Y-90050855D01*
X144820117Y-89782323D01*
X144717571Y-89534143D01*
X144527856Y-89344097D01*
X144279855Y-89241117D01*
X144011323Y-89240883D01*
X143763143Y-89343429D01*
X143690445Y-89416000D01*
X141494606Y-89416000D01*
X140819528Y-88740922D01*
X140819617Y-88639323D01*
X140717071Y-88391143D01*
X140709940Y-88384000D01*
X149098000Y-88384000D01*
X149289342Y-88345940D01*
X149451553Y-88237553D01*
X152178078Y-85511028D01*
X152279677Y-85511117D01*
X152527857Y-85408571D01*
X152717903Y-85218856D01*
X152820883Y-84970855D01*
X152821117Y-84702323D01*
X152718571Y-84454143D01*
X152528856Y-84264097D01*
X152280855Y-84161117D01*
X152199611Y-84161046D01*
X152244223Y-84095754D01*
X152274346Y-83947000D01*
X152274346Y-79190000D01*
X152779654Y-79190000D01*
X152779654Y-83947000D01*
X152805802Y-84085966D01*
X152887931Y-84213599D01*
X153013246Y-84299223D01*
X153162000Y-84329346D01*
X154686000Y-84329346D01*
X154824966Y-84303198D01*
X154952599Y-84221069D01*
X155038223Y-84095754D01*
X155068346Y-83947000D01*
X155068346Y-79190000D01*
X155573654Y-79190000D01*
X155573654Y-83622239D01*
X147747894Y-91448000D01*
X144980634Y-91448000D01*
X144908856Y-91376097D01*
X144660855Y-91273117D01*
X144392323Y-91272883D01*
X144144143Y-91375429D01*
X143954097Y-91565144D01*
X143851117Y-91813145D01*
X143850883Y-92081677D01*
X143953429Y-92329857D01*
X144143144Y-92519903D01*
X144391145Y-92622883D01*
X144659677Y-92623117D01*
X144907857Y-92520571D01*
X144980555Y-92448000D01*
X147955000Y-92448000D01*
X148146342Y-92409940D01*
X148308553Y-92301553D01*
X150405252Y-90204854D01*
X166549683Y-90204854D01*
X166739169Y-90662328D01*
X167112683Y-91047452D01*
X167605145Y-91260323D01*
X167819000Y-91157709D01*
X167819000Y-89991000D01*
X166652513Y-89991000D01*
X166549683Y-90204854D01*
X150405252Y-90204854D01*
X156280761Y-84329346D01*
X157480000Y-84329346D01*
X157618966Y-84303198D01*
X157746599Y-84221069D01*
X157832223Y-84095754D01*
X157862346Y-83947000D01*
X157862346Y-79190000D01*
X158240654Y-79190000D01*
X158240654Y-83947000D01*
X158266802Y-84085966D01*
X158348931Y-84213599D01*
X158474246Y-84299223D01*
X158623000Y-84329346D01*
X160147000Y-84329346D01*
X160285966Y-84303198D01*
X160413599Y-84221069D01*
X160499223Y-84095754D01*
X160529346Y-83947000D01*
X160529346Y-79190000D01*
X161034654Y-79190000D01*
X161034654Y-83947000D01*
X161060802Y-84085966D01*
X161142931Y-84213599D01*
X161268246Y-84299223D01*
X161417000Y-84329346D01*
X162941000Y-84329346D01*
X163079966Y-84303198D01*
X163207599Y-84221069D01*
X163293223Y-84095754D01*
X163323346Y-83947000D01*
X163323346Y-79190000D01*
X163701654Y-79190000D01*
X163701654Y-83947000D01*
X163727802Y-84085966D01*
X163809931Y-84213599D01*
X163935246Y-84299223D01*
X164084000Y-84329346D01*
X165608000Y-84329346D01*
X165746966Y-84303198D01*
X165874599Y-84221069D01*
X165960223Y-84095754D01*
X165990346Y-83947000D01*
X165990346Y-79190000D01*
X169730000Y-79190000D01*
X169730000Y-131630000D01*
X144095137Y-131630000D01*
X144267563Y-131405810D01*
X144381900Y-130981000D01*
X144381900Y-130631000D01*
X143331900Y-130631000D01*
X143331900Y-130651000D01*
X143181900Y-130651000D01*
X143181900Y-130631000D01*
X142131900Y-130631000D01*
X142131900Y-130981000D01*
X142246237Y-131405810D01*
X142418663Y-131630000D01*
X137095137Y-131630000D01*
X137267563Y-131405810D01*
X137381900Y-130981000D01*
X137381900Y-130631000D01*
X136331900Y-130631000D01*
X136331900Y-130651000D01*
X136181900Y-130651000D01*
X136181900Y-130631000D01*
X135131900Y-130631000D01*
X135131900Y-130981000D01*
X135246237Y-131405810D01*
X135418663Y-131630000D01*
X129990000Y-131630000D01*
X129990000Y-130131000D01*
X135131900Y-130131000D01*
X135131900Y-130481000D01*
X136181900Y-130481000D01*
X136181900Y-129215084D01*
X136331900Y-129215084D01*
X136331900Y-130481000D01*
X137381900Y-130481000D01*
X137381900Y-130131000D01*
X142131900Y-130131000D01*
X142131900Y-130481000D01*
X143181900Y-130481000D01*
X143181900Y-129215084D01*
X143331900Y-129215084D01*
X143331900Y-130481000D01*
X144381900Y-130481000D01*
X144381900Y-130131000D01*
X144267563Y-129706190D01*
X143999362Y-129357472D01*
X143618128Y-129137934D01*
X143506574Y-129109055D01*
X143331900Y-129215084D01*
X143181900Y-129215084D01*
X143007226Y-129109055D01*
X142895672Y-129137934D01*
X142514438Y-129357472D01*
X142246237Y-129706190D01*
X142131900Y-130131000D01*
X137381900Y-130131000D01*
X137267563Y-129706190D01*
X136999362Y-129357472D01*
X136618128Y-129137934D01*
X136506574Y-129109055D01*
X136331900Y-129215084D01*
X136181900Y-129215084D01*
X136007226Y-129109055D01*
X135895672Y-129137934D01*
X135514438Y-129357472D01*
X135246237Y-129706190D01*
X135131900Y-130131000D01*
X129990000Y-130131000D01*
X129990000Y-128050854D01*
X130735683Y-128050854D01*
X130925169Y-128508328D01*
X131298683Y-128893452D01*
X131791145Y-129106323D01*
X132005000Y-129003709D01*
X132005000Y-127837000D01*
X132155000Y-127837000D01*
X132155000Y-129003709D01*
X132368855Y-129106323D01*
X132861317Y-128893452D01*
X133033726Y-128715683D01*
X136503283Y-128715683D01*
X136569748Y-128929380D01*
X137032820Y-129110636D01*
X137530006Y-129100884D01*
X137944052Y-128929380D01*
X138010517Y-128715683D01*
X141503283Y-128715683D01*
X141569748Y-128929380D01*
X142032820Y-129110636D01*
X142530006Y-129100884D01*
X142944052Y-128929380D01*
X143010517Y-128715683D01*
X142256900Y-127962066D01*
X141503283Y-128715683D01*
X138010517Y-128715683D01*
X137256900Y-127962066D01*
X136503283Y-128715683D01*
X133033726Y-128715683D01*
X133234831Y-128508328D01*
X133424317Y-128050854D01*
X133321487Y-127837000D01*
X132155000Y-127837000D01*
X132005000Y-127837000D01*
X130838513Y-127837000D01*
X130735683Y-128050854D01*
X129990000Y-128050854D01*
X129990000Y-127473146D01*
X130735683Y-127473146D01*
X130838513Y-127687000D01*
X132005000Y-127687000D01*
X132005000Y-127667000D01*
X132155000Y-127667000D01*
X132155000Y-127687000D01*
X133321487Y-127687000D01*
X133347971Y-127631920D01*
X136002264Y-127631920D01*
X136012016Y-128129106D01*
X136183520Y-128543152D01*
X136397217Y-128609617D01*
X137150834Y-127856000D01*
X137362966Y-127856000D01*
X138116583Y-128609617D01*
X138330280Y-128543152D01*
X138511536Y-128080080D01*
X138502746Y-127631920D01*
X141002264Y-127631920D01*
X141012016Y-128129106D01*
X141183520Y-128543152D01*
X141397217Y-128609617D01*
X142150834Y-127856000D01*
X142362966Y-127856000D01*
X143116583Y-128609617D01*
X143330280Y-128543152D01*
X143511536Y-128080080D01*
X143501784Y-127582894D01*
X143330280Y-127168848D01*
X143116583Y-127102383D01*
X142362966Y-127856000D01*
X142150834Y-127856000D01*
X141397217Y-127102383D01*
X141183520Y-127168848D01*
X141002264Y-127631920D01*
X138502746Y-127631920D01*
X138501784Y-127582894D01*
X138330280Y-127168848D01*
X138116583Y-127102383D01*
X137362966Y-127856000D01*
X137150834Y-127856000D01*
X136397217Y-127102383D01*
X136183520Y-127168848D01*
X136002264Y-127631920D01*
X133347971Y-127631920D01*
X133424317Y-127473146D01*
X133234831Y-127015672D01*
X133216060Y-126996317D01*
X136503283Y-126996317D01*
X137256900Y-127749934D01*
X138010517Y-126996317D01*
X141503283Y-126996317D01*
X142256900Y-127749934D01*
X143010517Y-126996317D01*
X142944052Y-126782620D01*
X142480980Y-126601364D01*
X141983794Y-126611116D01*
X141569748Y-126782620D01*
X141503283Y-126996317D01*
X138010517Y-126996317D01*
X137944052Y-126782620D01*
X137480980Y-126601364D01*
X136983794Y-126611116D01*
X136569748Y-126782620D01*
X136503283Y-126996317D01*
X133216060Y-126996317D01*
X132861317Y-126630548D01*
X132453686Y-126454346D01*
X132930000Y-126454346D01*
X133068966Y-126428198D01*
X133196599Y-126346069D01*
X133282223Y-126220754D01*
X133312346Y-126072000D01*
X133312346Y-124372000D01*
X133286198Y-124233034D01*
X133204069Y-124105401D01*
X133078754Y-124019777D01*
X132930000Y-123989654D01*
X131230000Y-123989654D01*
X131091034Y-124015802D01*
X130963401Y-124097931D01*
X130877777Y-124223246D01*
X130847654Y-124372000D01*
X130847654Y-126072000D01*
X130873802Y-126210966D01*
X130955931Y-126338599D01*
X131081246Y-126424223D01*
X131230000Y-126454346D01*
X131706314Y-126454346D01*
X131298683Y-126630548D01*
X130925169Y-127015672D01*
X130735683Y-127473146D01*
X129990000Y-127473146D01*
X129990000Y-95383677D01*
X134198883Y-95383677D01*
X134301429Y-95631857D01*
X134491144Y-95821903D01*
X134739145Y-95924883D01*
X135007677Y-95925117D01*
X135255857Y-95822571D01*
X135336092Y-95742476D01*
X135489606Y-95711940D01*
X135651817Y-95603553D01*
X135676525Y-95578845D01*
X135698429Y-95631857D01*
X135888144Y-95821903D01*
X136136145Y-95924883D01*
X136404677Y-95925117D01*
X136652857Y-95822571D01*
X136725555Y-95750000D01*
X139517844Y-95750000D01*
X139461804Y-95884958D01*
X139461714Y-95987679D01*
X138685028Y-96764366D01*
X138576641Y-96926577D01*
X138538581Y-97117919D01*
X138538581Y-102833447D01*
X138466678Y-102905225D01*
X138363698Y-103153226D01*
X138363464Y-103421758D01*
X138466010Y-103669938D01*
X138655725Y-103859984D01*
X138903726Y-103962964D01*
X139172258Y-103963198D01*
X139420438Y-103860652D01*
X139610484Y-103670937D01*
X139713464Y-103422936D01*
X139713698Y-103154404D01*
X139611152Y-102906224D01*
X139538581Y-102833526D01*
X139538581Y-97325025D01*
X140168765Y-96694841D01*
X140270364Y-96694930D01*
X140518544Y-96592384D01*
X140702457Y-96408791D01*
X153424006Y-109130340D01*
X153424006Y-117782366D01*
X153352103Y-117854144D01*
X153249123Y-118102145D01*
X153248889Y-118370677D01*
X153351435Y-118618857D01*
X153541150Y-118808903D01*
X153789151Y-118911883D01*
X154057683Y-118912117D01*
X154099000Y-118895045D01*
X154099000Y-119814366D01*
X154027097Y-119886144D01*
X153924117Y-120134145D01*
X153923883Y-120402677D01*
X154026429Y-120650857D01*
X154216144Y-120840903D01*
X154464145Y-120943883D01*
X154732677Y-120944117D01*
X154980857Y-120841571D01*
X155075000Y-120747592D01*
X155075000Y-123751366D01*
X155003097Y-123823144D01*
X154900117Y-124071145D01*
X154899883Y-124339677D01*
X155002429Y-124587857D01*
X155192144Y-124777903D01*
X155440145Y-124880883D01*
X155708677Y-124881117D01*
X155956857Y-124778571D01*
X156091000Y-124644662D01*
X156091000Y-125656366D01*
X156019097Y-125728144D01*
X155916117Y-125976145D01*
X155915883Y-126244677D01*
X156018429Y-126492857D01*
X156208144Y-126682903D01*
X156456145Y-126785883D01*
X156724677Y-126786117D01*
X156972857Y-126683571D01*
X156980000Y-126676440D01*
X156980000Y-129847366D01*
X156908097Y-129919144D01*
X156805117Y-130167145D01*
X156804883Y-130435677D01*
X156907429Y-130683857D01*
X157097144Y-130873903D01*
X157345145Y-130976883D01*
X157613677Y-130977117D01*
X157861857Y-130874571D01*
X158051903Y-130684856D01*
X158154883Y-130436855D01*
X158155117Y-130168323D01*
X158052571Y-129920143D01*
X157980000Y-129847445D01*
X157980000Y-128354406D01*
X158050429Y-128524857D01*
X158240144Y-128714903D01*
X158488145Y-128817883D01*
X158756677Y-128818117D01*
X159004857Y-128715571D01*
X159194903Y-128525856D01*
X159297883Y-128277855D01*
X159298117Y-128009323D01*
X159195571Y-127761143D01*
X159123000Y-127688445D01*
X159123000Y-122923087D01*
X159250145Y-122975883D01*
X159518677Y-122976117D01*
X159766857Y-122873571D01*
X159956903Y-122683856D01*
X160059883Y-122435855D01*
X160059973Y-122333134D01*
X160282004Y-122111103D01*
X160282004Y-125095004D01*
X160320064Y-125286346D01*
X160428451Y-125448557D01*
X161249972Y-126270078D01*
X161249883Y-126371677D01*
X161352429Y-126619857D01*
X161542144Y-126809903D01*
X161790145Y-126912883D01*
X162058677Y-126913117D01*
X162306857Y-126810571D01*
X162496903Y-126620856D01*
X162568000Y-126449637D01*
X162568000Y-129720366D01*
X162496097Y-129792144D01*
X162393117Y-130040145D01*
X162392883Y-130308677D01*
X162495429Y-130556857D01*
X162685144Y-130746903D01*
X162933145Y-130849883D01*
X163201677Y-130850117D01*
X163449857Y-130747571D01*
X163639903Y-130557856D01*
X163742883Y-130309855D01*
X163743117Y-130041323D01*
X163640571Y-129793143D01*
X163568000Y-129720445D01*
X163568000Y-107637231D01*
X163576857Y-107633571D01*
X163766903Y-107443856D01*
X163869883Y-107195855D01*
X163869973Y-107093134D01*
X164502253Y-106460854D01*
X166549683Y-106460854D01*
X166739169Y-106918328D01*
X167112683Y-107303452D01*
X167605145Y-107516323D01*
X167819000Y-107413709D01*
X167819000Y-106247000D01*
X166652513Y-106247000D01*
X166549683Y-106460854D01*
X164502253Y-106460854D01*
X166787945Y-104175162D01*
X167003795Y-104498206D01*
X167401214Y-104763752D01*
X167818998Y-104846855D01*
X167818998Y-104930290D01*
X167605145Y-104827677D01*
X167112683Y-105040548D01*
X166739169Y-105425672D01*
X166549683Y-105883146D01*
X166652513Y-106097000D01*
X167819000Y-106097000D01*
X167819000Y-106077000D01*
X167969000Y-106077000D01*
X167969000Y-106097000D01*
X167989000Y-106097000D01*
X167989000Y-106247000D01*
X167969000Y-106247000D01*
X167969000Y-107413709D01*
X168182855Y-107516323D01*
X168569001Y-107349408D01*
X168569001Y-110253712D01*
X164365447Y-114457267D01*
X164257060Y-114619478D01*
X164219000Y-114810820D01*
X164219000Y-123878366D01*
X164147097Y-123950144D01*
X164044117Y-124198145D01*
X164043883Y-124466677D01*
X164146429Y-124714857D01*
X164336144Y-124904903D01*
X164584145Y-125007883D01*
X164852677Y-125008117D01*
X165100857Y-124905571D01*
X165290903Y-124715856D01*
X165393883Y-124467855D01*
X165394117Y-124199323D01*
X165291571Y-123951143D01*
X165219000Y-123878445D01*
X165219000Y-115017926D01*
X169422554Y-110814373D01*
X169530941Y-110652161D01*
X169549437Y-110559173D01*
X169569001Y-110460819D01*
X169569001Y-87451001D01*
X169530941Y-87259659D01*
X169497013Y-87208883D01*
X169422554Y-87097447D01*
X169347553Y-87022447D01*
X169185342Y-86914060D01*
X169126346Y-86902325D01*
X169126346Y-86526000D01*
X169100198Y-86387034D01*
X169018069Y-86259401D01*
X168892754Y-86173777D01*
X168744000Y-86143654D01*
X167044000Y-86143654D01*
X166905034Y-86169802D01*
X166777401Y-86251931D01*
X166691777Y-86377246D01*
X166661654Y-86526000D01*
X166661654Y-88226000D01*
X166687802Y-88364966D01*
X166769931Y-88492599D01*
X166895246Y-88578223D01*
X167044000Y-88608346D01*
X167520314Y-88608346D01*
X167112683Y-88784548D01*
X166739169Y-89169672D01*
X166549683Y-89627146D01*
X166652513Y-89841000D01*
X167819000Y-89841000D01*
X167819000Y-89821000D01*
X167969000Y-89821000D01*
X167969000Y-89841000D01*
X167989000Y-89841000D01*
X167989000Y-89991000D01*
X167969000Y-89991000D01*
X167969000Y-91157709D01*
X168182855Y-91260323D01*
X168569001Y-91093408D01*
X168569001Y-94779654D01*
X167044000Y-94779654D01*
X166905034Y-94805802D01*
X166777401Y-94887931D01*
X166691777Y-95013246D01*
X166661654Y-95162000D01*
X166661654Y-95538325D01*
X166602658Y-95550060D01*
X166440447Y-95658446D01*
X165762447Y-96336447D01*
X165654060Y-96498658D01*
X165616000Y-96690000D01*
X165616000Y-98598894D01*
X158971922Y-105242972D01*
X158870323Y-105242883D01*
X158622143Y-105345429D01*
X158432097Y-105535144D01*
X158329117Y-105783145D01*
X158328883Y-106051677D01*
X158381905Y-106180000D01*
X157333605Y-106180000D01*
X143001031Y-91847427D01*
X142838820Y-91739040D01*
X142647478Y-91700980D01*
X137415020Y-91700980D01*
X137223678Y-91739040D01*
X137061466Y-91847427D01*
X135603922Y-93304972D01*
X135502323Y-93304883D01*
X135254143Y-93407429D01*
X135064097Y-93597144D01*
X134961117Y-93845145D01*
X134960883Y-94113677D01*
X135063429Y-94361857D01*
X135253144Y-94551903D01*
X135278660Y-94562498D01*
X135190581Y-94650577D01*
X135008855Y-94575117D01*
X134740323Y-94574883D01*
X134492143Y-94677429D01*
X134302097Y-94867144D01*
X134199117Y-95115145D01*
X134198883Y-95383677D01*
X129990000Y-95383677D01*
X129990000Y-87001677D01*
X133690889Y-87001677D01*
X133793435Y-87249857D01*
X133983150Y-87439903D01*
X134231151Y-87542883D01*
X134499683Y-87543117D01*
X134747863Y-87440571D01*
X134937909Y-87250856D01*
X135040889Y-87002855D01*
X135040979Y-86900134D01*
X136201731Y-85739382D01*
X136263145Y-85764883D01*
X136531677Y-85765117D01*
X136779857Y-85662571D01*
X136969903Y-85472856D01*
X137072883Y-85224855D01*
X137073117Y-84956323D01*
X136970571Y-84708143D01*
X136780856Y-84518097D01*
X136532855Y-84415117D01*
X136264323Y-84414883D01*
X136016143Y-84517429D01*
X135826097Y-84707144D01*
X135822944Y-84714736D01*
X135790453Y-84736446D01*
X134333928Y-86192972D01*
X134232329Y-86192883D01*
X133984149Y-86295429D01*
X133794103Y-86485144D01*
X133691123Y-86733145D01*
X133690889Y-87001677D01*
X129990000Y-87001677D01*
X129990000Y-79190000D01*
X133602654Y-79190000D01*
X133602654Y-83947000D01*
X133602654Y-83947000D01*
G37*
X133602654Y-83947000D02*
X133628802Y-84085966D01*
X133710931Y-84213599D01*
X133836246Y-84299223D01*
X133985000Y-84329346D01*
X135509000Y-84329346D01*
X135647966Y-84303198D01*
X135775599Y-84221069D01*
X135861223Y-84095754D01*
X135891346Y-83947000D01*
X135891346Y-79190000D01*
X136269654Y-79190000D01*
X136269654Y-83947000D01*
X136295802Y-84085966D01*
X136377931Y-84213599D01*
X136503246Y-84299223D01*
X136652000Y-84329346D01*
X138176000Y-84329346D01*
X138314966Y-84303198D01*
X138442599Y-84221069D01*
X138528223Y-84095754D01*
X138558346Y-83947000D01*
X138558346Y-79190000D01*
X139063654Y-79190000D01*
X139063654Y-83947000D01*
X139089802Y-84085966D01*
X139171931Y-84213599D01*
X139297246Y-84299223D01*
X139446000Y-84329346D01*
X140970000Y-84329346D01*
X141108966Y-84303198D01*
X141236599Y-84221069D01*
X141322223Y-84095754D01*
X141352346Y-83947000D01*
X141352346Y-79190000D01*
X141857654Y-79190000D01*
X141857654Y-83947000D01*
X141883802Y-84085966D01*
X141965931Y-84213599D01*
X142091246Y-84299223D01*
X142240000Y-84329346D01*
X143764000Y-84329346D01*
X143902966Y-84303198D01*
X144030599Y-84221069D01*
X144116223Y-84095754D01*
X144146346Y-83947000D01*
X144146346Y-79190000D01*
X144524654Y-79190000D01*
X144524654Y-83947000D01*
X144550802Y-84085966D01*
X144632931Y-84213599D01*
X144758246Y-84299223D01*
X144907000Y-84329346D01*
X146431000Y-84329346D01*
X146569966Y-84303198D01*
X146697599Y-84221069D01*
X146783223Y-84095754D01*
X146813346Y-83947000D01*
X146813346Y-79190000D01*
X147318654Y-79190000D01*
X147318654Y-83947000D01*
X147344802Y-84085966D01*
X147426931Y-84213599D01*
X147552246Y-84299223D01*
X147701000Y-84329346D01*
X149225000Y-84329346D01*
X149290959Y-84316935D01*
X148890894Y-84717000D01*
X139656736Y-84717000D01*
X139465394Y-84755060D01*
X139400422Y-84798474D01*
X139303183Y-84863446D01*
X138553607Y-85613022D01*
X138494571Y-85470143D01*
X138304856Y-85280097D01*
X138056855Y-85177117D01*
X137788323Y-85176883D01*
X137540143Y-85279429D01*
X137350097Y-85469144D01*
X137247117Y-85717145D01*
X137247027Y-85819867D01*
X136773749Y-86293145D01*
X136532857Y-86193117D01*
X136264325Y-86192883D01*
X136016145Y-86295429D01*
X135826099Y-86485144D01*
X135723119Y-86733145D01*
X135722885Y-87001677D01*
X135825431Y-87249857D01*
X136015146Y-87439903D01*
X136263147Y-87542883D01*
X136531679Y-87543117D01*
X136779859Y-87440571D01*
X136852557Y-87368000D01*
X136906000Y-87368000D01*
X137097342Y-87329940D01*
X137246905Y-87230004D01*
X137246883Y-87255677D01*
X137349429Y-87503857D01*
X137528488Y-87683229D01*
X137501117Y-87749145D01*
X137500883Y-88017677D01*
X137603429Y-88265857D01*
X137793144Y-88455903D01*
X138041145Y-88558883D01*
X138309677Y-88559117D01*
X138557857Y-88456571D01*
X138630555Y-88384000D01*
X139578752Y-88384000D01*
X139572597Y-88390144D01*
X139469617Y-88638145D01*
X139469383Y-88906677D01*
X139571929Y-89154857D01*
X139761644Y-89344903D01*
X140009645Y-89447883D01*
X140112367Y-89447973D01*
X140933947Y-90269553D01*
X141096158Y-90377940D01*
X141287500Y-90416000D01*
X143690366Y-90416000D01*
X143762144Y-90487903D01*
X144010145Y-90590883D01*
X144278677Y-90591117D01*
X144526857Y-90488571D01*
X144716903Y-90298856D01*
X144819883Y-90050855D01*
X144820117Y-89782323D01*
X144717571Y-89534143D01*
X144527856Y-89344097D01*
X144279855Y-89241117D01*
X144011323Y-89240883D01*
X143763143Y-89343429D01*
X143690445Y-89416000D01*
X141494606Y-89416000D01*
X140819528Y-88740922D01*
X140819617Y-88639323D01*
X140717071Y-88391143D01*
X140709940Y-88384000D01*
X149098000Y-88384000D01*
X149289342Y-88345940D01*
X149451553Y-88237553D01*
X152178078Y-85511028D01*
X152279677Y-85511117D01*
X152527857Y-85408571D01*
X152717903Y-85218856D01*
X152820883Y-84970855D01*
X152821117Y-84702323D01*
X152718571Y-84454143D01*
X152528856Y-84264097D01*
X152280855Y-84161117D01*
X152199611Y-84161046D01*
X152244223Y-84095754D01*
X152274346Y-83947000D01*
X152274346Y-79190000D01*
X152779654Y-79190000D01*
X152779654Y-83947000D01*
X152805802Y-84085966D01*
X152887931Y-84213599D01*
X153013246Y-84299223D01*
X153162000Y-84329346D01*
X154686000Y-84329346D01*
X154824966Y-84303198D01*
X154952599Y-84221069D01*
X155038223Y-84095754D01*
X155068346Y-83947000D01*
X155068346Y-79190000D01*
X155573654Y-79190000D01*
X155573654Y-83622239D01*
X147747894Y-91448000D01*
X144980634Y-91448000D01*
X144908856Y-91376097D01*
X144660855Y-91273117D01*
X144392323Y-91272883D01*
X144144143Y-91375429D01*
X143954097Y-91565144D01*
X143851117Y-91813145D01*
X143850883Y-92081677D01*
X143953429Y-92329857D01*
X144143144Y-92519903D01*
X144391145Y-92622883D01*
X144659677Y-92623117D01*
X144907857Y-92520571D01*
X144980555Y-92448000D01*
X147955000Y-92448000D01*
X148146342Y-92409940D01*
X148308553Y-92301553D01*
X150405252Y-90204854D01*
X166549683Y-90204854D01*
X166739169Y-90662328D01*
X167112683Y-91047452D01*
X167605145Y-91260323D01*
X167819000Y-91157709D01*
X167819000Y-89991000D01*
X166652513Y-89991000D01*
X166549683Y-90204854D01*
X150405252Y-90204854D01*
X156280761Y-84329346D01*
X157480000Y-84329346D01*
X157618966Y-84303198D01*
X157746599Y-84221069D01*
X157832223Y-84095754D01*
X157862346Y-83947000D01*
X157862346Y-79190000D01*
X158240654Y-79190000D01*
X158240654Y-83947000D01*
X158266802Y-84085966D01*
X158348931Y-84213599D01*
X158474246Y-84299223D01*
X158623000Y-84329346D01*
X160147000Y-84329346D01*
X160285966Y-84303198D01*
X160413599Y-84221069D01*
X160499223Y-84095754D01*
X160529346Y-83947000D01*
X160529346Y-79190000D01*
X161034654Y-79190000D01*
X161034654Y-83947000D01*
X161060802Y-84085966D01*
X161142931Y-84213599D01*
X161268246Y-84299223D01*
X161417000Y-84329346D01*
X162941000Y-84329346D01*
X163079966Y-84303198D01*
X163207599Y-84221069D01*
X163293223Y-84095754D01*
X163323346Y-83947000D01*
X163323346Y-79190000D01*
X163701654Y-79190000D01*
X163701654Y-83947000D01*
X163727802Y-84085966D01*
X163809931Y-84213599D01*
X163935246Y-84299223D01*
X164084000Y-84329346D01*
X165608000Y-84329346D01*
X165746966Y-84303198D01*
X165874599Y-84221069D01*
X165960223Y-84095754D01*
X165990346Y-83947000D01*
X165990346Y-79190000D01*
X169730000Y-79190000D01*
X169730000Y-131630000D01*
X144095137Y-131630000D01*
X144267563Y-131405810D01*
X144381900Y-130981000D01*
X144381900Y-130631000D01*
X143331900Y-130631000D01*
X143331900Y-130651000D01*
X143181900Y-130651000D01*
X143181900Y-130631000D01*
X142131900Y-130631000D01*
X142131900Y-130981000D01*
X142246237Y-131405810D01*
X142418663Y-131630000D01*
X137095137Y-131630000D01*
X137267563Y-131405810D01*
X137381900Y-130981000D01*
X137381900Y-130631000D01*
X136331900Y-130631000D01*
X136331900Y-130651000D01*
X136181900Y-130651000D01*
X136181900Y-130631000D01*
X135131900Y-130631000D01*
X135131900Y-130981000D01*
X135246237Y-131405810D01*
X135418663Y-131630000D01*
X129990000Y-131630000D01*
X129990000Y-130131000D01*
X135131900Y-130131000D01*
X135131900Y-130481000D01*
X136181900Y-130481000D01*
X136181900Y-129215084D01*
X136331900Y-129215084D01*
X136331900Y-130481000D01*
X137381900Y-130481000D01*
X137381900Y-130131000D01*
X142131900Y-130131000D01*
X142131900Y-130481000D01*
X143181900Y-130481000D01*
X143181900Y-129215084D01*
X143331900Y-129215084D01*
X143331900Y-130481000D01*
X144381900Y-130481000D01*
X144381900Y-130131000D01*
X144267563Y-129706190D01*
X143999362Y-129357472D01*
X143618128Y-129137934D01*
X143506574Y-129109055D01*
X143331900Y-129215084D01*
X143181900Y-129215084D01*
X143007226Y-129109055D01*
X142895672Y-129137934D01*
X142514438Y-129357472D01*
X142246237Y-129706190D01*
X142131900Y-130131000D01*
X137381900Y-130131000D01*
X137267563Y-129706190D01*
X136999362Y-129357472D01*
X136618128Y-129137934D01*
X136506574Y-129109055D01*
X136331900Y-129215084D01*
X136181900Y-129215084D01*
X136007226Y-129109055D01*
X135895672Y-129137934D01*
X135514438Y-129357472D01*
X135246237Y-129706190D01*
X135131900Y-130131000D01*
X129990000Y-130131000D01*
X129990000Y-128050854D01*
X130735683Y-128050854D01*
X130925169Y-128508328D01*
X131298683Y-128893452D01*
X131791145Y-129106323D01*
X132005000Y-129003709D01*
X132005000Y-127837000D01*
X132155000Y-127837000D01*
X132155000Y-129003709D01*
X132368855Y-129106323D01*
X132861317Y-128893452D01*
X133033726Y-128715683D01*
X136503283Y-128715683D01*
X136569748Y-128929380D01*
X137032820Y-129110636D01*
X137530006Y-129100884D01*
X137944052Y-128929380D01*
X138010517Y-128715683D01*
X141503283Y-128715683D01*
X141569748Y-128929380D01*
X142032820Y-129110636D01*
X142530006Y-129100884D01*
X142944052Y-128929380D01*
X143010517Y-128715683D01*
X142256900Y-127962066D01*
X141503283Y-128715683D01*
X138010517Y-128715683D01*
X137256900Y-127962066D01*
X136503283Y-128715683D01*
X133033726Y-128715683D01*
X133234831Y-128508328D01*
X133424317Y-128050854D01*
X133321487Y-127837000D01*
X132155000Y-127837000D01*
X132005000Y-127837000D01*
X130838513Y-127837000D01*
X130735683Y-128050854D01*
X129990000Y-128050854D01*
X129990000Y-127473146D01*
X130735683Y-127473146D01*
X130838513Y-127687000D01*
X132005000Y-127687000D01*
X132005000Y-127667000D01*
X132155000Y-127667000D01*
X132155000Y-127687000D01*
X133321487Y-127687000D01*
X133347971Y-127631920D01*
X136002264Y-127631920D01*
X136012016Y-128129106D01*
X136183520Y-128543152D01*
X136397217Y-128609617D01*
X137150834Y-127856000D01*
X137362966Y-127856000D01*
X138116583Y-128609617D01*
X138330280Y-128543152D01*
X138511536Y-128080080D01*
X138502746Y-127631920D01*
X141002264Y-127631920D01*
X141012016Y-128129106D01*
X141183520Y-128543152D01*
X141397217Y-128609617D01*
X142150834Y-127856000D01*
X142362966Y-127856000D01*
X143116583Y-128609617D01*
X143330280Y-128543152D01*
X143511536Y-128080080D01*
X143501784Y-127582894D01*
X143330280Y-127168848D01*
X143116583Y-127102383D01*
X142362966Y-127856000D01*
X142150834Y-127856000D01*
X141397217Y-127102383D01*
X141183520Y-127168848D01*
X141002264Y-127631920D01*
X138502746Y-127631920D01*
X138501784Y-127582894D01*
X138330280Y-127168848D01*
X138116583Y-127102383D01*
X137362966Y-127856000D01*
X137150834Y-127856000D01*
X136397217Y-127102383D01*
X136183520Y-127168848D01*
X136002264Y-127631920D01*
X133347971Y-127631920D01*
X133424317Y-127473146D01*
X133234831Y-127015672D01*
X133216060Y-126996317D01*
X136503283Y-126996317D01*
X137256900Y-127749934D01*
X138010517Y-126996317D01*
X141503283Y-126996317D01*
X142256900Y-127749934D01*
X143010517Y-126996317D01*
X142944052Y-126782620D01*
X142480980Y-126601364D01*
X141983794Y-126611116D01*
X141569748Y-126782620D01*
X141503283Y-126996317D01*
X138010517Y-126996317D01*
X137944052Y-126782620D01*
X137480980Y-126601364D01*
X136983794Y-126611116D01*
X136569748Y-126782620D01*
X136503283Y-126996317D01*
X133216060Y-126996317D01*
X132861317Y-126630548D01*
X132453686Y-126454346D01*
X132930000Y-126454346D01*
X133068966Y-126428198D01*
X133196599Y-126346069D01*
X133282223Y-126220754D01*
X133312346Y-126072000D01*
X133312346Y-124372000D01*
X133286198Y-124233034D01*
X133204069Y-124105401D01*
X133078754Y-124019777D01*
X132930000Y-123989654D01*
X131230000Y-123989654D01*
X131091034Y-124015802D01*
X130963401Y-124097931D01*
X130877777Y-124223246D01*
X130847654Y-124372000D01*
X130847654Y-126072000D01*
X130873802Y-126210966D01*
X130955931Y-126338599D01*
X131081246Y-126424223D01*
X131230000Y-126454346D01*
X131706314Y-126454346D01*
X131298683Y-126630548D01*
X130925169Y-127015672D01*
X130735683Y-127473146D01*
X129990000Y-127473146D01*
X129990000Y-95383677D01*
X134198883Y-95383677D01*
X134301429Y-95631857D01*
X134491144Y-95821903D01*
X134739145Y-95924883D01*
X135007677Y-95925117D01*
X135255857Y-95822571D01*
X135336092Y-95742476D01*
X135489606Y-95711940D01*
X135651817Y-95603553D01*
X135676525Y-95578845D01*
X135698429Y-95631857D01*
X135888144Y-95821903D01*
X136136145Y-95924883D01*
X136404677Y-95925117D01*
X136652857Y-95822571D01*
X136725555Y-95750000D01*
X139517844Y-95750000D01*
X139461804Y-95884958D01*
X139461714Y-95987679D01*
X138685028Y-96764366D01*
X138576641Y-96926577D01*
X138538581Y-97117919D01*
X138538581Y-102833447D01*
X138466678Y-102905225D01*
X138363698Y-103153226D01*
X138363464Y-103421758D01*
X138466010Y-103669938D01*
X138655725Y-103859984D01*
X138903726Y-103962964D01*
X139172258Y-103963198D01*
X139420438Y-103860652D01*
X139610484Y-103670937D01*
X139713464Y-103422936D01*
X139713698Y-103154404D01*
X139611152Y-102906224D01*
X139538581Y-102833526D01*
X139538581Y-97325025D01*
X140168765Y-96694841D01*
X140270364Y-96694930D01*
X140518544Y-96592384D01*
X140702457Y-96408791D01*
X153424006Y-109130340D01*
X153424006Y-117782366D01*
X153352103Y-117854144D01*
X153249123Y-118102145D01*
X153248889Y-118370677D01*
X153351435Y-118618857D01*
X153541150Y-118808903D01*
X153789151Y-118911883D01*
X154057683Y-118912117D01*
X154099000Y-118895045D01*
X154099000Y-119814366D01*
X154027097Y-119886144D01*
X153924117Y-120134145D01*
X153923883Y-120402677D01*
X154026429Y-120650857D01*
X154216144Y-120840903D01*
X154464145Y-120943883D01*
X154732677Y-120944117D01*
X154980857Y-120841571D01*
X155075000Y-120747592D01*
X155075000Y-123751366D01*
X155003097Y-123823144D01*
X154900117Y-124071145D01*
X154899883Y-124339677D01*
X155002429Y-124587857D01*
X155192144Y-124777903D01*
X155440145Y-124880883D01*
X155708677Y-124881117D01*
X155956857Y-124778571D01*
X156091000Y-124644662D01*
X156091000Y-125656366D01*
X156019097Y-125728144D01*
X155916117Y-125976145D01*
X155915883Y-126244677D01*
X156018429Y-126492857D01*
X156208144Y-126682903D01*
X156456145Y-126785883D01*
X156724677Y-126786117D01*
X156972857Y-126683571D01*
X156980000Y-126676440D01*
X156980000Y-129847366D01*
X156908097Y-129919144D01*
X156805117Y-130167145D01*
X156804883Y-130435677D01*
X156907429Y-130683857D01*
X157097144Y-130873903D01*
X157345145Y-130976883D01*
X157613677Y-130977117D01*
X157861857Y-130874571D01*
X158051903Y-130684856D01*
X158154883Y-130436855D01*
X158155117Y-130168323D01*
X158052571Y-129920143D01*
X157980000Y-129847445D01*
X157980000Y-128354406D01*
X158050429Y-128524857D01*
X158240144Y-128714903D01*
X158488145Y-128817883D01*
X158756677Y-128818117D01*
X159004857Y-128715571D01*
X159194903Y-128525856D01*
X159297883Y-128277855D01*
X159298117Y-128009323D01*
X159195571Y-127761143D01*
X159123000Y-127688445D01*
X159123000Y-122923087D01*
X159250145Y-122975883D01*
X159518677Y-122976117D01*
X159766857Y-122873571D01*
X159956903Y-122683856D01*
X160059883Y-122435855D01*
X160059973Y-122333134D01*
X160282004Y-122111103D01*
X160282004Y-125095004D01*
X160320064Y-125286346D01*
X160428451Y-125448557D01*
X161249972Y-126270078D01*
X161249883Y-126371677D01*
X161352429Y-126619857D01*
X161542144Y-126809903D01*
X161790145Y-126912883D01*
X162058677Y-126913117D01*
X162306857Y-126810571D01*
X162496903Y-126620856D01*
X162568000Y-126449637D01*
X162568000Y-129720366D01*
X162496097Y-129792144D01*
X162393117Y-130040145D01*
X162392883Y-130308677D01*
X162495429Y-130556857D01*
X162685144Y-130746903D01*
X162933145Y-130849883D01*
X163201677Y-130850117D01*
X163449857Y-130747571D01*
X163639903Y-130557856D01*
X163742883Y-130309855D01*
X163743117Y-130041323D01*
X163640571Y-129793143D01*
X163568000Y-129720445D01*
X163568000Y-107637231D01*
X163576857Y-107633571D01*
X163766903Y-107443856D01*
X163869883Y-107195855D01*
X163869973Y-107093134D01*
X164502253Y-106460854D01*
X166549683Y-106460854D01*
X166739169Y-106918328D01*
X167112683Y-107303452D01*
X167605145Y-107516323D01*
X167819000Y-107413709D01*
X167819000Y-106247000D01*
X166652513Y-106247000D01*
X166549683Y-106460854D01*
X164502253Y-106460854D01*
X166787945Y-104175162D01*
X167003795Y-104498206D01*
X167401214Y-104763752D01*
X167818998Y-104846855D01*
X167818998Y-104930290D01*
X167605145Y-104827677D01*
X167112683Y-105040548D01*
X166739169Y-105425672D01*
X166549683Y-105883146D01*
X166652513Y-106097000D01*
X167819000Y-106097000D01*
X167819000Y-106077000D01*
X167969000Y-106077000D01*
X167969000Y-106097000D01*
X167989000Y-106097000D01*
X167989000Y-106247000D01*
X167969000Y-106247000D01*
X167969000Y-107413709D01*
X168182855Y-107516323D01*
X168569001Y-107349408D01*
X168569001Y-110253712D01*
X164365447Y-114457267D01*
X164257060Y-114619478D01*
X164219000Y-114810820D01*
X164219000Y-123878366D01*
X164147097Y-123950144D01*
X164044117Y-124198145D01*
X164043883Y-124466677D01*
X164146429Y-124714857D01*
X164336144Y-124904903D01*
X164584145Y-125007883D01*
X164852677Y-125008117D01*
X165100857Y-124905571D01*
X165290903Y-124715856D01*
X165393883Y-124467855D01*
X165394117Y-124199323D01*
X165291571Y-123951143D01*
X165219000Y-123878445D01*
X165219000Y-115017926D01*
X169422554Y-110814373D01*
X169530941Y-110652161D01*
X169549437Y-110559173D01*
X169569001Y-110460819D01*
X169569001Y-87451001D01*
X169530941Y-87259659D01*
X169497013Y-87208883D01*
X169422554Y-87097447D01*
X169347553Y-87022447D01*
X169185342Y-86914060D01*
X169126346Y-86902325D01*
X169126346Y-86526000D01*
X169100198Y-86387034D01*
X169018069Y-86259401D01*
X168892754Y-86173777D01*
X168744000Y-86143654D01*
X167044000Y-86143654D01*
X166905034Y-86169802D01*
X166777401Y-86251931D01*
X166691777Y-86377246D01*
X166661654Y-86526000D01*
X166661654Y-88226000D01*
X166687802Y-88364966D01*
X166769931Y-88492599D01*
X166895246Y-88578223D01*
X167044000Y-88608346D01*
X167520314Y-88608346D01*
X167112683Y-88784548D01*
X166739169Y-89169672D01*
X166549683Y-89627146D01*
X166652513Y-89841000D01*
X167819000Y-89841000D01*
X167819000Y-89821000D01*
X167969000Y-89821000D01*
X167969000Y-89841000D01*
X167989000Y-89841000D01*
X167989000Y-89991000D01*
X167969000Y-89991000D01*
X167969000Y-91157709D01*
X168182855Y-91260323D01*
X168569001Y-91093408D01*
X168569001Y-94779654D01*
X167044000Y-94779654D01*
X166905034Y-94805802D01*
X166777401Y-94887931D01*
X166691777Y-95013246D01*
X166661654Y-95162000D01*
X166661654Y-95538325D01*
X166602658Y-95550060D01*
X166440447Y-95658446D01*
X165762447Y-96336447D01*
X165654060Y-96498658D01*
X165616000Y-96690000D01*
X165616000Y-98598894D01*
X158971922Y-105242972D01*
X158870323Y-105242883D01*
X158622143Y-105345429D01*
X158432097Y-105535144D01*
X158329117Y-105783145D01*
X158328883Y-106051677D01*
X158381905Y-106180000D01*
X157333605Y-106180000D01*
X143001031Y-91847427D01*
X142838820Y-91739040D01*
X142647478Y-91700980D01*
X137415020Y-91700980D01*
X137223678Y-91739040D01*
X137061466Y-91847427D01*
X135603922Y-93304972D01*
X135502323Y-93304883D01*
X135254143Y-93407429D01*
X135064097Y-93597144D01*
X134961117Y-93845145D01*
X134960883Y-94113677D01*
X135063429Y-94361857D01*
X135253144Y-94551903D01*
X135278660Y-94562498D01*
X135190581Y-94650577D01*
X135008855Y-94575117D01*
X134740323Y-94574883D01*
X134492143Y-94677429D01*
X134302097Y-94867144D01*
X134199117Y-95115145D01*
X134198883Y-95383677D01*
X129990000Y-95383677D01*
X129990000Y-87001677D01*
X133690889Y-87001677D01*
X133793435Y-87249857D01*
X133983150Y-87439903D01*
X134231151Y-87542883D01*
X134499683Y-87543117D01*
X134747863Y-87440571D01*
X134937909Y-87250856D01*
X135040889Y-87002855D01*
X135040979Y-86900134D01*
X136201731Y-85739382D01*
X136263145Y-85764883D01*
X136531677Y-85765117D01*
X136779857Y-85662571D01*
X136969903Y-85472856D01*
X137072883Y-85224855D01*
X137073117Y-84956323D01*
X136970571Y-84708143D01*
X136780856Y-84518097D01*
X136532855Y-84415117D01*
X136264323Y-84414883D01*
X136016143Y-84517429D01*
X135826097Y-84707144D01*
X135822944Y-84714736D01*
X135790453Y-84736446D01*
X134333928Y-86192972D01*
X134232329Y-86192883D01*
X133984149Y-86295429D01*
X133794103Y-86485144D01*
X133691123Y-86733145D01*
X133690889Y-87001677D01*
X129990000Y-87001677D01*
X129990000Y-79190000D01*
X133602654Y-79190000D01*
X133602654Y-83947000D01*
G36*
X162519883Y-107194677D02*
X162568000Y-107311129D01*
X162568000Y-126026594D01*
X162497571Y-125856143D01*
X162307856Y-125666097D01*
X162059855Y-125563117D01*
X161957134Y-125563027D01*
X161282004Y-124887898D01*
X161282004Y-110182634D01*
X161353907Y-110110856D01*
X161456887Y-109862855D01*
X161457121Y-109594323D01*
X161354575Y-109346143D01*
X161164860Y-109156097D01*
X160916859Y-109053117D01*
X160656995Y-109052891D01*
X160656995Y-109036111D01*
X162519902Y-107173205D01*
X162519883Y-107194677D01*
X162519883Y-107194677D01*
G37*
X162519883Y-107194677D02*
X162568000Y-107311129D01*
X162568000Y-126026594D01*
X162497571Y-125856143D01*
X162307856Y-125666097D01*
X162059855Y-125563117D01*
X161957134Y-125563027D01*
X161282004Y-124887898D01*
X161282004Y-110182634D01*
X161353907Y-110110856D01*
X161456887Y-109862855D01*
X161457121Y-109594323D01*
X161354575Y-109346143D01*
X161164860Y-109156097D01*
X160916859Y-109053117D01*
X160656995Y-109052891D01*
X160656995Y-109036111D01*
X162519902Y-107173205D01*
X162519883Y-107194677D01*
G36*
X168569001Y-100082000D02*
X168386786Y-99960248D01*
X167917999Y-99867000D01*
X167870001Y-99867000D01*
X167401214Y-99960248D01*
X167003795Y-100225794D01*
X166738249Y-100623213D01*
X166645001Y-101092000D01*
X166734907Y-101543986D01*
X160206988Y-108071906D01*
X160206988Y-106946118D01*
X167458050Y-99695057D01*
X167870001Y-99777000D01*
X167917999Y-99777000D01*
X168386786Y-99683752D01*
X168569001Y-99562000D01*
X168569001Y-100082000D01*
X168569001Y-100082000D01*
G37*
X168569001Y-100082000D02*
X168386786Y-99960248D01*
X167917999Y-99867000D01*
X167870001Y-99867000D01*
X167401214Y-99960248D01*
X167003795Y-100225794D01*
X166738249Y-100623213D01*
X166645001Y-101092000D01*
X166734907Y-101543986D01*
X160206988Y-108071906D01*
X160206988Y-106946118D01*
X167458050Y-99695057D01*
X167870001Y-99777000D01*
X167917999Y-99777000D01*
X168386786Y-99683752D01*
X168569001Y-99562000D01*
X168569001Y-100082000D01*
G36*
X151574097Y-84453144D02*
X151471117Y-84701145D01*
X151471027Y-84803867D01*
X148890894Y-87384000D01*
X138630634Y-87384000D01*
X138569512Y-87322771D01*
X138596883Y-87256855D01*
X138596982Y-87143483D01*
X138653203Y-87059342D01*
X138683939Y-87013343D01*
X138712851Y-86867991D01*
X139863843Y-85717000D01*
X149098000Y-85717000D01*
X149289342Y-85678940D01*
X149451553Y-85570553D01*
X150692760Y-84329346D01*
X151698111Y-84329346D01*
X151574097Y-84453144D01*
X151574097Y-84453144D01*
G37*
X151574097Y-84453144D02*
X151471117Y-84701145D01*
X151471027Y-84803867D01*
X148890894Y-87384000D01*
X138630634Y-87384000D01*
X138569512Y-87322771D01*
X138596883Y-87256855D01*
X138596982Y-87143483D01*
X138653203Y-87059342D01*
X138683939Y-87013343D01*
X138712851Y-86867991D01*
X139863843Y-85717000D01*
X149098000Y-85717000D01*
X149289342Y-85678940D01*
X149451553Y-85570553D01*
X150692760Y-84329346D01*
X151698111Y-84329346D01*
X151574097Y-84453144D01*
M02*
