G04 #@! TF.FileFunction,Legend,Bot*
%FSLAX46Y46*%
G04 Gerber Fmt 4.6, Leading zero omitted, Abs format (unit mm)*
G04 Created by KiCad (PCBNEW 4.0.7) date Wednesday, 04 July 2018 'PMt' 21:27:38*
%MOMM*%
%LPD*%
G01*
G04 APERTURE LIST*
%ADD10C,0.100000*%
%ADD11C,0.200000*%
%ADD12C,0.300000*%
G04 APERTURE END LIST*
D10*
D11*
X165820192Y-121102381D02*
X165820192Y-120102381D01*
X165391620Y-121102381D02*
X165391620Y-120578571D01*
X165439239Y-120483333D01*
X165534477Y-120435714D01*
X165677335Y-120435714D01*
X165772573Y-120483333D01*
X165820192Y-120530952D01*
X165058287Y-120435714D02*
X164677335Y-120435714D01*
X164915430Y-120102381D02*
X164915430Y-120959524D01*
X164867811Y-121054762D01*
X164772573Y-121102381D01*
X164677335Y-121102381D01*
X164486858Y-120435714D02*
X164105906Y-120435714D01*
X164344001Y-120102381D02*
X164344001Y-120959524D01*
X164296382Y-121054762D01*
X164201144Y-121102381D01*
X164105906Y-121102381D01*
X163772572Y-120435714D02*
X163772572Y-121435714D01*
X163772572Y-120483333D02*
X163677334Y-120435714D01*
X163486857Y-120435714D01*
X163391619Y-120483333D01*
X163344000Y-120530952D01*
X163296381Y-120626190D01*
X163296381Y-120911905D01*
X163344000Y-121007143D01*
X163391619Y-121054762D01*
X163486857Y-121102381D01*
X163677334Y-121102381D01*
X163772572Y-121054762D01*
X162915429Y-121054762D02*
X162820191Y-121102381D01*
X162629715Y-121102381D01*
X162534476Y-121054762D01*
X162486857Y-120959524D01*
X162486857Y-120911905D01*
X162534476Y-120816667D01*
X162629715Y-120769048D01*
X162772572Y-120769048D01*
X162867810Y-120721429D01*
X162915429Y-120626190D01*
X162915429Y-120578571D01*
X162867810Y-120483333D01*
X162772572Y-120435714D01*
X162629715Y-120435714D01*
X162534476Y-120483333D01*
X162058286Y-121007143D02*
X162010667Y-121054762D01*
X162058286Y-121102381D01*
X162105905Y-121054762D01*
X162058286Y-121007143D01*
X162058286Y-121102381D01*
X162058286Y-120483333D02*
X162010667Y-120530952D01*
X162058286Y-120578571D01*
X162105905Y-120530952D01*
X162058286Y-120483333D01*
X162058286Y-120578571D01*
X160867810Y-120054762D02*
X161724953Y-121340476D01*
X159820191Y-120054762D02*
X160677334Y-121340476D01*
X159058286Y-120435714D02*
X159058286Y-121245238D01*
X159105905Y-121340476D01*
X159153524Y-121388095D01*
X159248763Y-121435714D01*
X159391620Y-121435714D01*
X159486858Y-121388095D01*
X159058286Y-121054762D02*
X159153524Y-121102381D01*
X159344001Y-121102381D01*
X159439239Y-121054762D01*
X159486858Y-121007143D01*
X159534477Y-120911905D01*
X159534477Y-120626190D01*
X159486858Y-120530952D01*
X159439239Y-120483333D01*
X159344001Y-120435714D01*
X159153524Y-120435714D01*
X159058286Y-120483333D01*
X158582096Y-121102381D02*
X158582096Y-120435714D01*
X158582096Y-120102381D02*
X158629715Y-120150000D01*
X158582096Y-120197619D01*
X158534477Y-120150000D01*
X158582096Y-120102381D01*
X158582096Y-120197619D01*
X158248763Y-120435714D02*
X157867811Y-120435714D01*
X158105906Y-120102381D02*
X158105906Y-120959524D01*
X158058287Y-121054762D01*
X157963049Y-121102381D01*
X157867811Y-121102381D01*
X157534477Y-121102381D02*
X157534477Y-120102381D01*
X157105905Y-121102381D02*
X157105905Y-120578571D01*
X157153524Y-120483333D01*
X157248762Y-120435714D01*
X157391620Y-120435714D01*
X157486858Y-120483333D01*
X157534477Y-120530952D01*
X156201143Y-120435714D02*
X156201143Y-121102381D01*
X156629715Y-120435714D02*
X156629715Y-120959524D01*
X156582096Y-121054762D01*
X156486858Y-121102381D01*
X156344000Y-121102381D01*
X156248762Y-121054762D01*
X156201143Y-121007143D01*
X155724953Y-121102381D02*
X155724953Y-120102381D01*
X155724953Y-120483333D02*
X155629715Y-120435714D01*
X155439238Y-120435714D01*
X155344000Y-120483333D01*
X155296381Y-120530952D01*
X155248762Y-120626190D01*
X155248762Y-120911905D01*
X155296381Y-121007143D01*
X155344000Y-121054762D01*
X155439238Y-121102381D01*
X155629715Y-121102381D01*
X155724953Y-121054762D01*
X154820191Y-121007143D02*
X154772572Y-121054762D01*
X154820191Y-121102381D01*
X154867810Y-121054762D01*
X154820191Y-121007143D01*
X154820191Y-121102381D01*
X153915429Y-121054762D02*
X154010667Y-121102381D01*
X154201144Y-121102381D01*
X154296382Y-121054762D01*
X154344001Y-121007143D01*
X154391620Y-120911905D01*
X154391620Y-120626190D01*
X154344001Y-120530952D01*
X154296382Y-120483333D01*
X154201144Y-120435714D01*
X154010667Y-120435714D01*
X153915429Y-120483333D01*
X153344001Y-121102381D02*
X153439239Y-121054762D01*
X153486858Y-121007143D01*
X153534477Y-120911905D01*
X153534477Y-120626190D01*
X153486858Y-120530952D01*
X153439239Y-120483333D01*
X153344001Y-120435714D01*
X153201143Y-120435714D01*
X153105905Y-120483333D01*
X153058286Y-120530952D01*
X153010667Y-120626190D01*
X153010667Y-120911905D01*
X153058286Y-121007143D01*
X153105905Y-121054762D01*
X153201143Y-121102381D01*
X153344001Y-121102381D01*
X152582096Y-121102381D02*
X152582096Y-120435714D01*
X152582096Y-120530952D02*
X152534477Y-120483333D01*
X152439239Y-120435714D01*
X152296381Y-120435714D01*
X152201143Y-120483333D01*
X152153524Y-120578571D01*
X152153524Y-121102381D01*
X152153524Y-120578571D02*
X152105905Y-120483333D01*
X152010667Y-120435714D01*
X151867810Y-120435714D01*
X151772572Y-120483333D01*
X151724953Y-120578571D01*
X151724953Y-121102381D01*
X150534477Y-120054762D02*
X151391620Y-121340476D01*
X150248763Y-121054762D02*
X150153525Y-121102381D01*
X149963049Y-121102381D01*
X149867810Y-121054762D01*
X149820191Y-120959524D01*
X149820191Y-120911905D01*
X149867810Y-120816667D01*
X149963049Y-120769048D01*
X150105906Y-120769048D01*
X150201144Y-120721429D01*
X150248763Y-120626190D01*
X150248763Y-120578571D01*
X150201144Y-120483333D01*
X150105906Y-120435714D01*
X149963049Y-120435714D01*
X149867810Y-120483333D01*
X149534477Y-120435714D02*
X149153525Y-120435714D01*
X149391620Y-120102381D02*
X149391620Y-120959524D01*
X149344001Y-121054762D01*
X149248763Y-121102381D01*
X149153525Y-121102381D01*
X148391619Y-121102381D02*
X148391619Y-120578571D01*
X148439238Y-120483333D01*
X148534476Y-120435714D01*
X148724953Y-120435714D01*
X148820191Y-120483333D01*
X148391619Y-121054762D02*
X148486857Y-121102381D01*
X148724953Y-121102381D01*
X148820191Y-121054762D01*
X148867810Y-120959524D01*
X148867810Y-120864286D01*
X148820191Y-120769048D01*
X148724953Y-120721429D01*
X148486857Y-120721429D01*
X148391619Y-120673810D01*
X147915429Y-121102381D02*
X147915429Y-120435714D01*
X147915429Y-120626190D02*
X147867810Y-120530952D01*
X147820191Y-120483333D01*
X147724953Y-120435714D01*
X147629714Y-120435714D01*
X146867809Y-121102381D02*
X146867809Y-120102381D01*
X146867809Y-121054762D02*
X146963047Y-121102381D01*
X147153524Y-121102381D01*
X147248762Y-121054762D01*
X147296381Y-121007143D01*
X147344000Y-120911905D01*
X147344000Y-120626190D01*
X147296381Y-120530952D01*
X147248762Y-120483333D01*
X147153524Y-120435714D01*
X146963047Y-120435714D01*
X146867809Y-120483333D01*
X146248762Y-121102381D02*
X146344000Y-121054762D01*
X146391619Y-121007143D01*
X146439238Y-120911905D01*
X146439238Y-120626190D01*
X146391619Y-120530952D01*
X146344000Y-120483333D01*
X146248762Y-120435714D01*
X146105904Y-120435714D01*
X146010666Y-120483333D01*
X145963047Y-120530952D01*
X145915428Y-120626190D01*
X145915428Y-120911905D01*
X145963047Y-121007143D01*
X146010666Y-121054762D01*
X146105904Y-121102381D01*
X146248762Y-121102381D01*
X145629714Y-120435714D02*
X145248762Y-120435714D01*
X145486857Y-120102381D02*
X145486857Y-120959524D01*
X145439238Y-121054762D01*
X145344000Y-121102381D01*
X145248762Y-121102381D01*
X144201142Y-120054762D02*
X145058285Y-121340476D01*
X143486856Y-121054762D02*
X143582094Y-121102381D01*
X143772571Y-121102381D01*
X143867809Y-121054762D01*
X143915428Y-120959524D01*
X143915428Y-120578571D01*
X143867809Y-120483333D01*
X143772571Y-120435714D01*
X143582094Y-120435714D01*
X143486856Y-120483333D01*
X143439237Y-120578571D01*
X143439237Y-120673810D01*
X143915428Y-120769048D01*
X143058285Y-121054762D02*
X142963047Y-121102381D01*
X142772571Y-121102381D01*
X142677332Y-121054762D01*
X142629713Y-120959524D01*
X142629713Y-120911905D01*
X142677332Y-120816667D01*
X142772571Y-120769048D01*
X142915428Y-120769048D01*
X143010666Y-120721429D01*
X143058285Y-120626190D01*
X143058285Y-120578571D01*
X143010666Y-120483333D01*
X142915428Y-120435714D01*
X142772571Y-120435714D01*
X142677332Y-120483333D01*
X142201142Y-120435714D02*
X142201142Y-121435714D01*
X142201142Y-120483333D02*
X142105904Y-120435714D01*
X141915427Y-120435714D01*
X141820189Y-120483333D01*
X141772570Y-120530952D01*
X141724951Y-120626190D01*
X141724951Y-120911905D01*
X141772570Y-121007143D01*
X141820189Y-121054762D01*
X141915427Y-121102381D01*
X142105904Y-121102381D01*
X142201142Y-121054762D01*
X141153523Y-120530952D02*
X141248761Y-120483333D01*
X141296380Y-120435714D01*
X141343999Y-120340476D01*
X141343999Y-120292857D01*
X141296380Y-120197619D01*
X141248761Y-120150000D01*
X141153523Y-120102381D01*
X140963046Y-120102381D01*
X140867808Y-120150000D01*
X140820189Y-120197619D01*
X140772570Y-120292857D01*
X140772570Y-120340476D01*
X140820189Y-120435714D01*
X140867808Y-120483333D01*
X140963046Y-120530952D01*
X141153523Y-120530952D01*
X141248761Y-120578571D01*
X141296380Y-120626190D01*
X141343999Y-120721429D01*
X141343999Y-120911905D01*
X141296380Y-121007143D01*
X141248761Y-121054762D01*
X141153523Y-121102381D01*
X140963046Y-121102381D01*
X140867808Y-121054762D01*
X140820189Y-121007143D01*
X140772570Y-120911905D01*
X140772570Y-120721429D01*
X140820189Y-120626190D01*
X140867808Y-120578571D01*
X140963046Y-120530952D01*
X140391618Y-120197619D02*
X140343999Y-120150000D01*
X140248761Y-120102381D01*
X140010665Y-120102381D01*
X139915427Y-120150000D01*
X139867808Y-120197619D01*
X139820189Y-120292857D01*
X139820189Y-120388095D01*
X139867808Y-120530952D01*
X140439237Y-121102381D01*
X139820189Y-121102381D01*
X138963046Y-120102381D02*
X139153523Y-120102381D01*
X139248761Y-120150000D01*
X139296380Y-120197619D01*
X139391618Y-120340476D01*
X139439237Y-120530952D01*
X139439237Y-120911905D01*
X139391618Y-121007143D01*
X139343999Y-121054762D01*
X139248761Y-121102381D01*
X139058284Y-121102381D01*
X138963046Y-121054762D01*
X138915427Y-121007143D01*
X138867808Y-120911905D01*
X138867808Y-120673810D01*
X138915427Y-120578571D01*
X138963046Y-120530952D01*
X139058284Y-120483333D01*
X139248761Y-120483333D01*
X139343999Y-120530952D01*
X139391618Y-120578571D01*
X139439237Y-120673810D01*
X138010665Y-120102381D02*
X138201142Y-120102381D01*
X138296380Y-120150000D01*
X138343999Y-120197619D01*
X138439237Y-120340476D01*
X138486856Y-120530952D01*
X138486856Y-120911905D01*
X138439237Y-121007143D01*
X138391618Y-121054762D01*
X138296380Y-121102381D01*
X138105903Y-121102381D01*
X138010665Y-121054762D01*
X137963046Y-121007143D01*
X137915427Y-120911905D01*
X137915427Y-120673810D01*
X137963046Y-120578571D01*
X138010665Y-120530952D01*
X138105903Y-120483333D01*
X138296380Y-120483333D01*
X138391618Y-120530952D01*
X138439237Y-120578571D01*
X138486856Y-120673810D01*
X137724951Y-121197619D02*
X136963046Y-121197619D01*
X136724951Y-121102381D02*
X136724951Y-120435714D01*
X136724951Y-120530952D02*
X136677332Y-120483333D01*
X136582094Y-120435714D01*
X136439236Y-120435714D01*
X136343998Y-120483333D01*
X136296379Y-120578571D01*
X136296379Y-121102381D01*
X136296379Y-120578571D02*
X136248760Y-120483333D01*
X136153522Y-120435714D01*
X136010665Y-120435714D01*
X135915427Y-120483333D01*
X135867808Y-120578571D01*
X135867808Y-121102381D01*
X135248761Y-121102381D02*
X135343999Y-121054762D01*
X135391618Y-121007143D01*
X135439237Y-120911905D01*
X135439237Y-120626190D01*
X135391618Y-120530952D01*
X135343999Y-120483333D01*
X135248761Y-120435714D01*
X135105903Y-120435714D01*
X135010665Y-120483333D01*
X134963046Y-120530952D01*
X134915427Y-120626190D01*
X134915427Y-120911905D01*
X134963046Y-121007143D01*
X135010665Y-121054762D01*
X135105903Y-121102381D01*
X135248761Y-121102381D01*
X134058284Y-121102381D02*
X134058284Y-120102381D01*
X134058284Y-121054762D02*
X134153522Y-121102381D01*
X134343999Y-121102381D01*
X134439237Y-121054762D01*
X134486856Y-121007143D01*
X134534475Y-120911905D01*
X134534475Y-120626190D01*
X134486856Y-120530952D01*
X134439237Y-120483333D01*
X134343999Y-120435714D01*
X134153522Y-120435714D01*
X134058284Y-120483333D01*
X133201141Y-121054762D02*
X133296379Y-121102381D01*
X133486856Y-121102381D01*
X133582094Y-121054762D01*
X133629713Y-120959524D01*
X133629713Y-120578571D01*
X133582094Y-120483333D01*
X133486856Y-120435714D01*
X133296379Y-120435714D01*
X133201141Y-120483333D01*
X133153522Y-120578571D01*
X133153522Y-120673810D01*
X133629713Y-120769048D01*
X132724951Y-121102381D02*
X132724951Y-120435714D01*
X132724951Y-120530952D02*
X132677332Y-120483333D01*
X132582094Y-120435714D01*
X132439236Y-120435714D01*
X132343998Y-120483333D01*
X132296379Y-120578571D01*
X132296379Y-121102381D01*
X132296379Y-120578571D02*
X132248760Y-120483333D01*
X132153522Y-120435714D01*
X132010665Y-120435714D01*
X131915427Y-120483333D01*
X131867808Y-120578571D01*
X131867808Y-121102381D01*
D12*
X164407713Y-115296000D02*
X164479141Y-115224571D01*
X164621998Y-115010286D01*
X164693427Y-114867429D01*
X164764856Y-114653143D01*
X164836284Y-114296000D01*
X164836284Y-114010286D01*
X164764856Y-113653143D01*
X164693427Y-113438857D01*
X164621998Y-113296000D01*
X164479141Y-113081714D01*
X164407713Y-113010286D01*
X163193427Y-114653143D02*
X163336284Y-114724571D01*
X163621998Y-114724571D01*
X163764856Y-114653143D01*
X163836284Y-114581714D01*
X163907713Y-114438857D01*
X163907713Y-114010286D01*
X163836284Y-113867429D01*
X163764856Y-113796000D01*
X163621998Y-113724571D01*
X163336284Y-113724571D01*
X163193427Y-113796000D01*
X162693427Y-115296000D02*
X162621999Y-115224571D01*
X162479142Y-115010286D01*
X162407713Y-114867429D01*
X162336284Y-114653143D01*
X162264856Y-114296000D01*
X162264856Y-114010286D01*
X162336284Y-113653143D01*
X162407713Y-113438857D01*
X162479142Y-113296000D01*
X162621999Y-113081714D01*
X162693427Y-113010286D01*
X160479142Y-113367429D02*
X160407713Y-113296000D01*
X160264856Y-113224571D01*
X159907713Y-113224571D01*
X159764856Y-113296000D01*
X159693427Y-113367429D01*
X159621999Y-113510286D01*
X159621999Y-113653143D01*
X159693427Y-113867429D01*
X160550570Y-114724571D01*
X159621999Y-114724571D01*
X158693428Y-113224571D02*
X158550571Y-113224571D01*
X158407714Y-113296000D01*
X158336285Y-113367429D01*
X158264856Y-113510286D01*
X158193428Y-113796000D01*
X158193428Y-114153143D01*
X158264856Y-114438857D01*
X158336285Y-114581714D01*
X158407714Y-114653143D01*
X158550571Y-114724571D01*
X158693428Y-114724571D01*
X158836285Y-114653143D01*
X158907714Y-114581714D01*
X158979142Y-114438857D01*
X159050571Y-114153143D01*
X159050571Y-113796000D01*
X158979142Y-113510286D01*
X158907714Y-113367429D01*
X158836285Y-113296000D01*
X158693428Y-113224571D01*
X156764857Y-114724571D02*
X157622000Y-114724571D01*
X157193428Y-114724571D02*
X157193428Y-113224571D01*
X157336285Y-113438857D01*
X157479143Y-113581714D01*
X157622000Y-113653143D01*
X155907714Y-113867429D02*
X156050572Y-113796000D01*
X156122000Y-113724571D01*
X156193429Y-113581714D01*
X156193429Y-113510286D01*
X156122000Y-113367429D01*
X156050572Y-113296000D01*
X155907714Y-113224571D01*
X155622000Y-113224571D01*
X155479143Y-113296000D01*
X155407714Y-113367429D01*
X155336286Y-113510286D01*
X155336286Y-113581714D01*
X155407714Y-113724571D01*
X155479143Y-113796000D01*
X155622000Y-113867429D01*
X155907714Y-113867429D01*
X156050572Y-113938857D01*
X156122000Y-114010286D01*
X156193429Y-114153143D01*
X156193429Y-114438857D01*
X156122000Y-114581714D01*
X156050572Y-114653143D01*
X155907714Y-114724571D01*
X155622000Y-114724571D01*
X155479143Y-114653143D01*
X155407714Y-114581714D01*
X155336286Y-114438857D01*
X155336286Y-114153143D01*
X155407714Y-114010286D01*
X155479143Y-113938857D01*
X155622000Y-113867429D01*
X153550572Y-114724571D02*
X153550572Y-113224571D01*
X153193429Y-113224571D01*
X152979144Y-113296000D01*
X152836286Y-113438857D01*
X152764858Y-113581714D01*
X152693429Y-113867429D01*
X152693429Y-114081714D01*
X152764858Y-114367429D01*
X152836286Y-114510286D01*
X152979144Y-114653143D01*
X153193429Y-114724571D01*
X153550572Y-114724571D01*
X151407715Y-114724571D02*
X151407715Y-113938857D01*
X151479144Y-113796000D01*
X151622001Y-113724571D01*
X151907715Y-113724571D01*
X152050572Y-113796000D01*
X151407715Y-114653143D02*
X151550572Y-114724571D01*
X151907715Y-114724571D01*
X152050572Y-114653143D01*
X152122001Y-114510286D01*
X152122001Y-114367429D01*
X152050572Y-114224571D01*
X151907715Y-114153143D01*
X151550572Y-114153143D01*
X151407715Y-114081714D01*
X150693429Y-113724571D02*
X150693429Y-114724571D01*
X150693429Y-113867429D02*
X150622001Y-113796000D01*
X150479143Y-113724571D01*
X150264858Y-113724571D01*
X150122001Y-113796000D01*
X150050572Y-113938857D01*
X150050572Y-114724571D01*
X149336286Y-114724571D02*
X149336286Y-113724571D01*
X149336286Y-113224571D02*
X149407715Y-113296000D01*
X149336286Y-113367429D01*
X149264858Y-113296000D01*
X149336286Y-113224571D01*
X149336286Y-113367429D01*
X148050572Y-114653143D02*
X148193429Y-114724571D01*
X148479143Y-114724571D01*
X148622000Y-114653143D01*
X148693429Y-114510286D01*
X148693429Y-113938857D01*
X148622000Y-113796000D01*
X148479143Y-113724571D01*
X148193429Y-113724571D01*
X148050572Y-113796000D01*
X147979143Y-113938857D01*
X147979143Y-114081714D01*
X148693429Y-114224571D01*
X147122000Y-114724571D02*
X147264858Y-114653143D01*
X147336286Y-114510286D01*
X147336286Y-113224571D01*
X144979144Y-113224571D02*
X144979144Y-114296000D01*
X145050572Y-114510286D01*
X145193429Y-114653143D01*
X145407715Y-114724571D01*
X145550572Y-114724571D01*
X143622001Y-114724571D02*
X143622001Y-113938857D01*
X143693430Y-113796000D01*
X143836287Y-113724571D01*
X144122001Y-113724571D01*
X144264858Y-113796000D01*
X143622001Y-114653143D02*
X143764858Y-114724571D01*
X144122001Y-114724571D01*
X144264858Y-114653143D01*
X144336287Y-114510286D01*
X144336287Y-114367429D01*
X144264858Y-114224571D01*
X144122001Y-114153143D01*
X143764858Y-114153143D01*
X143622001Y-114081714D01*
X142907715Y-114724571D02*
X142907715Y-113724571D01*
X142907715Y-113867429D02*
X142836287Y-113796000D01*
X142693429Y-113724571D01*
X142479144Y-113724571D01*
X142336287Y-113796000D01*
X142264858Y-113938857D01*
X142264858Y-114724571D01*
X142264858Y-113938857D02*
X142193429Y-113796000D01*
X142050572Y-113724571D01*
X141836287Y-113724571D01*
X141693429Y-113796000D01*
X141622001Y-113938857D01*
X141622001Y-114724571D01*
X140336287Y-114653143D02*
X140479144Y-114724571D01*
X140764858Y-114724571D01*
X140907715Y-114653143D01*
X140979144Y-114510286D01*
X140979144Y-113938857D01*
X140907715Y-113796000D01*
X140764858Y-113724571D01*
X140479144Y-113724571D01*
X140336287Y-113796000D01*
X140264858Y-113938857D01*
X140264858Y-114081714D01*
X140979144Y-114224571D01*
X139693430Y-114653143D02*
X139550573Y-114724571D01*
X139264858Y-114724571D01*
X139122001Y-114653143D01*
X139050573Y-114510286D01*
X139050573Y-114438857D01*
X139122001Y-114296000D01*
X139264858Y-114224571D01*
X139479144Y-114224571D01*
X139622001Y-114153143D01*
X139693430Y-114010286D01*
X139693430Y-113938857D01*
X139622001Y-113796000D01*
X139479144Y-113724571D01*
X139264858Y-113724571D01*
X139122001Y-113796000D01*
X138193429Y-114724571D02*
X138336287Y-114653143D01*
X138407715Y-114581714D01*
X138479144Y-114438857D01*
X138479144Y-114010286D01*
X138407715Y-113867429D01*
X138336287Y-113796000D01*
X138193429Y-113724571D01*
X137979144Y-113724571D01*
X137836287Y-113796000D01*
X137764858Y-113867429D01*
X137693429Y-114010286D01*
X137693429Y-114438857D01*
X137764858Y-114581714D01*
X137836287Y-114653143D01*
X137979144Y-114724571D01*
X138193429Y-114724571D01*
X137050572Y-113724571D02*
X137050572Y-114724571D01*
X137050572Y-113867429D02*
X136979144Y-113796000D01*
X136836286Y-113724571D01*
X136622001Y-113724571D01*
X136479144Y-113796000D01*
X136407715Y-113938857D01*
X136407715Y-114724571D01*
M02*
