M48
;DRILL file {KiCad 4.0.7} date Saturday, 28 July 2018 'PMt' 13:31:14
;FORMAT={-:-/ absolute / inch / decimal}
FMAT,2
INCH,TZ
T1C0.012
T2C0.016
T3C0.024
T4C0.033
T5C0.039
%
G90
G05
M72
T1
X5.15Y-3.25
X5.15Y-3.35
X5.15Y-3.45
X5.15Y-3.55
X5.15Y-4.05
X5.15Y-4.15
X5.15Y-4.25
X5.15Y-4.35
X5.15Y-4.45
X5.15Y-4.55
X5.15Y-4.65
X5.15Y-4.75
X5.2Y-3.4
X5.2Y-3.5
X5.2Y-3.7
X5.2Y-3.8
X5.2Y-4.1
X5.2Y-4.2
X5.2Y-4.3
X5.2Y-4.4
X5.2Y-4.5
X5.2Y-4.6
X5.2Y-4.7
X5.2Y-4.8
X5.25Y-3.35
X5.25Y-3.45
X5.25Y-3.65
X5.25Y-3.75
X5.25Y-3.95
X5.3Y-4.8
X5.35Y-3.95
X5.5Y-4.8
X5.55Y-4.55
X5.55Y-4.65
X5.55Y-4.75
X5.55Y-4.85
X5.55Y-4.95
X5.6Y-4.6
X5.6Y-4.7
X5.6Y-4.8
X5.6Y-4.9
X5.65Y-4.15
X5.65Y-4.25
X5.65Y-4.85
X5.65Y-4.95
X5.7Y-4.1
X5.7Y-4.2
X5.7Y-4.3
X5.7Y-4.5
X5.75Y-3.4
X5.75Y-3.7
X5.75Y-4.15
X5.75Y-4.25
X5.75Y-4.45
X5.75Y-4.55
X5.75Y-5.15
X5.8Y-3.65
X5.8Y-4.1
X5.8Y-4.2
X5.8Y-4.3
X5.8Y-4.5
X5.8Y-4.95
X5.85Y-3.4
X5.85Y-4.15
X5.85Y-4.25
X5.85Y-4.45
X5.85Y-4.55
X5.85Y-4.9
X5.9Y-3.65
X5.9Y-3.85
X5.9Y-4.2
X5.9Y-4.3
X5.9Y-4.5
X5.95Y-3.6
X5.95Y-3.7
X5.95Y-3.9
X5.95Y-4.25
X5.95Y-4.45
X6.Y-3.55
X6.Y-3.65
X6.Y-3.75
X6.Y-3.85
X6.Y-3.95
X6.05Y-3.5
X6.05Y-3.6
X6.05Y-3.8
X6.05Y-3.9
X6.05Y-4.
X6.1Y-3.45
X6.1Y-3.55
X6.1Y-3.85
X6.1Y-3.95
X6.1Y-4.05
X6.15Y-3.4
X6.15Y-3.5
X6.15Y-3.8
X6.15Y-3.9
X6.15Y-4.
X6.15Y-4.1
X6.2Y-3.35
X6.2Y-3.45
X6.2Y-3.55
X6.2Y-3.95
X6.2Y-4.05
X6.2Y-4.15
X6.25Y-3.4
X6.25Y-3.5
X6.25Y-3.8
X6.25Y-3.9
X6.25Y-4.
X6.25Y-4.1
X6.3Y-3.35
X6.3Y-3.45
X6.3Y-3.55
X6.3Y-3.65
X6.3Y-3.75
X6.3Y-3.85
X6.3Y-3.95
X6.3Y-4.05
X6.3Y-4.95
X6.3Y-5.05
X6.3Y-5.15
X6.35Y-3.4
X6.35Y-3.5
X6.35Y-3.6
X6.35Y-3.7
X6.35Y-3.8
X6.35Y-3.9
X6.35Y-4.
X6.35Y-4.2
X6.38Y-4.6
X6.38Y-4.87
X6.4Y-3.35
X6.4Y-3.75
X6.4Y-3.85
X6.4Y-3.95
X6.45Y-4.82
X6.46Y-4.6
X6.47Y-3.65
X6.47Y-5.05
X6.48Y-3.54
X6.5Y-3.35
X6.5Y-3.75
X6.5Y-3.85
X6.5Y-4.04
X6.5Y-4.2
X6.5Y-4.3
X6.53Y-3.59
X6.54Y-3.69
X6.55Y-4.35
X6.6Y-3.25
X6.6Y-3.35
X6.6Y-3.65
X6.6Y-4.3
X6.65Y-3.2
X6.65Y-3.3
X6.67Y-4.6
X6.67Y-4.7
X6.67Y-4.8
X6.67Y-4.9
X6.67Y-5.
X6.67Y-5.1
T2
X5.29Y-3.42
X5.31Y-3.75
X5.34Y-3.7
X5.365Y-3.75
X5.37Y-3.35
X5.37Y-3.42
X5.43Y-3.38
X5.43Y-3.43
X5.44Y-3.46
X5.44Y-3.72
X5.47Y-3.695
X5.474Y-4.0665
X5.4946Y-3.725
X5.5162Y-3.7813
X5.5175Y-3.495
X5.6Y-3.68
X5.6376Y-3.7024
X5.675Y-3.54
X5.69Y-3.62
X5.75Y-3.77
X5.96Y-3.77
X5.99Y-3.34
X6.06Y-4.655
X6.09Y-4.71
X6.125Y-4.89
X6.165Y-4.965
X6.19Y-4.33
X6.2Y-5.13
X6.245Y-5.045
X6.25Y-4.75
X6.26Y-4.17
X6.2626Y-4.6526
X6.2946Y-4.815
X6.33Y-4.32
X6.375Y-4.97
X6.42Y-5.125
X6.425Y-4.215
X6.485Y-4.895
T4
X5.4038Y-5.0337
X5.6007Y-5.0337
T5
X5.2Y-4.93
X5.2Y-5.03
X6.61Y-3.44
X6.61Y-3.54
X6.61Y-3.78
X6.61Y-3.88
X6.61Y-3.98
X6.61Y-4.08
X6.61Y-4.18
T3
X5.3644Y-5.1538G85X5.3644Y-5.1262
G05
X5.64Y-5.1262G85X5.64Y-5.1538
G05
T0
M30
