G04 #@! TF.FileFunction,Legend,Top*
%FSLAX46Y46*%
G04 Gerber Fmt 4.6, Leading zero omitted, Abs format (unit mm)*
G04 Created by KiCad (PCBNEW 4.0.7) date Wednesday, 20 June 2018 'PMt' 21:51:42*
%MOMM*%
%LPD*%
G01*
G04 APERTURE LIST*
%ADD10C,0.100000*%
%ADD11C,0.300000*%
%ADD12C,0.400000*%
%ADD13C,0.200000*%
%ADD14C,0.120000*%
%ADD15C,0.152400*%
%ADD16C,0.150000*%
%ADD17C,0.010000*%
G04 APERTURE END LIST*
D10*
D11*
X148022858Y-112438571D02*
X147522858Y-111724286D01*
X147165715Y-112438571D02*
X147165715Y-110938571D01*
X147737143Y-110938571D01*
X147880001Y-111010000D01*
X147951429Y-111081429D01*
X148022858Y-111224286D01*
X148022858Y-111438571D01*
X147951429Y-111581429D01*
X147880001Y-111652857D01*
X147737143Y-111724286D01*
X147165715Y-111724286D01*
X149237143Y-112367143D02*
X149094286Y-112438571D01*
X148808572Y-112438571D01*
X148665715Y-112367143D01*
X148594286Y-112224286D01*
X148594286Y-111652857D01*
X148665715Y-111510000D01*
X148808572Y-111438571D01*
X149094286Y-111438571D01*
X149237143Y-111510000D01*
X149308572Y-111652857D01*
X149308572Y-111795714D01*
X148594286Y-111938571D01*
X149808572Y-111438571D02*
X150165715Y-112438571D01*
X150522857Y-111438571D01*
X152165714Y-111081429D02*
X152237143Y-111010000D01*
X152380000Y-110938571D01*
X152737143Y-110938571D01*
X152880000Y-111010000D01*
X152951429Y-111081429D01*
X153022857Y-111224286D01*
X153022857Y-111367143D01*
X152951429Y-111581429D01*
X152094286Y-112438571D01*
X153022857Y-112438571D01*
X153665714Y-112295714D02*
X153737142Y-112367143D01*
X153665714Y-112438571D01*
X153594285Y-112367143D01*
X153665714Y-112295714D01*
X153665714Y-112438571D01*
X155165714Y-112438571D02*
X154308571Y-112438571D01*
X154737143Y-112438571D02*
X154737143Y-110938571D01*
X154594286Y-111152857D01*
X154451428Y-111295714D01*
X154308571Y-111367143D01*
X145209429Y-108652571D02*
X145566572Y-110152571D01*
X145852286Y-109081143D01*
X146138000Y-110152571D01*
X146495143Y-108652571D01*
X147066572Y-110152571D02*
X147066572Y-109152571D01*
X147066572Y-108652571D02*
X146995143Y-108724000D01*
X147066572Y-108795429D01*
X147138000Y-108724000D01*
X147066572Y-108652571D01*
X147066572Y-108795429D01*
X148280858Y-109366857D02*
X147780858Y-109366857D01*
X147780858Y-110152571D02*
X147780858Y-108652571D01*
X148495144Y-108652571D01*
X149066572Y-110152571D02*
X149066572Y-109152571D01*
X149066572Y-108652571D02*
X148995143Y-108724000D01*
X149066572Y-108795429D01*
X149138000Y-108724000D01*
X149066572Y-108652571D01*
X149066572Y-108795429D01*
X150923715Y-110152571D02*
X150923715Y-108652571D01*
X151423715Y-109724000D01*
X151923715Y-108652571D01*
X151923715Y-110152571D01*
X152852287Y-110152571D02*
X152709429Y-110081143D01*
X152638001Y-110009714D01*
X152566572Y-109866857D01*
X152566572Y-109438286D01*
X152638001Y-109295429D01*
X152709429Y-109224000D01*
X152852287Y-109152571D01*
X153066572Y-109152571D01*
X153209429Y-109224000D01*
X153280858Y-109295429D01*
X153352287Y-109438286D01*
X153352287Y-109866857D01*
X153280858Y-110009714D01*
X153209429Y-110081143D01*
X153066572Y-110152571D01*
X152852287Y-110152571D01*
X154638001Y-110152571D02*
X154638001Y-108652571D01*
X154638001Y-110081143D02*
X154495144Y-110152571D01*
X154209430Y-110152571D01*
X154066572Y-110081143D01*
X153995144Y-110009714D01*
X153923715Y-109866857D01*
X153923715Y-109438286D01*
X153995144Y-109295429D01*
X154066572Y-109224000D01*
X154209430Y-109152571D01*
X154495144Y-109152571D01*
X154638001Y-109224000D01*
X155923715Y-110081143D02*
X155780858Y-110152571D01*
X155495144Y-110152571D01*
X155352287Y-110081143D01*
X155280858Y-109938286D01*
X155280858Y-109366857D01*
X155352287Y-109224000D01*
X155495144Y-109152571D01*
X155780858Y-109152571D01*
X155923715Y-109224000D01*
X155995144Y-109366857D01*
X155995144Y-109509714D01*
X155280858Y-109652571D01*
X156638001Y-110152571D02*
X156638001Y-109152571D01*
X156638001Y-109295429D02*
X156709429Y-109224000D01*
X156852287Y-109152571D01*
X157066572Y-109152571D01*
X157209429Y-109224000D01*
X157280858Y-109366857D01*
X157280858Y-110152571D01*
X157280858Y-109366857D02*
X157352287Y-109224000D01*
X157495144Y-109152571D01*
X157709429Y-109152571D01*
X157852287Y-109224000D01*
X157923715Y-109366857D01*
X157923715Y-110152571D01*
D12*
X145399904Y-106791143D02*
X144733237Y-106791143D01*
X144733237Y-107838762D02*
X144733237Y-105838762D01*
X145685618Y-105838762D01*
X146447523Y-107838762D02*
X146447523Y-106505429D01*
X146447523Y-106886381D02*
X146542762Y-106695905D01*
X146638000Y-106600667D01*
X146828476Y-106505429D01*
X147018952Y-106505429D01*
X148447523Y-107743524D02*
X148257047Y-107838762D01*
X147876095Y-107838762D01*
X147685618Y-107743524D01*
X147590380Y-107553048D01*
X147590380Y-106791143D01*
X147685618Y-106600667D01*
X147876095Y-106505429D01*
X148257047Y-106505429D01*
X148447523Y-106600667D01*
X148542761Y-106791143D01*
X148542761Y-106981619D01*
X147590380Y-107172095D01*
X150161809Y-107743524D02*
X149971333Y-107838762D01*
X149590381Y-107838762D01*
X149399904Y-107743524D01*
X149304666Y-107553048D01*
X149304666Y-106791143D01*
X149399904Y-106600667D01*
X149590381Y-106505429D01*
X149971333Y-106505429D01*
X150161809Y-106600667D01*
X150257047Y-106791143D01*
X150257047Y-106981619D01*
X149304666Y-107172095D01*
X151780857Y-106791143D02*
X151114190Y-106791143D01*
X151114190Y-107838762D02*
X151114190Y-105838762D01*
X152066571Y-105838762D01*
X152828476Y-107838762D02*
X152828476Y-106505429D01*
X152828476Y-105838762D02*
X152733238Y-105934000D01*
X152828476Y-106029238D01*
X152923715Y-105934000D01*
X152828476Y-105838762D01*
X152828476Y-106029238D01*
X153685619Y-106029238D02*
X153780857Y-105934000D01*
X153971334Y-105838762D01*
X154447524Y-105838762D01*
X154638000Y-105934000D01*
X154733238Y-106029238D01*
X154828477Y-106219714D01*
X154828477Y-106410190D01*
X154733238Y-106695905D01*
X153590381Y-107838762D01*
X154828477Y-107838762D01*
X155495143Y-105838762D02*
X156733239Y-105838762D01*
X156066572Y-106600667D01*
X156352286Y-106600667D01*
X156542762Y-106695905D01*
X156638000Y-106791143D01*
X156733239Y-106981619D01*
X156733239Y-107457810D01*
X156638000Y-107648286D01*
X156542762Y-107743524D01*
X156352286Y-107838762D01*
X155780858Y-107838762D01*
X155590381Y-107743524D01*
X155495143Y-107648286D01*
X157495143Y-106029238D02*
X157590381Y-105934000D01*
X157780858Y-105838762D01*
X158257048Y-105838762D01*
X158447524Y-105934000D01*
X158542762Y-106029238D01*
X158638001Y-106219714D01*
X158638001Y-106410190D01*
X158542762Y-106695905D01*
X157399905Y-107838762D01*
X158638001Y-107838762D01*
D13*
X142748000Y-92456000D02*
G75*
G03X142748000Y-92456000I-508000J0D01*
G01*
D11*
X130937143Y-129806000D02*
X130794286Y-129734571D01*
X130580000Y-129734571D01*
X130365715Y-129806000D01*
X130222857Y-129948857D01*
X130151429Y-130091714D01*
X130080000Y-130377429D01*
X130080000Y-130591714D01*
X130151429Y-130877429D01*
X130222857Y-131020286D01*
X130365715Y-131163143D01*
X130580000Y-131234571D01*
X130722857Y-131234571D01*
X130937143Y-131163143D01*
X131008572Y-131091714D01*
X131008572Y-130591714D01*
X130722857Y-130591714D01*
X131651429Y-131234571D02*
X131651429Y-129734571D01*
X132508572Y-131234571D01*
X132508572Y-129734571D01*
X133222858Y-131234571D02*
X133222858Y-129734571D01*
X133580001Y-129734571D01*
X133794286Y-129806000D01*
X133937144Y-129948857D01*
X134008572Y-130091714D01*
X134080001Y-130377429D01*
X134080001Y-130591714D01*
X134008572Y-130877429D01*
X133937144Y-131020286D01*
X133794286Y-131163143D01*
X133580001Y-131234571D01*
X133222858Y-131234571D01*
X129897429Y-123043143D02*
X131040286Y-123043143D01*
X130468857Y-123614571D02*
X130468857Y-122471714D01*
X132468858Y-122114571D02*
X131754572Y-122114571D01*
X131683143Y-122828857D01*
X131754572Y-122757429D01*
X131897429Y-122686000D01*
X132254572Y-122686000D01*
X132397429Y-122757429D01*
X132468858Y-122828857D01*
X132540286Y-122971714D01*
X132540286Y-123328857D01*
X132468858Y-123471714D01*
X132397429Y-123543143D01*
X132254572Y-123614571D01*
X131897429Y-123614571D01*
X131754572Y-123543143D01*
X131683143Y-123471714D01*
X132968857Y-122114571D02*
X133468857Y-123614571D01*
X133968857Y-122114571D01*
X154539429Y-97198571D02*
X154039429Y-96484286D01*
X153682286Y-97198571D02*
X153682286Y-95698571D01*
X154253714Y-95698571D01*
X154396572Y-95770000D01*
X154468000Y-95841429D01*
X154539429Y-95984286D01*
X154539429Y-96198571D01*
X154468000Y-96341429D01*
X154396572Y-96412857D01*
X154253714Y-96484286D01*
X153682286Y-96484286D01*
X155182286Y-96412857D02*
X155682286Y-96412857D01*
X155896572Y-97198571D02*
X155182286Y-97198571D01*
X155182286Y-95698571D01*
X155896572Y-95698571D01*
X156468000Y-97127143D02*
X156682286Y-97198571D01*
X157039429Y-97198571D01*
X157182286Y-97127143D01*
X157253715Y-97055714D01*
X157325143Y-96912857D01*
X157325143Y-96770000D01*
X157253715Y-96627143D01*
X157182286Y-96555714D01*
X157039429Y-96484286D01*
X156753715Y-96412857D01*
X156610857Y-96341429D01*
X156539429Y-96270000D01*
X156468000Y-96127143D01*
X156468000Y-95984286D01*
X156539429Y-95841429D01*
X156610857Y-95770000D01*
X156753715Y-95698571D01*
X157110857Y-95698571D01*
X157325143Y-95770000D01*
X157968000Y-96412857D02*
X158468000Y-96412857D01*
X158682286Y-97198571D02*
X157968000Y-97198571D01*
X157968000Y-95698571D01*
X158682286Y-95698571D01*
X159110857Y-95698571D02*
X159968000Y-95698571D01*
X159539429Y-97198571D02*
X159539429Y-95698571D01*
X158944572Y-104310571D02*
X158444572Y-103596286D01*
X158087429Y-104310571D02*
X158087429Y-102810571D01*
X158658857Y-102810571D01*
X158801715Y-102882000D01*
X158873143Y-102953429D01*
X158944572Y-103096286D01*
X158944572Y-103310571D01*
X158873143Y-103453429D01*
X158801715Y-103524857D01*
X158658857Y-103596286D01*
X158087429Y-103596286D01*
X159373143Y-102810571D02*
X160230286Y-102810571D01*
X159801715Y-104310571D02*
X159801715Y-102810571D01*
X160658857Y-104239143D02*
X160873143Y-104310571D01*
X161230286Y-104310571D01*
X161373143Y-104239143D01*
X161444572Y-104167714D01*
X161516000Y-104024857D01*
X161516000Y-103882000D01*
X161444572Y-103739143D01*
X161373143Y-103667714D01*
X161230286Y-103596286D01*
X160944572Y-103524857D01*
X160801714Y-103453429D01*
X160730286Y-103382000D01*
X160658857Y-103239143D01*
X160658857Y-103096286D01*
X160730286Y-102953429D01*
X160801714Y-102882000D01*
X160944572Y-102810571D01*
X161301714Y-102810571D01*
X161516000Y-102882000D01*
X163195143Y-105676000D02*
X163052286Y-105604571D01*
X162838000Y-105604571D01*
X162623715Y-105676000D01*
X162480857Y-105818857D01*
X162409429Y-105961714D01*
X162338000Y-106247429D01*
X162338000Y-106461714D01*
X162409429Y-106747429D01*
X162480857Y-106890286D01*
X162623715Y-107033143D01*
X162838000Y-107104571D01*
X162980857Y-107104571D01*
X163195143Y-107033143D01*
X163266572Y-106961714D01*
X163266572Y-106461714D01*
X162980857Y-106461714D01*
X163909429Y-107104571D02*
X163909429Y-105604571D01*
X164766572Y-107104571D01*
X164766572Y-105604571D01*
X165480858Y-107104571D02*
X165480858Y-105604571D01*
X165838001Y-105604571D01*
X166052286Y-105676000D01*
X166195144Y-105818857D01*
X166266572Y-105961714D01*
X166338001Y-106247429D01*
X166338001Y-106461714D01*
X166266572Y-106747429D01*
X166195144Y-106890286D01*
X166052286Y-107033143D01*
X165838001Y-107104571D01*
X165480858Y-107104571D01*
X162877715Y-101770571D02*
X162877715Y-100270571D01*
X163234858Y-100270571D01*
X163449143Y-100342000D01*
X163592001Y-100484857D01*
X163663429Y-100627714D01*
X163734858Y-100913429D01*
X163734858Y-101127714D01*
X163663429Y-101413429D01*
X163592001Y-101556286D01*
X163449143Y-101699143D01*
X163234858Y-101770571D01*
X162877715Y-101770571D01*
X164163429Y-100270571D02*
X165020572Y-100270571D01*
X164592001Y-101770571D02*
X164592001Y-100270571D01*
X166377715Y-101770571D02*
X165877715Y-101056286D01*
X165520572Y-101770571D02*
X165520572Y-100270571D01*
X166092000Y-100270571D01*
X166234858Y-100342000D01*
X166306286Y-100413429D01*
X166377715Y-100556286D01*
X166377715Y-100770571D01*
X166306286Y-100913429D01*
X166234858Y-100984857D01*
X166092000Y-101056286D01*
X165520572Y-101056286D01*
X164850001Y-99230571D02*
X164350001Y-98516286D01*
X163992858Y-99230571D02*
X163992858Y-97730571D01*
X164564286Y-97730571D01*
X164707144Y-97802000D01*
X164778572Y-97873429D01*
X164850001Y-98016286D01*
X164850001Y-98230571D01*
X164778572Y-98373429D01*
X164707144Y-98444857D01*
X164564286Y-98516286D01*
X163992858Y-98516286D01*
X165350001Y-97730571D02*
X166350001Y-99230571D01*
X166350001Y-97730571D02*
X165350001Y-99230571D01*
X163957143Y-95190571D02*
X164814286Y-95190571D01*
X164385715Y-96690571D02*
X164385715Y-95190571D01*
X165171429Y-95190571D02*
X166171429Y-96690571D01*
X166171429Y-95190571D02*
X165171429Y-96690571D01*
X162544286Y-90843571D02*
X162544286Y-89343571D01*
X162544286Y-90057857D02*
X163401429Y-90057857D01*
X163401429Y-90843571D02*
X163401429Y-89343571D01*
X163972858Y-89343571D02*
X164330001Y-90843571D01*
X164615715Y-89772143D01*
X164901429Y-90843571D01*
X165258572Y-89343571D01*
X161794286Y-92607857D02*
X161294286Y-92607857D01*
X161294286Y-93393571D02*
X161294286Y-91893571D01*
X162008572Y-91893571D01*
X163294286Y-93393571D02*
X162580000Y-93393571D01*
X162580000Y-91893571D01*
X164080000Y-91893571D02*
X164365714Y-91893571D01*
X164508572Y-91965000D01*
X164651429Y-92107857D01*
X164722857Y-92393571D01*
X164722857Y-92893571D01*
X164651429Y-93179286D01*
X164508572Y-93322143D01*
X164365714Y-93393571D01*
X164080000Y-93393571D01*
X163937143Y-93322143D01*
X163794286Y-93179286D01*
X163722857Y-92893571D01*
X163722857Y-92393571D01*
X163794286Y-92107857D01*
X163937143Y-91965000D01*
X164080000Y-91893571D01*
X165222858Y-91893571D02*
X165580001Y-93393571D01*
X165865715Y-92322143D01*
X166151429Y-93393571D01*
X166508572Y-91893571D01*
D14*
X139369329Y-116112843D02*
X139369329Y-114852843D01*
X139369329Y-109292843D02*
X139369329Y-110552843D01*
X135609329Y-116112843D02*
X139369329Y-116112843D01*
X133359329Y-109292843D02*
X139369329Y-109292843D01*
D15*
X167386000Y-115443000D02*
X167386000Y-114681000D01*
X167386000Y-114681000D02*
X151384000Y-114681000D01*
X151384000Y-114681000D02*
X151384000Y-115443000D01*
D16*
X143206000Y-91105000D02*
X142631000Y-91105000D01*
X143206000Y-96855000D02*
X142556000Y-96855000D01*
X132556000Y-96855000D02*
X133206000Y-96855000D01*
X132556000Y-91105000D02*
X133206000Y-91105000D01*
X143206000Y-91105000D02*
X143206000Y-96855000D01*
X132556000Y-91105000D02*
X132556000Y-96855000D01*
X142631000Y-91105000D02*
X142631000Y-89505000D01*
X146105500Y-90766000D02*
X147105500Y-90766000D01*
X147105500Y-89066000D02*
X146105500Y-89066000D01*
X141025500Y-88226000D02*
X142025500Y-88226000D01*
X142025500Y-86526000D02*
X141025500Y-86526000D01*
X140771500Y-104101000D02*
X141771500Y-104101000D01*
X141771500Y-102401000D02*
X140771500Y-102401000D01*
X144200500Y-101180000D02*
X145200500Y-101180000D01*
X145200500Y-99480000D02*
X144200500Y-99480000D01*
X138962000Y-100672000D02*
X139962000Y-100672000D01*
X139962000Y-98972000D02*
X138962000Y-98972000D01*
D14*
X139394329Y-120053843D02*
X134844329Y-120053843D01*
X139394329Y-116753843D02*
X134844329Y-116753843D01*
X139394329Y-120053843D02*
X139394329Y-116753843D01*
D16*
X167902000Y-111672000D02*
X166902000Y-111672000D01*
X166902000Y-113372000D02*
X167902000Y-113372000D01*
D14*
X139396329Y-108560343D02*
X134846329Y-108560343D01*
X139396329Y-105260343D02*
X134846329Y-105260343D01*
X139396329Y-108560343D02*
X139396329Y-105260343D01*
X135880000Y-122022500D02*
X135880000Y-123722500D01*
X135880000Y-123722500D02*
X138430000Y-123722500D01*
X135880000Y-122022500D02*
X138430000Y-122022500D01*
D16*
X168910000Y-78232000D02*
X168910000Y-79883000D01*
X168910000Y-79883000D02*
X167513000Y-79883000D01*
X130810000Y-78232000D02*
X130810000Y-79756000D01*
X130810000Y-79756000D02*
X132080000Y-79756000D01*
X170180000Y-78232000D02*
X129540000Y-78232000D01*
X129540000Y-78232000D02*
X129540000Y-74422000D01*
X129540000Y-74422000D02*
X170180000Y-74422000D01*
X170180000Y-74422000D02*
X170180000Y-78232000D01*
X129540000Y-74422000D02*
X124460000Y-74422000D01*
X124460000Y-74422000D02*
X124460000Y-73152000D01*
X124460000Y-73152000D02*
X175260000Y-73152000D01*
X175260000Y-73152000D02*
X175260000Y-74422000D01*
X175260000Y-74422000D02*
X170180000Y-74422000D01*
X129540000Y-73152000D02*
X129540000Y-67437000D01*
X129540000Y-67437000D02*
X170180000Y-67437000D01*
X170180000Y-67437000D02*
X170180000Y-73152000D01*
D14*
X166564000Y-107502000D02*
X169224000Y-107502000D01*
X166564000Y-97282000D02*
X166564000Y-107502000D01*
X169224000Y-97282000D02*
X169224000Y-107502000D01*
X166564000Y-97282000D02*
X169224000Y-97282000D01*
X166564000Y-96012000D02*
X166564000Y-94682000D01*
X166564000Y-94682000D02*
X167894000Y-94682000D01*
X166564000Y-91246000D02*
X169224000Y-91246000D01*
X166564000Y-88646000D02*
X166564000Y-91246000D01*
X169224000Y-88646000D02*
X169224000Y-91246000D01*
X166564000Y-88646000D02*
X169224000Y-88646000D01*
X166564000Y-87376000D02*
X166564000Y-86046000D01*
X166564000Y-86046000D02*
X167894000Y-86046000D01*
D16*
X135406000Y-131712000D02*
X144106000Y-131712000D01*
X135406000Y-125307000D02*
X144106000Y-125307000D01*
X144106000Y-125307000D02*
X144106000Y-131712000D01*
X144106000Y-130482000D02*
X135406000Y-130482000D01*
X135406000Y-131712000D02*
X135406000Y-125307000D01*
D14*
X130750000Y-129092000D02*
X133410000Y-129092000D01*
X130750000Y-126492000D02*
X130750000Y-129092000D01*
X133410000Y-126492000D02*
X133410000Y-129092000D01*
X130750000Y-126492000D02*
X133410000Y-126492000D01*
X130750000Y-125222000D02*
X130750000Y-123892000D01*
X130750000Y-123892000D02*
X132080000Y-123892000D01*
D16*
X162275000Y-108726000D02*
X163475000Y-108726000D01*
X163475000Y-110476000D02*
X162275000Y-110476000D01*
X164115000Y-104507000D02*
X162915000Y-104507000D01*
X162915000Y-102757000D02*
X164115000Y-102757000D01*
X164115000Y-88251000D02*
X162915000Y-88251000D01*
X162915000Y-86501000D02*
X164115000Y-86501000D01*
X147668500Y-119175500D02*
X146468500Y-119175500D01*
X146468500Y-117425500D02*
X147668500Y-117425500D01*
X146468500Y-127522000D02*
X147668500Y-127522000D01*
X147668500Y-129272000D02*
X146468500Y-129272000D01*
X146468500Y-121426000D02*
X147668500Y-121426000D01*
X147668500Y-123176000D02*
X146468500Y-123176000D01*
X157592026Y-93371500D02*
G75*
G03X157592026Y-93371500I-898026J0D01*
G01*
X158444000Y-94821500D02*
X158444000Y-91921500D01*
X154944000Y-94821500D02*
X158444000Y-94821500D01*
X158444000Y-91921500D02*
X154944000Y-91921500D01*
X154944000Y-91921500D02*
X154954000Y-94821500D01*
D17*
G36*
X152955814Y-99322931D02*
X153039635Y-99767555D01*
X153348920Y-99895053D01*
X153658206Y-100022551D01*
X154029246Y-99770246D01*
X154133157Y-99699996D01*
X154227087Y-99637272D01*
X154306652Y-99584938D01*
X154367470Y-99545857D01*
X154405157Y-99522893D01*
X154415421Y-99517942D01*
X154433910Y-99530676D01*
X154473420Y-99565882D01*
X154529522Y-99619062D01*
X154597787Y-99685718D01*
X154673786Y-99761354D01*
X154753092Y-99841472D01*
X154831275Y-99921574D01*
X154903907Y-99997164D01*
X154966559Y-100063745D01*
X155014803Y-100116818D01*
X155044210Y-100151887D01*
X155051241Y-100163623D01*
X155041123Y-100185260D01*
X155012759Y-100232662D01*
X154969129Y-100301193D01*
X154913218Y-100386215D01*
X154848006Y-100483093D01*
X154810219Y-100538350D01*
X154741343Y-100639248D01*
X154680140Y-100730299D01*
X154629578Y-100806970D01*
X154592628Y-100864728D01*
X154572258Y-100899043D01*
X154569197Y-100906254D01*
X154576136Y-100926748D01*
X154595051Y-100974513D01*
X154623087Y-101042832D01*
X154657391Y-101124989D01*
X154695109Y-101214270D01*
X154733387Y-101303958D01*
X154769370Y-101387338D01*
X154800206Y-101457694D01*
X154823039Y-101508310D01*
X154835017Y-101532471D01*
X154835724Y-101533422D01*
X154854531Y-101538036D01*
X154904618Y-101548328D01*
X154980793Y-101563287D01*
X155077865Y-101581901D01*
X155190643Y-101603159D01*
X155256442Y-101615418D01*
X155376950Y-101638362D01*
X155485797Y-101660195D01*
X155577476Y-101679722D01*
X155646481Y-101695748D01*
X155687304Y-101707079D01*
X155695511Y-101710674D01*
X155703548Y-101735006D01*
X155710033Y-101789959D01*
X155714970Y-101869108D01*
X155718364Y-101966026D01*
X155720218Y-102074287D01*
X155720538Y-102187465D01*
X155719327Y-102299135D01*
X155716590Y-102402868D01*
X155712331Y-102492241D01*
X155706555Y-102560826D01*
X155699267Y-102602197D01*
X155694895Y-102610810D01*
X155668764Y-102621133D01*
X155613393Y-102635892D01*
X155536107Y-102653352D01*
X155444230Y-102671780D01*
X155412158Y-102677741D01*
X155257524Y-102706066D01*
X155135375Y-102728876D01*
X155041673Y-102747080D01*
X154972384Y-102761583D01*
X154923471Y-102773292D01*
X154890897Y-102783115D01*
X154870628Y-102791956D01*
X154858626Y-102800724D01*
X154856947Y-102802457D01*
X154840184Y-102830371D01*
X154814614Y-102884695D01*
X154782788Y-102958777D01*
X154747260Y-103045965D01*
X154710583Y-103139608D01*
X154675311Y-103233052D01*
X154643996Y-103319647D01*
X154619193Y-103392740D01*
X154603454Y-103445678D01*
X154599332Y-103471811D01*
X154599676Y-103472726D01*
X154613641Y-103494086D01*
X154645322Y-103541084D01*
X154691391Y-103608827D01*
X154748518Y-103692423D01*
X154813373Y-103786982D01*
X154831843Y-103813854D01*
X154897699Y-103911275D01*
X154955650Y-104000163D01*
X155002538Y-104075412D01*
X155035207Y-104131920D01*
X155050500Y-104164581D01*
X155051241Y-104168593D01*
X155038392Y-104189684D01*
X155002888Y-104231464D01*
X154949293Y-104289445D01*
X154882171Y-104359135D01*
X154806087Y-104436045D01*
X154725604Y-104515683D01*
X154645287Y-104593561D01*
X154569699Y-104665186D01*
X154503405Y-104726070D01*
X154450969Y-104771721D01*
X154416955Y-104797650D01*
X154407545Y-104801883D01*
X154385643Y-104791912D01*
X154340800Y-104765020D01*
X154280321Y-104725736D01*
X154233789Y-104694117D01*
X154149475Y-104636098D01*
X154049626Y-104567784D01*
X153949473Y-104499579D01*
X153895627Y-104463075D01*
X153713371Y-104339800D01*
X153560381Y-104422520D01*
X153490682Y-104458759D01*
X153431414Y-104486926D01*
X153391311Y-104502991D01*
X153381103Y-104505226D01*
X153368829Y-104488722D01*
X153344613Y-104442082D01*
X153310263Y-104369609D01*
X153267588Y-104275606D01*
X153218394Y-104164374D01*
X153164490Y-104040215D01*
X153107684Y-103907432D01*
X153049782Y-103770327D01*
X152992593Y-103633202D01*
X152937924Y-103500358D01*
X152887584Y-103376098D01*
X152843380Y-103264725D01*
X152807119Y-103170539D01*
X152780609Y-103097844D01*
X152765658Y-103050941D01*
X152763254Y-103034833D01*
X152782311Y-103014286D01*
X152824036Y-102980933D01*
X152879706Y-102941702D01*
X152884378Y-102938599D01*
X153028264Y-102823423D01*
X153144283Y-102689053D01*
X153231430Y-102539784D01*
X153288699Y-102379913D01*
X153315086Y-102213737D01*
X153309585Y-102045552D01*
X153271190Y-101879655D01*
X153198895Y-101720342D01*
X153177626Y-101685487D01*
X153066996Y-101544737D01*
X152936302Y-101431714D01*
X152790064Y-101347003D01*
X152632808Y-101291194D01*
X152469057Y-101264874D01*
X152303333Y-101268630D01*
X152140162Y-101303050D01*
X151984065Y-101368723D01*
X151839567Y-101466235D01*
X151794869Y-101505813D01*
X151681112Y-101629703D01*
X151598218Y-101760124D01*
X151541356Y-101906315D01*
X151509687Y-102051088D01*
X151501869Y-102213860D01*
X151527938Y-102377440D01*
X151585245Y-102536298D01*
X151671144Y-102684906D01*
X151782986Y-102817735D01*
X151918123Y-102929256D01*
X151935883Y-102941011D01*
X151992150Y-102979508D01*
X152034923Y-103012863D01*
X152055372Y-103034160D01*
X152055669Y-103034833D01*
X152051279Y-103057871D01*
X152033876Y-103110157D01*
X152005268Y-103187390D01*
X151967265Y-103285268D01*
X151921674Y-103399491D01*
X151870303Y-103525758D01*
X151814962Y-103659767D01*
X151757458Y-103797218D01*
X151699601Y-103933808D01*
X151643198Y-104065237D01*
X151590058Y-104187205D01*
X151541990Y-104295409D01*
X151500801Y-104385549D01*
X151468301Y-104453323D01*
X151446297Y-104494430D01*
X151437436Y-104505226D01*
X151410360Y-104496819D01*
X151359697Y-104474272D01*
X151294183Y-104441613D01*
X151258159Y-104422520D01*
X151105168Y-104339800D01*
X150922912Y-104463075D01*
X150829875Y-104526228D01*
X150728015Y-104595727D01*
X150632562Y-104661165D01*
X150584750Y-104694117D01*
X150517505Y-104739273D01*
X150460564Y-104775057D01*
X150421354Y-104796938D01*
X150408619Y-104801563D01*
X150390083Y-104789085D01*
X150349059Y-104754252D01*
X150289525Y-104700678D01*
X150215458Y-104631983D01*
X150130835Y-104551781D01*
X150077315Y-104500286D01*
X149983681Y-104408286D01*
X149902759Y-104325999D01*
X149837823Y-104256945D01*
X149792142Y-104204644D01*
X149768989Y-104172616D01*
X149766768Y-104166116D01*
X149777076Y-104141394D01*
X149805561Y-104091405D01*
X149849063Y-104021212D01*
X149904423Y-103935875D01*
X149968480Y-103840456D01*
X149986697Y-103813854D01*
X150053073Y-103717167D01*
X150112622Y-103630117D01*
X150162016Y-103557595D01*
X150197925Y-103504493D01*
X150217019Y-103475703D01*
X150218864Y-103472726D01*
X150216105Y-103449782D01*
X150201462Y-103399336D01*
X150177487Y-103328041D01*
X150146734Y-103242547D01*
X150111756Y-103149507D01*
X150075107Y-103055574D01*
X150039339Y-102967399D01*
X150007006Y-102891634D01*
X149980662Y-102834931D01*
X149962858Y-102803943D01*
X149961593Y-102802457D01*
X149950706Y-102793601D01*
X149932318Y-102784843D01*
X149902394Y-102775277D01*
X149856897Y-102763996D01*
X149791791Y-102750093D01*
X149703039Y-102732663D01*
X149586607Y-102710798D01*
X149438458Y-102683591D01*
X149406382Y-102677741D01*
X149311314Y-102659374D01*
X149228435Y-102641405D01*
X149165070Y-102625569D01*
X149128542Y-102613600D01*
X149123644Y-102610810D01*
X149115573Y-102586072D01*
X149109013Y-102530790D01*
X149103967Y-102451389D01*
X149100441Y-102354296D01*
X149098439Y-102245938D01*
X149097964Y-102132740D01*
X149099023Y-102021128D01*
X149101618Y-101917529D01*
X149105754Y-101828368D01*
X149111437Y-101760072D01*
X149118669Y-101719066D01*
X149123029Y-101710674D01*
X149147302Y-101702208D01*
X149202574Y-101688435D01*
X149283338Y-101670550D01*
X149384088Y-101649748D01*
X149499317Y-101627223D01*
X149562098Y-101615418D01*
X149681213Y-101593151D01*
X149787435Y-101572979D01*
X149875573Y-101555915D01*
X149940434Y-101542969D01*
X149976826Y-101535155D01*
X149982816Y-101533422D01*
X149992939Y-101513890D01*
X150014338Y-101466843D01*
X150044161Y-101399003D01*
X150079555Y-101317091D01*
X150117668Y-101227828D01*
X150155647Y-101137935D01*
X150190640Y-101054135D01*
X150219794Y-100983147D01*
X150240257Y-100931694D01*
X150249177Y-100906497D01*
X150249343Y-100905396D01*
X150239231Y-100885519D01*
X150210883Y-100839777D01*
X150167277Y-100772717D01*
X150111394Y-100688884D01*
X150046213Y-100592826D01*
X150008321Y-100537650D01*
X149939275Y-100436481D01*
X149877950Y-100344630D01*
X149827337Y-100266744D01*
X149790429Y-100207469D01*
X149770218Y-100171451D01*
X149767299Y-100163377D01*
X149779847Y-100144584D01*
X149814537Y-100104457D01*
X149866937Y-100047493D01*
X149932616Y-99978185D01*
X150007144Y-99901031D01*
X150086087Y-99820525D01*
X150165017Y-99741163D01*
X150239500Y-99667440D01*
X150305106Y-99603852D01*
X150357404Y-99554894D01*
X150391961Y-99525061D01*
X150403522Y-99517942D01*
X150422346Y-99527953D01*
X150467369Y-99556078D01*
X150534213Y-99599454D01*
X150618501Y-99655218D01*
X150715856Y-99720506D01*
X150789293Y-99770246D01*
X151160333Y-100022551D01*
X151778905Y-99767555D01*
X151862725Y-99322931D01*
X151946546Y-98878307D01*
X152871994Y-98878307D01*
X152955814Y-99322931D01*
X152955814Y-99322931D01*
G37*
X152955814Y-99322931D02*
X153039635Y-99767555D01*
X153348920Y-99895053D01*
X153658206Y-100022551D01*
X154029246Y-99770246D01*
X154133157Y-99699996D01*
X154227087Y-99637272D01*
X154306652Y-99584938D01*
X154367470Y-99545857D01*
X154405157Y-99522893D01*
X154415421Y-99517942D01*
X154433910Y-99530676D01*
X154473420Y-99565882D01*
X154529522Y-99619062D01*
X154597787Y-99685718D01*
X154673786Y-99761354D01*
X154753092Y-99841472D01*
X154831275Y-99921574D01*
X154903907Y-99997164D01*
X154966559Y-100063745D01*
X155014803Y-100116818D01*
X155044210Y-100151887D01*
X155051241Y-100163623D01*
X155041123Y-100185260D01*
X155012759Y-100232662D01*
X154969129Y-100301193D01*
X154913218Y-100386215D01*
X154848006Y-100483093D01*
X154810219Y-100538350D01*
X154741343Y-100639248D01*
X154680140Y-100730299D01*
X154629578Y-100806970D01*
X154592628Y-100864728D01*
X154572258Y-100899043D01*
X154569197Y-100906254D01*
X154576136Y-100926748D01*
X154595051Y-100974513D01*
X154623087Y-101042832D01*
X154657391Y-101124989D01*
X154695109Y-101214270D01*
X154733387Y-101303958D01*
X154769370Y-101387338D01*
X154800206Y-101457694D01*
X154823039Y-101508310D01*
X154835017Y-101532471D01*
X154835724Y-101533422D01*
X154854531Y-101538036D01*
X154904618Y-101548328D01*
X154980793Y-101563287D01*
X155077865Y-101581901D01*
X155190643Y-101603159D01*
X155256442Y-101615418D01*
X155376950Y-101638362D01*
X155485797Y-101660195D01*
X155577476Y-101679722D01*
X155646481Y-101695748D01*
X155687304Y-101707079D01*
X155695511Y-101710674D01*
X155703548Y-101735006D01*
X155710033Y-101789959D01*
X155714970Y-101869108D01*
X155718364Y-101966026D01*
X155720218Y-102074287D01*
X155720538Y-102187465D01*
X155719327Y-102299135D01*
X155716590Y-102402868D01*
X155712331Y-102492241D01*
X155706555Y-102560826D01*
X155699267Y-102602197D01*
X155694895Y-102610810D01*
X155668764Y-102621133D01*
X155613393Y-102635892D01*
X155536107Y-102653352D01*
X155444230Y-102671780D01*
X155412158Y-102677741D01*
X155257524Y-102706066D01*
X155135375Y-102728876D01*
X155041673Y-102747080D01*
X154972384Y-102761583D01*
X154923471Y-102773292D01*
X154890897Y-102783115D01*
X154870628Y-102791956D01*
X154858626Y-102800724D01*
X154856947Y-102802457D01*
X154840184Y-102830371D01*
X154814614Y-102884695D01*
X154782788Y-102958777D01*
X154747260Y-103045965D01*
X154710583Y-103139608D01*
X154675311Y-103233052D01*
X154643996Y-103319647D01*
X154619193Y-103392740D01*
X154603454Y-103445678D01*
X154599332Y-103471811D01*
X154599676Y-103472726D01*
X154613641Y-103494086D01*
X154645322Y-103541084D01*
X154691391Y-103608827D01*
X154748518Y-103692423D01*
X154813373Y-103786982D01*
X154831843Y-103813854D01*
X154897699Y-103911275D01*
X154955650Y-104000163D01*
X155002538Y-104075412D01*
X155035207Y-104131920D01*
X155050500Y-104164581D01*
X155051241Y-104168593D01*
X155038392Y-104189684D01*
X155002888Y-104231464D01*
X154949293Y-104289445D01*
X154882171Y-104359135D01*
X154806087Y-104436045D01*
X154725604Y-104515683D01*
X154645287Y-104593561D01*
X154569699Y-104665186D01*
X154503405Y-104726070D01*
X154450969Y-104771721D01*
X154416955Y-104797650D01*
X154407545Y-104801883D01*
X154385643Y-104791912D01*
X154340800Y-104765020D01*
X154280321Y-104725736D01*
X154233789Y-104694117D01*
X154149475Y-104636098D01*
X154049626Y-104567784D01*
X153949473Y-104499579D01*
X153895627Y-104463075D01*
X153713371Y-104339800D01*
X153560381Y-104422520D01*
X153490682Y-104458759D01*
X153431414Y-104486926D01*
X153391311Y-104502991D01*
X153381103Y-104505226D01*
X153368829Y-104488722D01*
X153344613Y-104442082D01*
X153310263Y-104369609D01*
X153267588Y-104275606D01*
X153218394Y-104164374D01*
X153164490Y-104040215D01*
X153107684Y-103907432D01*
X153049782Y-103770327D01*
X152992593Y-103633202D01*
X152937924Y-103500358D01*
X152887584Y-103376098D01*
X152843380Y-103264725D01*
X152807119Y-103170539D01*
X152780609Y-103097844D01*
X152765658Y-103050941D01*
X152763254Y-103034833D01*
X152782311Y-103014286D01*
X152824036Y-102980933D01*
X152879706Y-102941702D01*
X152884378Y-102938599D01*
X153028264Y-102823423D01*
X153144283Y-102689053D01*
X153231430Y-102539784D01*
X153288699Y-102379913D01*
X153315086Y-102213737D01*
X153309585Y-102045552D01*
X153271190Y-101879655D01*
X153198895Y-101720342D01*
X153177626Y-101685487D01*
X153066996Y-101544737D01*
X152936302Y-101431714D01*
X152790064Y-101347003D01*
X152632808Y-101291194D01*
X152469057Y-101264874D01*
X152303333Y-101268630D01*
X152140162Y-101303050D01*
X151984065Y-101368723D01*
X151839567Y-101466235D01*
X151794869Y-101505813D01*
X151681112Y-101629703D01*
X151598218Y-101760124D01*
X151541356Y-101906315D01*
X151509687Y-102051088D01*
X151501869Y-102213860D01*
X151527938Y-102377440D01*
X151585245Y-102536298D01*
X151671144Y-102684906D01*
X151782986Y-102817735D01*
X151918123Y-102929256D01*
X151935883Y-102941011D01*
X151992150Y-102979508D01*
X152034923Y-103012863D01*
X152055372Y-103034160D01*
X152055669Y-103034833D01*
X152051279Y-103057871D01*
X152033876Y-103110157D01*
X152005268Y-103187390D01*
X151967265Y-103285268D01*
X151921674Y-103399491D01*
X151870303Y-103525758D01*
X151814962Y-103659767D01*
X151757458Y-103797218D01*
X151699601Y-103933808D01*
X151643198Y-104065237D01*
X151590058Y-104187205D01*
X151541990Y-104295409D01*
X151500801Y-104385549D01*
X151468301Y-104453323D01*
X151446297Y-104494430D01*
X151437436Y-104505226D01*
X151410360Y-104496819D01*
X151359697Y-104474272D01*
X151294183Y-104441613D01*
X151258159Y-104422520D01*
X151105168Y-104339800D01*
X150922912Y-104463075D01*
X150829875Y-104526228D01*
X150728015Y-104595727D01*
X150632562Y-104661165D01*
X150584750Y-104694117D01*
X150517505Y-104739273D01*
X150460564Y-104775057D01*
X150421354Y-104796938D01*
X150408619Y-104801563D01*
X150390083Y-104789085D01*
X150349059Y-104754252D01*
X150289525Y-104700678D01*
X150215458Y-104631983D01*
X150130835Y-104551781D01*
X150077315Y-104500286D01*
X149983681Y-104408286D01*
X149902759Y-104325999D01*
X149837823Y-104256945D01*
X149792142Y-104204644D01*
X149768989Y-104172616D01*
X149766768Y-104166116D01*
X149777076Y-104141394D01*
X149805561Y-104091405D01*
X149849063Y-104021212D01*
X149904423Y-103935875D01*
X149968480Y-103840456D01*
X149986697Y-103813854D01*
X150053073Y-103717167D01*
X150112622Y-103630117D01*
X150162016Y-103557595D01*
X150197925Y-103504493D01*
X150217019Y-103475703D01*
X150218864Y-103472726D01*
X150216105Y-103449782D01*
X150201462Y-103399336D01*
X150177487Y-103328041D01*
X150146734Y-103242547D01*
X150111756Y-103149507D01*
X150075107Y-103055574D01*
X150039339Y-102967399D01*
X150007006Y-102891634D01*
X149980662Y-102834931D01*
X149962858Y-102803943D01*
X149961593Y-102802457D01*
X149950706Y-102793601D01*
X149932318Y-102784843D01*
X149902394Y-102775277D01*
X149856897Y-102763996D01*
X149791791Y-102750093D01*
X149703039Y-102732663D01*
X149586607Y-102710798D01*
X149438458Y-102683591D01*
X149406382Y-102677741D01*
X149311314Y-102659374D01*
X149228435Y-102641405D01*
X149165070Y-102625569D01*
X149128542Y-102613600D01*
X149123644Y-102610810D01*
X149115573Y-102586072D01*
X149109013Y-102530790D01*
X149103967Y-102451389D01*
X149100441Y-102354296D01*
X149098439Y-102245938D01*
X149097964Y-102132740D01*
X149099023Y-102021128D01*
X149101618Y-101917529D01*
X149105754Y-101828368D01*
X149111437Y-101760072D01*
X149118669Y-101719066D01*
X149123029Y-101710674D01*
X149147302Y-101702208D01*
X149202574Y-101688435D01*
X149283338Y-101670550D01*
X149384088Y-101649748D01*
X149499317Y-101627223D01*
X149562098Y-101615418D01*
X149681213Y-101593151D01*
X149787435Y-101572979D01*
X149875573Y-101555915D01*
X149940434Y-101542969D01*
X149976826Y-101535155D01*
X149982816Y-101533422D01*
X149992939Y-101513890D01*
X150014338Y-101466843D01*
X150044161Y-101399003D01*
X150079555Y-101317091D01*
X150117668Y-101227828D01*
X150155647Y-101137935D01*
X150190640Y-101054135D01*
X150219794Y-100983147D01*
X150240257Y-100931694D01*
X150249177Y-100906497D01*
X150249343Y-100905396D01*
X150239231Y-100885519D01*
X150210883Y-100839777D01*
X150167277Y-100772717D01*
X150111394Y-100688884D01*
X150046213Y-100592826D01*
X150008321Y-100537650D01*
X149939275Y-100436481D01*
X149877950Y-100344630D01*
X149827337Y-100266744D01*
X149790429Y-100207469D01*
X149770218Y-100171451D01*
X149767299Y-100163377D01*
X149779847Y-100144584D01*
X149814537Y-100104457D01*
X149866937Y-100047493D01*
X149932616Y-99978185D01*
X150007144Y-99901031D01*
X150086087Y-99820525D01*
X150165017Y-99741163D01*
X150239500Y-99667440D01*
X150305106Y-99603852D01*
X150357404Y-99554894D01*
X150391961Y-99525061D01*
X150403522Y-99517942D01*
X150422346Y-99527953D01*
X150467369Y-99556078D01*
X150534213Y-99599454D01*
X150618501Y-99655218D01*
X150715856Y-99720506D01*
X150789293Y-99770246D01*
X151160333Y-100022551D01*
X151778905Y-99767555D01*
X151862725Y-99322931D01*
X151946546Y-98878307D01*
X152871994Y-98878307D01*
X152955814Y-99322931D01*
D16*
X131191095Y-112228381D02*
X131191095Y-113037905D01*
X131238714Y-113133143D01*
X131286333Y-113180762D01*
X131381571Y-113228381D01*
X131572048Y-113228381D01*
X131667286Y-113180762D01*
X131714905Y-113133143D01*
X131762524Y-113037905D01*
X131762524Y-112228381D01*
X132143476Y-112228381D02*
X132762524Y-112228381D01*
X132429190Y-112609333D01*
X132572048Y-112609333D01*
X132667286Y-112656952D01*
X132714905Y-112704571D01*
X132762524Y-112799810D01*
X132762524Y-113037905D01*
X132714905Y-113133143D01*
X132667286Y-113180762D01*
X132572048Y-113228381D01*
X132286333Y-113228381D01*
X132191095Y-113180762D01*
X132143476Y-113133143D01*
X156932381Y-124713905D02*
X157741905Y-124713905D01*
X157837143Y-124666286D01*
X157884762Y-124618667D01*
X157932381Y-124523429D01*
X157932381Y-124332952D01*
X157884762Y-124237714D01*
X157837143Y-124190095D01*
X157741905Y-124142476D01*
X156932381Y-124142476D01*
X157027619Y-123713905D02*
X156980000Y-123666286D01*
X156932381Y-123571048D01*
X156932381Y-123332952D01*
X156980000Y-123237714D01*
X157027619Y-123190095D01*
X157122857Y-123142476D01*
X157218095Y-123142476D01*
X157360952Y-123190095D01*
X157932381Y-123761524D01*
X157932381Y-123142476D01*
X143583381Y-94741905D02*
X144392905Y-94741905D01*
X144488143Y-94694286D01*
X144535762Y-94646667D01*
X144583381Y-94551429D01*
X144583381Y-94360952D01*
X144535762Y-94265714D01*
X144488143Y-94218095D01*
X144392905Y-94170476D01*
X143583381Y-94170476D01*
X144583381Y-93170476D02*
X144583381Y-93741905D01*
X144583381Y-93456191D02*
X143583381Y-93456191D01*
X143726238Y-93551429D01*
X143821476Y-93646667D01*
X143869095Y-93741905D01*
X149693334Y-90273143D02*
X149645715Y-90320762D01*
X149502858Y-90368381D01*
X149407620Y-90368381D01*
X149264762Y-90320762D01*
X149169524Y-90225524D01*
X149121905Y-90130286D01*
X149074286Y-89939810D01*
X149074286Y-89796952D01*
X149121905Y-89606476D01*
X149169524Y-89511238D01*
X149264762Y-89416000D01*
X149407620Y-89368381D01*
X149502858Y-89368381D01*
X149645715Y-89416000D01*
X149693334Y-89463619D01*
X150645715Y-90368381D02*
X150074286Y-90368381D01*
X150360000Y-90368381D02*
X150360000Y-89368381D01*
X150264762Y-89511238D01*
X150169524Y-89606476D01*
X150074286Y-89654095D01*
X144390834Y-87733143D02*
X144343215Y-87780762D01*
X144200358Y-87828381D01*
X144105120Y-87828381D01*
X143962262Y-87780762D01*
X143867024Y-87685524D01*
X143819405Y-87590286D01*
X143771786Y-87399810D01*
X143771786Y-87256952D01*
X143819405Y-87066476D01*
X143867024Y-86971238D01*
X143962262Y-86876000D01*
X144105120Y-86828381D01*
X144200358Y-86828381D01*
X144343215Y-86876000D01*
X144390834Y-86923619D01*
X144771786Y-86923619D02*
X144819405Y-86876000D01*
X144914643Y-86828381D01*
X145152739Y-86828381D01*
X145247977Y-86876000D01*
X145295596Y-86923619D01*
X145343215Y-87018857D01*
X145343215Y-87114095D01*
X145295596Y-87256952D01*
X144724167Y-87828381D01*
X145343215Y-87828381D01*
X143978334Y-103862143D02*
X143930715Y-103909762D01*
X143787858Y-103957381D01*
X143692620Y-103957381D01*
X143549762Y-103909762D01*
X143454524Y-103814524D01*
X143406905Y-103719286D01*
X143359286Y-103528810D01*
X143359286Y-103385952D01*
X143406905Y-103195476D01*
X143454524Y-103100238D01*
X143549762Y-103005000D01*
X143692620Y-102957381D01*
X143787858Y-102957381D01*
X143930715Y-103005000D01*
X143978334Y-103052619D01*
X144311667Y-102957381D02*
X144930715Y-102957381D01*
X144597381Y-103338333D01*
X144740239Y-103338333D01*
X144835477Y-103385952D01*
X144883096Y-103433571D01*
X144930715Y-103528810D01*
X144930715Y-103766905D01*
X144883096Y-103862143D01*
X144835477Y-103909762D01*
X144740239Y-103957381D01*
X144454524Y-103957381D01*
X144359286Y-103909762D01*
X144311667Y-103862143D01*
X147327834Y-100687143D02*
X147280215Y-100734762D01*
X147137358Y-100782381D01*
X147042120Y-100782381D01*
X146899262Y-100734762D01*
X146804024Y-100639524D01*
X146756405Y-100544286D01*
X146708786Y-100353810D01*
X146708786Y-100210952D01*
X146756405Y-100020476D01*
X146804024Y-99925238D01*
X146899262Y-99830000D01*
X147042120Y-99782381D01*
X147137358Y-99782381D01*
X147280215Y-99830000D01*
X147327834Y-99877619D01*
X148184977Y-100115714D02*
X148184977Y-100782381D01*
X147946881Y-99734762D02*
X147708786Y-100449048D01*
X148327834Y-100449048D01*
X136247334Y-100179143D02*
X136199715Y-100226762D01*
X136056858Y-100274381D01*
X135961620Y-100274381D01*
X135818762Y-100226762D01*
X135723524Y-100131524D01*
X135675905Y-100036286D01*
X135628286Y-99845810D01*
X135628286Y-99702952D01*
X135675905Y-99512476D01*
X135723524Y-99417238D01*
X135818762Y-99322000D01*
X135961620Y-99274381D01*
X136056858Y-99274381D01*
X136199715Y-99322000D01*
X136247334Y-99369619D01*
X137152096Y-99274381D02*
X136675905Y-99274381D01*
X136628286Y-99750571D01*
X136675905Y-99702952D01*
X136771143Y-99655333D01*
X137009239Y-99655333D01*
X137104477Y-99702952D01*
X137152096Y-99750571D01*
X137199715Y-99845810D01*
X137199715Y-100083905D01*
X137152096Y-100179143D01*
X137104477Y-100226762D01*
X137009239Y-100274381D01*
X136771143Y-100274381D01*
X136675905Y-100226762D01*
X136628286Y-100179143D01*
X132421334Y-118721143D02*
X132373715Y-118768762D01*
X132230858Y-118816381D01*
X132135620Y-118816381D01*
X131992762Y-118768762D01*
X131897524Y-118673524D01*
X131849905Y-118578286D01*
X131802286Y-118387810D01*
X131802286Y-118244952D01*
X131849905Y-118054476D01*
X131897524Y-117959238D01*
X131992762Y-117864000D01*
X132135620Y-117816381D01*
X132230858Y-117816381D01*
X132373715Y-117864000D01*
X132421334Y-117911619D01*
X133278477Y-117816381D02*
X133088000Y-117816381D01*
X132992762Y-117864000D01*
X132945143Y-117911619D01*
X132849905Y-118054476D01*
X132802286Y-118244952D01*
X132802286Y-118625905D01*
X132849905Y-118721143D01*
X132897524Y-118768762D01*
X132992762Y-118816381D01*
X133183239Y-118816381D01*
X133278477Y-118768762D01*
X133326096Y-118721143D01*
X133373715Y-118625905D01*
X133373715Y-118387810D01*
X133326096Y-118292571D01*
X133278477Y-118244952D01*
X133183239Y-118197333D01*
X132992762Y-118197333D01*
X132897524Y-118244952D01*
X132849905Y-118292571D01*
X132802286Y-118387810D01*
X167235334Y-110779143D02*
X167187715Y-110826762D01*
X167044858Y-110874381D01*
X166949620Y-110874381D01*
X166806762Y-110826762D01*
X166711524Y-110731524D01*
X166663905Y-110636286D01*
X166616286Y-110445810D01*
X166616286Y-110302952D01*
X166663905Y-110112476D01*
X166711524Y-110017238D01*
X166806762Y-109922000D01*
X166949620Y-109874381D01*
X167044858Y-109874381D01*
X167187715Y-109922000D01*
X167235334Y-109969619D01*
X167568667Y-109874381D02*
X168235334Y-109874381D01*
X167806762Y-110874381D01*
X132294334Y-107545143D02*
X132246715Y-107592762D01*
X132103858Y-107640381D01*
X132008620Y-107640381D01*
X131865762Y-107592762D01*
X131770524Y-107497524D01*
X131722905Y-107402286D01*
X131675286Y-107211810D01*
X131675286Y-107068952D01*
X131722905Y-106878476D01*
X131770524Y-106783238D01*
X131865762Y-106688000D01*
X132008620Y-106640381D01*
X132103858Y-106640381D01*
X132246715Y-106688000D01*
X132294334Y-106735619D01*
X132865762Y-107068952D02*
X132770524Y-107021333D01*
X132722905Y-106973714D01*
X132675286Y-106878476D01*
X132675286Y-106830857D01*
X132722905Y-106735619D01*
X132770524Y-106688000D01*
X132865762Y-106640381D01*
X133056239Y-106640381D01*
X133151477Y-106688000D01*
X133199096Y-106735619D01*
X133246715Y-106830857D01*
X133246715Y-106878476D01*
X133199096Y-106973714D01*
X133151477Y-107021333D01*
X133056239Y-107068952D01*
X132865762Y-107068952D01*
X132770524Y-107116571D01*
X132722905Y-107164190D01*
X132675286Y-107259429D01*
X132675286Y-107449905D01*
X132722905Y-107545143D01*
X132770524Y-107592762D01*
X132865762Y-107640381D01*
X133056239Y-107640381D01*
X133151477Y-107592762D01*
X133199096Y-107545143D01*
X133246715Y-107449905D01*
X133246715Y-107259429D01*
X133199096Y-107164190D01*
X133151477Y-107116571D01*
X133056239Y-107068952D01*
X134135905Y-121610381D02*
X134135905Y-120610381D01*
X134374000Y-120610381D01*
X134516858Y-120658000D01*
X134612096Y-120753238D01*
X134659715Y-120848476D01*
X134707334Y-121038952D01*
X134707334Y-121181810D01*
X134659715Y-121372286D01*
X134612096Y-121467524D01*
X134516858Y-121562762D01*
X134374000Y-121610381D01*
X134135905Y-121610381D01*
X135659715Y-121610381D02*
X135088286Y-121610381D01*
X135374000Y-121610381D02*
X135374000Y-120610381D01*
X135278762Y-120753238D01*
X135183524Y-120848476D01*
X135088286Y-120896095D01*
X168195667Y-80605381D02*
X168195667Y-81319667D01*
X168148047Y-81462524D01*
X168052809Y-81557762D01*
X167909952Y-81605381D01*
X167814714Y-81605381D01*
X169195667Y-81605381D02*
X168624238Y-81605381D01*
X168909952Y-81605381D02*
X168909952Y-80605381D01*
X168814714Y-80748238D01*
X168719476Y-80843476D01*
X168624238Y-80891095D01*
X132111715Y-81351381D02*
X131540286Y-81351381D01*
X131826000Y-81351381D02*
X131826000Y-80351381D01*
X131730762Y-80494238D01*
X131635524Y-80589476D01*
X131540286Y-80637095D01*
X167560667Y-93134381D02*
X167560667Y-93848667D01*
X167513047Y-93991524D01*
X167417809Y-94086762D01*
X167274952Y-94134381D01*
X167179714Y-94134381D01*
X167989238Y-93229619D02*
X168036857Y-93182000D01*
X168132095Y-93134381D01*
X168370191Y-93134381D01*
X168465429Y-93182000D01*
X168513048Y-93229619D01*
X168560667Y-93324857D01*
X168560667Y-93420095D01*
X168513048Y-93562952D01*
X167941619Y-94134381D01*
X168560667Y-94134381D01*
X167560667Y-84498381D02*
X167560667Y-85212667D01*
X167513047Y-85355524D01*
X167417809Y-85450762D01*
X167274952Y-85498381D01*
X167179714Y-85498381D01*
X167941619Y-84498381D02*
X168560667Y-84498381D01*
X168227333Y-84879333D01*
X168370191Y-84879333D01*
X168465429Y-84926952D01*
X168513048Y-84974571D01*
X168560667Y-85069810D01*
X168560667Y-85307905D01*
X168513048Y-85403143D01*
X168465429Y-85450762D01*
X168370191Y-85498381D01*
X168084476Y-85498381D01*
X167989238Y-85450762D01*
X167941619Y-85403143D01*
X139423567Y-123896921D02*
X139423567Y-124611207D01*
X139375947Y-124754064D01*
X139280709Y-124849302D01*
X139137852Y-124896921D01*
X139042614Y-124896921D01*
X140328329Y-124230254D02*
X140328329Y-124896921D01*
X140090233Y-123849302D02*
X139852138Y-124563588D01*
X140471186Y-124563588D01*
X134032667Y-125690381D02*
X134032667Y-126404667D01*
X133985047Y-126547524D01*
X133889809Y-126642762D01*
X133746952Y-126690381D01*
X133651714Y-126690381D01*
X134985048Y-125690381D02*
X134508857Y-125690381D01*
X134461238Y-126166571D01*
X134508857Y-126118952D01*
X134604095Y-126071333D01*
X134842191Y-126071333D01*
X134937429Y-126118952D01*
X134985048Y-126166571D01*
X135032667Y-126261810D01*
X135032667Y-126499905D01*
X134985048Y-126595143D01*
X134937429Y-126642762D01*
X134842191Y-126690381D01*
X134604095Y-126690381D01*
X134508857Y-126642762D01*
X134461238Y-126595143D01*
X159980334Y-109418381D02*
X159647000Y-108942190D01*
X159408905Y-109418381D02*
X159408905Y-108418381D01*
X159789858Y-108418381D01*
X159885096Y-108466000D01*
X159932715Y-108513619D01*
X159980334Y-108608857D01*
X159980334Y-108751714D01*
X159932715Y-108846952D01*
X159885096Y-108894571D01*
X159789858Y-108942190D01*
X159408905Y-108942190D01*
X160932715Y-109418381D02*
X160361286Y-109418381D01*
X160647000Y-109418381D02*
X160647000Y-108418381D01*
X160551762Y-108561238D01*
X160456524Y-108656476D01*
X160361286Y-108704095D01*
X165695334Y-104084381D02*
X165362000Y-103608190D01*
X165123905Y-104084381D02*
X165123905Y-103084381D01*
X165504858Y-103084381D01*
X165600096Y-103132000D01*
X165647715Y-103179619D01*
X165695334Y-103274857D01*
X165695334Y-103417714D01*
X165647715Y-103512952D01*
X165600096Y-103560571D01*
X165504858Y-103608190D01*
X165123905Y-103608190D01*
X166076286Y-103179619D02*
X166123905Y-103132000D01*
X166219143Y-103084381D01*
X166457239Y-103084381D01*
X166552477Y-103132000D01*
X166600096Y-103179619D01*
X166647715Y-103274857D01*
X166647715Y-103370095D01*
X166600096Y-103512952D01*
X166028667Y-104084381D01*
X166647715Y-104084381D01*
X163348334Y-85728381D02*
X163015000Y-85252190D01*
X162776905Y-85728381D02*
X162776905Y-84728381D01*
X163157858Y-84728381D01*
X163253096Y-84776000D01*
X163300715Y-84823619D01*
X163348334Y-84918857D01*
X163348334Y-85061714D01*
X163300715Y-85156952D01*
X163253096Y-85204571D01*
X163157858Y-85252190D01*
X162776905Y-85252190D01*
X163681667Y-84728381D02*
X164300715Y-84728381D01*
X163967381Y-85109333D01*
X164110239Y-85109333D01*
X164205477Y-85156952D01*
X164253096Y-85204571D01*
X164300715Y-85299810D01*
X164300715Y-85537905D01*
X164253096Y-85633143D01*
X164205477Y-85680762D01*
X164110239Y-85728381D01*
X163824524Y-85728381D01*
X163729286Y-85680762D01*
X163681667Y-85633143D01*
X145121334Y-116911381D02*
X144788000Y-116435190D01*
X144549905Y-116911381D02*
X144549905Y-115911381D01*
X144930858Y-115911381D01*
X145026096Y-115959000D01*
X145073715Y-116006619D01*
X145121334Y-116101857D01*
X145121334Y-116244714D01*
X145073715Y-116339952D01*
X145026096Y-116387571D01*
X144930858Y-116435190D01*
X144549905Y-116435190D01*
X145978477Y-116244714D02*
X145978477Y-116911381D01*
X145740381Y-115863762D02*
X145502286Y-116578048D01*
X146121334Y-116578048D01*
X145756334Y-126944381D02*
X145423000Y-126468190D01*
X145184905Y-126944381D02*
X145184905Y-125944381D01*
X145565858Y-125944381D01*
X145661096Y-125992000D01*
X145708715Y-126039619D01*
X145756334Y-126134857D01*
X145756334Y-126277714D01*
X145708715Y-126372952D01*
X145661096Y-126420571D01*
X145565858Y-126468190D01*
X145184905Y-126468190D01*
X146661096Y-125944381D02*
X146184905Y-125944381D01*
X146137286Y-126420571D01*
X146184905Y-126372952D01*
X146280143Y-126325333D01*
X146518239Y-126325333D01*
X146613477Y-126372952D01*
X146661096Y-126420571D01*
X146708715Y-126515810D01*
X146708715Y-126753905D01*
X146661096Y-126849143D01*
X146613477Y-126896762D01*
X146518239Y-126944381D01*
X146280143Y-126944381D01*
X146184905Y-126896762D01*
X146137286Y-126849143D01*
X145121334Y-120975381D02*
X144788000Y-120499190D01*
X144549905Y-120975381D02*
X144549905Y-119975381D01*
X144930858Y-119975381D01*
X145026096Y-120023000D01*
X145073715Y-120070619D01*
X145121334Y-120165857D01*
X145121334Y-120308714D01*
X145073715Y-120403952D01*
X145026096Y-120451571D01*
X144930858Y-120499190D01*
X144549905Y-120499190D01*
X145978477Y-119975381D02*
X145788000Y-119975381D01*
X145692762Y-120023000D01*
X145645143Y-120070619D01*
X145549905Y-120213476D01*
X145502286Y-120403952D01*
X145502286Y-120784905D01*
X145549905Y-120880143D01*
X145597524Y-120927762D01*
X145692762Y-120975381D01*
X145883239Y-120975381D01*
X145978477Y-120927762D01*
X146026096Y-120880143D01*
X146073715Y-120784905D01*
X146073715Y-120546810D01*
X146026096Y-120451571D01*
X145978477Y-120403952D01*
X145883239Y-120356333D01*
X145692762Y-120356333D01*
X145597524Y-120403952D01*
X145549905Y-120451571D01*
X145502286Y-120546810D01*
X155360667Y-90601262D02*
X155503524Y-90648881D01*
X155741620Y-90648881D01*
X155836858Y-90601262D01*
X155884477Y-90553643D01*
X155932096Y-90458405D01*
X155932096Y-90363167D01*
X155884477Y-90267929D01*
X155836858Y-90220310D01*
X155741620Y-90172690D01*
X155551143Y-90125071D01*
X155455905Y-90077452D01*
X155408286Y-90029833D01*
X155360667Y-89934595D01*
X155360667Y-89839357D01*
X155408286Y-89744119D01*
X155455905Y-89696500D01*
X155551143Y-89648881D01*
X155789239Y-89648881D01*
X155932096Y-89696500D01*
X156265429Y-89648881D02*
X156503524Y-90648881D01*
X156694001Y-89934595D01*
X156884477Y-90648881D01*
X157122572Y-89648881D01*
X158027334Y-90648881D02*
X157455905Y-90648881D01*
X157741619Y-90648881D02*
X157741619Y-89648881D01*
X157646381Y-89791738D01*
X157551143Y-89886976D01*
X157455905Y-89934595D01*
M02*
