G04 #@! TF.FileFunction,Copper,L1,Top,Signal*
%FSLAX46Y46*%
G04 Gerber Fmt 4.6, Leading zero omitted, Abs format (unit mm)*
G04 Created by KiCad (PCBNEW 4.0.7) date Thursday, 05 July 2018 'PMt' 18:27:46*
%MOMM*%
%LPD*%
G01*
G04 APERTURE LIST*
%ADD10C,0.100000*%
%ADD11C,0.600000*%
%ADD12R,2.000000X3.800000*%
%ADD13R,2.000000X1.500000*%
%ADD14R,2.500000X1.100000*%
%ADD15R,1.100000X2.500000*%
%ADD16R,0.450000X1.750000*%
%ADD17R,1.000000X1.250000*%
%ADD18R,1.950000X2.500000*%
%ADD19R,0.600000X0.450000*%
%ADD20R,1.524000X5.080000*%
%ADD21R,1.700000X1.700000*%
%ADD22O,1.700000X1.700000*%
%ADD23R,0.700000X1.300000*%
%ADD24R,1.150000X1.050000*%
%ADD25R,1.500000X1.900000*%
%ADD26C,1.450000*%
%ADD27R,0.400000X1.350000*%
%ADD28O,1.200000X1.900000*%
%ADD29R,1.200000X1.900000*%
%ADD30C,0.250000*%
%ADD31C,0.750000*%
%ADD32C,0.400000*%
%ADD33C,0.500000*%
G04 APERTURE END LIST*
D10*
D11*
X140970000Y-125730000D03*
X143510000Y-125730000D03*
X142240000Y-124460000D03*
X160020000Y-130810000D03*
X162052000Y-117094000D03*
X163830000Y-119888000D03*
X162052000Y-119888000D03*
X164338000Y-128270000D03*
X162052000Y-123698000D03*
X160020000Y-128270000D03*
X160020000Y-125730000D03*
X148590000Y-86360000D03*
X146050000Y-86360000D03*
X167640000Y-109220000D03*
X165100000Y-109220000D03*
X165100000Y-106680000D03*
X161290000Y-106680000D03*
X160020000Y-102870000D03*
X158750000Y-101600000D03*
X158750000Y-104140000D03*
X160020000Y-100330000D03*
X161290000Y-101600000D03*
X160020000Y-97790000D03*
X161290000Y-99060000D03*
X161290000Y-96520000D03*
X161290000Y-93980000D03*
X161290000Y-91440000D03*
X160020000Y-90170000D03*
X160020000Y-87630000D03*
X158750000Y-88900000D03*
X157480000Y-90170000D03*
X154940000Y-90170000D03*
X156210000Y-88900000D03*
X157480000Y-87630000D03*
X168910000Y-81280000D03*
X167640000Y-82550000D03*
X168910000Y-83820000D03*
X167640000Y-85090000D03*
X165100000Y-85090000D03*
X162560000Y-85090000D03*
X160020000Y-85090000D03*
X158750000Y-86360000D03*
X157480000Y-85090000D03*
X156210000Y-86360000D03*
X154940000Y-87630000D03*
X153670000Y-88900000D03*
X152400000Y-90170000D03*
X151130000Y-91440000D03*
X157480000Y-100330000D03*
X156210000Y-99060000D03*
X154940000Y-97790000D03*
X153670000Y-96520000D03*
X152400000Y-95250000D03*
X151130000Y-93980000D03*
X149860000Y-92710000D03*
X149860000Y-95250000D03*
X151130000Y-96520000D03*
X152400000Y-97790000D03*
X153670000Y-99060000D03*
X154940000Y-100330000D03*
X156210000Y-101600000D03*
X157480000Y-102870000D03*
X157480000Y-105410000D03*
X156210000Y-104140000D03*
X154940000Y-102870000D03*
X153670000Y-101600000D03*
X152400000Y-100330000D03*
X151130000Y-99060000D03*
X149860000Y-97790000D03*
X148590000Y-96520000D03*
X148590000Y-93980000D03*
X147320000Y-95250000D03*
X147320000Y-92710000D03*
X146050000Y-93980000D03*
X151130000Y-107950000D03*
X149860000Y-106680000D03*
X149860000Y-109220000D03*
X147320000Y-109220000D03*
X148590000Y-107950000D03*
X147320000Y-106680000D03*
X148590000Y-105410000D03*
X147320000Y-104140000D03*
X146050000Y-107950000D03*
X146050000Y-105410000D03*
X144780000Y-104140000D03*
X143510000Y-105410000D03*
X144780000Y-106680000D03*
X143510000Y-107950000D03*
X144780000Y-109220000D03*
X146050000Y-130810000D03*
X147320000Y-125730000D03*
X148590000Y-124460000D03*
X151130000Y-113030000D03*
X149860000Y-114300000D03*
X148590000Y-113030000D03*
X148590000Y-115570000D03*
X146050000Y-115570000D03*
X147320000Y-114300000D03*
X144780000Y-114300000D03*
X146050000Y-113030000D03*
X140970000Y-123190000D03*
X143510000Y-123190000D03*
X142240000Y-121920000D03*
X139700000Y-121920000D03*
X140970000Y-120650000D03*
X142240000Y-119380000D03*
X140970000Y-118110000D03*
X142240000Y-116840000D03*
X140970000Y-115570000D03*
X135890000Y-100330000D03*
X133350000Y-100330000D03*
X132080000Y-96520000D03*
X133350000Y-95250000D03*
X132080000Y-93980000D03*
X133350000Y-92710000D03*
X132080000Y-88900000D03*
X130810000Y-90170000D03*
X133350000Y-85090000D03*
X133350000Y-87630000D03*
X132080000Y-86360000D03*
X134620000Y-121920000D03*
X132080000Y-121920000D03*
X130810000Y-120650000D03*
X132080000Y-119380000D03*
X130810000Y-118110000D03*
X132080000Y-116840000D03*
X130810000Y-115570000D03*
X132080000Y-114300000D03*
X130810000Y-113030000D03*
X132080000Y-111760000D03*
X130810000Y-110490000D03*
X132080000Y-109220000D03*
X130810000Y-107950000D03*
X132080000Y-106680000D03*
X130810000Y-105410000D03*
X132080000Y-104140000D03*
X130810000Y-102870000D03*
X130810000Y-87630000D03*
X130810000Y-85090000D03*
D12*
X140609329Y-112702843D03*
D13*
X134309329Y-112702843D03*
X134309329Y-115002843D03*
X134309329Y-110402843D03*
D14*
X167070000Y-130302000D03*
X167070000Y-128302000D03*
X167070000Y-126302000D03*
X167070000Y-124302000D03*
X167070000Y-122302000D03*
X167070000Y-120302000D03*
X167070000Y-118302000D03*
X167070000Y-116302000D03*
X151670000Y-116302000D03*
X151670000Y-118302000D03*
X151670000Y-120302000D03*
X151670000Y-122302000D03*
X151670000Y-124302000D03*
X151670000Y-126302000D03*
X151670000Y-128302000D03*
X151670000Y-130302000D03*
D15*
X164380000Y-114602000D03*
X162380000Y-114602000D03*
X160380000Y-114602000D03*
X158380000Y-114602000D03*
X156380000Y-114602000D03*
X154380000Y-114602000D03*
D16*
X142106000Y-90380000D03*
X141456000Y-90380000D03*
X140806000Y-90380000D03*
X140156000Y-90380000D03*
X139506000Y-90380000D03*
X138856000Y-90380000D03*
X138206000Y-90380000D03*
X137556000Y-90380000D03*
X136906000Y-90380000D03*
X136256000Y-90380000D03*
X135606000Y-90380000D03*
X134956000Y-90380000D03*
X134306000Y-90380000D03*
X133656000Y-90380000D03*
X133656000Y-97580000D03*
X134306000Y-97580000D03*
X134956000Y-97580000D03*
X135606000Y-97580000D03*
X136256000Y-97580000D03*
X136906000Y-97580000D03*
X137556000Y-97580000D03*
X138206000Y-97580000D03*
X138856000Y-97580000D03*
X139506000Y-97580000D03*
X140156000Y-97580000D03*
X140806000Y-97580000D03*
X141456000Y-97580000D03*
X142106000Y-97580000D03*
D17*
X147605500Y-89916000D03*
X145605500Y-89916000D03*
X142525500Y-87376000D03*
X140525500Y-87376000D03*
X142271500Y-103251000D03*
X140271500Y-103251000D03*
X145700500Y-100330000D03*
X143700500Y-100330000D03*
X140462000Y-99822000D03*
X138462000Y-99822000D03*
D18*
X138119329Y-118403843D03*
X135069329Y-118403843D03*
D17*
X166402000Y-112522000D03*
X168402000Y-112522000D03*
D18*
X138121329Y-106910343D03*
X135071329Y-106910343D03*
D19*
X136330000Y-122872500D03*
X138430000Y-122872500D03*
D20*
X133350000Y-81407000D03*
X136144000Y-81407000D03*
X138811000Y-81407000D03*
X141605000Y-81407000D03*
X144272000Y-81407000D03*
X147066000Y-81407000D03*
X149860000Y-81407000D03*
X152527000Y-81407000D03*
X155321000Y-81407000D03*
X157988000Y-81407000D03*
X160782000Y-81407000D03*
X163576000Y-81407000D03*
X166243000Y-81407000D03*
D21*
X167894000Y-96012000D03*
D22*
X167894000Y-98552000D03*
X167894000Y-101092000D03*
X167894000Y-103632000D03*
X167894000Y-106172000D03*
D21*
X167894000Y-87376000D03*
D22*
X167894000Y-89916000D03*
D21*
X132080000Y-125222000D03*
D22*
X132080000Y-127762000D03*
D23*
X163825000Y-109601000D03*
X161925000Y-109601000D03*
X162565000Y-87376000D03*
X164465000Y-87376000D03*
X146118500Y-118300500D03*
X148018500Y-118300500D03*
X148018500Y-128397000D03*
X146118500Y-128397000D03*
X148018500Y-122301000D03*
X146118500Y-122301000D03*
D24*
X158369000Y-92646500D03*
X155019000Y-92646500D03*
X158369000Y-94096500D03*
X155019000Y-94096500D03*
D25*
X140756900Y-130556000D03*
D26*
X137256900Y-127856000D03*
D27*
X139106900Y-127856000D03*
X138456900Y-127856000D03*
X141056900Y-127856000D03*
X140406900Y-127856000D03*
X139756900Y-127856000D03*
D26*
X142256900Y-127856000D03*
D25*
X138756900Y-130556000D03*
D28*
X136256900Y-130556000D03*
X143256900Y-130556000D03*
D29*
X142656900Y-130556000D03*
X136856900Y-130556000D03*
D11*
X130810000Y-82550000D03*
X140144500Y-88773000D03*
X144145000Y-89916000D03*
X136398000Y-85090000D03*
X134366006Y-86868000D03*
X136398002Y-86868000D03*
X137922000Y-85852000D03*
X138176000Y-87884000D03*
X152146000Y-84836000D03*
X137922000Y-87122000D03*
X157226000Y-109982000D03*
X159004000Y-105918000D03*
X134874000Y-95250000D03*
X157480000Y-130302000D03*
X135636000Y-93980000D03*
X158623000Y-128143000D03*
X160782004Y-109728000D03*
X161925000Y-126238000D03*
X163195000Y-107061000D03*
X163068000Y-130175000D03*
X159385000Y-122301000D03*
X143195051Y-94040949D03*
X159070053Y-118176049D03*
X153924006Y-118237000D03*
X136271000Y-95250000D03*
X140110888Y-96045253D03*
X139038581Y-103288081D03*
X144526000Y-91948000D03*
X164719000Y-124333000D03*
X156591000Y-126111000D03*
X138176000Y-94488000D03*
X138937998Y-93853000D03*
X155575000Y-124206000D03*
X139563010Y-94615000D03*
X154599000Y-120269000D03*
X142240000Y-93472000D03*
X158242000Y-118618000D03*
D30*
X140144500Y-88773000D02*
X140144500Y-90368500D01*
X140144500Y-90368500D02*
X140156000Y-90380000D01*
X145605500Y-89916000D02*
X144145000Y-89916000D01*
X142106000Y-90380000D02*
X142106000Y-87795500D01*
X142106000Y-87795500D02*
X142525500Y-87376000D01*
X140806000Y-90380000D02*
X140806000Y-87656500D01*
X140806000Y-87656500D02*
X140525500Y-87376000D01*
X142106000Y-97580000D02*
X142581000Y-97580000D01*
X143021500Y-103251000D02*
X142271500Y-103251000D01*
X142581000Y-97580000D02*
X144525501Y-99524501D01*
X144525501Y-99524501D02*
X144525501Y-101746999D01*
X144525501Y-101746999D02*
X143021500Y-103251000D01*
X152370000Y-116302000D02*
X151354000Y-116302000D01*
D31*
X142868488Y-111252000D02*
X142868488Y-109873490D01*
X140767333Y-107772335D02*
X140767333Y-105715333D01*
X142868488Y-109873490D02*
X140767333Y-107772335D01*
D32*
X140806000Y-97580000D02*
X140806000Y-99478000D01*
X140806000Y-99478000D02*
X140462000Y-99822000D01*
D31*
X139431660Y-101600000D02*
X140059000Y-101600000D01*
X140059000Y-101600000D02*
X140462000Y-101197000D01*
X140462000Y-101197000D02*
X140462000Y-99822000D01*
X138121329Y-103432671D02*
X138121329Y-102910331D01*
X138121329Y-102910331D02*
X139431660Y-101600000D01*
X138121329Y-104648000D02*
X138121329Y-103432671D01*
X138121329Y-103432671D02*
X138121329Y-103144671D01*
X140462000Y-99822000D02*
X140462000Y-99947000D01*
D32*
X130746500Y-93289500D02*
X133656000Y-90380000D01*
D31*
X138121329Y-104648000D02*
X139700000Y-104648000D01*
X143510000Y-111252000D02*
X142868488Y-111252000D01*
X139700000Y-104648000D02*
X140767333Y-105715333D01*
X138121329Y-104648000D02*
X138121329Y-106910343D01*
X138121329Y-111814671D02*
X137233157Y-112702843D01*
X137233157Y-112702843D02*
X134309329Y-112702843D01*
X138121329Y-106910343D02*
X138121329Y-111814671D01*
X159479002Y-111252000D02*
X143510000Y-111252000D01*
X165100000Y-110876000D02*
X163792004Y-110876000D01*
X163792004Y-110876000D02*
X162285001Y-112383003D01*
X162285001Y-112383003D02*
X160610005Y-112383003D01*
X160610005Y-112383003D02*
X159479002Y-111252000D01*
D33*
X146118500Y-122301000D02*
X145268500Y-122301000D01*
X145268500Y-122301000D02*
X143510000Y-120542500D01*
X143510000Y-120542500D02*
X143510000Y-111252000D01*
X163365001Y-88689001D02*
X162728001Y-88689001D01*
X162565000Y-88526000D02*
X162565000Y-87376000D01*
X162728001Y-88689001D02*
X162565000Y-88526000D01*
X163825000Y-109601000D02*
X163825000Y-108451000D01*
X163825000Y-108451000D02*
X163945001Y-108330999D01*
X163945001Y-108330999D02*
X163945001Y-104922003D01*
X163945001Y-104922003D02*
X163365001Y-104342003D01*
X163365001Y-104342003D02*
X163365001Y-88689001D01*
X165100000Y-110876000D02*
X163825000Y-109601000D01*
D31*
X166402000Y-112178000D02*
X165100000Y-110876000D01*
D32*
X138121329Y-103144671D02*
X134630657Y-103144671D01*
X130746500Y-99260514D02*
X130746500Y-93289500D01*
X134630657Y-103144671D02*
X130746500Y-99260514D01*
D33*
X166402000Y-112397000D02*
X166402000Y-112522000D01*
X138121329Y-106910343D02*
X138121329Y-106635343D01*
X146118500Y-128397000D02*
X146118500Y-122301000D01*
D31*
X166402000Y-112522000D02*
X166402000Y-116270000D01*
D33*
X166402000Y-116270000D02*
X166370000Y-116302000D01*
X166402000Y-112522000D02*
X166402000Y-112178000D01*
X163825000Y-109301000D02*
X163825000Y-109601000D01*
X134309329Y-112702843D02*
X134569331Y-112702843D01*
X137100843Y-115002843D02*
X138119329Y-116021329D01*
X138119329Y-116021329D02*
X138119329Y-118403843D01*
X134309329Y-115002843D02*
X137100843Y-115002843D01*
X136330000Y-122872500D02*
X136405000Y-122872500D01*
X136405000Y-122872500D02*
X138119329Y-121158171D01*
X138119329Y-121158171D02*
X138119329Y-118403843D01*
X134309329Y-115002843D02*
X134559329Y-115002843D01*
X137960329Y-118403843D02*
X138119329Y-118403843D01*
X132080000Y-125222000D02*
X134705500Y-125222000D01*
X134705500Y-125222000D02*
X136330000Y-123597500D01*
X136330000Y-123597500D02*
X136330000Y-122872500D01*
X138119329Y-118678843D02*
X138119329Y-118403843D01*
X138456900Y-126518900D02*
X138430000Y-126492000D01*
X138430000Y-126492000D02*
X138430000Y-122872500D01*
D32*
X138456900Y-127856000D02*
X138456900Y-126518900D01*
D33*
X138456000Y-122898500D02*
X138430000Y-122872500D01*
D30*
X136144000Y-84197000D02*
X135518991Y-84822009D01*
X135518991Y-84822009D02*
X135518991Y-89167991D01*
X135518991Y-89167991D02*
X135606000Y-89255000D01*
X136144000Y-81407000D02*
X136144000Y-84197000D01*
X135606000Y-89255000D02*
X135606000Y-90380000D01*
X136906000Y-85090000D02*
X136398000Y-85090000D01*
X138811000Y-83185000D02*
X136906000Y-85090000D01*
X138811000Y-81407000D02*
X138811000Y-83185000D01*
X134956000Y-87457994D02*
X134366006Y-86868000D01*
X134956000Y-90380000D02*
X134956000Y-87457994D01*
X137023011Y-89137989D02*
X136906000Y-89255000D01*
X136906000Y-89255000D02*
X136906000Y-90380000D01*
X137023011Y-85734989D02*
X137023011Y-89137989D01*
X140517999Y-84272001D02*
X138485999Y-84272001D01*
X141605000Y-81407000D02*
X141605000Y-83185000D01*
X141605000Y-83185000D02*
X140517999Y-84272001D01*
X138485999Y-84272001D02*
X137023011Y-85734989D01*
X141605000Y-82423000D02*
X141605000Y-81407000D01*
X136256000Y-87010002D02*
X136398002Y-86868000D01*
X136256000Y-90380000D02*
X136256000Y-87010002D01*
X139051989Y-84722011D02*
X137922000Y-85852000D01*
X142734989Y-84722011D02*
X139051989Y-84722011D01*
X144272000Y-83185000D02*
X142734989Y-84722011D01*
X144272000Y-81407000D02*
X144272000Y-83185000D01*
X138856000Y-90380000D02*
X138856000Y-85807000D01*
X138856000Y-85807000D02*
X139490979Y-85172021D01*
X139490979Y-85172021D02*
X145078979Y-85172021D01*
X145078979Y-85172021D02*
X147066000Y-83185000D01*
X147066000Y-83185000D02*
X147066000Y-81407000D01*
X138176000Y-87884000D02*
X138176000Y-90350000D01*
X138176000Y-90350000D02*
X138206000Y-90380000D01*
X152527000Y-81407000D02*
X152527000Y-84455000D01*
X152527000Y-84455000D02*
X152146000Y-84836000D01*
X152527000Y-81407000D02*
X152527000Y-83185000D01*
X137556000Y-89255000D02*
X137550998Y-89249998D01*
X137556000Y-90380000D02*
X137556000Y-89255000D01*
X137550998Y-89249998D02*
X137550998Y-87493002D01*
X137550998Y-87493002D02*
X137922000Y-87122000D01*
X137584501Y-90351499D02*
X137556000Y-90380000D01*
X159004000Y-108204000D02*
X157226000Y-109982000D01*
X159004000Y-105918000D02*
X159004000Y-108204000D01*
X134874000Y-95250000D02*
X134874000Y-97498000D01*
X134874000Y-97498000D02*
X134956000Y-97580000D01*
X152370000Y-130302000D02*
X157480000Y-130302000D01*
X135606000Y-97580000D02*
X135606000Y-94010000D01*
X135606000Y-94010000D02*
X135636000Y-93980000D01*
X152370000Y-128302000D02*
X152402000Y-128270000D01*
X152402000Y-128270000D02*
X158496000Y-128270000D01*
X158496000Y-128270000D02*
X158623000Y-128143000D01*
X161544000Y-109728000D02*
X160782004Y-109728000D01*
X161671000Y-109855000D02*
X161544000Y-109728000D01*
X166370000Y-126302000D02*
X161989000Y-126302000D01*
X161989000Y-126302000D02*
X161925000Y-126238000D01*
X161965000Y-103632000D02*
X161965000Y-105831000D01*
X161965000Y-105831000D02*
X163195000Y-107061000D01*
X149518500Y-129297000D02*
X162190000Y-129297000D01*
X162190000Y-129297000D02*
X163068000Y-130175000D01*
X148018500Y-128397000D02*
X148618500Y-128397000D01*
X148618500Y-128397000D02*
X149518500Y-129297000D01*
X166370000Y-130302000D02*
X163195000Y-130302000D01*
X163195000Y-130302000D02*
X163068000Y-130175000D01*
X155019000Y-94096500D02*
X158369000Y-94096500D01*
X158369000Y-94096500D02*
X158369000Y-100036000D01*
X158369000Y-100036000D02*
X161965000Y-103632000D01*
X152371000Y-122301000D02*
X159385000Y-122301000D01*
X152370000Y-122302000D02*
X152371000Y-122301000D01*
X152370000Y-122302000D02*
X152369000Y-122301000D01*
X152369000Y-122301000D02*
X148018500Y-122301000D01*
X142420262Y-92719998D02*
X143195051Y-93494787D01*
X143195051Y-93616685D02*
X143195051Y-94040949D01*
X143195051Y-93494787D02*
X143195051Y-93616685D01*
X138255590Y-92719998D02*
X142420262Y-92719998D01*
X136906000Y-94069588D02*
X138255590Y-92719998D01*
X136906000Y-97580000D02*
X136906000Y-94069588D01*
X166244049Y-118176049D02*
X159070053Y-118176049D01*
X166370000Y-118302000D02*
X166244049Y-118176049D01*
X152435000Y-118237000D02*
X153924006Y-118237000D01*
X152370000Y-118302000D02*
X152435000Y-118237000D01*
X136271000Y-95250000D02*
X136271000Y-97565000D01*
X136271000Y-97565000D02*
X136256000Y-97580000D01*
X148018500Y-118300500D02*
X148618500Y-118300500D01*
X148618500Y-118300500D02*
X148620000Y-118302000D01*
X148620000Y-118302000D02*
X152370000Y-118302000D01*
X140156000Y-97580000D02*
X140156000Y-96090365D01*
X140156000Y-96090365D02*
X140110888Y-96045253D01*
X140271500Y-103251000D02*
X139075662Y-103251000D01*
X139075662Y-103251000D02*
X139038581Y-103288081D01*
X141456000Y-97580000D02*
X141456000Y-98835500D01*
X141456000Y-98835500D02*
X142950500Y-100330000D01*
X142950500Y-100330000D02*
X143700500Y-100330000D01*
X144526000Y-91948000D02*
X144158001Y-91580001D01*
X144158001Y-91580001D02*
X139581001Y-91580001D01*
X139581001Y-91580001D02*
X139406001Y-91405001D01*
X139406001Y-91405001D02*
X139406001Y-90479999D01*
X139406001Y-90479999D02*
X139506000Y-90380000D01*
X166370000Y-124302000D02*
X164750000Y-124302000D01*
X164750000Y-124302000D02*
X164719000Y-124333000D01*
X164592000Y-87503000D02*
X164465000Y-87376000D01*
D33*
X164465000Y-87376000D02*
X167894000Y-87376000D01*
D30*
X152561000Y-126111000D02*
X156591000Y-126111000D01*
X152370000Y-126302000D02*
X152561000Y-126111000D01*
X138176000Y-94488000D02*
X138176000Y-97550000D01*
X138176000Y-97550000D02*
X138206000Y-97580000D01*
X152306000Y-126238000D02*
X152370000Y-126302000D01*
X138856000Y-97580000D02*
X138856000Y-93934998D01*
X138856000Y-93934998D02*
X138937998Y-93853000D01*
X152466000Y-124206000D02*
X155575000Y-124206000D01*
X152370000Y-124302000D02*
X152466000Y-124206000D01*
X139563010Y-95039264D02*
X139563010Y-94615000D01*
X139485887Y-96434887D02*
X139485887Y-95116387D01*
X139506000Y-97580000D02*
X139506000Y-96455000D01*
X139506000Y-96455000D02*
X139485887Y-96434887D01*
X139485887Y-95116387D02*
X139563010Y-95039264D01*
X152370000Y-120302000D02*
X154566000Y-120302000D01*
X154566000Y-120302000D02*
X154599000Y-120269000D01*
X142240000Y-93472000D02*
X141938008Y-93170008D01*
X141938008Y-93170008D02*
X138568990Y-93170008D01*
X138568990Y-93170008D02*
X137550999Y-94187999D01*
X137550999Y-94187999D02*
X137550999Y-96449999D01*
X137556000Y-96455000D02*
X137556000Y-97580000D01*
X137550999Y-96449999D02*
X137556000Y-96455000D01*
X166370000Y-122302000D02*
X162271002Y-122302000D01*
X162271002Y-122302000D02*
X158587002Y-118618000D01*
X158587002Y-118618000D02*
X158242000Y-118618000D01*
X158380000Y-115302000D02*
X158242000Y-115164000D01*
X158380000Y-115302000D02*
X158380000Y-113549000D01*
D10*
G36*
X132138000Y-80969500D02*
X132250500Y-81082000D01*
X133025000Y-81082000D01*
X133025000Y-81062000D01*
X133675000Y-81062000D01*
X133675000Y-81082000D01*
X134449500Y-81082000D01*
X134562000Y-80969500D01*
X134562000Y-78965000D01*
X135127103Y-78965000D01*
X135127103Y-83947000D01*
X135144535Y-84039644D01*
X135199288Y-84124732D01*
X135282831Y-84181815D01*
X135382000Y-84201897D01*
X135608773Y-84201897D01*
X135253826Y-84556844D01*
X135172536Y-84678502D01*
X135172536Y-84678503D01*
X135143991Y-84822009D01*
X135143991Y-87115655D01*
X134915989Y-86887653D01*
X134916101Y-86759078D01*
X134832545Y-86556857D01*
X134677963Y-86402005D01*
X134475888Y-86318096D01*
X134257084Y-86317905D01*
X134054863Y-86401461D01*
X133900011Y-86556043D01*
X133816102Y-86758118D01*
X133815911Y-86976922D01*
X133899467Y-87179143D01*
X134054049Y-87333995D01*
X134256124Y-87417904D01*
X134385693Y-87418017D01*
X134581000Y-87613324D01*
X134581000Y-89055000D01*
X134531000Y-89055000D01*
X134418500Y-89167500D01*
X134418500Y-90230000D01*
X134476000Y-90230000D01*
X134476000Y-90530000D01*
X134418500Y-90530000D01*
X134418500Y-91592500D01*
X134531000Y-91705000D01*
X134620510Y-91705000D01*
X134785904Y-91636492D01*
X134912491Y-91509905D01*
X134912494Y-91509897D01*
X135181000Y-91509897D01*
X135273644Y-91492465D01*
X135279858Y-91488467D01*
X135281831Y-91489815D01*
X135381000Y-91509897D01*
X135831000Y-91509897D01*
X135923644Y-91492465D01*
X135929858Y-91488467D01*
X135931831Y-91489815D01*
X136031000Y-91509897D01*
X136481000Y-91509897D01*
X136573644Y-91492465D01*
X136579858Y-91488467D01*
X136581831Y-91489815D01*
X136681000Y-91509897D01*
X137131000Y-91509897D01*
X137223644Y-91492465D01*
X137229858Y-91488467D01*
X137231831Y-91489815D01*
X137331000Y-91509897D01*
X137781000Y-91509897D01*
X137873644Y-91492465D01*
X137879858Y-91488467D01*
X137881831Y-91489815D01*
X137981000Y-91509897D01*
X138431000Y-91509897D01*
X138523644Y-91492465D01*
X138529858Y-91488467D01*
X138531831Y-91489815D01*
X138631000Y-91509897D01*
X139051866Y-91509897D01*
X139059546Y-91548508D01*
X139140836Y-91670166D01*
X139315836Y-91845166D01*
X139437495Y-91926456D01*
X139581001Y-91955001D01*
X143975994Y-91955001D01*
X143975905Y-92056922D01*
X144059461Y-92259143D01*
X144214043Y-92413995D01*
X144416118Y-92497904D01*
X144634922Y-92498095D01*
X144837143Y-92414539D01*
X144991995Y-92259957D01*
X145075904Y-92057882D01*
X145075926Y-92031990D01*
X153994000Y-92031990D01*
X153994000Y-92384000D01*
X154106500Y-92496500D01*
X154869000Y-92496500D01*
X154869000Y-91784000D01*
X155169000Y-91784000D01*
X155169000Y-92496500D01*
X155931500Y-92496500D01*
X156044000Y-92384000D01*
X156044000Y-92031990D01*
X157344000Y-92031990D01*
X157344000Y-92384000D01*
X157456500Y-92496500D01*
X158219000Y-92496500D01*
X158219000Y-91784000D01*
X158519000Y-91784000D01*
X158519000Y-92496500D01*
X159281500Y-92496500D01*
X159394000Y-92384000D01*
X159394000Y-92031990D01*
X159325492Y-91866596D01*
X159198905Y-91740009D01*
X159033511Y-91671500D01*
X158631500Y-91671500D01*
X158519000Y-91784000D01*
X158219000Y-91784000D01*
X158106500Y-91671500D01*
X157704489Y-91671500D01*
X157539095Y-91740009D01*
X157412508Y-91866596D01*
X157344000Y-92031990D01*
X156044000Y-92031990D01*
X155975492Y-91866596D01*
X155848905Y-91740009D01*
X155683511Y-91671500D01*
X155281500Y-91671500D01*
X155169000Y-91784000D01*
X154869000Y-91784000D01*
X154756500Y-91671500D01*
X154354489Y-91671500D01*
X154189095Y-91740009D01*
X154062508Y-91866596D01*
X153994000Y-92031990D01*
X145075926Y-92031990D01*
X145076095Y-91839078D01*
X144992539Y-91636857D01*
X144837957Y-91482005D01*
X144635882Y-91398096D01*
X144506313Y-91397983D01*
X144423166Y-91314836D01*
X144301508Y-91233546D01*
X144158001Y-91205001D01*
X142585897Y-91205001D01*
X142585897Y-90024922D01*
X143594905Y-90024922D01*
X143678461Y-90227143D01*
X143833043Y-90381995D01*
X144035118Y-90465904D01*
X144253922Y-90466095D01*
X144456143Y-90382539D01*
X144547842Y-90291000D01*
X144850603Y-90291000D01*
X144850603Y-90541000D01*
X144868035Y-90633644D01*
X144922788Y-90718732D01*
X145006331Y-90775815D01*
X145105500Y-90795897D01*
X146105500Y-90795897D01*
X146198144Y-90778465D01*
X146283232Y-90723712D01*
X146340315Y-90640169D01*
X146360397Y-90541000D01*
X146360397Y-90178500D01*
X146655500Y-90178500D01*
X146655500Y-90630510D01*
X146724008Y-90795904D01*
X146850595Y-90922491D01*
X147015989Y-90991000D01*
X147343000Y-90991000D01*
X147455500Y-90878500D01*
X147455500Y-90066000D01*
X147755500Y-90066000D01*
X147755500Y-90878500D01*
X147868000Y-90991000D01*
X148195011Y-90991000D01*
X148360405Y-90922491D01*
X148486992Y-90795904D01*
X148555500Y-90630510D01*
X148555500Y-90178500D01*
X148443000Y-90066000D01*
X147755500Y-90066000D01*
X147455500Y-90066000D01*
X146768000Y-90066000D01*
X146655500Y-90178500D01*
X146360397Y-90178500D01*
X146360397Y-89291000D01*
X146343555Y-89201490D01*
X146655500Y-89201490D01*
X146655500Y-89653500D01*
X146768000Y-89766000D01*
X147455500Y-89766000D01*
X147455500Y-88953500D01*
X147755500Y-88953500D01*
X147755500Y-89766000D01*
X148443000Y-89766000D01*
X148555500Y-89653500D01*
X148555500Y-89201490D01*
X148486992Y-89036096D01*
X148360405Y-88909509D01*
X148195011Y-88841000D01*
X147868000Y-88841000D01*
X147755500Y-88953500D01*
X147455500Y-88953500D01*
X147343000Y-88841000D01*
X147015989Y-88841000D01*
X146850595Y-88909509D01*
X146724008Y-89036096D01*
X146655500Y-89201490D01*
X146343555Y-89201490D01*
X146342965Y-89198356D01*
X146288212Y-89113268D01*
X146204669Y-89056185D01*
X146105500Y-89036103D01*
X145105500Y-89036103D01*
X145012856Y-89053535D01*
X144927768Y-89108288D01*
X144870685Y-89191831D01*
X144850603Y-89291000D01*
X144850603Y-89541000D01*
X144547793Y-89541000D01*
X144456957Y-89450005D01*
X144254882Y-89366096D01*
X144036078Y-89365905D01*
X143833857Y-89449461D01*
X143679005Y-89604043D01*
X143595096Y-89806118D01*
X143594905Y-90024922D01*
X142585897Y-90024922D01*
X142585897Y-89505000D01*
X142568465Y-89412356D01*
X142513712Y-89327268D01*
X142481000Y-89304917D01*
X142481000Y-88255897D01*
X143025500Y-88255897D01*
X143118144Y-88238465D01*
X143203232Y-88183712D01*
X143260315Y-88100169D01*
X143280397Y-88001000D01*
X143280397Y-86751000D01*
X143262965Y-86658356D01*
X143208212Y-86573268D01*
X143124669Y-86516185D01*
X143025500Y-86496103D01*
X142025500Y-86496103D01*
X141932856Y-86513535D01*
X141847768Y-86568288D01*
X141790685Y-86651831D01*
X141770603Y-86751000D01*
X141770603Y-87635444D01*
X141759545Y-87651993D01*
X141755547Y-87672095D01*
X141731000Y-87795500D01*
X141731000Y-89055000D01*
X141681000Y-89055000D01*
X141568500Y-89167500D01*
X141568500Y-90230000D01*
X141626000Y-90230000D01*
X141626000Y-90530000D01*
X141568500Y-90530000D01*
X141568500Y-90550000D01*
X141343500Y-90550000D01*
X141343500Y-90530000D01*
X141286000Y-90530000D01*
X141286000Y-90230000D01*
X141343500Y-90230000D01*
X141343500Y-89167500D01*
X141231000Y-89055000D01*
X141181000Y-89055000D01*
X141181000Y-88198018D01*
X141203232Y-88183712D01*
X141260315Y-88100169D01*
X141280397Y-88001000D01*
X141280397Y-86751000D01*
X141262965Y-86658356D01*
X141208212Y-86573268D01*
X141124669Y-86516185D01*
X141025500Y-86496103D01*
X140025500Y-86496103D01*
X139932856Y-86513535D01*
X139847768Y-86568288D01*
X139790685Y-86651831D01*
X139770603Y-86751000D01*
X139770603Y-88001000D01*
X139788035Y-88093644D01*
X139842788Y-88178732D01*
X139926331Y-88235815D01*
X139978678Y-88246415D01*
X139833357Y-88306461D01*
X139678505Y-88461043D01*
X139594596Y-88663118D01*
X139594405Y-88881922D01*
X139677961Y-89084143D01*
X139769500Y-89175842D01*
X139769500Y-89257899D01*
X139731000Y-89250103D01*
X139281000Y-89250103D01*
X139231000Y-89259511D01*
X139231000Y-85962330D01*
X139646309Y-85547021D01*
X145078979Y-85547021D01*
X145222486Y-85518476D01*
X145344144Y-85437186D01*
X146579433Y-84201897D01*
X147828000Y-84201897D01*
X147920644Y-84184465D01*
X148005732Y-84129712D01*
X148062815Y-84046169D01*
X148082897Y-83947000D01*
X148082897Y-81844500D01*
X148648000Y-81844500D01*
X148648000Y-84036511D01*
X148716509Y-84201905D01*
X148843096Y-84328492D01*
X149008490Y-84397000D01*
X149422500Y-84397000D01*
X149535000Y-84284500D01*
X149535000Y-81732000D01*
X150185000Y-81732000D01*
X150185000Y-84284500D01*
X150297500Y-84397000D01*
X150711510Y-84397000D01*
X150876904Y-84328492D01*
X151003491Y-84201905D01*
X151072000Y-84036511D01*
X151072000Y-81844500D01*
X150959500Y-81732000D01*
X150185000Y-81732000D01*
X149535000Y-81732000D01*
X148760500Y-81732000D01*
X148648000Y-81844500D01*
X148082897Y-81844500D01*
X148082897Y-78965000D01*
X148648000Y-78965000D01*
X148648000Y-80969500D01*
X148760500Y-81082000D01*
X149535000Y-81082000D01*
X149535000Y-81062000D01*
X150185000Y-81062000D01*
X150185000Y-81082000D01*
X150959500Y-81082000D01*
X151072000Y-80969500D01*
X151072000Y-78965000D01*
X151510103Y-78965000D01*
X151510103Y-83947000D01*
X151527535Y-84039644D01*
X151582288Y-84124732D01*
X151665831Y-84181815D01*
X151765000Y-84201897D01*
X152152000Y-84201897D01*
X152152000Y-84286005D01*
X152037078Y-84285905D01*
X151834857Y-84369461D01*
X151680005Y-84524043D01*
X151596096Y-84726118D01*
X151595905Y-84944922D01*
X151679461Y-85147143D01*
X151834043Y-85301995D01*
X152036118Y-85385904D01*
X152254922Y-85386095D01*
X152457143Y-85302539D01*
X152611995Y-85147957D01*
X152695904Y-84945882D01*
X152696017Y-84816313D01*
X152792165Y-84720165D01*
X152820003Y-84678502D01*
X152873455Y-84598506D01*
X152902000Y-84455000D01*
X152902000Y-84201897D01*
X153289000Y-84201897D01*
X153381644Y-84184465D01*
X153466732Y-84129712D01*
X153523815Y-84046169D01*
X153543897Y-83947000D01*
X153543897Y-78965000D01*
X154304103Y-78965000D01*
X154304103Y-83947000D01*
X154321535Y-84039644D01*
X154376288Y-84124732D01*
X154459831Y-84181815D01*
X154559000Y-84201897D01*
X156083000Y-84201897D01*
X156175644Y-84184465D01*
X156260732Y-84129712D01*
X156317815Y-84046169D01*
X156337897Y-83947000D01*
X156337897Y-78965000D01*
X156971103Y-78965000D01*
X156971103Y-83947000D01*
X156988535Y-84039644D01*
X157043288Y-84124732D01*
X157126831Y-84181815D01*
X157226000Y-84201897D01*
X158750000Y-84201897D01*
X158842644Y-84184465D01*
X158927732Y-84129712D01*
X158984815Y-84046169D01*
X159004897Y-83947000D01*
X159004897Y-78965000D01*
X159765103Y-78965000D01*
X159765103Y-83947000D01*
X159782535Y-84039644D01*
X159837288Y-84124732D01*
X159920831Y-84181815D01*
X160020000Y-84201897D01*
X161544000Y-84201897D01*
X161636644Y-84184465D01*
X161721732Y-84129712D01*
X161778815Y-84046169D01*
X161798897Y-83947000D01*
X161798897Y-78965000D01*
X162559103Y-78965000D01*
X162559103Y-83947000D01*
X162576535Y-84039644D01*
X162631288Y-84124732D01*
X162714831Y-84181815D01*
X162814000Y-84201897D01*
X164338000Y-84201897D01*
X164430644Y-84184465D01*
X164515732Y-84129712D01*
X164572815Y-84046169D01*
X164592897Y-83947000D01*
X164592897Y-78965000D01*
X165226103Y-78965000D01*
X165226103Y-83947000D01*
X165243535Y-84039644D01*
X165298288Y-84124732D01*
X165381831Y-84181815D01*
X165481000Y-84201897D01*
X167005000Y-84201897D01*
X167097644Y-84184465D01*
X167182732Y-84129712D01*
X167239815Y-84046169D01*
X167259897Y-83947000D01*
X167259897Y-78965000D01*
X169955000Y-78965000D01*
X169955000Y-131855000D01*
X143681432Y-131855000D01*
X143893296Y-131754529D01*
X144169571Y-131446400D01*
X144306900Y-131056000D01*
X144306900Y-130706000D01*
X140906900Y-130706000D01*
X140906900Y-130726000D01*
X140606900Y-130726000D01*
X140606900Y-130706000D01*
X138906900Y-130706000D01*
X138906900Y-130726000D01*
X138606900Y-130726000D01*
X138606900Y-130706000D01*
X135206900Y-130706000D01*
X135206900Y-131056000D01*
X135344229Y-131446400D01*
X135620504Y-131754529D01*
X135832368Y-131855000D01*
X129765000Y-131855000D01*
X129765000Y-130056000D01*
X135206900Y-130056000D01*
X135206900Y-130406000D01*
X138606900Y-130406000D01*
X138606900Y-129268500D01*
X138906900Y-129268500D01*
X138906900Y-130406000D01*
X140606900Y-130406000D01*
X140606900Y-129268500D01*
X140906900Y-129268500D01*
X140906900Y-130406000D01*
X144306900Y-130406000D01*
X144306900Y-130056000D01*
X144169571Y-129665600D01*
X143893296Y-129357471D01*
X143567625Y-129203030D01*
X143515484Y-129228188D01*
X143511805Y-129224509D01*
X143346411Y-129156000D01*
X142919400Y-129156000D01*
X142806900Y-129268500D01*
X142806900Y-129269078D01*
X142620504Y-129357471D01*
X142506900Y-129484173D01*
X142506900Y-129268500D01*
X142394400Y-129156000D01*
X141967389Y-129156000D01*
X141801995Y-129224509D01*
X141781900Y-129244604D01*
X141761805Y-129224509D01*
X141596411Y-129156000D01*
X141019400Y-129156000D01*
X140906900Y-129268500D01*
X140606900Y-129268500D01*
X140494400Y-129156000D01*
X139917389Y-129156000D01*
X139756900Y-129222477D01*
X139596411Y-129156000D01*
X139019400Y-129156000D01*
X138906900Y-129268500D01*
X138606900Y-129268500D01*
X138494400Y-129156000D01*
X137917389Y-129156000D01*
X137751995Y-129224509D01*
X137731900Y-129244604D01*
X137711805Y-129224509D01*
X137546411Y-129156000D01*
X137119400Y-129156000D01*
X137006900Y-129268500D01*
X137006900Y-129484173D01*
X136893296Y-129357471D01*
X136706900Y-129269078D01*
X136706900Y-129268500D01*
X136594400Y-129156000D01*
X136167389Y-129156000D01*
X136001995Y-129224509D01*
X135998316Y-129228188D01*
X135946175Y-129203030D01*
X135620504Y-129357471D01*
X135344229Y-129665600D01*
X135206900Y-130056000D01*
X129765000Y-130056000D01*
X129765000Y-128112160D01*
X130828046Y-128112160D01*
X130947124Y-128399672D01*
X131277386Y-128784665D01*
X131729838Y-129013966D01*
X131930000Y-128940830D01*
X131930000Y-127912000D01*
X132230000Y-127912000D01*
X132230000Y-128940830D01*
X132430162Y-129013966D01*
X132882614Y-128784665D01*
X133212876Y-128399672D01*
X133331954Y-128112160D01*
X133257988Y-127912000D01*
X132230000Y-127912000D01*
X131930000Y-127912000D01*
X130902012Y-127912000D01*
X130828046Y-128112160D01*
X129765000Y-128112160D01*
X129765000Y-127724385D01*
X136066132Y-127724385D01*
X136106407Y-128190090D01*
X136207141Y-128433284D01*
X136390619Y-128510149D01*
X137044768Y-127856000D01*
X136390619Y-127201851D01*
X136207141Y-127278716D01*
X136066132Y-127724385D01*
X129765000Y-127724385D01*
X129765000Y-127411840D01*
X130828046Y-127411840D01*
X130902012Y-127612000D01*
X131930000Y-127612000D01*
X131930000Y-126583170D01*
X132230000Y-126583170D01*
X132230000Y-127612000D01*
X133257988Y-127612000D01*
X133331954Y-127411840D01*
X133212876Y-127124328D01*
X133097404Y-126989719D01*
X136602751Y-126989719D01*
X137256900Y-127643868D01*
X137271043Y-127629726D01*
X137483175Y-127841858D01*
X137469032Y-127856000D01*
X137483175Y-127870143D01*
X137271043Y-128082275D01*
X137256900Y-128068132D01*
X136602751Y-128722281D01*
X136679616Y-128905759D01*
X137125285Y-129046768D01*
X137590990Y-129006493D01*
X137834184Y-128905759D01*
X137911048Y-128722283D01*
X137997268Y-128808503D01*
X138087763Y-128718008D01*
X138157731Y-128765815D01*
X138256900Y-128785897D01*
X138656900Y-128785897D01*
X138749544Y-128768465D01*
X138781507Y-128747897D01*
X138807731Y-128765815D01*
X138906900Y-128785897D01*
X139306900Y-128785897D01*
X139399544Y-128768465D01*
X139431507Y-128747897D01*
X139457731Y-128765815D01*
X139556900Y-128785897D01*
X139956900Y-128785897D01*
X140049544Y-128768465D01*
X140081507Y-128747897D01*
X140107731Y-128765815D01*
X140206900Y-128785897D01*
X140475405Y-128785897D01*
X140475408Y-128785904D01*
X140601995Y-128912491D01*
X140767389Y-128981000D01*
X140844400Y-128981000D01*
X140956900Y-128868500D01*
X140956900Y-128006000D01*
X140886900Y-128006000D01*
X140886900Y-127724385D01*
X141066132Y-127724385D01*
X141106407Y-128190090D01*
X141156900Y-128311991D01*
X141156900Y-128868500D01*
X141269400Y-128981000D01*
X141346411Y-128981000D01*
X141511805Y-128912491D01*
X141632058Y-128792238D01*
X141679616Y-128905759D01*
X142125285Y-129046768D01*
X142590990Y-129006493D01*
X142834184Y-128905759D01*
X142911049Y-128722281D01*
X142256900Y-128068132D01*
X142242758Y-128082275D01*
X142030626Y-127870143D01*
X142044768Y-127856000D01*
X142469032Y-127856000D01*
X143123181Y-128510149D01*
X143306659Y-128433284D01*
X143447668Y-127987615D01*
X143407393Y-127521910D01*
X143306659Y-127278716D01*
X143123181Y-127201851D01*
X142469032Y-127856000D01*
X142044768Y-127856000D01*
X142030626Y-127841858D01*
X142242758Y-127629726D01*
X142256900Y-127643868D01*
X142911049Y-126989719D01*
X142834184Y-126806241D01*
X142388515Y-126665232D01*
X141922810Y-126705507D01*
X141679616Y-126806241D01*
X141632058Y-126919762D01*
X141511805Y-126799509D01*
X141346411Y-126731000D01*
X141269400Y-126731000D01*
X141156900Y-126843500D01*
X141156900Y-127437506D01*
X141066132Y-127724385D01*
X140886900Y-127724385D01*
X140886900Y-127706000D01*
X140956900Y-127706000D01*
X140956900Y-126843500D01*
X140844400Y-126731000D01*
X140767389Y-126731000D01*
X140601995Y-126799509D01*
X140475408Y-126926096D01*
X140475405Y-126926103D01*
X140206900Y-126926103D01*
X140114256Y-126943535D01*
X140082293Y-126964103D01*
X140056069Y-126946185D01*
X139956900Y-126926103D01*
X139556900Y-126926103D01*
X139464256Y-126943535D01*
X139432293Y-126964103D01*
X139406069Y-126946185D01*
X139306900Y-126926103D01*
X138906900Y-126926103D01*
X138906900Y-126728110D01*
X138918840Y-126710241D01*
X138956899Y-126518900D01*
X138930000Y-126383665D01*
X138930000Y-123247622D01*
X138964815Y-123196669D01*
X138984897Y-123097500D01*
X138984897Y-122647500D01*
X138967465Y-122554856D01*
X138912712Y-122469768D01*
X138829169Y-122412685D01*
X138730000Y-122392603D01*
X138531065Y-122392603D01*
X138430000Y-122372500D01*
X138328935Y-122392603D01*
X138130000Y-122392603D01*
X138037356Y-122410035D01*
X137952268Y-122464788D01*
X137895185Y-122548331D01*
X137875103Y-122647500D01*
X137875103Y-123097500D01*
X137892535Y-123190144D01*
X137930000Y-123248366D01*
X137930000Y-126492000D01*
X137947015Y-126577539D01*
X137968060Y-126683342D01*
X138006900Y-126741470D01*
X138006900Y-126913129D01*
X137997268Y-126903497D01*
X137911048Y-126989717D01*
X137834184Y-126806241D01*
X137388515Y-126665232D01*
X136922810Y-126705507D01*
X136679616Y-126806241D01*
X136602751Y-126989719D01*
X133097404Y-126989719D01*
X132882614Y-126739335D01*
X132430162Y-126510034D01*
X132230000Y-126583170D01*
X131930000Y-126583170D01*
X131729838Y-126510034D01*
X131277386Y-126739335D01*
X130947124Y-127124328D01*
X130828046Y-127411840D01*
X129765000Y-127411840D01*
X129765000Y-124372000D01*
X130975103Y-124372000D01*
X130975103Y-126072000D01*
X130992535Y-126164644D01*
X131047288Y-126249732D01*
X131130831Y-126306815D01*
X131230000Y-126326897D01*
X132930000Y-126326897D01*
X133022644Y-126309465D01*
X133107732Y-126254712D01*
X133164815Y-126171169D01*
X133184897Y-126072000D01*
X133184897Y-125722000D01*
X134705500Y-125722000D01*
X134896842Y-125683940D01*
X135059053Y-125575553D01*
X136683553Y-123951053D01*
X136791940Y-123788842D01*
X136801762Y-123739461D01*
X136830000Y-123597500D01*
X136830000Y-123247622D01*
X136864815Y-123196669D01*
X136884336Y-123100270D01*
X138472882Y-121511725D01*
X138581269Y-121349513D01*
X138619329Y-121158171D01*
X138619329Y-119908740D01*
X139094329Y-119908740D01*
X139186973Y-119891308D01*
X139272061Y-119836555D01*
X139329144Y-119753012D01*
X139349226Y-119653843D01*
X139349226Y-117153843D01*
X139331794Y-117061199D01*
X139277041Y-116976111D01*
X139193498Y-116919028D01*
X139094329Y-116898946D01*
X138619329Y-116898946D01*
X138619329Y-116021329D01*
X138581269Y-115829987D01*
X138529159Y-115752000D01*
X138472883Y-115667776D01*
X137454396Y-114649290D01*
X137292185Y-114540903D01*
X137100843Y-114502843D01*
X135564226Y-114502843D01*
X135564226Y-114252843D01*
X135546794Y-114160199D01*
X135492041Y-114075111D01*
X135408498Y-114018028D01*
X135309329Y-113997946D01*
X133309329Y-113997946D01*
X133216685Y-114015378D01*
X133131597Y-114070131D01*
X133074514Y-114153674D01*
X133054432Y-114252843D01*
X133054432Y-115752843D01*
X133071864Y-115845487D01*
X133126617Y-115930575D01*
X133210160Y-115987658D01*
X133309329Y-116007740D01*
X135309329Y-116007740D01*
X135401973Y-115990308D01*
X135487061Y-115935555D01*
X135544144Y-115852012D01*
X135564226Y-115752843D01*
X135564226Y-115502843D01*
X136893737Y-115502843D01*
X137619329Y-116228436D01*
X137619329Y-116898946D01*
X137144329Y-116898946D01*
X137051685Y-116916378D01*
X136966597Y-116971131D01*
X136909514Y-117054674D01*
X136889432Y-117153843D01*
X136889432Y-119653843D01*
X136906864Y-119746487D01*
X136961617Y-119831575D01*
X137045160Y-119888658D01*
X137144329Y-119908740D01*
X137619329Y-119908740D01*
X137619329Y-120951064D01*
X136177791Y-122392603D01*
X136030000Y-122392603D01*
X135937356Y-122410035D01*
X135852268Y-122464788D01*
X135795185Y-122548331D01*
X135775103Y-122647500D01*
X135775103Y-123097500D01*
X135792535Y-123190144D01*
X135830000Y-123248366D01*
X135830000Y-123390394D01*
X134498394Y-124722000D01*
X133184897Y-124722000D01*
X133184897Y-124372000D01*
X133167465Y-124279356D01*
X133112712Y-124194268D01*
X133029169Y-124137185D01*
X132930000Y-124117103D01*
X131230000Y-124117103D01*
X131137356Y-124134535D01*
X131052268Y-124189288D01*
X130995185Y-124272831D01*
X130975103Y-124372000D01*
X129765000Y-124372000D01*
X129765000Y-118841343D01*
X133644329Y-118841343D01*
X133644329Y-119743353D01*
X133712837Y-119908747D01*
X133839424Y-120035334D01*
X134004818Y-120103843D01*
X134631829Y-120103843D01*
X134744329Y-119991343D01*
X134744329Y-118728843D01*
X135394329Y-118728843D01*
X135394329Y-119991343D01*
X135506829Y-120103843D01*
X136133840Y-120103843D01*
X136299234Y-120035334D01*
X136425821Y-119908747D01*
X136494329Y-119743353D01*
X136494329Y-118841343D01*
X136381829Y-118728843D01*
X135394329Y-118728843D01*
X134744329Y-118728843D01*
X133756829Y-118728843D01*
X133644329Y-118841343D01*
X129765000Y-118841343D01*
X129765000Y-117064333D01*
X133644329Y-117064333D01*
X133644329Y-117966343D01*
X133756829Y-118078843D01*
X134744329Y-118078843D01*
X134744329Y-116816343D01*
X135394329Y-116816343D01*
X135394329Y-118078843D01*
X136381829Y-118078843D01*
X136494329Y-117966343D01*
X136494329Y-117064333D01*
X136425821Y-116898939D01*
X136299234Y-116772352D01*
X136133840Y-116703843D01*
X135506829Y-116703843D01*
X135394329Y-116816343D01*
X134744329Y-116816343D01*
X134631829Y-116703843D01*
X134004818Y-116703843D01*
X133839424Y-116772352D01*
X133712837Y-116898939D01*
X133644329Y-117064333D01*
X129765000Y-117064333D01*
X129765000Y-110840343D01*
X132859329Y-110840343D01*
X132859329Y-111242353D01*
X132927837Y-111407747D01*
X133054424Y-111534334D01*
X133219818Y-111602843D01*
X133871829Y-111602843D01*
X133984329Y-111490343D01*
X133984329Y-110727843D01*
X134634329Y-110727843D01*
X134634329Y-111490343D01*
X134746829Y-111602843D01*
X135398840Y-111602843D01*
X135564234Y-111534334D01*
X135690821Y-111407747D01*
X135759329Y-111242353D01*
X135759329Y-110840343D01*
X135646829Y-110727843D01*
X134634329Y-110727843D01*
X133984329Y-110727843D01*
X132971829Y-110727843D01*
X132859329Y-110840343D01*
X129765000Y-110840343D01*
X129765000Y-109563333D01*
X132859329Y-109563333D01*
X132859329Y-109965343D01*
X132971829Y-110077843D01*
X133984329Y-110077843D01*
X133984329Y-109315343D01*
X134634329Y-109315343D01*
X134634329Y-110077843D01*
X135646829Y-110077843D01*
X135759329Y-109965343D01*
X135759329Y-109563333D01*
X135690821Y-109397939D01*
X135564234Y-109271352D01*
X135398840Y-109202843D01*
X134746829Y-109202843D01*
X134634329Y-109315343D01*
X133984329Y-109315343D01*
X133871829Y-109202843D01*
X133219818Y-109202843D01*
X133054424Y-109271352D01*
X132927837Y-109397939D01*
X132859329Y-109563333D01*
X129765000Y-109563333D01*
X129765000Y-107347843D01*
X133646329Y-107347843D01*
X133646329Y-108249853D01*
X133714837Y-108415247D01*
X133841424Y-108541834D01*
X134006818Y-108610343D01*
X134633829Y-108610343D01*
X134746329Y-108497843D01*
X134746329Y-107235343D01*
X135396329Y-107235343D01*
X135396329Y-108497843D01*
X135508829Y-108610343D01*
X136135840Y-108610343D01*
X136301234Y-108541834D01*
X136427821Y-108415247D01*
X136496329Y-108249853D01*
X136496329Y-107347843D01*
X136383829Y-107235343D01*
X135396329Y-107235343D01*
X134746329Y-107235343D01*
X133758829Y-107235343D01*
X133646329Y-107347843D01*
X129765000Y-107347843D01*
X129765000Y-105570833D01*
X133646329Y-105570833D01*
X133646329Y-106472843D01*
X133758829Y-106585343D01*
X134746329Y-106585343D01*
X134746329Y-105322843D01*
X135396329Y-105322843D01*
X135396329Y-106585343D01*
X136383829Y-106585343D01*
X136496329Y-106472843D01*
X136496329Y-105570833D01*
X136427821Y-105405439D01*
X136301234Y-105278852D01*
X136135840Y-105210343D01*
X135508829Y-105210343D01*
X135396329Y-105322843D01*
X134746329Y-105322843D01*
X134633829Y-105210343D01*
X134006818Y-105210343D01*
X133841424Y-105278852D01*
X133714837Y-105405439D01*
X133646329Y-105570833D01*
X129765000Y-105570833D01*
X129765000Y-93289500D01*
X130296500Y-93289500D01*
X130296500Y-99260514D01*
X130330754Y-99432722D01*
X130392079Y-99524501D01*
X130428302Y-99578712D01*
X134312459Y-103462869D01*
X134458450Y-103560418D01*
X134630657Y-103594671D01*
X137496329Y-103594671D01*
X137496329Y-105405446D01*
X137146329Y-105405446D01*
X137053685Y-105422878D01*
X136968597Y-105477631D01*
X136911514Y-105561174D01*
X136891432Y-105660343D01*
X136891432Y-108160343D01*
X136908864Y-108252987D01*
X136963617Y-108338075D01*
X137047160Y-108395158D01*
X137146329Y-108415240D01*
X137496329Y-108415240D01*
X137496329Y-111555787D01*
X136974273Y-112077843D01*
X135564226Y-112077843D01*
X135564226Y-111952843D01*
X135546794Y-111860199D01*
X135492041Y-111775111D01*
X135408498Y-111718028D01*
X135309329Y-111697946D01*
X133309329Y-111697946D01*
X133216685Y-111715378D01*
X133131597Y-111770131D01*
X133074514Y-111853674D01*
X133054432Y-111952843D01*
X133054432Y-113452843D01*
X133071864Y-113545487D01*
X133126617Y-113630575D01*
X133210160Y-113687658D01*
X133309329Y-113707740D01*
X135309329Y-113707740D01*
X135401973Y-113690308D01*
X135487061Y-113635555D01*
X135544144Y-113552012D01*
X135564226Y-113452843D01*
X135564226Y-113327843D01*
X137233157Y-113327843D01*
X137472334Y-113280268D01*
X137675099Y-113144785D01*
X138563271Y-112256613D01*
X138698754Y-112053848D01*
X138746329Y-111814671D01*
X138746329Y-110802843D01*
X139354432Y-110802843D01*
X139354432Y-114602843D01*
X139371864Y-114695487D01*
X139426617Y-114780575D01*
X139510160Y-114837658D01*
X139609329Y-114857740D01*
X141609329Y-114857740D01*
X141701973Y-114840308D01*
X141787061Y-114785555D01*
X141844144Y-114702012D01*
X141864226Y-114602843D01*
X141864226Y-110802843D01*
X141846794Y-110710199D01*
X141792041Y-110625111D01*
X141708498Y-110568028D01*
X141609329Y-110547946D01*
X139609329Y-110547946D01*
X139516685Y-110565378D01*
X139431597Y-110620131D01*
X139374514Y-110703674D01*
X139354432Y-110802843D01*
X138746329Y-110802843D01*
X138746329Y-108415240D01*
X139096329Y-108415240D01*
X139188973Y-108397808D01*
X139274061Y-108343055D01*
X139331144Y-108259512D01*
X139351226Y-108160343D01*
X139351226Y-105660343D01*
X139333794Y-105567699D01*
X139279041Y-105482611D01*
X139195498Y-105425528D01*
X139096329Y-105405446D01*
X138746329Y-105405446D01*
X138746329Y-105273000D01*
X139441116Y-105273000D01*
X140142333Y-105974217D01*
X140142333Y-107772335D01*
X140189908Y-108011512D01*
X140325391Y-108214277D01*
X142243488Y-110132374D01*
X142243488Y-111252000D01*
X142291063Y-111491177D01*
X142426546Y-111693942D01*
X142629311Y-111829425D01*
X142868488Y-111877000D01*
X143010000Y-111877000D01*
X143010000Y-120542500D01*
X143036754Y-120677000D01*
X143048060Y-120733842D01*
X143156447Y-120896053D01*
X144914947Y-122654554D01*
X145012186Y-122719526D01*
X145077158Y-122762940D01*
X145268500Y-122801000D01*
X145513603Y-122801000D01*
X145513603Y-122951000D01*
X145531035Y-123043644D01*
X145585788Y-123128732D01*
X145618500Y-123151083D01*
X145618500Y-127546443D01*
X145590768Y-127564288D01*
X145533685Y-127647831D01*
X145513603Y-127747000D01*
X145513603Y-129047000D01*
X145531035Y-129139644D01*
X145585788Y-129224732D01*
X145669331Y-129281815D01*
X145768500Y-129301897D01*
X146468500Y-129301897D01*
X146561144Y-129284465D01*
X146646232Y-129229712D01*
X146703315Y-129146169D01*
X146723397Y-129047000D01*
X146723397Y-127747000D01*
X147413603Y-127747000D01*
X147413603Y-129047000D01*
X147431035Y-129139644D01*
X147485788Y-129224732D01*
X147569331Y-129281815D01*
X147668500Y-129301897D01*
X148368500Y-129301897D01*
X148461144Y-129284465D01*
X148546232Y-129229712D01*
X148603315Y-129146169D01*
X148623397Y-129047000D01*
X148623397Y-128932227D01*
X149253335Y-129562165D01*
X149374993Y-129643455D01*
X149518500Y-129672000D01*
X150181303Y-129672000D01*
X150165103Y-129752000D01*
X150165103Y-130852000D01*
X150182535Y-130944644D01*
X150237288Y-131029732D01*
X150320831Y-131086815D01*
X150420000Y-131106897D01*
X152920000Y-131106897D01*
X153012644Y-131089465D01*
X153097732Y-131034712D01*
X153154815Y-130951169D01*
X153174897Y-130852000D01*
X153174897Y-130677000D01*
X157077207Y-130677000D01*
X157168043Y-130767995D01*
X157370118Y-130851904D01*
X157588922Y-130852095D01*
X157791143Y-130768539D01*
X157945995Y-130613957D01*
X158029904Y-130411882D01*
X158030095Y-130193078D01*
X157946539Y-129990857D01*
X157791957Y-129836005D01*
X157589882Y-129752096D01*
X157371078Y-129751905D01*
X157168857Y-129835461D01*
X157077158Y-129927000D01*
X153174897Y-129927000D01*
X153174897Y-129752000D01*
X153159844Y-129672000D01*
X162034670Y-129672000D01*
X162518017Y-130155347D01*
X162517905Y-130283922D01*
X162601461Y-130486143D01*
X162756043Y-130640995D01*
X162958118Y-130724904D01*
X163176922Y-130725095D01*
X163293321Y-130677000D01*
X165565103Y-130677000D01*
X165565103Y-130852000D01*
X165582535Y-130944644D01*
X165637288Y-131029732D01*
X165720831Y-131086815D01*
X165820000Y-131106897D01*
X168320000Y-131106897D01*
X168412644Y-131089465D01*
X168497732Y-131034712D01*
X168554815Y-130951169D01*
X168574897Y-130852000D01*
X168574897Y-129752000D01*
X168557465Y-129659356D01*
X168502712Y-129574268D01*
X168419169Y-129517185D01*
X168320000Y-129497103D01*
X165820000Y-129497103D01*
X165727356Y-129514535D01*
X165642268Y-129569288D01*
X165585185Y-129652831D01*
X165565103Y-129752000D01*
X165565103Y-129927000D01*
X163560629Y-129927000D01*
X163534539Y-129863857D01*
X163379957Y-129709005D01*
X163177882Y-129625096D01*
X163048313Y-129624983D01*
X162455165Y-129031835D01*
X162333507Y-128950545D01*
X162190000Y-128922000D01*
X153160722Y-128922000D01*
X153174897Y-128852000D01*
X153174897Y-128645000D01*
X158397753Y-128645000D01*
X158513118Y-128692904D01*
X158731922Y-128693095D01*
X158934143Y-128609539D01*
X159088995Y-128454957D01*
X159172904Y-128252882D01*
X159173095Y-128034078D01*
X159089539Y-127831857D01*
X159009822Y-127752000D01*
X165565103Y-127752000D01*
X165565103Y-128852000D01*
X165582535Y-128944644D01*
X165637288Y-129029732D01*
X165720831Y-129086815D01*
X165820000Y-129106897D01*
X168320000Y-129106897D01*
X168412644Y-129089465D01*
X168497732Y-129034712D01*
X168554815Y-128951169D01*
X168574897Y-128852000D01*
X168574897Y-127752000D01*
X168557465Y-127659356D01*
X168502712Y-127574268D01*
X168419169Y-127517185D01*
X168320000Y-127497103D01*
X165820000Y-127497103D01*
X165727356Y-127514535D01*
X165642268Y-127569288D01*
X165585185Y-127652831D01*
X165565103Y-127752000D01*
X159009822Y-127752000D01*
X158934957Y-127677005D01*
X158732882Y-127593096D01*
X158514078Y-127592905D01*
X158311857Y-127676461D01*
X158157005Y-127831043D01*
X158130448Y-127895000D01*
X153174897Y-127895000D01*
X153174897Y-127752000D01*
X153157465Y-127659356D01*
X153102712Y-127574268D01*
X153019169Y-127517185D01*
X152920000Y-127497103D01*
X150420000Y-127497103D01*
X150327356Y-127514535D01*
X150242268Y-127569288D01*
X150185185Y-127652831D01*
X150165103Y-127752000D01*
X150165103Y-128852000D01*
X150178274Y-128922000D01*
X149673830Y-128922000D01*
X148883665Y-128131835D01*
X148762007Y-128050545D01*
X148623397Y-128022974D01*
X148623397Y-127747000D01*
X148605965Y-127654356D01*
X148551212Y-127569268D01*
X148467669Y-127512185D01*
X148368500Y-127492103D01*
X147668500Y-127492103D01*
X147575856Y-127509535D01*
X147490768Y-127564288D01*
X147433685Y-127647831D01*
X147413603Y-127747000D01*
X146723397Y-127747000D01*
X146705965Y-127654356D01*
X146651212Y-127569268D01*
X146618500Y-127546917D01*
X146618500Y-125752000D01*
X150165103Y-125752000D01*
X150165103Y-126852000D01*
X150182535Y-126944644D01*
X150237288Y-127029732D01*
X150320831Y-127086815D01*
X150420000Y-127106897D01*
X152920000Y-127106897D01*
X153012644Y-127089465D01*
X153097732Y-127034712D01*
X153154815Y-126951169D01*
X153174897Y-126852000D01*
X153174897Y-126486000D01*
X156188207Y-126486000D01*
X156279043Y-126576995D01*
X156481118Y-126660904D01*
X156699922Y-126661095D01*
X156902143Y-126577539D01*
X157056995Y-126422957D01*
X157088567Y-126346922D01*
X161374905Y-126346922D01*
X161458461Y-126549143D01*
X161613043Y-126703995D01*
X161815118Y-126787904D01*
X162033922Y-126788095D01*
X162236143Y-126704539D01*
X162263730Y-126677000D01*
X165565103Y-126677000D01*
X165565103Y-126852000D01*
X165582535Y-126944644D01*
X165637288Y-127029732D01*
X165720831Y-127086815D01*
X165820000Y-127106897D01*
X168320000Y-127106897D01*
X168412644Y-127089465D01*
X168497732Y-127034712D01*
X168554815Y-126951169D01*
X168574897Y-126852000D01*
X168574897Y-125752000D01*
X168557465Y-125659356D01*
X168502712Y-125574268D01*
X168419169Y-125517185D01*
X168320000Y-125497103D01*
X165820000Y-125497103D01*
X165727356Y-125514535D01*
X165642268Y-125569288D01*
X165585185Y-125652831D01*
X165565103Y-125752000D01*
X165565103Y-125927000D01*
X162391598Y-125927000D01*
X162391539Y-125926857D01*
X162236957Y-125772005D01*
X162034882Y-125688096D01*
X161816078Y-125687905D01*
X161613857Y-125771461D01*
X161459005Y-125926043D01*
X161375096Y-126128118D01*
X161374905Y-126346922D01*
X157088567Y-126346922D01*
X157140904Y-126220882D01*
X157141095Y-126002078D01*
X157057539Y-125799857D01*
X156902957Y-125645005D01*
X156700882Y-125561096D01*
X156482078Y-125560905D01*
X156279857Y-125644461D01*
X156188158Y-125736000D01*
X153171886Y-125736000D01*
X153157465Y-125659356D01*
X153102712Y-125574268D01*
X153019169Y-125517185D01*
X152920000Y-125497103D01*
X150420000Y-125497103D01*
X150327356Y-125514535D01*
X150242268Y-125569288D01*
X150185185Y-125652831D01*
X150165103Y-125752000D01*
X146618500Y-125752000D01*
X146618500Y-123752000D01*
X150165103Y-123752000D01*
X150165103Y-124852000D01*
X150182535Y-124944644D01*
X150237288Y-125029732D01*
X150320831Y-125086815D01*
X150420000Y-125106897D01*
X152920000Y-125106897D01*
X153012644Y-125089465D01*
X153097732Y-125034712D01*
X153154815Y-124951169D01*
X153174897Y-124852000D01*
X153174897Y-124581000D01*
X155172207Y-124581000D01*
X155263043Y-124671995D01*
X155465118Y-124755904D01*
X155683922Y-124756095D01*
X155886143Y-124672539D01*
X156040995Y-124517957D01*
X156072567Y-124441922D01*
X164168905Y-124441922D01*
X164252461Y-124644143D01*
X164407043Y-124798995D01*
X164609118Y-124882904D01*
X164827922Y-124883095D01*
X165030143Y-124799539D01*
X165152896Y-124677000D01*
X165565103Y-124677000D01*
X165565103Y-124852000D01*
X165582535Y-124944644D01*
X165637288Y-125029732D01*
X165720831Y-125086815D01*
X165820000Y-125106897D01*
X168320000Y-125106897D01*
X168412644Y-125089465D01*
X168497732Y-125034712D01*
X168554815Y-124951169D01*
X168574897Y-124852000D01*
X168574897Y-123752000D01*
X168557465Y-123659356D01*
X168502712Y-123574268D01*
X168419169Y-123517185D01*
X168320000Y-123497103D01*
X165820000Y-123497103D01*
X165727356Y-123514535D01*
X165642268Y-123569288D01*
X165585185Y-123652831D01*
X165565103Y-123752000D01*
X165565103Y-123927000D01*
X165090847Y-123927000D01*
X165030957Y-123867005D01*
X164828882Y-123783096D01*
X164610078Y-123782905D01*
X164407857Y-123866461D01*
X164253005Y-124021043D01*
X164169096Y-124223118D01*
X164168905Y-124441922D01*
X156072567Y-124441922D01*
X156124904Y-124315882D01*
X156125095Y-124097078D01*
X156041539Y-123894857D01*
X155886957Y-123740005D01*
X155684882Y-123656096D01*
X155466078Y-123655905D01*
X155263857Y-123739461D01*
X155172158Y-123831000D01*
X153174897Y-123831000D01*
X153174897Y-123752000D01*
X153157465Y-123659356D01*
X153102712Y-123574268D01*
X153019169Y-123517185D01*
X152920000Y-123497103D01*
X150420000Y-123497103D01*
X150327356Y-123514535D01*
X150242268Y-123569288D01*
X150185185Y-123652831D01*
X150165103Y-123752000D01*
X146618500Y-123752000D01*
X146618500Y-123151557D01*
X146646232Y-123133712D01*
X146703315Y-123050169D01*
X146723397Y-122951000D01*
X146723397Y-121651000D01*
X147413603Y-121651000D01*
X147413603Y-122951000D01*
X147431035Y-123043644D01*
X147485788Y-123128732D01*
X147569331Y-123185815D01*
X147668500Y-123205897D01*
X148368500Y-123205897D01*
X148461144Y-123188465D01*
X148546232Y-123133712D01*
X148603315Y-123050169D01*
X148623397Y-122951000D01*
X148623397Y-122676000D01*
X150165103Y-122676000D01*
X150165103Y-122852000D01*
X150182535Y-122944644D01*
X150237288Y-123029732D01*
X150320831Y-123086815D01*
X150420000Y-123106897D01*
X152920000Y-123106897D01*
X153012644Y-123089465D01*
X153097732Y-123034712D01*
X153154815Y-122951169D01*
X153174897Y-122852000D01*
X153174897Y-122676000D01*
X158982207Y-122676000D01*
X159073043Y-122766995D01*
X159275118Y-122850904D01*
X159493922Y-122851095D01*
X159696143Y-122767539D01*
X159850995Y-122612957D01*
X159934904Y-122410882D01*
X159935095Y-122192078D01*
X159851539Y-121989857D01*
X159696957Y-121835005D01*
X159494882Y-121751096D01*
X159276078Y-121750905D01*
X159073857Y-121834461D01*
X158982158Y-121926000D01*
X153174897Y-121926000D01*
X153174897Y-121752000D01*
X153157465Y-121659356D01*
X153102712Y-121574268D01*
X153019169Y-121517185D01*
X152920000Y-121497103D01*
X150420000Y-121497103D01*
X150327356Y-121514535D01*
X150242268Y-121569288D01*
X150185185Y-121652831D01*
X150165103Y-121752000D01*
X150165103Y-121926000D01*
X148623397Y-121926000D01*
X148623397Y-121651000D01*
X148605965Y-121558356D01*
X148551212Y-121473268D01*
X148467669Y-121416185D01*
X148368500Y-121396103D01*
X147668500Y-121396103D01*
X147575856Y-121413535D01*
X147490768Y-121468288D01*
X147433685Y-121551831D01*
X147413603Y-121651000D01*
X146723397Y-121651000D01*
X146705965Y-121558356D01*
X146651212Y-121473268D01*
X146567669Y-121416185D01*
X146468500Y-121396103D01*
X145768500Y-121396103D01*
X145675856Y-121413535D01*
X145590768Y-121468288D01*
X145533685Y-121551831D01*
X145513603Y-121651000D01*
X145513603Y-121801000D01*
X145475607Y-121801000D01*
X144010000Y-120335394D01*
X144010000Y-119752000D01*
X150165103Y-119752000D01*
X150165103Y-120852000D01*
X150182535Y-120944644D01*
X150237288Y-121029732D01*
X150320831Y-121086815D01*
X150420000Y-121106897D01*
X152920000Y-121106897D01*
X153012644Y-121089465D01*
X153097732Y-121034712D01*
X153154815Y-120951169D01*
X153174897Y-120852000D01*
X153174897Y-120677000D01*
X154229149Y-120677000D01*
X154287043Y-120734995D01*
X154489118Y-120818904D01*
X154707922Y-120819095D01*
X154910143Y-120735539D01*
X155064995Y-120580957D01*
X155148904Y-120378882D01*
X155149095Y-120160078D01*
X155065539Y-119957857D01*
X154910957Y-119803005D01*
X154708882Y-119719096D01*
X154490078Y-119718905D01*
X154287857Y-119802461D01*
X154163100Y-119927000D01*
X153174897Y-119927000D01*
X153174897Y-119752000D01*
X153157465Y-119659356D01*
X153102712Y-119574268D01*
X153019169Y-119517185D01*
X152920000Y-119497103D01*
X150420000Y-119497103D01*
X150327356Y-119514535D01*
X150242268Y-119569288D01*
X150185185Y-119652831D01*
X150165103Y-119752000D01*
X144010000Y-119752000D01*
X144010000Y-118563000D01*
X145318500Y-118563000D01*
X145318500Y-119040010D01*
X145387008Y-119205404D01*
X145513595Y-119331991D01*
X145678989Y-119400500D01*
X145856000Y-119400500D01*
X145968500Y-119288000D01*
X145968500Y-118450500D01*
X146268500Y-118450500D01*
X146268500Y-119288000D01*
X146381000Y-119400500D01*
X146558011Y-119400500D01*
X146723405Y-119331991D01*
X146849992Y-119205404D01*
X146918500Y-119040010D01*
X146918500Y-118563000D01*
X146806000Y-118450500D01*
X146268500Y-118450500D01*
X145968500Y-118450500D01*
X145431000Y-118450500D01*
X145318500Y-118563000D01*
X144010000Y-118563000D01*
X144010000Y-117560990D01*
X145318500Y-117560990D01*
X145318500Y-118038000D01*
X145431000Y-118150500D01*
X145968500Y-118150500D01*
X145968500Y-117313000D01*
X146268500Y-117313000D01*
X146268500Y-118150500D01*
X146806000Y-118150500D01*
X146918500Y-118038000D01*
X146918500Y-117650500D01*
X147413603Y-117650500D01*
X147413603Y-118950500D01*
X147431035Y-119043144D01*
X147485788Y-119128232D01*
X147569331Y-119185315D01*
X147668500Y-119205397D01*
X148368500Y-119205397D01*
X148461144Y-119187965D01*
X148546232Y-119133212D01*
X148603315Y-119049669D01*
X148623397Y-118950500D01*
X148623397Y-118677000D01*
X150165103Y-118677000D01*
X150165103Y-118852000D01*
X150182535Y-118944644D01*
X150237288Y-119029732D01*
X150320831Y-119086815D01*
X150420000Y-119106897D01*
X152920000Y-119106897D01*
X153012644Y-119089465D01*
X153097732Y-119034712D01*
X153154815Y-118951169D01*
X153174897Y-118852000D01*
X153174897Y-118612000D01*
X153521213Y-118612000D01*
X153612049Y-118702995D01*
X153814124Y-118786904D01*
X154032928Y-118787095D01*
X154178557Y-118726922D01*
X157691905Y-118726922D01*
X157775461Y-118929143D01*
X157930043Y-119083995D01*
X158132118Y-119167904D01*
X158350922Y-119168095D01*
X158531963Y-119093291D01*
X162005837Y-122567165D01*
X162127496Y-122648455D01*
X162271002Y-122677000D01*
X165565103Y-122677000D01*
X165565103Y-122852000D01*
X165582535Y-122944644D01*
X165637288Y-123029732D01*
X165720831Y-123086815D01*
X165820000Y-123106897D01*
X168320000Y-123106897D01*
X168412644Y-123089465D01*
X168497732Y-123034712D01*
X168554815Y-122951169D01*
X168574897Y-122852000D01*
X168574897Y-121752000D01*
X168557465Y-121659356D01*
X168502712Y-121574268D01*
X168419169Y-121517185D01*
X168320000Y-121497103D01*
X165820000Y-121497103D01*
X165727356Y-121514535D01*
X165642268Y-121569288D01*
X165585185Y-121652831D01*
X165565103Y-121752000D01*
X165565103Y-121927000D01*
X162426332Y-121927000D01*
X160251332Y-119752000D01*
X165565103Y-119752000D01*
X165565103Y-120852000D01*
X165582535Y-120944644D01*
X165637288Y-121029732D01*
X165720831Y-121086815D01*
X165820000Y-121106897D01*
X168320000Y-121106897D01*
X168412644Y-121089465D01*
X168497732Y-121034712D01*
X168554815Y-120951169D01*
X168574897Y-120852000D01*
X168574897Y-119752000D01*
X168557465Y-119659356D01*
X168502712Y-119574268D01*
X168419169Y-119517185D01*
X168320000Y-119497103D01*
X165820000Y-119497103D01*
X165727356Y-119514535D01*
X165642268Y-119569288D01*
X165585185Y-119652831D01*
X165565103Y-119752000D01*
X160251332Y-119752000D01*
X159211880Y-118712548D01*
X159381196Y-118642588D01*
X159472895Y-118551049D01*
X165565103Y-118551049D01*
X165565103Y-118852000D01*
X165582535Y-118944644D01*
X165637288Y-119029732D01*
X165720831Y-119086815D01*
X165820000Y-119106897D01*
X168320000Y-119106897D01*
X168412644Y-119089465D01*
X168497732Y-119034712D01*
X168554815Y-118951169D01*
X168574897Y-118852000D01*
X168574897Y-117752000D01*
X168557465Y-117659356D01*
X168502712Y-117574268D01*
X168419169Y-117517185D01*
X168320000Y-117497103D01*
X165820000Y-117497103D01*
X165727356Y-117514535D01*
X165642268Y-117569288D01*
X165585185Y-117652831D01*
X165565103Y-117752000D01*
X165565103Y-117801049D01*
X159472846Y-117801049D01*
X159382010Y-117710054D01*
X159179935Y-117626145D01*
X158961131Y-117625954D01*
X158758910Y-117709510D01*
X158604058Y-117864092D01*
X158520149Y-118066167D01*
X158520086Y-118137941D01*
X158351882Y-118068096D01*
X158133078Y-118067905D01*
X157930857Y-118151461D01*
X157776005Y-118306043D01*
X157692096Y-118508118D01*
X157691905Y-118726922D01*
X154178557Y-118726922D01*
X154235149Y-118703539D01*
X154390001Y-118548957D01*
X154473910Y-118346882D01*
X154474101Y-118128078D01*
X154390545Y-117925857D01*
X154235963Y-117771005D01*
X154033888Y-117687096D01*
X153815084Y-117686905D01*
X153612863Y-117770461D01*
X153521164Y-117862000D01*
X153174897Y-117862000D01*
X153174897Y-117752000D01*
X153157465Y-117659356D01*
X153102712Y-117574268D01*
X153019169Y-117517185D01*
X152920000Y-117497103D01*
X150420000Y-117497103D01*
X150327356Y-117514535D01*
X150242268Y-117569288D01*
X150185185Y-117652831D01*
X150165103Y-117752000D01*
X150165103Y-117927000D01*
X148626041Y-117927000D01*
X148623397Y-117926474D01*
X148623397Y-117650500D01*
X148605965Y-117557856D01*
X148551212Y-117472768D01*
X148467669Y-117415685D01*
X148368500Y-117395603D01*
X147668500Y-117395603D01*
X147575856Y-117413035D01*
X147490768Y-117467788D01*
X147433685Y-117551331D01*
X147413603Y-117650500D01*
X146918500Y-117650500D01*
X146918500Y-117560990D01*
X146849992Y-117395596D01*
X146723405Y-117269009D01*
X146558011Y-117200500D01*
X146381000Y-117200500D01*
X146268500Y-117313000D01*
X145968500Y-117313000D01*
X145856000Y-117200500D01*
X145678989Y-117200500D01*
X145513595Y-117269009D01*
X145387008Y-117395596D01*
X145318500Y-117560990D01*
X144010000Y-117560990D01*
X144010000Y-116689500D01*
X149970000Y-116689500D01*
X149970000Y-116941510D01*
X150038508Y-117106904D01*
X150165095Y-117233491D01*
X150330489Y-117302000D01*
X151232500Y-117302000D01*
X151345000Y-117189500D01*
X151345000Y-116577000D01*
X151995000Y-116577000D01*
X151995000Y-117189500D01*
X152107500Y-117302000D01*
X153009511Y-117302000D01*
X153174905Y-117233491D01*
X153301492Y-117106904D01*
X153370000Y-116941510D01*
X153370000Y-116689500D01*
X153257500Y-116577000D01*
X151995000Y-116577000D01*
X151345000Y-116577000D01*
X150082500Y-116577000D01*
X149970000Y-116689500D01*
X144010000Y-116689500D01*
X144010000Y-115662490D01*
X149970000Y-115662490D01*
X149970000Y-115914500D01*
X150082500Y-116027000D01*
X151345000Y-116027000D01*
X151345000Y-115414500D01*
X151995000Y-115414500D01*
X151995000Y-116027000D01*
X153257500Y-116027000D01*
X153370000Y-115914500D01*
X153370000Y-115662490D01*
X153301492Y-115497096D01*
X153174905Y-115370509D01*
X153009511Y-115302000D01*
X152107500Y-115302000D01*
X151995000Y-115414500D01*
X151345000Y-115414500D01*
X151232500Y-115302000D01*
X150330489Y-115302000D01*
X150165095Y-115370509D01*
X150038508Y-115497096D01*
X149970000Y-115662490D01*
X144010000Y-115662490D01*
X144010000Y-113352000D01*
X153575103Y-113352000D01*
X153575103Y-115852000D01*
X153592535Y-115944644D01*
X153647288Y-116029732D01*
X153730831Y-116086815D01*
X153830000Y-116106897D01*
X154930000Y-116106897D01*
X155022644Y-116089465D01*
X155107732Y-116034712D01*
X155164815Y-115951169D01*
X155184897Y-115852000D01*
X155184897Y-113352000D01*
X155575103Y-113352000D01*
X155575103Y-115852000D01*
X155592535Y-115944644D01*
X155647288Y-116029732D01*
X155730831Y-116086815D01*
X155830000Y-116106897D01*
X156930000Y-116106897D01*
X157022644Y-116089465D01*
X157107732Y-116034712D01*
X157164815Y-115951169D01*
X157184897Y-115852000D01*
X157184897Y-113352000D01*
X157575103Y-113352000D01*
X157575103Y-115852000D01*
X157592535Y-115944644D01*
X157647288Y-116029732D01*
X157730831Y-116086815D01*
X157830000Y-116106897D01*
X158930000Y-116106897D01*
X159022644Y-116089465D01*
X159107732Y-116034712D01*
X159164815Y-115951169D01*
X159184897Y-115852000D01*
X159184897Y-113352000D01*
X159575103Y-113352000D01*
X159575103Y-115852000D01*
X159592535Y-115944644D01*
X159647288Y-116029732D01*
X159730831Y-116086815D01*
X159830000Y-116106897D01*
X160930000Y-116106897D01*
X161022644Y-116089465D01*
X161107732Y-116034712D01*
X161164815Y-115951169D01*
X161184897Y-115852000D01*
X161184897Y-113352000D01*
X161575103Y-113352000D01*
X161575103Y-115852000D01*
X161592535Y-115944644D01*
X161647288Y-116029732D01*
X161730831Y-116086815D01*
X161830000Y-116106897D01*
X162930000Y-116106897D01*
X163022644Y-116089465D01*
X163107732Y-116034712D01*
X163164815Y-115951169D01*
X163184897Y-115852000D01*
X163184897Y-113352000D01*
X163575103Y-113352000D01*
X163575103Y-115852000D01*
X163592535Y-115944644D01*
X163647288Y-116029732D01*
X163730831Y-116086815D01*
X163830000Y-116106897D01*
X164930000Y-116106897D01*
X165022644Y-116089465D01*
X165107732Y-116034712D01*
X165164815Y-115951169D01*
X165184897Y-115852000D01*
X165184897Y-113352000D01*
X165167465Y-113259356D01*
X165112712Y-113174268D01*
X165029169Y-113117185D01*
X164930000Y-113097103D01*
X163830000Y-113097103D01*
X163737356Y-113114535D01*
X163652268Y-113169288D01*
X163595185Y-113252831D01*
X163575103Y-113352000D01*
X163184897Y-113352000D01*
X163167465Y-113259356D01*
X163112712Y-113174268D01*
X163029169Y-113117185D01*
X162930000Y-113097103D01*
X161830000Y-113097103D01*
X161737356Y-113114535D01*
X161652268Y-113169288D01*
X161595185Y-113252831D01*
X161575103Y-113352000D01*
X161184897Y-113352000D01*
X161167465Y-113259356D01*
X161112712Y-113174268D01*
X161029169Y-113117185D01*
X160930000Y-113097103D01*
X159830000Y-113097103D01*
X159737356Y-113114535D01*
X159652268Y-113169288D01*
X159595185Y-113252831D01*
X159575103Y-113352000D01*
X159184897Y-113352000D01*
X159167465Y-113259356D01*
X159112712Y-113174268D01*
X159029169Y-113117185D01*
X158930000Y-113097103D01*
X157830000Y-113097103D01*
X157737356Y-113114535D01*
X157652268Y-113169288D01*
X157595185Y-113252831D01*
X157575103Y-113352000D01*
X157184897Y-113352000D01*
X157167465Y-113259356D01*
X157112712Y-113174268D01*
X157029169Y-113117185D01*
X156930000Y-113097103D01*
X155830000Y-113097103D01*
X155737356Y-113114535D01*
X155652268Y-113169288D01*
X155595185Y-113252831D01*
X155575103Y-113352000D01*
X155184897Y-113352000D01*
X155167465Y-113259356D01*
X155112712Y-113174268D01*
X155029169Y-113117185D01*
X154930000Y-113097103D01*
X153830000Y-113097103D01*
X153737356Y-113114535D01*
X153652268Y-113169288D01*
X153595185Y-113252831D01*
X153575103Y-113352000D01*
X144010000Y-113352000D01*
X144010000Y-111877000D01*
X159220118Y-111877000D01*
X160168063Y-112824945D01*
X160370828Y-112960428D01*
X160610005Y-113008004D01*
X160610010Y-113008003D01*
X162285001Y-113008003D01*
X162524178Y-112960428D01*
X162726943Y-112824945D01*
X164050888Y-111501000D01*
X164841116Y-111501000D01*
X165647103Y-112306987D01*
X165647103Y-113147000D01*
X165664535Y-113239644D01*
X165719288Y-113324732D01*
X165777000Y-113364165D01*
X165777000Y-115505194D01*
X165727356Y-115514535D01*
X165642268Y-115569288D01*
X165585185Y-115652831D01*
X165565103Y-115752000D01*
X165565103Y-116852000D01*
X165582535Y-116944644D01*
X165637288Y-117029732D01*
X165720831Y-117086815D01*
X165820000Y-117106897D01*
X168320000Y-117106897D01*
X168412644Y-117089465D01*
X168497732Y-117034712D01*
X168554815Y-116951169D01*
X168574897Y-116852000D01*
X168574897Y-115752000D01*
X168557465Y-115659356D01*
X168502712Y-115574268D01*
X168419169Y-115517185D01*
X168320000Y-115497103D01*
X167027000Y-115497103D01*
X167027000Y-113363644D01*
X167079732Y-113329712D01*
X167136815Y-113246169D01*
X167156897Y-113147000D01*
X167156897Y-112784500D01*
X167452000Y-112784500D01*
X167452000Y-113236510D01*
X167520508Y-113401904D01*
X167647095Y-113528491D01*
X167812489Y-113597000D01*
X168139500Y-113597000D01*
X168252000Y-113484500D01*
X168252000Y-112672000D01*
X168552000Y-112672000D01*
X168552000Y-113484500D01*
X168664500Y-113597000D01*
X168991511Y-113597000D01*
X169156905Y-113528491D01*
X169283492Y-113401904D01*
X169352000Y-113236510D01*
X169352000Y-112784500D01*
X169239500Y-112672000D01*
X168552000Y-112672000D01*
X168252000Y-112672000D01*
X167564500Y-112672000D01*
X167452000Y-112784500D01*
X167156897Y-112784500D01*
X167156897Y-111897000D01*
X167140055Y-111807490D01*
X167452000Y-111807490D01*
X167452000Y-112259500D01*
X167564500Y-112372000D01*
X168252000Y-112372000D01*
X168252000Y-111559500D01*
X168552000Y-111559500D01*
X168552000Y-112372000D01*
X169239500Y-112372000D01*
X169352000Y-112259500D01*
X169352000Y-111807490D01*
X169283492Y-111642096D01*
X169156905Y-111515509D01*
X168991511Y-111447000D01*
X168664500Y-111447000D01*
X168552000Y-111559500D01*
X168252000Y-111559500D01*
X168139500Y-111447000D01*
X167812489Y-111447000D01*
X167647095Y-111515509D01*
X167520508Y-111642096D01*
X167452000Y-111807490D01*
X167140055Y-111807490D01*
X167139465Y-111804356D01*
X167084712Y-111719268D01*
X167001169Y-111662185D01*
X166902000Y-111642103D01*
X166749987Y-111642103D01*
X165541942Y-110434058D01*
X165339177Y-110298575D01*
X165202494Y-110271387D01*
X164429897Y-109498791D01*
X164429897Y-108951000D01*
X164412465Y-108858356D01*
X164357712Y-108773268D01*
X164325000Y-108750917D01*
X164325000Y-108644973D01*
X164406941Y-108522341D01*
X164428243Y-108415247D01*
X164445001Y-108330999D01*
X164445001Y-106522160D01*
X166642046Y-106522160D01*
X166761124Y-106809672D01*
X167091386Y-107194665D01*
X167543838Y-107423966D01*
X167744000Y-107350830D01*
X167744000Y-106322000D01*
X168044000Y-106322000D01*
X168044000Y-107350830D01*
X168244162Y-107423966D01*
X168696614Y-107194665D01*
X169026876Y-106809672D01*
X169145954Y-106522160D01*
X169071988Y-106322000D01*
X168044000Y-106322000D01*
X167744000Y-106322000D01*
X166716012Y-106322000D01*
X166642046Y-106522160D01*
X164445001Y-106522160D01*
X164445001Y-105821840D01*
X166642046Y-105821840D01*
X166716012Y-106022000D01*
X167744000Y-106022000D01*
X167744000Y-104993170D01*
X168044000Y-104993170D01*
X168044000Y-106022000D01*
X169071988Y-106022000D01*
X169145954Y-105821840D01*
X169026876Y-105534328D01*
X168696614Y-105149335D01*
X168244162Y-104920034D01*
X168044000Y-104993170D01*
X167744000Y-104993170D01*
X167543838Y-104920034D01*
X167091386Y-105149335D01*
X166761124Y-105534328D01*
X166642046Y-105821840D01*
X164445001Y-105821840D01*
X164445001Y-104922003D01*
X164406941Y-104730661D01*
X164298554Y-104568450D01*
X163865001Y-104134897D01*
X163865001Y-103632000D01*
X166772450Y-103632000D01*
X166856183Y-104052952D01*
X167094633Y-104409817D01*
X167451498Y-104648267D01*
X167872450Y-104732000D01*
X167915550Y-104732000D01*
X168336502Y-104648267D01*
X168693367Y-104409817D01*
X168931817Y-104052952D01*
X169015550Y-103632000D01*
X168931817Y-103211048D01*
X168693367Y-102854183D01*
X168336502Y-102615733D01*
X167915550Y-102532000D01*
X167872450Y-102532000D01*
X167451498Y-102615733D01*
X167094633Y-102854183D01*
X166856183Y-103211048D01*
X166772450Y-103632000D01*
X163865001Y-103632000D01*
X163865001Y-101092000D01*
X166772450Y-101092000D01*
X166856183Y-101512952D01*
X167094633Y-101869817D01*
X167451498Y-102108267D01*
X167872450Y-102192000D01*
X167915550Y-102192000D01*
X168336502Y-102108267D01*
X168693367Y-101869817D01*
X168931817Y-101512952D01*
X169015550Y-101092000D01*
X168931817Y-100671048D01*
X168693367Y-100314183D01*
X168336502Y-100075733D01*
X167915550Y-99992000D01*
X167872450Y-99992000D01*
X167451498Y-100075733D01*
X167094633Y-100314183D01*
X166856183Y-100671048D01*
X166772450Y-101092000D01*
X163865001Y-101092000D01*
X163865001Y-98552000D01*
X166772450Y-98552000D01*
X166856183Y-98972952D01*
X167094633Y-99329817D01*
X167451498Y-99568267D01*
X167872450Y-99652000D01*
X167915550Y-99652000D01*
X168336502Y-99568267D01*
X168693367Y-99329817D01*
X168931817Y-98972952D01*
X169015550Y-98552000D01*
X168931817Y-98131048D01*
X168693367Y-97774183D01*
X168336502Y-97535733D01*
X167915550Y-97452000D01*
X167872450Y-97452000D01*
X167451498Y-97535733D01*
X167094633Y-97774183D01*
X166856183Y-98131048D01*
X166772450Y-98552000D01*
X163865001Y-98552000D01*
X163865001Y-95162000D01*
X166789103Y-95162000D01*
X166789103Y-96862000D01*
X166806535Y-96954644D01*
X166861288Y-97039732D01*
X166944831Y-97096815D01*
X167044000Y-97116897D01*
X168744000Y-97116897D01*
X168836644Y-97099465D01*
X168921732Y-97044712D01*
X168978815Y-96961169D01*
X168998897Y-96862000D01*
X168998897Y-95162000D01*
X168981465Y-95069356D01*
X168926712Y-94984268D01*
X168843169Y-94927185D01*
X168744000Y-94907103D01*
X167044000Y-94907103D01*
X166951356Y-94924535D01*
X166866268Y-94979288D01*
X166809185Y-95062831D01*
X166789103Y-95162000D01*
X163865001Y-95162000D01*
X163865001Y-90266160D01*
X166642046Y-90266160D01*
X166761124Y-90553672D01*
X167091386Y-90938665D01*
X167543838Y-91167966D01*
X167744000Y-91094830D01*
X167744000Y-90066000D01*
X168044000Y-90066000D01*
X168044000Y-91094830D01*
X168244162Y-91167966D01*
X168696614Y-90938665D01*
X169026876Y-90553672D01*
X169145954Y-90266160D01*
X169071988Y-90066000D01*
X168044000Y-90066000D01*
X167744000Y-90066000D01*
X166716012Y-90066000D01*
X166642046Y-90266160D01*
X163865001Y-90266160D01*
X163865001Y-89565840D01*
X166642046Y-89565840D01*
X166716012Y-89766000D01*
X167744000Y-89766000D01*
X167744000Y-88737170D01*
X168044000Y-88737170D01*
X168044000Y-89766000D01*
X169071988Y-89766000D01*
X169145954Y-89565840D01*
X169026876Y-89278328D01*
X168696614Y-88893335D01*
X168244162Y-88664034D01*
X168044000Y-88737170D01*
X167744000Y-88737170D01*
X167543838Y-88664034D01*
X167091386Y-88893335D01*
X166761124Y-89278328D01*
X166642046Y-89565840D01*
X163865001Y-89565840D01*
X163865001Y-88689001D01*
X163826941Y-88497659D01*
X163718554Y-88335448D01*
X163556343Y-88227061D01*
X163365001Y-88189001D01*
X163106200Y-88189001D01*
X163149815Y-88125169D01*
X163169897Y-88026000D01*
X163169897Y-86726000D01*
X163860103Y-86726000D01*
X163860103Y-88026000D01*
X163877535Y-88118644D01*
X163932288Y-88203732D01*
X164015831Y-88260815D01*
X164115000Y-88280897D01*
X164815000Y-88280897D01*
X164907644Y-88263465D01*
X164992732Y-88208712D01*
X165049815Y-88125169D01*
X165069897Y-88026000D01*
X165069897Y-87876000D01*
X166789103Y-87876000D01*
X166789103Y-88226000D01*
X166806535Y-88318644D01*
X166861288Y-88403732D01*
X166944831Y-88460815D01*
X167044000Y-88480897D01*
X168744000Y-88480897D01*
X168836644Y-88463465D01*
X168921732Y-88408712D01*
X168978815Y-88325169D01*
X168998897Y-88226000D01*
X168998897Y-86526000D01*
X168981465Y-86433356D01*
X168926712Y-86348268D01*
X168843169Y-86291185D01*
X168744000Y-86271103D01*
X167044000Y-86271103D01*
X166951356Y-86288535D01*
X166866268Y-86343288D01*
X166809185Y-86426831D01*
X166789103Y-86526000D01*
X166789103Y-86876000D01*
X165069897Y-86876000D01*
X165069897Y-86726000D01*
X165052465Y-86633356D01*
X164997712Y-86548268D01*
X164914169Y-86491185D01*
X164815000Y-86471103D01*
X164115000Y-86471103D01*
X164022356Y-86488535D01*
X163937268Y-86543288D01*
X163880185Y-86626831D01*
X163860103Y-86726000D01*
X163169897Y-86726000D01*
X163152465Y-86633356D01*
X163097712Y-86548268D01*
X163014169Y-86491185D01*
X162915000Y-86471103D01*
X162215000Y-86471103D01*
X162122356Y-86488535D01*
X162037268Y-86543288D01*
X161980185Y-86626831D01*
X161960103Y-86726000D01*
X161960103Y-88026000D01*
X161977535Y-88118644D01*
X162032288Y-88203732D01*
X162065000Y-88226083D01*
X162065000Y-88526000D01*
X162092465Y-88664078D01*
X162103060Y-88717342D01*
X162211447Y-88879553D01*
X162374447Y-89042554D01*
X162472825Y-89108288D01*
X162536659Y-89150941D01*
X162728001Y-89189001D01*
X162865001Y-89189001D01*
X162865001Y-104342003D01*
X162903061Y-104533345D01*
X163011448Y-104695556D01*
X163445001Y-105129109D01*
X163445001Y-106569279D01*
X163304882Y-106511096D01*
X163175313Y-106510983D01*
X162340000Y-105675670D01*
X162340000Y-103632000D01*
X162333642Y-103600038D01*
X162311455Y-103488493D01*
X162230165Y-103366835D01*
X158744000Y-99880670D01*
X158744000Y-94876397D01*
X158944000Y-94876397D01*
X159036644Y-94858965D01*
X159121732Y-94804212D01*
X159178815Y-94720669D01*
X159198897Y-94621500D01*
X159198897Y-93571500D01*
X159195667Y-93554332D01*
X159198905Y-93552991D01*
X159325492Y-93426404D01*
X159394000Y-93261010D01*
X159394000Y-92909000D01*
X159281500Y-92796500D01*
X158519000Y-92796500D01*
X158519000Y-92816500D01*
X158219000Y-92816500D01*
X158219000Y-92796500D01*
X157456500Y-92796500D01*
X157344000Y-92909000D01*
X157344000Y-93261010D01*
X157412508Y-93426404D01*
X157539095Y-93552991D01*
X157542560Y-93554426D01*
X157539103Y-93571500D01*
X157539103Y-93721500D01*
X155848897Y-93721500D01*
X155848897Y-93571500D01*
X155845667Y-93554332D01*
X155848905Y-93552991D01*
X155975492Y-93426404D01*
X156044000Y-93261010D01*
X156044000Y-92909000D01*
X155931500Y-92796500D01*
X155169000Y-92796500D01*
X155169000Y-92816500D01*
X154869000Y-92816500D01*
X154869000Y-92796500D01*
X154106500Y-92796500D01*
X153994000Y-92909000D01*
X153994000Y-93261010D01*
X154062508Y-93426404D01*
X154189095Y-93552991D01*
X154192560Y-93554426D01*
X154189103Y-93571500D01*
X154189103Y-94621500D01*
X154206535Y-94714144D01*
X154261288Y-94799232D01*
X154344831Y-94856315D01*
X154444000Y-94876397D01*
X155594000Y-94876397D01*
X155686644Y-94858965D01*
X155771732Y-94804212D01*
X155828815Y-94720669D01*
X155848897Y-94621500D01*
X155848897Y-94471500D01*
X157539103Y-94471500D01*
X157539103Y-94621500D01*
X157556535Y-94714144D01*
X157611288Y-94799232D01*
X157694831Y-94856315D01*
X157794000Y-94876397D01*
X157994000Y-94876397D01*
X157994000Y-100036000D01*
X158022545Y-100179507D01*
X158103835Y-100301165D01*
X161590000Y-103787330D01*
X161590000Y-105831000D01*
X161618545Y-105974507D01*
X161699835Y-106096165D01*
X162645017Y-107041347D01*
X162644905Y-107169922D01*
X162728461Y-107372143D01*
X162883043Y-107526995D01*
X163085118Y-107610904D01*
X163303922Y-107611095D01*
X163445001Y-107552802D01*
X163445001Y-108137026D01*
X163363060Y-108259658D01*
X163325000Y-108451000D01*
X163325000Y-108750443D01*
X163297268Y-108768288D01*
X163240185Y-108851831D01*
X163220103Y-108951000D01*
X163220103Y-110251000D01*
X163237535Y-110343644D01*
X163292288Y-110428732D01*
X163329774Y-110454346D01*
X162026117Y-111758003D01*
X160868889Y-111758003D01*
X159920944Y-110810058D01*
X159718179Y-110674575D01*
X159479002Y-110627000D01*
X143493488Y-110627000D01*
X143493488Y-110090922D01*
X156675905Y-110090922D01*
X156759461Y-110293143D01*
X156914043Y-110447995D01*
X157116118Y-110531904D01*
X157334922Y-110532095D01*
X157537143Y-110448539D01*
X157691995Y-110293957D01*
X157775904Y-110091882D01*
X157776017Y-109962313D01*
X157901408Y-109836922D01*
X160231909Y-109836922D01*
X160315465Y-110039143D01*
X160470047Y-110193995D01*
X160672122Y-110277904D01*
X160890926Y-110278095D01*
X161093147Y-110194539D01*
X161184846Y-110103000D01*
X161320103Y-110103000D01*
X161320103Y-110251000D01*
X161337535Y-110343644D01*
X161392288Y-110428732D01*
X161475831Y-110485815D01*
X161575000Y-110505897D01*
X162275000Y-110505897D01*
X162367644Y-110488465D01*
X162452732Y-110433712D01*
X162509815Y-110350169D01*
X162529897Y-110251000D01*
X162529897Y-108951000D01*
X162512465Y-108858356D01*
X162457712Y-108773268D01*
X162374169Y-108716185D01*
X162275000Y-108696103D01*
X161575000Y-108696103D01*
X161482356Y-108713535D01*
X161397268Y-108768288D01*
X161340185Y-108851831D01*
X161320103Y-108951000D01*
X161320103Y-109353000D01*
X161184797Y-109353000D01*
X161093961Y-109262005D01*
X160891886Y-109178096D01*
X160673082Y-109177905D01*
X160470861Y-109261461D01*
X160316009Y-109416043D01*
X160232100Y-109618118D01*
X160231909Y-109836922D01*
X157901408Y-109836922D01*
X159269165Y-108469165D01*
X159350455Y-108347506D01*
X159379000Y-108204000D01*
X159379000Y-106320793D01*
X159469995Y-106229957D01*
X159553904Y-106027882D01*
X159554095Y-105809078D01*
X159470539Y-105606857D01*
X159315957Y-105452005D01*
X159113882Y-105368096D01*
X158895078Y-105367905D01*
X158692857Y-105451461D01*
X158538005Y-105606043D01*
X158454096Y-105808118D01*
X158453905Y-106026922D01*
X158537461Y-106229143D01*
X158629000Y-106320842D01*
X158629000Y-108048670D01*
X157245653Y-109432017D01*
X157117078Y-109431905D01*
X156914857Y-109515461D01*
X156760005Y-109670043D01*
X156676096Y-109872118D01*
X156675905Y-110090922D01*
X143493488Y-110090922D01*
X143493488Y-109873490D01*
X143445913Y-109634313D01*
X143310430Y-109431548D01*
X141392333Y-107513451D01*
X141392333Y-105715338D01*
X141392334Y-105715333D01*
X141344758Y-105476156D01*
X141209275Y-105273391D01*
X140141942Y-104206058D01*
X140029455Y-104130897D01*
X140771500Y-104130897D01*
X140864144Y-104113465D01*
X140949232Y-104058712D01*
X141006315Y-103975169D01*
X141026397Y-103876000D01*
X141026397Y-102626000D01*
X141008965Y-102533356D01*
X140954212Y-102448268D01*
X140870669Y-102391185D01*
X140771500Y-102371103D01*
X139771500Y-102371103D01*
X139678856Y-102388535D01*
X139593768Y-102443288D01*
X139536685Y-102526831D01*
X139516603Y-102626000D01*
X139516603Y-102876000D01*
X139404358Y-102876000D01*
X139350538Y-102822086D01*
X139168886Y-102746658D01*
X139690544Y-102225000D01*
X140059000Y-102225000D01*
X140298177Y-102177425D01*
X140500942Y-102041942D01*
X140903942Y-101638942D01*
X141039425Y-101436178D01*
X141087000Y-101197000D01*
X141087000Y-100663644D01*
X141139732Y-100629712D01*
X141196815Y-100546169D01*
X141216897Y-100447000D01*
X141216897Y-99657465D01*
X141221746Y-99650208D01*
X141256000Y-99478000D01*
X141256000Y-99165830D01*
X142685335Y-100595165D01*
X142806993Y-100676455D01*
X142945603Y-100704026D01*
X142945603Y-100955000D01*
X142963035Y-101047644D01*
X143017788Y-101132732D01*
X143101331Y-101189815D01*
X143200500Y-101209897D01*
X144150501Y-101209897D01*
X144150501Y-101591669D01*
X143026397Y-102715773D01*
X143026397Y-102626000D01*
X143008965Y-102533356D01*
X142954212Y-102448268D01*
X142870669Y-102391185D01*
X142771500Y-102371103D01*
X141771500Y-102371103D01*
X141678856Y-102388535D01*
X141593768Y-102443288D01*
X141536685Y-102526831D01*
X141516603Y-102626000D01*
X141516603Y-103876000D01*
X141534035Y-103968644D01*
X141588788Y-104053732D01*
X141672331Y-104110815D01*
X141771500Y-104130897D01*
X142771500Y-104130897D01*
X142864144Y-104113465D01*
X142949232Y-104058712D01*
X143006315Y-103975169D01*
X143026397Y-103876000D01*
X143026397Y-103625026D01*
X143165007Y-103597455D01*
X143286665Y-103516165D01*
X144790666Y-102012164D01*
X144871956Y-101890505D01*
X144900501Y-101746999D01*
X144900501Y-101291397D01*
X144945595Y-101336491D01*
X145110989Y-101405000D01*
X145438000Y-101405000D01*
X145550500Y-101292500D01*
X145550500Y-100480000D01*
X145850500Y-100480000D01*
X145850500Y-101292500D01*
X145963000Y-101405000D01*
X146290011Y-101405000D01*
X146455405Y-101336491D01*
X146581992Y-101209904D01*
X146650500Y-101044510D01*
X146650500Y-100592500D01*
X146538000Y-100480000D01*
X145850500Y-100480000D01*
X145550500Y-100480000D01*
X145530500Y-100480000D01*
X145530500Y-100180000D01*
X145550500Y-100180000D01*
X145550500Y-99367500D01*
X145850500Y-99367500D01*
X145850500Y-100180000D01*
X146538000Y-100180000D01*
X146650500Y-100067500D01*
X146650500Y-99615490D01*
X146581992Y-99450096D01*
X146455405Y-99323509D01*
X146290011Y-99255000D01*
X145963000Y-99255000D01*
X145850500Y-99367500D01*
X145550500Y-99367500D01*
X145438000Y-99255000D01*
X145110989Y-99255000D01*
X144945595Y-99323509D01*
X144874636Y-99394468D01*
X144871956Y-99380995D01*
X144790666Y-99259336D01*
X142846165Y-97314835D01*
X142724507Y-97233545D01*
X142585897Y-97205974D01*
X142585897Y-96705000D01*
X142568465Y-96612356D01*
X142513712Y-96527268D01*
X142430169Y-96470185D01*
X142331000Y-96450103D01*
X141881000Y-96450103D01*
X141788356Y-96467535D01*
X141782142Y-96471533D01*
X141780169Y-96470185D01*
X141681000Y-96450103D01*
X141231000Y-96450103D01*
X141138356Y-96467535D01*
X141132142Y-96471533D01*
X141130169Y-96470185D01*
X141031000Y-96450103D01*
X140581000Y-96450103D01*
X140531000Y-96459511D01*
X140531000Y-96403013D01*
X140576883Y-96357210D01*
X140660792Y-96155135D01*
X140660983Y-95936331D01*
X140577427Y-95734110D01*
X140422845Y-95579258D01*
X140220770Y-95495349D01*
X140001966Y-95495158D01*
X139860887Y-95553451D01*
X139860887Y-95255472D01*
X139909464Y-95182771D01*
X139909465Y-95182770D01*
X139938010Y-95039264D01*
X139938010Y-95017793D01*
X140029005Y-94926957D01*
X140112914Y-94724882D01*
X140113105Y-94506078D01*
X140029549Y-94303857D01*
X139874967Y-94149005D01*
X139672892Y-94065096D01*
X139454088Y-94064905D01*
X139443768Y-94069169D01*
X139487902Y-93962882D01*
X139488093Y-93744078D01*
X139405839Y-93545008D01*
X141689936Y-93545008D01*
X141689905Y-93580922D01*
X141773461Y-93783143D01*
X141928043Y-93937995D01*
X142130118Y-94021904D01*
X142348922Y-94022095D01*
X142551143Y-93938539D01*
X142705995Y-93783957D01*
X142778729Y-93608795D01*
X142814065Y-93644131D01*
X142729056Y-93728992D01*
X142645147Y-93931067D01*
X142644956Y-94149871D01*
X142728512Y-94352092D01*
X142883094Y-94506944D01*
X143085169Y-94590853D01*
X143303973Y-94591044D01*
X143506194Y-94507488D01*
X143661046Y-94352906D01*
X143744955Y-94150831D01*
X143745146Y-93932027D01*
X143661590Y-93729806D01*
X143570051Y-93638107D01*
X143570051Y-93494787D01*
X143541506Y-93351281D01*
X143541506Y-93351280D01*
X143460216Y-93229622D01*
X142685427Y-92454833D01*
X142563769Y-92373543D01*
X142420262Y-92344998D01*
X138255590Y-92344998D01*
X138112084Y-92373543D01*
X138050729Y-92414539D01*
X137990425Y-92454833D01*
X136640835Y-93804423D01*
X136559545Y-93926081D01*
X136531894Y-94065096D01*
X136531000Y-94069588D01*
X136531000Y-94762431D01*
X136380882Y-94700096D01*
X136162078Y-94699905D01*
X135981000Y-94774725D01*
X135981000Y-94412741D01*
X136101995Y-94291957D01*
X136185904Y-94089882D01*
X136186095Y-93871078D01*
X136102539Y-93668857D01*
X135947957Y-93514005D01*
X135745882Y-93430096D01*
X135527078Y-93429905D01*
X135324857Y-93513461D01*
X135170005Y-93668043D01*
X135086096Y-93870118D01*
X135085905Y-94088922D01*
X135169461Y-94291143D01*
X135231000Y-94352789D01*
X135231000Y-94829127D01*
X135185957Y-94784005D01*
X134983882Y-94700096D01*
X134765078Y-94699905D01*
X134562857Y-94783461D01*
X134408005Y-94938043D01*
X134324096Y-95140118D01*
X134323905Y-95358922D01*
X134407461Y-95561143D01*
X134499000Y-95652842D01*
X134499000Y-96450103D01*
X134262494Y-96450103D01*
X134262491Y-96450095D01*
X134135904Y-96323508D01*
X133970510Y-96255000D01*
X133881000Y-96255000D01*
X133768500Y-96367500D01*
X133768500Y-97430000D01*
X133826000Y-97430000D01*
X133826000Y-97730000D01*
X133768500Y-97730000D01*
X133768500Y-98792500D01*
X133881000Y-98905000D01*
X133970510Y-98905000D01*
X134135904Y-98836492D01*
X134262491Y-98709905D01*
X134262494Y-98709897D01*
X134531000Y-98709897D01*
X134623644Y-98692465D01*
X134629858Y-98688467D01*
X134631831Y-98689815D01*
X134731000Y-98709897D01*
X135181000Y-98709897D01*
X135273644Y-98692465D01*
X135279858Y-98688467D01*
X135281831Y-98689815D01*
X135381000Y-98709897D01*
X135831000Y-98709897D01*
X135923644Y-98692465D01*
X135929858Y-98688467D01*
X135931831Y-98689815D01*
X136031000Y-98709897D01*
X136481000Y-98709897D01*
X136573644Y-98692465D01*
X136579858Y-98688467D01*
X136581831Y-98689815D01*
X136681000Y-98709897D01*
X137131000Y-98709897D01*
X137223644Y-98692465D01*
X137229858Y-98688467D01*
X137231831Y-98689815D01*
X137331000Y-98709897D01*
X137781000Y-98709897D01*
X137873644Y-98692465D01*
X137879858Y-98688467D01*
X137881831Y-98689815D01*
X137981000Y-98709897D01*
X138431000Y-98709897D01*
X138523644Y-98692465D01*
X138529858Y-98688467D01*
X138531831Y-98689815D01*
X138631000Y-98709897D01*
X139081000Y-98709897D01*
X139173644Y-98692465D01*
X139179858Y-98688467D01*
X139181831Y-98689815D01*
X139281000Y-98709897D01*
X139731000Y-98709897D01*
X139823644Y-98692465D01*
X139829858Y-98688467D01*
X139831831Y-98689815D01*
X139931000Y-98709897D01*
X140356000Y-98709897D01*
X140356000Y-98942103D01*
X139962000Y-98942103D01*
X139869356Y-98959535D01*
X139784268Y-99014288D01*
X139727185Y-99097831D01*
X139707103Y-99197000D01*
X139707103Y-100447000D01*
X139724535Y-100539644D01*
X139779288Y-100624732D01*
X139837000Y-100664165D01*
X139837000Y-100938116D01*
X139800116Y-100975000D01*
X139431660Y-100975000D01*
X139192483Y-101022575D01*
X138989718Y-101158058D01*
X137679387Y-102468389D01*
X137543904Y-102671154D01*
X137539226Y-102694671D01*
X134817053Y-102694671D01*
X132206882Y-100084500D01*
X137512000Y-100084500D01*
X137512000Y-100536510D01*
X137580508Y-100701904D01*
X137707095Y-100828491D01*
X137872489Y-100897000D01*
X138199500Y-100897000D01*
X138312000Y-100784500D01*
X138312000Y-99972000D01*
X138612000Y-99972000D01*
X138612000Y-100784500D01*
X138724500Y-100897000D01*
X139051511Y-100897000D01*
X139216905Y-100828491D01*
X139343492Y-100701904D01*
X139412000Y-100536510D01*
X139412000Y-100084500D01*
X139299500Y-99972000D01*
X138612000Y-99972000D01*
X138312000Y-99972000D01*
X137624500Y-99972000D01*
X137512000Y-100084500D01*
X132206882Y-100084500D01*
X131229872Y-99107490D01*
X137512000Y-99107490D01*
X137512000Y-99559500D01*
X137624500Y-99672000D01*
X138312000Y-99672000D01*
X138312000Y-98859500D01*
X138612000Y-98859500D01*
X138612000Y-99672000D01*
X139299500Y-99672000D01*
X139412000Y-99559500D01*
X139412000Y-99107490D01*
X139343492Y-98942096D01*
X139216905Y-98815509D01*
X139051511Y-98747000D01*
X138724500Y-98747000D01*
X138612000Y-98859500D01*
X138312000Y-98859500D01*
X138199500Y-98747000D01*
X137872489Y-98747000D01*
X137707095Y-98815509D01*
X137580508Y-98942096D01*
X137512000Y-99107490D01*
X131229872Y-99107490D01*
X131196500Y-99074118D01*
X131196500Y-97842500D01*
X132981000Y-97842500D01*
X132981000Y-98544511D01*
X133049509Y-98709905D01*
X133176096Y-98836492D01*
X133341490Y-98905000D01*
X133431000Y-98905000D01*
X133543500Y-98792500D01*
X133543500Y-97730000D01*
X133093500Y-97730000D01*
X132981000Y-97842500D01*
X131196500Y-97842500D01*
X131196500Y-96615489D01*
X132981000Y-96615489D01*
X132981000Y-97317500D01*
X133093500Y-97430000D01*
X133543500Y-97430000D01*
X133543500Y-96367500D01*
X133431000Y-96255000D01*
X133341490Y-96255000D01*
X133176096Y-96323508D01*
X133049509Y-96450095D01*
X132981000Y-96615489D01*
X131196500Y-96615489D01*
X131196500Y-93475896D01*
X133244911Y-91427485D01*
X133248288Y-91432732D01*
X133331831Y-91489815D01*
X133431000Y-91509897D01*
X133699506Y-91509897D01*
X133699509Y-91509905D01*
X133826096Y-91636492D01*
X133991490Y-91705000D01*
X134081000Y-91705000D01*
X134193500Y-91592500D01*
X134193500Y-90530000D01*
X134136000Y-90530000D01*
X134136000Y-90230000D01*
X134193500Y-90230000D01*
X134193500Y-89167500D01*
X134081000Y-89055000D01*
X133991490Y-89055000D01*
X133826096Y-89123508D01*
X133699509Y-89250095D01*
X133699506Y-89250103D01*
X133431000Y-89250103D01*
X133338356Y-89267535D01*
X133253268Y-89322288D01*
X133196185Y-89405831D01*
X133176103Y-89505000D01*
X133176103Y-90223501D01*
X130428302Y-92971302D01*
X130330754Y-93117292D01*
X130296500Y-93289500D01*
X129765000Y-93289500D01*
X129765000Y-81844500D01*
X132138000Y-81844500D01*
X132138000Y-84036511D01*
X132206509Y-84201905D01*
X132333096Y-84328492D01*
X132498490Y-84397000D01*
X132912500Y-84397000D01*
X133025000Y-84284500D01*
X133025000Y-81732000D01*
X133675000Y-81732000D01*
X133675000Y-84284500D01*
X133787500Y-84397000D01*
X134201510Y-84397000D01*
X134366904Y-84328492D01*
X134493491Y-84201905D01*
X134562000Y-84036511D01*
X134562000Y-81844500D01*
X134449500Y-81732000D01*
X133675000Y-81732000D01*
X133025000Y-81732000D01*
X132250500Y-81732000D01*
X132138000Y-81844500D01*
X129765000Y-81844500D01*
X129765000Y-78965000D01*
X132138000Y-78965000D01*
X132138000Y-80969500D01*
X132138000Y-80969500D01*
G37*
X132138000Y-80969500D02*
X132250500Y-81082000D01*
X133025000Y-81082000D01*
X133025000Y-81062000D01*
X133675000Y-81062000D01*
X133675000Y-81082000D01*
X134449500Y-81082000D01*
X134562000Y-80969500D01*
X134562000Y-78965000D01*
X135127103Y-78965000D01*
X135127103Y-83947000D01*
X135144535Y-84039644D01*
X135199288Y-84124732D01*
X135282831Y-84181815D01*
X135382000Y-84201897D01*
X135608773Y-84201897D01*
X135253826Y-84556844D01*
X135172536Y-84678502D01*
X135172536Y-84678503D01*
X135143991Y-84822009D01*
X135143991Y-87115655D01*
X134915989Y-86887653D01*
X134916101Y-86759078D01*
X134832545Y-86556857D01*
X134677963Y-86402005D01*
X134475888Y-86318096D01*
X134257084Y-86317905D01*
X134054863Y-86401461D01*
X133900011Y-86556043D01*
X133816102Y-86758118D01*
X133815911Y-86976922D01*
X133899467Y-87179143D01*
X134054049Y-87333995D01*
X134256124Y-87417904D01*
X134385693Y-87418017D01*
X134581000Y-87613324D01*
X134581000Y-89055000D01*
X134531000Y-89055000D01*
X134418500Y-89167500D01*
X134418500Y-90230000D01*
X134476000Y-90230000D01*
X134476000Y-90530000D01*
X134418500Y-90530000D01*
X134418500Y-91592500D01*
X134531000Y-91705000D01*
X134620510Y-91705000D01*
X134785904Y-91636492D01*
X134912491Y-91509905D01*
X134912494Y-91509897D01*
X135181000Y-91509897D01*
X135273644Y-91492465D01*
X135279858Y-91488467D01*
X135281831Y-91489815D01*
X135381000Y-91509897D01*
X135831000Y-91509897D01*
X135923644Y-91492465D01*
X135929858Y-91488467D01*
X135931831Y-91489815D01*
X136031000Y-91509897D01*
X136481000Y-91509897D01*
X136573644Y-91492465D01*
X136579858Y-91488467D01*
X136581831Y-91489815D01*
X136681000Y-91509897D01*
X137131000Y-91509897D01*
X137223644Y-91492465D01*
X137229858Y-91488467D01*
X137231831Y-91489815D01*
X137331000Y-91509897D01*
X137781000Y-91509897D01*
X137873644Y-91492465D01*
X137879858Y-91488467D01*
X137881831Y-91489815D01*
X137981000Y-91509897D01*
X138431000Y-91509897D01*
X138523644Y-91492465D01*
X138529858Y-91488467D01*
X138531831Y-91489815D01*
X138631000Y-91509897D01*
X139051866Y-91509897D01*
X139059546Y-91548508D01*
X139140836Y-91670166D01*
X139315836Y-91845166D01*
X139437495Y-91926456D01*
X139581001Y-91955001D01*
X143975994Y-91955001D01*
X143975905Y-92056922D01*
X144059461Y-92259143D01*
X144214043Y-92413995D01*
X144416118Y-92497904D01*
X144634922Y-92498095D01*
X144837143Y-92414539D01*
X144991995Y-92259957D01*
X145075904Y-92057882D01*
X145075926Y-92031990D01*
X153994000Y-92031990D01*
X153994000Y-92384000D01*
X154106500Y-92496500D01*
X154869000Y-92496500D01*
X154869000Y-91784000D01*
X155169000Y-91784000D01*
X155169000Y-92496500D01*
X155931500Y-92496500D01*
X156044000Y-92384000D01*
X156044000Y-92031990D01*
X157344000Y-92031990D01*
X157344000Y-92384000D01*
X157456500Y-92496500D01*
X158219000Y-92496500D01*
X158219000Y-91784000D01*
X158519000Y-91784000D01*
X158519000Y-92496500D01*
X159281500Y-92496500D01*
X159394000Y-92384000D01*
X159394000Y-92031990D01*
X159325492Y-91866596D01*
X159198905Y-91740009D01*
X159033511Y-91671500D01*
X158631500Y-91671500D01*
X158519000Y-91784000D01*
X158219000Y-91784000D01*
X158106500Y-91671500D01*
X157704489Y-91671500D01*
X157539095Y-91740009D01*
X157412508Y-91866596D01*
X157344000Y-92031990D01*
X156044000Y-92031990D01*
X155975492Y-91866596D01*
X155848905Y-91740009D01*
X155683511Y-91671500D01*
X155281500Y-91671500D01*
X155169000Y-91784000D01*
X154869000Y-91784000D01*
X154756500Y-91671500D01*
X154354489Y-91671500D01*
X154189095Y-91740009D01*
X154062508Y-91866596D01*
X153994000Y-92031990D01*
X145075926Y-92031990D01*
X145076095Y-91839078D01*
X144992539Y-91636857D01*
X144837957Y-91482005D01*
X144635882Y-91398096D01*
X144506313Y-91397983D01*
X144423166Y-91314836D01*
X144301508Y-91233546D01*
X144158001Y-91205001D01*
X142585897Y-91205001D01*
X142585897Y-90024922D01*
X143594905Y-90024922D01*
X143678461Y-90227143D01*
X143833043Y-90381995D01*
X144035118Y-90465904D01*
X144253922Y-90466095D01*
X144456143Y-90382539D01*
X144547842Y-90291000D01*
X144850603Y-90291000D01*
X144850603Y-90541000D01*
X144868035Y-90633644D01*
X144922788Y-90718732D01*
X145006331Y-90775815D01*
X145105500Y-90795897D01*
X146105500Y-90795897D01*
X146198144Y-90778465D01*
X146283232Y-90723712D01*
X146340315Y-90640169D01*
X146360397Y-90541000D01*
X146360397Y-90178500D01*
X146655500Y-90178500D01*
X146655500Y-90630510D01*
X146724008Y-90795904D01*
X146850595Y-90922491D01*
X147015989Y-90991000D01*
X147343000Y-90991000D01*
X147455500Y-90878500D01*
X147455500Y-90066000D01*
X147755500Y-90066000D01*
X147755500Y-90878500D01*
X147868000Y-90991000D01*
X148195011Y-90991000D01*
X148360405Y-90922491D01*
X148486992Y-90795904D01*
X148555500Y-90630510D01*
X148555500Y-90178500D01*
X148443000Y-90066000D01*
X147755500Y-90066000D01*
X147455500Y-90066000D01*
X146768000Y-90066000D01*
X146655500Y-90178500D01*
X146360397Y-90178500D01*
X146360397Y-89291000D01*
X146343555Y-89201490D01*
X146655500Y-89201490D01*
X146655500Y-89653500D01*
X146768000Y-89766000D01*
X147455500Y-89766000D01*
X147455500Y-88953500D01*
X147755500Y-88953500D01*
X147755500Y-89766000D01*
X148443000Y-89766000D01*
X148555500Y-89653500D01*
X148555500Y-89201490D01*
X148486992Y-89036096D01*
X148360405Y-88909509D01*
X148195011Y-88841000D01*
X147868000Y-88841000D01*
X147755500Y-88953500D01*
X147455500Y-88953500D01*
X147343000Y-88841000D01*
X147015989Y-88841000D01*
X146850595Y-88909509D01*
X146724008Y-89036096D01*
X146655500Y-89201490D01*
X146343555Y-89201490D01*
X146342965Y-89198356D01*
X146288212Y-89113268D01*
X146204669Y-89056185D01*
X146105500Y-89036103D01*
X145105500Y-89036103D01*
X145012856Y-89053535D01*
X144927768Y-89108288D01*
X144870685Y-89191831D01*
X144850603Y-89291000D01*
X144850603Y-89541000D01*
X144547793Y-89541000D01*
X144456957Y-89450005D01*
X144254882Y-89366096D01*
X144036078Y-89365905D01*
X143833857Y-89449461D01*
X143679005Y-89604043D01*
X143595096Y-89806118D01*
X143594905Y-90024922D01*
X142585897Y-90024922D01*
X142585897Y-89505000D01*
X142568465Y-89412356D01*
X142513712Y-89327268D01*
X142481000Y-89304917D01*
X142481000Y-88255897D01*
X143025500Y-88255897D01*
X143118144Y-88238465D01*
X143203232Y-88183712D01*
X143260315Y-88100169D01*
X143280397Y-88001000D01*
X143280397Y-86751000D01*
X143262965Y-86658356D01*
X143208212Y-86573268D01*
X143124669Y-86516185D01*
X143025500Y-86496103D01*
X142025500Y-86496103D01*
X141932856Y-86513535D01*
X141847768Y-86568288D01*
X141790685Y-86651831D01*
X141770603Y-86751000D01*
X141770603Y-87635444D01*
X141759545Y-87651993D01*
X141755547Y-87672095D01*
X141731000Y-87795500D01*
X141731000Y-89055000D01*
X141681000Y-89055000D01*
X141568500Y-89167500D01*
X141568500Y-90230000D01*
X141626000Y-90230000D01*
X141626000Y-90530000D01*
X141568500Y-90530000D01*
X141568500Y-90550000D01*
X141343500Y-90550000D01*
X141343500Y-90530000D01*
X141286000Y-90530000D01*
X141286000Y-90230000D01*
X141343500Y-90230000D01*
X141343500Y-89167500D01*
X141231000Y-89055000D01*
X141181000Y-89055000D01*
X141181000Y-88198018D01*
X141203232Y-88183712D01*
X141260315Y-88100169D01*
X141280397Y-88001000D01*
X141280397Y-86751000D01*
X141262965Y-86658356D01*
X141208212Y-86573268D01*
X141124669Y-86516185D01*
X141025500Y-86496103D01*
X140025500Y-86496103D01*
X139932856Y-86513535D01*
X139847768Y-86568288D01*
X139790685Y-86651831D01*
X139770603Y-86751000D01*
X139770603Y-88001000D01*
X139788035Y-88093644D01*
X139842788Y-88178732D01*
X139926331Y-88235815D01*
X139978678Y-88246415D01*
X139833357Y-88306461D01*
X139678505Y-88461043D01*
X139594596Y-88663118D01*
X139594405Y-88881922D01*
X139677961Y-89084143D01*
X139769500Y-89175842D01*
X139769500Y-89257899D01*
X139731000Y-89250103D01*
X139281000Y-89250103D01*
X139231000Y-89259511D01*
X139231000Y-85962330D01*
X139646309Y-85547021D01*
X145078979Y-85547021D01*
X145222486Y-85518476D01*
X145344144Y-85437186D01*
X146579433Y-84201897D01*
X147828000Y-84201897D01*
X147920644Y-84184465D01*
X148005732Y-84129712D01*
X148062815Y-84046169D01*
X148082897Y-83947000D01*
X148082897Y-81844500D01*
X148648000Y-81844500D01*
X148648000Y-84036511D01*
X148716509Y-84201905D01*
X148843096Y-84328492D01*
X149008490Y-84397000D01*
X149422500Y-84397000D01*
X149535000Y-84284500D01*
X149535000Y-81732000D01*
X150185000Y-81732000D01*
X150185000Y-84284500D01*
X150297500Y-84397000D01*
X150711510Y-84397000D01*
X150876904Y-84328492D01*
X151003491Y-84201905D01*
X151072000Y-84036511D01*
X151072000Y-81844500D01*
X150959500Y-81732000D01*
X150185000Y-81732000D01*
X149535000Y-81732000D01*
X148760500Y-81732000D01*
X148648000Y-81844500D01*
X148082897Y-81844500D01*
X148082897Y-78965000D01*
X148648000Y-78965000D01*
X148648000Y-80969500D01*
X148760500Y-81082000D01*
X149535000Y-81082000D01*
X149535000Y-81062000D01*
X150185000Y-81062000D01*
X150185000Y-81082000D01*
X150959500Y-81082000D01*
X151072000Y-80969500D01*
X151072000Y-78965000D01*
X151510103Y-78965000D01*
X151510103Y-83947000D01*
X151527535Y-84039644D01*
X151582288Y-84124732D01*
X151665831Y-84181815D01*
X151765000Y-84201897D01*
X152152000Y-84201897D01*
X152152000Y-84286005D01*
X152037078Y-84285905D01*
X151834857Y-84369461D01*
X151680005Y-84524043D01*
X151596096Y-84726118D01*
X151595905Y-84944922D01*
X151679461Y-85147143D01*
X151834043Y-85301995D01*
X152036118Y-85385904D01*
X152254922Y-85386095D01*
X152457143Y-85302539D01*
X152611995Y-85147957D01*
X152695904Y-84945882D01*
X152696017Y-84816313D01*
X152792165Y-84720165D01*
X152820003Y-84678502D01*
X152873455Y-84598506D01*
X152902000Y-84455000D01*
X152902000Y-84201897D01*
X153289000Y-84201897D01*
X153381644Y-84184465D01*
X153466732Y-84129712D01*
X153523815Y-84046169D01*
X153543897Y-83947000D01*
X153543897Y-78965000D01*
X154304103Y-78965000D01*
X154304103Y-83947000D01*
X154321535Y-84039644D01*
X154376288Y-84124732D01*
X154459831Y-84181815D01*
X154559000Y-84201897D01*
X156083000Y-84201897D01*
X156175644Y-84184465D01*
X156260732Y-84129712D01*
X156317815Y-84046169D01*
X156337897Y-83947000D01*
X156337897Y-78965000D01*
X156971103Y-78965000D01*
X156971103Y-83947000D01*
X156988535Y-84039644D01*
X157043288Y-84124732D01*
X157126831Y-84181815D01*
X157226000Y-84201897D01*
X158750000Y-84201897D01*
X158842644Y-84184465D01*
X158927732Y-84129712D01*
X158984815Y-84046169D01*
X159004897Y-83947000D01*
X159004897Y-78965000D01*
X159765103Y-78965000D01*
X159765103Y-83947000D01*
X159782535Y-84039644D01*
X159837288Y-84124732D01*
X159920831Y-84181815D01*
X160020000Y-84201897D01*
X161544000Y-84201897D01*
X161636644Y-84184465D01*
X161721732Y-84129712D01*
X161778815Y-84046169D01*
X161798897Y-83947000D01*
X161798897Y-78965000D01*
X162559103Y-78965000D01*
X162559103Y-83947000D01*
X162576535Y-84039644D01*
X162631288Y-84124732D01*
X162714831Y-84181815D01*
X162814000Y-84201897D01*
X164338000Y-84201897D01*
X164430644Y-84184465D01*
X164515732Y-84129712D01*
X164572815Y-84046169D01*
X164592897Y-83947000D01*
X164592897Y-78965000D01*
X165226103Y-78965000D01*
X165226103Y-83947000D01*
X165243535Y-84039644D01*
X165298288Y-84124732D01*
X165381831Y-84181815D01*
X165481000Y-84201897D01*
X167005000Y-84201897D01*
X167097644Y-84184465D01*
X167182732Y-84129712D01*
X167239815Y-84046169D01*
X167259897Y-83947000D01*
X167259897Y-78965000D01*
X169955000Y-78965000D01*
X169955000Y-131855000D01*
X143681432Y-131855000D01*
X143893296Y-131754529D01*
X144169571Y-131446400D01*
X144306900Y-131056000D01*
X144306900Y-130706000D01*
X140906900Y-130706000D01*
X140906900Y-130726000D01*
X140606900Y-130726000D01*
X140606900Y-130706000D01*
X138906900Y-130706000D01*
X138906900Y-130726000D01*
X138606900Y-130726000D01*
X138606900Y-130706000D01*
X135206900Y-130706000D01*
X135206900Y-131056000D01*
X135344229Y-131446400D01*
X135620504Y-131754529D01*
X135832368Y-131855000D01*
X129765000Y-131855000D01*
X129765000Y-130056000D01*
X135206900Y-130056000D01*
X135206900Y-130406000D01*
X138606900Y-130406000D01*
X138606900Y-129268500D01*
X138906900Y-129268500D01*
X138906900Y-130406000D01*
X140606900Y-130406000D01*
X140606900Y-129268500D01*
X140906900Y-129268500D01*
X140906900Y-130406000D01*
X144306900Y-130406000D01*
X144306900Y-130056000D01*
X144169571Y-129665600D01*
X143893296Y-129357471D01*
X143567625Y-129203030D01*
X143515484Y-129228188D01*
X143511805Y-129224509D01*
X143346411Y-129156000D01*
X142919400Y-129156000D01*
X142806900Y-129268500D01*
X142806900Y-129269078D01*
X142620504Y-129357471D01*
X142506900Y-129484173D01*
X142506900Y-129268500D01*
X142394400Y-129156000D01*
X141967389Y-129156000D01*
X141801995Y-129224509D01*
X141781900Y-129244604D01*
X141761805Y-129224509D01*
X141596411Y-129156000D01*
X141019400Y-129156000D01*
X140906900Y-129268500D01*
X140606900Y-129268500D01*
X140494400Y-129156000D01*
X139917389Y-129156000D01*
X139756900Y-129222477D01*
X139596411Y-129156000D01*
X139019400Y-129156000D01*
X138906900Y-129268500D01*
X138606900Y-129268500D01*
X138494400Y-129156000D01*
X137917389Y-129156000D01*
X137751995Y-129224509D01*
X137731900Y-129244604D01*
X137711805Y-129224509D01*
X137546411Y-129156000D01*
X137119400Y-129156000D01*
X137006900Y-129268500D01*
X137006900Y-129484173D01*
X136893296Y-129357471D01*
X136706900Y-129269078D01*
X136706900Y-129268500D01*
X136594400Y-129156000D01*
X136167389Y-129156000D01*
X136001995Y-129224509D01*
X135998316Y-129228188D01*
X135946175Y-129203030D01*
X135620504Y-129357471D01*
X135344229Y-129665600D01*
X135206900Y-130056000D01*
X129765000Y-130056000D01*
X129765000Y-128112160D01*
X130828046Y-128112160D01*
X130947124Y-128399672D01*
X131277386Y-128784665D01*
X131729838Y-129013966D01*
X131930000Y-128940830D01*
X131930000Y-127912000D01*
X132230000Y-127912000D01*
X132230000Y-128940830D01*
X132430162Y-129013966D01*
X132882614Y-128784665D01*
X133212876Y-128399672D01*
X133331954Y-128112160D01*
X133257988Y-127912000D01*
X132230000Y-127912000D01*
X131930000Y-127912000D01*
X130902012Y-127912000D01*
X130828046Y-128112160D01*
X129765000Y-128112160D01*
X129765000Y-127724385D01*
X136066132Y-127724385D01*
X136106407Y-128190090D01*
X136207141Y-128433284D01*
X136390619Y-128510149D01*
X137044768Y-127856000D01*
X136390619Y-127201851D01*
X136207141Y-127278716D01*
X136066132Y-127724385D01*
X129765000Y-127724385D01*
X129765000Y-127411840D01*
X130828046Y-127411840D01*
X130902012Y-127612000D01*
X131930000Y-127612000D01*
X131930000Y-126583170D01*
X132230000Y-126583170D01*
X132230000Y-127612000D01*
X133257988Y-127612000D01*
X133331954Y-127411840D01*
X133212876Y-127124328D01*
X133097404Y-126989719D01*
X136602751Y-126989719D01*
X137256900Y-127643868D01*
X137271043Y-127629726D01*
X137483175Y-127841858D01*
X137469032Y-127856000D01*
X137483175Y-127870143D01*
X137271043Y-128082275D01*
X137256900Y-128068132D01*
X136602751Y-128722281D01*
X136679616Y-128905759D01*
X137125285Y-129046768D01*
X137590990Y-129006493D01*
X137834184Y-128905759D01*
X137911048Y-128722283D01*
X137997268Y-128808503D01*
X138087763Y-128718008D01*
X138157731Y-128765815D01*
X138256900Y-128785897D01*
X138656900Y-128785897D01*
X138749544Y-128768465D01*
X138781507Y-128747897D01*
X138807731Y-128765815D01*
X138906900Y-128785897D01*
X139306900Y-128785897D01*
X139399544Y-128768465D01*
X139431507Y-128747897D01*
X139457731Y-128765815D01*
X139556900Y-128785897D01*
X139956900Y-128785897D01*
X140049544Y-128768465D01*
X140081507Y-128747897D01*
X140107731Y-128765815D01*
X140206900Y-128785897D01*
X140475405Y-128785897D01*
X140475408Y-128785904D01*
X140601995Y-128912491D01*
X140767389Y-128981000D01*
X140844400Y-128981000D01*
X140956900Y-128868500D01*
X140956900Y-128006000D01*
X140886900Y-128006000D01*
X140886900Y-127724385D01*
X141066132Y-127724385D01*
X141106407Y-128190090D01*
X141156900Y-128311991D01*
X141156900Y-128868500D01*
X141269400Y-128981000D01*
X141346411Y-128981000D01*
X141511805Y-128912491D01*
X141632058Y-128792238D01*
X141679616Y-128905759D01*
X142125285Y-129046768D01*
X142590990Y-129006493D01*
X142834184Y-128905759D01*
X142911049Y-128722281D01*
X142256900Y-128068132D01*
X142242758Y-128082275D01*
X142030626Y-127870143D01*
X142044768Y-127856000D01*
X142469032Y-127856000D01*
X143123181Y-128510149D01*
X143306659Y-128433284D01*
X143447668Y-127987615D01*
X143407393Y-127521910D01*
X143306659Y-127278716D01*
X143123181Y-127201851D01*
X142469032Y-127856000D01*
X142044768Y-127856000D01*
X142030626Y-127841858D01*
X142242758Y-127629726D01*
X142256900Y-127643868D01*
X142911049Y-126989719D01*
X142834184Y-126806241D01*
X142388515Y-126665232D01*
X141922810Y-126705507D01*
X141679616Y-126806241D01*
X141632058Y-126919762D01*
X141511805Y-126799509D01*
X141346411Y-126731000D01*
X141269400Y-126731000D01*
X141156900Y-126843500D01*
X141156900Y-127437506D01*
X141066132Y-127724385D01*
X140886900Y-127724385D01*
X140886900Y-127706000D01*
X140956900Y-127706000D01*
X140956900Y-126843500D01*
X140844400Y-126731000D01*
X140767389Y-126731000D01*
X140601995Y-126799509D01*
X140475408Y-126926096D01*
X140475405Y-126926103D01*
X140206900Y-126926103D01*
X140114256Y-126943535D01*
X140082293Y-126964103D01*
X140056069Y-126946185D01*
X139956900Y-126926103D01*
X139556900Y-126926103D01*
X139464256Y-126943535D01*
X139432293Y-126964103D01*
X139406069Y-126946185D01*
X139306900Y-126926103D01*
X138906900Y-126926103D01*
X138906900Y-126728110D01*
X138918840Y-126710241D01*
X138956899Y-126518900D01*
X138930000Y-126383665D01*
X138930000Y-123247622D01*
X138964815Y-123196669D01*
X138984897Y-123097500D01*
X138984897Y-122647500D01*
X138967465Y-122554856D01*
X138912712Y-122469768D01*
X138829169Y-122412685D01*
X138730000Y-122392603D01*
X138531065Y-122392603D01*
X138430000Y-122372500D01*
X138328935Y-122392603D01*
X138130000Y-122392603D01*
X138037356Y-122410035D01*
X137952268Y-122464788D01*
X137895185Y-122548331D01*
X137875103Y-122647500D01*
X137875103Y-123097500D01*
X137892535Y-123190144D01*
X137930000Y-123248366D01*
X137930000Y-126492000D01*
X137947015Y-126577539D01*
X137968060Y-126683342D01*
X138006900Y-126741470D01*
X138006900Y-126913129D01*
X137997268Y-126903497D01*
X137911048Y-126989717D01*
X137834184Y-126806241D01*
X137388515Y-126665232D01*
X136922810Y-126705507D01*
X136679616Y-126806241D01*
X136602751Y-126989719D01*
X133097404Y-126989719D01*
X132882614Y-126739335D01*
X132430162Y-126510034D01*
X132230000Y-126583170D01*
X131930000Y-126583170D01*
X131729838Y-126510034D01*
X131277386Y-126739335D01*
X130947124Y-127124328D01*
X130828046Y-127411840D01*
X129765000Y-127411840D01*
X129765000Y-124372000D01*
X130975103Y-124372000D01*
X130975103Y-126072000D01*
X130992535Y-126164644D01*
X131047288Y-126249732D01*
X131130831Y-126306815D01*
X131230000Y-126326897D01*
X132930000Y-126326897D01*
X133022644Y-126309465D01*
X133107732Y-126254712D01*
X133164815Y-126171169D01*
X133184897Y-126072000D01*
X133184897Y-125722000D01*
X134705500Y-125722000D01*
X134896842Y-125683940D01*
X135059053Y-125575553D01*
X136683553Y-123951053D01*
X136791940Y-123788842D01*
X136801762Y-123739461D01*
X136830000Y-123597500D01*
X136830000Y-123247622D01*
X136864815Y-123196669D01*
X136884336Y-123100270D01*
X138472882Y-121511725D01*
X138581269Y-121349513D01*
X138619329Y-121158171D01*
X138619329Y-119908740D01*
X139094329Y-119908740D01*
X139186973Y-119891308D01*
X139272061Y-119836555D01*
X139329144Y-119753012D01*
X139349226Y-119653843D01*
X139349226Y-117153843D01*
X139331794Y-117061199D01*
X139277041Y-116976111D01*
X139193498Y-116919028D01*
X139094329Y-116898946D01*
X138619329Y-116898946D01*
X138619329Y-116021329D01*
X138581269Y-115829987D01*
X138529159Y-115752000D01*
X138472883Y-115667776D01*
X137454396Y-114649290D01*
X137292185Y-114540903D01*
X137100843Y-114502843D01*
X135564226Y-114502843D01*
X135564226Y-114252843D01*
X135546794Y-114160199D01*
X135492041Y-114075111D01*
X135408498Y-114018028D01*
X135309329Y-113997946D01*
X133309329Y-113997946D01*
X133216685Y-114015378D01*
X133131597Y-114070131D01*
X133074514Y-114153674D01*
X133054432Y-114252843D01*
X133054432Y-115752843D01*
X133071864Y-115845487D01*
X133126617Y-115930575D01*
X133210160Y-115987658D01*
X133309329Y-116007740D01*
X135309329Y-116007740D01*
X135401973Y-115990308D01*
X135487061Y-115935555D01*
X135544144Y-115852012D01*
X135564226Y-115752843D01*
X135564226Y-115502843D01*
X136893737Y-115502843D01*
X137619329Y-116228436D01*
X137619329Y-116898946D01*
X137144329Y-116898946D01*
X137051685Y-116916378D01*
X136966597Y-116971131D01*
X136909514Y-117054674D01*
X136889432Y-117153843D01*
X136889432Y-119653843D01*
X136906864Y-119746487D01*
X136961617Y-119831575D01*
X137045160Y-119888658D01*
X137144329Y-119908740D01*
X137619329Y-119908740D01*
X137619329Y-120951064D01*
X136177791Y-122392603D01*
X136030000Y-122392603D01*
X135937356Y-122410035D01*
X135852268Y-122464788D01*
X135795185Y-122548331D01*
X135775103Y-122647500D01*
X135775103Y-123097500D01*
X135792535Y-123190144D01*
X135830000Y-123248366D01*
X135830000Y-123390394D01*
X134498394Y-124722000D01*
X133184897Y-124722000D01*
X133184897Y-124372000D01*
X133167465Y-124279356D01*
X133112712Y-124194268D01*
X133029169Y-124137185D01*
X132930000Y-124117103D01*
X131230000Y-124117103D01*
X131137356Y-124134535D01*
X131052268Y-124189288D01*
X130995185Y-124272831D01*
X130975103Y-124372000D01*
X129765000Y-124372000D01*
X129765000Y-118841343D01*
X133644329Y-118841343D01*
X133644329Y-119743353D01*
X133712837Y-119908747D01*
X133839424Y-120035334D01*
X134004818Y-120103843D01*
X134631829Y-120103843D01*
X134744329Y-119991343D01*
X134744329Y-118728843D01*
X135394329Y-118728843D01*
X135394329Y-119991343D01*
X135506829Y-120103843D01*
X136133840Y-120103843D01*
X136299234Y-120035334D01*
X136425821Y-119908747D01*
X136494329Y-119743353D01*
X136494329Y-118841343D01*
X136381829Y-118728843D01*
X135394329Y-118728843D01*
X134744329Y-118728843D01*
X133756829Y-118728843D01*
X133644329Y-118841343D01*
X129765000Y-118841343D01*
X129765000Y-117064333D01*
X133644329Y-117064333D01*
X133644329Y-117966343D01*
X133756829Y-118078843D01*
X134744329Y-118078843D01*
X134744329Y-116816343D01*
X135394329Y-116816343D01*
X135394329Y-118078843D01*
X136381829Y-118078843D01*
X136494329Y-117966343D01*
X136494329Y-117064333D01*
X136425821Y-116898939D01*
X136299234Y-116772352D01*
X136133840Y-116703843D01*
X135506829Y-116703843D01*
X135394329Y-116816343D01*
X134744329Y-116816343D01*
X134631829Y-116703843D01*
X134004818Y-116703843D01*
X133839424Y-116772352D01*
X133712837Y-116898939D01*
X133644329Y-117064333D01*
X129765000Y-117064333D01*
X129765000Y-110840343D01*
X132859329Y-110840343D01*
X132859329Y-111242353D01*
X132927837Y-111407747D01*
X133054424Y-111534334D01*
X133219818Y-111602843D01*
X133871829Y-111602843D01*
X133984329Y-111490343D01*
X133984329Y-110727843D01*
X134634329Y-110727843D01*
X134634329Y-111490343D01*
X134746829Y-111602843D01*
X135398840Y-111602843D01*
X135564234Y-111534334D01*
X135690821Y-111407747D01*
X135759329Y-111242353D01*
X135759329Y-110840343D01*
X135646829Y-110727843D01*
X134634329Y-110727843D01*
X133984329Y-110727843D01*
X132971829Y-110727843D01*
X132859329Y-110840343D01*
X129765000Y-110840343D01*
X129765000Y-109563333D01*
X132859329Y-109563333D01*
X132859329Y-109965343D01*
X132971829Y-110077843D01*
X133984329Y-110077843D01*
X133984329Y-109315343D01*
X134634329Y-109315343D01*
X134634329Y-110077843D01*
X135646829Y-110077843D01*
X135759329Y-109965343D01*
X135759329Y-109563333D01*
X135690821Y-109397939D01*
X135564234Y-109271352D01*
X135398840Y-109202843D01*
X134746829Y-109202843D01*
X134634329Y-109315343D01*
X133984329Y-109315343D01*
X133871829Y-109202843D01*
X133219818Y-109202843D01*
X133054424Y-109271352D01*
X132927837Y-109397939D01*
X132859329Y-109563333D01*
X129765000Y-109563333D01*
X129765000Y-107347843D01*
X133646329Y-107347843D01*
X133646329Y-108249853D01*
X133714837Y-108415247D01*
X133841424Y-108541834D01*
X134006818Y-108610343D01*
X134633829Y-108610343D01*
X134746329Y-108497843D01*
X134746329Y-107235343D01*
X135396329Y-107235343D01*
X135396329Y-108497843D01*
X135508829Y-108610343D01*
X136135840Y-108610343D01*
X136301234Y-108541834D01*
X136427821Y-108415247D01*
X136496329Y-108249853D01*
X136496329Y-107347843D01*
X136383829Y-107235343D01*
X135396329Y-107235343D01*
X134746329Y-107235343D01*
X133758829Y-107235343D01*
X133646329Y-107347843D01*
X129765000Y-107347843D01*
X129765000Y-105570833D01*
X133646329Y-105570833D01*
X133646329Y-106472843D01*
X133758829Y-106585343D01*
X134746329Y-106585343D01*
X134746329Y-105322843D01*
X135396329Y-105322843D01*
X135396329Y-106585343D01*
X136383829Y-106585343D01*
X136496329Y-106472843D01*
X136496329Y-105570833D01*
X136427821Y-105405439D01*
X136301234Y-105278852D01*
X136135840Y-105210343D01*
X135508829Y-105210343D01*
X135396329Y-105322843D01*
X134746329Y-105322843D01*
X134633829Y-105210343D01*
X134006818Y-105210343D01*
X133841424Y-105278852D01*
X133714837Y-105405439D01*
X133646329Y-105570833D01*
X129765000Y-105570833D01*
X129765000Y-93289500D01*
X130296500Y-93289500D01*
X130296500Y-99260514D01*
X130330754Y-99432722D01*
X130392079Y-99524501D01*
X130428302Y-99578712D01*
X134312459Y-103462869D01*
X134458450Y-103560418D01*
X134630657Y-103594671D01*
X137496329Y-103594671D01*
X137496329Y-105405446D01*
X137146329Y-105405446D01*
X137053685Y-105422878D01*
X136968597Y-105477631D01*
X136911514Y-105561174D01*
X136891432Y-105660343D01*
X136891432Y-108160343D01*
X136908864Y-108252987D01*
X136963617Y-108338075D01*
X137047160Y-108395158D01*
X137146329Y-108415240D01*
X137496329Y-108415240D01*
X137496329Y-111555787D01*
X136974273Y-112077843D01*
X135564226Y-112077843D01*
X135564226Y-111952843D01*
X135546794Y-111860199D01*
X135492041Y-111775111D01*
X135408498Y-111718028D01*
X135309329Y-111697946D01*
X133309329Y-111697946D01*
X133216685Y-111715378D01*
X133131597Y-111770131D01*
X133074514Y-111853674D01*
X133054432Y-111952843D01*
X133054432Y-113452843D01*
X133071864Y-113545487D01*
X133126617Y-113630575D01*
X133210160Y-113687658D01*
X133309329Y-113707740D01*
X135309329Y-113707740D01*
X135401973Y-113690308D01*
X135487061Y-113635555D01*
X135544144Y-113552012D01*
X135564226Y-113452843D01*
X135564226Y-113327843D01*
X137233157Y-113327843D01*
X137472334Y-113280268D01*
X137675099Y-113144785D01*
X138563271Y-112256613D01*
X138698754Y-112053848D01*
X138746329Y-111814671D01*
X138746329Y-110802843D01*
X139354432Y-110802843D01*
X139354432Y-114602843D01*
X139371864Y-114695487D01*
X139426617Y-114780575D01*
X139510160Y-114837658D01*
X139609329Y-114857740D01*
X141609329Y-114857740D01*
X141701973Y-114840308D01*
X141787061Y-114785555D01*
X141844144Y-114702012D01*
X141864226Y-114602843D01*
X141864226Y-110802843D01*
X141846794Y-110710199D01*
X141792041Y-110625111D01*
X141708498Y-110568028D01*
X141609329Y-110547946D01*
X139609329Y-110547946D01*
X139516685Y-110565378D01*
X139431597Y-110620131D01*
X139374514Y-110703674D01*
X139354432Y-110802843D01*
X138746329Y-110802843D01*
X138746329Y-108415240D01*
X139096329Y-108415240D01*
X139188973Y-108397808D01*
X139274061Y-108343055D01*
X139331144Y-108259512D01*
X139351226Y-108160343D01*
X139351226Y-105660343D01*
X139333794Y-105567699D01*
X139279041Y-105482611D01*
X139195498Y-105425528D01*
X139096329Y-105405446D01*
X138746329Y-105405446D01*
X138746329Y-105273000D01*
X139441116Y-105273000D01*
X140142333Y-105974217D01*
X140142333Y-107772335D01*
X140189908Y-108011512D01*
X140325391Y-108214277D01*
X142243488Y-110132374D01*
X142243488Y-111252000D01*
X142291063Y-111491177D01*
X142426546Y-111693942D01*
X142629311Y-111829425D01*
X142868488Y-111877000D01*
X143010000Y-111877000D01*
X143010000Y-120542500D01*
X143036754Y-120677000D01*
X143048060Y-120733842D01*
X143156447Y-120896053D01*
X144914947Y-122654554D01*
X145012186Y-122719526D01*
X145077158Y-122762940D01*
X145268500Y-122801000D01*
X145513603Y-122801000D01*
X145513603Y-122951000D01*
X145531035Y-123043644D01*
X145585788Y-123128732D01*
X145618500Y-123151083D01*
X145618500Y-127546443D01*
X145590768Y-127564288D01*
X145533685Y-127647831D01*
X145513603Y-127747000D01*
X145513603Y-129047000D01*
X145531035Y-129139644D01*
X145585788Y-129224732D01*
X145669331Y-129281815D01*
X145768500Y-129301897D01*
X146468500Y-129301897D01*
X146561144Y-129284465D01*
X146646232Y-129229712D01*
X146703315Y-129146169D01*
X146723397Y-129047000D01*
X146723397Y-127747000D01*
X147413603Y-127747000D01*
X147413603Y-129047000D01*
X147431035Y-129139644D01*
X147485788Y-129224732D01*
X147569331Y-129281815D01*
X147668500Y-129301897D01*
X148368500Y-129301897D01*
X148461144Y-129284465D01*
X148546232Y-129229712D01*
X148603315Y-129146169D01*
X148623397Y-129047000D01*
X148623397Y-128932227D01*
X149253335Y-129562165D01*
X149374993Y-129643455D01*
X149518500Y-129672000D01*
X150181303Y-129672000D01*
X150165103Y-129752000D01*
X150165103Y-130852000D01*
X150182535Y-130944644D01*
X150237288Y-131029732D01*
X150320831Y-131086815D01*
X150420000Y-131106897D01*
X152920000Y-131106897D01*
X153012644Y-131089465D01*
X153097732Y-131034712D01*
X153154815Y-130951169D01*
X153174897Y-130852000D01*
X153174897Y-130677000D01*
X157077207Y-130677000D01*
X157168043Y-130767995D01*
X157370118Y-130851904D01*
X157588922Y-130852095D01*
X157791143Y-130768539D01*
X157945995Y-130613957D01*
X158029904Y-130411882D01*
X158030095Y-130193078D01*
X157946539Y-129990857D01*
X157791957Y-129836005D01*
X157589882Y-129752096D01*
X157371078Y-129751905D01*
X157168857Y-129835461D01*
X157077158Y-129927000D01*
X153174897Y-129927000D01*
X153174897Y-129752000D01*
X153159844Y-129672000D01*
X162034670Y-129672000D01*
X162518017Y-130155347D01*
X162517905Y-130283922D01*
X162601461Y-130486143D01*
X162756043Y-130640995D01*
X162958118Y-130724904D01*
X163176922Y-130725095D01*
X163293321Y-130677000D01*
X165565103Y-130677000D01*
X165565103Y-130852000D01*
X165582535Y-130944644D01*
X165637288Y-131029732D01*
X165720831Y-131086815D01*
X165820000Y-131106897D01*
X168320000Y-131106897D01*
X168412644Y-131089465D01*
X168497732Y-131034712D01*
X168554815Y-130951169D01*
X168574897Y-130852000D01*
X168574897Y-129752000D01*
X168557465Y-129659356D01*
X168502712Y-129574268D01*
X168419169Y-129517185D01*
X168320000Y-129497103D01*
X165820000Y-129497103D01*
X165727356Y-129514535D01*
X165642268Y-129569288D01*
X165585185Y-129652831D01*
X165565103Y-129752000D01*
X165565103Y-129927000D01*
X163560629Y-129927000D01*
X163534539Y-129863857D01*
X163379957Y-129709005D01*
X163177882Y-129625096D01*
X163048313Y-129624983D01*
X162455165Y-129031835D01*
X162333507Y-128950545D01*
X162190000Y-128922000D01*
X153160722Y-128922000D01*
X153174897Y-128852000D01*
X153174897Y-128645000D01*
X158397753Y-128645000D01*
X158513118Y-128692904D01*
X158731922Y-128693095D01*
X158934143Y-128609539D01*
X159088995Y-128454957D01*
X159172904Y-128252882D01*
X159173095Y-128034078D01*
X159089539Y-127831857D01*
X159009822Y-127752000D01*
X165565103Y-127752000D01*
X165565103Y-128852000D01*
X165582535Y-128944644D01*
X165637288Y-129029732D01*
X165720831Y-129086815D01*
X165820000Y-129106897D01*
X168320000Y-129106897D01*
X168412644Y-129089465D01*
X168497732Y-129034712D01*
X168554815Y-128951169D01*
X168574897Y-128852000D01*
X168574897Y-127752000D01*
X168557465Y-127659356D01*
X168502712Y-127574268D01*
X168419169Y-127517185D01*
X168320000Y-127497103D01*
X165820000Y-127497103D01*
X165727356Y-127514535D01*
X165642268Y-127569288D01*
X165585185Y-127652831D01*
X165565103Y-127752000D01*
X159009822Y-127752000D01*
X158934957Y-127677005D01*
X158732882Y-127593096D01*
X158514078Y-127592905D01*
X158311857Y-127676461D01*
X158157005Y-127831043D01*
X158130448Y-127895000D01*
X153174897Y-127895000D01*
X153174897Y-127752000D01*
X153157465Y-127659356D01*
X153102712Y-127574268D01*
X153019169Y-127517185D01*
X152920000Y-127497103D01*
X150420000Y-127497103D01*
X150327356Y-127514535D01*
X150242268Y-127569288D01*
X150185185Y-127652831D01*
X150165103Y-127752000D01*
X150165103Y-128852000D01*
X150178274Y-128922000D01*
X149673830Y-128922000D01*
X148883665Y-128131835D01*
X148762007Y-128050545D01*
X148623397Y-128022974D01*
X148623397Y-127747000D01*
X148605965Y-127654356D01*
X148551212Y-127569268D01*
X148467669Y-127512185D01*
X148368500Y-127492103D01*
X147668500Y-127492103D01*
X147575856Y-127509535D01*
X147490768Y-127564288D01*
X147433685Y-127647831D01*
X147413603Y-127747000D01*
X146723397Y-127747000D01*
X146705965Y-127654356D01*
X146651212Y-127569268D01*
X146618500Y-127546917D01*
X146618500Y-125752000D01*
X150165103Y-125752000D01*
X150165103Y-126852000D01*
X150182535Y-126944644D01*
X150237288Y-127029732D01*
X150320831Y-127086815D01*
X150420000Y-127106897D01*
X152920000Y-127106897D01*
X153012644Y-127089465D01*
X153097732Y-127034712D01*
X153154815Y-126951169D01*
X153174897Y-126852000D01*
X153174897Y-126486000D01*
X156188207Y-126486000D01*
X156279043Y-126576995D01*
X156481118Y-126660904D01*
X156699922Y-126661095D01*
X156902143Y-126577539D01*
X157056995Y-126422957D01*
X157088567Y-126346922D01*
X161374905Y-126346922D01*
X161458461Y-126549143D01*
X161613043Y-126703995D01*
X161815118Y-126787904D01*
X162033922Y-126788095D01*
X162236143Y-126704539D01*
X162263730Y-126677000D01*
X165565103Y-126677000D01*
X165565103Y-126852000D01*
X165582535Y-126944644D01*
X165637288Y-127029732D01*
X165720831Y-127086815D01*
X165820000Y-127106897D01*
X168320000Y-127106897D01*
X168412644Y-127089465D01*
X168497732Y-127034712D01*
X168554815Y-126951169D01*
X168574897Y-126852000D01*
X168574897Y-125752000D01*
X168557465Y-125659356D01*
X168502712Y-125574268D01*
X168419169Y-125517185D01*
X168320000Y-125497103D01*
X165820000Y-125497103D01*
X165727356Y-125514535D01*
X165642268Y-125569288D01*
X165585185Y-125652831D01*
X165565103Y-125752000D01*
X165565103Y-125927000D01*
X162391598Y-125927000D01*
X162391539Y-125926857D01*
X162236957Y-125772005D01*
X162034882Y-125688096D01*
X161816078Y-125687905D01*
X161613857Y-125771461D01*
X161459005Y-125926043D01*
X161375096Y-126128118D01*
X161374905Y-126346922D01*
X157088567Y-126346922D01*
X157140904Y-126220882D01*
X157141095Y-126002078D01*
X157057539Y-125799857D01*
X156902957Y-125645005D01*
X156700882Y-125561096D01*
X156482078Y-125560905D01*
X156279857Y-125644461D01*
X156188158Y-125736000D01*
X153171886Y-125736000D01*
X153157465Y-125659356D01*
X153102712Y-125574268D01*
X153019169Y-125517185D01*
X152920000Y-125497103D01*
X150420000Y-125497103D01*
X150327356Y-125514535D01*
X150242268Y-125569288D01*
X150185185Y-125652831D01*
X150165103Y-125752000D01*
X146618500Y-125752000D01*
X146618500Y-123752000D01*
X150165103Y-123752000D01*
X150165103Y-124852000D01*
X150182535Y-124944644D01*
X150237288Y-125029732D01*
X150320831Y-125086815D01*
X150420000Y-125106897D01*
X152920000Y-125106897D01*
X153012644Y-125089465D01*
X153097732Y-125034712D01*
X153154815Y-124951169D01*
X153174897Y-124852000D01*
X153174897Y-124581000D01*
X155172207Y-124581000D01*
X155263043Y-124671995D01*
X155465118Y-124755904D01*
X155683922Y-124756095D01*
X155886143Y-124672539D01*
X156040995Y-124517957D01*
X156072567Y-124441922D01*
X164168905Y-124441922D01*
X164252461Y-124644143D01*
X164407043Y-124798995D01*
X164609118Y-124882904D01*
X164827922Y-124883095D01*
X165030143Y-124799539D01*
X165152896Y-124677000D01*
X165565103Y-124677000D01*
X165565103Y-124852000D01*
X165582535Y-124944644D01*
X165637288Y-125029732D01*
X165720831Y-125086815D01*
X165820000Y-125106897D01*
X168320000Y-125106897D01*
X168412644Y-125089465D01*
X168497732Y-125034712D01*
X168554815Y-124951169D01*
X168574897Y-124852000D01*
X168574897Y-123752000D01*
X168557465Y-123659356D01*
X168502712Y-123574268D01*
X168419169Y-123517185D01*
X168320000Y-123497103D01*
X165820000Y-123497103D01*
X165727356Y-123514535D01*
X165642268Y-123569288D01*
X165585185Y-123652831D01*
X165565103Y-123752000D01*
X165565103Y-123927000D01*
X165090847Y-123927000D01*
X165030957Y-123867005D01*
X164828882Y-123783096D01*
X164610078Y-123782905D01*
X164407857Y-123866461D01*
X164253005Y-124021043D01*
X164169096Y-124223118D01*
X164168905Y-124441922D01*
X156072567Y-124441922D01*
X156124904Y-124315882D01*
X156125095Y-124097078D01*
X156041539Y-123894857D01*
X155886957Y-123740005D01*
X155684882Y-123656096D01*
X155466078Y-123655905D01*
X155263857Y-123739461D01*
X155172158Y-123831000D01*
X153174897Y-123831000D01*
X153174897Y-123752000D01*
X153157465Y-123659356D01*
X153102712Y-123574268D01*
X153019169Y-123517185D01*
X152920000Y-123497103D01*
X150420000Y-123497103D01*
X150327356Y-123514535D01*
X150242268Y-123569288D01*
X150185185Y-123652831D01*
X150165103Y-123752000D01*
X146618500Y-123752000D01*
X146618500Y-123151557D01*
X146646232Y-123133712D01*
X146703315Y-123050169D01*
X146723397Y-122951000D01*
X146723397Y-121651000D01*
X147413603Y-121651000D01*
X147413603Y-122951000D01*
X147431035Y-123043644D01*
X147485788Y-123128732D01*
X147569331Y-123185815D01*
X147668500Y-123205897D01*
X148368500Y-123205897D01*
X148461144Y-123188465D01*
X148546232Y-123133712D01*
X148603315Y-123050169D01*
X148623397Y-122951000D01*
X148623397Y-122676000D01*
X150165103Y-122676000D01*
X150165103Y-122852000D01*
X150182535Y-122944644D01*
X150237288Y-123029732D01*
X150320831Y-123086815D01*
X150420000Y-123106897D01*
X152920000Y-123106897D01*
X153012644Y-123089465D01*
X153097732Y-123034712D01*
X153154815Y-122951169D01*
X153174897Y-122852000D01*
X153174897Y-122676000D01*
X158982207Y-122676000D01*
X159073043Y-122766995D01*
X159275118Y-122850904D01*
X159493922Y-122851095D01*
X159696143Y-122767539D01*
X159850995Y-122612957D01*
X159934904Y-122410882D01*
X159935095Y-122192078D01*
X159851539Y-121989857D01*
X159696957Y-121835005D01*
X159494882Y-121751096D01*
X159276078Y-121750905D01*
X159073857Y-121834461D01*
X158982158Y-121926000D01*
X153174897Y-121926000D01*
X153174897Y-121752000D01*
X153157465Y-121659356D01*
X153102712Y-121574268D01*
X153019169Y-121517185D01*
X152920000Y-121497103D01*
X150420000Y-121497103D01*
X150327356Y-121514535D01*
X150242268Y-121569288D01*
X150185185Y-121652831D01*
X150165103Y-121752000D01*
X150165103Y-121926000D01*
X148623397Y-121926000D01*
X148623397Y-121651000D01*
X148605965Y-121558356D01*
X148551212Y-121473268D01*
X148467669Y-121416185D01*
X148368500Y-121396103D01*
X147668500Y-121396103D01*
X147575856Y-121413535D01*
X147490768Y-121468288D01*
X147433685Y-121551831D01*
X147413603Y-121651000D01*
X146723397Y-121651000D01*
X146705965Y-121558356D01*
X146651212Y-121473268D01*
X146567669Y-121416185D01*
X146468500Y-121396103D01*
X145768500Y-121396103D01*
X145675856Y-121413535D01*
X145590768Y-121468288D01*
X145533685Y-121551831D01*
X145513603Y-121651000D01*
X145513603Y-121801000D01*
X145475607Y-121801000D01*
X144010000Y-120335394D01*
X144010000Y-119752000D01*
X150165103Y-119752000D01*
X150165103Y-120852000D01*
X150182535Y-120944644D01*
X150237288Y-121029732D01*
X150320831Y-121086815D01*
X150420000Y-121106897D01*
X152920000Y-121106897D01*
X153012644Y-121089465D01*
X153097732Y-121034712D01*
X153154815Y-120951169D01*
X153174897Y-120852000D01*
X153174897Y-120677000D01*
X154229149Y-120677000D01*
X154287043Y-120734995D01*
X154489118Y-120818904D01*
X154707922Y-120819095D01*
X154910143Y-120735539D01*
X155064995Y-120580957D01*
X155148904Y-120378882D01*
X155149095Y-120160078D01*
X155065539Y-119957857D01*
X154910957Y-119803005D01*
X154708882Y-119719096D01*
X154490078Y-119718905D01*
X154287857Y-119802461D01*
X154163100Y-119927000D01*
X153174897Y-119927000D01*
X153174897Y-119752000D01*
X153157465Y-119659356D01*
X153102712Y-119574268D01*
X153019169Y-119517185D01*
X152920000Y-119497103D01*
X150420000Y-119497103D01*
X150327356Y-119514535D01*
X150242268Y-119569288D01*
X150185185Y-119652831D01*
X150165103Y-119752000D01*
X144010000Y-119752000D01*
X144010000Y-118563000D01*
X145318500Y-118563000D01*
X145318500Y-119040010D01*
X145387008Y-119205404D01*
X145513595Y-119331991D01*
X145678989Y-119400500D01*
X145856000Y-119400500D01*
X145968500Y-119288000D01*
X145968500Y-118450500D01*
X146268500Y-118450500D01*
X146268500Y-119288000D01*
X146381000Y-119400500D01*
X146558011Y-119400500D01*
X146723405Y-119331991D01*
X146849992Y-119205404D01*
X146918500Y-119040010D01*
X146918500Y-118563000D01*
X146806000Y-118450500D01*
X146268500Y-118450500D01*
X145968500Y-118450500D01*
X145431000Y-118450500D01*
X145318500Y-118563000D01*
X144010000Y-118563000D01*
X144010000Y-117560990D01*
X145318500Y-117560990D01*
X145318500Y-118038000D01*
X145431000Y-118150500D01*
X145968500Y-118150500D01*
X145968500Y-117313000D01*
X146268500Y-117313000D01*
X146268500Y-118150500D01*
X146806000Y-118150500D01*
X146918500Y-118038000D01*
X146918500Y-117650500D01*
X147413603Y-117650500D01*
X147413603Y-118950500D01*
X147431035Y-119043144D01*
X147485788Y-119128232D01*
X147569331Y-119185315D01*
X147668500Y-119205397D01*
X148368500Y-119205397D01*
X148461144Y-119187965D01*
X148546232Y-119133212D01*
X148603315Y-119049669D01*
X148623397Y-118950500D01*
X148623397Y-118677000D01*
X150165103Y-118677000D01*
X150165103Y-118852000D01*
X150182535Y-118944644D01*
X150237288Y-119029732D01*
X150320831Y-119086815D01*
X150420000Y-119106897D01*
X152920000Y-119106897D01*
X153012644Y-119089465D01*
X153097732Y-119034712D01*
X153154815Y-118951169D01*
X153174897Y-118852000D01*
X153174897Y-118612000D01*
X153521213Y-118612000D01*
X153612049Y-118702995D01*
X153814124Y-118786904D01*
X154032928Y-118787095D01*
X154178557Y-118726922D01*
X157691905Y-118726922D01*
X157775461Y-118929143D01*
X157930043Y-119083995D01*
X158132118Y-119167904D01*
X158350922Y-119168095D01*
X158531963Y-119093291D01*
X162005837Y-122567165D01*
X162127496Y-122648455D01*
X162271002Y-122677000D01*
X165565103Y-122677000D01*
X165565103Y-122852000D01*
X165582535Y-122944644D01*
X165637288Y-123029732D01*
X165720831Y-123086815D01*
X165820000Y-123106897D01*
X168320000Y-123106897D01*
X168412644Y-123089465D01*
X168497732Y-123034712D01*
X168554815Y-122951169D01*
X168574897Y-122852000D01*
X168574897Y-121752000D01*
X168557465Y-121659356D01*
X168502712Y-121574268D01*
X168419169Y-121517185D01*
X168320000Y-121497103D01*
X165820000Y-121497103D01*
X165727356Y-121514535D01*
X165642268Y-121569288D01*
X165585185Y-121652831D01*
X165565103Y-121752000D01*
X165565103Y-121927000D01*
X162426332Y-121927000D01*
X160251332Y-119752000D01*
X165565103Y-119752000D01*
X165565103Y-120852000D01*
X165582535Y-120944644D01*
X165637288Y-121029732D01*
X165720831Y-121086815D01*
X165820000Y-121106897D01*
X168320000Y-121106897D01*
X168412644Y-121089465D01*
X168497732Y-121034712D01*
X168554815Y-120951169D01*
X168574897Y-120852000D01*
X168574897Y-119752000D01*
X168557465Y-119659356D01*
X168502712Y-119574268D01*
X168419169Y-119517185D01*
X168320000Y-119497103D01*
X165820000Y-119497103D01*
X165727356Y-119514535D01*
X165642268Y-119569288D01*
X165585185Y-119652831D01*
X165565103Y-119752000D01*
X160251332Y-119752000D01*
X159211880Y-118712548D01*
X159381196Y-118642588D01*
X159472895Y-118551049D01*
X165565103Y-118551049D01*
X165565103Y-118852000D01*
X165582535Y-118944644D01*
X165637288Y-119029732D01*
X165720831Y-119086815D01*
X165820000Y-119106897D01*
X168320000Y-119106897D01*
X168412644Y-119089465D01*
X168497732Y-119034712D01*
X168554815Y-118951169D01*
X168574897Y-118852000D01*
X168574897Y-117752000D01*
X168557465Y-117659356D01*
X168502712Y-117574268D01*
X168419169Y-117517185D01*
X168320000Y-117497103D01*
X165820000Y-117497103D01*
X165727356Y-117514535D01*
X165642268Y-117569288D01*
X165585185Y-117652831D01*
X165565103Y-117752000D01*
X165565103Y-117801049D01*
X159472846Y-117801049D01*
X159382010Y-117710054D01*
X159179935Y-117626145D01*
X158961131Y-117625954D01*
X158758910Y-117709510D01*
X158604058Y-117864092D01*
X158520149Y-118066167D01*
X158520086Y-118137941D01*
X158351882Y-118068096D01*
X158133078Y-118067905D01*
X157930857Y-118151461D01*
X157776005Y-118306043D01*
X157692096Y-118508118D01*
X157691905Y-118726922D01*
X154178557Y-118726922D01*
X154235149Y-118703539D01*
X154390001Y-118548957D01*
X154473910Y-118346882D01*
X154474101Y-118128078D01*
X154390545Y-117925857D01*
X154235963Y-117771005D01*
X154033888Y-117687096D01*
X153815084Y-117686905D01*
X153612863Y-117770461D01*
X153521164Y-117862000D01*
X153174897Y-117862000D01*
X153174897Y-117752000D01*
X153157465Y-117659356D01*
X153102712Y-117574268D01*
X153019169Y-117517185D01*
X152920000Y-117497103D01*
X150420000Y-117497103D01*
X150327356Y-117514535D01*
X150242268Y-117569288D01*
X150185185Y-117652831D01*
X150165103Y-117752000D01*
X150165103Y-117927000D01*
X148626041Y-117927000D01*
X148623397Y-117926474D01*
X148623397Y-117650500D01*
X148605965Y-117557856D01*
X148551212Y-117472768D01*
X148467669Y-117415685D01*
X148368500Y-117395603D01*
X147668500Y-117395603D01*
X147575856Y-117413035D01*
X147490768Y-117467788D01*
X147433685Y-117551331D01*
X147413603Y-117650500D01*
X146918500Y-117650500D01*
X146918500Y-117560990D01*
X146849992Y-117395596D01*
X146723405Y-117269009D01*
X146558011Y-117200500D01*
X146381000Y-117200500D01*
X146268500Y-117313000D01*
X145968500Y-117313000D01*
X145856000Y-117200500D01*
X145678989Y-117200500D01*
X145513595Y-117269009D01*
X145387008Y-117395596D01*
X145318500Y-117560990D01*
X144010000Y-117560990D01*
X144010000Y-116689500D01*
X149970000Y-116689500D01*
X149970000Y-116941510D01*
X150038508Y-117106904D01*
X150165095Y-117233491D01*
X150330489Y-117302000D01*
X151232500Y-117302000D01*
X151345000Y-117189500D01*
X151345000Y-116577000D01*
X151995000Y-116577000D01*
X151995000Y-117189500D01*
X152107500Y-117302000D01*
X153009511Y-117302000D01*
X153174905Y-117233491D01*
X153301492Y-117106904D01*
X153370000Y-116941510D01*
X153370000Y-116689500D01*
X153257500Y-116577000D01*
X151995000Y-116577000D01*
X151345000Y-116577000D01*
X150082500Y-116577000D01*
X149970000Y-116689500D01*
X144010000Y-116689500D01*
X144010000Y-115662490D01*
X149970000Y-115662490D01*
X149970000Y-115914500D01*
X150082500Y-116027000D01*
X151345000Y-116027000D01*
X151345000Y-115414500D01*
X151995000Y-115414500D01*
X151995000Y-116027000D01*
X153257500Y-116027000D01*
X153370000Y-115914500D01*
X153370000Y-115662490D01*
X153301492Y-115497096D01*
X153174905Y-115370509D01*
X153009511Y-115302000D01*
X152107500Y-115302000D01*
X151995000Y-115414500D01*
X151345000Y-115414500D01*
X151232500Y-115302000D01*
X150330489Y-115302000D01*
X150165095Y-115370509D01*
X150038508Y-115497096D01*
X149970000Y-115662490D01*
X144010000Y-115662490D01*
X144010000Y-113352000D01*
X153575103Y-113352000D01*
X153575103Y-115852000D01*
X153592535Y-115944644D01*
X153647288Y-116029732D01*
X153730831Y-116086815D01*
X153830000Y-116106897D01*
X154930000Y-116106897D01*
X155022644Y-116089465D01*
X155107732Y-116034712D01*
X155164815Y-115951169D01*
X155184897Y-115852000D01*
X155184897Y-113352000D01*
X155575103Y-113352000D01*
X155575103Y-115852000D01*
X155592535Y-115944644D01*
X155647288Y-116029732D01*
X155730831Y-116086815D01*
X155830000Y-116106897D01*
X156930000Y-116106897D01*
X157022644Y-116089465D01*
X157107732Y-116034712D01*
X157164815Y-115951169D01*
X157184897Y-115852000D01*
X157184897Y-113352000D01*
X157575103Y-113352000D01*
X157575103Y-115852000D01*
X157592535Y-115944644D01*
X157647288Y-116029732D01*
X157730831Y-116086815D01*
X157830000Y-116106897D01*
X158930000Y-116106897D01*
X159022644Y-116089465D01*
X159107732Y-116034712D01*
X159164815Y-115951169D01*
X159184897Y-115852000D01*
X159184897Y-113352000D01*
X159575103Y-113352000D01*
X159575103Y-115852000D01*
X159592535Y-115944644D01*
X159647288Y-116029732D01*
X159730831Y-116086815D01*
X159830000Y-116106897D01*
X160930000Y-116106897D01*
X161022644Y-116089465D01*
X161107732Y-116034712D01*
X161164815Y-115951169D01*
X161184897Y-115852000D01*
X161184897Y-113352000D01*
X161575103Y-113352000D01*
X161575103Y-115852000D01*
X161592535Y-115944644D01*
X161647288Y-116029732D01*
X161730831Y-116086815D01*
X161830000Y-116106897D01*
X162930000Y-116106897D01*
X163022644Y-116089465D01*
X163107732Y-116034712D01*
X163164815Y-115951169D01*
X163184897Y-115852000D01*
X163184897Y-113352000D01*
X163575103Y-113352000D01*
X163575103Y-115852000D01*
X163592535Y-115944644D01*
X163647288Y-116029732D01*
X163730831Y-116086815D01*
X163830000Y-116106897D01*
X164930000Y-116106897D01*
X165022644Y-116089465D01*
X165107732Y-116034712D01*
X165164815Y-115951169D01*
X165184897Y-115852000D01*
X165184897Y-113352000D01*
X165167465Y-113259356D01*
X165112712Y-113174268D01*
X165029169Y-113117185D01*
X164930000Y-113097103D01*
X163830000Y-113097103D01*
X163737356Y-113114535D01*
X163652268Y-113169288D01*
X163595185Y-113252831D01*
X163575103Y-113352000D01*
X163184897Y-113352000D01*
X163167465Y-113259356D01*
X163112712Y-113174268D01*
X163029169Y-113117185D01*
X162930000Y-113097103D01*
X161830000Y-113097103D01*
X161737356Y-113114535D01*
X161652268Y-113169288D01*
X161595185Y-113252831D01*
X161575103Y-113352000D01*
X161184897Y-113352000D01*
X161167465Y-113259356D01*
X161112712Y-113174268D01*
X161029169Y-113117185D01*
X160930000Y-113097103D01*
X159830000Y-113097103D01*
X159737356Y-113114535D01*
X159652268Y-113169288D01*
X159595185Y-113252831D01*
X159575103Y-113352000D01*
X159184897Y-113352000D01*
X159167465Y-113259356D01*
X159112712Y-113174268D01*
X159029169Y-113117185D01*
X158930000Y-113097103D01*
X157830000Y-113097103D01*
X157737356Y-113114535D01*
X157652268Y-113169288D01*
X157595185Y-113252831D01*
X157575103Y-113352000D01*
X157184897Y-113352000D01*
X157167465Y-113259356D01*
X157112712Y-113174268D01*
X157029169Y-113117185D01*
X156930000Y-113097103D01*
X155830000Y-113097103D01*
X155737356Y-113114535D01*
X155652268Y-113169288D01*
X155595185Y-113252831D01*
X155575103Y-113352000D01*
X155184897Y-113352000D01*
X155167465Y-113259356D01*
X155112712Y-113174268D01*
X155029169Y-113117185D01*
X154930000Y-113097103D01*
X153830000Y-113097103D01*
X153737356Y-113114535D01*
X153652268Y-113169288D01*
X153595185Y-113252831D01*
X153575103Y-113352000D01*
X144010000Y-113352000D01*
X144010000Y-111877000D01*
X159220118Y-111877000D01*
X160168063Y-112824945D01*
X160370828Y-112960428D01*
X160610005Y-113008004D01*
X160610010Y-113008003D01*
X162285001Y-113008003D01*
X162524178Y-112960428D01*
X162726943Y-112824945D01*
X164050888Y-111501000D01*
X164841116Y-111501000D01*
X165647103Y-112306987D01*
X165647103Y-113147000D01*
X165664535Y-113239644D01*
X165719288Y-113324732D01*
X165777000Y-113364165D01*
X165777000Y-115505194D01*
X165727356Y-115514535D01*
X165642268Y-115569288D01*
X165585185Y-115652831D01*
X165565103Y-115752000D01*
X165565103Y-116852000D01*
X165582535Y-116944644D01*
X165637288Y-117029732D01*
X165720831Y-117086815D01*
X165820000Y-117106897D01*
X168320000Y-117106897D01*
X168412644Y-117089465D01*
X168497732Y-117034712D01*
X168554815Y-116951169D01*
X168574897Y-116852000D01*
X168574897Y-115752000D01*
X168557465Y-115659356D01*
X168502712Y-115574268D01*
X168419169Y-115517185D01*
X168320000Y-115497103D01*
X167027000Y-115497103D01*
X167027000Y-113363644D01*
X167079732Y-113329712D01*
X167136815Y-113246169D01*
X167156897Y-113147000D01*
X167156897Y-112784500D01*
X167452000Y-112784500D01*
X167452000Y-113236510D01*
X167520508Y-113401904D01*
X167647095Y-113528491D01*
X167812489Y-113597000D01*
X168139500Y-113597000D01*
X168252000Y-113484500D01*
X168252000Y-112672000D01*
X168552000Y-112672000D01*
X168552000Y-113484500D01*
X168664500Y-113597000D01*
X168991511Y-113597000D01*
X169156905Y-113528491D01*
X169283492Y-113401904D01*
X169352000Y-113236510D01*
X169352000Y-112784500D01*
X169239500Y-112672000D01*
X168552000Y-112672000D01*
X168252000Y-112672000D01*
X167564500Y-112672000D01*
X167452000Y-112784500D01*
X167156897Y-112784500D01*
X167156897Y-111897000D01*
X167140055Y-111807490D01*
X167452000Y-111807490D01*
X167452000Y-112259500D01*
X167564500Y-112372000D01*
X168252000Y-112372000D01*
X168252000Y-111559500D01*
X168552000Y-111559500D01*
X168552000Y-112372000D01*
X169239500Y-112372000D01*
X169352000Y-112259500D01*
X169352000Y-111807490D01*
X169283492Y-111642096D01*
X169156905Y-111515509D01*
X168991511Y-111447000D01*
X168664500Y-111447000D01*
X168552000Y-111559500D01*
X168252000Y-111559500D01*
X168139500Y-111447000D01*
X167812489Y-111447000D01*
X167647095Y-111515509D01*
X167520508Y-111642096D01*
X167452000Y-111807490D01*
X167140055Y-111807490D01*
X167139465Y-111804356D01*
X167084712Y-111719268D01*
X167001169Y-111662185D01*
X166902000Y-111642103D01*
X166749987Y-111642103D01*
X165541942Y-110434058D01*
X165339177Y-110298575D01*
X165202494Y-110271387D01*
X164429897Y-109498791D01*
X164429897Y-108951000D01*
X164412465Y-108858356D01*
X164357712Y-108773268D01*
X164325000Y-108750917D01*
X164325000Y-108644973D01*
X164406941Y-108522341D01*
X164428243Y-108415247D01*
X164445001Y-108330999D01*
X164445001Y-106522160D01*
X166642046Y-106522160D01*
X166761124Y-106809672D01*
X167091386Y-107194665D01*
X167543838Y-107423966D01*
X167744000Y-107350830D01*
X167744000Y-106322000D01*
X168044000Y-106322000D01*
X168044000Y-107350830D01*
X168244162Y-107423966D01*
X168696614Y-107194665D01*
X169026876Y-106809672D01*
X169145954Y-106522160D01*
X169071988Y-106322000D01*
X168044000Y-106322000D01*
X167744000Y-106322000D01*
X166716012Y-106322000D01*
X166642046Y-106522160D01*
X164445001Y-106522160D01*
X164445001Y-105821840D01*
X166642046Y-105821840D01*
X166716012Y-106022000D01*
X167744000Y-106022000D01*
X167744000Y-104993170D01*
X168044000Y-104993170D01*
X168044000Y-106022000D01*
X169071988Y-106022000D01*
X169145954Y-105821840D01*
X169026876Y-105534328D01*
X168696614Y-105149335D01*
X168244162Y-104920034D01*
X168044000Y-104993170D01*
X167744000Y-104993170D01*
X167543838Y-104920034D01*
X167091386Y-105149335D01*
X166761124Y-105534328D01*
X166642046Y-105821840D01*
X164445001Y-105821840D01*
X164445001Y-104922003D01*
X164406941Y-104730661D01*
X164298554Y-104568450D01*
X163865001Y-104134897D01*
X163865001Y-103632000D01*
X166772450Y-103632000D01*
X166856183Y-104052952D01*
X167094633Y-104409817D01*
X167451498Y-104648267D01*
X167872450Y-104732000D01*
X167915550Y-104732000D01*
X168336502Y-104648267D01*
X168693367Y-104409817D01*
X168931817Y-104052952D01*
X169015550Y-103632000D01*
X168931817Y-103211048D01*
X168693367Y-102854183D01*
X168336502Y-102615733D01*
X167915550Y-102532000D01*
X167872450Y-102532000D01*
X167451498Y-102615733D01*
X167094633Y-102854183D01*
X166856183Y-103211048D01*
X166772450Y-103632000D01*
X163865001Y-103632000D01*
X163865001Y-101092000D01*
X166772450Y-101092000D01*
X166856183Y-101512952D01*
X167094633Y-101869817D01*
X167451498Y-102108267D01*
X167872450Y-102192000D01*
X167915550Y-102192000D01*
X168336502Y-102108267D01*
X168693367Y-101869817D01*
X168931817Y-101512952D01*
X169015550Y-101092000D01*
X168931817Y-100671048D01*
X168693367Y-100314183D01*
X168336502Y-100075733D01*
X167915550Y-99992000D01*
X167872450Y-99992000D01*
X167451498Y-100075733D01*
X167094633Y-100314183D01*
X166856183Y-100671048D01*
X166772450Y-101092000D01*
X163865001Y-101092000D01*
X163865001Y-98552000D01*
X166772450Y-98552000D01*
X166856183Y-98972952D01*
X167094633Y-99329817D01*
X167451498Y-99568267D01*
X167872450Y-99652000D01*
X167915550Y-99652000D01*
X168336502Y-99568267D01*
X168693367Y-99329817D01*
X168931817Y-98972952D01*
X169015550Y-98552000D01*
X168931817Y-98131048D01*
X168693367Y-97774183D01*
X168336502Y-97535733D01*
X167915550Y-97452000D01*
X167872450Y-97452000D01*
X167451498Y-97535733D01*
X167094633Y-97774183D01*
X166856183Y-98131048D01*
X166772450Y-98552000D01*
X163865001Y-98552000D01*
X163865001Y-95162000D01*
X166789103Y-95162000D01*
X166789103Y-96862000D01*
X166806535Y-96954644D01*
X166861288Y-97039732D01*
X166944831Y-97096815D01*
X167044000Y-97116897D01*
X168744000Y-97116897D01*
X168836644Y-97099465D01*
X168921732Y-97044712D01*
X168978815Y-96961169D01*
X168998897Y-96862000D01*
X168998897Y-95162000D01*
X168981465Y-95069356D01*
X168926712Y-94984268D01*
X168843169Y-94927185D01*
X168744000Y-94907103D01*
X167044000Y-94907103D01*
X166951356Y-94924535D01*
X166866268Y-94979288D01*
X166809185Y-95062831D01*
X166789103Y-95162000D01*
X163865001Y-95162000D01*
X163865001Y-90266160D01*
X166642046Y-90266160D01*
X166761124Y-90553672D01*
X167091386Y-90938665D01*
X167543838Y-91167966D01*
X167744000Y-91094830D01*
X167744000Y-90066000D01*
X168044000Y-90066000D01*
X168044000Y-91094830D01*
X168244162Y-91167966D01*
X168696614Y-90938665D01*
X169026876Y-90553672D01*
X169145954Y-90266160D01*
X169071988Y-90066000D01*
X168044000Y-90066000D01*
X167744000Y-90066000D01*
X166716012Y-90066000D01*
X166642046Y-90266160D01*
X163865001Y-90266160D01*
X163865001Y-89565840D01*
X166642046Y-89565840D01*
X166716012Y-89766000D01*
X167744000Y-89766000D01*
X167744000Y-88737170D01*
X168044000Y-88737170D01*
X168044000Y-89766000D01*
X169071988Y-89766000D01*
X169145954Y-89565840D01*
X169026876Y-89278328D01*
X168696614Y-88893335D01*
X168244162Y-88664034D01*
X168044000Y-88737170D01*
X167744000Y-88737170D01*
X167543838Y-88664034D01*
X167091386Y-88893335D01*
X166761124Y-89278328D01*
X166642046Y-89565840D01*
X163865001Y-89565840D01*
X163865001Y-88689001D01*
X163826941Y-88497659D01*
X163718554Y-88335448D01*
X163556343Y-88227061D01*
X163365001Y-88189001D01*
X163106200Y-88189001D01*
X163149815Y-88125169D01*
X163169897Y-88026000D01*
X163169897Y-86726000D01*
X163860103Y-86726000D01*
X163860103Y-88026000D01*
X163877535Y-88118644D01*
X163932288Y-88203732D01*
X164015831Y-88260815D01*
X164115000Y-88280897D01*
X164815000Y-88280897D01*
X164907644Y-88263465D01*
X164992732Y-88208712D01*
X165049815Y-88125169D01*
X165069897Y-88026000D01*
X165069897Y-87876000D01*
X166789103Y-87876000D01*
X166789103Y-88226000D01*
X166806535Y-88318644D01*
X166861288Y-88403732D01*
X166944831Y-88460815D01*
X167044000Y-88480897D01*
X168744000Y-88480897D01*
X168836644Y-88463465D01*
X168921732Y-88408712D01*
X168978815Y-88325169D01*
X168998897Y-88226000D01*
X168998897Y-86526000D01*
X168981465Y-86433356D01*
X168926712Y-86348268D01*
X168843169Y-86291185D01*
X168744000Y-86271103D01*
X167044000Y-86271103D01*
X166951356Y-86288535D01*
X166866268Y-86343288D01*
X166809185Y-86426831D01*
X166789103Y-86526000D01*
X166789103Y-86876000D01*
X165069897Y-86876000D01*
X165069897Y-86726000D01*
X165052465Y-86633356D01*
X164997712Y-86548268D01*
X164914169Y-86491185D01*
X164815000Y-86471103D01*
X164115000Y-86471103D01*
X164022356Y-86488535D01*
X163937268Y-86543288D01*
X163880185Y-86626831D01*
X163860103Y-86726000D01*
X163169897Y-86726000D01*
X163152465Y-86633356D01*
X163097712Y-86548268D01*
X163014169Y-86491185D01*
X162915000Y-86471103D01*
X162215000Y-86471103D01*
X162122356Y-86488535D01*
X162037268Y-86543288D01*
X161980185Y-86626831D01*
X161960103Y-86726000D01*
X161960103Y-88026000D01*
X161977535Y-88118644D01*
X162032288Y-88203732D01*
X162065000Y-88226083D01*
X162065000Y-88526000D01*
X162092465Y-88664078D01*
X162103060Y-88717342D01*
X162211447Y-88879553D01*
X162374447Y-89042554D01*
X162472825Y-89108288D01*
X162536659Y-89150941D01*
X162728001Y-89189001D01*
X162865001Y-89189001D01*
X162865001Y-104342003D01*
X162903061Y-104533345D01*
X163011448Y-104695556D01*
X163445001Y-105129109D01*
X163445001Y-106569279D01*
X163304882Y-106511096D01*
X163175313Y-106510983D01*
X162340000Y-105675670D01*
X162340000Y-103632000D01*
X162333642Y-103600038D01*
X162311455Y-103488493D01*
X162230165Y-103366835D01*
X158744000Y-99880670D01*
X158744000Y-94876397D01*
X158944000Y-94876397D01*
X159036644Y-94858965D01*
X159121732Y-94804212D01*
X159178815Y-94720669D01*
X159198897Y-94621500D01*
X159198897Y-93571500D01*
X159195667Y-93554332D01*
X159198905Y-93552991D01*
X159325492Y-93426404D01*
X159394000Y-93261010D01*
X159394000Y-92909000D01*
X159281500Y-92796500D01*
X158519000Y-92796500D01*
X158519000Y-92816500D01*
X158219000Y-92816500D01*
X158219000Y-92796500D01*
X157456500Y-92796500D01*
X157344000Y-92909000D01*
X157344000Y-93261010D01*
X157412508Y-93426404D01*
X157539095Y-93552991D01*
X157542560Y-93554426D01*
X157539103Y-93571500D01*
X157539103Y-93721500D01*
X155848897Y-93721500D01*
X155848897Y-93571500D01*
X155845667Y-93554332D01*
X155848905Y-93552991D01*
X155975492Y-93426404D01*
X156044000Y-93261010D01*
X156044000Y-92909000D01*
X155931500Y-92796500D01*
X155169000Y-92796500D01*
X155169000Y-92816500D01*
X154869000Y-92816500D01*
X154869000Y-92796500D01*
X154106500Y-92796500D01*
X153994000Y-92909000D01*
X153994000Y-93261010D01*
X154062508Y-93426404D01*
X154189095Y-93552991D01*
X154192560Y-93554426D01*
X154189103Y-93571500D01*
X154189103Y-94621500D01*
X154206535Y-94714144D01*
X154261288Y-94799232D01*
X154344831Y-94856315D01*
X154444000Y-94876397D01*
X155594000Y-94876397D01*
X155686644Y-94858965D01*
X155771732Y-94804212D01*
X155828815Y-94720669D01*
X155848897Y-94621500D01*
X155848897Y-94471500D01*
X157539103Y-94471500D01*
X157539103Y-94621500D01*
X157556535Y-94714144D01*
X157611288Y-94799232D01*
X157694831Y-94856315D01*
X157794000Y-94876397D01*
X157994000Y-94876397D01*
X157994000Y-100036000D01*
X158022545Y-100179507D01*
X158103835Y-100301165D01*
X161590000Y-103787330D01*
X161590000Y-105831000D01*
X161618545Y-105974507D01*
X161699835Y-106096165D01*
X162645017Y-107041347D01*
X162644905Y-107169922D01*
X162728461Y-107372143D01*
X162883043Y-107526995D01*
X163085118Y-107610904D01*
X163303922Y-107611095D01*
X163445001Y-107552802D01*
X163445001Y-108137026D01*
X163363060Y-108259658D01*
X163325000Y-108451000D01*
X163325000Y-108750443D01*
X163297268Y-108768288D01*
X163240185Y-108851831D01*
X163220103Y-108951000D01*
X163220103Y-110251000D01*
X163237535Y-110343644D01*
X163292288Y-110428732D01*
X163329774Y-110454346D01*
X162026117Y-111758003D01*
X160868889Y-111758003D01*
X159920944Y-110810058D01*
X159718179Y-110674575D01*
X159479002Y-110627000D01*
X143493488Y-110627000D01*
X143493488Y-110090922D01*
X156675905Y-110090922D01*
X156759461Y-110293143D01*
X156914043Y-110447995D01*
X157116118Y-110531904D01*
X157334922Y-110532095D01*
X157537143Y-110448539D01*
X157691995Y-110293957D01*
X157775904Y-110091882D01*
X157776017Y-109962313D01*
X157901408Y-109836922D01*
X160231909Y-109836922D01*
X160315465Y-110039143D01*
X160470047Y-110193995D01*
X160672122Y-110277904D01*
X160890926Y-110278095D01*
X161093147Y-110194539D01*
X161184846Y-110103000D01*
X161320103Y-110103000D01*
X161320103Y-110251000D01*
X161337535Y-110343644D01*
X161392288Y-110428732D01*
X161475831Y-110485815D01*
X161575000Y-110505897D01*
X162275000Y-110505897D01*
X162367644Y-110488465D01*
X162452732Y-110433712D01*
X162509815Y-110350169D01*
X162529897Y-110251000D01*
X162529897Y-108951000D01*
X162512465Y-108858356D01*
X162457712Y-108773268D01*
X162374169Y-108716185D01*
X162275000Y-108696103D01*
X161575000Y-108696103D01*
X161482356Y-108713535D01*
X161397268Y-108768288D01*
X161340185Y-108851831D01*
X161320103Y-108951000D01*
X161320103Y-109353000D01*
X161184797Y-109353000D01*
X161093961Y-109262005D01*
X160891886Y-109178096D01*
X160673082Y-109177905D01*
X160470861Y-109261461D01*
X160316009Y-109416043D01*
X160232100Y-109618118D01*
X160231909Y-109836922D01*
X157901408Y-109836922D01*
X159269165Y-108469165D01*
X159350455Y-108347506D01*
X159379000Y-108204000D01*
X159379000Y-106320793D01*
X159469995Y-106229957D01*
X159553904Y-106027882D01*
X159554095Y-105809078D01*
X159470539Y-105606857D01*
X159315957Y-105452005D01*
X159113882Y-105368096D01*
X158895078Y-105367905D01*
X158692857Y-105451461D01*
X158538005Y-105606043D01*
X158454096Y-105808118D01*
X158453905Y-106026922D01*
X158537461Y-106229143D01*
X158629000Y-106320842D01*
X158629000Y-108048670D01*
X157245653Y-109432017D01*
X157117078Y-109431905D01*
X156914857Y-109515461D01*
X156760005Y-109670043D01*
X156676096Y-109872118D01*
X156675905Y-110090922D01*
X143493488Y-110090922D01*
X143493488Y-109873490D01*
X143445913Y-109634313D01*
X143310430Y-109431548D01*
X141392333Y-107513451D01*
X141392333Y-105715338D01*
X141392334Y-105715333D01*
X141344758Y-105476156D01*
X141209275Y-105273391D01*
X140141942Y-104206058D01*
X140029455Y-104130897D01*
X140771500Y-104130897D01*
X140864144Y-104113465D01*
X140949232Y-104058712D01*
X141006315Y-103975169D01*
X141026397Y-103876000D01*
X141026397Y-102626000D01*
X141008965Y-102533356D01*
X140954212Y-102448268D01*
X140870669Y-102391185D01*
X140771500Y-102371103D01*
X139771500Y-102371103D01*
X139678856Y-102388535D01*
X139593768Y-102443288D01*
X139536685Y-102526831D01*
X139516603Y-102626000D01*
X139516603Y-102876000D01*
X139404358Y-102876000D01*
X139350538Y-102822086D01*
X139168886Y-102746658D01*
X139690544Y-102225000D01*
X140059000Y-102225000D01*
X140298177Y-102177425D01*
X140500942Y-102041942D01*
X140903942Y-101638942D01*
X141039425Y-101436178D01*
X141087000Y-101197000D01*
X141087000Y-100663644D01*
X141139732Y-100629712D01*
X141196815Y-100546169D01*
X141216897Y-100447000D01*
X141216897Y-99657465D01*
X141221746Y-99650208D01*
X141256000Y-99478000D01*
X141256000Y-99165830D01*
X142685335Y-100595165D01*
X142806993Y-100676455D01*
X142945603Y-100704026D01*
X142945603Y-100955000D01*
X142963035Y-101047644D01*
X143017788Y-101132732D01*
X143101331Y-101189815D01*
X143200500Y-101209897D01*
X144150501Y-101209897D01*
X144150501Y-101591669D01*
X143026397Y-102715773D01*
X143026397Y-102626000D01*
X143008965Y-102533356D01*
X142954212Y-102448268D01*
X142870669Y-102391185D01*
X142771500Y-102371103D01*
X141771500Y-102371103D01*
X141678856Y-102388535D01*
X141593768Y-102443288D01*
X141536685Y-102526831D01*
X141516603Y-102626000D01*
X141516603Y-103876000D01*
X141534035Y-103968644D01*
X141588788Y-104053732D01*
X141672331Y-104110815D01*
X141771500Y-104130897D01*
X142771500Y-104130897D01*
X142864144Y-104113465D01*
X142949232Y-104058712D01*
X143006315Y-103975169D01*
X143026397Y-103876000D01*
X143026397Y-103625026D01*
X143165007Y-103597455D01*
X143286665Y-103516165D01*
X144790666Y-102012164D01*
X144871956Y-101890505D01*
X144900501Y-101746999D01*
X144900501Y-101291397D01*
X144945595Y-101336491D01*
X145110989Y-101405000D01*
X145438000Y-101405000D01*
X145550500Y-101292500D01*
X145550500Y-100480000D01*
X145850500Y-100480000D01*
X145850500Y-101292500D01*
X145963000Y-101405000D01*
X146290011Y-101405000D01*
X146455405Y-101336491D01*
X146581992Y-101209904D01*
X146650500Y-101044510D01*
X146650500Y-100592500D01*
X146538000Y-100480000D01*
X145850500Y-100480000D01*
X145550500Y-100480000D01*
X145530500Y-100480000D01*
X145530500Y-100180000D01*
X145550500Y-100180000D01*
X145550500Y-99367500D01*
X145850500Y-99367500D01*
X145850500Y-100180000D01*
X146538000Y-100180000D01*
X146650500Y-100067500D01*
X146650500Y-99615490D01*
X146581992Y-99450096D01*
X146455405Y-99323509D01*
X146290011Y-99255000D01*
X145963000Y-99255000D01*
X145850500Y-99367500D01*
X145550500Y-99367500D01*
X145438000Y-99255000D01*
X145110989Y-99255000D01*
X144945595Y-99323509D01*
X144874636Y-99394468D01*
X144871956Y-99380995D01*
X144790666Y-99259336D01*
X142846165Y-97314835D01*
X142724507Y-97233545D01*
X142585897Y-97205974D01*
X142585897Y-96705000D01*
X142568465Y-96612356D01*
X142513712Y-96527268D01*
X142430169Y-96470185D01*
X142331000Y-96450103D01*
X141881000Y-96450103D01*
X141788356Y-96467535D01*
X141782142Y-96471533D01*
X141780169Y-96470185D01*
X141681000Y-96450103D01*
X141231000Y-96450103D01*
X141138356Y-96467535D01*
X141132142Y-96471533D01*
X141130169Y-96470185D01*
X141031000Y-96450103D01*
X140581000Y-96450103D01*
X140531000Y-96459511D01*
X140531000Y-96403013D01*
X140576883Y-96357210D01*
X140660792Y-96155135D01*
X140660983Y-95936331D01*
X140577427Y-95734110D01*
X140422845Y-95579258D01*
X140220770Y-95495349D01*
X140001966Y-95495158D01*
X139860887Y-95553451D01*
X139860887Y-95255472D01*
X139909464Y-95182771D01*
X139909465Y-95182770D01*
X139938010Y-95039264D01*
X139938010Y-95017793D01*
X140029005Y-94926957D01*
X140112914Y-94724882D01*
X140113105Y-94506078D01*
X140029549Y-94303857D01*
X139874967Y-94149005D01*
X139672892Y-94065096D01*
X139454088Y-94064905D01*
X139443768Y-94069169D01*
X139487902Y-93962882D01*
X139488093Y-93744078D01*
X139405839Y-93545008D01*
X141689936Y-93545008D01*
X141689905Y-93580922D01*
X141773461Y-93783143D01*
X141928043Y-93937995D01*
X142130118Y-94021904D01*
X142348922Y-94022095D01*
X142551143Y-93938539D01*
X142705995Y-93783957D01*
X142778729Y-93608795D01*
X142814065Y-93644131D01*
X142729056Y-93728992D01*
X142645147Y-93931067D01*
X142644956Y-94149871D01*
X142728512Y-94352092D01*
X142883094Y-94506944D01*
X143085169Y-94590853D01*
X143303973Y-94591044D01*
X143506194Y-94507488D01*
X143661046Y-94352906D01*
X143744955Y-94150831D01*
X143745146Y-93932027D01*
X143661590Y-93729806D01*
X143570051Y-93638107D01*
X143570051Y-93494787D01*
X143541506Y-93351281D01*
X143541506Y-93351280D01*
X143460216Y-93229622D01*
X142685427Y-92454833D01*
X142563769Y-92373543D01*
X142420262Y-92344998D01*
X138255590Y-92344998D01*
X138112084Y-92373543D01*
X138050729Y-92414539D01*
X137990425Y-92454833D01*
X136640835Y-93804423D01*
X136559545Y-93926081D01*
X136531894Y-94065096D01*
X136531000Y-94069588D01*
X136531000Y-94762431D01*
X136380882Y-94700096D01*
X136162078Y-94699905D01*
X135981000Y-94774725D01*
X135981000Y-94412741D01*
X136101995Y-94291957D01*
X136185904Y-94089882D01*
X136186095Y-93871078D01*
X136102539Y-93668857D01*
X135947957Y-93514005D01*
X135745882Y-93430096D01*
X135527078Y-93429905D01*
X135324857Y-93513461D01*
X135170005Y-93668043D01*
X135086096Y-93870118D01*
X135085905Y-94088922D01*
X135169461Y-94291143D01*
X135231000Y-94352789D01*
X135231000Y-94829127D01*
X135185957Y-94784005D01*
X134983882Y-94700096D01*
X134765078Y-94699905D01*
X134562857Y-94783461D01*
X134408005Y-94938043D01*
X134324096Y-95140118D01*
X134323905Y-95358922D01*
X134407461Y-95561143D01*
X134499000Y-95652842D01*
X134499000Y-96450103D01*
X134262494Y-96450103D01*
X134262491Y-96450095D01*
X134135904Y-96323508D01*
X133970510Y-96255000D01*
X133881000Y-96255000D01*
X133768500Y-96367500D01*
X133768500Y-97430000D01*
X133826000Y-97430000D01*
X133826000Y-97730000D01*
X133768500Y-97730000D01*
X133768500Y-98792500D01*
X133881000Y-98905000D01*
X133970510Y-98905000D01*
X134135904Y-98836492D01*
X134262491Y-98709905D01*
X134262494Y-98709897D01*
X134531000Y-98709897D01*
X134623644Y-98692465D01*
X134629858Y-98688467D01*
X134631831Y-98689815D01*
X134731000Y-98709897D01*
X135181000Y-98709897D01*
X135273644Y-98692465D01*
X135279858Y-98688467D01*
X135281831Y-98689815D01*
X135381000Y-98709897D01*
X135831000Y-98709897D01*
X135923644Y-98692465D01*
X135929858Y-98688467D01*
X135931831Y-98689815D01*
X136031000Y-98709897D01*
X136481000Y-98709897D01*
X136573644Y-98692465D01*
X136579858Y-98688467D01*
X136581831Y-98689815D01*
X136681000Y-98709897D01*
X137131000Y-98709897D01*
X137223644Y-98692465D01*
X137229858Y-98688467D01*
X137231831Y-98689815D01*
X137331000Y-98709897D01*
X137781000Y-98709897D01*
X137873644Y-98692465D01*
X137879858Y-98688467D01*
X137881831Y-98689815D01*
X137981000Y-98709897D01*
X138431000Y-98709897D01*
X138523644Y-98692465D01*
X138529858Y-98688467D01*
X138531831Y-98689815D01*
X138631000Y-98709897D01*
X139081000Y-98709897D01*
X139173644Y-98692465D01*
X139179858Y-98688467D01*
X139181831Y-98689815D01*
X139281000Y-98709897D01*
X139731000Y-98709897D01*
X139823644Y-98692465D01*
X139829858Y-98688467D01*
X139831831Y-98689815D01*
X139931000Y-98709897D01*
X140356000Y-98709897D01*
X140356000Y-98942103D01*
X139962000Y-98942103D01*
X139869356Y-98959535D01*
X139784268Y-99014288D01*
X139727185Y-99097831D01*
X139707103Y-99197000D01*
X139707103Y-100447000D01*
X139724535Y-100539644D01*
X139779288Y-100624732D01*
X139837000Y-100664165D01*
X139837000Y-100938116D01*
X139800116Y-100975000D01*
X139431660Y-100975000D01*
X139192483Y-101022575D01*
X138989718Y-101158058D01*
X137679387Y-102468389D01*
X137543904Y-102671154D01*
X137539226Y-102694671D01*
X134817053Y-102694671D01*
X132206882Y-100084500D01*
X137512000Y-100084500D01*
X137512000Y-100536510D01*
X137580508Y-100701904D01*
X137707095Y-100828491D01*
X137872489Y-100897000D01*
X138199500Y-100897000D01*
X138312000Y-100784500D01*
X138312000Y-99972000D01*
X138612000Y-99972000D01*
X138612000Y-100784500D01*
X138724500Y-100897000D01*
X139051511Y-100897000D01*
X139216905Y-100828491D01*
X139343492Y-100701904D01*
X139412000Y-100536510D01*
X139412000Y-100084500D01*
X139299500Y-99972000D01*
X138612000Y-99972000D01*
X138312000Y-99972000D01*
X137624500Y-99972000D01*
X137512000Y-100084500D01*
X132206882Y-100084500D01*
X131229872Y-99107490D01*
X137512000Y-99107490D01*
X137512000Y-99559500D01*
X137624500Y-99672000D01*
X138312000Y-99672000D01*
X138312000Y-98859500D01*
X138612000Y-98859500D01*
X138612000Y-99672000D01*
X139299500Y-99672000D01*
X139412000Y-99559500D01*
X139412000Y-99107490D01*
X139343492Y-98942096D01*
X139216905Y-98815509D01*
X139051511Y-98747000D01*
X138724500Y-98747000D01*
X138612000Y-98859500D01*
X138312000Y-98859500D01*
X138199500Y-98747000D01*
X137872489Y-98747000D01*
X137707095Y-98815509D01*
X137580508Y-98942096D01*
X137512000Y-99107490D01*
X131229872Y-99107490D01*
X131196500Y-99074118D01*
X131196500Y-97842500D01*
X132981000Y-97842500D01*
X132981000Y-98544511D01*
X133049509Y-98709905D01*
X133176096Y-98836492D01*
X133341490Y-98905000D01*
X133431000Y-98905000D01*
X133543500Y-98792500D01*
X133543500Y-97730000D01*
X133093500Y-97730000D01*
X132981000Y-97842500D01*
X131196500Y-97842500D01*
X131196500Y-96615489D01*
X132981000Y-96615489D01*
X132981000Y-97317500D01*
X133093500Y-97430000D01*
X133543500Y-97430000D01*
X133543500Y-96367500D01*
X133431000Y-96255000D01*
X133341490Y-96255000D01*
X133176096Y-96323508D01*
X133049509Y-96450095D01*
X132981000Y-96615489D01*
X131196500Y-96615489D01*
X131196500Y-93475896D01*
X133244911Y-91427485D01*
X133248288Y-91432732D01*
X133331831Y-91489815D01*
X133431000Y-91509897D01*
X133699506Y-91509897D01*
X133699509Y-91509905D01*
X133826096Y-91636492D01*
X133991490Y-91705000D01*
X134081000Y-91705000D01*
X134193500Y-91592500D01*
X134193500Y-90530000D01*
X134136000Y-90530000D01*
X134136000Y-90230000D01*
X134193500Y-90230000D01*
X134193500Y-89167500D01*
X134081000Y-89055000D01*
X133991490Y-89055000D01*
X133826096Y-89123508D01*
X133699509Y-89250095D01*
X133699506Y-89250103D01*
X133431000Y-89250103D01*
X133338356Y-89267535D01*
X133253268Y-89322288D01*
X133196185Y-89405831D01*
X133176103Y-89505000D01*
X133176103Y-90223501D01*
X130428302Y-92971302D01*
X130330754Y-93117292D01*
X130296500Y-93289500D01*
X129765000Y-93289500D01*
X129765000Y-81844500D01*
X132138000Y-81844500D01*
X132138000Y-84036511D01*
X132206509Y-84201905D01*
X132333096Y-84328492D01*
X132498490Y-84397000D01*
X132912500Y-84397000D01*
X133025000Y-84284500D01*
X133025000Y-81732000D01*
X133675000Y-81732000D01*
X133675000Y-84284500D01*
X133787500Y-84397000D01*
X134201510Y-84397000D01*
X134366904Y-84328492D01*
X134493491Y-84201905D01*
X134562000Y-84036511D01*
X134562000Y-81844500D01*
X134449500Y-81732000D01*
X133675000Y-81732000D01*
X133025000Y-81732000D01*
X132250500Y-81732000D01*
X132138000Y-81844500D01*
X129765000Y-81844500D01*
X129765000Y-78965000D01*
X132138000Y-78965000D01*
X132138000Y-80969500D01*
M02*
