G04 #@! TF.FileFunction,Legend,Top*
%FSLAX46Y46*%
G04 Gerber Fmt 4.6, Leading zero omitted, Abs format (unit mm)*
G04 Created by KiCad (PCBNEW 4.0.7) date Thursday, 05 July 2018 'PMt' 18:27:46*
%MOMM*%
%LPD*%
G01*
G04 APERTURE LIST*
%ADD10C,0.100000*%
%ADD11C,0.300000*%
%ADD12C,0.400000*%
%ADD13C,0.200000*%
%ADD14C,0.120000*%
%ADD15C,0.152400*%
%ADD16C,0.150000*%
%ADD17C,0.010000*%
G04 APERTURE END LIST*
D10*
D11*
X148022858Y-112438571D02*
X147522858Y-111724286D01*
X147165715Y-112438571D02*
X147165715Y-110938571D01*
X147737143Y-110938571D01*
X147880001Y-111010000D01*
X147951429Y-111081429D01*
X148022858Y-111224286D01*
X148022858Y-111438571D01*
X147951429Y-111581429D01*
X147880001Y-111652857D01*
X147737143Y-111724286D01*
X147165715Y-111724286D01*
X149237143Y-112367143D02*
X149094286Y-112438571D01*
X148808572Y-112438571D01*
X148665715Y-112367143D01*
X148594286Y-112224286D01*
X148594286Y-111652857D01*
X148665715Y-111510000D01*
X148808572Y-111438571D01*
X149094286Y-111438571D01*
X149237143Y-111510000D01*
X149308572Y-111652857D01*
X149308572Y-111795714D01*
X148594286Y-111938571D01*
X149808572Y-111438571D02*
X150165715Y-112438571D01*
X150522857Y-111438571D01*
X152165714Y-111081429D02*
X152237143Y-111010000D01*
X152380000Y-110938571D01*
X152737143Y-110938571D01*
X152880000Y-111010000D01*
X152951429Y-111081429D01*
X153022857Y-111224286D01*
X153022857Y-111367143D01*
X152951429Y-111581429D01*
X152094286Y-112438571D01*
X153022857Y-112438571D01*
X153665714Y-112295714D02*
X153737142Y-112367143D01*
X153665714Y-112438571D01*
X153594285Y-112367143D01*
X153665714Y-112295714D01*
X153665714Y-112438571D01*
X154308571Y-111081429D02*
X154380000Y-111010000D01*
X154522857Y-110938571D01*
X154880000Y-110938571D01*
X155022857Y-111010000D01*
X155094286Y-111081429D01*
X155165714Y-111224286D01*
X155165714Y-111367143D01*
X155094286Y-111581429D01*
X154237143Y-112438571D01*
X155165714Y-112438571D01*
X145209429Y-108652571D02*
X145566572Y-110152571D01*
X145852286Y-109081143D01*
X146138000Y-110152571D01*
X146495143Y-108652571D01*
X147066572Y-110152571D02*
X147066572Y-109152571D01*
X147066572Y-108652571D02*
X146995143Y-108724000D01*
X147066572Y-108795429D01*
X147138000Y-108724000D01*
X147066572Y-108652571D01*
X147066572Y-108795429D01*
X148280858Y-109366857D02*
X147780858Y-109366857D01*
X147780858Y-110152571D02*
X147780858Y-108652571D01*
X148495144Y-108652571D01*
X149066572Y-110152571D02*
X149066572Y-109152571D01*
X149066572Y-108652571D02*
X148995143Y-108724000D01*
X149066572Y-108795429D01*
X149138000Y-108724000D01*
X149066572Y-108652571D01*
X149066572Y-108795429D01*
X150923715Y-110152571D02*
X150923715Y-108652571D01*
X151423715Y-109724000D01*
X151923715Y-108652571D01*
X151923715Y-110152571D01*
X152852287Y-110152571D02*
X152709429Y-110081143D01*
X152638001Y-110009714D01*
X152566572Y-109866857D01*
X152566572Y-109438286D01*
X152638001Y-109295429D01*
X152709429Y-109224000D01*
X152852287Y-109152571D01*
X153066572Y-109152571D01*
X153209429Y-109224000D01*
X153280858Y-109295429D01*
X153352287Y-109438286D01*
X153352287Y-109866857D01*
X153280858Y-110009714D01*
X153209429Y-110081143D01*
X153066572Y-110152571D01*
X152852287Y-110152571D01*
X154638001Y-110152571D02*
X154638001Y-108652571D01*
X154638001Y-110081143D02*
X154495144Y-110152571D01*
X154209430Y-110152571D01*
X154066572Y-110081143D01*
X153995144Y-110009714D01*
X153923715Y-109866857D01*
X153923715Y-109438286D01*
X153995144Y-109295429D01*
X154066572Y-109224000D01*
X154209430Y-109152571D01*
X154495144Y-109152571D01*
X154638001Y-109224000D01*
X155923715Y-110081143D02*
X155780858Y-110152571D01*
X155495144Y-110152571D01*
X155352287Y-110081143D01*
X155280858Y-109938286D01*
X155280858Y-109366857D01*
X155352287Y-109224000D01*
X155495144Y-109152571D01*
X155780858Y-109152571D01*
X155923715Y-109224000D01*
X155995144Y-109366857D01*
X155995144Y-109509714D01*
X155280858Y-109652571D01*
X156638001Y-110152571D02*
X156638001Y-109152571D01*
X156638001Y-109295429D02*
X156709429Y-109224000D01*
X156852287Y-109152571D01*
X157066572Y-109152571D01*
X157209429Y-109224000D01*
X157280858Y-109366857D01*
X157280858Y-110152571D01*
X157280858Y-109366857D02*
X157352287Y-109224000D01*
X157495144Y-109152571D01*
X157709429Y-109152571D01*
X157852287Y-109224000D01*
X157923715Y-109366857D01*
X157923715Y-110152571D01*
D12*
X145399904Y-106791143D02*
X144733237Y-106791143D01*
X144733237Y-107838762D02*
X144733237Y-105838762D01*
X145685618Y-105838762D01*
X146447523Y-107838762D02*
X146447523Y-106505429D01*
X146447523Y-106886381D02*
X146542762Y-106695905D01*
X146638000Y-106600667D01*
X146828476Y-106505429D01*
X147018952Y-106505429D01*
X148447523Y-107743524D02*
X148257047Y-107838762D01*
X147876095Y-107838762D01*
X147685618Y-107743524D01*
X147590380Y-107553048D01*
X147590380Y-106791143D01*
X147685618Y-106600667D01*
X147876095Y-106505429D01*
X148257047Y-106505429D01*
X148447523Y-106600667D01*
X148542761Y-106791143D01*
X148542761Y-106981619D01*
X147590380Y-107172095D01*
X150161809Y-107743524D02*
X149971333Y-107838762D01*
X149590381Y-107838762D01*
X149399904Y-107743524D01*
X149304666Y-107553048D01*
X149304666Y-106791143D01*
X149399904Y-106600667D01*
X149590381Y-106505429D01*
X149971333Y-106505429D01*
X150161809Y-106600667D01*
X150257047Y-106791143D01*
X150257047Y-106981619D01*
X149304666Y-107172095D01*
X151780857Y-106791143D02*
X151114190Y-106791143D01*
X151114190Y-107838762D02*
X151114190Y-105838762D01*
X152066571Y-105838762D01*
X152828476Y-107838762D02*
X152828476Y-106505429D01*
X152828476Y-105838762D02*
X152733238Y-105934000D01*
X152828476Y-106029238D01*
X152923715Y-105934000D01*
X152828476Y-105838762D01*
X152828476Y-106029238D01*
X153685619Y-106029238D02*
X153780857Y-105934000D01*
X153971334Y-105838762D01*
X154447524Y-105838762D01*
X154638000Y-105934000D01*
X154733238Y-106029238D01*
X154828477Y-106219714D01*
X154828477Y-106410190D01*
X154733238Y-106695905D01*
X153590381Y-107838762D01*
X154828477Y-107838762D01*
X155495143Y-105838762D02*
X156733239Y-105838762D01*
X156066572Y-106600667D01*
X156352286Y-106600667D01*
X156542762Y-106695905D01*
X156638000Y-106791143D01*
X156733239Y-106981619D01*
X156733239Y-107457810D01*
X156638000Y-107648286D01*
X156542762Y-107743524D01*
X156352286Y-107838762D01*
X155780858Y-107838762D01*
X155590381Y-107743524D01*
X155495143Y-107648286D01*
X157495143Y-106029238D02*
X157590381Y-105934000D01*
X157780858Y-105838762D01*
X158257048Y-105838762D01*
X158447524Y-105934000D01*
X158542762Y-106029238D01*
X158638001Y-106219714D01*
X158638001Y-106410190D01*
X158542762Y-106695905D01*
X157399905Y-107838762D01*
X158638001Y-107838762D01*
D13*
X142748000Y-92456000D02*
G75*
G03X142748000Y-92456000I-508000J0D01*
G01*
D11*
X130937143Y-129806000D02*
X130794286Y-129734571D01*
X130580000Y-129734571D01*
X130365715Y-129806000D01*
X130222857Y-129948857D01*
X130151429Y-130091714D01*
X130080000Y-130377429D01*
X130080000Y-130591714D01*
X130151429Y-130877429D01*
X130222857Y-131020286D01*
X130365715Y-131163143D01*
X130580000Y-131234571D01*
X130722857Y-131234571D01*
X130937143Y-131163143D01*
X131008572Y-131091714D01*
X131008572Y-130591714D01*
X130722857Y-130591714D01*
X131651429Y-131234571D02*
X131651429Y-129734571D01*
X132508572Y-131234571D01*
X132508572Y-129734571D01*
X133222858Y-131234571D02*
X133222858Y-129734571D01*
X133580001Y-129734571D01*
X133794286Y-129806000D01*
X133937144Y-129948857D01*
X134008572Y-130091714D01*
X134080001Y-130377429D01*
X134080001Y-130591714D01*
X134008572Y-130877429D01*
X133937144Y-131020286D01*
X133794286Y-131163143D01*
X133580001Y-131234571D01*
X133222858Y-131234571D01*
X129897429Y-123043143D02*
X131040286Y-123043143D01*
X130468857Y-123614571D02*
X130468857Y-122471714D01*
X132468858Y-122114571D02*
X131754572Y-122114571D01*
X131683143Y-122828857D01*
X131754572Y-122757429D01*
X131897429Y-122686000D01*
X132254572Y-122686000D01*
X132397429Y-122757429D01*
X132468858Y-122828857D01*
X132540286Y-122971714D01*
X132540286Y-123328857D01*
X132468858Y-123471714D01*
X132397429Y-123543143D01*
X132254572Y-123614571D01*
X131897429Y-123614571D01*
X131754572Y-123543143D01*
X131683143Y-123471714D01*
X132968857Y-122114571D02*
X133468857Y-123614571D01*
X133968857Y-122114571D01*
X154539429Y-97198571D02*
X154039429Y-96484286D01*
X153682286Y-97198571D02*
X153682286Y-95698571D01*
X154253714Y-95698571D01*
X154396572Y-95770000D01*
X154468000Y-95841429D01*
X154539429Y-95984286D01*
X154539429Y-96198571D01*
X154468000Y-96341429D01*
X154396572Y-96412857D01*
X154253714Y-96484286D01*
X153682286Y-96484286D01*
X155182286Y-96412857D02*
X155682286Y-96412857D01*
X155896572Y-97198571D02*
X155182286Y-97198571D01*
X155182286Y-95698571D01*
X155896572Y-95698571D01*
X156468000Y-97127143D02*
X156682286Y-97198571D01*
X157039429Y-97198571D01*
X157182286Y-97127143D01*
X157253715Y-97055714D01*
X157325143Y-96912857D01*
X157325143Y-96770000D01*
X157253715Y-96627143D01*
X157182286Y-96555714D01*
X157039429Y-96484286D01*
X156753715Y-96412857D01*
X156610857Y-96341429D01*
X156539429Y-96270000D01*
X156468000Y-96127143D01*
X156468000Y-95984286D01*
X156539429Y-95841429D01*
X156610857Y-95770000D01*
X156753715Y-95698571D01*
X157110857Y-95698571D01*
X157325143Y-95770000D01*
X157968000Y-96412857D02*
X158468000Y-96412857D01*
X158682286Y-97198571D02*
X157968000Y-97198571D01*
X157968000Y-95698571D01*
X158682286Y-95698571D01*
X159110857Y-95698571D02*
X159968000Y-95698571D01*
X159539429Y-97198571D02*
X159539429Y-95698571D01*
X163770572Y-104310571D02*
X163270572Y-103596286D01*
X162913429Y-104310571D02*
X162913429Y-102810571D01*
X163484857Y-102810571D01*
X163627715Y-102882000D01*
X163699143Y-102953429D01*
X163770572Y-103096286D01*
X163770572Y-103310571D01*
X163699143Y-103453429D01*
X163627715Y-103524857D01*
X163484857Y-103596286D01*
X162913429Y-103596286D01*
X164199143Y-102810571D02*
X165056286Y-102810571D01*
X164627715Y-104310571D02*
X164627715Y-102810571D01*
X165484857Y-104239143D02*
X165699143Y-104310571D01*
X166056286Y-104310571D01*
X166199143Y-104239143D01*
X166270572Y-104167714D01*
X166342000Y-104024857D01*
X166342000Y-103882000D01*
X166270572Y-103739143D01*
X166199143Y-103667714D01*
X166056286Y-103596286D01*
X165770572Y-103524857D01*
X165627714Y-103453429D01*
X165556286Y-103382000D01*
X165484857Y-103239143D01*
X165484857Y-103096286D01*
X165556286Y-102953429D01*
X165627714Y-102882000D01*
X165770572Y-102810571D01*
X166127714Y-102810571D01*
X166342000Y-102882000D01*
X163195143Y-105676000D02*
X163052286Y-105604571D01*
X162838000Y-105604571D01*
X162623715Y-105676000D01*
X162480857Y-105818857D01*
X162409429Y-105961714D01*
X162338000Y-106247429D01*
X162338000Y-106461714D01*
X162409429Y-106747429D01*
X162480857Y-106890286D01*
X162623715Y-107033143D01*
X162838000Y-107104571D01*
X162980857Y-107104571D01*
X163195143Y-107033143D01*
X163266572Y-106961714D01*
X163266572Y-106461714D01*
X162980857Y-106461714D01*
X163909429Y-107104571D02*
X163909429Y-105604571D01*
X164766572Y-107104571D01*
X164766572Y-105604571D01*
X165480858Y-107104571D02*
X165480858Y-105604571D01*
X165838001Y-105604571D01*
X166052286Y-105676000D01*
X166195144Y-105818857D01*
X166266572Y-105961714D01*
X166338001Y-106247429D01*
X166338001Y-106461714D01*
X166266572Y-106747429D01*
X166195144Y-106890286D01*
X166052286Y-107033143D01*
X165838001Y-107104571D01*
X165480858Y-107104571D01*
X162877715Y-101770571D02*
X162877715Y-100270571D01*
X163234858Y-100270571D01*
X163449143Y-100342000D01*
X163592001Y-100484857D01*
X163663429Y-100627714D01*
X163734858Y-100913429D01*
X163734858Y-101127714D01*
X163663429Y-101413429D01*
X163592001Y-101556286D01*
X163449143Y-101699143D01*
X163234858Y-101770571D01*
X162877715Y-101770571D01*
X164163429Y-100270571D02*
X165020572Y-100270571D01*
X164592001Y-101770571D02*
X164592001Y-100270571D01*
X166377715Y-101770571D02*
X165877715Y-101056286D01*
X165520572Y-101770571D02*
X165520572Y-100270571D01*
X166092000Y-100270571D01*
X166234858Y-100342000D01*
X166306286Y-100413429D01*
X166377715Y-100556286D01*
X166377715Y-100770571D01*
X166306286Y-100913429D01*
X166234858Y-100984857D01*
X166092000Y-101056286D01*
X165520572Y-101056286D01*
X164850001Y-96690571D02*
X164350001Y-95976286D01*
X163992858Y-96690571D02*
X163992858Y-95190571D01*
X164564286Y-95190571D01*
X164707144Y-95262000D01*
X164778572Y-95333429D01*
X164850001Y-95476286D01*
X164850001Y-95690571D01*
X164778572Y-95833429D01*
X164707144Y-95904857D01*
X164564286Y-95976286D01*
X163992858Y-95976286D01*
X165350001Y-95190571D02*
X166350001Y-96690571D01*
X166350001Y-95190571D02*
X165350001Y-96690571D01*
X163957143Y-97730571D02*
X164814286Y-97730571D01*
X164385715Y-99230571D02*
X164385715Y-97730571D01*
X165171429Y-97730571D02*
X166171429Y-99230571D01*
X166171429Y-97730571D02*
X165171429Y-99230571D01*
X162544286Y-90843571D02*
X162544286Y-89343571D01*
X162544286Y-90057857D02*
X163401429Y-90057857D01*
X163401429Y-90843571D02*
X163401429Y-89343571D01*
X163972858Y-89343571D02*
X164330001Y-90843571D01*
X164615715Y-89772143D01*
X164901429Y-90843571D01*
X165258572Y-89343571D01*
X161794286Y-92607857D02*
X161294286Y-92607857D01*
X161294286Y-93393571D02*
X161294286Y-91893571D01*
X162008572Y-91893571D01*
X163294286Y-93393571D02*
X162580000Y-93393571D01*
X162580000Y-91893571D01*
X164080000Y-91893571D02*
X164365714Y-91893571D01*
X164508572Y-91965000D01*
X164651429Y-92107857D01*
X164722857Y-92393571D01*
X164722857Y-92893571D01*
X164651429Y-93179286D01*
X164508572Y-93322143D01*
X164365714Y-93393571D01*
X164080000Y-93393571D01*
X163937143Y-93322143D01*
X163794286Y-93179286D01*
X163722857Y-92893571D01*
X163722857Y-92393571D01*
X163794286Y-92107857D01*
X163937143Y-91965000D01*
X164080000Y-91893571D01*
X165222858Y-91893571D02*
X165580001Y-93393571D01*
X165865715Y-92322143D01*
X166151429Y-93393571D01*
X166508572Y-91893571D01*
D14*
X139369329Y-116112843D02*
X139369329Y-114852843D01*
X139369329Y-109292843D02*
X139369329Y-110552843D01*
X135609329Y-116112843D02*
X139369329Y-116112843D01*
X133359329Y-109292843D02*
X139369329Y-109292843D01*
D15*
X167386000Y-115443000D02*
X167386000Y-114681000D01*
X167386000Y-114681000D02*
X151384000Y-114681000D01*
X151384000Y-114681000D02*
X151384000Y-115443000D01*
D16*
X143206000Y-91105000D02*
X142631000Y-91105000D01*
X143206000Y-96855000D02*
X142556000Y-96855000D01*
X132556000Y-96855000D02*
X133206000Y-96855000D01*
X132556000Y-91105000D02*
X133206000Y-91105000D01*
X143206000Y-91105000D02*
X143206000Y-96855000D01*
X132556000Y-91105000D02*
X132556000Y-96855000D01*
X142631000Y-91105000D02*
X142631000Y-89505000D01*
X146105500Y-90766000D02*
X147105500Y-90766000D01*
X147105500Y-89066000D02*
X146105500Y-89066000D01*
X141025500Y-88226000D02*
X142025500Y-88226000D01*
X142025500Y-86526000D02*
X141025500Y-86526000D01*
X140771500Y-104101000D02*
X141771500Y-104101000D01*
X141771500Y-102401000D02*
X140771500Y-102401000D01*
X144200500Y-101180000D02*
X145200500Y-101180000D01*
X145200500Y-99480000D02*
X144200500Y-99480000D01*
X138962000Y-100672000D02*
X139962000Y-100672000D01*
X139962000Y-98972000D02*
X138962000Y-98972000D01*
D14*
X139394329Y-120053843D02*
X134844329Y-120053843D01*
X139394329Y-116753843D02*
X134844329Y-116753843D01*
X139394329Y-120053843D02*
X139394329Y-116753843D01*
D16*
X167902000Y-111672000D02*
X166902000Y-111672000D01*
X166902000Y-113372000D02*
X167902000Y-113372000D01*
D14*
X139396329Y-108560343D02*
X134846329Y-108560343D01*
X139396329Y-105260343D02*
X134846329Y-105260343D01*
X139396329Y-108560343D02*
X139396329Y-105260343D01*
X135880000Y-122022500D02*
X135880000Y-123722500D01*
X135880000Y-123722500D02*
X138430000Y-123722500D01*
X135880000Y-122022500D02*
X138430000Y-122022500D01*
D16*
X168910000Y-78232000D02*
X168910000Y-79883000D01*
X168910000Y-79883000D02*
X167513000Y-79883000D01*
X130810000Y-78232000D02*
X130810000Y-79756000D01*
X130810000Y-79756000D02*
X132080000Y-79756000D01*
X170180000Y-78232000D02*
X129540000Y-78232000D01*
X129540000Y-78232000D02*
X129540000Y-74422000D01*
X129540000Y-74422000D02*
X170180000Y-74422000D01*
X170180000Y-74422000D02*
X170180000Y-78232000D01*
X129540000Y-74422000D02*
X124460000Y-74422000D01*
X124460000Y-74422000D02*
X124460000Y-73152000D01*
X124460000Y-73152000D02*
X175260000Y-73152000D01*
X175260000Y-73152000D02*
X175260000Y-74422000D01*
X175260000Y-74422000D02*
X170180000Y-74422000D01*
X129540000Y-73152000D02*
X129540000Y-67437000D01*
X129540000Y-67437000D02*
X170180000Y-67437000D01*
X170180000Y-67437000D02*
X170180000Y-73152000D01*
D14*
X166564000Y-107502000D02*
X169224000Y-107502000D01*
X166564000Y-97282000D02*
X166564000Y-107502000D01*
X169224000Y-97282000D02*
X169224000Y-107502000D01*
X166564000Y-97282000D02*
X169224000Y-97282000D01*
X166564000Y-96012000D02*
X166564000Y-94682000D01*
X166564000Y-94682000D02*
X167894000Y-94682000D01*
X166564000Y-91246000D02*
X169224000Y-91246000D01*
X166564000Y-88646000D02*
X166564000Y-91246000D01*
X169224000Y-88646000D02*
X169224000Y-91246000D01*
X166564000Y-88646000D02*
X169224000Y-88646000D01*
X166564000Y-87376000D02*
X166564000Y-86046000D01*
X166564000Y-86046000D02*
X167894000Y-86046000D01*
X130750000Y-129092000D02*
X133410000Y-129092000D01*
X130750000Y-126492000D02*
X130750000Y-129092000D01*
X133410000Y-126492000D02*
X133410000Y-129092000D01*
X130750000Y-126492000D02*
X133410000Y-126492000D01*
X130750000Y-125222000D02*
X130750000Y-123892000D01*
X130750000Y-123892000D02*
X132080000Y-123892000D01*
D16*
X162275000Y-108726000D02*
X163475000Y-108726000D01*
X163475000Y-110476000D02*
X162275000Y-110476000D01*
X164115000Y-88251000D02*
X162915000Y-88251000D01*
X162915000Y-86501000D02*
X164115000Y-86501000D01*
X147668500Y-119175500D02*
X146468500Y-119175500D01*
X146468500Y-117425500D02*
X147668500Y-117425500D01*
X146468500Y-127522000D02*
X147668500Y-127522000D01*
X147668500Y-129272000D02*
X146468500Y-129272000D01*
X146468500Y-121426000D02*
X147668500Y-121426000D01*
X147668500Y-123176000D02*
X146468500Y-123176000D01*
X157592026Y-93371500D02*
G75*
G03X157592026Y-93371500I-898026J0D01*
G01*
X158444000Y-94821500D02*
X158444000Y-91921500D01*
X154944000Y-94821500D02*
X158444000Y-94821500D01*
X158444000Y-91921500D02*
X154944000Y-91921500D01*
X154944000Y-91921500D02*
X154954000Y-94821500D01*
D14*
X135856900Y-127556000D02*
X136306900Y-127556000D01*
X135856900Y-129406000D02*
X135856900Y-127556000D01*
X143656900Y-131956000D02*
X143656900Y-131706000D01*
X135856900Y-131956000D02*
X135856900Y-131706000D01*
X143656900Y-129406000D02*
X143656900Y-127556000D01*
X143656900Y-127556000D02*
X143206900Y-127556000D01*
X138056900Y-127006000D02*
X138506900Y-127006000D01*
X138056900Y-127006000D02*
X138056900Y-127456000D01*
D17*
G36*
X148729744Y-103265918D02*
X148785201Y-103293568D01*
X148834148Y-103344480D01*
X148847629Y-103363338D01*
X148862314Y-103388015D01*
X148871842Y-103414816D01*
X148877293Y-103450587D01*
X148879747Y-103502169D01*
X148880286Y-103570267D01*
X148877852Y-103663588D01*
X148869394Y-103733657D01*
X148853174Y-103785931D01*
X148827454Y-103825869D01*
X148790497Y-103858929D01*
X148787782Y-103860886D01*
X148751360Y-103880908D01*
X148707502Y-103890815D01*
X148651724Y-103893257D01*
X148561048Y-103893257D01*
X148561010Y-103981283D01*
X148560166Y-104030308D01*
X148555024Y-104059065D01*
X148541587Y-104076311D01*
X148515858Y-104090808D01*
X148509679Y-104093769D01*
X148480764Y-104107648D01*
X148458376Y-104116414D01*
X148441729Y-104117171D01*
X148430036Y-104107023D01*
X148422510Y-104083073D01*
X148418366Y-104042426D01*
X148416815Y-103982186D01*
X148417071Y-103899455D01*
X148418349Y-103791339D01*
X148418748Y-103759000D01*
X148420185Y-103647524D01*
X148421472Y-103574603D01*
X148560971Y-103574603D01*
X148561755Y-103636499D01*
X148565240Y-103676997D01*
X148573124Y-103703708D01*
X148587105Y-103724244D01*
X148596597Y-103734260D01*
X148635404Y-103763567D01*
X148669763Y-103765952D01*
X148705216Y-103741750D01*
X148706114Y-103740857D01*
X148720539Y-103722153D01*
X148729313Y-103696732D01*
X148733739Y-103657584D01*
X148735118Y-103597697D01*
X148735143Y-103584430D01*
X148731812Y-103501901D01*
X148720969Y-103444691D01*
X148701340Y-103409766D01*
X148671650Y-103394094D01*
X148654491Y-103392514D01*
X148613766Y-103399926D01*
X148585832Y-103424330D01*
X148569017Y-103468980D01*
X148561650Y-103537130D01*
X148560971Y-103574603D01*
X148421472Y-103574603D01*
X148421708Y-103561245D01*
X148423677Y-103496333D01*
X148426450Y-103448958D01*
X148430388Y-103415290D01*
X148435849Y-103391498D01*
X148443192Y-103373753D01*
X148452777Y-103358224D01*
X148456887Y-103352381D01*
X148511405Y-103297185D01*
X148580336Y-103265890D01*
X148660072Y-103257165D01*
X148729744Y-103265918D01*
X148729744Y-103265918D01*
G37*
X148729744Y-103265918D02*
X148785201Y-103293568D01*
X148834148Y-103344480D01*
X148847629Y-103363338D01*
X148862314Y-103388015D01*
X148871842Y-103414816D01*
X148877293Y-103450587D01*
X148879747Y-103502169D01*
X148880286Y-103570267D01*
X148877852Y-103663588D01*
X148869394Y-103733657D01*
X148853174Y-103785931D01*
X148827454Y-103825869D01*
X148790497Y-103858929D01*
X148787782Y-103860886D01*
X148751360Y-103880908D01*
X148707502Y-103890815D01*
X148651724Y-103893257D01*
X148561048Y-103893257D01*
X148561010Y-103981283D01*
X148560166Y-104030308D01*
X148555024Y-104059065D01*
X148541587Y-104076311D01*
X148515858Y-104090808D01*
X148509679Y-104093769D01*
X148480764Y-104107648D01*
X148458376Y-104116414D01*
X148441729Y-104117171D01*
X148430036Y-104107023D01*
X148422510Y-104083073D01*
X148418366Y-104042426D01*
X148416815Y-103982186D01*
X148417071Y-103899455D01*
X148418349Y-103791339D01*
X148418748Y-103759000D01*
X148420185Y-103647524D01*
X148421472Y-103574603D01*
X148560971Y-103574603D01*
X148561755Y-103636499D01*
X148565240Y-103676997D01*
X148573124Y-103703708D01*
X148587105Y-103724244D01*
X148596597Y-103734260D01*
X148635404Y-103763567D01*
X148669763Y-103765952D01*
X148705216Y-103741750D01*
X148706114Y-103740857D01*
X148720539Y-103722153D01*
X148729313Y-103696732D01*
X148733739Y-103657584D01*
X148735118Y-103597697D01*
X148735143Y-103584430D01*
X148731812Y-103501901D01*
X148720969Y-103444691D01*
X148701340Y-103409766D01*
X148671650Y-103394094D01*
X148654491Y-103392514D01*
X148613766Y-103399926D01*
X148585832Y-103424330D01*
X148569017Y-103468980D01*
X148561650Y-103537130D01*
X148560971Y-103574603D01*
X148421472Y-103574603D01*
X148421708Y-103561245D01*
X148423677Y-103496333D01*
X148426450Y-103448958D01*
X148430388Y-103415290D01*
X148435849Y-103391498D01*
X148443192Y-103373753D01*
X148452777Y-103358224D01*
X148456887Y-103352381D01*
X148511405Y-103297185D01*
X148580336Y-103265890D01*
X148660072Y-103257165D01*
X148729744Y-103265918D01*
G36*
X149846093Y-103273780D02*
X149892672Y-103300723D01*
X149925057Y-103327466D01*
X149948742Y-103355484D01*
X149965059Y-103389748D01*
X149975339Y-103435227D01*
X149980914Y-103496892D01*
X149983116Y-103579711D01*
X149983371Y-103639246D01*
X149983371Y-103858391D01*
X149921686Y-103886044D01*
X149860000Y-103913697D01*
X149852743Y-103673670D01*
X149849744Y-103584028D01*
X149846598Y-103518962D01*
X149842701Y-103474026D01*
X149837447Y-103444770D01*
X149830231Y-103426748D01*
X149820450Y-103415511D01*
X149817312Y-103413079D01*
X149769761Y-103394083D01*
X149721697Y-103401600D01*
X149693086Y-103421543D01*
X149681447Y-103435675D01*
X149673391Y-103454220D01*
X149668271Y-103482334D01*
X149665441Y-103525173D01*
X149664256Y-103587895D01*
X149664057Y-103653261D01*
X149664018Y-103735268D01*
X149662614Y-103793316D01*
X149657914Y-103832465D01*
X149647987Y-103857780D01*
X149630903Y-103874323D01*
X149604732Y-103887156D01*
X149569775Y-103900491D01*
X149531596Y-103915007D01*
X149536141Y-103657389D01*
X149537971Y-103564519D01*
X149540112Y-103495889D01*
X149543181Y-103446711D01*
X149547794Y-103412198D01*
X149554568Y-103387562D01*
X149564119Y-103368016D01*
X149575634Y-103350770D01*
X149631190Y-103295680D01*
X149698980Y-103263822D01*
X149772713Y-103256191D01*
X149846093Y-103273780D01*
X149846093Y-103273780D01*
G37*
X149846093Y-103273780D02*
X149892672Y-103300723D01*
X149925057Y-103327466D01*
X149948742Y-103355484D01*
X149965059Y-103389748D01*
X149975339Y-103435227D01*
X149980914Y-103496892D01*
X149983116Y-103579711D01*
X149983371Y-103639246D01*
X149983371Y-103858391D01*
X149921686Y-103886044D01*
X149860000Y-103913697D01*
X149852743Y-103673670D01*
X149849744Y-103584028D01*
X149846598Y-103518962D01*
X149842701Y-103474026D01*
X149837447Y-103444770D01*
X149830231Y-103426748D01*
X149820450Y-103415511D01*
X149817312Y-103413079D01*
X149769761Y-103394083D01*
X149721697Y-103401600D01*
X149693086Y-103421543D01*
X149681447Y-103435675D01*
X149673391Y-103454220D01*
X149668271Y-103482334D01*
X149665441Y-103525173D01*
X149664256Y-103587895D01*
X149664057Y-103653261D01*
X149664018Y-103735268D01*
X149662614Y-103793316D01*
X149657914Y-103832465D01*
X149647987Y-103857780D01*
X149630903Y-103874323D01*
X149604732Y-103887156D01*
X149569775Y-103900491D01*
X149531596Y-103915007D01*
X149536141Y-103657389D01*
X149537971Y-103564519D01*
X149540112Y-103495889D01*
X149543181Y-103446711D01*
X149547794Y-103412198D01*
X149554568Y-103387562D01*
X149564119Y-103368016D01*
X149575634Y-103350770D01*
X149631190Y-103295680D01*
X149698980Y-103263822D01*
X149772713Y-103256191D01*
X149846093Y-103273780D01*
G36*
X148171115Y-103267962D02*
X148239145Y-103303733D01*
X148289351Y-103361301D01*
X148307185Y-103398312D01*
X148321063Y-103453882D01*
X148328167Y-103524096D01*
X148328840Y-103600727D01*
X148323427Y-103675552D01*
X148312270Y-103740342D01*
X148295714Y-103786873D01*
X148290626Y-103794887D01*
X148230355Y-103854707D01*
X148158769Y-103890535D01*
X148081092Y-103901020D01*
X148002548Y-103884810D01*
X147980689Y-103875092D01*
X147938122Y-103845143D01*
X147900763Y-103805433D01*
X147897232Y-103800397D01*
X147882881Y-103776124D01*
X147873394Y-103750178D01*
X147867790Y-103716022D01*
X147865086Y-103667119D01*
X147864299Y-103596935D01*
X147864286Y-103581200D01*
X147864322Y-103576192D01*
X148009429Y-103576192D01*
X148010273Y-103642430D01*
X148013596Y-103686386D01*
X148020583Y-103714779D01*
X148032416Y-103734325D01*
X148038457Y-103740857D01*
X148073186Y-103765680D01*
X148106903Y-103764548D01*
X148140995Y-103743016D01*
X148161329Y-103720029D01*
X148173371Y-103686478D01*
X148180134Y-103633569D01*
X148180598Y-103627399D01*
X148181752Y-103531513D01*
X148169688Y-103460299D01*
X148144570Y-103414194D01*
X148106560Y-103393635D01*
X148092992Y-103392514D01*
X148057364Y-103398152D01*
X148032994Y-103417686D01*
X148018093Y-103455042D01*
X148010875Y-103514150D01*
X148009429Y-103576192D01*
X147864322Y-103576192D01*
X147864826Y-103506413D01*
X147867096Y-103454159D01*
X147872068Y-103417949D01*
X147880713Y-103391299D01*
X147894005Y-103367722D01*
X147896943Y-103363338D01*
X147946313Y-103304249D01*
X148000109Y-103269947D01*
X148065602Y-103256331D01*
X148087842Y-103255665D01*
X148171115Y-103267962D01*
X148171115Y-103267962D01*
G37*
X148171115Y-103267962D02*
X148239145Y-103303733D01*
X148289351Y-103361301D01*
X148307185Y-103398312D01*
X148321063Y-103453882D01*
X148328167Y-103524096D01*
X148328840Y-103600727D01*
X148323427Y-103675552D01*
X148312270Y-103740342D01*
X148295714Y-103786873D01*
X148290626Y-103794887D01*
X148230355Y-103854707D01*
X148158769Y-103890535D01*
X148081092Y-103901020D01*
X148002548Y-103884810D01*
X147980689Y-103875092D01*
X147938122Y-103845143D01*
X147900763Y-103805433D01*
X147897232Y-103800397D01*
X147882881Y-103776124D01*
X147873394Y-103750178D01*
X147867790Y-103716022D01*
X147865086Y-103667119D01*
X147864299Y-103596935D01*
X147864286Y-103581200D01*
X147864322Y-103576192D01*
X148009429Y-103576192D01*
X148010273Y-103642430D01*
X148013596Y-103686386D01*
X148020583Y-103714779D01*
X148032416Y-103734325D01*
X148038457Y-103740857D01*
X148073186Y-103765680D01*
X148106903Y-103764548D01*
X148140995Y-103743016D01*
X148161329Y-103720029D01*
X148173371Y-103686478D01*
X148180134Y-103633569D01*
X148180598Y-103627399D01*
X148181752Y-103531513D01*
X148169688Y-103460299D01*
X148144570Y-103414194D01*
X148106560Y-103393635D01*
X148092992Y-103392514D01*
X148057364Y-103398152D01*
X148032994Y-103417686D01*
X148018093Y-103455042D01*
X148010875Y-103514150D01*
X148009429Y-103576192D01*
X147864322Y-103576192D01*
X147864826Y-103506413D01*
X147867096Y-103454159D01*
X147872068Y-103417949D01*
X147880713Y-103391299D01*
X147894005Y-103367722D01*
X147896943Y-103363338D01*
X147946313Y-103304249D01*
X148000109Y-103269947D01*
X148065602Y-103256331D01*
X148087842Y-103255665D01*
X148171115Y-103267962D01*
G36*
X149298303Y-103277239D02*
X149355527Y-103315735D01*
X149399749Y-103371335D01*
X149426167Y-103442086D01*
X149431510Y-103494162D01*
X149430903Y-103515893D01*
X149425822Y-103532531D01*
X149411855Y-103547437D01*
X149384589Y-103563973D01*
X149339612Y-103585498D01*
X149272511Y-103615374D01*
X149272171Y-103615524D01*
X149210407Y-103643813D01*
X149159759Y-103668933D01*
X149125404Y-103688179D01*
X149112518Y-103698848D01*
X149112514Y-103698934D01*
X149123872Y-103722166D01*
X149150431Y-103747774D01*
X149180923Y-103766221D01*
X149196370Y-103769886D01*
X149238515Y-103757212D01*
X149274808Y-103725471D01*
X149292517Y-103690572D01*
X149309552Y-103664845D01*
X149342922Y-103635546D01*
X149382149Y-103610235D01*
X149416756Y-103596471D01*
X149423993Y-103595714D01*
X149432139Y-103608160D01*
X149432630Y-103639972D01*
X149426643Y-103682866D01*
X149415357Y-103728558D01*
X149399950Y-103768761D01*
X149399171Y-103770322D01*
X149352804Y-103835062D01*
X149292711Y-103879097D01*
X149224465Y-103900711D01*
X149153638Y-103898185D01*
X149085804Y-103869804D01*
X149082788Y-103867808D01*
X149029427Y-103819448D01*
X148994340Y-103756352D01*
X148974922Y-103673387D01*
X148972316Y-103650078D01*
X148967701Y-103540055D01*
X148973233Y-103488748D01*
X149112514Y-103488748D01*
X149114324Y-103520753D01*
X149124222Y-103530093D01*
X149148898Y-103523105D01*
X149187795Y-103506587D01*
X149231275Y-103485881D01*
X149232356Y-103485333D01*
X149269209Y-103465949D01*
X149284000Y-103453013D01*
X149280353Y-103439451D01*
X149264995Y-103421632D01*
X149225923Y-103395845D01*
X149183846Y-103393950D01*
X149146103Y-103412717D01*
X149120034Y-103448915D01*
X149112514Y-103488748D01*
X148973233Y-103488748D01*
X148977194Y-103452027D01*
X149001550Y-103382212D01*
X149035456Y-103333302D01*
X149096653Y-103283878D01*
X149164063Y-103259359D01*
X149232880Y-103257797D01*
X149298303Y-103277239D01*
X149298303Y-103277239D01*
G37*
X149298303Y-103277239D02*
X149355527Y-103315735D01*
X149399749Y-103371335D01*
X149426167Y-103442086D01*
X149431510Y-103494162D01*
X149430903Y-103515893D01*
X149425822Y-103532531D01*
X149411855Y-103547437D01*
X149384589Y-103563973D01*
X149339612Y-103585498D01*
X149272511Y-103615374D01*
X149272171Y-103615524D01*
X149210407Y-103643813D01*
X149159759Y-103668933D01*
X149125404Y-103688179D01*
X149112518Y-103698848D01*
X149112514Y-103698934D01*
X149123872Y-103722166D01*
X149150431Y-103747774D01*
X149180923Y-103766221D01*
X149196370Y-103769886D01*
X149238515Y-103757212D01*
X149274808Y-103725471D01*
X149292517Y-103690572D01*
X149309552Y-103664845D01*
X149342922Y-103635546D01*
X149382149Y-103610235D01*
X149416756Y-103596471D01*
X149423993Y-103595714D01*
X149432139Y-103608160D01*
X149432630Y-103639972D01*
X149426643Y-103682866D01*
X149415357Y-103728558D01*
X149399950Y-103768761D01*
X149399171Y-103770322D01*
X149352804Y-103835062D01*
X149292711Y-103879097D01*
X149224465Y-103900711D01*
X149153638Y-103898185D01*
X149085804Y-103869804D01*
X149082788Y-103867808D01*
X149029427Y-103819448D01*
X148994340Y-103756352D01*
X148974922Y-103673387D01*
X148972316Y-103650078D01*
X148967701Y-103540055D01*
X148973233Y-103488748D01*
X149112514Y-103488748D01*
X149114324Y-103520753D01*
X149124222Y-103530093D01*
X149148898Y-103523105D01*
X149187795Y-103506587D01*
X149231275Y-103485881D01*
X149232356Y-103485333D01*
X149269209Y-103465949D01*
X149284000Y-103453013D01*
X149280353Y-103439451D01*
X149264995Y-103421632D01*
X149225923Y-103395845D01*
X149183846Y-103393950D01*
X149146103Y-103412717D01*
X149120034Y-103448915D01*
X149112514Y-103488748D01*
X148973233Y-103488748D01*
X148977194Y-103452027D01*
X149001550Y-103382212D01*
X149035456Y-103333302D01*
X149096653Y-103283878D01*
X149164063Y-103259359D01*
X149232880Y-103257797D01*
X149298303Y-103277239D01*
G36*
X150505886Y-103197289D02*
X150510139Y-103256613D01*
X150515025Y-103291572D01*
X150521795Y-103306820D01*
X150531702Y-103307015D01*
X150534914Y-103305195D01*
X150577644Y-103292015D01*
X150633227Y-103292785D01*
X150689737Y-103306333D01*
X150725082Y-103323861D01*
X150761321Y-103351861D01*
X150787813Y-103383549D01*
X150805999Y-103423813D01*
X150817322Y-103477543D01*
X150823222Y-103549626D01*
X150825143Y-103644951D01*
X150825177Y-103663237D01*
X150825200Y-103868646D01*
X150779491Y-103884580D01*
X150747027Y-103895420D01*
X150729215Y-103900468D01*
X150728691Y-103900514D01*
X150726937Y-103886828D01*
X150725444Y-103849076D01*
X150724326Y-103792224D01*
X150723697Y-103721234D01*
X150723600Y-103678073D01*
X150723398Y-103592973D01*
X150722358Y-103531981D01*
X150719831Y-103490177D01*
X150715164Y-103462642D01*
X150707707Y-103444456D01*
X150696811Y-103430698D01*
X150690007Y-103424073D01*
X150643272Y-103397375D01*
X150592272Y-103395375D01*
X150546001Y-103417955D01*
X150537444Y-103426107D01*
X150524893Y-103441436D01*
X150516188Y-103459618D01*
X150510631Y-103485909D01*
X150507526Y-103525562D01*
X150506176Y-103583832D01*
X150505886Y-103664173D01*
X150505886Y-103868646D01*
X150460177Y-103884580D01*
X150427713Y-103895420D01*
X150409901Y-103900468D01*
X150409377Y-103900514D01*
X150408037Y-103886623D01*
X150406828Y-103847439D01*
X150405801Y-103786700D01*
X150405002Y-103708141D01*
X150404481Y-103615498D01*
X150404286Y-103512509D01*
X150404286Y-103115342D01*
X150451457Y-103095444D01*
X150498629Y-103075547D01*
X150505886Y-103197289D01*
X150505886Y-103197289D01*
G37*
X150505886Y-103197289D02*
X150510139Y-103256613D01*
X150515025Y-103291572D01*
X150521795Y-103306820D01*
X150531702Y-103307015D01*
X150534914Y-103305195D01*
X150577644Y-103292015D01*
X150633227Y-103292785D01*
X150689737Y-103306333D01*
X150725082Y-103323861D01*
X150761321Y-103351861D01*
X150787813Y-103383549D01*
X150805999Y-103423813D01*
X150817322Y-103477543D01*
X150823222Y-103549626D01*
X150825143Y-103644951D01*
X150825177Y-103663237D01*
X150825200Y-103868646D01*
X150779491Y-103884580D01*
X150747027Y-103895420D01*
X150729215Y-103900468D01*
X150728691Y-103900514D01*
X150726937Y-103886828D01*
X150725444Y-103849076D01*
X150724326Y-103792224D01*
X150723697Y-103721234D01*
X150723600Y-103678073D01*
X150723398Y-103592973D01*
X150722358Y-103531981D01*
X150719831Y-103490177D01*
X150715164Y-103462642D01*
X150707707Y-103444456D01*
X150696811Y-103430698D01*
X150690007Y-103424073D01*
X150643272Y-103397375D01*
X150592272Y-103395375D01*
X150546001Y-103417955D01*
X150537444Y-103426107D01*
X150524893Y-103441436D01*
X150516188Y-103459618D01*
X150510631Y-103485909D01*
X150507526Y-103525562D01*
X150506176Y-103583832D01*
X150505886Y-103664173D01*
X150505886Y-103868646D01*
X150460177Y-103884580D01*
X150427713Y-103895420D01*
X150409901Y-103900468D01*
X150409377Y-103900514D01*
X150408037Y-103886623D01*
X150406828Y-103847439D01*
X150405801Y-103786700D01*
X150405002Y-103708141D01*
X150404481Y-103615498D01*
X150404286Y-103512509D01*
X150404286Y-103115342D01*
X150451457Y-103095444D01*
X150498629Y-103075547D01*
X150505886Y-103197289D01*
G36*
X151169744Y-103296968D02*
X151226616Y-103318087D01*
X151227267Y-103318493D01*
X151262440Y-103344380D01*
X151288407Y-103374633D01*
X151306670Y-103414058D01*
X151318732Y-103467462D01*
X151326096Y-103539651D01*
X151330264Y-103635432D01*
X151330629Y-103649078D01*
X151335876Y-103854842D01*
X151291716Y-103877678D01*
X151259763Y-103893110D01*
X151240470Y-103900423D01*
X151239578Y-103900514D01*
X151236239Y-103887022D01*
X151233587Y-103850626D01*
X151231956Y-103797452D01*
X151231600Y-103754393D01*
X151231592Y-103684641D01*
X151228403Y-103640837D01*
X151217288Y-103619944D01*
X151193501Y-103618925D01*
X151152296Y-103634741D01*
X151090086Y-103663815D01*
X151044341Y-103687963D01*
X151020813Y-103708913D01*
X151013896Y-103731747D01*
X151013886Y-103732877D01*
X151025299Y-103772212D01*
X151059092Y-103793462D01*
X151110809Y-103796539D01*
X151148061Y-103796006D01*
X151167703Y-103806735D01*
X151179952Y-103832505D01*
X151187002Y-103865337D01*
X151176842Y-103883966D01*
X151173017Y-103886632D01*
X151137001Y-103897340D01*
X151086566Y-103898856D01*
X151034626Y-103891759D01*
X150997822Y-103878788D01*
X150946938Y-103835585D01*
X150918014Y-103775446D01*
X150912286Y-103728462D01*
X150916657Y-103686082D01*
X150932475Y-103651488D01*
X150963797Y-103620763D01*
X151014678Y-103589990D01*
X151089176Y-103555252D01*
X151093714Y-103553288D01*
X151160821Y-103522287D01*
X151202232Y-103496862D01*
X151219981Y-103474014D01*
X151216107Y-103450745D01*
X151192643Y-103424056D01*
X151185627Y-103417914D01*
X151138630Y-103394100D01*
X151089933Y-103395103D01*
X151047522Y-103418451D01*
X151019384Y-103461675D01*
X151016769Y-103470160D01*
X150991308Y-103511308D01*
X150959001Y-103531128D01*
X150912286Y-103550770D01*
X150912286Y-103499950D01*
X150926496Y-103426082D01*
X150968675Y-103358327D01*
X150990624Y-103335661D01*
X151040517Y-103306569D01*
X151103967Y-103293400D01*
X151169744Y-103296968D01*
X151169744Y-103296968D01*
G37*
X151169744Y-103296968D02*
X151226616Y-103318087D01*
X151227267Y-103318493D01*
X151262440Y-103344380D01*
X151288407Y-103374633D01*
X151306670Y-103414058D01*
X151318732Y-103467462D01*
X151326096Y-103539651D01*
X151330264Y-103635432D01*
X151330629Y-103649078D01*
X151335876Y-103854842D01*
X151291716Y-103877678D01*
X151259763Y-103893110D01*
X151240470Y-103900423D01*
X151239578Y-103900514D01*
X151236239Y-103887022D01*
X151233587Y-103850626D01*
X151231956Y-103797452D01*
X151231600Y-103754393D01*
X151231592Y-103684641D01*
X151228403Y-103640837D01*
X151217288Y-103619944D01*
X151193501Y-103618925D01*
X151152296Y-103634741D01*
X151090086Y-103663815D01*
X151044341Y-103687963D01*
X151020813Y-103708913D01*
X151013896Y-103731747D01*
X151013886Y-103732877D01*
X151025299Y-103772212D01*
X151059092Y-103793462D01*
X151110809Y-103796539D01*
X151148061Y-103796006D01*
X151167703Y-103806735D01*
X151179952Y-103832505D01*
X151187002Y-103865337D01*
X151176842Y-103883966D01*
X151173017Y-103886632D01*
X151137001Y-103897340D01*
X151086566Y-103898856D01*
X151034626Y-103891759D01*
X150997822Y-103878788D01*
X150946938Y-103835585D01*
X150918014Y-103775446D01*
X150912286Y-103728462D01*
X150916657Y-103686082D01*
X150932475Y-103651488D01*
X150963797Y-103620763D01*
X151014678Y-103589990D01*
X151089176Y-103555252D01*
X151093714Y-103553288D01*
X151160821Y-103522287D01*
X151202232Y-103496862D01*
X151219981Y-103474014D01*
X151216107Y-103450745D01*
X151192643Y-103424056D01*
X151185627Y-103417914D01*
X151138630Y-103394100D01*
X151089933Y-103395103D01*
X151047522Y-103418451D01*
X151019384Y-103461675D01*
X151016769Y-103470160D01*
X150991308Y-103511308D01*
X150959001Y-103531128D01*
X150912286Y-103550770D01*
X150912286Y-103499950D01*
X150926496Y-103426082D01*
X150968675Y-103358327D01*
X150990624Y-103335661D01*
X151040517Y-103306569D01*
X151103967Y-103293400D01*
X151169744Y-103296968D01*
G36*
X151659926Y-103295755D02*
X151725858Y-103320084D01*
X151779273Y-103363117D01*
X151800164Y-103393409D01*
X151822939Y-103448994D01*
X151822466Y-103489186D01*
X151798562Y-103516217D01*
X151789717Y-103520813D01*
X151751530Y-103535144D01*
X151732028Y-103531472D01*
X151725422Y-103507407D01*
X151725086Y-103494114D01*
X151712992Y-103445210D01*
X151681471Y-103410999D01*
X151637659Y-103394476D01*
X151588695Y-103398634D01*
X151548894Y-103420227D01*
X151535450Y-103432544D01*
X151525921Y-103447487D01*
X151519485Y-103470075D01*
X151515317Y-103505328D01*
X151512597Y-103558266D01*
X151510502Y-103633907D01*
X151509960Y-103657857D01*
X151507981Y-103739790D01*
X151505731Y-103797455D01*
X151502357Y-103835608D01*
X151497006Y-103859004D01*
X151488824Y-103872398D01*
X151476959Y-103880545D01*
X151469362Y-103884144D01*
X151437102Y-103896452D01*
X151418111Y-103900514D01*
X151411836Y-103886948D01*
X151408006Y-103845934D01*
X151406600Y-103776999D01*
X151407598Y-103679669D01*
X151407908Y-103664657D01*
X151410101Y-103575859D01*
X151412693Y-103511019D01*
X151416382Y-103465067D01*
X151421864Y-103432935D01*
X151429835Y-103409553D01*
X151440993Y-103389852D01*
X151446830Y-103381410D01*
X151480296Y-103344057D01*
X151517727Y-103315003D01*
X151522309Y-103312467D01*
X151589426Y-103292443D01*
X151659926Y-103295755D01*
X151659926Y-103295755D01*
G37*
X151659926Y-103295755D02*
X151725858Y-103320084D01*
X151779273Y-103363117D01*
X151800164Y-103393409D01*
X151822939Y-103448994D01*
X151822466Y-103489186D01*
X151798562Y-103516217D01*
X151789717Y-103520813D01*
X151751530Y-103535144D01*
X151732028Y-103531472D01*
X151725422Y-103507407D01*
X151725086Y-103494114D01*
X151712992Y-103445210D01*
X151681471Y-103410999D01*
X151637659Y-103394476D01*
X151588695Y-103398634D01*
X151548894Y-103420227D01*
X151535450Y-103432544D01*
X151525921Y-103447487D01*
X151519485Y-103470075D01*
X151515317Y-103505328D01*
X151512597Y-103558266D01*
X151510502Y-103633907D01*
X151509960Y-103657857D01*
X151507981Y-103739790D01*
X151505731Y-103797455D01*
X151502357Y-103835608D01*
X151497006Y-103859004D01*
X151488824Y-103872398D01*
X151476959Y-103880545D01*
X151469362Y-103884144D01*
X151437102Y-103896452D01*
X151418111Y-103900514D01*
X151411836Y-103886948D01*
X151408006Y-103845934D01*
X151406600Y-103776999D01*
X151407598Y-103679669D01*
X151407908Y-103664657D01*
X151410101Y-103575859D01*
X151412693Y-103511019D01*
X151416382Y-103465067D01*
X151421864Y-103432935D01*
X151429835Y-103409553D01*
X151440993Y-103389852D01*
X151446830Y-103381410D01*
X151480296Y-103344057D01*
X151517727Y-103315003D01*
X151522309Y-103312467D01*
X151589426Y-103292443D01*
X151659926Y-103295755D01*
G36*
X152320117Y-103411358D02*
X152319933Y-103519837D01*
X152319219Y-103603287D01*
X152317675Y-103665704D01*
X152315001Y-103711085D01*
X152310894Y-103743429D01*
X152305055Y-103766733D01*
X152297182Y-103784995D01*
X152291221Y-103795418D01*
X152241855Y-103851945D01*
X152179264Y-103887377D01*
X152110013Y-103900090D01*
X152040668Y-103888463D01*
X151999375Y-103867568D01*
X151956025Y-103831422D01*
X151926481Y-103787276D01*
X151908655Y-103729462D01*
X151900463Y-103652313D01*
X151899302Y-103595714D01*
X151899458Y-103591647D01*
X152000857Y-103591647D01*
X152001476Y-103656550D01*
X152004314Y-103699514D01*
X152010840Y-103727622D01*
X152022523Y-103747953D01*
X152036483Y-103763288D01*
X152083365Y-103792890D01*
X152133701Y-103795419D01*
X152181276Y-103770705D01*
X152184979Y-103767356D01*
X152200783Y-103749935D01*
X152210693Y-103729209D01*
X152216058Y-103698362D01*
X152218228Y-103650577D01*
X152218571Y-103597748D01*
X152217827Y-103531381D01*
X152214748Y-103487106D01*
X152208061Y-103458009D01*
X152196496Y-103437173D01*
X152187013Y-103426107D01*
X152142960Y-103398198D01*
X152092224Y-103394843D01*
X152043796Y-103416159D01*
X152034450Y-103424073D01*
X152018540Y-103441647D01*
X152008610Y-103462587D01*
X152003278Y-103493782D01*
X152001163Y-103542122D01*
X152000857Y-103591647D01*
X151899458Y-103591647D01*
X151902810Y-103504568D01*
X151914726Y-103436086D01*
X151937135Y-103384600D01*
X151972124Y-103344443D01*
X151999375Y-103323861D01*
X152048907Y-103301625D01*
X152106316Y-103291304D01*
X152159682Y-103294067D01*
X152189543Y-103305212D01*
X152201261Y-103308383D01*
X152209037Y-103296557D01*
X152214465Y-103264866D01*
X152218571Y-103216593D01*
X152223067Y-103162829D01*
X152229313Y-103130482D01*
X152240676Y-103111985D01*
X152260528Y-103099770D01*
X152273000Y-103094362D01*
X152320171Y-103074601D01*
X152320117Y-103411358D01*
X152320117Y-103411358D01*
G37*
X152320117Y-103411358D02*
X152319933Y-103519837D01*
X152319219Y-103603287D01*
X152317675Y-103665704D01*
X152315001Y-103711085D01*
X152310894Y-103743429D01*
X152305055Y-103766733D01*
X152297182Y-103784995D01*
X152291221Y-103795418D01*
X152241855Y-103851945D01*
X152179264Y-103887377D01*
X152110013Y-103900090D01*
X152040668Y-103888463D01*
X151999375Y-103867568D01*
X151956025Y-103831422D01*
X151926481Y-103787276D01*
X151908655Y-103729462D01*
X151900463Y-103652313D01*
X151899302Y-103595714D01*
X151899458Y-103591647D01*
X152000857Y-103591647D01*
X152001476Y-103656550D01*
X152004314Y-103699514D01*
X152010840Y-103727622D01*
X152022523Y-103747953D01*
X152036483Y-103763288D01*
X152083365Y-103792890D01*
X152133701Y-103795419D01*
X152181276Y-103770705D01*
X152184979Y-103767356D01*
X152200783Y-103749935D01*
X152210693Y-103729209D01*
X152216058Y-103698362D01*
X152218228Y-103650577D01*
X152218571Y-103597748D01*
X152217827Y-103531381D01*
X152214748Y-103487106D01*
X152208061Y-103458009D01*
X152196496Y-103437173D01*
X152187013Y-103426107D01*
X152142960Y-103398198D01*
X152092224Y-103394843D01*
X152043796Y-103416159D01*
X152034450Y-103424073D01*
X152018540Y-103441647D01*
X152008610Y-103462587D01*
X152003278Y-103493782D01*
X152001163Y-103542122D01*
X152000857Y-103591647D01*
X151899458Y-103591647D01*
X151902810Y-103504568D01*
X151914726Y-103436086D01*
X151937135Y-103384600D01*
X151972124Y-103344443D01*
X151999375Y-103323861D01*
X152048907Y-103301625D01*
X152106316Y-103291304D01*
X152159682Y-103294067D01*
X152189543Y-103305212D01*
X152201261Y-103308383D01*
X152209037Y-103296557D01*
X152214465Y-103264866D01*
X152218571Y-103216593D01*
X152223067Y-103162829D01*
X152229313Y-103130482D01*
X152240676Y-103111985D01*
X152260528Y-103099770D01*
X152273000Y-103094362D01*
X152320171Y-103074601D01*
X152320117Y-103411358D01*
G36*
X152909833Y-103304663D02*
X152912048Y-103342850D01*
X152913784Y-103400886D01*
X152914899Y-103474180D01*
X152915257Y-103551055D01*
X152915257Y-103811196D01*
X152869326Y-103857127D01*
X152837675Y-103885429D01*
X152809890Y-103896893D01*
X152771915Y-103896168D01*
X152756840Y-103894321D01*
X152709726Y-103888948D01*
X152670756Y-103885869D01*
X152661257Y-103885585D01*
X152629233Y-103887445D01*
X152583432Y-103892114D01*
X152565674Y-103894321D01*
X152522057Y-103897735D01*
X152492745Y-103890320D01*
X152463680Y-103867427D01*
X152453188Y-103857127D01*
X152407257Y-103811196D01*
X152407257Y-103324602D01*
X152444226Y-103307758D01*
X152476059Y-103295282D01*
X152494683Y-103290914D01*
X152499458Y-103304718D01*
X152503921Y-103343286D01*
X152507775Y-103402356D01*
X152510722Y-103477663D01*
X152512143Y-103541286D01*
X152516114Y-103791657D01*
X152550759Y-103796556D01*
X152582268Y-103793131D01*
X152597708Y-103782041D01*
X152602023Y-103761308D01*
X152605708Y-103717145D01*
X152608469Y-103655146D01*
X152610012Y-103580909D01*
X152610235Y-103542706D01*
X152610457Y-103322783D01*
X152656166Y-103306849D01*
X152688518Y-103296015D01*
X152706115Y-103290962D01*
X152706623Y-103290914D01*
X152708388Y-103304648D01*
X152710329Y-103342730D01*
X152712282Y-103400482D01*
X152714084Y-103473227D01*
X152715343Y-103541286D01*
X152719314Y-103791657D01*
X152806400Y-103791657D01*
X152810396Y-103563240D01*
X152814392Y-103334822D01*
X152856847Y-103312868D01*
X152888192Y-103297793D01*
X152906744Y-103290951D01*
X152907279Y-103290914D01*
X152909833Y-103304663D01*
X152909833Y-103304663D01*
G37*
X152909833Y-103304663D02*
X152912048Y-103342850D01*
X152913784Y-103400886D01*
X152914899Y-103474180D01*
X152915257Y-103551055D01*
X152915257Y-103811196D01*
X152869326Y-103857127D01*
X152837675Y-103885429D01*
X152809890Y-103896893D01*
X152771915Y-103896168D01*
X152756840Y-103894321D01*
X152709726Y-103888948D01*
X152670756Y-103885869D01*
X152661257Y-103885585D01*
X152629233Y-103887445D01*
X152583432Y-103892114D01*
X152565674Y-103894321D01*
X152522057Y-103897735D01*
X152492745Y-103890320D01*
X152463680Y-103867427D01*
X152453188Y-103857127D01*
X152407257Y-103811196D01*
X152407257Y-103324602D01*
X152444226Y-103307758D01*
X152476059Y-103295282D01*
X152494683Y-103290914D01*
X152499458Y-103304718D01*
X152503921Y-103343286D01*
X152507775Y-103402356D01*
X152510722Y-103477663D01*
X152512143Y-103541286D01*
X152516114Y-103791657D01*
X152550759Y-103796556D01*
X152582268Y-103793131D01*
X152597708Y-103782041D01*
X152602023Y-103761308D01*
X152605708Y-103717145D01*
X152608469Y-103655146D01*
X152610012Y-103580909D01*
X152610235Y-103542706D01*
X152610457Y-103322783D01*
X152656166Y-103306849D01*
X152688518Y-103296015D01*
X152706115Y-103290962D01*
X152706623Y-103290914D01*
X152708388Y-103304648D01*
X152710329Y-103342730D01*
X152712282Y-103400482D01*
X152714084Y-103473227D01*
X152715343Y-103541286D01*
X152719314Y-103791657D01*
X152806400Y-103791657D01*
X152810396Y-103563240D01*
X152814392Y-103334822D01*
X152856847Y-103312868D01*
X152888192Y-103297793D01*
X152906744Y-103290951D01*
X152907279Y-103290914D01*
X152909833Y-103304663D01*
G36*
X153274876Y-103302335D02*
X153316667Y-103321344D01*
X153349469Y-103344378D01*
X153373503Y-103370133D01*
X153390097Y-103403358D01*
X153400577Y-103448800D01*
X153406271Y-103511207D01*
X153408507Y-103595327D01*
X153408743Y-103650721D01*
X153408743Y-103866826D01*
X153371774Y-103883670D01*
X153342656Y-103895981D01*
X153328231Y-103900514D01*
X153325472Y-103887025D01*
X153323282Y-103850653D01*
X153321942Y-103797542D01*
X153321657Y-103755372D01*
X153320434Y-103694447D01*
X153317136Y-103646115D01*
X153312321Y-103616518D01*
X153308496Y-103610229D01*
X153282783Y-103616652D01*
X153242418Y-103633125D01*
X153195679Y-103655458D01*
X153150845Y-103679457D01*
X153116193Y-103700930D01*
X153100002Y-103715685D01*
X153099938Y-103715845D01*
X153101330Y-103743152D01*
X153113818Y-103769219D01*
X153135743Y-103790392D01*
X153167743Y-103797474D01*
X153195092Y-103796649D01*
X153233826Y-103796042D01*
X153254158Y-103805116D01*
X153266369Y-103829092D01*
X153267909Y-103833613D01*
X153273203Y-103867806D01*
X153259047Y-103888568D01*
X153222148Y-103898462D01*
X153182289Y-103900292D01*
X153110562Y-103886727D01*
X153073432Y-103867355D01*
X153027576Y-103821845D01*
X153003256Y-103765983D01*
X153001073Y-103706957D01*
X153021629Y-103651953D01*
X153052549Y-103617486D01*
X153083420Y-103598189D01*
X153131942Y-103573759D01*
X153188485Y-103548985D01*
X153197910Y-103545199D01*
X153260019Y-103517791D01*
X153295822Y-103493634D01*
X153307337Y-103469619D01*
X153296580Y-103442635D01*
X153278114Y-103421543D01*
X153234469Y-103395572D01*
X153186446Y-103393624D01*
X153142406Y-103413637D01*
X153110709Y-103453551D01*
X153106549Y-103463848D01*
X153082327Y-103501724D01*
X153046965Y-103529842D01*
X153002343Y-103552917D01*
X153002343Y-103487485D01*
X153004969Y-103447506D01*
X153016230Y-103415997D01*
X153041199Y-103382378D01*
X153065169Y-103356484D01*
X153102441Y-103319817D01*
X153131401Y-103300121D01*
X153162505Y-103292220D01*
X153197713Y-103290914D01*
X153274876Y-103302335D01*
X153274876Y-103302335D01*
G37*
X153274876Y-103302335D02*
X153316667Y-103321344D01*
X153349469Y-103344378D01*
X153373503Y-103370133D01*
X153390097Y-103403358D01*
X153400577Y-103448800D01*
X153406271Y-103511207D01*
X153408507Y-103595327D01*
X153408743Y-103650721D01*
X153408743Y-103866826D01*
X153371774Y-103883670D01*
X153342656Y-103895981D01*
X153328231Y-103900514D01*
X153325472Y-103887025D01*
X153323282Y-103850653D01*
X153321942Y-103797542D01*
X153321657Y-103755372D01*
X153320434Y-103694447D01*
X153317136Y-103646115D01*
X153312321Y-103616518D01*
X153308496Y-103610229D01*
X153282783Y-103616652D01*
X153242418Y-103633125D01*
X153195679Y-103655458D01*
X153150845Y-103679457D01*
X153116193Y-103700930D01*
X153100002Y-103715685D01*
X153099938Y-103715845D01*
X153101330Y-103743152D01*
X153113818Y-103769219D01*
X153135743Y-103790392D01*
X153167743Y-103797474D01*
X153195092Y-103796649D01*
X153233826Y-103796042D01*
X153254158Y-103805116D01*
X153266369Y-103829092D01*
X153267909Y-103833613D01*
X153273203Y-103867806D01*
X153259047Y-103888568D01*
X153222148Y-103898462D01*
X153182289Y-103900292D01*
X153110562Y-103886727D01*
X153073432Y-103867355D01*
X153027576Y-103821845D01*
X153003256Y-103765983D01*
X153001073Y-103706957D01*
X153021629Y-103651953D01*
X153052549Y-103617486D01*
X153083420Y-103598189D01*
X153131942Y-103573759D01*
X153188485Y-103548985D01*
X153197910Y-103545199D01*
X153260019Y-103517791D01*
X153295822Y-103493634D01*
X153307337Y-103469619D01*
X153296580Y-103442635D01*
X153278114Y-103421543D01*
X153234469Y-103395572D01*
X153186446Y-103393624D01*
X153142406Y-103413637D01*
X153110709Y-103453551D01*
X153106549Y-103463848D01*
X153082327Y-103501724D01*
X153046965Y-103529842D01*
X153002343Y-103552917D01*
X153002343Y-103487485D01*
X153004969Y-103447506D01*
X153016230Y-103415997D01*
X153041199Y-103382378D01*
X153065169Y-103356484D01*
X153102441Y-103319817D01*
X153131401Y-103300121D01*
X153162505Y-103292220D01*
X153197713Y-103290914D01*
X153274876Y-103302335D01*
G36*
X153782600Y-103304752D02*
X153799948Y-103312334D01*
X153841356Y-103345128D01*
X153876765Y-103392547D01*
X153898664Y-103443151D01*
X153902229Y-103468098D01*
X153890279Y-103502927D01*
X153864067Y-103521357D01*
X153835964Y-103532516D01*
X153823095Y-103534572D01*
X153816829Y-103519649D01*
X153804456Y-103487175D01*
X153799028Y-103472502D01*
X153768590Y-103421744D01*
X153724520Y-103396427D01*
X153668010Y-103397206D01*
X153663825Y-103398203D01*
X153633655Y-103412507D01*
X153611476Y-103440393D01*
X153596327Y-103485287D01*
X153587250Y-103550615D01*
X153583286Y-103639804D01*
X153582914Y-103687261D01*
X153582730Y-103762071D01*
X153581522Y-103813069D01*
X153578309Y-103845471D01*
X153572109Y-103864495D01*
X153561940Y-103875356D01*
X153546819Y-103883272D01*
X153545946Y-103883670D01*
X153516828Y-103895981D01*
X153502403Y-103900514D01*
X153500186Y-103886809D01*
X153498289Y-103848925D01*
X153496847Y-103791715D01*
X153495998Y-103720027D01*
X153495829Y-103667565D01*
X153496692Y-103566047D01*
X153500070Y-103489032D01*
X153507142Y-103432023D01*
X153519088Y-103390526D01*
X153537090Y-103360043D01*
X153562327Y-103336080D01*
X153587247Y-103319355D01*
X153647171Y-103297097D01*
X153716911Y-103292076D01*
X153782600Y-103304752D01*
X153782600Y-103304752D01*
G37*
X153782600Y-103304752D02*
X153799948Y-103312334D01*
X153841356Y-103345128D01*
X153876765Y-103392547D01*
X153898664Y-103443151D01*
X153902229Y-103468098D01*
X153890279Y-103502927D01*
X153864067Y-103521357D01*
X153835964Y-103532516D01*
X153823095Y-103534572D01*
X153816829Y-103519649D01*
X153804456Y-103487175D01*
X153799028Y-103472502D01*
X153768590Y-103421744D01*
X153724520Y-103396427D01*
X153668010Y-103397206D01*
X153663825Y-103398203D01*
X153633655Y-103412507D01*
X153611476Y-103440393D01*
X153596327Y-103485287D01*
X153587250Y-103550615D01*
X153583286Y-103639804D01*
X153582914Y-103687261D01*
X153582730Y-103762071D01*
X153581522Y-103813069D01*
X153578309Y-103845471D01*
X153572109Y-103864495D01*
X153561940Y-103875356D01*
X153546819Y-103883272D01*
X153545946Y-103883670D01*
X153516828Y-103895981D01*
X153502403Y-103900514D01*
X153500186Y-103886809D01*
X153498289Y-103848925D01*
X153496847Y-103791715D01*
X153495998Y-103720027D01*
X153495829Y-103667565D01*
X153496692Y-103566047D01*
X153500070Y-103489032D01*
X153507142Y-103432023D01*
X153519088Y-103390526D01*
X153537090Y-103360043D01*
X153562327Y-103336080D01*
X153587247Y-103319355D01*
X153647171Y-103297097D01*
X153716911Y-103292076D01*
X153782600Y-103304752D01*
G36*
X154283595Y-103312966D02*
X154341021Y-103350497D01*
X154368719Y-103384096D01*
X154390662Y-103445064D01*
X154392405Y-103493308D01*
X154388457Y-103557816D01*
X154239686Y-103622934D01*
X154167349Y-103656202D01*
X154120084Y-103682964D01*
X154095507Y-103706144D01*
X154091237Y-103728667D01*
X154104889Y-103753455D01*
X154119943Y-103769886D01*
X154163746Y-103796235D01*
X154211389Y-103798081D01*
X154255145Y-103777546D01*
X154287289Y-103736752D01*
X154293038Y-103722347D01*
X154320576Y-103677356D01*
X154352258Y-103658182D01*
X154395714Y-103641779D01*
X154395714Y-103703966D01*
X154391872Y-103746283D01*
X154376823Y-103781969D01*
X154345280Y-103822943D01*
X154340592Y-103828267D01*
X154305506Y-103864720D01*
X154275347Y-103884283D01*
X154237615Y-103893283D01*
X154206335Y-103896230D01*
X154150385Y-103896965D01*
X154110555Y-103887660D01*
X154085708Y-103873846D01*
X154046656Y-103843467D01*
X154019625Y-103810613D01*
X154002517Y-103769294D01*
X153993238Y-103713521D01*
X153989693Y-103637305D01*
X153989410Y-103598622D01*
X153990372Y-103552247D01*
X154078007Y-103552247D01*
X154079023Y-103577126D01*
X154081556Y-103581200D01*
X154098274Y-103575665D01*
X154134249Y-103561017D01*
X154182331Y-103540190D01*
X154192386Y-103535714D01*
X154253152Y-103504814D01*
X154286632Y-103477657D01*
X154293990Y-103452220D01*
X154276391Y-103426481D01*
X154261856Y-103415109D01*
X154209410Y-103392364D01*
X154160322Y-103396122D01*
X154119227Y-103423884D01*
X154090758Y-103473152D01*
X154081631Y-103512257D01*
X154078007Y-103552247D01*
X153990372Y-103552247D01*
X153991285Y-103508249D01*
X153998196Y-103441384D01*
X154011884Y-103392695D01*
X154034096Y-103356849D01*
X154066574Y-103328513D01*
X154080733Y-103319355D01*
X154145053Y-103295507D01*
X154215473Y-103294006D01*
X154283595Y-103312966D01*
X154283595Y-103312966D01*
G37*
X154283595Y-103312966D02*
X154341021Y-103350497D01*
X154368719Y-103384096D01*
X154390662Y-103445064D01*
X154392405Y-103493308D01*
X154388457Y-103557816D01*
X154239686Y-103622934D01*
X154167349Y-103656202D01*
X154120084Y-103682964D01*
X154095507Y-103706144D01*
X154091237Y-103728667D01*
X154104889Y-103753455D01*
X154119943Y-103769886D01*
X154163746Y-103796235D01*
X154211389Y-103798081D01*
X154255145Y-103777546D01*
X154287289Y-103736752D01*
X154293038Y-103722347D01*
X154320576Y-103677356D01*
X154352258Y-103658182D01*
X154395714Y-103641779D01*
X154395714Y-103703966D01*
X154391872Y-103746283D01*
X154376823Y-103781969D01*
X154345280Y-103822943D01*
X154340592Y-103828267D01*
X154305506Y-103864720D01*
X154275347Y-103884283D01*
X154237615Y-103893283D01*
X154206335Y-103896230D01*
X154150385Y-103896965D01*
X154110555Y-103887660D01*
X154085708Y-103873846D01*
X154046656Y-103843467D01*
X154019625Y-103810613D01*
X154002517Y-103769294D01*
X153993238Y-103713521D01*
X153989693Y-103637305D01*
X153989410Y-103598622D01*
X153990372Y-103552247D01*
X154078007Y-103552247D01*
X154079023Y-103577126D01*
X154081556Y-103581200D01*
X154098274Y-103575665D01*
X154134249Y-103561017D01*
X154182331Y-103540190D01*
X154192386Y-103535714D01*
X154253152Y-103504814D01*
X154286632Y-103477657D01*
X154293990Y-103452220D01*
X154276391Y-103426481D01*
X154261856Y-103415109D01*
X154209410Y-103392364D01*
X154160322Y-103396122D01*
X154119227Y-103423884D01*
X154090758Y-103473152D01*
X154081631Y-103512257D01*
X154078007Y-103552247D01*
X153990372Y-103552247D01*
X153991285Y-103508249D01*
X153998196Y-103441384D01*
X154011884Y-103392695D01*
X154034096Y-103356849D01*
X154066574Y-103328513D01*
X154080733Y-103319355D01*
X154145053Y-103295507D01*
X154215473Y-103294006D01*
X154283595Y-103312966D01*
G36*
X151233910Y-98588348D02*
X151312454Y-98588778D01*
X151369298Y-98589942D01*
X151408105Y-98592207D01*
X151432538Y-98595940D01*
X151446262Y-98601506D01*
X151452940Y-98609273D01*
X151456236Y-98619605D01*
X151456556Y-98620943D01*
X151461562Y-98645079D01*
X151470829Y-98692701D01*
X151483392Y-98758741D01*
X151498287Y-98838128D01*
X151514551Y-98925796D01*
X151515119Y-98928875D01*
X151531410Y-99014789D01*
X151546652Y-99090696D01*
X151559861Y-99152045D01*
X151570054Y-99194282D01*
X151576248Y-99212855D01*
X151576543Y-99213184D01*
X151594788Y-99222253D01*
X151632405Y-99237367D01*
X151681271Y-99255262D01*
X151681543Y-99255358D01*
X151743093Y-99278493D01*
X151815657Y-99307965D01*
X151884057Y-99337597D01*
X151887294Y-99339062D01*
X151998702Y-99389626D01*
X152245399Y-99221160D01*
X152321077Y-99169803D01*
X152389631Y-99123889D01*
X152447088Y-99086030D01*
X152489476Y-99058837D01*
X152512825Y-99044921D01*
X152515042Y-99043889D01*
X152532010Y-99048484D01*
X152563701Y-99070655D01*
X152611352Y-99111447D01*
X152676198Y-99171905D01*
X152742397Y-99236227D01*
X152806214Y-99299612D01*
X152863329Y-99357451D01*
X152910305Y-99406175D01*
X152943703Y-99442210D01*
X152960085Y-99461984D01*
X152960694Y-99463002D01*
X152962505Y-99476572D01*
X152955683Y-99498733D01*
X152938540Y-99532478D01*
X152909393Y-99580800D01*
X152866555Y-99646692D01*
X152809448Y-99731517D01*
X152758766Y-99806177D01*
X152713461Y-99873140D01*
X152676150Y-99928516D01*
X152649452Y-99968420D01*
X152635985Y-99988962D01*
X152635137Y-99990356D01*
X152636781Y-100010038D01*
X152649245Y-100048293D01*
X152670048Y-100097889D01*
X152677462Y-100113728D01*
X152709814Y-100184290D01*
X152744328Y-100264353D01*
X152772365Y-100333629D01*
X152792568Y-100385045D01*
X152808615Y-100424119D01*
X152817888Y-100444541D01*
X152819041Y-100446114D01*
X152836096Y-100448721D01*
X152876298Y-100455863D01*
X152934302Y-100466523D01*
X153004763Y-100479685D01*
X153082335Y-100494333D01*
X153161672Y-100509449D01*
X153237431Y-100524018D01*
X153304264Y-100537022D01*
X153356828Y-100547445D01*
X153389776Y-100554270D01*
X153397857Y-100556199D01*
X153406205Y-100560962D01*
X153412506Y-100571718D01*
X153417045Y-100592098D01*
X153420104Y-100625734D01*
X153421967Y-100676255D01*
X153422918Y-100747292D01*
X153423240Y-100842476D01*
X153423257Y-100881492D01*
X153423257Y-101198799D01*
X153347057Y-101213839D01*
X153304663Y-101221995D01*
X153241400Y-101233899D01*
X153164962Y-101248116D01*
X153083043Y-101263210D01*
X153060400Y-101267355D01*
X152984806Y-101282053D01*
X152918953Y-101296505D01*
X152868366Y-101309375D01*
X152838574Y-101319322D01*
X152833612Y-101322287D01*
X152821426Y-101343283D01*
X152803953Y-101383967D01*
X152784577Y-101436322D01*
X152780734Y-101447600D01*
X152755339Y-101517523D01*
X152723817Y-101596418D01*
X152692969Y-101667266D01*
X152692817Y-101667595D01*
X152641447Y-101778733D01*
X152810399Y-102027253D01*
X152979352Y-102275772D01*
X152762429Y-102493058D01*
X152696819Y-102557726D01*
X152636979Y-102614733D01*
X152586267Y-102661033D01*
X152548046Y-102693584D01*
X152525675Y-102709343D01*
X152522466Y-102710343D01*
X152503626Y-102702469D01*
X152465180Y-102680578D01*
X152411330Y-102647267D01*
X152346276Y-102605131D01*
X152275940Y-102557943D01*
X152204555Y-102509810D01*
X152140908Y-102467928D01*
X152089041Y-102434871D01*
X152052995Y-102413218D01*
X152036867Y-102405543D01*
X152017189Y-102412037D01*
X151979875Y-102429150D01*
X151932621Y-102453326D01*
X151927612Y-102456013D01*
X151863977Y-102487927D01*
X151820341Y-102503579D01*
X151793202Y-102503745D01*
X151779057Y-102489204D01*
X151778975Y-102489000D01*
X151771905Y-102471779D01*
X151755042Y-102430899D01*
X151729695Y-102369525D01*
X151697171Y-102290819D01*
X151658778Y-102197947D01*
X151615822Y-102094072D01*
X151574222Y-101993502D01*
X151528504Y-101882516D01*
X151486526Y-101779703D01*
X151449548Y-101688215D01*
X151418827Y-101611201D01*
X151395622Y-101551815D01*
X151381190Y-101513209D01*
X151376743Y-101498800D01*
X151387896Y-101482272D01*
X151417069Y-101455930D01*
X151455971Y-101426887D01*
X151566757Y-101335039D01*
X151653351Y-101229759D01*
X151714716Y-101113266D01*
X151749815Y-100987776D01*
X151757608Y-100855507D01*
X151751943Y-100794457D01*
X151721078Y-100667795D01*
X151667920Y-100555941D01*
X151595767Y-100460001D01*
X151507917Y-100381076D01*
X151407665Y-100320270D01*
X151298310Y-100278687D01*
X151183147Y-100257428D01*
X151065475Y-100257599D01*
X150948590Y-100280301D01*
X150835789Y-100326638D01*
X150730369Y-100397713D01*
X150686368Y-100437911D01*
X150601979Y-100541129D01*
X150543222Y-100653925D01*
X150509704Y-100773010D01*
X150501035Y-100895095D01*
X150516823Y-101016893D01*
X150556678Y-101135116D01*
X150620207Y-101246475D01*
X150707021Y-101347684D01*
X150804029Y-101426887D01*
X150844437Y-101457162D01*
X150872982Y-101483219D01*
X150883257Y-101498825D01*
X150877877Y-101515843D01*
X150862575Y-101556500D01*
X150838612Y-101617642D01*
X150807244Y-101696119D01*
X150769732Y-101788780D01*
X150727333Y-101892472D01*
X150685663Y-101993526D01*
X150639690Y-102104607D01*
X150597107Y-102207541D01*
X150559221Y-102299165D01*
X150527340Y-102376316D01*
X150502771Y-102435831D01*
X150486820Y-102474544D01*
X150480910Y-102489000D01*
X150466948Y-102503685D01*
X150439940Y-102503642D01*
X150396413Y-102488099D01*
X150332890Y-102456284D01*
X150332388Y-102456013D01*
X150284560Y-102431323D01*
X150245897Y-102413338D01*
X150224095Y-102405614D01*
X150223133Y-102405543D01*
X150206721Y-102413378D01*
X150170487Y-102435165D01*
X150118474Y-102468328D01*
X150054725Y-102510291D01*
X149984060Y-102557943D01*
X149912116Y-102606191D01*
X149847274Y-102648151D01*
X149793735Y-102681227D01*
X149755697Y-102702821D01*
X149737533Y-102710343D01*
X149720808Y-102700457D01*
X149687180Y-102672826D01*
X149640010Y-102630495D01*
X149582658Y-102576505D01*
X149518484Y-102513899D01*
X149497497Y-102492983D01*
X149280499Y-102275623D01*
X149445668Y-102033220D01*
X149495864Y-101958781D01*
X149539919Y-101891972D01*
X149575362Y-101836665D01*
X149599719Y-101796729D01*
X149610522Y-101776036D01*
X149610838Y-101774563D01*
X149605143Y-101755058D01*
X149589826Y-101715822D01*
X149567537Y-101663430D01*
X149551893Y-101628355D01*
X149522641Y-101561201D01*
X149495094Y-101493358D01*
X149473737Y-101436034D01*
X149467935Y-101418572D01*
X149451452Y-101371938D01*
X149435340Y-101335905D01*
X149426490Y-101322287D01*
X149406960Y-101313952D01*
X149364334Y-101302137D01*
X149304145Y-101288181D01*
X149231922Y-101273422D01*
X149199600Y-101267355D01*
X149117522Y-101252273D01*
X149038795Y-101237669D01*
X148971109Y-101224980D01*
X148922160Y-101215642D01*
X148912943Y-101213839D01*
X148836743Y-101198799D01*
X148836743Y-100881492D01*
X148836914Y-100777154D01*
X148837616Y-100698213D01*
X148839134Y-100641038D01*
X148841749Y-100601999D01*
X148845746Y-100577465D01*
X148851409Y-100563805D01*
X148859020Y-100557389D01*
X148862143Y-100556199D01*
X148880978Y-100551980D01*
X148922588Y-100543562D01*
X148981630Y-100531961D01*
X149052757Y-100518195D01*
X149130625Y-100503280D01*
X149209887Y-100488232D01*
X149285198Y-100474069D01*
X149351213Y-100461806D01*
X149402587Y-100452461D01*
X149433975Y-100447050D01*
X149440959Y-100446114D01*
X149447285Y-100433596D01*
X149461290Y-100400246D01*
X149480355Y-100352377D01*
X149487634Y-100333629D01*
X149516996Y-100261195D01*
X149551571Y-100181170D01*
X149582537Y-100113728D01*
X149605323Y-100062159D01*
X149620482Y-100019785D01*
X149625542Y-99993834D01*
X149624736Y-99990356D01*
X149614041Y-99973936D01*
X149589620Y-99937417D01*
X149554095Y-99884687D01*
X149510087Y-99819635D01*
X149460217Y-99746151D01*
X149450356Y-99731645D01*
X149392492Y-99645704D01*
X149349956Y-99580261D01*
X149321054Y-99532304D01*
X149304090Y-99498820D01*
X149297367Y-99476795D01*
X149299190Y-99463217D01*
X149299236Y-99463131D01*
X149313586Y-99445297D01*
X149345323Y-99410817D01*
X149391010Y-99363268D01*
X149447204Y-99306222D01*
X149510468Y-99243255D01*
X149517602Y-99236227D01*
X149597330Y-99159020D01*
X149658857Y-99102330D01*
X149703421Y-99065110D01*
X149732257Y-99046315D01*
X149744958Y-99043889D01*
X149763494Y-99054471D01*
X149801961Y-99078916D01*
X149856386Y-99114612D01*
X149922798Y-99158947D01*
X149997225Y-99209311D01*
X150014601Y-99221160D01*
X150261297Y-99389626D01*
X150372706Y-99339062D01*
X150440457Y-99309595D01*
X150513183Y-99279959D01*
X150575703Y-99256330D01*
X150578457Y-99255358D01*
X150627360Y-99237457D01*
X150665057Y-99222320D01*
X150683425Y-99213210D01*
X150683456Y-99213184D01*
X150689285Y-99196717D01*
X150699192Y-99156219D01*
X150712195Y-99096242D01*
X150727309Y-99021340D01*
X150743552Y-98936064D01*
X150744881Y-98928875D01*
X150761175Y-98841014D01*
X150776133Y-98761260D01*
X150788791Y-98694681D01*
X150798186Y-98646347D01*
X150803354Y-98621325D01*
X150803444Y-98620943D01*
X150806589Y-98610299D01*
X150812704Y-98602262D01*
X150825453Y-98596467D01*
X150848500Y-98592547D01*
X150885509Y-98590135D01*
X150940144Y-98588865D01*
X151016067Y-98588371D01*
X151116944Y-98588286D01*
X151130000Y-98588286D01*
X151233910Y-98588348D01*
X151233910Y-98588348D01*
G37*
X151233910Y-98588348D02*
X151312454Y-98588778D01*
X151369298Y-98589942D01*
X151408105Y-98592207D01*
X151432538Y-98595940D01*
X151446262Y-98601506D01*
X151452940Y-98609273D01*
X151456236Y-98619605D01*
X151456556Y-98620943D01*
X151461562Y-98645079D01*
X151470829Y-98692701D01*
X151483392Y-98758741D01*
X151498287Y-98838128D01*
X151514551Y-98925796D01*
X151515119Y-98928875D01*
X151531410Y-99014789D01*
X151546652Y-99090696D01*
X151559861Y-99152045D01*
X151570054Y-99194282D01*
X151576248Y-99212855D01*
X151576543Y-99213184D01*
X151594788Y-99222253D01*
X151632405Y-99237367D01*
X151681271Y-99255262D01*
X151681543Y-99255358D01*
X151743093Y-99278493D01*
X151815657Y-99307965D01*
X151884057Y-99337597D01*
X151887294Y-99339062D01*
X151998702Y-99389626D01*
X152245399Y-99221160D01*
X152321077Y-99169803D01*
X152389631Y-99123889D01*
X152447088Y-99086030D01*
X152489476Y-99058837D01*
X152512825Y-99044921D01*
X152515042Y-99043889D01*
X152532010Y-99048484D01*
X152563701Y-99070655D01*
X152611352Y-99111447D01*
X152676198Y-99171905D01*
X152742397Y-99236227D01*
X152806214Y-99299612D01*
X152863329Y-99357451D01*
X152910305Y-99406175D01*
X152943703Y-99442210D01*
X152960085Y-99461984D01*
X152960694Y-99463002D01*
X152962505Y-99476572D01*
X152955683Y-99498733D01*
X152938540Y-99532478D01*
X152909393Y-99580800D01*
X152866555Y-99646692D01*
X152809448Y-99731517D01*
X152758766Y-99806177D01*
X152713461Y-99873140D01*
X152676150Y-99928516D01*
X152649452Y-99968420D01*
X152635985Y-99988962D01*
X152635137Y-99990356D01*
X152636781Y-100010038D01*
X152649245Y-100048293D01*
X152670048Y-100097889D01*
X152677462Y-100113728D01*
X152709814Y-100184290D01*
X152744328Y-100264353D01*
X152772365Y-100333629D01*
X152792568Y-100385045D01*
X152808615Y-100424119D01*
X152817888Y-100444541D01*
X152819041Y-100446114D01*
X152836096Y-100448721D01*
X152876298Y-100455863D01*
X152934302Y-100466523D01*
X153004763Y-100479685D01*
X153082335Y-100494333D01*
X153161672Y-100509449D01*
X153237431Y-100524018D01*
X153304264Y-100537022D01*
X153356828Y-100547445D01*
X153389776Y-100554270D01*
X153397857Y-100556199D01*
X153406205Y-100560962D01*
X153412506Y-100571718D01*
X153417045Y-100592098D01*
X153420104Y-100625734D01*
X153421967Y-100676255D01*
X153422918Y-100747292D01*
X153423240Y-100842476D01*
X153423257Y-100881492D01*
X153423257Y-101198799D01*
X153347057Y-101213839D01*
X153304663Y-101221995D01*
X153241400Y-101233899D01*
X153164962Y-101248116D01*
X153083043Y-101263210D01*
X153060400Y-101267355D01*
X152984806Y-101282053D01*
X152918953Y-101296505D01*
X152868366Y-101309375D01*
X152838574Y-101319322D01*
X152833612Y-101322287D01*
X152821426Y-101343283D01*
X152803953Y-101383967D01*
X152784577Y-101436322D01*
X152780734Y-101447600D01*
X152755339Y-101517523D01*
X152723817Y-101596418D01*
X152692969Y-101667266D01*
X152692817Y-101667595D01*
X152641447Y-101778733D01*
X152810399Y-102027253D01*
X152979352Y-102275772D01*
X152762429Y-102493058D01*
X152696819Y-102557726D01*
X152636979Y-102614733D01*
X152586267Y-102661033D01*
X152548046Y-102693584D01*
X152525675Y-102709343D01*
X152522466Y-102710343D01*
X152503626Y-102702469D01*
X152465180Y-102680578D01*
X152411330Y-102647267D01*
X152346276Y-102605131D01*
X152275940Y-102557943D01*
X152204555Y-102509810D01*
X152140908Y-102467928D01*
X152089041Y-102434871D01*
X152052995Y-102413218D01*
X152036867Y-102405543D01*
X152017189Y-102412037D01*
X151979875Y-102429150D01*
X151932621Y-102453326D01*
X151927612Y-102456013D01*
X151863977Y-102487927D01*
X151820341Y-102503579D01*
X151793202Y-102503745D01*
X151779057Y-102489204D01*
X151778975Y-102489000D01*
X151771905Y-102471779D01*
X151755042Y-102430899D01*
X151729695Y-102369525D01*
X151697171Y-102290819D01*
X151658778Y-102197947D01*
X151615822Y-102094072D01*
X151574222Y-101993502D01*
X151528504Y-101882516D01*
X151486526Y-101779703D01*
X151449548Y-101688215D01*
X151418827Y-101611201D01*
X151395622Y-101551815D01*
X151381190Y-101513209D01*
X151376743Y-101498800D01*
X151387896Y-101482272D01*
X151417069Y-101455930D01*
X151455971Y-101426887D01*
X151566757Y-101335039D01*
X151653351Y-101229759D01*
X151714716Y-101113266D01*
X151749815Y-100987776D01*
X151757608Y-100855507D01*
X151751943Y-100794457D01*
X151721078Y-100667795D01*
X151667920Y-100555941D01*
X151595767Y-100460001D01*
X151507917Y-100381076D01*
X151407665Y-100320270D01*
X151298310Y-100278687D01*
X151183147Y-100257428D01*
X151065475Y-100257599D01*
X150948590Y-100280301D01*
X150835789Y-100326638D01*
X150730369Y-100397713D01*
X150686368Y-100437911D01*
X150601979Y-100541129D01*
X150543222Y-100653925D01*
X150509704Y-100773010D01*
X150501035Y-100895095D01*
X150516823Y-101016893D01*
X150556678Y-101135116D01*
X150620207Y-101246475D01*
X150707021Y-101347684D01*
X150804029Y-101426887D01*
X150844437Y-101457162D01*
X150872982Y-101483219D01*
X150883257Y-101498825D01*
X150877877Y-101515843D01*
X150862575Y-101556500D01*
X150838612Y-101617642D01*
X150807244Y-101696119D01*
X150769732Y-101788780D01*
X150727333Y-101892472D01*
X150685663Y-101993526D01*
X150639690Y-102104607D01*
X150597107Y-102207541D01*
X150559221Y-102299165D01*
X150527340Y-102376316D01*
X150502771Y-102435831D01*
X150486820Y-102474544D01*
X150480910Y-102489000D01*
X150466948Y-102503685D01*
X150439940Y-102503642D01*
X150396413Y-102488099D01*
X150332890Y-102456284D01*
X150332388Y-102456013D01*
X150284560Y-102431323D01*
X150245897Y-102413338D01*
X150224095Y-102405614D01*
X150223133Y-102405543D01*
X150206721Y-102413378D01*
X150170487Y-102435165D01*
X150118474Y-102468328D01*
X150054725Y-102510291D01*
X149984060Y-102557943D01*
X149912116Y-102606191D01*
X149847274Y-102648151D01*
X149793735Y-102681227D01*
X149755697Y-102702821D01*
X149737533Y-102710343D01*
X149720808Y-102700457D01*
X149687180Y-102672826D01*
X149640010Y-102630495D01*
X149582658Y-102576505D01*
X149518484Y-102513899D01*
X149497497Y-102492983D01*
X149280499Y-102275623D01*
X149445668Y-102033220D01*
X149495864Y-101958781D01*
X149539919Y-101891972D01*
X149575362Y-101836665D01*
X149599719Y-101796729D01*
X149610522Y-101776036D01*
X149610838Y-101774563D01*
X149605143Y-101755058D01*
X149589826Y-101715822D01*
X149567537Y-101663430D01*
X149551893Y-101628355D01*
X149522641Y-101561201D01*
X149495094Y-101493358D01*
X149473737Y-101436034D01*
X149467935Y-101418572D01*
X149451452Y-101371938D01*
X149435340Y-101335905D01*
X149426490Y-101322287D01*
X149406960Y-101313952D01*
X149364334Y-101302137D01*
X149304145Y-101288181D01*
X149231922Y-101273422D01*
X149199600Y-101267355D01*
X149117522Y-101252273D01*
X149038795Y-101237669D01*
X148971109Y-101224980D01*
X148922160Y-101215642D01*
X148912943Y-101213839D01*
X148836743Y-101198799D01*
X148836743Y-100881492D01*
X148836914Y-100777154D01*
X148837616Y-100698213D01*
X148839134Y-100641038D01*
X148841749Y-100601999D01*
X148845746Y-100577465D01*
X148851409Y-100563805D01*
X148859020Y-100557389D01*
X148862143Y-100556199D01*
X148880978Y-100551980D01*
X148922588Y-100543562D01*
X148981630Y-100531961D01*
X149052757Y-100518195D01*
X149130625Y-100503280D01*
X149209887Y-100488232D01*
X149285198Y-100474069D01*
X149351213Y-100461806D01*
X149402587Y-100452461D01*
X149433975Y-100447050D01*
X149440959Y-100446114D01*
X149447285Y-100433596D01*
X149461290Y-100400246D01*
X149480355Y-100352377D01*
X149487634Y-100333629D01*
X149516996Y-100261195D01*
X149551571Y-100181170D01*
X149582537Y-100113728D01*
X149605323Y-100062159D01*
X149620482Y-100019785D01*
X149625542Y-99993834D01*
X149624736Y-99990356D01*
X149614041Y-99973936D01*
X149589620Y-99937417D01*
X149554095Y-99884687D01*
X149510087Y-99819635D01*
X149460217Y-99746151D01*
X149450356Y-99731645D01*
X149392492Y-99645704D01*
X149349956Y-99580261D01*
X149321054Y-99532304D01*
X149304090Y-99498820D01*
X149297367Y-99476795D01*
X149299190Y-99463217D01*
X149299236Y-99463131D01*
X149313586Y-99445297D01*
X149345323Y-99410817D01*
X149391010Y-99363268D01*
X149447204Y-99306222D01*
X149510468Y-99243255D01*
X149517602Y-99236227D01*
X149597330Y-99159020D01*
X149658857Y-99102330D01*
X149703421Y-99065110D01*
X149732257Y-99046315D01*
X149744958Y-99043889D01*
X149763494Y-99054471D01*
X149801961Y-99078916D01*
X149856386Y-99114612D01*
X149922798Y-99158947D01*
X149997225Y-99209311D01*
X150014601Y-99221160D01*
X150261297Y-99389626D01*
X150372706Y-99339062D01*
X150440457Y-99309595D01*
X150513183Y-99279959D01*
X150575703Y-99256330D01*
X150578457Y-99255358D01*
X150627360Y-99237457D01*
X150665057Y-99222320D01*
X150683425Y-99213210D01*
X150683456Y-99213184D01*
X150689285Y-99196717D01*
X150699192Y-99156219D01*
X150712195Y-99096242D01*
X150727309Y-99021340D01*
X150743552Y-98936064D01*
X150744881Y-98928875D01*
X150761175Y-98841014D01*
X150776133Y-98761260D01*
X150788791Y-98694681D01*
X150798186Y-98646347D01*
X150803354Y-98621325D01*
X150803444Y-98620943D01*
X150806589Y-98610299D01*
X150812704Y-98602262D01*
X150825453Y-98596467D01*
X150848500Y-98592547D01*
X150885509Y-98590135D01*
X150940144Y-98588865D01*
X151016067Y-98588371D01*
X151116944Y-98588286D01*
X151130000Y-98588286D01*
X151233910Y-98588348D01*
D16*
X131191095Y-112228381D02*
X131191095Y-113037905D01*
X131238714Y-113133143D01*
X131286333Y-113180762D01*
X131381571Y-113228381D01*
X131572048Y-113228381D01*
X131667286Y-113180762D01*
X131714905Y-113133143D01*
X131762524Y-113037905D01*
X131762524Y-112228381D01*
X132143476Y-112228381D02*
X132762524Y-112228381D01*
X132429190Y-112609333D01*
X132572048Y-112609333D01*
X132667286Y-112656952D01*
X132714905Y-112704571D01*
X132762524Y-112799810D01*
X132762524Y-113037905D01*
X132714905Y-113133143D01*
X132667286Y-113180762D01*
X132572048Y-113228381D01*
X132286333Y-113228381D01*
X132191095Y-113180762D01*
X132143476Y-113133143D01*
X156932381Y-124713905D02*
X157741905Y-124713905D01*
X157837143Y-124666286D01*
X157884762Y-124618667D01*
X157932381Y-124523429D01*
X157932381Y-124332952D01*
X157884762Y-124237714D01*
X157837143Y-124190095D01*
X157741905Y-124142476D01*
X156932381Y-124142476D01*
X157027619Y-123713905D02*
X156980000Y-123666286D01*
X156932381Y-123571048D01*
X156932381Y-123332952D01*
X156980000Y-123237714D01*
X157027619Y-123190095D01*
X157122857Y-123142476D01*
X157218095Y-123142476D01*
X157360952Y-123190095D01*
X157932381Y-123761524D01*
X157932381Y-123142476D01*
X143583381Y-94741905D02*
X144392905Y-94741905D01*
X144488143Y-94694286D01*
X144535762Y-94646667D01*
X144583381Y-94551429D01*
X144583381Y-94360952D01*
X144535762Y-94265714D01*
X144488143Y-94218095D01*
X144392905Y-94170476D01*
X143583381Y-94170476D01*
X144583381Y-93170476D02*
X144583381Y-93741905D01*
X144583381Y-93456191D02*
X143583381Y-93456191D01*
X143726238Y-93551429D01*
X143821476Y-93646667D01*
X143869095Y-93741905D01*
X149693334Y-90273143D02*
X149645715Y-90320762D01*
X149502858Y-90368381D01*
X149407620Y-90368381D01*
X149264762Y-90320762D01*
X149169524Y-90225524D01*
X149121905Y-90130286D01*
X149074286Y-89939810D01*
X149074286Y-89796952D01*
X149121905Y-89606476D01*
X149169524Y-89511238D01*
X149264762Y-89416000D01*
X149407620Y-89368381D01*
X149502858Y-89368381D01*
X149645715Y-89416000D01*
X149693334Y-89463619D01*
X150645715Y-90368381D02*
X150074286Y-90368381D01*
X150360000Y-90368381D02*
X150360000Y-89368381D01*
X150264762Y-89511238D01*
X150169524Y-89606476D01*
X150074286Y-89654095D01*
X144390834Y-87733143D02*
X144343215Y-87780762D01*
X144200358Y-87828381D01*
X144105120Y-87828381D01*
X143962262Y-87780762D01*
X143867024Y-87685524D01*
X143819405Y-87590286D01*
X143771786Y-87399810D01*
X143771786Y-87256952D01*
X143819405Y-87066476D01*
X143867024Y-86971238D01*
X143962262Y-86876000D01*
X144105120Y-86828381D01*
X144200358Y-86828381D01*
X144343215Y-86876000D01*
X144390834Y-86923619D01*
X144771786Y-86923619D02*
X144819405Y-86876000D01*
X144914643Y-86828381D01*
X145152739Y-86828381D01*
X145247977Y-86876000D01*
X145295596Y-86923619D01*
X145343215Y-87018857D01*
X145343215Y-87114095D01*
X145295596Y-87256952D01*
X144724167Y-87828381D01*
X145343215Y-87828381D01*
X143978334Y-103862143D02*
X143930715Y-103909762D01*
X143787858Y-103957381D01*
X143692620Y-103957381D01*
X143549762Y-103909762D01*
X143454524Y-103814524D01*
X143406905Y-103719286D01*
X143359286Y-103528810D01*
X143359286Y-103385952D01*
X143406905Y-103195476D01*
X143454524Y-103100238D01*
X143549762Y-103005000D01*
X143692620Y-102957381D01*
X143787858Y-102957381D01*
X143930715Y-103005000D01*
X143978334Y-103052619D01*
X144311667Y-102957381D02*
X144930715Y-102957381D01*
X144597381Y-103338333D01*
X144740239Y-103338333D01*
X144835477Y-103385952D01*
X144883096Y-103433571D01*
X144930715Y-103528810D01*
X144930715Y-103766905D01*
X144883096Y-103862143D01*
X144835477Y-103909762D01*
X144740239Y-103957381D01*
X144454524Y-103957381D01*
X144359286Y-103909762D01*
X144311667Y-103862143D01*
X147327834Y-100687143D02*
X147280215Y-100734762D01*
X147137358Y-100782381D01*
X147042120Y-100782381D01*
X146899262Y-100734762D01*
X146804024Y-100639524D01*
X146756405Y-100544286D01*
X146708786Y-100353810D01*
X146708786Y-100210952D01*
X146756405Y-100020476D01*
X146804024Y-99925238D01*
X146899262Y-99830000D01*
X147042120Y-99782381D01*
X147137358Y-99782381D01*
X147280215Y-99830000D01*
X147327834Y-99877619D01*
X148184977Y-100115714D02*
X148184977Y-100782381D01*
X147946881Y-99734762D02*
X147708786Y-100449048D01*
X148327834Y-100449048D01*
X136247334Y-100179143D02*
X136199715Y-100226762D01*
X136056858Y-100274381D01*
X135961620Y-100274381D01*
X135818762Y-100226762D01*
X135723524Y-100131524D01*
X135675905Y-100036286D01*
X135628286Y-99845810D01*
X135628286Y-99702952D01*
X135675905Y-99512476D01*
X135723524Y-99417238D01*
X135818762Y-99322000D01*
X135961620Y-99274381D01*
X136056858Y-99274381D01*
X136199715Y-99322000D01*
X136247334Y-99369619D01*
X137152096Y-99274381D02*
X136675905Y-99274381D01*
X136628286Y-99750571D01*
X136675905Y-99702952D01*
X136771143Y-99655333D01*
X137009239Y-99655333D01*
X137104477Y-99702952D01*
X137152096Y-99750571D01*
X137199715Y-99845810D01*
X137199715Y-100083905D01*
X137152096Y-100179143D01*
X137104477Y-100226762D01*
X137009239Y-100274381D01*
X136771143Y-100274381D01*
X136675905Y-100226762D01*
X136628286Y-100179143D01*
X132421334Y-118721143D02*
X132373715Y-118768762D01*
X132230858Y-118816381D01*
X132135620Y-118816381D01*
X131992762Y-118768762D01*
X131897524Y-118673524D01*
X131849905Y-118578286D01*
X131802286Y-118387810D01*
X131802286Y-118244952D01*
X131849905Y-118054476D01*
X131897524Y-117959238D01*
X131992762Y-117864000D01*
X132135620Y-117816381D01*
X132230858Y-117816381D01*
X132373715Y-117864000D01*
X132421334Y-117911619D01*
X133278477Y-117816381D02*
X133088000Y-117816381D01*
X132992762Y-117864000D01*
X132945143Y-117911619D01*
X132849905Y-118054476D01*
X132802286Y-118244952D01*
X132802286Y-118625905D01*
X132849905Y-118721143D01*
X132897524Y-118768762D01*
X132992762Y-118816381D01*
X133183239Y-118816381D01*
X133278477Y-118768762D01*
X133326096Y-118721143D01*
X133373715Y-118625905D01*
X133373715Y-118387810D01*
X133326096Y-118292571D01*
X133278477Y-118244952D01*
X133183239Y-118197333D01*
X132992762Y-118197333D01*
X132897524Y-118244952D01*
X132849905Y-118292571D01*
X132802286Y-118387810D01*
X167235334Y-110779143D02*
X167187715Y-110826762D01*
X167044858Y-110874381D01*
X166949620Y-110874381D01*
X166806762Y-110826762D01*
X166711524Y-110731524D01*
X166663905Y-110636286D01*
X166616286Y-110445810D01*
X166616286Y-110302952D01*
X166663905Y-110112476D01*
X166711524Y-110017238D01*
X166806762Y-109922000D01*
X166949620Y-109874381D01*
X167044858Y-109874381D01*
X167187715Y-109922000D01*
X167235334Y-109969619D01*
X167568667Y-109874381D02*
X168235334Y-109874381D01*
X167806762Y-110874381D01*
X132294334Y-107545143D02*
X132246715Y-107592762D01*
X132103858Y-107640381D01*
X132008620Y-107640381D01*
X131865762Y-107592762D01*
X131770524Y-107497524D01*
X131722905Y-107402286D01*
X131675286Y-107211810D01*
X131675286Y-107068952D01*
X131722905Y-106878476D01*
X131770524Y-106783238D01*
X131865762Y-106688000D01*
X132008620Y-106640381D01*
X132103858Y-106640381D01*
X132246715Y-106688000D01*
X132294334Y-106735619D01*
X132865762Y-107068952D02*
X132770524Y-107021333D01*
X132722905Y-106973714D01*
X132675286Y-106878476D01*
X132675286Y-106830857D01*
X132722905Y-106735619D01*
X132770524Y-106688000D01*
X132865762Y-106640381D01*
X133056239Y-106640381D01*
X133151477Y-106688000D01*
X133199096Y-106735619D01*
X133246715Y-106830857D01*
X133246715Y-106878476D01*
X133199096Y-106973714D01*
X133151477Y-107021333D01*
X133056239Y-107068952D01*
X132865762Y-107068952D01*
X132770524Y-107116571D01*
X132722905Y-107164190D01*
X132675286Y-107259429D01*
X132675286Y-107449905D01*
X132722905Y-107545143D01*
X132770524Y-107592762D01*
X132865762Y-107640381D01*
X133056239Y-107640381D01*
X133151477Y-107592762D01*
X133199096Y-107545143D01*
X133246715Y-107449905D01*
X133246715Y-107259429D01*
X133199096Y-107164190D01*
X133151477Y-107116571D01*
X133056239Y-107068952D01*
X134135905Y-121610381D02*
X134135905Y-120610381D01*
X134374000Y-120610381D01*
X134516858Y-120658000D01*
X134612096Y-120753238D01*
X134659715Y-120848476D01*
X134707334Y-121038952D01*
X134707334Y-121181810D01*
X134659715Y-121372286D01*
X134612096Y-121467524D01*
X134516858Y-121562762D01*
X134374000Y-121610381D01*
X134135905Y-121610381D01*
X135659715Y-121610381D02*
X135088286Y-121610381D01*
X135374000Y-121610381D02*
X135374000Y-120610381D01*
X135278762Y-120753238D01*
X135183524Y-120848476D01*
X135088286Y-120896095D01*
X168195667Y-80605381D02*
X168195667Y-81319667D01*
X168148047Y-81462524D01*
X168052809Y-81557762D01*
X167909952Y-81605381D01*
X167814714Y-81605381D01*
X169195667Y-81605381D02*
X168624238Y-81605381D01*
X168909952Y-81605381D02*
X168909952Y-80605381D01*
X168814714Y-80748238D01*
X168719476Y-80843476D01*
X168624238Y-80891095D01*
X132111715Y-81351381D02*
X131540286Y-81351381D01*
X131826000Y-81351381D02*
X131826000Y-80351381D01*
X131730762Y-80494238D01*
X131635524Y-80589476D01*
X131540286Y-80637095D01*
X167560667Y-93134381D02*
X167560667Y-93848667D01*
X167513047Y-93991524D01*
X167417809Y-94086762D01*
X167274952Y-94134381D01*
X167179714Y-94134381D01*
X167989238Y-93229619D02*
X168036857Y-93182000D01*
X168132095Y-93134381D01*
X168370191Y-93134381D01*
X168465429Y-93182000D01*
X168513048Y-93229619D01*
X168560667Y-93324857D01*
X168560667Y-93420095D01*
X168513048Y-93562952D01*
X167941619Y-94134381D01*
X168560667Y-94134381D01*
X167560667Y-84498381D02*
X167560667Y-85212667D01*
X167513047Y-85355524D01*
X167417809Y-85450762D01*
X167274952Y-85498381D01*
X167179714Y-85498381D01*
X167941619Y-84498381D02*
X168560667Y-84498381D01*
X168227333Y-84879333D01*
X168370191Y-84879333D01*
X168465429Y-84926952D01*
X168513048Y-84974571D01*
X168560667Y-85069810D01*
X168560667Y-85307905D01*
X168513048Y-85403143D01*
X168465429Y-85450762D01*
X168370191Y-85498381D01*
X168084476Y-85498381D01*
X167989238Y-85450762D01*
X167941619Y-85403143D01*
X134032667Y-125690381D02*
X134032667Y-126404667D01*
X133985047Y-126547524D01*
X133889809Y-126642762D01*
X133746952Y-126690381D01*
X133651714Y-126690381D01*
X134985048Y-125690381D02*
X134508857Y-125690381D01*
X134461238Y-126166571D01*
X134508857Y-126118952D01*
X134604095Y-126071333D01*
X134842191Y-126071333D01*
X134937429Y-126118952D01*
X134985048Y-126166571D01*
X135032667Y-126261810D01*
X135032667Y-126499905D01*
X134985048Y-126595143D01*
X134937429Y-126642762D01*
X134842191Y-126690381D01*
X134604095Y-126690381D01*
X134508857Y-126642762D01*
X134461238Y-126595143D01*
X159980334Y-109418381D02*
X159647000Y-108942190D01*
X159408905Y-109418381D02*
X159408905Y-108418381D01*
X159789858Y-108418381D01*
X159885096Y-108466000D01*
X159932715Y-108513619D01*
X159980334Y-108608857D01*
X159980334Y-108751714D01*
X159932715Y-108846952D01*
X159885096Y-108894571D01*
X159789858Y-108942190D01*
X159408905Y-108942190D01*
X160932715Y-109418381D02*
X160361286Y-109418381D01*
X160647000Y-109418381D02*
X160647000Y-108418381D01*
X160551762Y-108561238D01*
X160456524Y-108656476D01*
X160361286Y-108704095D01*
X163348334Y-85728381D02*
X163015000Y-85252190D01*
X162776905Y-85728381D02*
X162776905Y-84728381D01*
X163157858Y-84728381D01*
X163253096Y-84776000D01*
X163300715Y-84823619D01*
X163348334Y-84918857D01*
X163348334Y-85061714D01*
X163300715Y-85156952D01*
X163253096Y-85204571D01*
X163157858Y-85252190D01*
X162776905Y-85252190D01*
X163681667Y-84728381D02*
X164300715Y-84728381D01*
X163967381Y-85109333D01*
X164110239Y-85109333D01*
X164205477Y-85156952D01*
X164253096Y-85204571D01*
X164300715Y-85299810D01*
X164300715Y-85537905D01*
X164253096Y-85633143D01*
X164205477Y-85680762D01*
X164110239Y-85728381D01*
X163824524Y-85728381D01*
X163729286Y-85680762D01*
X163681667Y-85633143D01*
X145121334Y-116911381D02*
X144788000Y-116435190D01*
X144549905Y-116911381D02*
X144549905Y-115911381D01*
X144930858Y-115911381D01*
X145026096Y-115959000D01*
X145073715Y-116006619D01*
X145121334Y-116101857D01*
X145121334Y-116244714D01*
X145073715Y-116339952D01*
X145026096Y-116387571D01*
X144930858Y-116435190D01*
X144549905Y-116435190D01*
X145978477Y-116244714D02*
X145978477Y-116911381D01*
X145740381Y-115863762D02*
X145502286Y-116578048D01*
X146121334Y-116578048D01*
X145756334Y-126944381D02*
X145423000Y-126468190D01*
X145184905Y-126944381D02*
X145184905Y-125944381D01*
X145565858Y-125944381D01*
X145661096Y-125992000D01*
X145708715Y-126039619D01*
X145756334Y-126134857D01*
X145756334Y-126277714D01*
X145708715Y-126372952D01*
X145661096Y-126420571D01*
X145565858Y-126468190D01*
X145184905Y-126468190D01*
X146661096Y-125944381D02*
X146184905Y-125944381D01*
X146137286Y-126420571D01*
X146184905Y-126372952D01*
X146280143Y-126325333D01*
X146518239Y-126325333D01*
X146613477Y-126372952D01*
X146661096Y-126420571D01*
X146708715Y-126515810D01*
X146708715Y-126753905D01*
X146661096Y-126849143D01*
X146613477Y-126896762D01*
X146518239Y-126944381D01*
X146280143Y-126944381D01*
X146184905Y-126896762D01*
X146137286Y-126849143D01*
X145121334Y-120975381D02*
X144788000Y-120499190D01*
X144549905Y-120975381D02*
X144549905Y-119975381D01*
X144930858Y-119975381D01*
X145026096Y-120023000D01*
X145073715Y-120070619D01*
X145121334Y-120165857D01*
X145121334Y-120308714D01*
X145073715Y-120403952D01*
X145026096Y-120451571D01*
X144930858Y-120499190D01*
X144549905Y-120499190D01*
X145978477Y-119975381D02*
X145788000Y-119975381D01*
X145692762Y-120023000D01*
X145645143Y-120070619D01*
X145549905Y-120213476D01*
X145502286Y-120403952D01*
X145502286Y-120784905D01*
X145549905Y-120880143D01*
X145597524Y-120927762D01*
X145692762Y-120975381D01*
X145883239Y-120975381D01*
X145978477Y-120927762D01*
X146026096Y-120880143D01*
X146073715Y-120784905D01*
X146073715Y-120546810D01*
X146026096Y-120451571D01*
X145978477Y-120403952D01*
X145883239Y-120356333D01*
X145692762Y-120356333D01*
X145597524Y-120403952D01*
X145549905Y-120451571D01*
X145502286Y-120546810D01*
X155360667Y-90601262D02*
X155503524Y-90648881D01*
X155741620Y-90648881D01*
X155836858Y-90601262D01*
X155884477Y-90553643D01*
X155932096Y-90458405D01*
X155932096Y-90363167D01*
X155884477Y-90267929D01*
X155836858Y-90220310D01*
X155741620Y-90172690D01*
X155551143Y-90125071D01*
X155455905Y-90077452D01*
X155408286Y-90029833D01*
X155360667Y-89934595D01*
X155360667Y-89839357D01*
X155408286Y-89744119D01*
X155455905Y-89696500D01*
X155551143Y-89648881D01*
X155789239Y-89648881D01*
X155932096Y-89696500D01*
X156265429Y-89648881D02*
X156503524Y-90648881D01*
X156694001Y-89934595D01*
X156884477Y-90648881D01*
X157122572Y-89648881D01*
X158027334Y-90648881D02*
X157455905Y-90648881D01*
X157741619Y-90648881D02*
X157741619Y-89648881D01*
X157646381Y-89791738D01*
X157551143Y-89886976D01*
X157455905Y-89934595D01*
X139423567Y-125658381D02*
X139423567Y-126372667D01*
X139375947Y-126515524D01*
X139280709Y-126610762D01*
X139137852Y-126658381D01*
X139042614Y-126658381D01*
X140328329Y-125991714D02*
X140328329Y-126658381D01*
X140090233Y-125610762D02*
X139852138Y-126325048D01*
X140471186Y-126325048D01*
M02*
