M48
;DRILL file {KiCad 4.0.7} date Sunday, 10 June 2018 'PMt' 17:46:58
;FORMAT={-:-/ absolute / inch / decimal}
FMAT,2
INCH,TZ
T1C0.012
T2C0.016
T3C0.020
T4C0.022
T5C0.039
%
G90
G05
M72
T1
X5.21Y-4.09
X5.29Y-3.94
X5.58Y-4.8
X5.84Y-4.92
X5.92Y-3.7
X6.16Y-3.92
X6.22Y-3.47
X6.4Y-3.73
T2
X5.29Y-3.42
X5.31Y-3.75
X5.34Y-3.7
X5.365Y-3.75
X5.37Y-3.35
X5.37Y-3.42
X5.43Y-3.38
X5.43Y-3.43
X5.44Y-3.46
X5.44Y-3.72
X5.47Y-3.695
X5.474Y-4.0665
X5.4946Y-3.725
X5.5172Y-3.7803
X5.5175Y-3.495
X5.6085Y-3.7002
X5.64Y-3.7
X5.675Y-3.54
X5.69Y-3.62
X5.99Y-3.34
X6.06Y-4.655
X6.0866Y-4.735
X6.125Y-4.89
X6.165Y-4.965
X6.2Y-4.35
X6.2Y-5.13
X6.235Y-4.42
X6.245Y-5.045
X6.26Y-4.17
X6.2626Y-4.6526
X6.275Y-4.815
X6.375Y-4.395
X6.375Y-4.97
X6.42Y-5.125
X6.425Y-4.215
X6.485Y-4.895
T5
X5.2Y-4.93
X5.2Y-5.03
X6.61Y-3.44
X6.61Y-3.54
X6.61Y-3.78
X6.61Y-3.88
X6.61Y-3.98
X6.61Y-4.08
X6.61Y-4.18
T3
X5.3644Y-5.0928G85X5.3644Y-5.0672
G05
X5.64Y-5.0928G85X5.64Y-5.0672
G05
T4
X5.3979Y-4.9737G85X5.4097Y-4.9737
G05
X5.5947Y-4.9737G85X5.6065Y-4.9737
G05
T0
M30
