G04 #@! TF.FileFunction,Soldermask,Top*
%FSLAX46Y46*%
G04 Gerber Fmt 4.6, Leading zero omitted, Abs format (unit mm)*
G04 Created by KiCad (PCBNEW 4.0.7) date Wednesday, 20 June 2018 'PMt' 21:51:42*
%MOMM*%
%LPD*%
G01*
G04 APERTURE LIST*
%ADD10C,0.100000*%
%ADD11R,2.400000X4.200000*%
%ADD12R,2.400000X1.900000*%
%ADD13R,2.900000X1.500000*%
%ADD14R,1.500000X2.900000*%
%ADD15R,0.850000X2.150000*%
%ADD16R,1.400000X1.650000*%
%ADD17R,2.350000X2.900000*%
%ADD18R,1.000000X0.850000*%
%ADD19R,1.924000X5.480000*%
%ADD20R,2.100000X2.100000*%
%ADD21O,2.100000X2.100000*%
%ADD22R,0.800000X1.750000*%
%ADD23O,1.650000X1.350000*%
%ADD24O,1.400000X1.950000*%
%ADD25R,1.100000X1.700000*%
%ADD26R,1.550000X1.450000*%
G04 APERTURE END LIST*
D10*
D11*
X140609329Y-112702843D03*
D12*
X134309329Y-112702843D03*
X134309329Y-115002843D03*
X134309329Y-110402843D03*
D13*
X167070000Y-130302000D03*
X167070000Y-128302000D03*
X167070000Y-126302000D03*
X167070000Y-124302000D03*
X167070000Y-122302000D03*
X167070000Y-120302000D03*
X167070000Y-118302000D03*
X167070000Y-116302000D03*
X151670000Y-116302000D03*
X151670000Y-118302000D03*
X151670000Y-120302000D03*
X151670000Y-122302000D03*
X151670000Y-124302000D03*
X151670000Y-126302000D03*
X151670000Y-128302000D03*
X151670000Y-130302000D03*
D14*
X164380000Y-114602000D03*
X162380000Y-114602000D03*
X160380000Y-114602000D03*
X158380000Y-114602000D03*
X156380000Y-114602000D03*
X154380000Y-114602000D03*
D15*
X142106000Y-90380000D03*
X141456000Y-90380000D03*
X140806000Y-90380000D03*
X140156000Y-90380000D03*
X139506000Y-90380000D03*
X138856000Y-90380000D03*
X138206000Y-90380000D03*
X137556000Y-90380000D03*
X136906000Y-90380000D03*
X136256000Y-90380000D03*
X135606000Y-90380000D03*
X134956000Y-90380000D03*
X134306000Y-90380000D03*
X133656000Y-90380000D03*
X133656000Y-97580000D03*
X134306000Y-97580000D03*
X134956000Y-97580000D03*
X135606000Y-97580000D03*
X136256000Y-97580000D03*
X136906000Y-97580000D03*
X137556000Y-97580000D03*
X138206000Y-97580000D03*
X138856000Y-97580000D03*
X139506000Y-97580000D03*
X140156000Y-97580000D03*
X140806000Y-97580000D03*
X141456000Y-97580000D03*
X142106000Y-97580000D03*
D16*
X147605500Y-89916000D03*
X145605500Y-89916000D03*
X142525500Y-87376000D03*
X140525500Y-87376000D03*
X142271500Y-103251000D03*
X140271500Y-103251000D03*
X145700500Y-100330000D03*
X143700500Y-100330000D03*
X140462000Y-99822000D03*
X138462000Y-99822000D03*
D17*
X138119329Y-118403843D03*
X135069329Y-118403843D03*
D16*
X166402000Y-112522000D03*
X168402000Y-112522000D03*
D17*
X138121329Y-106910343D03*
X135071329Y-106910343D03*
D18*
X136330000Y-122872500D03*
X138430000Y-122872500D03*
D19*
X133350000Y-81407000D03*
X136144000Y-81407000D03*
X138811000Y-81407000D03*
X141605000Y-81407000D03*
X144272000Y-81407000D03*
X147066000Y-81407000D03*
X149860000Y-81407000D03*
X152527000Y-81407000D03*
X155321000Y-81407000D03*
X157988000Y-81407000D03*
X160782000Y-81407000D03*
X163576000Y-81407000D03*
X166243000Y-81407000D03*
D20*
X167894000Y-96012000D03*
D21*
X167894000Y-98552000D03*
X167894000Y-101092000D03*
X167894000Y-103632000D03*
X167894000Y-106172000D03*
D20*
X167894000Y-87376000D03*
D21*
X167894000Y-89916000D03*
D22*
X138456000Y-126332000D03*
X139106000Y-126332000D03*
X139756000Y-126332000D03*
X140406000Y-126332000D03*
X141056000Y-126332000D03*
D23*
X137256000Y-126332000D03*
X142256000Y-126332000D03*
D24*
X136256000Y-129032000D03*
X143256000Y-129032000D03*
D20*
X132080000Y-125222000D03*
D21*
X132080000Y-127762000D03*
D25*
X163825000Y-109601000D03*
X161925000Y-109601000D03*
X162565000Y-103632000D03*
X164465000Y-103632000D03*
X162565000Y-87376000D03*
X164465000Y-87376000D03*
X146118500Y-118300500D03*
X148018500Y-118300500D03*
X148018500Y-128397000D03*
X146118500Y-128397000D03*
X148018500Y-122301000D03*
X146118500Y-122301000D03*
D26*
X158369000Y-92646500D03*
X155019000Y-92646500D03*
X158369000Y-94096500D03*
X155019000Y-94096500D03*
M02*
