G04 #@! TF.FileFunction,Legend,Bot*
%FSLAX46Y46*%
G04 Gerber Fmt 4.6, Leading zero omitted, Abs format (unit mm)*
G04 Created by KiCad (PCBNEW 4.0.7) date Friday, 06 July 2018 'PMt' 22:00:49*
%MOMM*%
%LPD*%
G01*
G04 APERTURE LIST*
%ADD10C,0.100000*%
%ADD11C,0.200000*%
%ADD12C,0.300000*%
%ADD13C,0.010000*%
G04 APERTURE END LIST*
D10*
D11*
X167598192Y-119578381D02*
X167598192Y-118578381D01*
X167169620Y-119578381D02*
X167169620Y-119054571D01*
X167217239Y-118959333D01*
X167312477Y-118911714D01*
X167455335Y-118911714D01*
X167550573Y-118959333D01*
X167598192Y-119006952D01*
X166836287Y-118911714D02*
X166455335Y-118911714D01*
X166693430Y-118578381D02*
X166693430Y-119435524D01*
X166645811Y-119530762D01*
X166550573Y-119578381D01*
X166455335Y-119578381D01*
X166264858Y-118911714D02*
X165883906Y-118911714D01*
X166122001Y-118578381D02*
X166122001Y-119435524D01*
X166074382Y-119530762D01*
X165979144Y-119578381D01*
X165883906Y-119578381D01*
X165550572Y-118911714D02*
X165550572Y-119911714D01*
X165550572Y-118959333D02*
X165455334Y-118911714D01*
X165264857Y-118911714D01*
X165169619Y-118959333D01*
X165122000Y-119006952D01*
X165074381Y-119102190D01*
X165074381Y-119387905D01*
X165122000Y-119483143D01*
X165169619Y-119530762D01*
X165264857Y-119578381D01*
X165455334Y-119578381D01*
X165550572Y-119530762D01*
X164693429Y-119530762D02*
X164598191Y-119578381D01*
X164407715Y-119578381D01*
X164312476Y-119530762D01*
X164264857Y-119435524D01*
X164264857Y-119387905D01*
X164312476Y-119292667D01*
X164407715Y-119245048D01*
X164550572Y-119245048D01*
X164645810Y-119197429D01*
X164693429Y-119102190D01*
X164693429Y-119054571D01*
X164645810Y-118959333D01*
X164550572Y-118911714D01*
X164407715Y-118911714D01*
X164312476Y-118959333D01*
X163836286Y-119483143D02*
X163788667Y-119530762D01*
X163836286Y-119578381D01*
X163883905Y-119530762D01*
X163836286Y-119483143D01*
X163836286Y-119578381D01*
X163836286Y-118959333D02*
X163788667Y-119006952D01*
X163836286Y-119054571D01*
X163883905Y-119006952D01*
X163836286Y-118959333D01*
X163836286Y-119054571D01*
X162645810Y-118530762D02*
X163502953Y-119816476D01*
X161598191Y-118530762D02*
X162455334Y-119816476D01*
X160836286Y-118911714D02*
X160836286Y-119721238D01*
X160883905Y-119816476D01*
X160931524Y-119864095D01*
X161026763Y-119911714D01*
X161169620Y-119911714D01*
X161264858Y-119864095D01*
X160836286Y-119530762D02*
X160931524Y-119578381D01*
X161122001Y-119578381D01*
X161217239Y-119530762D01*
X161264858Y-119483143D01*
X161312477Y-119387905D01*
X161312477Y-119102190D01*
X161264858Y-119006952D01*
X161217239Y-118959333D01*
X161122001Y-118911714D01*
X160931524Y-118911714D01*
X160836286Y-118959333D01*
X160360096Y-119578381D02*
X160360096Y-118911714D01*
X160360096Y-118578381D02*
X160407715Y-118626000D01*
X160360096Y-118673619D01*
X160312477Y-118626000D01*
X160360096Y-118578381D01*
X160360096Y-118673619D01*
X160026763Y-118911714D02*
X159645811Y-118911714D01*
X159883906Y-118578381D02*
X159883906Y-119435524D01*
X159836287Y-119530762D01*
X159741049Y-119578381D01*
X159645811Y-119578381D01*
X159312477Y-119578381D02*
X159312477Y-118578381D01*
X158883905Y-119578381D02*
X158883905Y-119054571D01*
X158931524Y-118959333D01*
X159026762Y-118911714D01*
X159169620Y-118911714D01*
X159264858Y-118959333D01*
X159312477Y-119006952D01*
X157979143Y-118911714D02*
X157979143Y-119578381D01*
X158407715Y-118911714D02*
X158407715Y-119435524D01*
X158360096Y-119530762D01*
X158264858Y-119578381D01*
X158122000Y-119578381D01*
X158026762Y-119530762D01*
X157979143Y-119483143D01*
X157502953Y-119578381D02*
X157502953Y-118578381D01*
X157502953Y-118959333D02*
X157407715Y-118911714D01*
X157217238Y-118911714D01*
X157122000Y-118959333D01*
X157074381Y-119006952D01*
X157026762Y-119102190D01*
X157026762Y-119387905D01*
X157074381Y-119483143D01*
X157122000Y-119530762D01*
X157217238Y-119578381D01*
X157407715Y-119578381D01*
X157502953Y-119530762D01*
X156598191Y-119483143D02*
X156550572Y-119530762D01*
X156598191Y-119578381D01*
X156645810Y-119530762D01*
X156598191Y-119483143D01*
X156598191Y-119578381D01*
X155693429Y-119530762D02*
X155788667Y-119578381D01*
X155979144Y-119578381D01*
X156074382Y-119530762D01*
X156122001Y-119483143D01*
X156169620Y-119387905D01*
X156169620Y-119102190D01*
X156122001Y-119006952D01*
X156074382Y-118959333D01*
X155979144Y-118911714D01*
X155788667Y-118911714D01*
X155693429Y-118959333D01*
X155122001Y-119578381D02*
X155217239Y-119530762D01*
X155264858Y-119483143D01*
X155312477Y-119387905D01*
X155312477Y-119102190D01*
X155264858Y-119006952D01*
X155217239Y-118959333D01*
X155122001Y-118911714D01*
X154979143Y-118911714D01*
X154883905Y-118959333D01*
X154836286Y-119006952D01*
X154788667Y-119102190D01*
X154788667Y-119387905D01*
X154836286Y-119483143D01*
X154883905Y-119530762D01*
X154979143Y-119578381D01*
X155122001Y-119578381D01*
X154360096Y-119578381D02*
X154360096Y-118911714D01*
X154360096Y-119006952D02*
X154312477Y-118959333D01*
X154217239Y-118911714D01*
X154074381Y-118911714D01*
X153979143Y-118959333D01*
X153931524Y-119054571D01*
X153931524Y-119578381D01*
X153931524Y-119054571D02*
X153883905Y-118959333D01*
X153788667Y-118911714D01*
X153645810Y-118911714D01*
X153550572Y-118959333D01*
X153502953Y-119054571D01*
X153502953Y-119578381D01*
X152312477Y-118530762D02*
X153169620Y-119816476D01*
X152026763Y-119530762D02*
X151931525Y-119578381D01*
X151741049Y-119578381D01*
X151645810Y-119530762D01*
X151598191Y-119435524D01*
X151598191Y-119387905D01*
X151645810Y-119292667D01*
X151741049Y-119245048D01*
X151883906Y-119245048D01*
X151979144Y-119197429D01*
X152026763Y-119102190D01*
X152026763Y-119054571D01*
X151979144Y-118959333D01*
X151883906Y-118911714D01*
X151741049Y-118911714D01*
X151645810Y-118959333D01*
X151312477Y-118911714D02*
X150931525Y-118911714D01*
X151169620Y-118578381D02*
X151169620Y-119435524D01*
X151122001Y-119530762D01*
X151026763Y-119578381D01*
X150931525Y-119578381D01*
X150169619Y-119578381D02*
X150169619Y-119054571D01*
X150217238Y-118959333D01*
X150312476Y-118911714D01*
X150502953Y-118911714D01*
X150598191Y-118959333D01*
X150169619Y-119530762D02*
X150264857Y-119578381D01*
X150502953Y-119578381D01*
X150598191Y-119530762D01*
X150645810Y-119435524D01*
X150645810Y-119340286D01*
X150598191Y-119245048D01*
X150502953Y-119197429D01*
X150264857Y-119197429D01*
X150169619Y-119149810D01*
X149693429Y-119578381D02*
X149693429Y-118911714D01*
X149693429Y-119102190D02*
X149645810Y-119006952D01*
X149598191Y-118959333D01*
X149502953Y-118911714D01*
X149407714Y-118911714D01*
X148645809Y-119578381D02*
X148645809Y-118578381D01*
X148645809Y-119530762D02*
X148741047Y-119578381D01*
X148931524Y-119578381D01*
X149026762Y-119530762D01*
X149074381Y-119483143D01*
X149122000Y-119387905D01*
X149122000Y-119102190D01*
X149074381Y-119006952D01*
X149026762Y-118959333D01*
X148931524Y-118911714D01*
X148741047Y-118911714D01*
X148645809Y-118959333D01*
X148026762Y-119578381D02*
X148122000Y-119530762D01*
X148169619Y-119483143D01*
X148217238Y-119387905D01*
X148217238Y-119102190D01*
X148169619Y-119006952D01*
X148122000Y-118959333D01*
X148026762Y-118911714D01*
X147883904Y-118911714D01*
X147788666Y-118959333D01*
X147741047Y-119006952D01*
X147693428Y-119102190D01*
X147693428Y-119387905D01*
X147741047Y-119483143D01*
X147788666Y-119530762D01*
X147883904Y-119578381D01*
X148026762Y-119578381D01*
X147407714Y-118911714D02*
X147026762Y-118911714D01*
X147264857Y-118578381D02*
X147264857Y-119435524D01*
X147217238Y-119530762D01*
X147122000Y-119578381D01*
X147026762Y-119578381D01*
X145979142Y-118530762D02*
X146836285Y-119816476D01*
X145264856Y-119530762D02*
X145360094Y-119578381D01*
X145550571Y-119578381D01*
X145645809Y-119530762D01*
X145693428Y-119435524D01*
X145693428Y-119054571D01*
X145645809Y-118959333D01*
X145550571Y-118911714D01*
X145360094Y-118911714D01*
X145264856Y-118959333D01*
X145217237Y-119054571D01*
X145217237Y-119149810D01*
X145693428Y-119245048D01*
X144836285Y-119530762D02*
X144741047Y-119578381D01*
X144550571Y-119578381D01*
X144455332Y-119530762D01*
X144407713Y-119435524D01*
X144407713Y-119387905D01*
X144455332Y-119292667D01*
X144550571Y-119245048D01*
X144693428Y-119245048D01*
X144788666Y-119197429D01*
X144836285Y-119102190D01*
X144836285Y-119054571D01*
X144788666Y-118959333D01*
X144693428Y-118911714D01*
X144550571Y-118911714D01*
X144455332Y-118959333D01*
X143979142Y-118911714D02*
X143979142Y-119911714D01*
X143979142Y-118959333D02*
X143883904Y-118911714D01*
X143693427Y-118911714D01*
X143598189Y-118959333D01*
X143550570Y-119006952D01*
X143502951Y-119102190D01*
X143502951Y-119387905D01*
X143550570Y-119483143D01*
X143598189Y-119530762D01*
X143693427Y-119578381D01*
X143883904Y-119578381D01*
X143979142Y-119530762D01*
X142931523Y-119006952D02*
X143026761Y-118959333D01*
X143074380Y-118911714D01*
X143121999Y-118816476D01*
X143121999Y-118768857D01*
X143074380Y-118673619D01*
X143026761Y-118626000D01*
X142931523Y-118578381D01*
X142741046Y-118578381D01*
X142645808Y-118626000D01*
X142598189Y-118673619D01*
X142550570Y-118768857D01*
X142550570Y-118816476D01*
X142598189Y-118911714D01*
X142645808Y-118959333D01*
X142741046Y-119006952D01*
X142931523Y-119006952D01*
X143026761Y-119054571D01*
X143074380Y-119102190D01*
X143121999Y-119197429D01*
X143121999Y-119387905D01*
X143074380Y-119483143D01*
X143026761Y-119530762D01*
X142931523Y-119578381D01*
X142741046Y-119578381D01*
X142645808Y-119530762D01*
X142598189Y-119483143D01*
X142550570Y-119387905D01*
X142550570Y-119197429D01*
X142598189Y-119102190D01*
X142645808Y-119054571D01*
X142741046Y-119006952D01*
X142169618Y-118673619D02*
X142121999Y-118626000D01*
X142026761Y-118578381D01*
X141788665Y-118578381D01*
X141693427Y-118626000D01*
X141645808Y-118673619D01*
X141598189Y-118768857D01*
X141598189Y-118864095D01*
X141645808Y-119006952D01*
X142217237Y-119578381D01*
X141598189Y-119578381D01*
X140741046Y-118578381D02*
X140931523Y-118578381D01*
X141026761Y-118626000D01*
X141074380Y-118673619D01*
X141169618Y-118816476D01*
X141217237Y-119006952D01*
X141217237Y-119387905D01*
X141169618Y-119483143D01*
X141121999Y-119530762D01*
X141026761Y-119578381D01*
X140836284Y-119578381D01*
X140741046Y-119530762D01*
X140693427Y-119483143D01*
X140645808Y-119387905D01*
X140645808Y-119149810D01*
X140693427Y-119054571D01*
X140741046Y-119006952D01*
X140836284Y-118959333D01*
X141026761Y-118959333D01*
X141121999Y-119006952D01*
X141169618Y-119054571D01*
X141217237Y-119149810D01*
X139788665Y-118578381D02*
X139979142Y-118578381D01*
X140074380Y-118626000D01*
X140121999Y-118673619D01*
X140217237Y-118816476D01*
X140264856Y-119006952D01*
X140264856Y-119387905D01*
X140217237Y-119483143D01*
X140169618Y-119530762D01*
X140074380Y-119578381D01*
X139883903Y-119578381D01*
X139788665Y-119530762D01*
X139741046Y-119483143D01*
X139693427Y-119387905D01*
X139693427Y-119149810D01*
X139741046Y-119054571D01*
X139788665Y-119006952D01*
X139883903Y-118959333D01*
X140074380Y-118959333D01*
X140169618Y-119006952D01*
X140217237Y-119054571D01*
X140264856Y-119149810D01*
X139502951Y-119673619D02*
X138741046Y-119673619D01*
X138502951Y-119578381D02*
X138502951Y-118911714D01*
X138502951Y-119006952D02*
X138455332Y-118959333D01*
X138360094Y-118911714D01*
X138217236Y-118911714D01*
X138121998Y-118959333D01*
X138074379Y-119054571D01*
X138074379Y-119578381D01*
X138074379Y-119054571D02*
X138026760Y-118959333D01*
X137931522Y-118911714D01*
X137788665Y-118911714D01*
X137693427Y-118959333D01*
X137645808Y-119054571D01*
X137645808Y-119578381D01*
X137026761Y-119578381D02*
X137121999Y-119530762D01*
X137169618Y-119483143D01*
X137217237Y-119387905D01*
X137217237Y-119102190D01*
X137169618Y-119006952D01*
X137121999Y-118959333D01*
X137026761Y-118911714D01*
X136883903Y-118911714D01*
X136788665Y-118959333D01*
X136741046Y-119006952D01*
X136693427Y-119102190D01*
X136693427Y-119387905D01*
X136741046Y-119483143D01*
X136788665Y-119530762D01*
X136883903Y-119578381D01*
X137026761Y-119578381D01*
X135836284Y-119578381D02*
X135836284Y-118578381D01*
X135836284Y-119530762D02*
X135931522Y-119578381D01*
X136121999Y-119578381D01*
X136217237Y-119530762D01*
X136264856Y-119483143D01*
X136312475Y-119387905D01*
X136312475Y-119102190D01*
X136264856Y-119006952D01*
X136217237Y-118959333D01*
X136121999Y-118911714D01*
X135931522Y-118911714D01*
X135836284Y-118959333D01*
X134979141Y-119530762D02*
X135074379Y-119578381D01*
X135264856Y-119578381D01*
X135360094Y-119530762D01*
X135407713Y-119435524D01*
X135407713Y-119054571D01*
X135360094Y-118959333D01*
X135264856Y-118911714D01*
X135074379Y-118911714D01*
X134979141Y-118959333D01*
X134931522Y-119054571D01*
X134931522Y-119149810D01*
X135407713Y-119245048D01*
X134502951Y-119578381D02*
X134502951Y-118911714D01*
X134502951Y-119006952D02*
X134455332Y-118959333D01*
X134360094Y-118911714D01*
X134217236Y-118911714D01*
X134121998Y-118959333D01*
X134074379Y-119054571D01*
X134074379Y-119578381D01*
X134074379Y-119054571D02*
X134026760Y-118959333D01*
X133931522Y-118911714D01*
X133788665Y-118911714D01*
X133693427Y-118959333D01*
X133645808Y-119054571D01*
X133645808Y-119578381D01*
D12*
X164407713Y-115296000D02*
X164479141Y-115224571D01*
X164621998Y-115010286D01*
X164693427Y-114867429D01*
X164764856Y-114653143D01*
X164836284Y-114296000D01*
X164836284Y-114010286D01*
X164764856Y-113653143D01*
X164693427Y-113438857D01*
X164621998Y-113296000D01*
X164479141Y-113081714D01*
X164407713Y-113010286D01*
X163193427Y-114653143D02*
X163336284Y-114724571D01*
X163621998Y-114724571D01*
X163764856Y-114653143D01*
X163836284Y-114581714D01*
X163907713Y-114438857D01*
X163907713Y-114010286D01*
X163836284Y-113867429D01*
X163764856Y-113796000D01*
X163621998Y-113724571D01*
X163336284Y-113724571D01*
X163193427Y-113796000D01*
X162693427Y-115296000D02*
X162621999Y-115224571D01*
X162479142Y-115010286D01*
X162407713Y-114867429D01*
X162336284Y-114653143D01*
X162264856Y-114296000D01*
X162264856Y-114010286D01*
X162336284Y-113653143D01*
X162407713Y-113438857D01*
X162479142Y-113296000D01*
X162621999Y-113081714D01*
X162693427Y-113010286D01*
X160479142Y-113367429D02*
X160407713Y-113296000D01*
X160264856Y-113224571D01*
X159907713Y-113224571D01*
X159764856Y-113296000D01*
X159693427Y-113367429D01*
X159621999Y-113510286D01*
X159621999Y-113653143D01*
X159693427Y-113867429D01*
X160550570Y-114724571D01*
X159621999Y-114724571D01*
X158693428Y-113224571D02*
X158550571Y-113224571D01*
X158407714Y-113296000D01*
X158336285Y-113367429D01*
X158264856Y-113510286D01*
X158193428Y-113796000D01*
X158193428Y-114153143D01*
X158264856Y-114438857D01*
X158336285Y-114581714D01*
X158407714Y-114653143D01*
X158550571Y-114724571D01*
X158693428Y-114724571D01*
X158836285Y-114653143D01*
X158907714Y-114581714D01*
X158979142Y-114438857D01*
X159050571Y-114153143D01*
X159050571Y-113796000D01*
X158979142Y-113510286D01*
X158907714Y-113367429D01*
X158836285Y-113296000D01*
X158693428Y-113224571D01*
X156764857Y-114724571D02*
X157622000Y-114724571D01*
X157193428Y-114724571D02*
X157193428Y-113224571D01*
X157336285Y-113438857D01*
X157479143Y-113581714D01*
X157622000Y-113653143D01*
X155907714Y-113867429D02*
X156050572Y-113796000D01*
X156122000Y-113724571D01*
X156193429Y-113581714D01*
X156193429Y-113510286D01*
X156122000Y-113367429D01*
X156050572Y-113296000D01*
X155907714Y-113224571D01*
X155622000Y-113224571D01*
X155479143Y-113296000D01*
X155407714Y-113367429D01*
X155336286Y-113510286D01*
X155336286Y-113581714D01*
X155407714Y-113724571D01*
X155479143Y-113796000D01*
X155622000Y-113867429D01*
X155907714Y-113867429D01*
X156050572Y-113938857D01*
X156122000Y-114010286D01*
X156193429Y-114153143D01*
X156193429Y-114438857D01*
X156122000Y-114581714D01*
X156050572Y-114653143D01*
X155907714Y-114724571D01*
X155622000Y-114724571D01*
X155479143Y-114653143D01*
X155407714Y-114581714D01*
X155336286Y-114438857D01*
X155336286Y-114153143D01*
X155407714Y-114010286D01*
X155479143Y-113938857D01*
X155622000Y-113867429D01*
X153550572Y-114724571D02*
X153550572Y-113224571D01*
X153193429Y-113224571D01*
X152979144Y-113296000D01*
X152836286Y-113438857D01*
X152764858Y-113581714D01*
X152693429Y-113867429D01*
X152693429Y-114081714D01*
X152764858Y-114367429D01*
X152836286Y-114510286D01*
X152979144Y-114653143D01*
X153193429Y-114724571D01*
X153550572Y-114724571D01*
X151407715Y-114724571D02*
X151407715Y-113938857D01*
X151479144Y-113796000D01*
X151622001Y-113724571D01*
X151907715Y-113724571D01*
X152050572Y-113796000D01*
X151407715Y-114653143D02*
X151550572Y-114724571D01*
X151907715Y-114724571D01*
X152050572Y-114653143D01*
X152122001Y-114510286D01*
X152122001Y-114367429D01*
X152050572Y-114224571D01*
X151907715Y-114153143D01*
X151550572Y-114153143D01*
X151407715Y-114081714D01*
X150693429Y-113724571D02*
X150693429Y-114724571D01*
X150693429Y-113867429D02*
X150622001Y-113796000D01*
X150479143Y-113724571D01*
X150264858Y-113724571D01*
X150122001Y-113796000D01*
X150050572Y-113938857D01*
X150050572Y-114724571D01*
X149336286Y-114724571D02*
X149336286Y-113724571D01*
X149336286Y-113224571D02*
X149407715Y-113296000D01*
X149336286Y-113367429D01*
X149264858Y-113296000D01*
X149336286Y-113224571D01*
X149336286Y-113367429D01*
X148050572Y-114653143D02*
X148193429Y-114724571D01*
X148479143Y-114724571D01*
X148622000Y-114653143D01*
X148693429Y-114510286D01*
X148693429Y-113938857D01*
X148622000Y-113796000D01*
X148479143Y-113724571D01*
X148193429Y-113724571D01*
X148050572Y-113796000D01*
X147979143Y-113938857D01*
X147979143Y-114081714D01*
X148693429Y-114224571D01*
X147122000Y-114724571D02*
X147264858Y-114653143D01*
X147336286Y-114510286D01*
X147336286Y-113224571D01*
X144979144Y-113224571D02*
X144979144Y-114296000D01*
X145050572Y-114510286D01*
X145193429Y-114653143D01*
X145407715Y-114724571D01*
X145550572Y-114724571D01*
X143622001Y-114724571D02*
X143622001Y-113938857D01*
X143693430Y-113796000D01*
X143836287Y-113724571D01*
X144122001Y-113724571D01*
X144264858Y-113796000D01*
X143622001Y-114653143D02*
X143764858Y-114724571D01*
X144122001Y-114724571D01*
X144264858Y-114653143D01*
X144336287Y-114510286D01*
X144336287Y-114367429D01*
X144264858Y-114224571D01*
X144122001Y-114153143D01*
X143764858Y-114153143D01*
X143622001Y-114081714D01*
X142907715Y-114724571D02*
X142907715Y-113724571D01*
X142907715Y-113867429D02*
X142836287Y-113796000D01*
X142693429Y-113724571D01*
X142479144Y-113724571D01*
X142336287Y-113796000D01*
X142264858Y-113938857D01*
X142264858Y-114724571D01*
X142264858Y-113938857D02*
X142193429Y-113796000D01*
X142050572Y-113724571D01*
X141836287Y-113724571D01*
X141693429Y-113796000D01*
X141622001Y-113938857D01*
X141622001Y-114724571D01*
X140336287Y-114653143D02*
X140479144Y-114724571D01*
X140764858Y-114724571D01*
X140907715Y-114653143D01*
X140979144Y-114510286D01*
X140979144Y-113938857D01*
X140907715Y-113796000D01*
X140764858Y-113724571D01*
X140479144Y-113724571D01*
X140336287Y-113796000D01*
X140264858Y-113938857D01*
X140264858Y-114081714D01*
X140979144Y-114224571D01*
X139693430Y-114653143D02*
X139550573Y-114724571D01*
X139264858Y-114724571D01*
X139122001Y-114653143D01*
X139050573Y-114510286D01*
X139050573Y-114438857D01*
X139122001Y-114296000D01*
X139264858Y-114224571D01*
X139479144Y-114224571D01*
X139622001Y-114153143D01*
X139693430Y-114010286D01*
X139693430Y-113938857D01*
X139622001Y-113796000D01*
X139479144Y-113724571D01*
X139264858Y-113724571D01*
X139122001Y-113796000D01*
X138193429Y-114724571D02*
X138336287Y-114653143D01*
X138407715Y-114581714D01*
X138479144Y-114438857D01*
X138479144Y-114010286D01*
X138407715Y-113867429D01*
X138336287Y-113796000D01*
X138193429Y-113724571D01*
X137979144Y-113724571D01*
X137836287Y-113796000D01*
X137764858Y-113867429D01*
X137693429Y-114010286D01*
X137693429Y-114438857D01*
X137764858Y-114581714D01*
X137836287Y-114653143D01*
X137979144Y-114724571D01*
X138193429Y-114724571D01*
X137050572Y-113724571D02*
X137050572Y-114724571D01*
X137050572Y-113867429D02*
X136979144Y-113796000D01*
X136836286Y-113724571D01*
X136622001Y-113724571D01*
X136479144Y-113796000D01*
X136407715Y-113938857D01*
X136407715Y-114724571D01*
D13*
G36*
X141393333Y-108373333D02*
X158326666Y-108373333D01*
X158326666Y-102616000D01*
X158157333Y-102616000D01*
X158157333Y-106595333D01*
X157875170Y-106595333D01*
X157673537Y-106624489D01*
X157500107Y-106735339D01*
X157318471Y-106936956D01*
X156884628Y-107373528D01*
X156394615Y-107661912D01*
X155827244Y-107811213D01*
X155230646Y-107834094D01*
X154820532Y-107795915D01*
X154490854Y-107708080D01*
X154180829Y-107562368D01*
X153858330Y-107345396D01*
X153593260Y-107103333D01*
X150283333Y-107103333D01*
X150283333Y-108034667D01*
X149997367Y-108034667D01*
X149775459Y-108004768D01*
X149626774Y-107932255D01*
X149621860Y-107926777D01*
X149575104Y-107776132D01*
X149572486Y-107533657D01*
X149580308Y-107461110D01*
X149619162Y-107236852D01*
X149688036Y-107133753D01*
X149784340Y-107114919D01*
X149362579Y-107114919D01*
X149358241Y-107244365D01*
X149311841Y-107353129D01*
X149220529Y-107576638D01*
X149182666Y-107762351D01*
X149155731Y-107925033D01*
X149126222Y-107978222D01*
X149009169Y-108033031D01*
X148940235Y-107934908D01*
X148928666Y-107814903D01*
X148917172Y-107763136D01*
X146358463Y-107763136D01*
X146286260Y-107870600D01*
X146266958Y-107890280D01*
X146040066Y-108020191D01*
X145854221Y-107999651D01*
X145498474Y-107999651D01*
X145422760Y-108033410D01*
X145329518Y-107933319D01*
X145318618Y-107907667D01*
X145203295Y-107801162D01*
X145106951Y-107780667D01*
X144948044Y-107838700D01*
X144895284Y-107907667D01*
X144809801Y-108018585D01*
X144722930Y-108015414D01*
X144695333Y-107931664D01*
X144729305Y-107745999D01*
X144813602Y-107515092D01*
X144921800Y-107294874D01*
X145027472Y-107141276D01*
X145086700Y-107103333D01*
X145197592Y-107183068D01*
X145327345Y-107408079D01*
X145464331Y-107757076D01*
X145495289Y-107851541D01*
X145498474Y-107999651D01*
X145854221Y-107999651D01*
X145804058Y-107994107D01*
X145678645Y-107905216D01*
X145588540Y-107734732D01*
X145661611Y-107579116D01*
X145891715Y-107450900D01*
X145903277Y-107446805D01*
X146072784Y-107369180D01*
X146096280Y-107293634D01*
X146065822Y-107254622D01*
X145950578Y-107198196D01*
X145863733Y-107255733D01*
X145723395Y-107349221D01*
X145636867Y-107321423D01*
X145626666Y-107270851D01*
X145695283Y-107175679D01*
X145835826Y-107089070D01*
X146029808Y-107037089D01*
X146174493Y-107101252D01*
X146296686Y-107280088D01*
X146261321Y-107454350D01*
X146077308Y-107588441D01*
X146050000Y-107598646D01*
X145873901Y-107685066D01*
X145796190Y-107772742D01*
X145796000Y-107776262D01*
X145860383Y-107849135D01*
X145997244Y-107860303D01*
X146122156Y-107811727D01*
X146153011Y-107767967D01*
X146246441Y-107701595D01*
X146298406Y-107708246D01*
X146358463Y-107763136D01*
X148917172Y-107763136D01*
X148879541Y-107593659D01*
X148760611Y-107359305D01*
X148753568Y-107349237D01*
X148649207Y-107184392D01*
X148649761Y-107114079D01*
X148707027Y-107103333D01*
X148853064Y-107169032D01*
X148924397Y-107251500D01*
X149001775Y-107353427D01*
X149075022Y-107317207D01*
X149128438Y-107251500D01*
X149276106Y-107111827D01*
X149362579Y-107114919D01*
X149784340Y-107114919D01*
X149836322Y-107104753D01*
X149955814Y-107103333D01*
X150283333Y-107103333D01*
X153593260Y-107103333D01*
X153568017Y-107080281D01*
X153466849Y-106959294D01*
X153204333Y-106601937D01*
X147383500Y-106598635D01*
X141562666Y-106595333D01*
X141562666Y-102616000D01*
X158157333Y-102616000D01*
X158326666Y-102616000D01*
X158326666Y-102446667D01*
X141393333Y-102446667D01*
X141393333Y-108373333D01*
X141393333Y-108373333D01*
G37*
X141393333Y-108373333D02*
X158326666Y-108373333D01*
X158326666Y-102616000D01*
X158157333Y-102616000D01*
X158157333Y-106595333D01*
X157875170Y-106595333D01*
X157673537Y-106624489D01*
X157500107Y-106735339D01*
X157318471Y-106936956D01*
X156884628Y-107373528D01*
X156394615Y-107661912D01*
X155827244Y-107811213D01*
X155230646Y-107834094D01*
X154820532Y-107795915D01*
X154490854Y-107708080D01*
X154180829Y-107562368D01*
X153858330Y-107345396D01*
X153593260Y-107103333D01*
X150283333Y-107103333D01*
X150283333Y-108034667D01*
X149997367Y-108034667D01*
X149775459Y-108004768D01*
X149626774Y-107932255D01*
X149621860Y-107926777D01*
X149575104Y-107776132D01*
X149572486Y-107533657D01*
X149580308Y-107461110D01*
X149619162Y-107236852D01*
X149688036Y-107133753D01*
X149784340Y-107114919D01*
X149362579Y-107114919D01*
X149358241Y-107244365D01*
X149311841Y-107353129D01*
X149220529Y-107576638D01*
X149182666Y-107762351D01*
X149155731Y-107925033D01*
X149126222Y-107978222D01*
X149009169Y-108033031D01*
X148940235Y-107934908D01*
X148928666Y-107814903D01*
X148917172Y-107763136D01*
X146358463Y-107763136D01*
X146286260Y-107870600D01*
X146266958Y-107890280D01*
X146040066Y-108020191D01*
X145854221Y-107999651D01*
X145498474Y-107999651D01*
X145422760Y-108033410D01*
X145329518Y-107933319D01*
X145318618Y-107907667D01*
X145203295Y-107801162D01*
X145106951Y-107780667D01*
X144948044Y-107838700D01*
X144895284Y-107907667D01*
X144809801Y-108018585D01*
X144722930Y-108015414D01*
X144695333Y-107931664D01*
X144729305Y-107745999D01*
X144813602Y-107515092D01*
X144921800Y-107294874D01*
X145027472Y-107141276D01*
X145086700Y-107103333D01*
X145197592Y-107183068D01*
X145327345Y-107408079D01*
X145464331Y-107757076D01*
X145495289Y-107851541D01*
X145498474Y-107999651D01*
X145854221Y-107999651D01*
X145804058Y-107994107D01*
X145678645Y-107905216D01*
X145588540Y-107734732D01*
X145661611Y-107579116D01*
X145891715Y-107450900D01*
X145903277Y-107446805D01*
X146072784Y-107369180D01*
X146096280Y-107293634D01*
X146065822Y-107254622D01*
X145950578Y-107198196D01*
X145863733Y-107255733D01*
X145723395Y-107349221D01*
X145636867Y-107321423D01*
X145626666Y-107270851D01*
X145695283Y-107175679D01*
X145835826Y-107089070D01*
X146029808Y-107037089D01*
X146174493Y-107101252D01*
X146296686Y-107280088D01*
X146261321Y-107454350D01*
X146077308Y-107588441D01*
X146050000Y-107598646D01*
X145873901Y-107685066D01*
X145796190Y-107772742D01*
X145796000Y-107776262D01*
X145860383Y-107849135D01*
X145997244Y-107860303D01*
X146122156Y-107811727D01*
X146153011Y-107767967D01*
X146246441Y-107701595D01*
X146298406Y-107708246D01*
X146358463Y-107763136D01*
X148917172Y-107763136D01*
X148879541Y-107593659D01*
X148760611Y-107359305D01*
X148753568Y-107349237D01*
X148649207Y-107184392D01*
X148649761Y-107114079D01*
X148707027Y-107103333D01*
X148853064Y-107169032D01*
X148924397Y-107251500D01*
X149001775Y-107353427D01*
X149075022Y-107317207D01*
X149128438Y-107251500D01*
X149276106Y-107111827D01*
X149362579Y-107114919D01*
X149784340Y-107114919D01*
X149836322Y-107104753D01*
X149955814Y-107103333D01*
X150283333Y-107103333D01*
X153593260Y-107103333D01*
X153568017Y-107080281D01*
X153466849Y-106959294D01*
X153204333Y-106601937D01*
X147383500Y-106598635D01*
X141562666Y-106595333D01*
X141562666Y-102616000D01*
X158157333Y-102616000D01*
X158326666Y-102616000D01*
X158326666Y-102446667D01*
X141393333Y-102446667D01*
X141393333Y-108373333D01*
G36*
X149806762Y-107664273D02*
X149775333Y-107738333D01*
X149838228Y-107844942D01*
X149971951Y-107858953D01*
X150057555Y-107808889D01*
X150111799Y-107688062D01*
X150016282Y-107617924D01*
X149944666Y-107611333D01*
X149806762Y-107664273D01*
X149806762Y-107664273D01*
G37*
X149806762Y-107664273D02*
X149775333Y-107738333D01*
X149838228Y-107844942D01*
X149971951Y-107858953D01*
X150057555Y-107808889D01*
X150111799Y-107688062D01*
X150016282Y-107617924D01*
X149944666Y-107611333D01*
X149806762Y-107664273D01*
G36*
X149807086Y-107308123D02*
X149775333Y-107357333D01*
X149846246Y-107426123D01*
X149944666Y-107442000D01*
X150082247Y-107406544D01*
X150114000Y-107357333D01*
X150043087Y-107288543D01*
X149944666Y-107272667D01*
X149807086Y-107308123D01*
X149807086Y-107308123D01*
G37*
X149807086Y-107308123D02*
X149775333Y-107357333D01*
X149846246Y-107426123D01*
X149944666Y-107442000D01*
X150082247Y-107406544D01*
X150114000Y-107357333D01*
X150043087Y-107288543D01*
X149944666Y-107272667D01*
X149807086Y-107308123D01*
G36*
X145046183Y-107418860D02*
X145034000Y-107479336D01*
X145078204Y-107595179D01*
X145118666Y-107611333D01*
X145200910Y-107550566D01*
X145203333Y-107531663D01*
X145141789Y-107416996D01*
X145118666Y-107399667D01*
X145046183Y-107418860D01*
X145046183Y-107418860D01*
G37*
X145046183Y-107418860D02*
X145034000Y-107479336D01*
X145078204Y-107595179D01*
X145118666Y-107611333D01*
X145200910Y-107550566D01*
X145203333Y-107531663D01*
X145141789Y-107416996D01*
X145118666Y-107399667D01*
X145046183Y-107418860D01*
G36*
X154801334Y-103094201D02*
X154254427Y-103304342D01*
X153802758Y-103640178D01*
X153461821Y-104087846D01*
X153247112Y-104633484D01*
X153182737Y-105032177D01*
X153209250Y-105651831D01*
X153390774Y-106205487D01*
X153723666Y-106686334D01*
X154204282Y-107087559D01*
X154319982Y-107158923D01*
X154669611Y-107303657D01*
X155097150Y-107395442D01*
X155531526Y-107425199D01*
X155901664Y-107383850D01*
X155956548Y-107367969D01*
X156522661Y-107100726D01*
X156980525Y-106716095D01*
X157315366Y-106234054D01*
X157512412Y-105674580D01*
X157560948Y-105198333D01*
X157559813Y-105189448D01*
X157141333Y-105189448D01*
X157118323Y-105597493D01*
X157032020Y-105911236D01*
X156856516Y-106201534D01*
X156703231Y-106387552D01*
X156294772Y-106736868D01*
X155820794Y-106948740D01*
X155314576Y-107014852D01*
X154809398Y-106926883D01*
X154704447Y-106887175D01*
X154256298Y-106620255D01*
X153920948Y-106259526D01*
X153700040Y-105833429D01*
X153595217Y-105370407D01*
X153608118Y-104898905D01*
X153740387Y-104447363D01*
X153993666Y-104044226D01*
X154369595Y-103717936D01*
X154516666Y-103634093D01*
X154994092Y-103450288D01*
X155449364Y-103409566D01*
X155777645Y-103460502D01*
X156279731Y-103662043D01*
X156683915Y-103989256D01*
X156971189Y-104418039D01*
X157122543Y-104924293D01*
X157141333Y-105189448D01*
X157559813Y-105189448D01*
X157484292Y-104598716D01*
X157266576Y-104069036D01*
X156926173Y-103628028D01*
X156481458Y-103294426D01*
X155950805Y-103086962D01*
X155427980Y-103023617D01*
X154801334Y-103094201D01*
X154801334Y-103094201D01*
G37*
X154801334Y-103094201D02*
X154254427Y-103304342D01*
X153802758Y-103640178D01*
X153461821Y-104087846D01*
X153247112Y-104633484D01*
X153182737Y-105032177D01*
X153209250Y-105651831D01*
X153390774Y-106205487D01*
X153723666Y-106686334D01*
X154204282Y-107087559D01*
X154319982Y-107158923D01*
X154669611Y-107303657D01*
X155097150Y-107395442D01*
X155531526Y-107425199D01*
X155901664Y-107383850D01*
X155956548Y-107367969D01*
X156522661Y-107100726D01*
X156980525Y-106716095D01*
X157315366Y-106234054D01*
X157512412Y-105674580D01*
X157560948Y-105198333D01*
X157559813Y-105189448D01*
X157141333Y-105189448D01*
X157118323Y-105597493D01*
X157032020Y-105911236D01*
X156856516Y-106201534D01*
X156703231Y-106387552D01*
X156294772Y-106736868D01*
X155820794Y-106948740D01*
X155314576Y-107014852D01*
X154809398Y-106926883D01*
X154704447Y-106887175D01*
X154256298Y-106620255D01*
X153920948Y-106259526D01*
X153700040Y-105833429D01*
X153595217Y-105370407D01*
X153608118Y-104898905D01*
X153740387Y-104447363D01*
X153993666Y-104044226D01*
X154369595Y-103717936D01*
X154516666Y-103634093D01*
X154994092Y-103450288D01*
X155449364Y-103409566D01*
X155777645Y-103460502D01*
X156279731Y-103662043D01*
X156683915Y-103989256D01*
X156971189Y-104418039D01*
X157122543Y-104924293D01*
X157141333Y-105189448D01*
X157559813Y-105189448D01*
X157484292Y-104598716D01*
X157266576Y-104069036D01*
X156926173Y-103628028D01*
X156481458Y-103294426D01*
X155950805Y-103086962D01*
X155427980Y-103023617D01*
X154801334Y-103094201D01*
G36*
X148959331Y-102999482D02*
X148523590Y-103166639D01*
X148157960Y-103481279D01*
X148019664Y-103660864D01*
X147886193Y-103881854D01*
X147815002Y-104098682D01*
X147788115Y-104380683D01*
X147785666Y-104563333D01*
X147797559Y-104903264D01*
X147845060Y-105143769D01*
X147945900Y-105353810D01*
X148016577Y-105461348D01*
X148382124Y-105850596D01*
X148830645Y-106097458D01*
X149341194Y-106193245D01*
X149717317Y-106166944D01*
X150072906Y-106053181D01*
X150404503Y-105824368D01*
X150743778Y-105460560D01*
X150885192Y-105267076D01*
X150963266Y-105087140D01*
X150996309Y-104857340D01*
X151002679Y-104564001D01*
X151002663Y-104563333D01*
X150706666Y-104563333D01*
X150632856Y-105010058D01*
X150430570Y-105387121D01*
X150128527Y-105674789D01*
X149755448Y-105853330D01*
X149340051Y-105903009D01*
X148911055Y-105804093D01*
X148904780Y-105801427D01*
X148667114Y-105660988D01*
X148424166Y-105461195D01*
X148378333Y-105414868D01*
X148241462Y-105253179D01*
X148164998Y-105096940D01*
X148131702Y-104888298D01*
X148124334Y-104569399D01*
X148124333Y-104562476D01*
X148130369Y-104245617D01*
X148161573Y-104038813D01*
X148237587Y-103882873D01*
X148378056Y-103718609D01*
X148418263Y-103676813D01*
X148790292Y-103394859D01*
X149194095Y-103256865D01*
X149601110Y-103251766D01*
X149982776Y-103368496D01*
X150310530Y-103595990D01*
X150555810Y-103923185D01*
X150690053Y-104339014D01*
X150706666Y-104563333D01*
X151002663Y-104563333D01*
X150994504Y-104238256D01*
X150957349Y-104018089D01*
X150872939Y-103840084D01*
X150744099Y-103666775D01*
X150449952Y-103338821D01*
X150177083Y-103133142D01*
X149871937Y-103020113D01*
X149485193Y-102970377D01*
X148959331Y-102999482D01*
X148959331Y-102999482D01*
G37*
X148959331Y-102999482D02*
X148523590Y-103166639D01*
X148157960Y-103481279D01*
X148019664Y-103660864D01*
X147886193Y-103881854D01*
X147815002Y-104098682D01*
X147788115Y-104380683D01*
X147785666Y-104563333D01*
X147797559Y-104903264D01*
X147845060Y-105143769D01*
X147945900Y-105353810D01*
X148016577Y-105461348D01*
X148382124Y-105850596D01*
X148830645Y-106097458D01*
X149341194Y-106193245D01*
X149717317Y-106166944D01*
X150072906Y-106053181D01*
X150404503Y-105824368D01*
X150743778Y-105460560D01*
X150885192Y-105267076D01*
X150963266Y-105087140D01*
X150996309Y-104857340D01*
X151002679Y-104564001D01*
X151002663Y-104563333D01*
X150706666Y-104563333D01*
X150632856Y-105010058D01*
X150430570Y-105387121D01*
X150128527Y-105674789D01*
X149755448Y-105853330D01*
X149340051Y-105903009D01*
X148911055Y-105804093D01*
X148904780Y-105801427D01*
X148667114Y-105660988D01*
X148424166Y-105461195D01*
X148378333Y-105414868D01*
X148241462Y-105253179D01*
X148164998Y-105096940D01*
X148131702Y-104888298D01*
X148124334Y-104569399D01*
X148124333Y-104562476D01*
X148130369Y-104245617D01*
X148161573Y-104038813D01*
X148237587Y-103882873D01*
X148378056Y-103718609D01*
X148418263Y-103676813D01*
X148790292Y-103394859D01*
X149194095Y-103256865D01*
X149601110Y-103251766D01*
X149982776Y-103368496D01*
X150310530Y-103595990D01*
X150555810Y-103923185D01*
X150690053Y-104339014D01*
X150706666Y-104563333D01*
X151002663Y-104563333D01*
X150994504Y-104238256D01*
X150957349Y-104018089D01*
X150872939Y-103840084D01*
X150744099Y-103666775D01*
X150449952Y-103338821D01*
X150177083Y-103133142D01*
X149871937Y-103020113D01*
X149485193Y-102970377D01*
X148959331Y-102999482D01*
G36*
X145031125Y-103003521D02*
X144796283Y-103032238D01*
X144619150Y-103096880D01*
X144444020Y-103211178D01*
X144411834Y-103235471D01*
X144097579Y-103516303D01*
X143903579Y-103810016D01*
X143788885Y-104181334D01*
X143777883Y-104237510D01*
X143757127Y-104756007D01*
X143880707Y-105225971D01*
X144127114Y-105626435D01*
X144474839Y-105936433D01*
X144902373Y-106134998D01*
X145388208Y-106201162D01*
X145748223Y-106158201D01*
X146201380Y-105974594D01*
X146574713Y-105662030D01*
X146844109Y-105251456D01*
X146985457Y-104773822D01*
X146999978Y-104563333D01*
X146727333Y-104563333D01*
X146651313Y-104948734D01*
X146447294Y-105325968D01*
X146151338Y-105644948D01*
X145799509Y-105855584D01*
X145796000Y-105856910D01*
X145459031Y-105909813D01*
X145072453Y-105858690D01*
X144783757Y-105750583D01*
X144400351Y-105480545D01*
X144163319Y-105130048D01*
X144064434Y-104685517D01*
X144060333Y-104556743D01*
X144079421Y-104233937D01*
X144152787Y-103996806D01*
X144291710Y-103781135D01*
X144593242Y-103501187D01*
X144977500Y-103306733D01*
X145382324Y-103224054D01*
X145584357Y-103234603D01*
X145979212Y-103377456D01*
X146322236Y-103646419D01*
X146578888Y-104001339D01*
X146714626Y-104402060D01*
X146727333Y-104563333D01*
X146999978Y-104563333D01*
X147000872Y-104550387D01*
X146919631Y-104044812D01*
X146680661Y-103592173D01*
X146353682Y-103255511D01*
X146175337Y-103122772D01*
X146011807Y-103045294D01*
X145807800Y-103008404D01*
X145508025Y-102997433D01*
X145379384Y-102997000D01*
X145031125Y-103003521D01*
X145031125Y-103003521D01*
G37*
X145031125Y-103003521D02*
X144796283Y-103032238D01*
X144619150Y-103096880D01*
X144444020Y-103211178D01*
X144411834Y-103235471D01*
X144097579Y-103516303D01*
X143903579Y-103810016D01*
X143788885Y-104181334D01*
X143777883Y-104237510D01*
X143757127Y-104756007D01*
X143880707Y-105225971D01*
X144127114Y-105626435D01*
X144474839Y-105936433D01*
X144902373Y-106134998D01*
X145388208Y-106201162D01*
X145748223Y-106158201D01*
X146201380Y-105974594D01*
X146574713Y-105662030D01*
X146844109Y-105251456D01*
X146985457Y-104773822D01*
X146999978Y-104563333D01*
X146727333Y-104563333D01*
X146651313Y-104948734D01*
X146447294Y-105325968D01*
X146151338Y-105644948D01*
X145799509Y-105855584D01*
X145796000Y-105856910D01*
X145459031Y-105909813D01*
X145072453Y-105858690D01*
X144783757Y-105750583D01*
X144400351Y-105480545D01*
X144163319Y-105130048D01*
X144064434Y-104685517D01*
X144060333Y-104556743D01*
X144079421Y-104233937D01*
X144152787Y-103996806D01*
X144291710Y-103781135D01*
X144593242Y-103501187D01*
X144977500Y-103306733D01*
X145382324Y-103224054D01*
X145584357Y-103234603D01*
X145979212Y-103377456D01*
X146322236Y-103646419D01*
X146578888Y-104001339D01*
X146714626Y-104402060D01*
X146727333Y-104563333D01*
X146999978Y-104563333D01*
X147000872Y-104550387D01*
X146919631Y-104044812D01*
X146680661Y-103592173D01*
X146353682Y-103255511D01*
X146175337Y-103122772D01*
X146011807Y-103045294D01*
X145807800Y-103008404D01*
X145508025Y-102997433D01*
X145379384Y-102997000D01*
X145031125Y-103003521D01*
G36*
X155802450Y-104594332D02*
X155609195Y-104660239D01*
X155490683Y-104754963D01*
X155485111Y-104855017D01*
X155525091Y-104892621D01*
X155704929Y-104918145D01*
X155789042Y-104880867D01*
X155992941Y-104819812D01*
X156139216Y-104908570D01*
X156207476Y-105131763D01*
X156210000Y-105198333D01*
X156161923Y-105449417D01*
X156031284Y-105569494D01*
X155838471Y-105543189D01*
X155789042Y-105515799D01*
X155599119Y-105473839D01*
X155525091Y-105504157D01*
X155464192Y-105579494D01*
X155526223Y-105679476D01*
X155605546Y-105750387D01*
X155841506Y-105891660D01*
X156081651Y-105893300D01*
X156294666Y-105808816D01*
X156491340Y-105618150D01*
X156585160Y-105385117D01*
X156596718Y-105052328D01*
X156467710Y-104787463D01*
X156218740Y-104620500D01*
X156032256Y-104580732D01*
X155802450Y-104594332D01*
X155802450Y-104594332D01*
G37*
X155802450Y-104594332D02*
X155609195Y-104660239D01*
X155490683Y-104754963D01*
X155485111Y-104855017D01*
X155525091Y-104892621D01*
X155704929Y-104918145D01*
X155789042Y-104880867D01*
X155992941Y-104819812D01*
X156139216Y-104908570D01*
X156207476Y-105131763D01*
X156210000Y-105198333D01*
X156161923Y-105449417D01*
X156031284Y-105569494D01*
X155838471Y-105543189D01*
X155789042Y-105515799D01*
X155599119Y-105473839D01*
X155525091Y-105504157D01*
X155464192Y-105579494D01*
X155526223Y-105679476D01*
X155605546Y-105750387D01*
X155841506Y-105891660D01*
X156081651Y-105893300D01*
X156294666Y-105808816D01*
X156491340Y-105618150D01*
X156585160Y-105385117D01*
X156596718Y-105052328D01*
X156467710Y-104787463D01*
X156218740Y-104620500D01*
X156032256Y-104580732D01*
X155802450Y-104594332D01*
G36*
X154502304Y-104595300D02*
X154314892Y-104674548D01*
X154212794Y-104776100D01*
X154232668Y-104874978D01*
X154255091Y-104892621D01*
X154434929Y-104918145D01*
X154519042Y-104880867D01*
X154722941Y-104819812D01*
X154869216Y-104908570D01*
X154937476Y-105131763D01*
X154940000Y-105198333D01*
X154891923Y-105449417D01*
X154761284Y-105569494D01*
X154568471Y-105543189D01*
X154519042Y-105515799D01*
X154329119Y-105473839D01*
X154255091Y-105504157D01*
X154194192Y-105579494D01*
X154256223Y-105679476D01*
X154335546Y-105750387D01*
X154543359Y-105878503D01*
X154771669Y-105897745D01*
X154962317Y-105859415D01*
X155112312Y-105750332D01*
X155253384Y-105541420D01*
X155346573Y-105299496D01*
X155363333Y-105171622D01*
X155287770Y-104915533D01*
X155096663Y-104699519D01*
X154843385Y-104575529D01*
X154738370Y-104563333D01*
X154502304Y-104595300D01*
X154502304Y-104595300D01*
G37*
X154502304Y-104595300D02*
X154314892Y-104674548D01*
X154212794Y-104776100D01*
X154232668Y-104874978D01*
X154255091Y-104892621D01*
X154434929Y-104918145D01*
X154519042Y-104880867D01*
X154722941Y-104819812D01*
X154869216Y-104908570D01*
X154937476Y-105131763D01*
X154940000Y-105198333D01*
X154891923Y-105449417D01*
X154761284Y-105569494D01*
X154568471Y-105543189D01*
X154519042Y-105515799D01*
X154329119Y-105473839D01*
X154255091Y-105504157D01*
X154194192Y-105579494D01*
X154256223Y-105679476D01*
X154335546Y-105750387D01*
X154543359Y-105878503D01*
X154771669Y-105897745D01*
X154962317Y-105859415D01*
X155112312Y-105750332D01*
X155253384Y-105541420D01*
X155346573Y-105299496D01*
X155363333Y-105171622D01*
X155287770Y-104915533D01*
X155096663Y-104699519D01*
X154843385Y-104575529D01*
X154738370Y-104563333D01*
X154502304Y-104595300D01*
G36*
X148944260Y-104422924D02*
X148962375Y-104713744D01*
X149046121Y-104846257D01*
X149134862Y-104989452D01*
X149193340Y-105221219D01*
X149199861Y-105283000D01*
X149228084Y-105499722D01*
X149288670Y-105589634D01*
X149411028Y-105595236D01*
X149415500Y-105594611D01*
X149541868Y-105548905D01*
X149596191Y-105426733D01*
X149606000Y-105238985D01*
X149643421Y-104967911D01*
X149738973Y-104835999D01*
X149831462Y-104711481D01*
X149847461Y-104466447D01*
X149844806Y-104429625D01*
X149817666Y-104097667D01*
X148971000Y-104097667D01*
X148944260Y-104422924D01*
X148944260Y-104422924D01*
G37*
X148944260Y-104422924D02*
X148962375Y-104713744D01*
X149046121Y-104846257D01*
X149134862Y-104989452D01*
X149193340Y-105221219D01*
X149199861Y-105283000D01*
X149228084Y-105499722D01*
X149288670Y-105589634D01*
X149411028Y-105595236D01*
X149415500Y-105594611D01*
X149541868Y-105548905D01*
X149596191Y-105426733D01*
X149606000Y-105238985D01*
X149643421Y-104967911D01*
X149738973Y-104835999D01*
X149831462Y-104711481D01*
X149847461Y-104466447D01*
X149844806Y-104429625D01*
X149817666Y-104097667D01*
X148971000Y-104097667D01*
X148944260Y-104422924D01*
G36*
X149255228Y-103617960D02*
X149195458Y-103751053D01*
X149198548Y-103778938D01*
X149285929Y-103913995D01*
X149429406Y-103953290D01*
X149554176Y-103883855D01*
X149575165Y-103844233D01*
X149576141Y-103678790D01*
X149538266Y-103615067D01*
X149394165Y-103560732D01*
X149255228Y-103617960D01*
X149255228Y-103617960D01*
G37*
X149255228Y-103617960D02*
X149195458Y-103751053D01*
X149198548Y-103778938D01*
X149285929Y-103913995D01*
X149429406Y-103953290D01*
X149554176Y-103883855D01*
X149575165Y-103844233D01*
X149576141Y-103678790D01*
X149538266Y-103615067D01*
X149394165Y-103560732D01*
X149255228Y-103617960D01*
G36*
X145031509Y-103799984D02*
X144780333Y-103984782D01*
X144610546Y-104277938D01*
X144601829Y-104305442D01*
X144565105Y-104672062D01*
X144662353Y-105000235D01*
X144867031Y-105259502D01*
X145152592Y-105419405D01*
X145492492Y-105449486D01*
X145584333Y-105432800D01*
X145850255Y-105300495D01*
X146038165Y-105078485D01*
X146075966Y-104981183D01*
X146058628Y-104852201D01*
X145943531Y-104816427D01*
X145773940Y-104873333D01*
X145626666Y-104986667D01*
X145475034Y-105110974D01*
X145372666Y-105156000D01*
X145255864Y-105101351D01*
X145118666Y-104986667D01*
X144984914Y-104766248D01*
X144952353Y-104513754D01*
X145010171Y-104278477D01*
X145147557Y-104109706D01*
X145322945Y-104055333D01*
X145492683Y-104094915D01*
X145631191Y-104185962D01*
X145685284Y-104286927D01*
X145667746Y-104324698D01*
X145689846Y-104404879D01*
X145783341Y-104509544D01*
X145944491Y-104589760D01*
X146057804Y-104533309D01*
X146095311Y-104371688D01*
X146057164Y-104201176D01*
X145876901Y-103924139D01*
X145619440Y-103766822D01*
X145324427Y-103726384D01*
X145031509Y-103799984D01*
X145031509Y-103799984D01*
G37*
X145031509Y-103799984D02*
X144780333Y-103984782D01*
X144610546Y-104277938D01*
X144601829Y-104305442D01*
X144565105Y-104672062D01*
X144662353Y-105000235D01*
X144867031Y-105259502D01*
X145152592Y-105419405D01*
X145492492Y-105449486D01*
X145584333Y-105432800D01*
X145850255Y-105300495D01*
X146038165Y-105078485D01*
X146075966Y-104981183D01*
X146058628Y-104852201D01*
X145943531Y-104816427D01*
X145773940Y-104873333D01*
X145626666Y-104986667D01*
X145475034Y-105110974D01*
X145372666Y-105156000D01*
X145255864Y-105101351D01*
X145118666Y-104986667D01*
X144984914Y-104766248D01*
X144952353Y-104513754D01*
X145010171Y-104278477D01*
X145147557Y-104109706D01*
X145322945Y-104055333D01*
X145492683Y-104094915D01*
X145631191Y-104185962D01*
X145685284Y-104286927D01*
X145667746Y-104324698D01*
X145689846Y-104404879D01*
X145783341Y-104509544D01*
X145944491Y-104589760D01*
X146057804Y-104533309D01*
X146095311Y-104371688D01*
X146057164Y-104201176D01*
X145876901Y-103924139D01*
X145619440Y-103766822D01*
X145324427Y-103726384D01*
X145031509Y-103799984D01*
M02*
