G04 #@! TF.FileFunction,Legend,Bot*
%FSLAX46Y46*%
G04 Gerber Fmt 4.6, Leading zero omitted, Abs format (unit mm)*
G04 Created by KiCad (PCBNEW 4.0.7) date Wednesday, 20 June 2018 'PMt' 21:51:42*
%MOMM*%
%LPD*%
G01*
G04 APERTURE LIST*
%ADD10C,0.100000*%
%ADD11C,0.200000*%
%ADD12C,0.300000*%
%ADD13C,0.010000*%
G04 APERTURE END LIST*
D10*
D11*
X165820192Y-121102381D02*
X165820192Y-120102381D01*
X165391620Y-121102381D02*
X165391620Y-120578571D01*
X165439239Y-120483333D01*
X165534477Y-120435714D01*
X165677335Y-120435714D01*
X165772573Y-120483333D01*
X165820192Y-120530952D01*
X165058287Y-120435714D02*
X164677335Y-120435714D01*
X164915430Y-120102381D02*
X164915430Y-120959524D01*
X164867811Y-121054762D01*
X164772573Y-121102381D01*
X164677335Y-121102381D01*
X164486858Y-120435714D02*
X164105906Y-120435714D01*
X164344001Y-120102381D02*
X164344001Y-120959524D01*
X164296382Y-121054762D01*
X164201144Y-121102381D01*
X164105906Y-121102381D01*
X163772572Y-120435714D02*
X163772572Y-121435714D01*
X163772572Y-120483333D02*
X163677334Y-120435714D01*
X163486857Y-120435714D01*
X163391619Y-120483333D01*
X163344000Y-120530952D01*
X163296381Y-120626190D01*
X163296381Y-120911905D01*
X163344000Y-121007143D01*
X163391619Y-121054762D01*
X163486857Y-121102381D01*
X163677334Y-121102381D01*
X163772572Y-121054762D01*
X162915429Y-121054762D02*
X162820191Y-121102381D01*
X162629715Y-121102381D01*
X162534476Y-121054762D01*
X162486857Y-120959524D01*
X162486857Y-120911905D01*
X162534476Y-120816667D01*
X162629715Y-120769048D01*
X162772572Y-120769048D01*
X162867810Y-120721429D01*
X162915429Y-120626190D01*
X162915429Y-120578571D01*
X162867810Y-120483333D01*
X162772572Y-120435714D01*
X162629715Y-120435714D01*
X162534476Y-120483333D01*
X162058286Y-121007143D02*
X162010667Y-121054762D01*
X162058286Y-121102381D01*
X162105905Y-121054762D01*
X162058286Y-121007143D01*
X162058286Y-121102381D01*
X162058286Y-120483333D02*
X162010667Y-120530952D01*
X162058286Y-120578571D01*
X162105905Y-120530952D01*
X162058286Y-120483333D01*
X162058286Y-120578571D01*
X160867810Y-120054762D02*
X161724953Y-121340476D01*
X159820191Y-120054762D02*
X160677334Y-121340476D01*
X159058286Y-120435714D02*
X159058286Y-121245238D01*
X159105905Y-121340476D01*
X159153524Y-121388095D01*
X159248763Y-121435714D01*
X159391620Y-121435714D01*
X159486858Y-121388095D01*
X159058286Y-121054762D02*
X159153524Y-121102381D01*
X159344001Y-121102381D01*
X159439239Y-121054762D01*
X159486858Y-121007143D01*
X159534477Y-120911905D01*
X159534477Y-120626190D01*
X159486858Y-120530952D01*
X159439239Y-120483333D01*
X159344001Y-120435714D01*
X159153524Y-120435714D01*
X159058286Y-120483333D01*
X158582096Y-121102381D02*
X158582096Y-120435714D01*
X158582096Y-120102381D02*
X158629715Y-120150000D01*
X158582096Y-120197619D01*
X158534477Y-120150000D01*
X158582096Y-120102381D01*
X158582096Y-120197619D01*
X158248763Y-120435714D02*
X157867811Y-120435714D01*
X158105906Y-120102381D02*
X158105906Y-120959524D01*
X158058287Y-121054762D01*
X157963049Y-121102381D01*
X157867811Y-121102381D01*
X157534477Y-121102381D02*
X157534477Y-120102381D01*
X157105905Y-121102381D02*
X157105905Y-120578571D01*
X157153524Y-120483333D01*
X157248762Y-120435714D01*
X157391620Y-120435714D01*
X157486858Y-120483333D01*
X157534477Y-120530952D01*
X156201143Y-120435714D02*
X156201143Y-121102381D01*
X156629715Y-120435714D02*
X156629715Y-120959524D01*
X156582096Y-121054762D01*
X156486858Y-121102381D01*
X156344000Y-121102381D01*
X156248762Y-121054762D01*
X156201143Y-121007143D01*
X155724953Y-121102381D02*
X155724953Y-120102381D01*
X155724953Y-120483333D02*
X155629715Y-120435714D01*
X155439238Y-120435714D01*
X155344000Y-120483333D01*
X155296381Y-120530952D01*
X155248762Y-120626190D01*
X155248762Y-120911905D01*
X155296381Y-121007143D01*
X155344000Y-121054762D01*
X155439238Y-121102381D01*
X155629715Y-121102381D01*
X155724953Y-121054762D01*
X154820191Y-121007143D02*
X154772572Y-121054762D01*
X154820191Y-121102381D01*
X154867810Y-121054762D01*
X154820191Y-121007143D01*
X154820191Y-121102381D01*
X153915429Y-121054762D02*
X154010667Y-121102381D01*
X154201144Y-121102381D01*
X154296382Y-121054762D01*
X154344001Y-121007143D01*
X154391620Y-120911905D01*
X154391620Y-120626190D01*
X154344001Y-120530952D01*
X154296382Y-120483333D01*
X154201144Y-120435714D01*
X154010667Y-120435714D01*
X153915429Y-120483333D01*
X153344001Y-121102381D02*
X153439239Y-121054762D01*
X153486858Y-121007143D01*
X153534477Y-120911905D01*
X153534477Y-120626190D01*
X153486858Y-120530952D01*
X153439239Y-120483333D01*
X153344001Y-120435714D01*
X153201143Y-120435714D01*
X153105905Y-120483333D01*
X153058286Y-120530952D01*
X153010667Y-120626190D01*
X153010667Y-120911905D01*
X153058286Y-121007143D01*
X153105905Y-121054762D01*
X153201143Y-121102381D01*
X153344001Y-121102381D01*
X152582096Y-121102381D02*
X152582096Y-120435714D01*
X152582096Y-120530952D02*
X152534477Y-120483333D01*
X152439239Y-120435714D01*
X152296381Y-120435714D01*
X152201143Y-120483333D01*
X152153524Y-120578571D01*
X152153524Y-121102381D01*
X152153524Y-120578571D02*
X152105905Y-120483333D01*
X152010667Y-120435714D01*
X151867810Y-120435714D01*
X151772572Y-120483333D01*
X151724953Y-120578571D01*
X151724953Y-121102381D01*
X150534477Y-120054762D02*
X151391620Y-121340476D01*
X150248763Y-121054762D02*
X150153525Y-121102381D01*
X149963049Y-121102381D01*
X149867810Y-121054762D01*
X149820191Y-120959524D01*
X149820191Y-120911905D01*
X149867810Y-120816667D01*
X149963049Y-120769048D01*
X150105906Y-120769048D01*
X150201144Y-120721429D01*
X150248763Y-120626190D01*
X150248763Y-120578571D01*
X150201144Y-120483333D01*
X150105906Y-120435714D01*
X149963049Y-120435714D01*
X149867810Y-120483333D01*
X149534477Y-120435714D02*
X149153525Y-120435714D01*
X149391620Y-120102381D02*
X149391620Y-120959524D01*
X149344001Y-121054762D01*
X149248763Y-121102381D01*
X149153525Y-121102381D01*
X148391619Y-121102381D02*
X148391619Y-120578571D01*
X148439238Y-120483333D01*
X148534476Y-120435714D01*
X148724953Y-120435714D01*
X148820191Y-120483333D01*
X148391619Y-121054762D02*
X148486857Y-121102381D01*
X148724953Y-121102381D01*
X148820191Y-121054762D01*
X148867810Y-120959524D01*
X148867810Y-120864286D01*
X148820191Y-120769048D01*
X148724953Y-120721429D01*
X148486857Y-120721429D01*
X148391619Y-120673810D01*
X147915429Y-121102381D02*
X147915429Y-120435714D01*
X147915429Y-120626190D02*
X147867810Y-120530952D01*
X147820191Y-120483333D01*
X147724953Y-120435714D01*
X147629714Y-120435714D01*
X146867809Y-121102381D02*
X146867809Y-120102381D01*
X146867809Y-121054762D02*
X146963047Y-121102381D01*
X147153524Y-121102381D01*
X147248762Y-121054762D01*
X147296381Y-121007143D01*
X147344000Y-120911905D01*
X147344000Y-120626190D01*
X147296381Y-120530952D01*
X147248762Y-120483333D01*
X147153524Y-120435714D01*
X146963047Y-120435714D01*
X146867809Y-120483333D01*
X146248762Y-121102381D02*
X146344000Y-121054762D01*
X146391619Y-121007143D01*
X146439238Y-120911905D01*
X146439238Y-120626190D01*
X146391619Y-120530952D01*
X146344000Y-120483333D01*
X146248762Y-120435714D01*
X146105904Y-120435714D01*
X146010666Y-120483333D01*
X145963047Y-120530952D01*
X145915428Y-120626190D01*
X145915428Y-120911905D01*
X145963047Y-121007143D01*
X146010666Y-121054762D01*
X146105904Y-121102381D01*
X146248762Y-121102381D01*
X145629714Y-120435714D02*
X145248762Y-120435714D01*
X145486857Y-120102381D02*
X145486857Y-120959524D01*
X145439238Y-121054762D01*
X145344000Y-121102381D01*
X145248762Y-121102381D01*
X144201142Y-120054762D02*
X145058285Y-121340476D01*
X143486856Y-121054762D02*
X143582094Y-121102381D01*
X143772571Y-121102381D01*
X143867809Y-121054762D01*
X143915428Y-120959524D01*
X143915428Y-120578571D01*
X143867809Y-120483333D01*
X143772571Y-120435714D01*
X143582094Y-120435714D01*
X143486856Y-120483333D01*
X143439237Y-120578571D01*
X143439237Y-120673810D01*
X143915428Y-120769048D01*
X143058285Y-121054762D02*
X142963047Y-121102381D01*
X142772571Y-121102381D01*
X142677332Y-121054762D01*
X142629713Y-120959524D01*
X142629713Y-120911905D01*
X142677332Y-120816667D01*
X142772571Y-120769048D01*
X142915428Y-120769048D01*
X143010666Y-120721429D01*
X143058285Y-120626190D01*
X143058285Y-120578571D01*
X143010666Y-120483333D01*
X142915428Y-120435714D01*
X142772571Y-120435714D01*
X142677332Y-120483333D01*
X142201142Y-120435714D02*
X142201142Y-121435714D01*
X142201142Y-120483333D02*
X142105904Y-120435714D01*
X141915427Y-120435714D01*
X141820189Y-120483333D01*
X141772570Y-120530952D01*
X141724951Y-120626190D01*
X141724951Y-120911905D01*
X141772570Y-121007143D01*
X141820189Y-121054762D01*
X141915427Y-121102381D01*
X142105904Y-121102381D01*
X142201142Y-121054762D01*
X141153523Y-120530952D02*
X141248761Y-120483333D01*
X141296380Y-120435714D01*
X141343999Y-120340476D01*
X141343999Y-120292857D01*
X141296380Y-120197619D01*
X141248761Y-120150000D01*
X141153523Y-120102381D01*
X140963046Y-120102381D01*
X140867808Y-120150000D01*
X140820189Y-120197619D01*
X140772570Y-120292857D01*
X140772570Y-120340476D01*
X140820189Y-120435714D01*
X140867808Y-120483333D01*
X140963046Y-120530952D01*
X141153523Y-120530952D01*
X141248761Y-120578571D01*
X141296380Y-120626190D01*
X141343999Y-120721429D01*
X141343999Y-120911905D01*
X141296380Y-121007143D01*
X141248761Y-121054762D01*
X141153523Y-121102381D01*
X140963046Y-121102381D01*
X140867808Y-121054762D01*
X140820189Y-121007143D01*
X140772570Y-120911905D01*
X140772570Y-120721429D01*
X140820189Y-120626190D01*
X140867808Y-120578571D01*
X140963046Y-120530952D01*
X140391618Y-120197619D02*
X140343999Y-120150000D01*
X140248761Y-120102381D01*
X140010665Y-120102381D01*
X139915427Y-120150000D01*
X139867808Y-120197619D01*
X139820189Y-120292857D01*
X139820189Y-120388095D01*
X139867808Y-120530952D01*
X140439237Y-121102381D01*
X139820189Y-121102381D01*
X138963046Y-120102381D02*
X139153523Y-120102381D01*
X139248761Y-120150000D01*
X139296380Y-120197619D01*
X139391618Y-120340476D01*
X139439237Y-120530952D01*
X139439237Y-120911905D01*
X139391618Y-121007143D01*
X139343999Y-121054762D01*
X139248761Y-121102381D01*
X139058284Y-121102381D01*
X138963046Y-121054762D01*
X138915427Y-121007143D01*
X138867808Y-120911905D01*
X138867808Y-120673810D01*
X138915427Y-120578571D01*
X138963046Y-120530952D01*
X139058284Y-120483333D01*
X139248761Y-120483333D01*
X139343999Y-120530952D01*
X139391618Y-120578571D01*
X139439237Y-120673810D01*
X138010665Y-120102381D02*
X138201142Y-120102381D01*
X138296380Y-120150000D01*
X138343999Y-120197619D01*
X138439237Y-120340476D01*
X138486856Y-120530952D01*
X138486856Y-120911905D01*
X138439237Y-121007143D01*
X138391618Y-121054762D01*
X138296380Y-121102381D01*
X138105903Y-121102381D01*
X138010665Y-121054762D01*
X137963046Y-121007143D01*
X137915427Y-120911905D01*
X137915427Y-120673810D01*
X137963046Y-120578571D01*
X138010665Y-120530952D01*
X138105903Y-120483333D01*
X138296380Y-120483333D01*
X138391618Y-120530952D01*
X138439237Y-120578571D01*
X138486856Y-120673810D01*
X137724951Y-121197619D02*
X136963046Y-121197619D01*
X136724951Y-121102381D02*
X136724951Y-120435714D01*
X136724951Y-120530952D02*
X136677332Y-120483333D01*
X136582094Y-120435714D01*
X136439236Y-120435714D01*
X136343998Y-120483333D01*
X136296379Y-120578571D01*
X136296379Y-121102381D01*
X136296379Y-120578571D02*
X136248760Y-120483333D01*
X136153522Y-120435714D01*
X136010665Y-120435714D01*
X135915427Y-120483333D01*
X135867808Y-120578571D01*
X135867808Y-121102381D01*
X135248761Y-121102381D02*
X135343999Y-121054762D01*
X135391618Y-121007143D01*
X135439237Y-120911905D01*
X135439237Y-120626190D01*
X135391618Y-120530952D01*
X135343999Y-120483333D01*
X135248761Y-120435714D01*
X135105903Y-120435714D01*
X135010665Y-120483333D01*
X134963046Y-120530952D01*
X134915427Y-120626190D01*
X134915427Y-120911905D01*
X134963046Y-121007143D01*
X135010665Y-121054762D01*
X135105903Y-121102381D01*
X135248761Y-121102381D01*
X134058284Y-121102381D02*
X134058284Y-120102381D01*
X134058284Y-121054762D02*
X134153522Y-121102381D01*
X134343999Y-121102381D01*
X134439237Y-121054762D01*
X134486856Y-121007143D01*
X134534475Y-120911905D01*
X134534475Y-120626190D01*
X134486856Y-120530952D01*
X134439237Y-120483333D01*
X134343999Y-120435714D01*
X134153522Y-120435714D01*
X134058284Y-120483333D01*
X133201141Y-121054762D02*
X133296379Y-121102381D01*
X133486856Y-121102381D01*
X133582094Y-121054762D01*
X133629713Y-120959524D01*
X133629713Y-120578571D01*
X133582094Y-120483333D01*
X133486856Y-120435714D01*
X133296379Y-120435714D01*
X133201141Y-120483333D01*
X133153522Y-120578571D01*
X133153522Y-120673810D01*
X133629713Y-120769048D01*
X132724951Y-121102381D02*
X132724951Y-120435714D01*
X132724951Y-120530952D02*
X132677332Y-120483333D01*
X132582094Y-120435714D01*
X132439236Y-120435714D01*
X132343998Y-120483333D01*
X132296379Y-120578571D01*
X132296379Y-121102381D01*
X132296379Y-120578571D02*
X132248760Y-120483333D01*
X132153522Y-120435714D01*
X132010665Y-120435714D01*
X131915427Y-120483333D01*
X131867808Y-120578571D01*
X131867808Y-121102381D01*
D12*
X164407713Y-115296000D02*
X164479141Y-115224571D01*
X164621998Y-115010286D01*
X164693427Y-114867429D01*
X164764856Y-114653143D01*
X164836284Y-114296000D01*
X164836284Y-114010286D01*
X164764856Y-113653143D01*
X164693427Y-113438857D01*
X164621998Y-113296000D01*
X164479141Y-113081714D01*
X164407713Y-113010286D01*
X163193427Y-114653143D02*
X163336284Y-114724571D01*
X163621998Y-114724571D01*
X163764856Y-114653143D01*
X163836284Y-114581714D01*
X163907713Y-114438857D01*
X163907713Y-114010286D01*
X163836284Y-113867429D01*
X163764856Y-113796000D01*
X163621998Y-113724571D01*
X163336284Y-113724571D01*
X163193427Y-113796000D01*
X162693427Y-115296000D02*
X162621999Y-115224571D01*
X162479142Y-115010286D01*
X162407713Y-114867429D01*
X162336284Y-114653143D01*
X162264856Y-114296000D01*
X162264856Y-114010286D01*
X162336284Y-113653143D01*
X162407713Y-113438857D01*
X162479142Y-113296000D01*
X162621999Y-113081714D01*
X162693427Y-113010286D01*
X160479142Y-113367429D02*
X160407713Y-113296000D01*
X160264856Y-113224571D01*
X159907713Y-113224571D01*
X159764856Y-113296000D01*
X159693427Y-113367429D01*
X159621999Y-113510286D01*
X159621999Y-113653143D01*
X159693427Y-113867429D01*
X160550570Y-114724571D01*
X159621999Y-114724571D01*
X158693428Y-113224571D02*
X158550571Y-113224571D01*
X158407714Y-113296000D01*
X158336285Y-113367429D01*
X158264856Y-113510286D01*
X158193428Y-113796000D01*
X158193428Y-114153143D01*
X158264856Y-114438857D01*
X158336285Y-114581714D01*
X158407714Y-114653143D01*
X158550571Y-114724571D01*
X158693428Y-114724571D01*
X158836285Y-114653143D01*
X158907714Y-114581714D01*
X158979142Y-114438857D01*
X159050571Y-114153143D01*
X159050571Y-113796000D01*
X158979142Y-113510286D01*
X158907714Y-113367429D01*
X158836285Y-113296000D01*
X158693428Y-113224571D01*
X156764857Y-114724571D02*
X157622000Y-114724571D01*
X157193428Y-114724571D02*
X157193428Y-113224571D01*
X157336285Y-113438857D01*
X157479143Y-113581714D01*
X157622000Y-113653143D01*
X155907714Y-113867429D02*
X156050572Y-113796000D01*
X156122000Y-113724571D01*
X156193429Y-113581714D01*
X156193429Y-113510286D01*
X156122000Y-113367429D01*
X156050572Y-113296000D01*
X155907714Y-113224571D01*
X155622000Y-113224571D01*
X155479143Y-113296000D01*
X155407714Y-113367429D01*
X155336286Y-113510286D01*
X155336286Y-113581714D01*
X155407714Y-113724571D01*
X155479143Y-113796000D01*
X155622000Y-113867429D01*
X155907714Y-113867429D01*
X156050572Y-113938857D01*
X156122000Y-114010286D01*
X156193429Y-114153143D01*
X156193429Y-114438857D01*
X156122000Y-114581714D01*
X156050572Y-114653143D01*
X155907714Y-114724571D01*
X155622000Y-114724571D01*
X155479143Y-114653143D01*
X155407714Y-114581714D01*
X155336286Y-114438857D01*
X155336286Y-114153143D01*
X155407714Y-114010286D01*
X155479143Y-113938857D01*
X155622000Y-113867429D01*
X153550572Y-114724571D02*
X153550572Y-113224571D01*
X153193429Y-113224571D01*
X152979144Y-113296000D01*
X152836286Y-113438857D01*
X152764858Y-113581714D01*
X152693429Y-113867429D01*
X152693429Y-114081714D01*
X152764858Y-114367429D01*
X152836286Y-114510286D01*
X152979144Y-114653143D01*
X153193429Y-114724571D01*
X153550572Y-114724571D01*
X151407715Y-114724571D02*
X151407715Y-113938857D01*
X151479144Y-113796000D01*
X151622001Y-113724571D01*
X151907715Y-113724571D01*
X152050572Y-113796000D01*
X151407715Y-114653143D02*
X151550572Y-114724571D01*
X151907715Y-114724571D01*
X152050572Y-114653143D01*
X152122001Y-114510286D01*
X152122001Y-114367429D01*
X152050572Y-114224571D01*
X151907715Y-114153143D01*
X151550572Y-114153143D01*
X151407715Y-114081714D01*
X150693429Y-113724571D02*
X150693429Y-114724571D01*
X150693429Y-113867429D02*
X150622001Y-113796000D01*
X150479143Y-113724571D01*
X150264858Y-113724571D01*
X150122001Y-113796000D01*
X150050572Y-113938857D01*
X150050572Y-114724571D01*
X149336286Y-114724571D02*
X149336286Y-113724571D01*
X149336286Y-113224571D02*
X149407715Y-113296000D01*
X149336286Y-113367429D01*
X149264858Y-113296000D01*
X149336286Y-113224571D01*
X149336286Y-113367429D01*
X148050572Y-114653143D02*
X148193429Y-114724571D01*
X148479143Y-114724571D01*
X148622000Y-114653143D01*
X148693429Y-114510286D01*
X148693429Y-113938857D01*
X148622000Y-113796000D01*
X148479143Y-113724571D01*
X148193429Y-113724571D01*
X148050572Y-113796000D01*
X147979143Y-113938857D01*
X147979143Y-114081714D01*
X148693429Y-114224571D01*
X147122000Y-114724571D02*
X147264858Y-114653143D01*
X147336286Y-114510286D01*
X147336286Y-113224571D01*
X144979144Y-113224571D02*
X144979144Y-114296000D01*
X145050572Y-114510286D01*
X145193429Y-114653143D01*
X145407715Y-114724571D01*
X145550572Y-114724571D01*
X143622001Y-114724571D02*
X143622001Y-113938857D01*
X143693430Y-113796000D01*
X143836287Y-113724571D01*
X144122001Y-113724571D01*
X144264858Y-113796000D01*
X143622001Y-114653143D02*
X143764858Y-114724571D01*
X144122001Y-114724571D01*
X144264858Y-114653143D01*
X144336287Y-114510286D01*
X144336287Y-114367429D01*
X144264858Y-114224571D01*
X144122001Y-114153143D01*
X143764858Y-114153143D01*
X143622001Y-114081714D01*
X142907715Y-114724571D02*
X142907715Y-113724571D01*
X142907715Y-113867429D02*
X142836287Y-113796000D01*
X142693429Y-113724571D01*
X142479144Y-113724571D01*
X142336287Y-113796000D01*
X142264858Y-113938857D01*
X142264858Y-114724571D01*
X142264858Y-113938857D02*
X142193429Y-113796000D01*
X142050572Y-113724571D01*
X141836287Y-113724571D01*
X141693429Y-113796000D01*
X141622001Y-113938857D01*
X141622001Y-114724571D01*
X140336287Y-114653143D02*
X140479144Y-114724571D01*
X140764858Y-114724571D01*
X140907715Y-114653143D01*
X140979144Y-114510286D01*
X140979144Y-113938857D01*
X140907715Y-113796000D01*
X140764858Y-113724571D01*
X140479144Y-113724571D01*
X140336287Y-113796000D01*
X140264858Y-113938857D01*
X140264858Y-114081714D01*
X140979144Y-114224571D01*
X139693430Y-114653143D02*
X139550573Y-114724571D01*
X139264858Y-114724571D01*
X139122001Y-114653143D01*
X139050573Y-114510286D01*
X139050573Y-114438857D01*
X139122001Y-114296000D01*
X139264858Y-114224571D01*
X139479144Y-114224571D01*
X139622001Y-114153143D01*
X139693430Y-114010286D01*
X139693430Y-113938857D01*
X139622001Y-113796000D01*
X139479144Y-113724571D01*
X139264858Y-113724571D01*
X139122001Y-113796000D01*
X138193429Y-114724571D02*
X138336287Y-114653143D01*
X138407715Y-114581714D01*
X138479144Y-114438857D01*
X138479144Y-114010286D01*
X138407715Y-113867429D01*
X138336287Y-113796000D01*
X138193429Y-113724571D01*
X137979144Y-113724571D01*
X137836287Y-113796000D01*
X137764858Y-113867429D01*
X137693429Y-114010286D01*
X137693429Y-114438857D01*
X137764858Y-114581714D01*
X137836287Y-114653143D01*
X137979144Y-114724571D01*
X138193429Y-114724571D01*
X137050572Y-113724571D02*
X137050572Y-114724571D01*
X137050572Y-113867429D02*
X136979144Y-113796000D01*
X136836286Y-113724571D01*
X136622001Y-113724571D01*
X136479144Y-113796000D01*
X136407715Y-113938857D01*
X136407715Y-114724571D01*
D13*
G36*
X141139333Y-111167333D02*
X158072666Y-111167333D01*
X158072666Y-105410000D01*
X157903333Y-105410000D01*
X157903333Y-109389333D01*
X157621170Y-109389333D01*
X157419537Y-109418489D01*
X157246107Y-109529339D01*
X157064471Y-109730956D01*
X156630628Y-110167528D01*
X156140615Y-110455912D01*
X155573244Y-110605213D01*
X154976646Y-110628094D01*
X154566532Y-110589915D01*
X154236854Y-110502080D01*
X153926829Y-110356368D01*
X153604330Y-110139396D01*
X153339260Y-109897333D01*
X150029333Y-109897333D01*
X150029333Y-110828667D01*
X149743367Y-110828667D01*
X149521459Y-110798768D01*
X149372774Y-110726255D01*
X149367860Y-110720777D01*
X149321104Y-110570132D01*
X149318486Y-110327657D01*
X149326308Y-110255110D01*
X149365162Y-110030852D01*
X149434036Y-109927753D01*
X149530340Y-109908919D01*
X149108579Y-109908919D01*
X149104241Y-110038365D01*
X149057841Y-110147129D01*
X148966529Y-110370638D01*
X148928666Y-110556351D01*
X148901731Y-110719033D01*
X148872222Y-110772222D01*
X148755169Y-110827031D01*
X148686235Y-110728908D01*
X148674666Y-110608903D01*
X148663172Y-110557136D01*
X146104463Y-110557136D01*
X146032260Y-110664600D01*
X146012958Y-110684280D01*
X145786066Y-110814191D01*
X145600221Y-110793651D01*
X145244474Y-110793651D01*
X145168760Y-110827410D01*
X145075518Y-110727319D01*
X145064618Y-110701667D01*
X144949295Y-110595162D01*
X144852951Y-110574667D01*
X144694044Y-110632700D01*
X144641284Y-110701667D01*
X144555801Y-110812585D01*
X144468930Y-110809414D01*
X144441333Y-110725664D01*
X144475305Y-110539999D01*
X144559602Y-110309092D01*
X144667800Y-110088874D01*
X144773472Y-109935276D01*
X144832700Y-109897333D01*
X144943592Y-109977068D01*
X145073345Y-110202079D01*
X145210331Y-110551076D01*
X145241289Y-110645541D01*
X145244474Y-110793651D01*
X145600221Y-110793651D01*
X145550058Y-110788107D01*
X145424645Y-110699216D01*
X145334540Y-110528732D01*
X145407611Y-110373116D01*
X145637715Y-110244900D01*
X145649277Y-110240805D01*
X145818784Y-110163180D01*
X145842280Y-110087634D01*
X145811822Y-110048622D01*
X145696578Y-109992196D01*
X145609733Y-110049733D01*
X145469395Y-110143221D01*
X145382867Y-110115423D01*
X145372666Y-110064851D01*
X145441283Y-109969679D01*
X145581826Y-109883070D01*
X145775808Y-109831089D01*
X145920493Y-109895252D01*
X146042686Y-110074088D01*
X146007321Y-110248350D01*
X145823308Y-110382441D01*
X145796000Y-110392646D01*
X145619901Y-110479066D01*
X145542190Y-110566742D01*
X145542000Y-110570262D01*
X145606383Y-110643135D01*
X145743244Y-110654303D01*
X145868156Y-110605727D01*
X145899011Y-110561967D01*
X145992441Y-110495595D01*
X146044406Y-110502246D01*
X146104463Y-110557136D01*
X148663172Y-110557136D01*
X148625541Y-110387659D01*
X148506611Y-110153305D01*
X148499568Y-110143237D01*
X148395207Y-109978392D01*
X148395761Y-109908079D01*
X148453027Y-109897333D01*
X148599064Y-109963032D01*
X148670397Y-110045500D01*
X148747775Y-110147427D01*
X148821022Y-110111207D01*
X148874438Y-110045500D01*
X149022106Y-109905827D01*
X149108579Y-109908919D01*
X149530340Y-109908919D01*
X149582322Y-109898753D01*
X149701814Y-109897333D01*
X150029333Y-109897333D01*
X153339260Y-109897333D01*
X153314017Y-109874281D01*
X153212849Y-109753294D01*
X152950333Y-109395937D01*
X147129500Y-109392635D01*
X141308666Y-109389333D01*
X141308666Y-105410000D01*
X157903333Y-105410000D01*
X158072666Y-105410000D01*
X158072666Y-105240667D01*
X141139333Y-105240667D01*
X141139333Y-111167333D01*
X141139333Y-111167333D01*
G37*
X141139333Y-111167333D02*
X158072666Y-111167333D01*
X158072666Y-105410000D01*
X157903333Y-105410000D01*
X157903333Y-109389333D01*
X157621170Y-109389333D01*
X157419537Y-109418489D01*
X157246107Y-109529339D01*
X157064471Y-109730956D01*
X156630628Y-110167528D01*
X156140615Y-110455912D01*
X155573244Y-110605213D01*
X154976646Y-110628094D01*
X154566532Y-110589915D01*
X154236854Y-110502080D01*
X153926829Y-110356368D01*
X153604330Y-110139396D01*
X153339260Y-109897333D01*
X150029333Y-109897333D01*
X150029333Y-110828667D01*
X149743367Y-110828667D01*
X149521459Y-110798768D01*
X149372774Y-110726255D01*
X149367860Y-110720777D01*
X149321104Y-110570132D01*
X149318486Y-110327657D01*
X149326308Y-110255110D01*
X149365162Y-110030852D01*
X149434036Y-109927753D01*
X149530340Y-109908919D01*
X149108579Y-109908919D01*
X149104241Y-110038365D01*
X149057841Y-110147129D01*
X148966529Y-110370638D01*
X148928666Y-110556351D01*
X148901731Y-110719033D01*
X148872222Y-110772222D01*
X148755169Y-110827031D01*
X148686235Y-110728908D01*
X148674666Y-110608903D01*
X148663172Y-110557136D01*
X146104463Y-110557136D01*
X146032260Y-110664600D01*
X146012958Y-110684280D01*
X145786066Y-110814191D01*
X145600221Y-110793651D01*
X145244474Y-110793651D01*
X145168760Y-110827410D01*
X145075518Y-110727319D01*
X145064618Y-110701667D01*
X144949295Y-110595162D01*
X144852951Y-110574667D01*
X144694044Y-110632700D01*
X144641284Y-110701667D01*
X144555801Y-110812585D01*
X144468930Y-110809414D01*
X144441333Y-110725664D01*
X144475305Y-110539999D01*
X144559602Y-110309092D01*
X144667800Y-110088874D01*
X144773472Y-109935276D01*
X144832700Y-109897333D01*
X144943592Y-109977068D01*
X145073345Y-110202079D01*
X145210331Y-110551076D01*
X145241289Y-110645541D01*
X145244474Y-110793651D01*
X145600221Y-110793651D01*
X145550058Y-110788107D01*
X145424645Y-110699216D01*
X145334540Y-110528732D01*
X145407611Y-110373116D01*
X145637715Y-110244900D01*
X145649277Y-110240805D01*
X145818784Y-110163180D01*
X145842280Y-110087634D01*
X145811822Y-110048622D01*
X145696578Y-109992196D01*
X145609733Y-110049733D01*
X145469395Y-110143221D01*
X145382867Y-110115423D01*
X145372666Y-110064851D01*
X145441283Y-109969679D01*
X145581826Y-109883070D01*
X145775808Y-109831089D01*
X145920493Y-109895252D01*
X146042686Y-110074088D01*
X146007321Y-110248350D01*
X145823308Y-110382441D01*
X145796000Y-110392646D01*
X145619901Y-110479066D01*
X145542190Y-110566742D01*
X145542000Y-110570262D01*
X145606383Y-110643135D01*
X145743244Y-110654303D01*
X145868156Y-110605727D01*
X145899011Y-110561967D01*
X145992441Y-110495595D01*
X146044406Y-110502246D01*
X146104463Y-110557136D01*
X148663172Y-110557136D01*
X148625541Y-110387659D01*
X148506611Y-110153305D01*
X148499568Y-110143237D01*
X148395207Y-109978392D01*
X148395761Y-109908079D01*
X148453027Y-109897333D01*
X148599064Y-109963032D01*
X148670397Y-110045500D01*
X148747775Y-110147427D01*
X148821022Y-110111207D01*
X148874438Y-110045500D01*
X149022106Y-109905827D01*
X149108579Y-109908919D01*
X149530340Y-109908919D01*
X149582322Y-109898753D01*
X149701814Y-109897333D01*
X150029333Y-109897333D01*
X153339260Y-109897333D01*
X153314017Y-109874281D01*
X153212849Y-109753294D01*
X152950333Y-109395937D01*
X147129500Y-109392635D01*
X141308666Y-109389333D01*
X141308666Y-105410000D01*
X157903333Y-105410000D01*
X158072666Y-105410000D01*
X158072666Y-105240667D01*
X141139333Y-105240667D01*
X141139333Y-111167333D01*
G36*
X149552762Y-110458273D02*
X149521333Y-110532333D01*
X149584228Y-110638942D01*
X149717951Y-110652953D01*
X149803555Y-110602889D01*
X149857799Y-110482062D01*
X149762282Y-110411924D01*
X149690666Y-110405333D01*
X149552762Y-110458273D01*
X149552762Y-110458273D01*
G37*
X149552762Y-110458273D02*
X149521333Y-110532333D01*
X149584228Y-110638942D01*
X149717951Y-110652953D01*
X149803555Y-110602889D01*
X149857799Y-110482062D01*
X149762282Y-110411924D01*
X149690666Y-110405333D01*
X149552762Y-110458273D01*
G36*
X149553086Y-110102123D02*
X149521333Y-110151333D01*
X149592246Y-110220123D01*
X149690666Y-110236000D01*
X149828247Y-110200544D01*
X149860000Y-110151333D01*
X149789087Y-110082543D01*
X149690666Y-110066667D01*
X149553086Y-110102123D01*
X149553086Y-110102123D01*
G37*
X149553086Y-110102123D02*
X149521333Y-110151333D01*
X149592246Y-110220123D01*
X149690666Y-110236000D01*
X149828247Y-110200544D01*
X149860000Y-110151333D01*
X149789087Y-110082543D01*
X149690666Y-110066667D01*
X149553086Y-110102123D01*
G36*
X144792183Y-110212860D02*
X144780000Y-110273336D01*
X144824204Y-110389179D01*
X144864666Y-110405333D01*
X144946910Y-110344566D01*
X144949333Y-110325663D01*
X144887789Y-110210996D01*
X144864666Y-110193667D01*
X144792183Y-110212860D01*
X144792183Y-110212860D01*
G37*
X144792183Y-110212860D02*
X144780000Y-110273336D01*
X144824204Y-110389179D01*
X144864666Y-110405333D01*
X144946910Y-110344566D01*
X144949333Y-110325663D01*
X144887789Y-110210996D01*
X144864666Y-110193667D01*
X144792183Y-110212860D01*
G36*
X154547334Y-105888201D02*
X154000427Y-106098342D01*
X153548758Y-106434178D01*
X153207821Y-106881846D01*
X152993112Y-107427484D01*
X152928737Y-107826177D01*
X152955250Y-108445831D01*
X153136774Y-108999487D01*
X153469666Y-109480334D01*
X153950282Y-109881559D01*
X154065982Y-109952923D01*
X154415611Y-110097657D01*
X154843150Y-110189442D01*
X155277526Y-110219199D01*
X155647664Y-110177850D01*
X155702548Y-110161969D01*
X156268661Y-109894726D01*
X156726525Y-109510095D01*
X157061366Y-109028054D01*
X157258412Y-108468580D01*
X157306948Y-107992333D01*
X157305813Y-107983448D01*
X156887333Y-107983448D01*
X156864323Y-108391493D01*
X156778020Y-108705236D01*
X156602516Y-108995534D01*
X156449231Y-109181552D01*
X156040772Y-109530868D01*
X155566794Y-109742740D01*
X155060576Y-109808852D01*
X154555398Y-109720883D01*
X154450447Y-109681175D01*
X154002298Y-109414255D01*
X153666948Y-109053526D01*
X153446040Y-108627429D01*
X153341217Y-108164407D01*
X153354118Y-107692905D01*
X153486387Y-107241363D01*
X153739666Y-106838226D01*
X154115595Y-106511936D01*
X154262666Y-106428093D01*
X154740092Y-106244288D01*
X155195364Y-106203566D01*
X155523645Y-106254502D01*
X156025731Y-106456043D01*
X156429915Y-106783256D01*
X156717189Y-107212039D01*
X156868543Y-107718293D01*
X156887333Y-107983448D01*
X157305813Y-107983448D01*
X157230292Y-107392716D01*
X157012576Y-106863036D01*
X156672173Y-106422028D01*
X156227458Y-106088426D01*
X155696805Y-105880962D01*
X155173980Y-105817617D01*
X154547334Y-105888201D01*
X154547334Y-105888201D01*
G37*
X154547334Y-105888201D02*
X154000427Y-106098342D01*
X153548758Y-106434178D01*
X153207821Y-106881846D01*
X152993112Y-107427484D01*
X152928737Y-107826177D01*
X152955250Y-108445831D01*
X153136774Y-108999487D01*
X153469666Y-109480334D01*
X153950282Y-109881559D01*
X154065982Y-109952923D01*
X154415611Y-110097657D01*
X154843150Y-110189442D01*
X155277526Y-110219199D01*
X155647664Y-110177850D01*
X155702548Y-110161969D01*
X156268661Y-109894726D01*
X156726525Y-109510095D01*
X157061366Y-109028054D01*
X157258412Y-108468580D01*
X157306948Y-107992333D01*
X157305813Y-107983448D01*
X156887333Y-107983448D01*
X156864323Y-108391493D01*
X156778020Y-108705236D01*
X156602516Y-108995534D01*
X156449231Y-109181552D01*
X156040772Y-109530868D01*
X155566794Y-109742740D01*
X155060576Y-109808852D01*
X154555398Y-109720883D01*
X154450447Y-109681175D01*
X154002298Y-109414255D01*
X153666948Y-109053526D01*
X153446040Y-108627429D01*
X153341217Y-108164407D01*
X153354118Y-107692905D01*
X153486387Y-107241363D01*
X153739666Y-106838226D01*
X154115595Y-106511936D01*
X154262666Y-106428093D01*
X154740092Y-106244288D01*
X155195364Y-106203566D01*
X155523645Y-106254502D01*
X156025731Y-106456043D01*
X156429915Y-106783256D01*
X156717189Y-107212039D01*
X156868543Y-107718293D01*
X156887333Y-107983448D01*
X157305813Y-107983448D01*
X157230292Y-107392716D01*
X157012576Y-106863036D01*
X156672173Y-106422028D01*
X156227458Y-106088426D01*
X155696805Y-105880962D01*
X155173980Y-105817617D01*
X154547334Y-105888201D01*
G36*
X148705331Y-105793482D02*
X148269590Y-105960639D01*
X147903960Y-106275279D01*
X147765664Y-106454864D01*
X147632193Y-106675854D01*
X147561002Y-106892682D01*
X147534115Y-107174683D01*
X147531666Y-107357333D01*
X147543559Y-107697264D01*
X147591060Y-107937769D01*
X147691900Y-108147810D01*
X147762577Y-108255348D01*
X148128124Y-108644596D01*
X148576645Y-108891458D01*
X149087194Y-108987245D01*
X149463317Y-108960944D01*
X149818906Y-108847181D01*
X150150503Y-108618368D01*
X150489778Y-108254560D01*
X150631192Y-108061076D01*
X150709266Y-107881140D01*
X150742309Y-107651340D01*
X150748679Y-107358001D01*
X150748663Y-107357333D01*
X150452666Y-107357333D01*
X150378856Y-107804058D01*
X150176570Y-108181121D01*
X149874527Y-108468789D01*
X149501448Y-108647330D01*
X149086051Y-108697009D01*
X148657055Y-108598093D01*
X148650780Y-108595427D01*
X148413114Y-108454988D01*
X148170166Y-108255195D01*
X148124333Y-108208868D01*
X147987462Y-108047179D01*
X147910998Y-107890940D01*
X147877702Y-107682298D01*
X147870334Y-107363399D01*
X147870333Y-107356476D01*
X147876369Y-107039617D01*
X147907573Y-106832813D01*
X147983587Y-106676873D01*
X148124056Y-106512609D01*
X148164263Y-106470813D01*
X148536292Y-106188859D01*
X148940095Y-106050865D01*
X149347110Y-106045766D01*
X149728776Y-106162496D01*
X150056530Y-106389990D01*
X150301810Y-106717185D01*
X150436053Y-107133014D01*
X150452666Y-107357333D01*
X150748663Y-107357333D01*
X150740504Y-107032256D01*
X150703349Y-106812089D01*
X150618939Y-106634084D01*
X150490099Y-106460775D01*
X150195952Y-106132821D01*
X149923083Y-105927142D01*
X149617937Y-105814113D01*
X149231193Y-105764377D01*
X148705331Y-105793482D01*
X148705331Y-105793482D01*
G37*
X148705331Y-105793482D02*
X148269590Y-105960639D01*
X147903960Y-106275279D01*
X147765664Y-106454864D01*
X147632193Y-106675854D01*
X147561002Y-106892682D01*
X147534115Y-107174683D01*
X147531666Y-107357333D01*
X147543559Y-107697264D01*
X147591060Y-107937769D01*
X147691900Y-108147810D01*
X147762577Y-108255348D01*
X148128124Y-108644596D01*
X148576645Y-108891458D01*
X149087194Y-108987245D01*
X149463317Y-108960944D01*
X149818906Y-108847181D01*
X150150503Y-108618368D01*
X150489778Y-108254560D01*
X150631192Y-108061076D01*
X150709266Y-107881140D01*
X150742309Y-107651340D01*
X150748679Y-107358001D01*
X150748663Y-107357333D01*
X150452666Y-107357333D01*
X150378856Y-107804058D01*
X150176570Y-108181121D01*
X149874527Y-108468789D01*
X149501448Y-108647330D01*
X149086051Y-108697009D01*
X148657055Y-108598093D01*
X148650780Y-108595427D01*
X148413114Y-108454988D01*
X148170166Y-108255195D01*
X148124333Y-108208868D01*
X147987462Y-108047179D01*
X147910998Y-107890940D01*
X147877702Y-107682298D01*
X147870334Y-107363399D01*
X147870333Y-107356476D01*
X147876369Y-107039617D01*
X147907573Y-106832813D01*
X147983587Y-106676873D01*
X148124056Y-106512609D01*
X148164263Y-106470813D01*
X148536292Y-106188859D01*
X148940095Y-106050865D01*
X149347110Y-106045766D01*
X149728776Y-106162496D01*
X150056530Y-106389990D01*
X150301810Y-106717185D01*
X150436053Y-107133014D01*
X150452666Y-107357333D01*
X150748663Y-107357333D01*
X150740504Y-107032256D01*
X150703349Y-106812089D01*
X150618939Y-106634084D01*
X150490099Y-106460775D01*
X150195952Y-106132821D01*
X149923083Y-105927142D01*
X149617937Y-105814113D01*
X149231193Y-105764377D01*
X148705331Y-105793482D01*
G36*
X144777125Y-105797521D02*
X144542283Y-105826238D01*
X144365150Y-105890880D01*
X144190020Y-106005178D01*
X144157834Y-106029471D01*
X143843579Y-106310303D01*
X143649579Y-106604016D01*
X143534885Y-106975334D01*
X143523883Y-107031510D01*
X143503127Y-107550007D01*
X143626707Y-108019971D01*
X143873114Y-108420435D01*
X144220839Y-108730433D01*
X144648373Y-108928998D01*
X145134208Y-108995162D01*
X145494223Y-108952201D01*
X145947380Y-108768594D01*
X146320713Y-108456030D01*
X146590109Y-108045456D01*
X146731457Y-107567822D01*
X146745978Y-107357333D01*
X146473333Y-107357333D01*
X146397313Y-107742734D01*
X146193294Y-108119968D01*
X145897338Y-108438948D01*
X145545509Y-108649584D01*
X145542000Y-108650910D01*
X145205031Y-108703813D01*
X144818453Y-108652690D01*
X144529757Y-108544583D01*
X144146351Y-108274545D01*
X143909319Y-107924048D01*
X143810434Y-107479517D01*
X143806333Y-107350743D01*
X143825421Y-107027937D01*
X143898787Y-106790806D01*
X144037710Y-106575135D01*
X144339242Y-106295187D01*
X144723500Y-106100733D01*
X145128324Y-106018054D01*
X145330357Y-106028603D01*
X145725212Y-106171456D01*
X146068236Y-106440419D01*
X146324888Y-106795339D01*
X146460626Y-107196060D01*
X146473333Y-107357333D01*
X146745978Y-107357333D01*
X146746872Y-107344387D01*
X146665631Y-106838812D01*
X146426661Y-106386173D01*
X146099682Y-106049511D01*
X145921337Y-105916772D01*
X145757807Y-105839294D01*
X145553800Y-105802404D01*
X145254025Y-105791433D01*
X145125384Y-105791000D01*
X144777125Y-105797521D01*
X144777125Y-105797521D01*
G37*
X144777125Y-105797521D02*
X144542283Y-105826238D01*
X144365150Y-105890880D01*
X144190020Y-106005178D01*
X144157834Y-106029471D01*
X143843579Y-106310303D01*
X143649579Y-106604016D01*
X143534885Y-106975334D01*
X143523883Y-107031510D01*
X143503127Y-107550007D01*
X143626707Y-108019971D01*
X143873114Y-108420435D01*
X144220839Y-108730433D01*
X144648373Y-108928998D01*
X145134208Y-108995162D01*
X145494223Y-108952201D01*
X145947380Y-108768594D01*
X146320713Y-108456030D01*
X146590109Y-108045456D01*
X146731457Y-107567822D01*
X146745978Y-107357333D01*
X146473333Y-107357333D01*
X146397313Y-107742734D01*
X146193294Y-108119968D01*
X145897338Y-108438948D01*
X145545509Y-108649584D01*
X145542000Y-108650910D01*
X145205031Y-108703813D01*
X144818453Y-108652690D01*
X144529757Y-108544583D01*
X144146351Y-108274545D01*
X143909319Y-107924048D01*
X143810434Y-107479517D01*
X143806333Y-107350743D01*
X143825421Y-107027937D01*
X143898787Y-106790806D01*
X144037710Y-106575135D01*
X144339242Y-106295187D01*
X144723500Y-106100733D01*
X145128324Y-106018054D01*
X145330357Y-106028603D01*
X145725212Y-106171456D01*
X146068236Y-106440419D01*
X146324888Y-106795339D01*
X146460626Y-107196060D01*
X146473333Y-107357333D01*
X146745978Y-107357333D01*
X146746872Y-107344387D01*
X146665631Y-106838812D01*
X146426661Y-106386173D01*
X146099682Y-106049511D01*
X145921337Y-105916772D01*
X145757807Y-105839294D01*
X145553800Y-105802404D01*
X145254025Y-105791433D01*
X145125384Y-105791000D01*
X144777125Y-105797521D01*
G36*
X155548450Y-107388332D02*
X155355195Y-107454239D01*
X155236683Y-107548963D01*
X155231111Y-107649017D01*
X155271091Y-107686621D01*
X155450929Y-107712145D01*
X155535042Y-107674867D01*
X155738941Y-107613812D01*
X155885216Y-107702570D01*
X155953476Y-107925763D01*
X155956000Y-107992333D01*
X155907923Y-108243417D01*
X155777284Y-108363494D01*
X155584471Y-108337189D01*
X155535042Y-108309799D01*
X155345119Y-108267839D01*
X155271091Y-108298157D01*
X155210192Y-108373494D01*
X155272223Y-108473476D01*
X155351546Y-108544387D01*
X155587506Y-108685660D01*
X155827651Y-108687300D01*
X156040666Y-108602816D01*
X156237340Y-108412150D01*
X156331160Y-108179117D01*
X156342718Y-107846328D01*
X156213710Y-107581463D01*
X155964740Y-107414500D01*
X155778256Y-107374732D01*
X155548450Y-107388332D01*
X155548450Y-107388332D01*
G37*
X155548450Y-107388332D02*
X155355195Y-107454239D01*
X155236683Y-107548963D01*
X155231111Y-107649017D01*
X155271091Y-107686621D01*
X155450929Y-107712145D01*
X155535042Y-107674867D01*
X155738941Y-107613812D01*
X155885216Y-107702570D01*
X155953476Y-107925763D01*
X155956000Y-107992333D01*
X155907923Y-108243417D01*
X155777284Y-108363494D01*
X155584471Y-108337189D01*
X155535042Y-108309799D01*
X155345119Y-108267839D01*
X155271091Y-108298157D01*
X155210192Y-108373494D01*
X155272223Y-108473476D01*
X155351546Y-108544387D01*
X155587506Y-108685660D01*
X155827651Y-108687300D01*
X156040666Y-108602816D01*
X156237340Y-108412150D01*
X156331160Y-108179117D01*
X156342718Y-107846328D01*
X156213710Y-107581463D01*
X155964740Y-107414500D01*
X155778256Y-107374732D01*
X155548450Y-107388332D01*
G36*
X154248304Y-107389300D02*
X154060892Y-107468548D01*
X153958794Y-107570100D01*
X153978668Y-107668978D01*
X154001091Y-107686621D01*
X154180929Y-107712145D01*
X154265042Y-107674867D01*
X154468941Y-107613812D01*
X154615216Y-107702570D01*
X154683476Y-107925763D01*
X154686000Y-107992333D01*
X154637923Y-108243417D01*
X154507284Y-108363494D01*
X154314471Y-108337189D01*
X154265042Y-108309799D01*
X154075119Y-108267839D01*
X154001091Y-108298157D01*
X153940192Y-108373494D01*
X154002223Y-108473476D01*
X154081546Y-108544387D01*
X154289359Y-108672503D01*
X154517669Y-108691745D01*
X154708317Y-108653415D01*
X154858312Y-108544332D01*
X154999384Y-108335420D01*
X155092573Y-108093496D01*
X155109333Y-107965622D01*
X155033770Y-107709533D01*
X154842663Y-107493519D01*
X154589385Y-107369529D01*
X154484370Y-107357333D01*
X154248304Y-107389300D01*
X154248304Y-107389300D01*
G37*
X154248304Y-107389300D02*
X154060892Y-107468548D01*
X153958794Y-107570100D01*
X153978668Y-107668978D01*
X154001091Y-107686621D01*
X154180929Y-107712145D01*
X154265042Y-107674867D01*
X154468941Y-107613812D01*
X154615216Y-107702570D01*
X154683476Y-107925763D01*
X154686000Y-107992333D01*
X154637923Y-108243417D01*
X154507284Y-108363494D01*
X154314471Y-108337189D01*
X154265042Y-108309799D01*
X154075119Y-108267839D01*
X154001091Y-108298157D01*
X153940192Y-108373494D01*
X154002223Y-108473476D01*
X154081546Y-108544387D01*
X154289359Y-108672503D01*
X154517669Y-108691745D01*
X154708317Y-108653415D01*
X154858312Y-108544332D01*
X154999384Y-108335420D01*
X155092573Y-108093496D01*
X155109333Y-107965622D01*
X155033770Y-107709533D01*
X154842663Y-107493519D01*
X154589385Y-107369529D01*
X154484370Y-107357333D01*
X154248304Y-107389300D01*
G36*
X148690260Y-107216924D02*
X148708375Y-107507744D01*
X148792121Y-107640257D01*
X148880862Y-107783452D01*
X148939340Y-108015219D01*
X148945861Y-108077000D01*
X148974084Y-108293722D01*
X149034670Y-108383634D01*
X149157028Y-108389236D01*
X149161500Y-108388611D01*
X149287868Y-108342905D01*
X149342191Y-108220733D01*
X149352000Y-108032985D01*
X149389421Y-107761911D01*
X149484973Y-107629999D01*
X149577462Y-107505481D01*
X149593461Y-107260447D01*
X149590806Y-107223625D01*
X149563666Y-106891667D01*
X148717000Y-106891667D01*
X148690260Y-107216924D01*
X148690260Y-107216924D01*
G37*
X148690260Y-107216924D02*
X148708375Y-107507744D01*
X148792121Y-107640257D01*
X148880862Y-107783452D01*
X148939340Y-108015219D01*
X148945861Y-108077000D01*
X148974084Y-108293722D01*
X149034670Y-108383634D01*
X149157028Y-108389236D01*
X149161500Y-108388611D01*
X149287868Y-108342905D01*
X149342191Y-108220733D01*
X149352000Y-108032985D01*
X149389421Y-107761911D01*
X149484973Y-107629999D01*
X149577462Y-107505481D01*
X149593461Y-107260447D01*
X149590806Y-107223625D01*
X149563666Y-106891667D01*
X148717000Y-106891667D01*
X148690260Y-107216924D01*
G36*
X149001228Y-106411960D02*
X148941458Y-106545053D01*
X148944548Y-106572938D01*
X149031929Y-106707995D01*
X149175406Y-106747290D01*
X149300176Y-106677855D01*
X149321165Y-106638233D01*
X149322141Y-106472790D01*
X149284266Y-106409067D01*
X149140165Y-106354732D01*
X149001228Y-106411960D01*
X149001228Y-106411960D01*
G37*
X149001228Y-106411960D02*
X148941458Y-106545053D01*
X148944548Y-106572938D01*
X149031929Y-106707995D01*
X149175406Y-106747290D01*
X149300176Y-106677855D01*
X149321165Y-106638233D01*
X149322141Y-106472790D01*
X149284266Y-106409067D01*
X149140165Y-106354732D01*
X149001228Y-106411960D01*
G36*
X144777509Y-106593984D02*
X144526333Y-106778782D01*
X144356546Y-107071938D01*
X144347829Y-107099442D01*
X144311105Y-107466062D01*
X144408353Y-107794235D01*
X144613031Y-108053502D01*
X144898592Y-108213405D01*
X145238492Y-108243486D01*
X145330333Y-108226800D01*
X145596255Y-108094495D01*
X145784165Y-107872485D01*
X145821966Y-107775183D01*
X145804628Y-107646201D01*
X145689531Y-107610427D01*
X145519940Y-107667333D01*
X145372666Y-107780667D01*
X145221034Y-107904974D01*
X145118666Y-107950000D01*
X145001864Y-107895351D01*
X144864666Y-107780667D01*
X144730914Y-107560248D01*
X144698353Y-107307754D01*
X144756171Y-107072477D01*
X144893557Y-106903706D01*
X145068945Y-106849333D01*
X145238683Y-106888915D01*
X145377191Y-106979962D01*
X145431284Y-107080927D01*
X145413746Y-107118698D01*
X145435846Y-107198879D01*
X145529341Y-107303544D01*
X145690491Y-107383760D01*
X145803804Y-107327309D01*
X145841311Y-107165688D01*
X145803164Y-106995176D01*
X145622901Y-106718139D01*
X145365440Y-106560822D01*
X145070427Y-106520384D01*
X144777509Y-106593984D01*
X144777509Y-106593984D01*
G37*
X144777509Y-106593984D02*
X144526333Y-106778782D01*
X144356546Y-107071938D01*
X144347829Y-107099442D01*
X144311105Y-107466062D01*
X144408353Y-107794235D01*
X144613031Y-108053502D01*
X144898592Y-108213405D01*
X145238492Y-108243486D01*
X145330333Y-108226800D01*
X145596255Y-108094495D01*
X145784165Y-107872485D01*
X145821966Y-107775183D01*
X145804628Y-107646201D01*
X145689531Y-107610427D01*
X145519940Y-107667333D01*
X145372666Y-107780667D01*
X145221034Y-107904974D01*
X145118666Y-107950000D01*
X145001864Y-107895351D01*
X144864666Y-107780667D01*
X144730914Y-107560248D01*
X144698353Y-107307754D01*
X144756171Y-107072477D01*
X144893557Y-106903706D01*
X145068945Y-106849333D01*
X145238683Y-106888915D01*
X145377191Y-106979962D01*
X145431284Y-107080927D01*
X145413746Y-107118698D01*
X145435846Y-107198879D01*
X145529341Y-107303544D01*
X145690491Y-107383760D01*
X145803804Y-107327309D01*
X145841311Y-107165688D01*
X145803164Y-106995176D01*
X145622901Y-106718139D01*
X145365440Y-106560822D01*
X145070427Y-106520384D01*
X144777509Y-106593984D01*
M02*
