M48
;DRILL file {KiCad 4.0.7} date Wednesday, 20 June 2018 'PMt' 21:51:44
;FORMAT={-:-/ absolute / inch / decimal}
FMAT,2
INCH,TZ
T1C0.012
T2C0.016
T3C0.020
T4C0.022
T5C0.039
%
G90
G05
M72
T1
X5.16Y-3.2
X5.16Y-3.3
X5.16Y-3.4
X5.16Y-3.5
X5.16Y-3.56
X5.17Y-4.06
X5.17Y-4.2
X5.17Y-4.3
X5.17Y-4.4
X5.17Y-4.5
X5.17Y-4.6
X5.17Y-4.7
X5.17Y-4.8
X5.2Y-3.81
X5.23Y-3.73
X5.24Y-3.4
X5.25Y-4.1
X5.29Y-3.66
X5.29Y-3.94
X5.29Y-4.8
X5.33Y-4.
X5.35Y-3.63
X5.37Y-3.94
X5.41Y-4.
X5.5Y-4.29
X5.55Y-4.57
X5.55Y-4.65
X5.55Y-4.75
X5.55Y-4.85
X5.57Y-3.39
X5.6Y-4.14
X5.6Y-4.25
X5.65Y-4.85
X5.66Y-3.5
X5.68Y-3.4
X5.71Y-4.14
X5.71Y-4.25
X5.73Y-4.46
X5.73Y-4.55
X5.75Y-5.15
X5.8Y-3.4
X5.81Y-4.14
X5.82Y-3.7
X5.82Y-4.25
X5.84Y-4.92
X5.85Y-5.15
X5.86Y-4.46
X5.86Y-4.55
X5.9Y-3.6
X5.9Y-3.7
X5.9Y-3.8
X5.92Y-4.25
X5.93Y-3.46
X5.98Y-3.6
X5.98Y-3.7
X5.98Y-3.8
X5.98Y-3.9
X6.01Y-3.38
X6.04Y-3.5
X6.08Y-3.9
X6.08Y-4.
X6.12Y-3.4
X6.12Y-3.5
X6.17Y-3.9
X6.17Y-4.
X6.17Y-4.1
X6.22Y-3.4
X6.22Y-3.5
X6.26Y-4.1
X6.3Y-4.9
X6.3Y-5.
X6.3Y-5.15
X6.32Y-3.4
X6.32Y-3.5
X6.32Y-3.6
X6.32Y-3.7
X6.32Y-3.8
X6.32Y-3.9
X6.36Y-5.05
X6.37Y-3.65
X6.37Y-3.75
X6.37Y-3.85
X6.37Y-3.95
X6.47Y-5.05
X6.49Y-3.53
X6.49Y-3.63
X6.49Y-3.73
X6.49Y-3.83
X6.55Y-4.3
X6.57Y-3.63
X6.63Y-3.67
X6.64Y-4.51
X6.65Y-3.21
X6.65Y-3.3
T2
X5.29Y-3.42
X5.31Y-3.75
X5.34Y-3.7
X5.365Y-3.75
X5.37Y-3.35
X5.37Y-3.42
X5.43Y-3.38
X5.43Y-3.43
X5.44Y-3.46
X5.44Y-3.72
X5.47Y-3.695
X5.474Y-4.0665
X5.4946Y-3.725
X5.5172Y-3.7803
X5.5175Y-3.495
X5.6085Y-3.7002
X5.64Y-3.7
X5.675Y-3.54
X5.69Y-3.62
X5.99Y-3.34
X6.06Y-4.655
X6.0866Y-4.735
X6.125Y-4.89
X6.165Y-4.965
X6.19Y-4.33
X6.2Y-5.13
X6.23Y-4.44
X6.245Y-5.045
X6.26Y-4.17
X6.2626Y-4.6526
X6.275Y-4.815
X6.33Y-4.32
X6.375Y-4.97
X6.42Y-5.125
X6.425Y-4.215
X6.485Y-4.895
T5
X5.2Y-4.93
X5.2Y-5.03
X6.61Y-3.44
X6.61Y-3.54
X6.61Y-3.78
X6.61Y-3.88
X6.61Y-3.98
X6.61Y-4.08
X6.61Y-4.18
T3
X5.3644Y-5.0928G85X5.3644Y-5.0672
G05
X5.64Y-5.0928G85X5.64Y-5.0672
G05
T4
X5.3979Y-4.9737G85X5.4097Y-4.9737
G05
X5.5947Y-4.9737G85X5.6065Y-4.9737
G05
T0
M30
